G04 MADE WITH FRITZING*
G04 WWW.FRITZING.ORG*
G04 DOUBLE SIDED*
G04 HOLES PLATED*
G04 CONTOUR ON CENTER OF CONTOUR VECTOR*
%ASAXBY*%
%FSLAX23Y23*%
%MOIN*%
%OFA0B0*%
%SFA1.0B1.0*%
%ADD10C,0.075000*%
%ADD11C,0.078000*%
%ADD12C,0.082000*%
%ADD13R,0.075000X0.075000*%
%ADD14R,0.082000X0.082000*%
%LNCOPPER1*%
G90*
G70*
G54D10*
X1432Y1704D03*
G54D11*
X1499Y1211D03*
X1399Y1211D03*
X1499Y1211D03*
X1399Y1211D03*
X1499Y1111D03*
X1399Y1111D03*
X1499Y1111D03*
X1399Y1111D03*
X699Y111D03*
X799Y111D03*
X899Y111D03*
X999Y111D03*
X699Y111D03*
X799Y111D03*
X899Y111D03*
X999Y111D03*
G54D10*
X1199Y1711D03*
X1199Y1411D03*
X1099Y1711D03*
X1099Y1411D03*
X999Y1711D03*
X999Y1411D03*
X899Y1711D03*
X899Y1411D03*
X799Y1711D03*
X799Y1411D03*
X699Y1711D03*
X699Y1411D03*
X599Y1711D03*
X599Y1411D03*
G54D11*
X1304Y1711D03*
X1304Y1611D03*
X1304Y1511D03*
X1304Y1411D03*
X1304Y1711D03*
X1304Y1611D03*
X1304Y1511D03*
X1304Y1411D03*
G54D10*
X699Y611D03*
X599Y611D03*
X499Y611D03*
X699Y611D03*
X599Y611D03*
X499Y611D03*
X999Y611D03*
X899Y611D03*
X799Y611D03*
X999Y611D03*
X899Y611D03*
X799Y611D03*
X1299Y611D03*
X1199Y611D03*
X1099Y611D03*
X1299Y611D03*
X1199Y611D03*
X1099Y611D03*
G54D12*
X999Y311D03*
X899Y311D03*
X799Y311D03*
X999Y311D03*
X899Y311D03*
X799Y311D03*
X399Y311D03*
X299Y311D03*
X199Y311D03*
X399Y311D03*
X299Y311D03*
X199Y311D03*
X1599Y311D03*
X1499Y311D03*
X1399Y311D03*
X1599Y311D03*
X1499Y311D03*
X1399Y311D03*
G54D10*
X699Y711D03*
X699Y1111D03*
X699Y711D03*
X699Y1111D03*
X999Y711D03*
X999Y1111D03*
X999Y711D03*
X999Y1111D03*
X1299Y711D03*
X1299Y1111D03*
X1299Y711D03*
X1299Y1111D03*
X899Y1211D03*
X899Y811D03*
X899Y1211D03*
X899Y811D03*
X599Y1211D03*
X599Y811D03*
X599Y1211D03*
X599Y811D03*
X1199Y1211D03*
X1199Y811D03*
X1199Y1211D03*
X1199Y811D03*
G54D13*
X1199Y1711D03*
G54D14*
X999Y311D03*
X999Y311D03*
X399Y311D03*
X399Y311D03*
X1599Y311D03*
X1599Y311D03*
G36*
X40Y1781D02*
X40Y1761D01*
X1310Y1761D01*
X1310Y1759D01*
X1318Y1759D01*
X1318Y1757D01*
X1324Y1757D01*
X1324Y1755D01*
X1328Y1755D01*
X1328Y1753D01*
X1332Y1753D01*
X1332Y1751D01*
X1334Y1751D01*
X1334Y1749D01*
X1336Y1749D01*
X1336Y1747D01*
X1338Y1747D01*
X1338Y1745D01*
X1340Y1745D01*
X1340Y1743D01*
X1342Y1743D01*
X1342Y1741D01*
X1344Y1741D01*
X1344Y1737D01*
X1346Y1737D01*
X1346Y1733D01*
X1348Y1733D01*
X1348Y1731D01*
X1350Y1731D01*
X1350Y1723D01*
X1352Y1723D01*
X1352Y1699D01*
X1350Y1699D01*
X1350Y1693D01*
X1348Y1693D01*
X1348Y1689D01*
X1346Y1689D01*
X1346Y1685D01*
X1344Y1685D01*
X1344Y1683D01*
X1342Y1683D01*
X1342Y1681D01*
X1340Y1681D01*
X1340Y1677D01*
X1338Y1677D01*
X1338Y1675D01*
X1334Y1675D01*
X1334Y1673D01*
X1332Y1673D01*
X1332Y1651D01*
X1334Y1651D01*
X1334Y1649D01*
X1336Y1649D01*
X1336Y1647D01*
X1338Y1647D01*
X1338Y1645D01*
X1340Y1645D01*
X1340Y1643D01*
X1342Y1643D01*
X1342Y1641D01*
X1344Y1641D01*
X1344Y1637D01*
X1346Y1637D01*
X1346Y1633D01*
X1348Y1633D01*
X1348Y1631D01*
X1350Y1631D01*
X1350Y1623D01*
X1352Y1623D01*
X1352Y1599D01*
X1350Y1599D01*
X1350Y1593D01*
X1348Y1593D01*
X1348Y1589D01*
X1346Y1589D01*
X1346Y1585D01*
X1344Y1585D01*
X1344Y1583D01*
X1342Y1583D01*
X1342Y1581D01*
X1340Y1581D01*
X1340Y1577D01*
X1338Y1577D01*
X1338Y1575D01*
X1334Y1575D01*
X1334Y1573D01*
X1332Y1573D01*
X1332Y1551D01*
X1334Y1551D01*
X1334Y1549D01*
X1336Y1549D01*
X1336Y1547D01*
X1338Y1547D01*
X1338Y1545D01*
X1340Y1545D01*
X1340Y1543D01*
X1342Y1543D01*
X1342Y1541D01*
X1344Y1541D01*
X1344Y1537D01*
X1346Y1537D01*
X1346Y1533D01*
X1348Y1533D01*
X1348Y1531D01*
X1350Y1531D01*
X1350Y1523D01*
X1352Y1523D01*
X1352Y1499D01*
X1350Y1499D01*
X1350Y1493D01*
X1348Y1493D01*
X1348Y1489D01*
X1346Y1489D01*
X1346Y1485D01*
X1344Y1485D01*
X1344Y1483D01*
X1342Y1483D01*
X1342Y1481D01*
X1340Y1481D01*
X1340Y1477D01*
X1338Y1477D01*
X1338Y1475D01*
X1334Y1475D01*
X1334Y1473D01*
X1332Y1473D01*
X1332Y1451D01*
X1334Y1451D01*
X1334Y1449D01*
X1336Y1449D01*
X1336Y1447D01*
X1338Y1447D01*
X1338Y1445D01*
X1340Y1445D01*
X1340Y1443D01*
X1342Y1443D01*
X1342Y1441D01*
X1344Y1441D01*
X1344Y1437D01*
X1346Y1437D01*
X1346Y1433D01*
X1348Y1433D01*
X1348Y1431D01*
X1350Y1431D01*
X1350Y1423D01*
X1352Y1423D01*
X1352Y1399D01*
X1350Y1399D01*
X1350Y1393D01*
X1348Y1393D01*
X1348Y1389D01*
X1346Y1389D01*
X1346Y1385D01*
X1344Y1385D01*
X1344Y1383D01*
X1342Y1383D01*
X1342Y1381D01*
X1340Y1381D01*
X1340Y1377D01*
X1338Y1377D01*
X1338Y1375D01*
X1334Y1375D01*
X1334Y1373D01*
X1332Y1373D01*
X1332Y1371D01*
X1330Y1371D01*
X1330Y1369D01*
X1326Y1369D01*
X1326Y1367D01*
X1322Y1367D01*
X1322Y1365D01*
X1314Y1365D01*
X1314Y1363D01*
X1690Y1363D01*
X1690Y1781D01*
X40Y1781D01*
G37*
D02*
G36*
X40Y1761D02*
X40Y1759D01*
X1246Y1759D01*
X1246Y1741D01*
X1266Y1741D01*
X1266Y1743D01*
X1268Y1743D01*
X1268Y1745D01*
X1270Y1745D01*
X1270Y1747D01*
X1272Y1747D01*
X1272Y1749D01*
X1274Y1749D01*
X1274Y1751D01*
X1276Y1751D01*
X1276Y1753D01*
X1280Y1753D01*
X1280Y1755D01*
X1284Y1755D01*
X1284Y1757D01*
X1290Y1757D01*
X1290Y1759D01*
X1298Y1759D01*
X1298Y1761D01*
X40Y1761D01*
G37*
D02*
G36*
X40Y1759D02*
X40Y1665D01*
X586Y1665D01*
X586Y1667D01*
X580Y1667D01*
X580Y1669D01*
X576Y1669D01*
X576Y1671D01*
X572Y1671D01*
X572Y1673D01*
X570Y1673D01*
X570Y1675D01*
X568Y1675D01*
X568Y1677D01*
X566Y1677D01*
X566Y1679D01*
X564Y1679D01*
X564Y1681D01*
X562Y1681D01*
X562Y1683D01*
X560Y1683D01*
X560Y1685D01*
X558Y1685D01*
X558Y1689D01*
X556Y1689D01*
X556Y1693D01*
X554Y1693D01*
X554Y1699D01*
X552Y1699D01*
X552Y1723D01*
X554Y1723D01*
X554Y1729D01*
X556Y1729D01*
X556Y1733D01*
X558Y1733D01*
X558Y1737D01*
X560Y1737D01*
X560Y1739D01*
X562Y1739D01*
X562Y1743D01*
X564Y1743D01*
X564Y1745D01*
X566Y1745D01*
X566Y1747D01*
X568Y1747D01*
X568Y1749D01*
X572Y1749D01*
X572Y1751D01*
X574Y1751D01*
X574Y1753D01*
X578Y1753D01*
X578Y1755D01*
X582Y1755D01*
X582Y1757D01*
X590Y1757D01*
X590Y1759D01*
X40Y1759D01*
G37*
D02*
G36*
X608Y1759D02*
X608Y1757D01*
X614Y1757D01*
X614Y1755D01*
X620Y1755D01*
X620Y1753D01*
X624Y1753D01*
X624Y1751D01*
X626Y1751D01*
X626Y1749D01*
X628Y1749D01*
X628Y1747D01*
X632Y1747D01*
X632Y1745D01*
X634Y1745D01*
X634Y1741D01*
X636Y1741D01*
X636Y1739D01*
X638Y1739D01*
X638Y1737D01*
X660Y1737D01*
X660Y1739D01*
X662Y1739D01*
X662Y1743D01*
X664Y1743D01*
X664Y1745D01*
X666Y1745D01*
X666Y1747D01*
X668Y1747D01*
X668Y1749D01*
X672Y1749D01*
X672Y1751D01*
X674Y1751D01*
X674Y1753D01*
X678Y1753D01*
X678Y1755D01*
X682Y1755D01*
X682Y1757D01*
X690Y1757D01*
X690Y1759D01*
X608Y1759D01*
G37*
D02*
G36*
X708Y1759D02*
X708Y1757D01*
X714Y1757D01*
X714Y1755D01*
X720Y1755D01*
X720Y1753D01*
X724Y1753D01*
X724Y1751D01*
X726Y1751D01*
X726Y1749D01*
X728Y1749D01*
X728Y1747D01*
X732Y1747D01*
X732Y1745D01*
X734Y1745D01*
X734Y1741D01*
X736Y1741D01*
X736Y1739D01*
X738Y1739D01*
X738Y1737D01*
X760Y1737D01*
X760Y1739D01*
X762Y1739D01*
X762Y1743D01*
X764Y1743D01*
X764Y1745D01*
X766Y1745D01*
X766Y1747D01*
X768Y1747D01*
X768Y1749D01*
X772Y1749D01*
X772Y1751D01*
X774Y1751D01*
X774Y1753D01*
X778Y1753D01*
X778Y1755D01*
X782Y1755D01*
X782Y1757D01*
X790Y1757D01*
X790Y1759D01*
X708Y1759D01*
G37*
D02*
G36*
X808Y1759D02*
X808Y1757D01*
X814Y1757D01*
X814Y1755D01*
X820Y1755D01*
X820Y1753D01*
X824Y1753D01*
X824Y1751D01*
X826Y1751D01*
X826Y1749D01*
X828Y1749D01*
X828Y1747D01*
X832Y1747D01*
X832Y1745D01*
X834Y1745D01*
X834Y1741D01*
X836Y1741D01*
X836Y1739D01*
X838Y1739D01*
X838Y1737D01*
X860Y1737D01*
X860Y1739D01*
X862Y1739D01*
X862Y1743D01*
X864Y1743D01*
X864Y1745D01*
X866Y1745D01*
X866Y1747D01*
X868Y1747D01*
X868Y1749D01*
X872Y1749D01*
X872Y1751D01*
X874Y1751D01*
X874Y1753D01*
X878Y1753D01*
X878Y1755D01*
X882Y1755D01*
X882Y1757D01*
X890Y1757D01*
X890Y1759D01*
X808Y1759D01*
G37*
D02*
G36*
X908Y1759D02*
X908Y1757D01*
X914Y1757D01*
X914Y1755D01*
X920Y1755D01*
X920Y1753D01*
X924Y1753D01*
X924Y1751D01*
X926Y1751D01*
X926Y1749D01*
X928Y1749D01*
X928Y1747D01*
X932Y1747D01*
X932Y1745D01*
X934Y1745D01*
X934Y1741D01*
X936Y1741D01*
X936Y1739D01*
X938Y1739D01*
X938Y1737D01*
X960Y1737D01*
X960Y1739D01*
X962Y1739D01*
X962Y1743D01*
X964Y1743D01*
X964Y1745D01*
X966Y1745D01*
X966Y1747D01*
X968Y1747D01*
X968Y1749D01*
X972Y1749D01*
X972Y1751D01*
X974Y1751D01*
X974Y1753D01*
X978Y1753D01*
X978Y1755D01*
X982Y1755D01*
X982Y1757D01*
X990Y1757D01*
X990Y1759D01*
X908Y1759D01*
G37*
D02*
G36*
X1008Y1759D02*
X1008Y1757D01*
X1014Y1757D01*
X1014Y1755D01*
X1020Y1755D01*
X1020Y1753D01*
X1024Y1753D01*
X1024Y1751D01*
X1026Y1751D01*
X1026Y1749D01*
X1028Y1749D01*
X1028Y1747D01*
X1032Y1747D01*
X1032Y1745D01*
X1034Y1745D01*
X1034Y1741D01*
X1036Y1741D01*
X1036Y1739D01*
X1038Y1739D01*
X1038Y1737D01*
X1060Y1737D01*
X1060Y1739D01*
X1062Y1739D01*
X1062Y1743D01*
X1064Y1743D01*
X1064Y1745D01*
X1066Y1745D01*
X1066Y1747D01*
X1068Y1747D01*
X1068Y1749D01*
X1072Y1749D01*
X1072Y1751D01*
X1074Y1751D01*
X1074Y1753D01*
X1078Y1753D01*
X1078Y1755D01*
X1082Y1755D01*
X1082Y1757D01*
X1090Y1757D01*
X1090Y1759D01*
X1008Y1759D01*
G37*
D02*
G36*
X1108Y1759D02*
X1108Y1757D01*
X1114Y1757D01*
X1114Y1755D01*
X1120Y1755D01*
X1120Y1753D01*
X1124Y1753D01*
X1124Y1751D01*
X1126Y1751D01*
X1126Y1749D01*
X1128Y1749D01*
X1128Y1747D01*
X1132Y1747D01*
X1132Y1745D01*
X1152Y1745D01*
X1152Y1759D01*
X1108Y1759D01*
G37*
D02*
G36*
X638Y1687D02*
X638Y1683D01*
X636Y1683D01*
X636Y1681D01*
X634Y1681D01*
X634Y1679D01*
X632Y1679D01*
X632Y1677D01*
X630Y1677D01*
X630Y1675D01*
X628Y1675D01*
X628Y1673D01*
X624Y1673D01*
X624Y1671D01*
X622Y1671D01*
X622Y1669D01*
X618Y1669D01*
X618Y1667D01*
X612Y1667D01*
X612Y1665D01*
X686Y1665D01*
X686Y1667D01*
X680Y1667D01*
X680Y1669D01*
X676Y1669D01*
X676Y1671D01*
X672Y1671D01*
X672Y1673D01*
X670Y1673D01*
X670Y1675D01*
X668Y1675D01*
X668Y1677D01*
X666Y1677D01*
X666Y1679D01*
X664Y1679D01*
X664Y1681D01*
X662Y1681D01*
X662Y1683D01*
X660Y1683D01*
X660Y1685D01*
X658Y1685D01*
X658Y1687D01*
X638Y1687D01*
G37*
D02*
G36*
X738Y1687D02*
X738Y1683D01*
X736Y1683D01*
X736Y1681D01*
X734Y1681D01*
X734Y1679D01*
X732Y1679D01*
X732Y1677D01*
X730Y1677D01*
X730Y1675D01*
X728Y1675D01*
X728Y1673D01*
X724Y1673D01*
X724Y1671D01*
X722Y1671D01*
X722Y1669D01*
X718Y1669D01*
X718Y1667D01*
X712Y1667D01*
X712Y1665D01*
X786Y1665D01*
X786Y1667D01*
X780Y1667D01*
X780Y1669D01*
X776Y1669D01*
X776Y1671D01*
X772Y1671D01*
X772Y1673D01*
X770Y1673D01*
X770Y1675D01*
X768Y1675D01*
X768Y1677D01*
X766Y1677D01*
X766Y1679D01*
X764Y1679D01*
X764Y1681D01*
X762Y1681D01*
X762Y1683D01*
X760Y1683D01*
X760Y1685D01*
X758Y1685D01*
X758Y1687D01*
X738Y1687D01*
G37*
D02*
G36*
X838Y1687D02*
X838Y1683D01*
X836Y1683D01*
X836Y1681D01*
X834Y1681D01*
X834Y1679D01*
X832Y1679D01*
X832Y1677D01*
X830Y1677D01*
X830Y1675D01*
X828Y1675D01*
X828Y1673D01*
X824Y1673D01*
X824Y1671D01*
X822Y1671D01*
X822Y1669D01*
X818Y1669D01*
X818Y1667D01*
X812Y1667D01*
X812Y1665D01*
X886Y1665D01*
X886Y1667D01*
X880Y1667D01*
X880Y1669D01*
X876Y1669D01*
X876Y1671D01*
X872Y1671D01*
X872Y1673D01*
X870Y1673D01*
X870Y1675D01*
X868Y1675D01*
X868Y1677D01*
X866Y1677D01*
X866Y1679D01*
X864Y1679D01*
X864Y1681D01*
X862Y1681D01*
X862Y1683D01*
X860Y1683D01*
X860Y1685D01*
X858Y1685D01*
X858Y1687D01*
X838Y1687D01*
G37*
D02*
G36*
X938Y1687D02*
X938Y1683D01*
X936Y1683D01*
X936Y1681D01*
X934Y1681D01*
X934Y1679D01*
X932Y1679D01*
X932Y1677D01*
X930Y1677D01*
X930Y1675D01*
X928Y1675D01*
X928Y1673D01*
X924Y1673D01*
X924Y1671D01*
X922Y1671D01*
X922Y1669D01*
X918Y1669D01*
X918Y1667D01*
X912Y1667D01*
X912Y1665D01*
X986Y1665D01*
X986Y1667D01*
X980Y1667D01*
X980Y1669D01*
X976Y1669D01*
X976Y1671D01*
X972Y1671D01*
X972Y1673D01*
X970Y1673D01*
X970Y1675D01*
X968Y1675D01*
X968Y1677D01*
X966Y1677D01*
X966Y1679D01*
X964Y1679D01*
X964Y1681D01*
X962Y1681D01*
X962Y1683D01*
X960Y1683D01*
X960Y1685D01*
X958Y1685D01*
X958Y1687D01*
X938Y1687D01*
G37*
D02*
G36*
X1038Y1687D02*
X1038Y1683D01*
X1036Y1683D01*
X1036Y1681D01*
X1034Y1681D01*
X1034Y1679D01*
X1032Y1679D01*
X1032Y1677D01*
X1030Y1677D01*
X1030Y1675D01*
X1028Y1675D01*
X1028Y1673D01*
X1024Y1673D01*
X1024Y1671D01*
X1022Y1671D01*
X1022Y1669D01*
X1018Y1669D01*
X1018Y1667D01*
X1012Y1667D01*
X1012Y1665D01*
X1086Y1665D01*
X1086Y1667D01*
X1080Y1667D01*
X1080Y1669D01*
X1076Y1669D01*
X1076Y1671D01*
X1072Y1671D01*
X1072Y1673D01*
X1070Y1673D01*
X1070Y1675D01*
X1068Y1675D01*
X1068Y1677D01*
X1066Y1677D01*
X1066Y1679D01*
X1064Y1679D01*
X1064Y1681D01*
X1062Y1681D01*
X1062Y1683D01*
X1060Y1683D01*
X1060Y1685D01*
X1058Y1685D01*
X1058Y1687D01*
X1038Y1687D01*
G37*
D02*
G36*
X1246Y1681D02*
X1246Y1663D01*
X1276Y1663D01*
X1276Y1673D01*
X1272Y1673D01*
X1272Y1675D01*
X1270Y1675D01*
X1270Y1677D01*
X1268Y1677D01*
X1268Y1679D01*
X1266Y1679D01*
X1266Y1681D01*
X1246Y1681D01*
G37*
D02*
G36*
X1132Y1679D02*
X1132Y1677D01*
X1130Y1677D01*
X1130Y1675D01*
X1128Y1675D01*
X1128Y1673D01*
X1124Y1673D01*
X1124Y1671D01*
X1122Y1671D01*
X1122Y1669D01*
X1118Y1669D01*
X1118Y1667D01*
X1112Y1667D01*
X1112Y1665D01*
X1152Y1665D01*
X1152Y1679D01*
X1132Y1679D01*
G37*
D02*
G36*
X40Y1665D02*
X40Y1663D01*
X1152Y1663D01*
X1152Y1665D01*
X40Y1665D01*
G37*
D02*
G36*
X40Y1665D02*
X40Y1663D01*
X1152Y1663D01*
X1152Y1665D01*
X40Y1665D01*
G37*
D02*
G36*
X40Y1665D02*
X40Y1663D01*
X1152Y1663D01*
X1152Y1665D01*
X40Y1665D01*
G37*
D02*
G36*
X40Y1665D02*
X40Y1663D01*
X1152Y1663D01*
X1152Y1665D01*
X40Y1665D01*
G37*
D02*
G36*
X40Y1665D02*
X40Y1663D01*
X1152Y1663D01*
X1152Y1665D01*
X40Y1665D01*
G37*
D02*
G36*
X40Y1665D02*
X40Y1663D01*
X1152Y1663D01*
X1152Y1665D01*
X40Y1665D01*
G37*
D02*
G36*
X40Y1665D02*
X40Y1663D01*
X1152Y1663D01*
X1152Y1665D01*
X40Y1665D01*
G37*
D02*
G36*
X40Y1663D02*
X40Y1661D01*
X1276Y1661D01*
X1276Y1663D01*
X40Y1663D01*
G37*
D02*
G36*
X40Y1663D02*
X40Y1661D01*
X1276Y1661D01*
X1276Y1663D01*
X40Y1663D01*
G37*
D02*
G36*
X40Y1661D02*
X40Y1459D01*
X1208Y1459D01*
X1208Y1457D01*
X1214Y1457D01*
X1214Y1455D01*
X1220Y1455D01*
X1220Y1453D01*
X1224Y1453D01*
X1224Y1451D01*
X1226Y1451D01*
X1226Y1449D01*
X1228Y1449D01*
X1228Y1447D01*
X1232Y1447D01*
X1232Y1445D01*
X1234Y1445D01*
X1234Y1441D01*
X1236Y1441D01*
X1236Y1439D01*
X1238Y1439D01*
X1238Y1437D01*
X1240Y1437D01*
X1240Y1433D01*
X1260Y1433D01*
X1260Y1435D01*
X1262Y1435D01*
X1262Y1439D01*
X1264Y1439D01*
X1264Y1441D01*
X1266Y1441D01*
X1266Y1443D01*
X1268Y1443D01*
X1268Y1445D01*
X1270Y1445D01*
X1270Y1447D01*
X1272Y1447D01*
X1272Y1449D01*
X1274Y1449D01*
X1274Y1451D01*
X1276Y1451D01*
X1276Y1473D01*
X1272Y1473D01*
X1272Y1475D01*
X1270Y1475D01*
X1270Y1477D01*
X1268Y1477D01*
X1268Y1479D01*
X1266Y1479D01*
X1266Y1481D01*
X1264Y1481D01*
X1264Y1485D01*
X1262Y1485D01*
X1262Y1489D01*
X1260Y1489D01*
X1260Y1491D01*
X1258Y1491D01*
X1258Y1497D01*
X1256Y1497D01*
X1256Y1507D01*
X1254Y1507D01*
X1254Y1517D01*
X1256Y1517D01*
X1256Y1525D01*
X1258Y1525D01*
X1258Y1531D01*
X1260Y1531D01*
X1260Y1535D01*
X1262Y1535D01*
X1262Y1539D01*
X1264Y1539D01*
X1264Y1541D01*
X1266Y1541D01*
X1266Y1543D01*
X1268Y1543D01*
X1268Y1545D01*
X1270Y1545D01*
X1270Y1547D01*
X1272Y1547D01*
X1272Y1549D01*
X1274Y1549D01*
X1274Y1551D01*
X1276Y1551D01*
X1276Y1573D01*
X1272Y1573D01*
X1272Y1575D01*
X1270Y1575D01*
X1270Y1577D01*
X1268Y1577D01*
X1268Y1579D01*
X1266Y1579D01*
X1266Y1581D01*
X1264Y1581D01*
X1264Y1585D01*
X1262Y1585D01*
X1262Y1589D01*
X1260Y1589D01*
X1260Y1591D01*
X1258Y1591D01*
X1258Y1597D01*
X1256Y1597D01*
X1256Y1607D01*
X1254Y1607D01*
X1254Y1617D01*
X1256Y1617D01*
X1256Y1625D01*
X1258Y1625D01*
X1258Y1631D01*
X1260Y1631D01*
X1260Y1635D01*
X1262Y1635D01*
X1262Y1639D01*
X1264Y1639D01*
X1264Y1641D01*
X1266Y1641D01*
X1266Y1643D01*
X1268Y1643D01*
X1268Y1645D01*
X1270Y1645D01*
X1270Y1647D01*
X1272Y1647D01*
X1272Y1649D01*
X1274Y1649D01*
X1274Y1651D01*
X1276Y1651D01*
X1276Y1661D01*
X40Y1661D01*
G37*
D02*
G36*
X40Y1459D02*
X40Y1365D01*
X586Y1365D01*
X586Y1367D01*
X580Y1367D01*
X580Y1369D01*
X576Y1369D01*
X576Y1371D01*
X572Y1371D01*
X572Y1373D01*
X570Y1373D01*
X570Y1375D01*
X568Y1375D01*
X568Y1377D01*
X566Y1377D01*
X566Y1379D01*
X564Y1379D01*
X564Y1381D01*
X562Y1381D01*
X562Y1383D01*
X560Y1383D01*
X560Y1385D01*
X558Y1385D01*
X558Y1389D01*
X556Y1389D01*
X556Y1393D01*
X554Y1393D01*
X554Y1399D01*
X552Y1399D01*
X552Y1423D01*
X554Y1423D01*
X554Y1429D01*
X556Y1429D01*
X556Y1433D01*
X558Y1433D01*
X558Y1437D01*
X560Y1437D01*
X560Y1439D01*
X562Y1439D01*
X562Y1443D01*
X564Y1443D01*
X564Y1445D01*
X566Y1445D01*
X566Y1447D01*
X568Y1447D01*
X568Y1449D01*
X572Y1449D01*
X572Y1451D01*
X574Y1451D01*
X574Y1453D01*
X578Y1453D01*
X578Y1455D01*
X582Y1455D01*
X582Y1457D01*
X590Y1457D01*
X590Y1459D01*
X40Y1459D01*
G37*
D02*
G36*
X608Y1459D02*
X608Y1457D01*
X614Y1457D01*
X614Y1455D01*
X620Y1455D01*
X620Y1453D01*
X624Y1453D01*
X624Y1451D01*
X626Y1451D01*
X626Y1449D01*
X628Y1449D01*
X628Y1447D01*
X632Y1447D01*
X632Y1445D01*
X634Y1445D01*
X634Y1441D01*
X636Y1441D01*
X636Y1439D01*
X638Y1439D01*
X638Y1437D01*
X660Y1437D01*
X660Y1439D01*
X662Y1439D01*
X662Y1443D01*
X664Y1443D01*
X664Y1445D01*
X666Y1445D01*
X666Y1447D01*
X668Y1447D01*
X668Y1449D01*
X672Y1449D01*
X672Y1451D01*
X674Y1451D01*
X674Y1453D01*
X678Y1453D01*
X678Y1455D01*
X682Y1455D01*
X682Y1457D01*
X690Y1457D01*
X690Y1459D01*
X608Y1459D01*
G37*
D02*
G36*
X708Y1459D02*
X708Y1457D01*
X714Y1457D01*
X714Y1455D01*
X720Y1455D01*
X720Y1453D01*
X724Y1453D01*
X724Y1451D01*
X726Y1451D01*
X726Y1449D01*
X728Y1449D01*
X728Y1447D01*
X732Y1447D01*
X732Y1445D01*
X734Y1445D01*
X734Y1441D01*
X736Y1441D01*
X736Y1439D01*
X738Y1439D01*
X738Y1437D01*
X760Y1437D01*
X760Y1439D01*
X762Y1439D01*
X762Y1443D01*
X764Y1443D01*
X764Y1445D01*
X766Y1445D01*
X766Y1447D01*
X768Y1447D01*
X768Y1449D01*
X772Y1449D01*
X772Y1451D01*
X774Y1451D01*
X774Y1453D01*
X778Y1453D01*
X778Y1455D01*
X782Y1455D01*
X782Y1457D01*
X790Y1457D01*
X790Y1459D01*
X708Y1459D01*
G37*
D02*
G36*
X808Y1459D02*
X808Y1457D01*
X814Y1457D01*
X814Y1455D01*
X820Y1455D01*
X820Y1453D01*
X824Y1453D01*
X824Y1451D01*
X826Y1451D01*
X826Y1449D01*
X828Y1449D01*
X828Y1447D01*
X832Y1447D01*
X832Y1445D01*
X834Y1445D01*
X834Y1441D01*
X836Y1441D01*
X836Y1439D01*
X838Y1439D01*
X838Y1437D01*
X860Y1437D01*
X860Y1439D01*
X862Y1439D01*
X862Y1443D01*
X864Y1443D01*
X864Y1445D01*
X866Y1445D01*
X866Y1447D01*
X868Y1447D01*
X868Y1449D01*
X872Y1449D01*
X872Y1451D01*
X874Y1451D01*
X874Y1453D01*
X878Y1453D01*
X878Y1455D01*
X882Y1455D01*
X882Y1457D01*
X890Y1457D01*
X890Y1459D01*
X808Y1459D01*
G37*
D02*
G36*
X908Y1459D02*
X908Y1457D01*
X914Y1457D01*
X914Y1455D01*
X920Y1455D01*
X920Y1453D01*
X924Y1453D01*
X924Y1451D01*
X926Y1451D01*
X926Y1449D01*
X928Y1449D01*
X928Y1447D01*
X932Y1447D01*
X932Y1445D01*
X934Y1445D01*
X934Y1441D01*
X936Y1441D01*
X936Y1439D01*
X938Y1439D01*
X938Y1437D01*
X960Y1437D01*
X960Y1439D01*
X962Y1439D01*
X962Y1443D01*
X964Y1443D01*
X964Y1445D01*
X966Y1445D01*
X966Y1447D01*
X968Y1447D01*
X968Y1449D01*
X972Y1449D01*
X972Y1451D01*
X974Y1451D01*
X974Y1453D01*
X978Y1453D01*
X978Y1455D01*
X982Y1455D01*
X982Y1457D01*
X990Y1457D01*
X990Y1459D01*
X908Y1459D01*
G37*
D02*
G36*
X1008Y1459D02*
X1008Y1457D01*
X1014Y1457D01*
X1014Y1455D01*
X1020Y1455D01*
X1020Y1453D01*
X1024Y1453D01*
X1024Y1451D01*
X1026Y1451D01*
X1026Y1449D01*
X1028Y1449D01*
X1028Y1447D01*
X1032Y1447D01*
X1032Y1445D01*
X1034Y1445D01*
X1034Y1441D01*
X1036Y1441D01*
X1036Y1439D01*
X1038Y1439D01*
X1038Y1437D01*
X1060Y1437D01*
X1060Y1439D01*
X1062Y1439D01*
X1062Y1443D01*
X1064Y1443D01*
X1064Y1445D01*
X1066Y1445D01*
X1066Y1447D01*
X1068Y1447D01*
X1068Y1449D01*
X1072Y1449D01*
X1072Y1451D01*
X1074Y1451D01*
X1074Y1453D01*
X1078Y1453D01*
X1078Y1455D01*
X1082Y1455D01*
X1082Y1457D01*
X1090Y1457D01*
X1090Y1459D01*
X1008Y1459D01*
G37*
D02*
G36*
X1108Y1459D02*
X1108Y1457D01*
X1114Y1457D01*
X1114Y1455D01*
X1120Y1455D01*
X1120Y1453D01*
X1124Y1453D01*
X1124Y1451D01*
X1126Y1451D01*
X1126Y1449D01*
X1128Y1449D01*
X1128Y1447D01*
X1132Y1447D01*
X1132Y1445D01*
X1134Y1445D01*
X1134Y1441D01*
X1136Y1441D01*
X1136Y1439D01*
X1138Y1439D01*
X1138Y1437D01*
X1160Y1437D01*
X1160Y1439D01*
X1162Y1439D01*
X1162Y1443D01*
X1164Y1443D01*
X1164Y1445D01*
X1166Y1445D01*
X1166Y1447D01*
X1168Y1447D01*
X1168Y1449D01*
X1172Y1449D01*
X1172Y1451D01*
X1174Y1451D01*
X1174Y1453D01*
X1178Y1453D01*
X1178Y1455D01*
X1182Y1455D01*
X1182Y1457D01*
X1190Y1457D01*
X1190Y1459D01*
X1108Y1459D01*
G37*
D02*
G36*
X1240Y1391D02*
X1240Y1387D01*
X1238Y1387D01*
X1238Y1383D01*
X1236Y1383D01*
X1236Y1381D01*
X1234Y1381D01*
X1234Y1379D01*
X1232Y1379D01*
X1232Y1377D01*
X1230Y1377D01*
X1230Y1375D01*
X1228Y1375D01*
X1228Y1373D01*
X1224Y1373D01*
X1224Y1371D01*
X1222Y1371D01*
X1222Y1369D01*
X1218Y1369D01*
X1218Y1367D01*
X1212Y1367D01*
X1212Y1365D01*
X1286Y1365D01*
X1286Y1367D01*
X1282Y1367D01*
X1282Y1369D01*
X1278Y1369D01*
X1278Y1371D01*
X1276Y1371D01*
X1276Y1373D01*
X1272Y1373D01*
X1272Y1375D01*
X1270Y1375D01*
X1270Y1377D01*
X1268Y1377D01*
X1268Y1379D01*
X1266Y1379D01*
X1266Y1381D01*
X1264Y1381D01*
X1264Y1385D01*
X1262Y1385D01*
X1262Y1389D01*
X1260Y1389D01*
X1260Y1391D01*
X1240Y1391D01*
G37*
D02*
G36*
X638Y1387D02*
X638Y1383D01*
X636Y1383D01*
X636Y1381D01*
X634Y1381D01*
X634Y1379D01*
X632Y1379D01*
X632Y1377D01*
X630Y1377D01*
X630Y1375D01*
X628Y1375D01*
X628Y1373D01*
X624Y1373D01*
X624Y1371D01*
X622Y1371D01*
X622Y1369D01*
X618Y1369D01*
X618Y1367D01*
X612Y1367D01*
X612Y1365D01*
X686Y1365D01*
X686Y1367D01*
X680Y1367D01*
X680Y1369D01*
X676Y1369D01*
X676Y1371D01*
X672Y1371D01*
X672Y1373D01*
X670Y1373D01*
X670Y1375D01*
X668Y1375D01*
X668Y1377D01*
X666Y1377D01*
X666Y1379D01*
X664Y1379D01*
X664Y1381D01*
X662Y1381D01*
X662Y1383D01*
X660Y1383D01*
X660Y1385D01*
X658Y1385D01*
X658Y1387D01*
X638Y1387D01*
G37*
D02*
G36*
X738Y1387D02*
X738Y1383D01*
X736Y1383D01*
X736Y1381D01*
X734Y1381D01*
X734Y1379D01*
X732Y1379D01*
X732Y1377D01*
X730Y1377D01*
X730Y1375D01*
X728Y1375D01*
X728Y1373D01*
X724Y1373D01*
X724Y1371D01*
X722Y1371D01*
X722Y1369D01*
X718Y1369D01*
X718Y1367D01*
X712Y1367D01*
X712Y1365D01*
X786Y1365D01*
X786Y1367D01*
X780Y1367D01*
X780Y1369D01*
X776Y1369D01*
X776Y1371D01*
X772Y1371D01*
X772Y1373D01*
X770Y1373D01*
X770Y1375D01*
X768Y1375D01*
X768Y1377D01*
X766Y1377D01*
X766Y1379D01*
X764Y1379D01*
X764Y1381D01*
X762Y1381D01*
X762Y1383D01*
X760Y1383D01*
X760Y1385D01*
X758Y1385D01*
X758Y1387D01*
X738Y1387D01*
G37*
D02*
G36*
X838Y1387D02*
X838Y1383D01*
X836Y1383D01*
X836Y1381D01*
X834Y1381D01*
X834Y1379D01*
X832Y1379D01*
X832Y1377D01*
X830Y1377D01*
X830Y1375D01*
X828Y1375D01*
X828Y1373D01*
X824Y1373D01*
X824Y1371D01*
X822Y1371D01*
X822Y1369D01*
X818Y1369D01*
X818Y1367D01*
X812Y1367D01*
X812Y1365D01*
X886Y1365D01*
X886Y1367D01*
X880Y1367D01*
X880Y1369D01*
X876Y1369D01*
X876Y1371D01*
X872Y1371D01*
X872Y1373D01*
X870Y1373D01*
X870Y1375D01*
X868Y1375D01*
X868Y1377D01*
X866Y1377D01*
X866Y1379D01*
X864Y1379D01*
X864Y1381D01*
X862Y1381D01*
X862Y1383D01*
X860Y1383D01*
X860Y1385D01*
X858Y1385D01*
X858Y1387D01*
X838Y1387D01*
G37*
D02*
G36*
X938Y1387D02*
X938Y1383D01*
X936Y1383D01*
X936Y1381D01*
X934Y1381D01*
X934Y1379D01*
X932Y1379D01*
X932Y1377D01*
X930Y1377D01*
X930Y1375D01*
X928Y1375D01*
X928Y1373D01*
X924Y1373D01*
X924Y1371D01*
X922Y1371D01*
X922Y1369D01*
X918Y1369D01*
X918Y1367D01*
X912Y1367D01*
X912Y1365D01*
X986Y1365D01*
X986Y1367D01*
X980Y1367D01*
X980Y1369D01*
X976Y1369D01*
X976Y1371D01*
X972Y1371D01*
X972Y1373D01*
X970Y1373D01*
X970Y1375D01*
X968Y1375D01*
X968Y1377D01*
X966Y1377D01*
X966Y1379D01*
X964Y1379D01*
X964Y1381D01*
X962Y1381D01*
X962Y1383D01*
X960Y1383D01*
X960Y1385D01*
X958Y1385D01*
X958Y1387D01*
X938Y1387D01*
G37*
D02*
G36*
X1038Y1387D02*
X1038Y1383D01*
X1036Y1383D01*
X1036Y1381D01*
X1034Y1381D01*
X1034Y1379D01*
X1032Y1379D01*
X1032Y1377D01*
X1030Y1377D01*
X1030Y1375D01*
X1028Y1375D01*
X1028Y1373D01*
X1024Y1373D01*
X1024Y1371D01*
X1022Y1371D01*
X1022Y1369D01*
X1018Y1369D01*
X1018Y1367D01*
X1012Y1367D01*
X1012Y1365D01*
X1086Y1365D01*
X1086Y1367D01*
X1080Y1367D01*
X1080Y1369D01*
X1076Y1369D01*
X1076Y1371D01*
X1072Y1371D01*
X1072Y1373D01*
X1070Y1373D01*
X1070Y1375D01*
X1068Y1375D01*
X1068Y1377D01*
X1066Y1377D01*
X1066Y1379D01*
X1064Y1379D01*
X1064Y1381D01*
X1062Y1381D01*
X1062Y1383D01*
X1060Y1383D01*
X1060Y1385D01*
X1058Y1385D01*
X1058Y1387D01*
X1038Y1387D01*
G37*
D02*
G36*
X1138Y1387D02*
X1138Y1383D01*
X1136Y1383D01*
X1136Y1381D01*
X1134Y1381D01*
X1134Y1379D01*
X1132Y1379D01*
X1132Y1377D01*
X1130Y1377D01*
X1130Y1375D01*
X1128Y1375D01*
X1128Y1373D01*
X1124Y1373D01*
X1124Y1371D01*
X1122Y1371D01*
X1122Y1369D01*
X1118Y1369D01*
X1118Y1367D01*
X1112Y1367D01*
X1112Y1365D01*
X1186Y1365D01*
X1186Y1367D01*
X1180Y1367D01*
X1180Y1369D01*
X1176Y1369D01*
X1176Y1371D01*
X1172Y1371D01*
X1172Y1373D01*
X1170Y1373D01*
X1170Y1375D01*
X1168Y1375D01*
X1168Y1377D01*
X1166Y1377D01*
X1166Y1379D01*
X1164Y1379D01*
X1164Y1381D01*
X1162Y1381D01*
X1162Y1383D01*
X1160Y1383D01*
X1160Y1385D01*
X1158Y1385D01*
X1158Y1387D01*
X1138Y1387D01*
G37*
D02*
G36*
X40Y1365D02*
X40Y1363D01*
X1292Y1363D01*
X1292Y1365D01*
X40Y1365D01*
G37*
D02*
G36*
X40Y1365D02*
X40Y1363D01*
X1292Y1363D01*
X1292Y1365D01*
X40Y1365D01*
G37*
D02*
G36*
X40Y1365D02*
X40Y1363D01*
X1292Y1363D01*
X1292Y1365D01*
X40Y1365D01*
G37*
D02*
G36*
X40Y1365D02*
X40Y1363D01*
X1292Y1363D01*
X1292Y1365D01*
X40Y1365D01*
G37*
D02*
G36*
X40Y1365D02*
X40Y1363D01*
X1292Y1363D01*
X1292Y1365D01*
X40Y1365D01*
G37*
D02*
G36*
X40Y1365D02*
X40Y1363D01*
X1292Y1363D01*
X1292Y1365D01*
X40Y1365D01*
G37*
D02*
G36*
X40Y1365D02*
X40Y1363D01*
X1292Y1363D01*
X1292Y1365D01*
X40Y1365D01*
G37*
D02*
G36*
X40Y1365D02*
X40Y1363D01*
X1292Y1363D01*
X1292Y1365D01*
X40Y1365D01*
G37*
D02*
G36*
X40Y1363D02*
X40Y1361D01*
X1690Y1361D01*
X1690Y1363D01*
X40Y1363D01*
G37*
D02*
G36*
X40Y1363D02*
X40Y1361D01*
X1690Y1361D01*
X1690Y1363D01*
X40Y1363D01*
G37*
D02*
G36*
X40Y1361D02*
X40Y1261D01*
X1504Y1261D01*
X1504Y1259D01*
X1514Y1259D01*
X1514Y1257D01*
X1518Y1257D01*
X1518Y1255D01*
X1522Y1255D01*
X1522Y1253D01*
X1526Y1253D01*
X1526Y1251D01*
X1528Y1251D01*
X1528Y1249D01*
X1532Y1249D01*
X1532Y1247D01*
X1534Y1247D01*
X1534Y1245D01*
X1536Y1245D01*
X1536Y1241D01*
X1538Y1241D01*
X1538Y1239D01*
X1540Y1239D01*
X1540Y1235D01*
X1542Y1235D01*
X1542Y1233D01*
X1544Y1233D01*
X1544Y1227D01*
X1546Y1227D01*
X1546Y1219D01*
X1548Y1219D01*
X1548Y1203D01*
X1546Y1203D01*
X1546Y1197D01*
X1544Y1197D01*
X1544Y1191D01*
X1542Y1191D01*
X1542Y1187D01*
X1540Y1187D01*
X1540Y1183D01*
X1538Y1183D01*
X1538Y1181D01*
X1536Y1181D01*
X1536Y1179D01*
X1534Y1179D01*
X1534Y1177D01*
X1532Y1177D01*
X1532Y1175D01*
X1530Y1175D01*
X1530Y1173D01*
X1528Y1173D01*
X1528Y1171D01*
X1526Y1171D01*
X1526Y1151D01*
X1528Y1151D01*
X1528Y1149D01*
X1532Y1149D01*
X1532Y1147D01*
X1534Y1147D01*
X1534Y1145D01*
X1536Y1145D01*
X1536Y1141D01*
X1538Y1141D01*
X1538Y1139D01*
X1540Y1139D01*
X1540Y1135D01*
X1542Y1135D01*
X1542Y1133D01*
X1544Y1133D01*
X1544Y1127D01*
X1546Y1127D01*
X1546Y1119D01*
X1548Y1119D01*
X1548Y1103D01*
X1546Y1103D01*
X1546Y1097D01*
X1544Y1097D01*
X1544Y1091D01*
X1542Y1091D01*
X1542Y1087D01*
X1540Y1087D01*
X1540Y1083D01*
X1538Y1083D01*
X1538Y1081D01*
X1536Y1081D01*
X1536Y1079D01*
X1534Y1079D01*
X1534Y1077D01*
X1532Y1077D01*
X1532Y1075D01*
X1530Y1075D01*
X1530Y1073D01*
X1528Y1073D01*
X1528Y1071D01*
X1524Y1071D01*
X1524Y1069D01*
X1520Y1069D01*
X1520Y1067D01*
X1516Y1067D01*
X1516Y1065D01*
X1510Y1065D01*
X1510Y1063D01*
X1690Y1063D01*
X1690Y1361D01*
X40Y1361D01*
G37*
D02*
G36*
X40Y1261D02*
X40Y1259D01*
X1208Y1259D01*
X1208Y1257D01*
X1214Y1257D01*
X1214Y1255D01*
X1220Y1255D01*
X1220Y1253D01*
X1224Y1253D01*
X1224Y1251D01*
X1226Y1251D01*
X1226Y1249D01*
X1228Y1249D01*
X1228Y1247D01*
X1232Y1247D01*
X1232Y1245D01*
X1234Y1245D01*
X1234Y1241D01*
X1236Y1241D01*
X1236Y1239D01*
X1238Y1239D01*
X1238Y1237D01*
X1240Y1237D01*
X1240Y1233D01*
X1242Y1233D01*
X1242Y1229D01*
X1244Y1229D01*
X1244Y1221D01*
X1246Y1221D01*
X1246Y1201D01*
X1244Y1201D01*
X1244Y1195D01*
X1242Y1195D01*
X1242Y1191D01*
X1240Y1191D01*
X1240Y1187D01*
X1238Y1187D01*
X1238Y1183D01*
X1236Y1183D01*
X1236Y1181D01*
X1234Y1181D01*
X1234Y1179D01*
X1232Y1179D01*
X1232Y1177D01*
X1230Y1177D01*
X1230Y1175D01*
X1228Y1175D01*
X1228Y1173D01*
X1224Y1173D01*
X1224Y1171D01*
X1222Y1171D01*
X1222Y1169D01*
X1218Y1169D01*
X1218Y1167D01*
X1212Y1167D01*
X1212Y1165D01*
X1372Y1165D01*
X1372Y1171D01*
X1370Y1171D01*
X1370Y1173D01*
X1368Y1173D01*
X1368Y1175D01*
X1366Y1175D01*
X1366Y1177D01*
X1364Y1177D01*
X1364Y1179D01*
X1362Y1179D01*
X1362Y1181D01*
X1360Y1181D01*
X1360Y1183D01*
X1358Y1183D01*
X1358Y1187D01*
X1356Y1187D01*
X1356Y1189D01*
X1354Y1189D01*
X1354Y1195D01*
X1352Y1195D01*
X1352Y1201D01*
X1350Y1201D01*
X1350Y1221D01*
X1352Y1221D01*
X1352Y1229D01*
X1354Y1229D01*
X1354Y1233D01*
X1356Y1233D01*
X1356Y1237D01*
X1358Y1237D01*
X1358Y1239D01*
X1360Y1239D01*
X1360Y1243D01*
X1362Y1243D01*
X1362Y1245D01*
X1364Y1245D01*
X1364Y1247D01*
X1366Y1247D01*
X1366Y1249D01*
X1368Y1249D01*
X1368Y1251D01*
X1372Y1251D01*
X1372Y1253D01*
X1374Y1253D01*
X1374Y1255D01*
X1378Y1255D01*
X1378Y1257D01*
X1384Y1257D01*
X1384Y1259D01*
X1392Y1259D01*
X1392Y1261D01*
X40Y1261D01*
G37*
D02*
G36*
X1404Y1261D02*
X1404Y1259D01*
X1414Y1259D01*
X1414Y1257D01*
X1418Y1257D01*
X1418Y1255D01*
X1422Y1255D01*
X1422Y1253D01*
X1426Y1253D01*
X1426Y1251D01*
X1428Y1251D01*
X1428Y1249D01*
X1432Y1249D01*
X1432Y1247D01*
X1434Y1247D01*
X1434Y1245D01*
X1436Y1245D01*
X1436Y1241D01*
X1438Y1241D01*
X1438Y1239D01*
X1460Y1239D01*
X1460Y1243D01*
X1462Y1243D01*
X1462Y1245D01*
X1464Y1245D01*
X1464Y1247D01*
X1466Y1247D01*
X1466Y1249D01*
X1468Y1249D01*
X1468Y1251D01*
X1472Y1251D01*
X1472Y1253D01*
X1474Y1253D01*
X1474Y1255D01*
X1478Y1255D01*
X1478Y1257D01*
X1484Y1257D01*
X1484Y1259D01*
X1492Y1259D01*
X1492Y1261D01*
X1404Y1261D01*
G37*
D02*
G36*
X40Y1259D02*
X40Y1165D01*
X586Y1165D01*
X586Y1167D01*
X580Y1167D01*
X580Y1169D01*
X576Y1169D01*
X576Y1171D01*
X572Y1171D01*
X572Y1173D01*
X570Y1173D01*
X570Y1175D01*
X568Y1175D01*
X568Y1177D01*
X566Y1177D01*
X566Y1179D01*
X564Y1179D01*
X564Y1181D01*
X562Y1181D01*
X562Y1183D01*
X560Y1183D01*
X560Y1185D01*
X558Y1185D01*
X558Y1189D01*
X556Y1189D01*
X556Y1193D01*
X554Y1193D01*
X554Y1199D01*
X552Y1199D01*
X552Y1223D01*
X554Y1223D01*
X554Y1229D01*
X556Y1229D01*
X556Y1233D01*
X558Y1233D01*
X558Y1237D01*
X560Y1237D01*
X560Y1239D01*
X562Y1239D01*
X562Y1243D01*
X564Y1243D01*
X564Y1245D01*
X566Y1245D01*
X566Y1247D01*
X568Y1247D01*
X568Y1249D01*
X572Y1249D01*
X572Y1251D01*
X574Y1251D01*
X574Y1253D01*
X578Y1253D01*
X578Y1255D01*
X582Y1255D01*
X582Y1257D01*
X590Y1257D01*
X590Y1259D01*
X40Y1259D01*
G37*
D02*
G36*
X608Y1259D02*
X608Y1257D01*
X614Y1257D01*
X614Y1255D01*
X620Y1255D01*
X620Y1253D01*
X624Y1253D01*
X624Y1251D01*
X626Y1251D01*
X626Y1249D01*
X628Y1249D01*
X628Y1247D01*
X632Y1247D01*
X632Y1245D01*
X634Y1245D01*
X634Y1241D01*
X636Y1241D01*
X636Y1239D01*
X638Y1239D01*
X638Y1237D01*
X640Y1237D01*
X640Y1233D01*
X642Y1233D01*
X642Y1229D01*
X644Y1229D01*
X644Y1221D01*
X646Y1221D01*
X646Y1201D01*
X644Y1201D01*
X644Y1195D01*
X642Y1195D01*
X642Y1191D01*
X640Y1191D01*
X640Y1187D01*
X638Y1187D01*
X638Y1183D01*
X636Y1183D01*
X636Y1181D01*
X634Y1181D01*
X634Y1179D01*
X632Y1179D01*
X632Y1177D01*
X630Y1177D01*
X630Y1175D01*
X628Y1175D01*
X628Y1173D01*
X624Y1173D01*
X624Y1171D01*
X622Y1171D01*
X622Y1169D01*
X618Y1169D01*
X618Y1167D01*
X612Y1167D01*
X612Y1165D01*
X886Y1165D01*
X886Y1167D01*
X880Y1167D01*
X880Y1169D01*
X876Y1169D01*
X876Y1171D01*
X872Y1171D01*
X872Y1173D01*
X870Y1173D01*
X870Y1175D01*
X868Y1175D01*
X868Y1177D01*
X866Y1177D01*
X866Y1179D01*
X864Y1179D01*
X864Y1181D01*
X862Y1181D01*
X862Y1183D01*
X860Y1183D01*
X860Y1185D01*
X858Y1185D01*
X858Y1189D01*
X856Y1189D01*
X856Y1193D01*
X854Y1193D01*
X854Y1199D01*
X852Y1199D01*
X852Y1223D01*
X854Y1223D01*
X854Y1229D01*
X856Y1229D01*
X856Y1233D01*
X858Y1233D01*
X858Y1237D01*
X860Y1237D01*
X860Y1239D01*
X862Y1239D01*
X862Y1243D01*
X864Y1243D01*
X864Y1245D01*
X866Y1245D01*
X866Y1247D01*
X868Y1247D01*
X868Y1249D01*
X872Y1249D01*
X872Y1251D01*
X874Y1251D01*
X874Y1253D01*
X878Y1253D01*
X878Y1255D01*
X882Y1255D01*
X882Y1257D01*
X890Y1257D01*
X890Y1259D01*
X608Y1259D01*
G37*
D02*
G36*
X908Y1259D02*
X908Y1257D01*
X914Y1257D01*
X914Y1255D01*
X920Y1255D01*
X920Y1253D01*
X924Y1253D01*
X924Y1251D01*
X926Y1251D01*
X926Y1249D01*
X928Y1249D01*
X928Y1247D01*
X932Y1247D01*
X932Y1245D01*
X934Y1245D01*
X934Y1241D01*
X936Y1241D01*
X936Y1239D01*
X938Y1239D01*
X938Y1237D01*
X940Y1237D01*
X940Y1233D01*
X942Y1233D01*
X942Y1229D01*
X944Y1229D01*
X944Y1221D01*
X946Y1221D01*
X946Y1201D01*
X944Y1201D01*
X944Y1195D01*
X942Y1195D01*
X942Y1191D01*
X940Y1191D01*
X940Y1187D01*
X938Y1187D01*
X938Y1183D01*
X936Y1183D01*
X936Y1181D01*
X934Y1181D01*
X934Y1179D01*
X932Y1179D01*
X932Y1177D01*
X930Y1177D01*
X930Y1175D01*
X928Y1175D01*
X928Y1173D01*
X924Y1173D01*
X924Y1171D01*
X922Y1171D01*
X922Y1169D01*
X918Y1169D01*
X918Y1167D01*
X912Y1167D01*
X912Y1165D01*
X1186Y1165D01*
X1186Y1167D01*
X1180Y1167D01*
X1180Y1169D01*
X1176Y1169D01*
X1176Y1171D01*
X1172Y1171D01*
X1172Y1173D01*
X1170Y1173D01*
X1170Y1175D01*
X1168Y1175D01*
X1168Y1177D01*
X1166Y1177D01*
X1166Y1179D01*
X1164Y1179D01*
X1164Y1181D01*
X1162Y1181D01*
X1162Y1183D01*
X1160Y1183D01*
X1160Y1185D01*
X1158Y1185D01*
X1158Y1189D01*
X1156Y1189D01*
X1156Y1193D01*
X1154Y1193D01*
X1154Y1199D01*
X1152Y1199D01*
X1152Y1223D01*
X1154Y1223D01*
X1154Y1229D01*
X1156Y1229D01*
X1156Y1233D01*
X1158Y1233D01*
X1158Y1237D01*
X1160Y1237D01*
X1160Y1239D01*
X1162Y1239D01*
X1162Y1243D01*
X1164Y1243D01*
X1164Y1245D01*
X1166Y1245D01*
X1166Y1247D01*
X1168Y1247D01*
X1168Y1249D01*
X1172Y1249D01*
X1172Y1251D01*
X1174Y1251D01*
X1174Y1253D01*
X1178Y1253D01*
X1178Y1255D01*
X1182Y1255D01*
X1182Y1257D01*
X1190Y1257D01*
X1190Y1259D01*
X908Y1259D01*
G37*
D02*
G36*
X40Y1165D02*
X40Y1163D01*
X1372Y1163D01*
X1372Y1165D01*
X40Y1165D01*
G37*
D02*
G36*
X40Y1165D02*
X40Y1163D01*
X1372Y1163D01*
X1372Y1165D01*
X40Y1165D01*
G37*
D02*
G36*
X40Y1165D02*
X40Y1163D01*
X1372Y1163D01*
X1372Y1165D01*
X40Y1165D01*
G37*
D02*
G36*
X40Y1165D02*
X40Y1163D01*
X1372Y1163D01*
X1372Y1165D01*
X40Y1165D01*
G37*
D02*
G36*
X40Y1163D02*
X40Y1159D01*
X1308Y1159D01*
X1308Y1157D01*
X1314Y1157D01*
X1314Y1155D01*
X1320Y1155D01*
X1320Y1153D01*
X1324Y1153D01*
X1324Y1151D01*
X1326Y1151D01*
X1326Y1149D01*
X1328Y1149D01*
X1328Y1147D01*
X1332Y1147D01*
X1332Y1145D01*
X1334Y1145D01*
X1334Y1141D01*
X1336Y1141D01*
X1336Y1139D01*
X1338Y1139D01*
X1338Y1137D01*
X1358Y1137D01*
X1358Y1139D01*
X1360Y1139D01*
X1360Y1143D01*
X1362Y1143D01*
X1362Y1145D01*
X1364Y1145D01*
X1364Y1147D01*
X1366Y1147D01*
X1366Y1149D01*
X1368Y1149D01*
X1368Y1151D01*
X1372Y1151D01*
X1372Y1163D01*
X40Y1163D01*
G37*
D02*
G36*
X40Y1159D02*
X40Y1065D01*
X686Y1065D01*
X686Y1067D01*
X680Y1067D01*
X680Y1069D01*
X676Y1069D01*
X676Y1071D01*
X672Y1071D01*
X672Y1073D01*
X670Y1073D01*
X670Y1075D01*
X668Y1075D01*
X668Y1077D01*
X666Y1077D01*
X666Y1079D01*
X664Y1079D01*
X664Y1081D01*
X662Y1081D01*
X662Y1083D01*
X660Y1083D01*
X660Y1085D01*
X658Y1085D01*
X658Y1089D01*
X656Y1089D01*
X656Y1093D01*
X654Y1093D01*
X654Y1099D01*
X652Y1099D01*
X652Y1123D01*
X654Y1123D01*
X654Y1129D01*
X656Y1129D01*
X656Y1133D01*
X658Y1133D01*
X658Y1137D01*
X660Y1137D01*
X660Y1139D01*
X662Y1139D01*
X662Y1143D01*
X664Y1143D01*
X664Y1145D01*
X666Y1145D01*
X666Y1147D01*
X668Y1147D01*
X668Y1149D01*
X672Y1149D01*
X672Y1151D01*
X674Y1151D01*
X674Y1153D01*
X678Y1153D01*
X678Y1155D01*
X682Y1155D01*
X682Y1157D01*
X690Y1157D01*
X690Y1159D01*
X40Y1159D01*
G37*
D02*
G36*
X708Y1159D02*
X708Y1157D01*
X714Y1157D01*
X714Y1155D01*
X720Y1155D01*
X720Y1153D01*
X724Y1153D01*
X724Y1151D01*
X726Y1151D01*
X726Y1149D01*
X728Y1149D01*
X728Y1147D01*
X732Y1147D01*
X732Y1145D01*
X734Y1145D01*
X734Y1141D01*
X736Y1141D01*
X736Y1139D01*
X738Y1139D01*
X738Y1137D01*
X740Y1137D01*
X740Y1133D01*
X742Y1133D01*
X742Y1129D01*
X744Y1129D01*
X744Y1121D01*
X746Y1121D01*
X746Y1101D01*
X744Y1101D01*
X744Y1095D01*
X742Y1095D01*
X742Y1091D01*
X740Y1091D01*
X740Y1087D01*
X738Y1087D01*
X738Y1083D01*
X736Y1083D01*
X736Y1081D01*
X734Y1081D01*
X734Y1079D01*
X732Y1079D01*
X732Y1077D01*
X730Y1077D01*
X730Y1075D01*
X728Y1075D01*
X728Y1073D01*
X724Y1073D01*
X724Y1071D01*
X722Y1071D01*
X722Y1069D01*
X718Y1069D01*
X718Y1067D01*
X712Y1067D01*
X712Y1065D01*
X986Y1065D01*
X986Y1067D01*
X980Y1067D01*
X980Y1069D01*
X976Y1069D01*
X976Y1071D01*
X972Y1071D01*
X972Y1073D01*
X970Y1073D01*
X970Y1075D01*
X968Y1075D01*
X968Y1077D01*
X966Y1077D01*
X966Y1079D01*
X964Y1079D01*
X964Y1081D01*
X962Y1081D01*
X962Y1083D01*
X960Y1083D01*
X960Y1085D01*
X958Y1085D01*
X958Y1089D01*
X956Y1089D01*
X956Y1093D01*
X954Y1093D01*
X954Y1099D01*
X952Y1099D01*
X952Y1123D01*
X954Y1123D01*
X954Y1129D01*
X956Y1129D01*
X956Y1133D01*
X958Y1133D01*
X958Y1137D01*
X960Y1137D01*
X960Y1139D01*
X962Y1139D01*
X962Y1143D01*
X964Y1143D01*
X964Y1145D01*
X966Y1145D01*
X966Y1147D01*
X968Y1147D01*
X968Y1149D01*
X972Y1149D01*
X972Y1151D01*
X974Y1151D01*
X974Y1153D01*
X978Y1153D01*
X978Y1155D01*
X982Y1155D01*
X982Y1157D01*
X990Y1157D01*
X990Y1159D01*
X708Y1159D01*
G37*
D02*
G36*
X1008Y1159D02*
X1008Y1157D01*
X1014Y1157D01*
X1014Y1155D01*
X1020Y1155D01*
X1020Y1153D01*
X1024Y1153D01*
X1024Y1151D01*
X1026Y1151D01*
X1026Y1149D01*
X1028Y1149D01*
X1028Y1147D01*
X1032Y1147D01*
X1032Y1145D01*
X1034Y1145D01*
X1034Y1141D01*
X1036Y1141D01*
X1036Y1139D01*
X1038Y1139D01*
X1038Y1137D01*
X1040Y1137D01*
X1040Y1133D01*
X1042Y1133D01*
X1042Y1129D01*
X1044Y1129D01*
X1044Y1121D01*
X1046Y1121D01*
X1046Y1101D01*
X1044Y1101D01*
X1044Y1095D01*
X1042Y1095D01*
X1042Y1091D01*
X1040Y1091D01*
X1040Y1087D01*
X1038Y1087D01*
X1038Y1083D01*
X1036Y1083D01*
X1036Y1081D01*
X1034Y1081D01*
X1034Y1079D01*
X1032Y1079D01*
X1032Y1077D01*
X1030Y1077D01*
X1030Y1075D01*
X1028Y1075D01*
X1028Y1073D01*
X1024Y1073D01*
X1024Y1071D01*
X1022Y1071D01*
X1022Y1069D01*
X1018Y1069D01*
X1018Y1067D01*
X1012Y1067D01*
X1012Y1065D01*
X1286Y1065D01*
X1286Y1067D01*
X1280Y1067D01*
X1280Y1069D01*
X1276Y1069D01*
X1276Y1071D01*
X1272Y1071D01*
X1272Y1073D01*
X1270Y1073D01*
X1270Y1075D01*
X1268Y1075D01*
X1268Y1077D01*
X1266Y1077D01*
X1266Y1079D01*
X1264Y1079D01*
X1264Y1081D01*
X1262Y1081D01*
X1262Y1083D01*
X1260Y1083D01*
X1260Y1085D01*
X1258Y1085D01*
X1258Y1089D01*
X1256Y1089D01*
X1256Y1093D01*
X1254Y1093D01*
X1254Y1099D01*
X1252Y1099D01*
X1252Y1123D01*
X1254Y1123D01*
X1254Y1129D01*
X1256Y1129D01*
X1256Y1133D01*
X1258Y1133D01*
X1258Y1137D01*
X1260Y1137D01*
X1260Y1139D01*
X1262Y1139D01*
X1262Y1143D01*
X1264Y1143D01*
X1264Y1145D01*
X1266Y1145D01*
X1266Y1147D01*
X1268Y1147D01*
X1268Y1149D01*
X1272Y1149D01*
X1272Y1151D01*
X1274Y1151D01*
X1274Y1153D01*
X1278Y1153D01*
X1278Y1155D01*
X1282Y1155D01*
X1282Y1157D01*
X1290Y1157D01*
X1290Y1159D01*
X1008Y1159D01*
G37*
D02*
G36*
X1338Y1087D02*
X1338Y1083D01*
X1336Y1083D01*
X1336Y1081D01*
X1334Y1081D01*
X1334Y1079D01*
X1332Y1079D01*
X1332Y1077D01*
X1330Y1077D01*
X1330Y1075D01*
X1328Y1075D01*
X1328Y1073D01*
X1324Y1073D01*
X1324Y1071D01*
X1322Y1071D01*
X1322Y1069D01*
X1318Y1069D01*
X1318Y1067D01*
X1312Y1067D01*
X1312Y1065D01*
X1380Y1065D01*
X1380Y1067D01*
X1376Y1067D01*
X1376Y1069D01*
X1374Y1069D01*
X1374Y1071D01*
X1370Y1071D01*
X1370Y1073D01*
X1368Y1073D01*
X1368Y1075D01*
X1366Y1075D01*
X1366Y1077D01*
X1364Y1077D01*
X1364Y1079D01*
X1362Y1079D01*
X1362Y1081D01*
X1360Y1081D01*
X1360Y1083D01*
X1358Y1083D01*
X1358Y1087D01*
X1338Y1087D01*
G37*
D02*
G36*
X1438Y1083D02*
X1438Y1081D01*
X1436Y1081D01*
X1436Y1079D01*
X1434Y1079D01*
X1434Y1077D01*
X1432Y1077D01*
X1432Y1075D01*
X1430Y1075D01*
X1430Y1073D01*
X1428Y1073D01*
X1428Y1071D01*
X1424Y1071D01*
X1424Y1069D01*
X1420Y1069D01*
X1420Y1067D01*
X1416Y1067D01*
X1416Y1065D01*
X1410Y1065D01*
X1410Y1063D01*
X1488Y1063D01*
X1488Y1065D01*
X1480Y1065D01*
X1480Y1067D01*
X1476Y1067D01*
X1476Y1069D01*
X1474Y1069D01*
X1474Y1071D01*
X1470Y1071D01*
X1470Y1073D01*
X1468Y1073D01*
X1468Y1075D01*
X1466Y1075D01*
X1466Y1077D01*
X1464Y1077D01*
X1464Y1079D01*
X1462Y1079D01*
X1462Y1081D01*
X1460Y1081D01*
X1460Y1083D01*
X1438Y1083D01*
G37*
D02*
G36*
X40Y1065D02*
X40Y1063D01*
X1388Y1063D01*
X1388Y1065D01*
X40Y1065D01*
G37*
D02*
G36*
X40Y1065D02*
X40Y1063D01*
X1388Y1063D01*
X1388Y1065D01*
X40Y1065D01*
G37*
D02*
G36*
X40Y1065D02*
X40Y1063D01*
X1388Y1063D01*
X1388Y1065D01*
X40Y1065D01*
G37*
D02*
G36*
X40Y1065D02*
X40Y1063D01*
X1388Y1063D01*
X1388Y1065D01*
X40Y1065D01*
G37*
D02*
G36*
X40Y1063D02*
X40Y1061D01*
X1690Y1061D01*
X1690Y1063D01*
X40Y1063D01*
G37*
D02*
G36*
X40Y1063D02*
X40Y1061D01*
X1690Y1061D01*
X1690Y1063D01*
X40Y1063D01*
G37*
D02*
G36*
X40Y1063D02*
X40Y1061D01*
X1690Y1061D01*
X1690Y1063D01*
X40Y1063D01*
G37*
D02*
G36*
X40Y1061D02*
X40Y859D01*
X1208Y859D01*
X1208Y857D01*
X1214Y857D01*
X1214Y855D01*
X1220Y855D01*
X1220Y853D01*
X1224Y853D01*
X1224Y851D01*
X1226Y851D01*
X1226Y849D01*
X1228Y849D01*
X1228Y847D01*
X1232Y847D01*
X1232Y845D01*
X1234Y845D01*
X1234Y841D01*
X1236Y841D01*
X1236Y839D01*
X1238Y839D01*
X1238Y837D01*
X1240Y837D01*
X1240Y833D01*
X1242Y833D01*
X1242Y829D01*
X1244Y829D01*
X1244Y821D01*
X1246Y821D01*
X1246Y801D01*
X1244Y801D01*
X1244Y795D01*
X1242Y795D01*
X1242Y791D01*
X1240Y791D01*
X1240Y787D01*
X1238Y787D01*
X1238Y783D01*
X1236Y783D01*
X1236Y781D01*
X1234Y781D01*
X1234Y779D01*
X1232Y779D01*
X1232Y777D01*
X1230Y777D01*
X1230Y775D01*
X1228Y775D01*
X1228Y773D01*
X1224Y773D01*
X1224Y771D01*
X1222Y771D01*
X1222Y769D01*
X1218Y769D01*
X1218Y767D01*
X1212Y767D01*
X1212Y765D01*
X1690Y765D01*
X1690Y1061D01*
X40Y1061D01*
G37*
D02*
G36*
X40Y859D02*
X40Y765D01*
X586Y765D01*
X586Y767D01*
X580Y767D01*
X580Y769D01*
X576Y769D01*
X576Y771D01*
X572Y771D01*
X572Y773D01*
X570Y773D01*
X570Y775D01*
X568Y775D01*
X568Y777D01*
X566Y777D01*
X566Y779D01*
X564Y779D01*
X564Y781D01*
X562Y781D01*
X562Y783D01*
X560Y783D01*
X560Y785D01*
X558Y785D01*
X558Y789D01*
X556Y789D01*
X556Y793D01*
X554Y793D01*
X554Y799D01*
X552Y799D01*
X552Y823D01*
X554Y823D01*
X554Y829D01*
X556Y829D01*
X556Y833D01*
X558Y833D01*
X558Y837D01*
X560Y837D01*
X560Y839D01*
X562Y839D01*
X562Y843D01*
X564Y843D01*
X564Y845D01*
X566Y845D01*
X566Y847D01*
X568Y847D01*
X568Y849D01*
X572Y849D01*
X572Y851D01*
X574Y851D01*
X574Y853D01*
X578Y853D01*
X578Y855D01*
X582Y855D01*
X582Y857D01*
X590Y857D01*
X590Y859D01*
X40Y859D01*
G37*
D02*
G36*
X608Y859D02*
X608Y857D01*
X614Y857D01*
X614Y855D01*
X620Y855D01*
X620Y853D01*
X624Y853D01*
X624Y851D01*
X626Y851D01*
X626Y849D01*
X628Y849D01*
X628Y847D01*
X632Y847D01*
X632Y845D01*
X634Y845D01*
X634Y841D01*
X636Y841D01*
X636Y839D01*
X638Y839D01*
X638Y837D01*
X640Y837D01*
X640Y833D01*
X642Y833D01*
X642Y829D01*
X644Y829D01*
X644Y821D01*
X646Y821D01*
X646Y801D01*
X644Y801D01*
X644Y795D01*
X642Y795D01*
X642Y791D01*
X640Y791D01*
X640Y787D01*
X638Y787D01*
X638Y783D01*
X636Y783D01*
X636Y781D01*
X634Y781D01*
X634Y779D01*
X632Y779D01*
X632Y777D01*
X630Y777D01*
X630Y775D01*
X628Y775D01*
X628Y773D01*
X624Y773D01*
X624Y771D01*
X622Y771D01*
X622Y769D01*
X618Y769D01*
X618Y767D01*
X612Y767D01*
X612Y765D01*
X886Y765D01*
X886Y767D01*
X880Y767D01*
X880Y769D01*
X876Y769D01*
X876Y771D01*
X872Y771D01*
X872Y773D01*
X870Y773D01*
X870Y775D01*
X868Y775D01*
X868Y777D01*
X866Y777D01*
X866Y779D01*
X864Y779D01*
X864Y781D01*
X862Y781D01*
X862Y783D01*
X860Y783D01*
X860Y785D01*
X858Y785D01*
X858Y789D01*
X856Y789D01*
X856Y793D01*
X854Y793D01*
X854Y799D01*
X852Y799D01*
X852Y823D01*
X854Y823D01*
X854Y829D01*
X856Y829D01*
X856Y833D01*
X858Y833D01*
X858Y837D01*
X860Y837D01*
X860Y839D01*
X862Y839D01*
X862Y843D01*
X864Y843D01*
X864Y845D01*
X866Y845D01*
X866Y847D01*
X868Y847D01*
X868Y849D01*
X872Y849D01*
X872Y851D01*
X874Y851D01*
X874Y853D01*
X878Y853D01*
X878Y855D01*
X882Y855D01*
X882Y857D01*
X890Y857D01*
X890Y859D01*
X608Y859D01*
G37*
D02*
G36*
X908Y859D02*
X908Y857D01*
X914Y857D01*
X914Y855D01*
X920Y855D01*
X920Y853D01*
X924Y853D01*
X924Y851D01*
X926Y851D01*
X926Y849D01*
X928Y849D01*
X928Y847D01*
X932Y847D01*
X932Y845D01*
X934Y845D01*
X934Y841D01*
X936Y841D01*
X936Y839D01*
X938Y839D01*
X938Y837D01*
X940Y837D01*
X940Y833D01*
X942Y833D01*
X942Y829D01*
X944Y829D01*
X944Y821D01*
X946Y821D01*
X946Y801D01*
X944Y801D01*
X944Y795D01*
X942Y795D01*
X942Y791D01*
X940Y791D01*
X940Y787D01*
X938Y787D01*
X938Y783D01*
X936Y783D01*
X936Y781D01*
X934Y781D01*
X934Y779D01*
X932Y779D01*
X932Y777D01*
X930Y777D01*
X930Y775D01*
X928Y775D01*
X928Y773D01*
X924Y773D01*
X924Y771D01*
X922Y771D01*
X922Y769D01*
X918Y769D01*
X918Y767D01*
X912Y767D01*
X912Y765D01*
X1186Y765D01*
X1186Y767D01*
X1180Y767D01*
X1180Y769D01*
X1176Y769D01*
X1176Y771D01*
X1172Y771D01*
X1172Y773D01*
X1170Y773D01*
X1170Y775D01*
X1168Y775D01*
X1168Y777D01*
X1166Y777D01*
X1166Y779D01*
X1164Y779D01*
X1164Y781D01*
X1162Y781D01*
X1162Y783D01*
X1160Y783D01*
X1160Y785D01*
X1158Y785D01*
X1158Y789D01*
X1156Y789D01*
X1156Y793D01*
X1154Y793D01*
X1154Y799D01*
X1152Y799D01*
X1152Y823D01*
X1154Y823D01*
X1154Y829D01*
X1156Y829D01*
X1156Y833D01*
X1158Y833D01*
X1158Y837D01*
X1160Y837D01*
X1160Y839D01*
X1162Y839D01*
X1162Y843D01*
X1164Y843D01*
X1164Y845D01*
X1166Y845D01*
X1166Y847D01*
X1168Y847D01*
X1168Y849D01*
X1172Y849D01*
X1172Y851D01*
X1174Y851D01*
X1174Y853D01*
X1178Y853D01*
X1178Y855D01*
X1182Y855D01*
X1182Y857D01*
X1190Y857D01*
X1190Y859D01*
X908Y859D01*
G37*
D02*
G36*
X40Y765D02*
X40Y763D01*
X1690Y763D01*
X1690Y765D01*
X40Y765D01*
G37*
D02*
G36*
X40Y765D02*
X40Y763D01*
X1690Y763D01*
X1690Y765D01*
X40Y765D01*
G37*
D02*
G36*
X40Y765D02*
X40Y763D01*
X1690Y763D01*
X1690Y765D01*
X40Y765D01*
G37*
D02*
G36*
X40Y765D02*
X40Y763D01*
X1690Y763D01*
X1690Y765D01*
X40Y765D01*
G37*
D02*
G36*
X40Y763D02*
X40Y759D01*
X1308Y759D01*
X1308Y757D01*
X1314Y757D01*
X1314Y755D01*
X1320Y755D01*
X1320Y753D01*
X1324Y753D01*
X1324Y751D01*
X1326Y751D01*
X1326Y749D01*
X1328Y749D01*
X1328Y747D01*
X1332Y747D01*
X1332Y745D01*
X1334Y745D01*
X1334Y741D01*
X1336Y741D01*
X1336Y739D01*
X1338Y739D01*
X1338Y737D01*
X1340Y737D01*
X1340Y733D01*
X1342Y733D01*
X1342Y729D01*
X1344Y729D01*
X1344Y721D01*
X1346Y721D01*
X1346Y701D01*
X1344Y701D01*
X1344Y695D01*
X1342Y695D01*
X1342Y691D01*
X1340Y691D01*
X1340Y687D01*
X1338Y687D01*
X1338Y683D01*
X1336Y683D01*
X1336Y681D01*
X1334Y681D01*
X1334Y679D01*
X1332Y679D01*
X1332Y677D01*
X1330Y677D01*
X1330Y675D01*
X1328Y675D01*
X1328Y673D01*
X1324Y673D01*
X1324Y651D01*
X1326Y651D01*
X1326Y649D01*
X1328Y649D01*
X1328Y647D01*
X1332Y647D01*
X1332Y645D01*
X1334Y645D01*
X1334Y641D01*
X1336Y641D01*
X1336Y639D01*
X1338Y639D01*
X1338Y637D01*
X1340Y637D01*
X1340Y633D01*
X1342Y633D01*
X1342Y629D01*
X1344Y629D01*
X1344Y621D01*
X1346Y621D01*
X1346Y601D01*
X1344Y601D01*
X1344Y595D01*
X1342Y595D01*
X1342Y591D01*
X1340Y591D01*
X1340Y587D01*
X1338Y587D01*
X1338Y583D01*
X1336Y583D01*
X1336Y581D01*
X1334Y581D01*
X1334Y579D01*
X1332Y579D01*
X1332Y577D01*
X1330Y577D01*
X1330Y575D01*
X1328Y575D01*
X1328Y573D01*
X1324Y573D01*
X1324Y571D01*
X1322Y571D01*
X1322Y569D01*
X1318Y569D01*
X1318Y567D01*
X1312Y567D01*
X1312Y565D01*
X1690Y565D01*
X1690Y763D01*
X40Y763D01*
G37*
D02*
G36*
X40Y759D02*
X40Y659D01*
X608Y659D01*
X608Y657D01*
X614Y657D01*
X614Y655D01*
X620Y655D01*
X620Y653D01*
X624Y653D01*
X624Y651D01*
X626Y651D01*
X626Y649D01*
X628Y649D01*
X628Y647D01*
X632Y647D01*
X632Y645D01*
X634Y645D01*
X634Y641D01*
X636Y641D01*
X636Y639D01*
X638Y639D01*
X638Y637D01*
X660Y637D01*
X660Y639D01*
X662Y639D01*
X662Y643D01*
X664Y643D01*
X664Y645D01*
X666Y645D01*
X666Y647D01*
X668Y647D01*
X668Y649D01*
X672Y649D01*
X672Y651D01*
X674Y651D01*
X674Y671D01*
X672Y671D01*
X672Y673D01*
X670Y673D01*
X670Y675D01*
X668Y675D01*
X668Y677D01*
X666Y677D01*
X666Y679D01*
X664Y679D01*
X664Y681D01*
X662Y681D01*
X662Y683D01*
X660Y683D01*
X660Y685D01*
X658Y685D01*
X658Y689D01*
X656Y689D01*
X656Y693D01*
X654Y693D01*
X654Y699D01*
X652Y699D01*
X652Y723D01*
X654Y723D01*
X654Y729D01*
X656Y729D01*
X656Y733D01*
X658Y733D01*
X658Y737D01*
X660Y737D01*
X660Y739D01*
X662Y739D01*
X662Y743D01*
X664Y743D01*
X664Y745D01*
X666Y745D01*
X666Y747D01*
X668Y747D01*
X668Y749D01*
X672Y749D01*
X672Y751D01*
X674Y751D01*
X674Y753D01*
X678Y753D01*
X678Y755D01*
X682Y755D01*
X682Y757D01*
X690Y757D01*
X690Y759D01*
X40Y759D01*
G37*
D02*
G36*
X708Y759D02*
X708Y757D01*
X714Y757D01*
X714Y755D01*
X720Y755D01*
X720Y753D01*
X724Y753D01*
X724Y751D01*
X726Y751D01*
X726Y749D01*
X728Y749D01*
X728Y747D01*
X732Y747D01*
X732Y745D01*
X734Y745D01*
X734Y741D01*
X736Y741D01*
X736Y739D01*
X738Y739D01*
X738Y737D01*
X740Y737D01*
X740Y733D01*
X742Y733D01*
X742Y729D01*
X744Y729D01*
X744Y721D01*
X746Y721D01*
X746Y701D01*
X744Y701D01*
X744Y695D01*
X742Y695D01*
X742Y691D01*
X740Y691D01*
X740Y687D01*
X738Y687D01*
X738Y683D01*
X736Y683D01*
X736Y681D01*
X734Y681D01*
X734Y679D01*
X732Y679D01*
X732Y677D01*
X730Y677D01*
X730Y675D01*
X728Y675D01*
X728Y673D01*
X724Y673D01*
X724Y659D01*
X908Y659D01*
X908Y657D01*
X914Y657D01*
X914Y655D01*
X920Y655D01*
X920Y653D01*
X924Y653D01*
X924Y651D01*
X926Y651D01*
X926Y649D01*
X928Y649D01*
X928Y647D01*
X932Y647D01*
X932Y645D01*
X934Y645D01*
X934Y641D01*
X936Y641D01*
X936Y639D01*
X938Y639D01*
X938Y637D01*
X960Y637D01*
X960Y639D01*
X962Y639D01*
X962Y643D01*
X964Y643D01*
X964Y645D01*
X966Y645D01*
X966Y647D01*
X968Y647D01*
X968Y649D01*
X972Y649D01*
X972Y651D01*
X974Y651D01*
X974Y671D01*
X972Y671D01*
X972Y673D01*
X970Y673D01*
X970Y675D01*
X968Y675D01*
X968Y677D01*
X966Y677D01*
X966Y679D01*
X964Y679D01*
X964Y681D01*
X962Y681D01*
X962Y683D01*
X960Y683D01*
X960Y685D01*
X958Y685D01*
X958Y689D01*
X956Y689D01*
X956Y693D01*
X954Y693D01*
X954Y699D01*
X952Y699D01*
X952Y723D01*
X954Y723D01*
X954Y729D01*
X956Y729D01*
X956Y733D01*
X958Y733D01*
X958Y737D01*
X960Y737D01*
X960Y739D01*
X962Y739D01*
X962Y743D01*
X964Y743D01*
X964Y745D01*
X966Y745D01*
X966Y747D01*
X968Y747D01*
X968Y749D01*
X972Y749D01*
X972Y751D01*
X974Y751D01*
X974Y753D01*
X978Y753D01*
X978Y755D01*
X982Y755D01*
X982Y757D01*
X990Y757D01*
X990Y759D01*
X708Y759D01*
G37*
D02*
G36*
X1008Y759D02*
X1008Y757D01*
X1014Y757D01*
X1014Y755D01*
X1020Y755D01*
X1020Y753D01*
X1024Y753D01*
X1024Y751D01*
X1026Y751D01*
X1026Y749D01*
X1028Y749D01*
X1028Y747D01*
X1032Y747D01*
X1032Y745D01*
X1034Y745D01*
X1034Y741D01*
X1036Y741D01*
X1036Y739D01*
X1038Y739D01*
X1038Y737D01*
X1040Y737D01*
X1040Y733D01*
X1042Y733D01*
X1042Y729D01*
X1044Y729D01*
X1044Y721D01*
X1046Y721D01*
X1046Y701D01*
X1044Y701D01*
X1044Y695D01*
X1042Y695D01*
X1042Y691D01*
X1040Y691D01*
X1040Y687D01*
X1038Y687D01*
X1038Y683D01*
X1036Y683D01*
X1036Y681D01*
X1034Y681D01*
X1034Y679D01*
X1032Y679D01*
X1032Y677D01*
X1030Y677D01*
X1030Y675D01*
X1028Y675D01*
X1028Y673D01*
X1024Y673D01*
X1024Y659D01*
X1208Y659D01*
X1208Y657D01*
X1214Y657D01*
X1214Y655D01*
X1220Y655D01*
X1220Y653D01*
X1224Y653D01*
X1224Y651D01*
X1226Y651D01*
X1226Y649D01*
X1228Y649D01*
X1228Y647D01*
X1232Y647D01*
X1232Y645D01*
X1234Y645D01*
X1234Y641D01*
X1236Y641D01*
X1236Y639D01*
X1238Y639D01*
X1238Y637D01*
X1260Y637D01*
X1260Y639D01*
X1262Y639D01*
X1262Y643D01*
X1264Y643D01*
X1264Y645D01*
X1266Y645D01*
X1266Y647D01*
X1268Y647D01*
X1268Y649D01*
X1272Y649D01*
X1272Y651D01*
X1274Y651D01*
X1274Y671D01*
X1272Y671D01*
X1272Y673D01*
X1270Y673D01*
X1270Y675D01*
X1268Y675D01*
X1268Y677D01*
X1266Y677D01*
X1266Y679D01*
X1264Y679D01*
X1264Y681D01*
X1262Y681D01*
X1262Y683D01*
X1260Y683D01*
X1260Y685D01*
X1258Y685D01*
X1258Y689D01*
X1256Y689D01*
X1256Y693D01*
X1254Y693D01*
X1254Y699D01*
X1252Y699D01*
X1252Y723D01*
X1254Y723D01*
X1254Y729D01*
X1256Y729D01*
X1256Y733D01*
X1258Y733D01*
X1258Y737D01*
X1260Y737D01*
X1260Y739D01*
X1262Y739D01*
X1262Y743D01*
X1264Y743D01*
X1264Y745D01*
X1266Y745D01*
X1266Y747D01*
X1268Y747D01*
X1268Y749D01*
X1272Y749D01*
X1272Y751D01*
X1274Y751D01*
X1274Y753D01*
X1278Y753D01*
X1278Y755D01*
X1282Y755D01*
X1282Y757D01*
X1290Y757D01*
X1290Y759D01*
X1008Y759D01*
G37*
D02*
G36*
X40Y659D02*
X40Y565D01*
X486Y565D01*
X486Y567D01*
X480Y567D01*
X480Y569D01*
X476Y569D01*
X476Y571D01*
X472Y571D01*
X472Y573D01*
X470Y573D01*
X470Y575D01*
X468Y575D01*
X468Y577D01*
X466Y577D01*
X466Y579D01*
X464Y579D01*
X464Y581D01*
X462Y581D01*
X462Y583D01*
X460Y583D01*
X460Y585D01*
X458Y585D01*
X458Y589D01*
X456Y589D01*
X456Y593D01*
X454Y593D01*
X454Y599D01*
X452Y599D01*
X452Y623D01*
X454Y623D01*
X454Y629D01*
X456Y629D01*
X456Y633D01*
X458Y633D01*
X458Y637D01*
X460Y637D01*
X460Y639D01*
X462Y639D01*
X462Y643D01*
X464Y643D01*
X464Y645D01*
X466Y645D01*
X466Y647D01*
X468Y647D01*
X468Y649D01*
X472Y649D01*
X472Y651D01*
X474Y651D01*
X474Y653D01*
X478Y653D01*
X478Y655D01*
X482Y655D01*
X482Y657D01*
X490Y657D01*
X490Y659D01*
X40Y659D01*
G37*
D02*
G36*
X508Y659D02*
X508Y657D01*
X514Y657D01*
X514Y655D01*
X520Y655D01*
X520Y653D01*
X524Y653D01*
X524Y651D01*
X526Y651D01*
X526Y649D01*
X528Y649D01*
X528Y647D01*
X532Y647D01*
X532Y645D01*
X534Y645D01*
X534Y641D01*
X536Y641D01*
X536Y639D01*
X538Y639D01*
X538Y637D01*
X560Y637D01*
X560Y639D01*
X562Y639D01*
X562Y643D01*
X564Y643D01*
X564Y645D01*
X566Y645D01*
X566Y647D01*
X568Y647D01*
X568Y649D01*
X572Y649D01*
X572Y651D01*
X574Y651D01*
X574Y653D01*
X578Y653D01*
X578Y655D01*
X582Y655D01*
X582Y657D01*
X590Y657D01*
X590Y659D01*
X508Y659D01*
G37*
D02*
G36*
X724Y659D02*
X724Y651D01*
X726Y651D01*
X726Y649D01*
X728Y649D01*
X728Y647D01*
X732Y647D01*
X732Y645D01*
X734Y645D01*
X734Y641D01*
X736Y641D01*
X736Y639D01*
X738Y639D01*
X738Y637D01*
X760Y637D01*
X760Y639D01*
X762Y639D01*
X762Y643D01*
X764Y643D01*
X764Y645D01*
X766Y645D01*
X766Y647D01*
X768Y647D01*
X768Y649D01*
X772Y649D01*
X772Y651D01*
X774Y651D01*
X774Y653D01*
X778Y653D01*
X778Y655D01*
X782Y655D01*
X782Y657D01*
X790Y657D01*
X790Y659D01*
X724Y659D01*
G37*
D02*
G36*
X808Y659D02*
X808Y657D01*
X814Y657D01*
X814Y655D01*
X820Y655D01*
X820Y653D01*
X824Y653D01*
X824Y651D01*
X826Y651D01*
X826Y649D01*
X828Y649D01*
X828Y647D01*
X832Y647D01*
X832Y645D01*
X834Y645D01*
X834Y641D01*
X836Y641D01*
X836Y639D01*
X838Y639D01*
X838Y637D01*
X860Y637D01*
X860Y639D01*
X862Y639D01*
X862Y643D01*
X864Y643D01*
X864Y645D01*
X866Y645D01*
X866Y647D01*
X868Y647D01*
X868Y649D01*
X872Y649D01*
X872Y651D01*
X874Y651D01*
X874Y653D01*
X878Y653D01*
X878Y655D01*
X882Y655D01*
X882Y657D01*
X890Y657D01*
X890Y659D01*
X808Y659D01*
G37*
D02*
G36*
X1024Y659D02*
X1024Y651D01*
X1026Y651D01*
X1026Y649D01*
X1028Y649D01*
X1028Y647D01*
X1032Y647D01*
X1032Y645D01*
X1034Y645D01*
X1034Y641D01*
X1036Y641D01*
X1036Y639D01*
X1038Y639D01*
X1038Y637D01*
X1060Y637D01*
X1060Y639D01*
X1062Y639D01*
X1062Y643D01*
X1064Y643D01*
X1064Y645D01*
X1066Y645D01*
X1066Y647D01*
X1068Y647D01*
X1068Y649D01*
X1072Y649D01*
X1072Y651D01*
X1074Y651D01*
X1074Y653D01*
X1078Y653D01*
X1078Y655D01*
X1082Y655D01*
X1082Y657D01*
X1090Y657D01*
X1090Y659D01*
X1024Y659D01*
G37*
D02*
G36*
X1108Y659D02*
X1108Y657D01*
X1114Y657D01*
X1114Y655D01*
X1120Y655D01*
X1120Y653D01*
X1124Y653D01*
X1124Y651D01*
X1126Y651D01*
X1126Y649D01*
X1128Y649D01*
X1128Y647D01*
X1132Y647D01*
X1132Y645D01*
X1134Y645D01*
X1134Y641D01*
X1136Y641D01*
X1136Y639D01*
X1138Y639D01*
X1138Y637D01*
X1160Y637D01*
X1160Y639D01*
X1162Y639D01*
X1162Y643D01*
X1164Y643D01*
X1164Y645D01*
X1166Y645D01*
X1166Y647D01*
X1168Y647D01*
X1168Y649D01*
X1172Y649D01*
X1172Y651D01*
X1174Y651D01*
X1174Y653D01*
X1178Y653D01*
X1178Y655D01*
X1182Y655D01*
X1182Y657D01*
X1190Y657D01*
X1190Y659D01*
X1108Y659D01*
G37*
D02*
G36*
X538Y587D02*
X538Y583D01*
X536Y583D01*
X536Y581D01*
X534Y581D01*
X534Y579D01*
X532Y579D01*
X532Y577D01*
X530Y577D01*
X530Y575D01*
X528Y575D01*
X528Y573D01*
X524Y573D01*
X524Y571D01*
X522Y571D01*
X522Y569D01*
X518Y569D01*
X518Y567D01*
X512Y567D01*
X512Y565D01*
X586Y565D01*
X586Y567D01*
X580Y567D01*
X580Y569D01*
X576Y569D01*
X576Y571D01*
X572Y571D01*
X572Y573D01*
X570Y573D01*
X570Y575D01*
X568Y575D01*
X568Y577D01*
X566Y577D01*
X566Y579D01*
X564Y579D01*
X564Y581D01*
X562Y581D01*
X562Y583D01*
X560Y583D01*
X560Y585D01*
X558Y585D01*
X558Y587D01*
X538Y587D01*
G37*
D02*
G36*
X638Y587D02*
X638Y583D01*
X636Y583D01*
X636Y581D01*
X634Y581D01*
X634Y579D01*
X632Y579D01*
X632Y577D01*
X630Y577D01*
X630Y575D01*
X628Y575D01*
X628Y573D01*
X624Y573D01*
X624Y571D01*
X622Y571D01*
X622Y569D01*
X618Y569D01*
X618Y567D01*
X612Y567D01*
X612Y565D01*
X686Y565D01*
X686Y567D01*
X680Y567D01*
X680Y569D01*
X676Y569D01*
X676Y571D01*
X672Y571D01*
X672Y573D01*
X670Y573D01*
X670Y575D01*
X668Y575D01*
X668Y577D01*
X666Y577D01*
X666Y579D01*
X664Y579D01*
X664Y581D01*
X662Y581D01*
X662Y583D01*
X660Y583D01*
X660Y585D01*
X658Y585D01*
X658Y587D01*
X638Y587D01*
G37*
D02*
G36*
X738Y587D02*
X738Y583D01*
X736Y583D01*
X736Y581D01*
X734Y581D01*
X734Y579D01*
X732Y579D01*
X732Y577D01*
X730Y577D01*
X730Y575D01*
X728Y575D01*
X728Y573D01*
X724Y573D01*
X724Y571D01*
X722Y571D01*
X722Y569D01*
X718Y569D01*
X718Y567D01*
X712Y567D01*
X712Y565D01*
X786Y565D01*
X786Y567D01*
X780Y567D01*
X780Y569D01*
X776Y569D01*
X776Y571D01*
X772Y571D01*
X772Y573D01*
X770Y573D01*
X770Y575D01*
X768Y575D01*
X768Y577D01*
X766Y577D01*
X766Y579D01*
X764Y579D01*
X764Y581D01*
X762Y581D01*
X762Y583D01*
X760Y583D01*
X760Y585D01*
X758Y585D01*
X758Y587D01*
X738Y587D01*
G37*
D02*
G36*
X838Y587D02*
X838Y583D01*
X836Y583D01*
X836Y581D01*
X834Y581D01*
X834Y579D01*
X832Y579D01*
X832Y577D01*
X830Y577D01*
X830Y575D01*
X828Y575D01*
X828Y573D01*
X824Y573D01*
X824Y571D01*
X822Y571D01*
X822Y569D01*
X818Y569D01*
X818Y567D01*
X812Y567D01*
X812Y565D01*
X886Y565D01*
X886Y567D01*
X880Y567D01*
X880Y569D01*
X876Y569D01*
X876Y571D01*
X872Y571D01*
X872Y573D01*
X870Y573D01*
X870Y575D01*
X868Y575D01*
X868Y577D01*
X866Y577D01*
X866Y579D01*
X864Y579D01*
X864Y581D01*
X862Y581D01*
X862Y583D01*
X860Y583D01*
X860Y585D01*
X858Y585D01*
X858Y587D01*
X838Y587D01*
G37*
D02*
G36*
X938Y587D02*
X938Y583D01*
X936Y583D01*
X936Y581D01*
X934Y581D01*
X934Y579D01*
X932Y579D01*
X932Y577D01*
X930Y577D01*
X930Y575D01*
X928Y575D01*
X928Y573D01*
X924Y573D01*
X924Y571D01*
X922Y571D01*
X922Y569D01*
X918Y569D01*
X918Y567D01*
X912Y567D01*
X912Y565D01*
X986Y565D01*
X986Y567D01*
X980Y567D01*
X980Y569D01*
X976Y569D01*
X976Y571D01*
X972Y571D01*
X972Y573D01*
X970Y573D01*
X970Y575D01*
X968Y575D01*
X968Y577D01*
X966Y577D01*
X966Y579D01*
X964Y579D01*
X964Y581D01*
X962Y581D01*
X962Y583D01*
X960Y583D01*
X960Y585D01*
X958Y585D01*
X958Y587D01*
X938Y587D01*
G37*
D02*
G36*
X1038Y587D02*
X1038Y583D01*
X1036Y583D01*
X1036Y581D01*
X1034Y581D01*
X1034Y579D01*
X1032Y579D01*
X1032Y577D01*
X1030Y577D01*
X1030Y575D01*
X1028Y575D01*
X1028Y573D01*
X1024Y573D01*
X1024Y571D01*
X1022Y571D01*
X1022Y569D01*
X1018Y569D01*
X1018Y567D01*
X1012Y567D01*
X1012Y565D01*
X1086Y565D01*
X1086Y567D01*
X1080Y567D01*
X1080Y569D01*
X1076Y569D01*
X1076Y571D01*
X1072Y571D01*
X1072Y573D01*
X1070Y573D01*
X1070Y575D01*
X1068Y575D01*
X1068Y577D01*
X1066Y577D01*
X1066Y579D01*
X1064Y579D01*
X1064Y581D01*
X1062Y581D01*
X1062Y583D01*
X1060Y583D01*
X1060Y585D01*
X1058Y585D01*
X1058Y587D01*
X1038Y587D01*
G37*
D02*
G36*
X1138Y587D02*
X1138Y583D01*
X1136Y583D01*
X1136Y581D01*
X1134Y581D01*
X1134Y579D01*
X1132Y579D01*
X1132Y577D01*
X1130Y577D01*
X1130Y575D01*
X1128Y575D01*
X1128Y573D01*
X1124Y573D01*
X1124Y571D01*
X1122Y571D01*
X1122Y569D01*
X1118Y569D01*
X1118Y567D01*
X1112Y567D01*
X1112Y565D01*
X1186Y565D01*
X1186Y567D01*
X1180Y567D01*
X1180Y569D01*
X1176Y569D01*
X1176Y571D01*
X1172Y571D01*
X1172Y573D01*
X1170Y573D01*
X1170Y575D01*
X1168Y575D01*
X1168Y577D01*
X1166Y577D01*
X1166Y579D01*
X1164Y579D01*
X1164Y581D01*
X1162Y581D01*
X1162Y583D01*
X1160Y583D01*
X1160Y585D01*
X1158Y585D01*
X1158Y587D01*
X1138Y587D01*
G37*
D02*
G36*
X1238Y587D02*
X1238Y583D01*
X1236Y583D01*
X1236Y581D01*
X1234Y581D01*
X1234Y579D01*
X1232Y579D01*
X1232Y577D01*
X1230Y577D01*
X1230Y575D01*
X1228Y575D01*
X1228Y573D01*
X1224Y573D01*
X1224Y571D01*
X1222Y571D01*
X1222Y569D01*
X1218Y569D01*
X1218Y567D01*
X1212Y567D01*
X1212Y565D01*
X1286Y565D01*
X1286Y567D01*
X1280Y567D01*
X1280Y569D01*
X1276Y569D01*
X1276Y571D01*
X1272Y571D01*
X1272Y573D01*
X1270Y573D01*
X1270Y575D01*
X1268Y575D01*
X1268Y577D01*
X1266Y577D01*
X1266Y579D01*
X1264Y579D01*
X1264Y581D01*
X1262Y581D01*
X1262Y583D01*
X1260Y583D01*
X1260Y585D01*
X1258Y585D01*
X1258Y587D01*
X1238Y587D01*
G37*
D02*
G36*
X40Y565D02*
X40Y563D01*
X1690Y563D01*
X1690Y565D01*
X40Y565D01*
G37*
D02*
G36*
X40Y565D02*
X40Y563D01*
X1690Y563D01*
X1690Y565D01*
X40Y565D01*
G37*
D02*
G36*
X40Y565D02*
X40Y563D01*
X1690Y563D01*
X1690Y565D01*
X40Y565D01*
G37*
D02*
G36*
X40Y565D02*
X40Y563D01*
X1690Y563D01*
X1690Y565D01*
X40Y565D01*
G37*
D02*
G36*
X40Y565D02*
X40Y563D01*
X1690Y563D01*
X1690Y565D01*
X40Y565D01*
G37*
D02*
G36*
X40Y565D02*
X40Y563D01*
X1690Y563D01*
X1690Y565D01*
X40Y565D01*
G37*
D02*
G36*
X40Y565D02*
X40Y563D01*
X1690Y563D01*
X1690Y565D01*
X40Y565D01*
G37*
D02*
G36*
X40Y565D02*
X40Y563D01*
X1690Y563D01*
X1690Y565D01*
X40Y565D01*
G37*
D02*
G36*
X40Y565D02*
X40Y563D01*
X1690Y563D01*
X1690Y565D01*
X40Y565D01*
G37*
D02*
G36*
X40Y565D02*
X40Y563D01*
X1690Y563D01*
X1690Y565D01*
X40Y565D01*
G37*
D02*
G36*
X40Y563D02*
X40Y363D01*
X1650Y363D01*
X1650Y261D01*
X1690Y261D01*
X1690Y563D01*
X40Y563D01*
G37*
D02*
G36*
X40Y363D02*
X40Y261D01*
X186Y261D01*
X186Y263D01*
X180Y263D01*
X180Y265D01*
X176Y265D01*
X176Y267D01*
X172Y267D01*
X172Y269D01*
X170Y269D01*
X170Y271D01*
X166Y271D01*
X166Y273D01*
X164Y273D01*
X164Y275D01*
X162Y275D01*
X162Y277D01*
X160Y277D01*
X160Y279D01*
X158Y279D01*
X158Y283D01*
X156Y283D01*
X156Y285D01*
X154Y285D01*
X154Y289D01*
X152Y289D01*
X152Y293D01*
X150Y293D01*
X150Y301D01*
X148Y301D01*
X148Y323D01*
X150Y323D01*
X150Y329D01*
X152Y329D01*
X152Y333D01*
X154Y333D01*
X154Y337D01*
X156Y337D01*
X156Y341D01*
X158Y341D01*
X158Y343D01*
X160Y343D01*
X160Y345D01*
X162Y345D01*
X162Y347D01*
X164Y347D01*
X164Y349D01*
X166Y349D01*
X166Y351D01*
X168Y351D01*
X168Y353D01*
X170Y353D01*
X170Y355D01*
X174Y355D01*
X174Y357D01*
X178Y357D01*
X178Y359D01*
X184Y359D01*
X184Y361D01*
X192Y361D01*
X192Y363D01*
X40Y363D01*
G37*
D02*
G36*
X204Y363D02*
X204Y361D01*
X214Y361D01*
X214Y359D01*
X220Y359D01*
X220Y357D01*
X224Y357D01*
X224Y355D01*
X226Y355D01*
X226Y353D01*
X230Y353D01*
X230Y351D01*
X232Y351D01*
X232Y349D01*
X234Y349D01*
X234Y347D01*
X236Y347D01*
X236Y345D01*
X238Y345D01*
X238Y343D01*
X260Y343D01*
X260Y345D01*
X262Y345D01*
X262Y347D01*
X264Y347D01*
X264Y349D01*
X266Y349D01*
X266Y351D01*
X268Y351D01*
X268Y353D01*
X270Y353D01*
X270Y355D01*
X274Y355D01*
X274Y357D01*
X278Y357D01*
X278Y359D01*
X284Y359D01*
X284Y361D01*
X292Y361D01*
X292Y363D01*
X204Y363D01*
G37*
D02*
G36*
X304Y363D02*
X304Y361D01*
X314Y361D01*
X314Y359D01*
X320Y359D01*
X320Y357D01*
X324Y357D01*
X324Y355D01*
X326Y355D01*
X326Y353D01*
X348Y353D01*
X348Y363D01*
X304Y363D01*
G37*
D02*
G36*
X450Y363D02*
X450Y261D01*
X786Y261D01*
X786Y263D01*
X780Y263D01*
X780Y265D01*
X776Y265D01*
X776Y267D01*
X772Y267D01*
X772Y269D01*
X770Y269D01*
X770Y271D01*
X766Y271D01*
X766Y273D01*
X764Y273D01*
X764Y275D01*
X762Y275D01*
X762Y277D01*
X760Y277D01*
X760Y279D01*
X758Y279D01*
X758Y283D01*
X756Y283D01*
X756Y285D01*
X754Y285D01*
X754Y289D01*
X752Y289D01*
X752Y293D01*
X750Y293D01*
X750Y301D01*
X748Y301D01*
X748Y323D01*
X750Y323D01*
X750Y329D01*
X752Y329D01*
X752Y333D01*
X754Y333D01*
X754Y337D01*
X756Y337D01*
X756Y341D01*
X758Y341D01*
X758Y343D01*
X760Y343D01*
X760Y345D01*
X762Y345D01*
X762Y347D01*
X764Y347D01*
X764Y349D01*
X766Y349D01*
X766Y351D01*
X768Y351D01*
X768Y353D01*
X770Y353D01*
X770Y355D01*
X774Y355D01*
X774Y357D01*
X778Y357D01*
X778Y359D01*
X784Y359D01*
X784Y361D01*
X792Y361D01*
X792Y363D01*
X450Y363D01*
G37*
D02*
G36*
X804Y363D02*
X804Y361D01*
X814Y361D01*
X814Y359D01*
X820Y359D01*
X820Y357D01*
X824Y357D01*
X824Y355D01*
X826Y355D01*
X826Y353D01*
X830Y353D01*
X830Y351D01*
X832Y351D01*
X832Y349D01*
X834Y349D01*
X834Y347D01*
X836Y347D01*
X836Y345D01*
X838Y345D01*
X838Y343D01*
X860Y343D01*
X860Y345D01*
X862Y345D01*
X862Y347D01*
X864Y347D01*
X864Y349D01*
X866Y349D01*
X866Y351D01*
X868Y351D01*
X868Y353D01*
X870Y353D01*
X870Y355D01*
X874Y355D01*
X874Y357D01*
X878Y357D01*
X878Y359D01*
X884Y359D01*
X884Y361D01*
X892Y361D01*
X892Y363D01*
X804Y363D01*
G37*
D02*
G36*
X904Y363D02*
X904Y361D01*
X914Y361D01*
X914Y359D01*
X920Y359D01*
X920Y357D01*
X924Y357D01*
X924Y355D01*
X926Y355D01*
X926Y353D01*
X948Y353D01*
X948Y363D01*
X904Y363D01*
G37*
D02*
G36*
X1050Y363D02*
X1050Y261D01*
X1386Y261D01*
X1386Y263D01*
X1380Y263D01*
X1380Y265D01*
X1376Y265D01*
X1376Y267D01*
X1372Y267D01*
X1372Y269D01*
X1370Y269D01*
X1370Y271D01*
X1366Y271D01*
X1366Y273D01*
X1364Y273D01*
X1364Y275D01*
X1362Y275D01*
X1362Y277D01*
X1360Y277D01*
X1360Y279D01*
X1358Y279D01*
X1358Y283D01*
X1356Y283D01*
X1356Y285D01*
X1354Y285D01*
X1354Y289D01*
X1352Y289D01*
X1352Y293D01*
X1350Y293D01*
X1350Y301D01*
X1348Y301D01*
X1348Y323D01*
X1350Y323D01*
X1350Y329D01*
X1352Y329D01*
X1352Y333D01*
X1354Y333D01*
X1354Y337D01*
X1356Y337D01*
X1356Y341D01*
X1358Y341D01*
X1358Y343D01*
X1360Y343D01*
X1360Y345D01*
X1362Y345D01*
X1362Y347D01*
X1364Y347D01*
X1364Y349D01*
X1366Y349D01*
X1366Y351D01*
X1368Y351D01*
X1368Y353D01*
X1370Y353D01*
X1370Y355D01*
X1374Y355D01*
X1374Y357D01*
X1378Y357D01*
X1378Y359D01*
X1384Y359D01*
X1384Y361D01*
X1392Y361D01*
X1392Y363D01*
X1050Y363D01*
G37*
D02*
G36*
X1404Y363D02*
X1404Y361D01*
X1414Y361D01*
X1414Y359D01*
X1420Y359D01*
X1420Y357D01*
X1424Y357D01*
X1424Y355D01*
X1426Y355D01*
X1426Y353D01*
X1430Y353D01*
X1430Y351D01*
X1432Y351D01*
X1432Y349D01*
X1434Y349D01*
X1434Y347D01*
X1436Y347D01*
X1436Y345D01*
X1438Y345D01*
X1438Y343D01*
X1460Y343D01*
X1460Y345D01*
X1462Y345D01*
X1462Y347D01*
X1464Y347D01*
X1464Y349D01*
X1466Y349D01*
X1466Y351D01*
X1468Y351D01*
X1468Y353D01*
X1470Y353D01*
X1470Y355D01*
X1474Y355D01*
X1474Y357D01*
X1478Y357D01*
X1478Y359D01*
X1484Y359D01*
X1484Y361D01*
X1492Y361D01*
X1492Y363D01*
X1404Y363D01*
G37*
D02*
G36*
X1504Y363D02*
X1504Y361D01*
X1514Y361D01*
X1514Y359D01*
X1520Y359D01*
X1520Y357D01*
X1524Y357D01*
X1524Y355D01*
X1526Y355D01*
X1526Y353D01*
X1548Y353D01*
X1548Y363D01*
X1504Y363D01*
G37*
D02*
G36*
X238Y281D02*
X238Y279D01*
X236Y279D01*
X236Y275D01*
X234Y275D01*
X234Y273D01*
X230Y273D01*
X230Y271D01*
X228Y271D01*
X228Y269D01*
X224Y269D01*
X224Y267D01*
X222Y267D01*
X222Y265D01*
X218Y265D01*
X218Y263D01*
X210Y263D01*
X210Y261D01*
X286Y261D01*
X286Y263D01*
X280Y263D01*
X280Y265D01*
X276Y265D01*
X276Y267D01*
X272Y267D01*
X272Y269D01*
X270Y269D01*
X270Y271D01*
X266Y271D01*
X266Y273D01*
X264Y273D01*
X264Y275D01*
X262Y275D01*
X262Y277D01*
X260Y277D01*
X260Y279D01*
X258Y279D01*
X258Y281D01*
X238Y281D01*
G37*
D02*
G36*
X838Y281D02*
X838Y279D01*
X836Y279D01*
X836Y275D01*
X834Y275D01*
X834Y273D01*
X830Y273D01*
X830Y271D01*
X828Y271D01*
X828Y269D01*
X824Y269D01*
X824Y267D01*
X822Y267D01*
X822Y265D01*
X818Y265D01*
X818Y263D01*
X810Y263D01*
X810Y261D01*
X886Y261D01*
X886Y263D01*
X880Y263D01*
X880Y265D01*
X876Y265D01*
X876Y267D01*
X872Y267D01*
X872Y269D01*
X870Y269D01*
X870Y271D01*
X866Y271D01*
X866Y273D01*
X864Y273D01*
X864Y275D01*
X862Y275D01*
X862Y277D01*
X860Y277D01*
X860Y279D01*
X858Y279D01*
X858Y281D01*
X838Y281D01*
G37*
D02*
G36*
X1438Y281D02*
X1438Y279D01*
X1436Y279D01*
X1436Y275D01*
X1434Y275D01*
X1434Y273D01*
X1430Y273D01*
X1430Y271D01*
X1428Y271D01*
X1428Y269D01*
X1424Y269D01*
X1424Y267D01*
X1422Y267D01*
X1422Y265D01*
X1418Y265D01*
X1418Y263D01*
X1410Y263D01*
X1410Y261D01*
X1486Y261D01*
X1486Y263D01*
X1480Y263D01*
X1480Y265D01*
X1476Y265D01*
X1476Y267D01*
X1472Y267D01*
X1472Y269D01*
X1470Y269D01*
X1470Y271D01*
X1466Y271D01*
X1466Y273D01*
X1464Y273D01*
X1464Y275D01*
X1462Y275D01*
X1462Y277D01*
X1460Y277D01*
X1460Y279D01*
X1458Y279D01*
X1458Y281D01*
X1438Y281D01*
G37*
D02*
G36*
X328Y271D02*
X328Y269D01*
X324Y269D01*
X324Y267D01*
X322Y267D01*
X322Y265D01*
X318Y265D01*
X318Y263D01*
X310Y263D01*
X310Y261D01*
X348Y261D01*
X348Y271D01*
X328Y271D01*
G37*
D02*
G36*
X928Y271D02*
X928Y269D01*
X924Y269D01*
X924Y267D01*
X922Y267D01*
X922Y265D01*
X918Y265D01*
X918Y263D01*
X910Y263D01*
X910Y261D01*
X948Y261D01*
X948Y271D01*
X928Y271D01*
G37*
D02*
G36*
X1528Y271D02*
X1528Y269D01*
X1524Y269D01*
X1524Y267D01*
X1522Y267D01*
X1522Y265D01*
X1518Y265D01*
X1518Y263D01*
X1510Y263D01*
X1510Y261D01*
X1548Y261D01*
X1548Y271D01*
X1528Y271D01*
G37*
D02*
G36*
X40Y261D02*
X40Y259D01*
X1690Y259D01*
X1690Y261D01*
X40Y261D01*
G37*
D02*
G36*
X40Y261D02*
X40Y259D01*
X1690Y259D01*
X1690Y261D01*
X40Y261D01*
G37*
D02*
G36*
X40Y261D02*
X40Y259D01*
X1690Y259D01*
X1690Y261D01*
X40Y261D01*
G37*
D02*
G36*
X40Y261D02*
X40Y259D01*
X1690Y259D01*
X1690Y261D01*
X40Y261D01*
G37*
D02*
G36*
X40Y261D02*
X40Y259D01*
X1690Y259D01*
X1690Y261D01*
X40Y261D01*
G37*
D02*
G36*
X40Y261D02*
X40Y259D01*
X1690Y259D01*
X1690Y261D01*
X40Y261D01*
G37*
D02*
G36*
X40Y261D02*
X40Y259D01*
X1690Y259D01*
X1690Y261D01*
X40Y261D01*
G37*
D02*
G36*
X40Y261D02*
X40Y259D01*
X1690Y259D01*
X1690Y261D01*
X40Y261D01*
G37*
D02*
G36*
X40Y261D02*
X40Y259D01*
X1690Y259D01*
X1690Y261D01*
X40Y261D01*
G37*
D02*
G36*
X40Y261D02*
X40Y259D01*
X1690Y259D01*
X1690Y261D01*
X40Y261D01*
G37*
D02*
G36*
X40Y259D02*
X40Y161D01*
X1004Y161D01*
X1004Y159D01*
X1014Y159D01*
X1014Y157D01*
X1018Y157D01*
X1018Y155D01*
X1022Y155D01*
X1022Y153D01*
X1026Y153D01*
X1026Y151D01*
X1028Y151D01*
X1028Y149D01*
X1032Y149D01*
X1032Y147D01*
X1034Y147D01*
X1034Y145D01*
X1036Y145D01*
X1036Y141D01*
X1038Y141D01*
X1038Y139D01*
X1040Y139D01*
X1040Y135D01*
X1042Y135D01*
X1042Y133D01*
X1044Y133D01*
X1044Y127D01*
X1046Y127D01*
X1046Y119D01*
X1048Y119D01*
X1048Y103D01*
X1046Y103D01*
X1046Y97D01*
X1044Y97D01*
X1044Y91D01*
X1042Y91D01*
X1042Y87D01*
X1040Y87D01*
X1040Y83D01*
X1038Y83D01*
X1038Y81D01*
X1036Y81D01*
X1036Y79D01*
X1034Y79D01*
X1034Y77D01*
X1032Y77D01*
X1032Y75D01*
X1030Y75D01*
X1030Y73D01*
X1028Y73D01*
X1028Y71D01*
X1024Y71D01*
X1024Y69D01*
X1020Y69D01*
X1020Y67D01*
X1016Y67D01*
X1016Y65D01*
X1010Y65D01*
X1010Y63D01*
X1690Y63D01*
X1690Y259D01*
X40Y259D01*
G37*
D02*
G36*
X40Y161D02*
X40Y63D01*
X688Y63D01*
X688Y65D01*
X680Y65D01*
X680Y67D01*
X676Y67D01*
X676Y69D01*
X674Y69D01*
X674Y71D01*
X670Y71D01*
X670Y73D01*
X668Y73D01*
X668Y75D01*
X666Y75D01*
X666Y77D01*
X664Y77D01*
X664Y79D01*
X662Y79D01*
X662Y81D01*
X660Y81D01*
X660Y83D01*
X658Y83D01*
X658Y87D01*
X656Y87D01*
X656Y89D01*
X654Y89D01*
X654Y95D01*
X652Y95D01*
X652Y101D01*
X650Y101D01*
X650Y121D01*
X652Y121D01*
X652Y129D01*
X654Y129D01*
X654Y133D01*
X656Y133D01*
X656Y137D01*
X658Y137D01*
X658Y139D01*
X660Y139D01*
X660Y143D01*
X662Y143D01*
X662Y145D01*
X664Y145D01*
X664Y147D01*
X666Y147D01*
X666Y149D01*
X668Y149D01*
X668Y151D01*
X672Y151D01*
X672Y153D01*
X674Y153D01*
X674Y155D01*
X678Y155D01*
X678Y157D01*
X684Y157D01*
X684Y159D01*
X692Y159D01*
X692Y161D01*
X40Y161D01*
G37*
D02*
G36*
X704Y161D02*
X704Y159D01*
X714Y159D01*
X714Y157D01*
X718Y157D01*
X718Y155D01*
X722Y155D01*
X722Y153D01*
X726Y153D01*
X726Y151D01*
X728Y151D01*
X728Y149D01*
X732Y149D01*
X732Y147D01*
X734Y147D01*
X734Y145D01*
X736Y145D01*
X736Y141D01*
X738Y141D01*
X738Y139D01*
X760Y139D01*
X760Y143D01*
X762Y143D01*
X762Y145D01*
X764Y145D01*
X764Y147D01*
X766Y147D01*
X766Y149D01*
X768Y149D01*
X768Y151D01*
X772Y151D01*
X772Y153D01*
X774Y153D01*
X774Y155D01*
X778Y155D01*
X778Y157D01*
X784Y157D01*
X784Y159D01*
X792Y159D01*
X792Y161D01*
X704Y161D01*
G37*
D02*
G36*
X804Y161D02*
X804Y159D01*
X814Y159D01*
X814Y157D01*
X818Y157D01*
X818Y155D01*
X822Y155D01*
X822Y153D01*
X826Y153D01*
X826Y151D01*
X828Y151D01*
X828Y149D01*
X832Y149D01*
X832Y147D01*
X834Y147D01*
X834Y145D01*
X836Y145D01*
X836Y141D01*
X838Y141D01*
X838Y139D01*
X860Y139D01*
X860Y143D01*
X862Y143D01*
X862Y145D01*
X864Y145D01*
X864Y147D01*
X866Y147D01*
X866Y149D01*
X868Y149D01*
X868Y151D01*
X872Y151D01*
X872Y153D01*
X874Y153D01*
X874Y155D01*
X878Y155D01*
X878Y157D01*
X884Y157D01*
X884Y159D01*
X892Y159D01*
X892Y161D01*
X804Y161D01*
G37*
D02*
G36*
X904Y161D02*
X904Y159D01*
X914Y159D01*
X914Y157D01*
X918Y157D01*
X918Y155D01*
X922Y155D01*
X922Y153D01*
X926Y153D01*
X926Y151D01*
X928Y151D01*
X928Y149D01*
X932Y149D01*
X932Y147D01*
X934Y147D01*
X934Y145D01*
X936Y145D01*
X936Y141D01*
X938Y141D01*
X938Y139D01*
X960Y139D01*
X960Y143D01*
X962Y143D01*
X962Y145D01*
X964Y145D01*
X964Y147D01*
X966Y147D01*
X966Y149D01*
X968Y149D01*
X968Y151D01*
X972Y151D01*
X972Y153D01*
X974Y153D01*
X974Y155D01*
X978Y155D01*
X978Y157D01*
X984Y157D01*
X984Y159D01*
X992Y159D01*
X992Y161D01*
X904Y161D01*
G37*
D02*
G36*
X738Y83D02*
X738Y81D01*
X736Y81D01*
X736Y79D01*
X734Y79D01*
X734Y77D01*
X732Y77D01*
X732Y75D01*
X730Y75D01*
X730Y73D01*
X728Y73D01*
X728Y71D01*
X724Y71D01*
X724Y69D01*
X720Y69D01*
X720Y67D01*
X716Y67D01*
X716Y65D01*
X710Y65D01*
X710Y63D01*
X788Y63D01*
X788Y65D01*
X780Y65D01*
X780Y67D01*
X776Y67D01*
X776Y69D01*
X774Y69D01*
X774Y71D01*
X770Y71D01*
X770Y73D01*
X768Y73D01*
X768Y75D01*
X766Y75D01*
X766Y77D01*
X764Y77D01*
X764Y79D01*
X762Y79D01*
X762Y81D01*
X760Y81D01*
X760Y83D01*
X738Y83D01*
G37*
D02*
G36*
X838Y83D02*
X838Y81D01*
X836Y81D01*
X836Y79D01*
X834Y79D01*
X834Y77D01*
X832Y77D01*
X832Y75D01*
X830Y75D01*
X830Y73D01*
X828Y73D01*
X828Y71D01*
X824Y71D01*
X824Y69D01*
X820Y69D01*
X820Y67D01*
X816Y67D01*
X816Y65D01*
X810Y65D01*
X810Y63D01*
X888Y63D01*
X888Y65D01*
X880Y65D01*
X880Y67D01*
X876Y67D01*
X876Y69D01*
X874Y69D01*
X874Y71D01*
X870Y71D01*
X870Y73D01*
X868Y73D01*
X868Y75D01*
X866Y75D01*
X866Y77D01*
X864Y77D01*
X864Y79D01*
X862Y79D01*
X862Y81D01*
X860Y81D01*
X860Y83D01*
X838Y83D01*
G37*
D02*
G36*
X938Y83D02*
X938Y81D01*
X936Y81D01*
X936Y79D01*
X934Y79D01*
X934Y77D01*
X932Y77D01*
X932Y75D01*
X930Y75D01*
X930Y73D01*
X928Y73D01*
X928Y71D01*
X924Y71D01*
X924Y69D01*
X920Y69D01*
X920Y67D01*
X916Y67D01*
X916Y65D01*
X910Y65D01*
X910Y63D01*
X988Y63D01*
X988Y65D01*
X980Y65D01*
X980Y67D01*
X976Y67D01*
X976Y69D01*
X974Y69D01*
X974Y71D01*
X970Y71D01*
X970Y73D01*
X968Y73D01*
X968Y75D01*
X966Y75D01*
X966Y77D01*
X964Y77D01*
X964Y79D01*
X962Y79D01*
X962Y81D01*
X960Y81D01*
X960Y83D01*
X938Y83D01*
G37*
D02*
G36*
X40Y63D02*
X40Y61D01*
X1690Y61D01*
X1690Y63D01*
X40Y63D01*
G37*
D02*
G36*
X40Y63D02*
X40Y61D01*
X1690Y61D01*
X1690Y63D01*
X40Y63D01*
G37*
D02*
G36*
X40Y63D02*
X40Y61D01*
X1690Y61D01*
X1690Y63D01*
X40Y63D01*
G37*
D02*
G36*
X40Y63D02*
X40Y61D01*
X1690Y61D01*
X1690Y63D01*
X40Y63D01*
G37*
D02*
G36*
X40Y63D02*
X40Y61D01*
X1690Y61D01*
X1690Y63D01*
X40Y63D01*
G37*
D02*
G36*
X40Y61D02*
X40Y41D01*
X1690Y41D01*
X1690Y61D01*
X40Y61D01*
G37*
D02*
G04 End of Copper1*
M02*