G04 MADE WITH FRITZING*
G04 WWW.FRITZING.ORG*
G04 DOUBLE SIDED*
G04 HOLES PLATED*
G04 CONTOUR ON CENTER OF CONTOUR VECTOR*
%ASAXBY*%
%FSLAX23Y23*%
%MOIN*%
%OFA0B0*%
%SFA1.0B1.0*%
%ADD10C,0.075000*%
%ADD11C,0.078000*%
%ADD12C,0.082000*%
%ADD13R,0.075000X0.075000*%
%ADD14R,0.082000X0.082000*%
%LNCOPPER1*%
G90*
G70*
G54D10*
X1344Y1681D03*
G54D11*
X1442Y1188D03*
X1342Y1188D03*
X1442Y1188D03*
X1342Y1188D03*
X1442Y1088D03*
X1342Y1088D03*
X1442Y1088D03*
X1342Y1088D03*
X642Y88D03*
X742Y88D03*
X842Y88D03*
X942Y88D03*
X642Y88D03*
X742Y88D03*
X842Y88D03*
X942Y88D03*
G54D10*
X1142Y1688D03*
X1142Y1388D03*
X1042Y1688D03*
X1042Y1388D03*
X942Y1688D03*
X942Y1388D03*
X842Y1688D03*
X842Y1388D03*
X742Y1688D03*
X742Y1388D03*
X642Y1688D03*
X642Y1388D03*
X542Y1688D03*
X542Y1388D03*
G54D11*
X1247Y1688D03*
X1247Y1588D03*
X1247Y1488D03*
X1247Y1388D03*
X1247Y1688D03*
X1247Y1588D03*
X1247Y1488D03*
X1247Y1388D03*
G54D10*
X642Y588D03*
X542Y588D03*
X442Y588D03*
X642Y588D03*
X542Y588D03*
X442Y588D03*
X942Y588D03*
X842Y588D03*
X742Y588D03*
X942Y588D03*
X842Y588D03*
X742Y588D03*
X1242Y588D03*
X1142Y588D03*
X1042Y588D03*
X1242Y588D03*
X1142Y588D03*
X1042Y588D03*
G54D12*
X942Y288D03*
X842Y288D03*
X742Y288D03*
X942Y288D03*
X842Y288D03*
X742Y288D03*
X342Y288D03*
X242Y288D03*
X142Y288D03*
X342Y288D03*
X242Y288D03*
X142Y288D03*
X1542Y288D03*
X1442Y288D03*
X1342Y288D03*
X1542Y288D03*
X1442Y288D03*
X1342Y288D03*
G54D10*
X642Y688D03*
X642Y1088D03*
X642Y688D03*
X642Y1088D03*
X942Y688D03*
X942Y1088D03*
X942Y688D03*
X942Y1088D03*
X1242Y688D03*
X1242Y1088D03*
X1242Y688D03*
X1242Y1088D03*
X842Y1188D03*
X842Y788D03*
X842Y1188D03*
X842Y788D03*
X542Y1188D03*
X542Y788D03*
X542Y1188D03*
X542Y788D03*
X1142Y1188D03*
X1142Y788D03*
X1142Y1188D03*
X1142Y788D03*
G54D13*
X1142Y1688D03*
G54D14*
X942Y288D03*
X942Y288D03*
X342Y288D03*
X342Y288D03*
X1542Y288D03*
X1542Y288D03*
G36*
X40Y1758D02*
X40Y1738D01*
X1252Y1738D01*
X1252Y1736D01*
X1262Y1736D01*
X1262Y1734D01*
X1268Y1734D01*
X1268Y1732D01*
X1270Y1732D01*
X1270Y1730D01*
X1274Y1730D01*
X1274Y1728D01*
X1276Y1728D01*
X1276Y1726D01*
X1280Y1726D01*
X1280Y1724D01*
X1282Y1724D01*
X1282Y1722D01*
X1284Y1722D01*
X1284Y1718D01*
X1286Y1718D01*
X1286Y1716D01*
X1288Y1716D01*
X1288Y1712D01*
X1290Y1712D01*
X1290Y1710D01*
X1292Y1710D01*
X1292Y1704D01*
X1294Y1704D01*
X1294Y1696D01*
X1296Y1696D01*
X1296Y1680D01*
X1294Y1680D01*
X1294Y1672D01*
X1292Y1672D01*
X1292Y1668D01*
X1290Y1668D01*
X1290Y1664D01*
X1288Y1664D01*
X1288Y1660D01*
X1286Y1660D01*
X1286Y1658D01*
X1284Y1658D01*
X1284Y1656D01*
X1282Y1656D01*
X1282Y1654D01*
X1280Y1654D01*
X1280Y1652D01*
X1278Y1652D01*
X1278Y1650D01*
X1276Y1650D01*
X1276Y1648D01*
X1274Y1648D01*
X1274Y1628D01*
X1276Y1628D01*
X1276Y1626D01*
X1280Y1626D01*
X1280Y1624D01*
X1282Y1624D01*
X1282Y1622D01*
X1284Y1622D01*
X1284Y1618D01*
X1286Y1618D01*
X1286Y1616D01*
X1288Y1616D01*
X1288Y1612D01*
X1290Y1612D01*
X1290Y1610D01*
X1292Y1610D01*
X1292Y1604D01*
X1294Y1604D01*
X1294Y1596D01*
X1296Y1596D01*
X1296Y1580D01*
X1294Y1580D01*
X1294Y1572D01*
X1292Y1572D01*
X1292Y1568D01*
X1290Y1568D01*
X1290Y1564D01*
X1288Y1564D01*
X1288Y1560D01*
X1286Y1560D01*
X1286Y1558D01*
X1284Y1558D01*
X1284Y1556D01*
X1282Y1556D01*
X1282Y1554D01*
X1280Y1554D01*
X1280Y1552D01*
X1278Y1552D01*
X1278Y1550D01*
X1276Y1550D01*
X1276Y1548D01*
X1274Y1548D01*
X1274Y1528D01*
X1276Y1528D01*
X1276Y1526D01*
X1280Y1526D01*
X1280Y1524D01*
X1282Y1524D01*
X1282Y1522D01*
X1284Y1522D01*
X1284Y1518D01*
X1286Y1518D01*
X1286Y1516D01*
X1288Y1516D01*
X1288Y1512D01*
X1290Y1512D01*
X1290Y1510D01*
X1292Y1510D01*
X1292Y1504D01*
X1294Y1504D01*
X1294Y1496D01*
X1296Y1496D01*
X1296Y1480D01*
X1294Y1480D01*
X1294Y1472D01*
X1292Y1472D01*
X1292Y1468D01*
X1290Y1468D01*
X1290Y1464D01*
X1288Y1464D01*
X1288Y1460D01*
X1286Y1460D01*
X1286Y1458D01*
X1284Y1458D01*
X1284Y1456D01*
X1282Y1456D01*
X1282Y1454D01*
X1280Y1454D01*
X1280Y1452D01*
X1278Y1452D01*
X1278Y1450D01*
X1276Y1450D01*
X1276Y1448D01*
X1274Y1448D01*
X1274Y1428D01*
X1276Y1428D01*
X1276Y1426D01*
X1280Y1426D01*
X1280Y1424D01*
X1282Y1424D01*
X1282Y1422D01*
X1284Y1422D01*
X1284Y1418D01*
X1286Y1418D01*
X1286Y1416D01*
X1288Y1416D01*
X1288Y1412D01*
X1290Y1412D01*
X1290Y1410D01*
X1292Y1410D01*
X1292Y1404D01*
X1294Y1404D01*
X1294Y1396D01*
X1296Y1396D01*
X1296Y1380D01*
X1294Y1380D01*
X1294Y1372D01*
X1292Y1372D01*
X1292Y1368D01*
X1290Y1368D01*
X1290Y1364D01*
X1288Y1364D01*
X1288Y1360D01*
X1286Y1360D01*
X1286Y1358D01*
X1284Y1358D01*
X1284Y1356D01*
X1282Y1356D01*
X1282Y1354D01*
X1280Y1354D01*
X1280Y1352D01*
X1278Y1352D01*
X1278Y1350D01*
X1276Y1350D01*
X1276Y1348D01*
X1272Y1348D01*
X1272Y1346D01*
X1268Y1346D01*
X1268Y1344D01*
X1264Y1344D01*
X1264Y1342D01*
X1258Y1342D01*
X1258Y1340D01*
X1634Y1340D01*
X1634Y1758D01*
X40Y1758D01*
G37*
D02*
G36*
X40Y1738D02*
X40Y1736D01*
X1190Y1736D01*
X1190Y1720D01*
X1210Y1720D01*
X1210Y1722D01*
X1212Y1722D01*
X1212Y1724D01*
X1214Y1724D01*
X1214Y1726D01*
X1216Y1726D01*
X1216Y1728D01*
X1220Y1728D01*
X1220Y1730D01*
X1224Y1730D01*
X1224Y1732D01*
X1226Y1732D01*
X1226Y1734D01*
X1232Y1734D01*
X1232Y1736D01*
X1240Y1736D01*
X1240Y1738D01*
X40Y1738D01*
G37*
D02*
G36*
X40Y1736D02*
X40Y1642D01*
X530Y1642D01*
X530Y1644D01*
X522Y1644D01*
X522Y1646D01*
X520Y1646D01*
X520Y1648D01*
X516Y1648D01*
X516Y1650D01*
X514Y1650D01*
X514Y1652D01*
X510Y1652D01*
X510Y1654D01*
X508Y1654D01*
X508Y1656D01*
X506Y1656D01*
X506Y1658D01*
X504Y1658D01*
X504Y1662D01*
X502Y1662D01*
X502Y1664D01*
X500Y1664D01*
X500Y1668D01*
X498Y1668D01*
X498Y1674D01*
X496Y1674D01*
X496Y1682D01*
X494Y1682D01*
X494Y1696D01*
X496Y1696D01*
X496Y1704D01*
X498Y1704D01*
X498Y1708D01*
X500Y1708D01*
X500Y1712D01*
X502Y1712D01*
X502Y1716D01*
X504Y1716D01*
X504Y1718D01*
X506Y1718D01*
X506Y1720D01*
X508Y1720D01*
X508Y1722D01*
X510Y1722D01*
X510Y1724D01*
X512Y1724D01*
X512Y1726D01*
X514Y1726D01*
X514Y1728D01*
X518Y1728D01*
X518Y1730D01*
X522Y1730D01*
X522Y1732D01*
X526Y1732D01*
X526Y1734D01*
X532Y1734D01*
X532Y1736D01*
X40Y1736D01*
G37*
D02*
G36*
X550Y1736D02*
X550Y1734D01*
X558Y1734D01*
X558Y1732D01*
X562Y1732D01*
X562Y1730D01*
X566Y1730D01*
X566Y1728D01*
X570Y1728D01*
X570Y1726D01*
X572Y1726D01*
X572Y1724D01*
X574Y1724D01*
X574Y1722D01*
X576Y1722D01*
X576Y1720D01*
X578Y1720D01*
X578Y1718D01*
X580Y1718D01*
X580Y1716D01*
X582Y1716D01*
X582Y1712D01*
X602Y1712D01*
X602Y1716D01*
X604Y1716D01*
X604Y1718D01*
X606Y1718D01*
X606Y1720D01*
X608Y1720D01*
X608Y1722D01*
X610Y1722D01*
X610Y1724D01*
X612Y1724D01*
X612Y1726D01*
X614Y1726D01*
X614Y1728D01*
X618Y1728D01*
X618Y1730D01*
X622Y1730D01*
X622Y1732D01*
X626Y1732D01*
X626Y1734D01*
X632Y1734D01*
X632Y1736D01*
X550Y1736D01*
G37*
D02*
G36*
X650Y1736D02*
X650Y1734D01*
X658Y1734D01*
X658Y1732D01*
X662Y1732D01*
X662Y1730D01*
X666Y1730D01*
X666Y1728D01*
X670Y1728D01*
X670Y1726D01*
X672Y1726D01*
X672Y1724D01*
X674Y1724D01*
X674Y1722D01*
X676Y1722D01*
X676Y1720D01*
X678Y1720D01*
X678Y1718D01*
X680Y1718D01*
X680Y1716D01*
X682Y1716D01*
X682Y1712D01*
X702Y1712D01*
X702Y1716D01*
X704Y1716D01*
X704Y1718D01*
X706Y1718D01*
X706Y1720D01*
X708Y1720D01*
X708Y1722D01*
X710Y1722D01*
X710Y1724D01*
X712Y1724D01*
X712Y1726D01*
X714Y1726D01*
X714Y1728D01*
X718Y1728D01*
X718Y1730D01*
X722Y1730D01*
X722Y1732D01*
X726Y1732D01*
X726Y1734D01*
X732Y1734D01*
X732Y1736D01*
X650Y1736D01*
G37*
D02*
G36*
X750Y1736D02*
X750Y1734D01*
X758Y1734D01*
X758Y1732D01*
X762Y1732D01*
X762Y1730D01*
X766Y1730D01*
X766Y1728D01*
X770Y1728D01*
X770Y1726D01*
X772Y1726D01*
X772Y1724D01*
X774Y1724D01*
X774Y1722D01*
X776Y1722D01*
X776Y1720D01*
X778Y1720D01*
X778Y1718D01*
X780Y1718D01*
X780Y1716D01*
X782Y1716D01*
X782Y1712D01*
X802Y1712D01*
X802Y1716D01*
X804Y1716D01*
X804Y1718D01*
X806Y1718D01*
X806Y1720D01*
X808Y1720D01*
X808Y1722D01*
X810Y1722D01*
X810Y1724D01*
X812Y1724D01*
X812Y1726D01*
X814Y1726D01*
X814Y1728D01*
X818Y1728D01*
X818Y1730D01*
X822Y1730D01*
X822Y1732D01*
X826Y1732D01*
X826Y1734D01*
X832Y1734D01*
X832Y1736D01*
X750Y1736D01*
G37*
D02*
G36*
X850Y1736D02*
X850Y1734D01*
X858Y1734D01*
X858Y1732D01*
X862Y1732D01*
X862Y1730D01*
X866Y1730D01*
X866Y1728D01*
X870Y1728D01*
X870Y1726D01*
X872Y1726D01*
X872Y1724D01*
X874Y1724D01*
X874Y1722D01*
X876Y1722D01*
X876Y1720D01*
X878Y1720D01*
X878Y1718D01*
X880Y1718D01*
X880Y1716D01*
X882Y1716D01*
X882Y1712D01*
X902Y1712D01*
X902Y1716D01*
X904Y1716D01*
X904Y1718D01*
X906Y1718D01*
X906Y1720D01*
X908Y1720D01*
X908Y1722D01*
X910Y1722D01*
X910Y1724D01*
X912Y1724D01*
X912Y1726D01*
X914Y1726D01*
X914Y1728D01*
X918Y1728D01*
X918Y1730D01*
X922Y1730D01*
X922Y1732D01*
X926Y1732D01*
X926Y1734D01*
X932Y1734D01*
X932Y1736D01*
X850Y1736D01*
G37*
D02*
G36*
X950Y1736D02*
X950Y1734D01*
X958Y1734D01*
X958Y1732D01*
X962Y1732D01*
X962Y1730D01*
X966Y1730D01*
X966Y1728D01*
X970Y1728D01*
X970Y1726D01*
X972Y1726D01*
X972Y1724D01*
X974Y1724D01*
X974Y1722D01*
X976Y1722D01*
X976Y1720D01*
X978Y1720D01*
X978Y1718D01*
X980Y1718D01*
X980Y1716D01*
X982Y1716D01*
X982Y1712D01*
X1002Y1712D01*
X1002Y1716D01*
X1004Y1716D01*
X1004Y1718D01*
X1006Y1718D01*
X1006Y1720D01*
X1008Y1720D01*
X1008Y1722D01*
X1010Y1722D01*
X1010Y1724D01*
X1012Y1724D01*
X1012Y1726D01*
X1014Y1726D01*
X1014Y1728D01*
X1018Y1728D01*
X1018Y1730D01*
X1022Y1730D01*
X1022Y1732D01*
X1026Y1732D01*
X1026Y1734D01*
X1032Y1734D01*
X1032Y1736D01*
X950Y1736D01*
G37*
D02*
G36*
X1050Y1736D02*
X1050Y1734D01*
X1058Y1734D01*
X1058Y1732D01*
X1062Y1732D01*
X1062Y1730D01*
X1066Y1730D01*
X1066Y1728D01*
X1070Y1728D01*
X1070Y1726D01*
X1072Y1726D01*
X1072Y1724D01*
X1074Y1724D01*
X1074Y1722D01*
X1094Y1722D01*
X1094Y1736D01*
X1050Y1736D01*
G37*
D02*
G36*
X582Y1664D02*
X582Y1662D01*
X580Y1662D01*
X580Y1660D01*
X578Y1660D01*
X578Y1656D01*
X576Y1656D01*
X576Y1654D01*
X574Y1654D01*
X574Y1652D01*
X570Y1652D01*
X570Y1650D01*
X568Y1650D01*
X568Y1648D01*
X564Y1648D01*
X564Y1646D01*
X560Y1646D01*
X560Y1644D01*
X554Y1644D01*
X554Y1642D01*
X630Y1642D01*
X630Y1644D01*
X622Y1644D01*
X622Y1646D01*
X620Y1646D01*
X620Y1648D01*
X616Y1648D01*
X616Y1650D01*
X614Y1650D01*
X614Y1652D01*
X610Y1652D01*
X610Y1654D01*
X608Y1654D01*
X608Y1656D01*
X606Y1656D01*
X606Y1658D01*
X604Y1658D01*
X604Y1662D01*
X602Y1662D01*
X602Y1664D01*
X582Y1664D01*
G37*
D02*
G36*
X682Y1664D02*
X682Y1662D01*
X680Y1662D01*
X680Y1660D01*
X678Y1660D01*
X678Y1656D01*
X676Y1656D01*
X676Y1654D01*
X674Y1654D01*
X674Y1652D01*
X670Y1652D01*
X670Y1650D01*
X668Y1650D01*
X668Y1648D01*
X664Y1648D01*
X664Y1646D01*
X660Y1646D01*
X660Y1644D01*
X654Y1644D01*
X654Y1642D01*
X730Y1642D01*
X730Y1644D01*
X722Y1644D01*
X722Y1646D01*
X720Y1646D01*
X720Y1648D01*
X716Y1648D01*
X716Y1650D01*
X714Y1650D01*
X714Y1652D01*
X710Y1652D01*
X710Y1654D01*
X708Y1654D01*
X708Y1656D01*
X706Y1656D01*
X706Y1658D01*
X704Y1658D01*
X704Y1662D01*
X702Y1662D01*
X702Y1664D01*
X682Y1664D01*
G37*
D02*
G36*
X782Y1664D02*
X782Y1662D01*
X780Y1662D01*
X780Y1660D01*
X778Y1660D01*
X778Y1656D01*
X776Y1656D01*
X776Y1654D01*
X774Y1654D01*
X774Y1652D01*
X770Y1652D01*
X770Y1650D01*
X768Y1650D01*
X768Y1648D01*
X764Y1648D01*
X764Y1646D01*
X760Y1646D01*
X760Y1644D01*
X754Y1644D01*
X754Y1642D01*
X830Y1642D01*
X830Y1644D01*
X822Y1644D01*
X822Y1646D01*
X820Y1646D01*
X820Y1648D01*
X816Y1648D01*
X816Y1650D01*
X814Y1650D01*
X814Y1652D01*
X810Y1652D01*
X810Y1654D01*
X808Y1654D01*
X808Y1656D01*
X806Y1656D01*
X806Y1658D01*
X804Y1658D01*
X804Y1662D01*
X802Y1662D01*
X802Y1664D01*
X782Y1664D01*
G37*
D02*
G36*
X882Y1664D02*
X882Y1662D01*
X880Y1662D01*
X880Y1660D01*
X878Y1660D01*
X878Y1656D01*
X876Y1656D01*
X876Y1654D01*
X874Y1654D01*
X874Y1652D01*
X870Y1652D01*
X870Y1650D01*
X868Y1650D01*
X868Y1648D01*
X864Y1648D01*
X864Y1646D01*
X860Y1646D01*
X860Y1644D01*
X854Y1644D01*
X854Y1642D01*
X930Y1642D01*
X930Y1644D01*
X922Y1644D01*
X922Y1646D01*
X920Y1646D01*
X920Y1648D01*
X916Y1648D01*
X916Y1650D01*
X914Y1650D01*
X914Y1652D01*
X910Y1652D01*
X910Y1654D01*
X908Y1654D01*
X908Y1656D01*
X906Y1656D01*
X906Y1658D01*
X904Y1658D01*
X904Y1662D01*
X902Y1662D01*
X902Y1664D01*
X882Y1664D01*
G37*
D02*
G36*
X982Y1664D02*
X982Y1662D01*
X980Y1662D01*
X980Y1660D01*
X978Y1660D01*
X978Y1656D01*
X976Y1656D01*
X976Y1654D01*
X974Y1654D01*
X974Y1652D01*
X970Y1652D01*
X970Y1650D01*
X968Y1650D01*
X968Y1648D01*
X964Y1648D01*
X964Y1646D01*
X960Y1646D01*
X960Y1644D01*
X954Y1644D01*
X954Y1642D01*
X1030Y1642D01*
X1030Y1644D01*
X1022Y1644D01*
X1022Y1646D01*
X1020Y1646D01*
X1020Y1648D01*
X1016Y1648D01*
X1016Y1650D01*
X1014Y1650D01*
X1014Y1652D01*
X1010Y1652D01*
X1010Y1654D01*
X1008Y1654D01*
X1008Y1656D01*
X1006Y1656D01*
X1006Y1658D01*
X1004Y1658D01*
X1004Y1662D01*
X1002Y1662D01*
X1002Y1664D01*
X982Y1664D01*
G37*
D02*
G36*
X1190Y1658D02*
X1190Y1642D01*
X1188Y1642D01*
X1188Y1640D01*
X1220Y1640D01*
X1220Y1648D01*
X1218Y1648D01*
X1218Y1650D01*
X1216Y1650D01*
X1216Y1652D01*
X1214Y1652D01*
X1214Y1654D01*
X1212Y1654D01*
X1212Y1656D01*
X1210Y1656D01*
X1210Y1658D01*
X1190Y1658D01*
G37*
D02*
G36*
X1074Y1654D02*
X1074Y1652D01*
X1070Y1652D01*
X1070Y1650D01*
X1068Y1650D01*
X1068Y1648D01*
X1064Y1648D01*
X1064Y1646D01*
X1060Y1646D01*
X1060Y1644D01*
X1054Y1644D01*
X1054Y1642D01*
X1094Y1642D01*
X1094Y1654D01*
X1074Y1654D01*
G37*
D02*
G36*
X40Y1642D02*
X40Y1640D01*
X1096Y1640D01*
X1096Y1642D01*
X40Y1642D01*
G37*
D02*
G36*
X40Y1642D02*
X40Y1640D01*
X1096Y1640D01*
X1096Y1642D01*
X40Y1642D01*
G37*
D02*
G36*
X40Y1642D02*
X40Y1640D01*
X1096Y1640D01*
X1096Y1642D01*
X40Y1642D01*
G37*
D02*
G36*
X40Y1642D02*
X40Y1640D01*
X1096Y1640D01*
X1096Y1642D01*
X40Y1642D01*
G37*
D02*
G36*
X40Y1642D02*
X40Y1640D01*
X1096Y1640D01*
X1096Y1642D01*
X40Y1642D01*
G37*
D02*
G36*
X40Y1642D02*
X40Y1640D01*
X1096Y1640D01*
X1096Y1642D01*
X40Y1642D01*
G37*
D02*
G36*
X40Y1642D02*
X40Y1640D01*
X1096Y1640D01*
X1096Y1642D01*
X40Y1642D01*
G37*
D02*
G36*
X40Y1640D02*
X40Y1638D01*
X1220Y1638D01*
X1220Y1640D01*
X40Y1640D01*
G37*
D02*
G36*
X40Y1640D02*
X40Y1638D01*
X1220Y1638D01*
X1220Y1640D01*
X40Y1640D01*
G37*
D02*
G36*
X40Y1638D02*
X40Y1436D01*
X1152Y1436D01*
X1152Y1434D01*
X1158Y1434D01*
X1158Y1432D01*
X1162Y1432D01*
X1162Y1430D01*
X1166Y1430D01*
X1166Y1428D01*
X1170Y1428D01*
X1170Y1426D01*
X1172Y1426D01*
X1172Y1424D01*
X1174Y1424D01*
X1174Y1422D01*
X1176Y1422D01*
X1176Y1420D01*
X1178Y1420D01*
X1178Y1418D01*
X1180Y1418D01*
X1180Y1416D01*
X1182Y1416D01*
X1182Y1412D01*
X1184Y1412D01*
X1184Y1410D01*
X1204Y1410D01*
X1204Y1414D01*
X1206Y1414D01*
X1206Y1416D01*
X1208Y1416D01*
X1208Y1420D01*
X1210Y1420D01*
X1210Y1422D01*
X1212Y1422D01*
X1212Y1424D01*
X1214Y1424D01*
X1214Y1426D01*
X1216Y1426D01*
X1216Y1428D01*
X1220Y1428D01*
X1220Y1448D01*
X1218Y1448D01*
X1218Y1450D01*
X1216Y1450D01*
X1216Y1452D01*
X1214Y1452D01*
X1214Y1454D01*
X1212Y1454D01*
X1212Y1456D01*
X1210Y1456D01*
X1210Y1458D01*
X1208Y1458D01*
X1208Y1460D01*
X1206Y1460D01*
X1206Y1464D01*
X1204Y1464D01*
X1204Y1468D01*
X1202Y1468D01*
X1202Y1472D01*
X1200Y1472D01*
X1200Y1478D01*
X1198Y1478D01*
X1198Y1498D01*
X1200Y1498D01*
X1200Y1506D01*
X1202Y1506D01*
X1202Y1510D01*
X1204Y1510D01*
X1204Y1514D01*
X1206Y1514D01*
X1206Y1516D01*
X1208Y1516D01*
X1208Y1520D01*
X1210Y1520D01*
X1210Y1522D01*
X1212Y1522D01*
X1212Y1524D01*
X1214Y1524D01*
X1214Y1526D01*
X1216Y1526D01*
X1216Y1528D01*
X1220Y1528D01*
X1220Y1548D01*
X1218Y1548D01*
X1218Y1550D01*
X1216Y1550D01*
X1216Y1552D01*
X1214Y1552D01*
X1214Y1554D01*
X1212Y1554D01*
X1212Y1556D01*
X1210Y1556D01*
X1210Y1558D01*
X1208Y1558D01*
X1208Y1560D01*
X1206Y1560D01*
X1206Y1564D01*
X1204Y1564D01*
X1204Y1568D01*
X1202Y1568D01*
X1202Y1572D01*
X1200Y1572D01*
X1200Y1578D01*
X1198Y1578D01*
X1198Y1598D01*
X1200Y1598D01*
X1200Y1606D01*
X1202Y1606D01*
X1202Y1610D01*
X1204Y1610D01*
X1204Y1614D01*
X1206Y1614D01*
X1206Y1616D01*
X1208Y1616D01*
X1208Y1620D01*
X1210Y1620D01*
X1210Y1622D01*
X1212Y1622D01*
X1212Y1624D01*
X1214Y1624D01*
X1214Y1626D01*
X1216Y1626D01*
X1216Y1628D01*
X1220Y1628D01*
X1220Y1638D01*
X40Y1638D01*
G37*
D02*
G36*
X40Y1436D02*
X40Y1342D01*
X530Y1342D01*
X530Y1344D01*
X522Y1344D01*
X522Y1346D01*
X520Y1346D01*
X520Y1348D01*
X516Y1348D01*
X516Y1350D01*
X514Y1350D01*
X514Y1352D01*
X510Y1352D01*
X510Y1354D01*
X508Y1354D01*
X508Y1356D01*
X506Y1356D01*
X506Y1358D01*
X504Y1358D01*
X504Y1362D01*
X502Y1362D01*
X502Y1364D01*
X500Y1364D01*
X500Y1368D01*
X498Y1368D01*
X498Y1374D01*
X496Y1374D01*
X496Y1382D01*
X494Y1382D01*
X494Y1396D01*
X496Y1396D01*
X496Y1404D01*
X498Y1404D01*
X498Y1408D01*
X500Y1408D01*
X500Y1412D01*
X502Y1412D01*
X502Y1416D01*
X504Y1416D01*
X504Y1418D01*
X506Y1418D01*
X506Y1420D01*
X508Y1420D01*
X508Y1422D01*
X510Y1422D01*
X510Y1424D01*
X512Y1424D01*
X512Y1426D01*
X514Y1426D01*
X514Y1428D01*
X518Y1428D01*
X518Y1430D01*
X522Y1430D01*
X522Y1432D01*
X526Y1432D01*
X526Y1434D01*
X532Y1434D01*
X532Y1436D01*
X40Y1436D01*
G37*
D02*
G36*
X552Y1436D02*
X552Y1434D01*
X558Y1434D01*
X558Y1432D01*
X562Y1432D01*
X562Y1430D01*
X566Y1430D01*
X566Y1428D01*
X570Y1428D01*
X570Y1426D01*
X572Y1426D01*
X572Y1424D01*
X574Y1424D01*
X574Y1422D01*
X576Y1422D01*
X576Y1420D01*
X578Y1420D01*
X578Y1418D01*
X580Y1418D01*
X580Y1416D01*
X582Y1416D01*
X582Y1412D01*
X602Y1412D01*
X602Y1416D01*
X604Y1416D01*
X604Y1418D01*
X606Y1418D01*
X606Y1420D01*
X608Y1420D01*
X608Y1422D01*
X610Y1422D01*
X610Y1424D01*
X612Y1424D01*
X612Y1426D01*
X614Y1426D01*
X614Y1428D01*
X618Y1428D01*
X618Y1430D01*
X622Y1430D01*
X622Y1432D01*
X626Y1432D01*
X626Y1434D01*
X632Y1434D01*
X632Y1436D01*
X552Y1436D01*
G37*
D02*
G36*
X652Y1436D02*
X652Y1434D01*
X658Y1434D01*
X658Y1432D01*
X662Y1432D01*
X662Y1430D01*
X666Y1430D01*
X666Y1428D01*
X670Y1428D01*
X670Y1426D01*
X672Y1426D01*
X672Y1424D01*
X674Y1424D01*
X674Y1422D01*
X676Y1422D01*
X676Y1420D01*
X678Y1420D01*
X678Y1418D01*
X680Y1418D01*
X680Y1416D01*
X682Y1416D01*
X682Y1412D01*
X702Y1412D01*
X702Y1416D01*
X704Y1416D01*
X704Y1418D01*
X706Y1418D01*
X706Y1420D01*
X708Y1420D01*
X708Y1422D01*
X710Y1422D01*
X710Y1424D01*
X712Y1424D01*
X712Y1426D01*
X714Y1426D01*
X714Y1428D01*
X718Y1428D01*
X718Y1430D01*
X722Y1430D01*
X722Y1432D01*
X726Y1432D01*
X726Y1434D01*
X732Y1434D01*
X732Y1436D01*
X652Y1436D01*
G37*
D02*
G36*
X752Y1436D02*
X752Y1434D01*
X758Y1434D01*
X758Y1432D01*
X762Y1432D01*
X762Y1430D01*
X766Y1430D01*
X766Y1428D01*
X770Y1428D01*
X770Y1426D01*
X772Y1426D01*
X772Y1424D01*
X774Y1424D01*
X774Y1422D01*
X776Y1422D01*
X776Y1420D01*
X778Y1420D01*
X778Y1418D01*
X780Y1418D01*
X780Y1416D01*
X782Y1416D01*
X782Y1412D01*
X802Y1412D01*
X802Y1416D01*
X804Y1416D01*
X804Y1418D01*
X806Y1418D01*
X806Y1420D01*
X808Y1420D01*
X808Y1422D01*
X810Y1422D01*
X810Y1424D01*
X812Y1424D01*
X812Y1426D01*
X814Y1426D01*
X814Y1428D01*
X818Y1428D01*
X818Y1430D01*
X822Y1430D01*
X822Y1432D01*
X826Y1432D01*
X826Y1434D01*
X832Y1434D01*
X832Y1436D01*
X752Y1436D01*
G37*
D02*
G36*
X852Y1436D02*
X852Y1434D01*
X858Y1434D01*
X858Y1432D01*
X862Y1432D01*
X862Y1430D01*
X866Y1430D01*
X866Y1428D01*
X870Y1428D01*
X870Y1426D01*
X872Y1426D01*
X872Y1424D01*
X874Y1424D01*
X874Y1422D01*
X876Y1422D01*
X876Y1420D01*
X878Y1420D01*
X878Y1418D01*
X880Y1418D01*
X880Y1416D01*
X882Y1416D01*
X882Y1412D01*
X902Y1412D01*
X902Y1416D01*
X904Y1416D01*
X904Y1418D01*
X906Y1418D01*
X906Y1420D01*
X908Y1420D01*
X908Y1422D01*
X910Y1422D01*
X910Y1424D01*
X912Y1424D01*
X912Y1426D01*
X914Y1426D01*
X914Y1428D01*
X918Y1428D01*
X918Y1430D01*
X922Y1430D01*
X922Y1432D01*
X926Y1432D01*
X926Y1434D01*
X932Y1434D01*
X932Y1436D01*
X852Y1436D01*
G37*
D02*
G36*
X952Y1436D02*
X952Y1434D01*
X958Y1434D01*
X958Y1432D01*
X962Y1432D01*
X962Y1430D01*
X966Y1430D01*
X966Y1428D01*
X970Y1428D01*
X970Y1426D01*
X972Y1426D01*
X972Y1424D01*
X974Y1424D01*
X974Y1422D01*
X976Y1422D01*
X976Y1420D01*
X978Y1420D01*
X978Y1418D01*
X980Y1418D01*
X980Y1416D01*
X982Y1416D01*
X982Y1412D01*
X1002Y1412D01*
X1002Y1416D01*
X1004Y1416D01*
X1004Y1418D01*
X1006Y1418D01*
X1006Y1420D01*
X1008Y1420D01*
X1008Y1422D01*
X1010Y1422D01*
X1010Y1424D01*
X1012Y1424D01*
X1012Y1426D01*
X1014Y1426D01*
X1014Y1428D01*
X1018Y1428D01*
X1018Y1430D01*
X1022Y1430D01*
X1022Y1432D01*
X1026Y1432D01*
X1026Y1434D01*
X1032Y1434D01*
X1032Y1436D01*
X952Y1436D01*
G37*
D02*
G36*
X1052Y1436D02*
X1052Y1434D01*
X1058Y1434D01*
X1058Y1432D01*
X1062Y1432D01*
X1062Y1430D01*
X1066Y1430D01*
X1066Y1428D01*
X1070Y1428D01*
X1070Y1426D01*
X1072Y1426D01*
X1072Y1424D01*
X1074Y1424D01*
X1074Y1422D01*
X1076Y1422D01*
X1076Y1420D01*
X1078Y1420D01*
X1078Y1418D01*
X1080Y1418D01*
X1080Y1416D01*
X1082Y1416D01*
X1082Y1412D01*
X1102Y1412D01*
X1102Y1416D01*
X1104Y1416D01*
X1104Y1418D01*
X1106Y1418D01*
X1106Y1420D01*
X1108Y1420D01*
X1108Y1422D01*
X1110Y1422D01*
X1110Y1424D01*
X1112Y1424D01*
X1112Y1426D01*
X1114Y1426D01*
X1114Y1428D01*
X1118Y1428D01*
X1118Y1430D01*
X1122Y1430D01*
X1122Y1432D01*
X1126Y1432D01*
X1126Y1434D01*
X1132Y1434D01*
X1132Y1436D01*
X1052Y1436D01*
G37*
D02*
G36*
X1184Y1368D02*
X1184Y1366D01*
X1182Y1366D01*
X1182Y1362D01*
X1180Y1362D01*
X1180Y1360D01*
X1178Y1360D01*
X1178Y1356D01*
X1176Y1356D01*
X1176Y1354D01*
X1174Y1354D01*
X1174Y1352D01*
X1170Y1352D01*
X1170Y1350D01*
X1168Y1350D01*
X1168Y1348D01*
X1164Y1348D01*
X1164Y1346D01*
X1160Y1346D01*
X1160Y1344D01*
X1154Y1344D01*
X1154Y1342D01*
X1228Y1342D01*
X1228Y1344D01*
X1224Y1344D01*
X1224Y1346D01*
X1222Y1346D01*
X1222Y1348D01*
X1218Y1348D01*
X1218Y1350D01*
X1216Y1350D01*
X1216Y1352D01*
X1214Y1352D01*
X1214Y1354D01*
X1212Y1354D01*
X1212Y1356D01*
X1210Y1356D01*
X1210Y1358D01*
X1208Y1358D01*
X1208Y1360D01*
X1206Y1360D01*
X1206Y1364D01*
X1204Y1364D01*
X1204Y1368D01*
X1184Y1368D01*
G37*
D02*
G36*
X582Y1364D02*
X582Y1362D01*
X580Y1362D01*
X580Y1360D01*
X578Y1360D01*
X578Y1356D01*
X576Y1356D01*
X576Y1354D01*
X574Y1354D01*
X574Y1352D01*
X570Y1352D01*
X570Y1350D01*
X568Y1350D01*
X568Y1348D01*
X564Y1348D01*
X564Y1346D01*
X560Y1346D01*
X560Y1344D01*
X554Y1344D01*
X554Y1342D01*
X630Y1342D01*
X630Y1344D01*
X622Y1344D01*
X622Y1346D01*
X620Y1346D01*
X620Y1348D01*
X616Y1348D01*
X616Y1350D01*
X614Y1350D01*
X614Y1352D01*
X610Y1352D01*
X610Y1354D01*
X608Y1354D01*
X608Y1356D01*
X606Y1356D01*
X606Y1358D01*
X604Y1358D01*
X604Y1362D01*
X602Y1362D01*
X602Y1364D01*
X582Y1364D01*
G37*
D02*
G36*
X682Y1364D02*
X682Y1362D01*
X680Y1362D01*
X680Y1360D01*
X678Y1360D01*
X678Y1356D01*
X676Y1356D01*
X676Y1354D01*
X674Y1354D01*
X674Y1352D01*
X670Y1352D01*
X670Y1350D01*
X668Y1350D01*
X668Y1348D01*
X664Y1348D01*
X664Y1346D01*
X660Y1346D01*
X660Y1344D01*
X654Y1344D01*
X654Y1342D01*
X730Y1342D01*
X730Y1344D01*
X722Y1344D01*
X722Y1346D01*
X720Y1346D01*
X720Y1348D01*
X716Y1348D01*
X716Y1350D01*
X714Y1350D01*
X714Y1352D01*
X710Y1352D01*
X710Y1354D01*
X708Y1354D01*
X708Y1356D01*
X706Y1356D01*
X706Y1358D01*
X704Y1358D01*
X704Y1362D01*
X702Y1362D01*
X702Y1364D01*
X682Y1364D01*
G37*
D02*
G36*
X782Y1364D02*
X782Y1362D01*
X780Y1362D01*
X780Y1360D01*
X778Y1360D01*
X778Y1356D01*
X776Y1356D01*
X776Y1354D01*
X774Y1354D01*
X774Y1352D01*
X770Y1352D01*
X770Y1350D01*
X768Y1350D01*
X768Y1348D01*
X764Y1348D01*
X764Y1346D01*
X760Y1346D01*
X760Y1344D01*
X754Y1344D01*
X754Y1342D01*
X830Y1342D01*
X830Y1344D01*
X822Y1344D01*
X822Y1346D01*
X820Y1346D01*
X820Y1348D01*
X816Y1348D01*
X816Y1350D01*
X814Y1350D01*
X814Y1352D01*
X810Y1352D01*
X810Y1354D01*
X808Y1354D01*
X808Y1356D01*
X806Y1356D01*
X806Y1358D01*
X804Y1358D01*
X804Y1362D01*
X802Y1362D01*
X802Y1364D01*
X782Y1364D01*
G37*
D02*
G36*
X882Y1364D02*
X882Y1362D01*
X880Y1362D01*
X880Y1360D01*
X878Y1360D01*
X878Y1356D01*
X876Y1356D01*
X876Y1354D01*
X874Y1354D01*
X874Y1352D01*
X870Y1352D01*
X870Y1350D01*
X868Y1350D01*
X868Y1348D01*
X864Y1348D01*
X864Y1346D01*
X860Y1346D01*
X860Y1344D01*
X854Y1344D01*
X854Y1342D01*
X930Y1342D01*
X930Y1344D01*
X922Y1344D01*
X922Y1346D01*
X920Y1346D01*
X920Y1348D01*
X916Y1348D01*
X916Y1350D01*
X914Y1350D01*
X914Y1352D01*
X910Y1352D01*
X910Y1354D01*
X908Y1354D01*
X908Y1356D01*
X906Y1356D01*
X906Y1358D01*
X904Y1358D01*
X904Y1362D01*
X902Y1362D01*
X902Y1364D01*
X882Y1364D01*
G37*
D02*
G36*
X982Y1364D02*
X982Y1362D01*
X980Y1362D01*
X980Y1360D01*
X978Y1360D01*
X978Y1356D01*
X976Y1356D01*
X976Y1354D01*
X974Y1354D01*
X974Y1352D01*
X970Y1352D01*
X970Y1350D01*
X968Y1350D01*
X968Y1348D01*
X964Y1348D01*
X964Y1346D01*
X960Y1346D01*
X960Y1344D01*
X954Y1344D01*
X954Y1342D01*
X1030Y1342D01*
X1030Y1344D01*
X1022Y1344D01*
X1022Y1346D01*
X1020Y1346D01*
X1020Y1348D01*
X1016Y1348D01*
X1016Y1350D01*
X1014Y1350D01*
X1014Y1352D01*
X1010Y1352D01*
X1010Y1354D01*
X1008Y1354D01*
X1008Y1356D01*
X1006Y1356D01*
X1006Y1358D01*
X1004Y1358D01*
X1004Y1362D01*
X1002Y1362D01*
X1002Y1364D01*
X982Y1364D01*
G37*
D02*
G36*
X1082Y1364D02*
X1082Y1362D01*
X1080Y1362D01*
X1080Y1360D01*
X1078Y1360D01*
X1078Y1356D01*
X1076Y1356D01*
X1076Y1354D01*
X1074Y1354D01*
X1074Y1352D01*
X1070Y1352D01*
X1070Y1350D01*
X1068Y1350D01*
X1068Y1348D01*
X1064Y1348D01*
X1064Y1346D01*
X1060Y1346D01*
X1060Y1344D01*
X1054Y1344D01*
X1054Y1342D01*
X1130Y1342D01*
X1130Y1344D01*
X1122Y1344D01*
X1122Y1346D01*
X1120Y1346D01*
X1120Y1348D01*
X1116Y1348D01*
X1116Y1350D01*
X1114Y1350D01*
X1114Y1352D01*
X1110Y1352D01*
X1110Y1354D01*
X1108Y1354D01*
X1108Y1356D01*
X1106Y1356D01*
X1106Y1358D01*
X1104Y1358D01*
X1104Y1362D01*
X1102Y1362D01*
X1102Y1364D01*
X1082Y1364D01*
G37*
D02*
G36*
X40Y1342D02*
X40Y1340D01*
X1236Y1340D01*
X1236Y1342D01*
X40Y1342D01*
G37*
D02*
G36*
X40Y1342D02*
X40Y1340D01*
X1236Y1340D01*
X1236Y1342D01*
X40Y1342D01*
G37*
D02*
G36*
X40Y1342D02*
X40Y1340D01*
X1236Y1340D01*
X1236Y1342D01*
X40Y1342D01*
G37*
D02*
G36*
X40Y1342D02*
X40Y1340D01*
X1236Y1340D01*
X1236Y1342D01*
X40Y1342D01*
G37*
D02*
G36*
X40Y1342D02*
X40Y1340D01*
X1236Y1340D01*
X1236Y1342D01*
X40Y1342D01*
G37*
D02*
G36*
X40Y1342D02*
X40Y1340D01*
X1236Y1340D01*
X1236Y1342D01*
X40Y1342D01*
G37*
D02*
G36*
X40Y1342D02*
X40Y1340D01*
X1236Y1340D01*
X1236Y1342D01*
X40Y1342D01*
G37*
D02*
G36*
X40Y1342D02*
X40Y1340D01*
X1236Y1340D01*
X1236Y1342D01*
X40Y1342D01*
G37*
D02*
G36*
X40Y1340D02*
X40Y1338D01*
X1634Y1338D01*
X1634Y1340D01*
X40Y1340D01*
G37*
D02*
G36*
X40Y1340D02*
X40Y1338D01*
X1634Y1338D01*
X1634Y1340D01*
X40Y1340D01*
G37*
D02*
G36*
X40Y1338D02*
X40Y1238D01*
X1448Y1238D01*
X1448Y1236D01*
X1456Y1236D01*
X1456Y1234D01*
X1462Y1234D01*
X1462Y1232D01*
X1466Y1232D01*
X1466Y1230D01*
X1470Y1230D01*
X1470Y1228D01*
X1472Y1228D01*
X1472Y1226D01*
X1474Y1226D01*
X1474Y1224D01*
X1476Y1224D01*
X1476Y1222D01*
X1478Y1222D01*
X1478Y1220D01*
X1480Y1220D01*
X1480Y1218D01*
X1482Y1218D01*
X1482Y1214D01*
X1484Y1214D01*
X1484Y1212D01*
X1486Y1212D01*
X1486Y1208D01*
X1488Y1208D01*
X1488Y1200D01*
X1490Y1200D01*
X1490Y1176D01*
X1488Y1176D01*
X1488Y1170D01*
X1486Y1170D01*
X1486Y1166D01*
X1484Y1166D01*
X1484Y1162D01*
X1482Y1162D01*
X1482Y1160D01*
X1480Y1160D01*
X1480Y1156D01*
X1478Y1156D01*
X1478Y1154D01*
X1476Y1154D01*
X1476Y1152D01*
X1472Y1152D01*
X1472Y1150D01*
X1470Y1150D01*
X1470Y1128D01*
X1472Y1128D01*
X1472Y1126D01*
X1474Y1126D01*
X1474Y1124D01*
X1476Y1124D01*
X1476Y1122D01*
X1478Y1122D01*
X1478Y1120D01*
X1480Y1120D01*
X1480Y1118D01*
X1482Y1118D01*
X1482Y1114D01*
X1484Y1114D01*
X1484Y1112D01*
X1486Y1112D01*
X1486Y1108D01*
X1488Y1108D01*
X1488Y1100D01*
X1490Y1100D01*
X1490Y1076D01*
X1488Y1076D01*
X1488Y1070D01*
X1486Y1070D01*
X1486Y1066D01*
X1484Y1066D01*
X1484Y1062D01*
X1482Y1062D01*
X1482Y1060D01*
X1480Y1060D01*
X1480Y1056D01*
X1478Y1056D01*
X1478Y1054D01*
X1476Y1054D01*
X1476Y1052D01*
X1472Y1052D01*
X1472Y1050D01*
X1470Y1050D01*
X1470Y1048D01*
X1468Y1048D01*
X1468Y1046D01*
X1464Y1046D01*
X1464Y1044D01*
X1460Y1044D01*
X1460Y1042D01*
X1454Y1042D01*
X1454Y1040D01*
X1634Y1040D01*
X1634Y1338D01*
X40Y1338D01*
G37*
D02*
G36*
X40Y1238D02*
X40Y1236D01*
X1150Y1236D01*
X1150Y1234D01*
X1158Y1234D01*
X1158Y1232D01*
X1162Y1232D01*
X1162Y1230D01*
X1166Y1230D01*
X1166Y1228D01*
X1170Y1228D01*
X1170Y1226D01*
X1172Y1226D01*
X1172Y1224D01*
X1174Y1224D01*
X1174Y1222D01*
X1176Y1222D01*
X1176Y1220D01*
X1178Y1220D01*
X1178Y1218D01*
X1180Y1218D01*
X1180Y1216D01*
X1182Y1216D01*
X1182Y1212D01*
X1184Y1212D01*
X1184Y1208D01*
X1186Y1208D01*
X1186Y1202D01*
X1188Y1202D01*
X1188Y1194D01*
X1190Y1194D01*
X1190Y1184D01*
X1188Y1184D01*
X1188Y1174D01*
X1186Y1174D01*
X1186Y1168D01*
X1184Y1168D01*
X1184Y1166D01*
X1182Y1166D01*
X1182Y1162D01*
X1180Y1162D01*
X1180Y1160D01*
X1178Y1160D01*
X1178Y1156D01*
X1176Y1156D01*
X1176Y1154D01*
X1174Y1154D01*
X1174Y1152D01*
X1170Y1152D01*
X1170Y1150D01*
X1168Y1150D01*
X1168Y1148D01*
X1164Y1148D01*
X1164Y1146D01*
X1160Y1146D01*
X1160Y1144D01*
X1154Y1144D01*
X1154Y1142D01*
X1314Y1142D01*
X1314Y1150D01*
X1310Y1150D01*
X1310Y1152D01*
X1308Y1152D01*
X1308Y1154D01*
X1306Y1154D01*
X1306Y1156D01*
X1304Y1156D01*
X1304Y1160D01*
X1302Y1160D01*
X1302Y1162D01*
X1300Y1162D01*
X1300Y1166D01*
X1298Y1166D01*
X1298Y1168D01*
X1296Y1168D01*
X1296Y1176D01*
X1294Y1176D01*
X1294Y1186D01*
X1292Y1186D01*
X1292Y1190D01*
X1294Y1190D01*
X1294Y1202D01*
X1296Y1202D01*
X1296Y1208D01*
X1298Y1208D01*
X1298Y1212D01*
X1300Y1212D01*
X1300Y1216D01*
X1302Y1216D01*
X1302Y1218D01*
X1304Y1218D01*
X1304Y1220D01*
X1306Y1220D01*
X1306Y1222D01*
X1308Y1222D01*
X1308Y1224D01*
X1310Y1224D01*
X1310Y1226D01*
X1312Y1226D01*
X1312Y1228D01*
X1314Y1228D01*
X1314Y1230D01*
X1318Y1230D01*
X1318Y1232D01*
X1322Y1232D01*
X1322Y1234D01*
X1328Y1234D01*
X1328Y1236D01*
X1336Y1236D01*
X1336Y1238D01*
X40Y1238D01*
G37*
D02*
G36*
X1348Y1238D02*
X1348Y1236D01*
X1356Y1236D01*
X1356Y1234D01*
X1362Y1234D01*
X1362Y1232D01*
X1366Y1232D01*
X1366Y1230D01*
X1370Y1230D01*
X1370Y1228D01*
X1372Y1228D01*
X1372Y1226D01*
X1374Y1226D01*
X1374Y1224D01*
X1376Y1224D01*
X1376Y1222D01*
X1378Y1222D01*
X1378Y1220D01*
X1380Y1220D01*
X1380Y1218D01*
X1382Y1218D01*
X1382Y1216D01*
X1402Y1216D01*
X1402Y1218D01*
X1404Y1218D01*
X1404Y1220D01*
X1406Y1220D01*
X1406Y1222D01*
X1408Y1222D01*
X1408Y1224D01*
X1410Y1224D01*
X1410Y1226D01*
X1412Y1226D01*
X1412Y1228D01*
X1414Y1228D01*
X1414Y1230D01*
X1418Y1230D01*
X1418Y1232D01*
X1422Y1232D01*
X1422Y1234D01*
X1428Y1234D01*
X1428Y1236D01*
X1436Y1236D01*
X1436Y1238D01*
X1348Y1238D01*
G37*
D02*
G36*
X40Y1236D02*
X40Y1142D01*
X530Y1142D01*
X530Y1144D01*
X522Y1144D01*
X522Y1146D01*
X520Y1146D01*
X520Y1148D01*
X516Y1148D01*
X516Y1150D01*
X514Y1150D01*
X514Y1152D01*
X510Y1152D01*
X510Y1154D01*
X508Y1154D01*
X508Y1156D01*
X506Y1156D01*
X506Y1158D01*
X504Y1158D01*
X504Y1162D01*
X502Y1162D01*
X502Y1164D01*
X500Y1164D01*
X500Y1168D01*
X498Y1168D01*
X498Y1174D01*
X496Y1174D01*
X496Y1182D01*
X494Y1182D01*
X494Y1196D01*
X496Y1196D01*
X496Y1204D01*
X498Y1204D01*
X498Y1208D01*
X500Y1208D01*
X500Y1212D01*
X502Y1212D01*
X502Y1216D01*
X504Y1216D01*
X504Y1218D01*
X506Y1218D01*
X506Y1220D01*
X508Y1220D01*
X508Y1222D01*
X510Y1222D01*
X510Y1224D01*
X512Y1224D01*
X512Y1226D01*
X514Y1226D01*
X514Y1228D01*
X518Y1228D01*
X518Y1230D01*
X522Y1230D01*
X522Y1232D01*
X526Y1232D01*
X526Y1234D01*
X532Y1234D01*
X532Y1236D01*
X40Y1236D01*
G37*
D02*
G36*
X550Y1236D02*
X550Y1234D01*
X558Y1234D01*
X558Y1232D01*
X562Y1232D01*
X562Y1230D01*
X566Y1230D01*
X566Y1228D01*
X570Y1228D01*
X570Y1226D01*
X572Y1226D01*
X572Y1224D01*
X574Y1224D01*
X574Y1222D01*
X576Y1222D01*
X576Y1220D01*
X578Y1220D01*
X578Y1218D01*
X580Y1218D01*
X580Y1216D01*
X582Y1216D01*
X582Y1212D01*
X584Y1212D01*
X584Y1208D01*
X586Y1208D01*
X586Y1202D01*
X588Y1202D01*
X588Y1194D01*
X590Y1194D01*
X590Y1184D01*
X588Y1184D01*
X588Y1174D01*
X586Y1174D01*
X586Y1168D01*
X584Y1168D01*
X584Y1166D01*
X582Y1166D01*
X582Y1162D01*
X580Y1162D01*
X580Y1160D01*
X578Y1160D01*
X578Y1156D01*
X576Y1156D01*
X576Y1154D01*
X574Y1154D01*
X574Y1152D01*
X570Y1152D01*
X570Y1150D01*
X568Y1150D01*
X568Y1148D01*
X564Y1148D01*
X564Y1146D01*
X560Y1146D01*
X560Y1144D01*
X554Y1144D01*
X554Y1142D01*
X830Y1142D01*
X830Y1144D01*
X822Y1144D01*
X822Y1146D01*
X820Y1146D01*
X820Y1148D01*
X816Y1148D01*
X816Y1150D01*
X814Y1150D01*
X814Y1152D01*
X810Y1152D01*
X810Y1154D01*
X808Y1154D01*
X808Y1156D01*
X806Y1156D01*
X806Y1158D01*
X804Y1158D01*
X804Y1162D01*
X802Y1162D01*
X802Y1164D01*
X800Y1164D01*
X800Y1168D01*
X798Y1168D01*
X798Y1174D01*
X796Y1174D01*
X796Y1182D01*
X794Y1182D01*
X794Y1196D01*
X796Y1196D01*
X796Y1204D01*
X798Y1204D01*
X798Y1208D01*
X800Y1208D01*
X800Y1212D01*
X802Y1212D01*
X802Y1216D01*
X804Y1216D01*
X804Y1218D01*
X806Y1218D01*
X806Y1220D01*
X808Y1220D01*
X808Y1222D01*
X810Y1222D01*
X810Y1224D01*
X812Y1224D01*
X812Y1226D01*
X814Y1226D01*
X814Y1228D01*
X818Y1228D01*
X818Y1230D01*
X822Y1230D01*
X822Y1232D01*
X826Y1232D01*
X826Y1234D01*
X832Y1234D01*
X832Y1236D01*
X550Y1236D01*
G37*
D02*
G36*
X850Y1236D02*
X850Y1234D01*
X858Y1234D01*
X858Y1232D01*
X862Y1232D01*
X862Y1230D01*
X866Y1230D01*
X866Y1228D01*
X870Y1228D01*
X870Y1226D01*
X872Y1226D01*
X872Y1224D01*
X874Y1224D01*
X874Y1222D01*
X876Y1222D01*
X876Y1220D01*
X878Y1220D01*
X878Y1218D01*
X880Y1218D01*
X880Y1216D01*
X882Y1216D01*
X882Y1212D01*
X884Y1212D01*
X884Y1208D01*
X886Y1208D01*
X886Y1202D01*
X888Y1202D01*
X888Y1194D01*
X890Y1194D01*
X890Y1184D01*
X888Y1184D01*
X888Y1174D01*
X886Y1174D01*
X886Y1168D01*
X884Y1168D01*
X884Y1166D01*
X882Y1166D01*
X882Y1162D01*
X880Y1162D01*
X880Y1160D01*
X878Y1160D01*
X878Y1156D01*
X876Y1156D01*
X876Y1154D01*
X874Y1154D01*
X874Y1152D01*
X870Y1152D01*
X870Y1150D01*
X868Y1150D01*
X868Y1148D01*
X864Y1148D01*
X864Y1146D01*
X860Y1146D01*
X860Y1144D01*
X854Y1144D01*
X854Y1142D01*
X1130Y1142D01*
X1130Y1144D01*
X1122Y1144D01*
X1122Y1146D01*
X1120Y1146D01*
X1120Y1148D01*
X1116Y1148D01*
X1116Y1150D01*
X1114Y1150D01*
X1114Y1152D01*
X1110Y1152D01*
X1110Y1154D01*
X1108Y1154D01*
X1108Y1156D01*
X1106Y1156D01*
X1106Y1158D01*
X1104Y1158D01*
X1104Y1162D01*
X1102Y1162D01*
X1102Y1164D01*
X1100Y1164D01*
X1100Y1168D01*
X1098Y1168D01*
X1098Y1174D01*
X1096Y1174D01*
X1096Y1182D01*
X1094Y1182D01*
X1094Y1196D01*
X1096Y1196D01*
X1096Y1204D01*
X1098Y1204D01*
X1098Y1208D01*
X1100Y1208D01*
X1100Y1212D01*
X1102Y1212D01*
X1102Y1216D01*
X1104Y1216D01*
X1104Y1218D01*
X1106Y1218D01*
X1106Y1220D01*
X1108Y1220D01*
X1108Y1222D01*
X1110Y1222D01*
X1110Y1224D01*
X1112Y1224D01*
X1112Y1226D01*
X1114Y1226D01*
X1114Y1228D01*
X1118Y1228D01*
X1118Y1230D01*
X1122Y1230D01*
X1122Y1232D01*
X1126Y1232D01*
X1126Y1234D01*
X1132Y1234D01*
X1132Y1236D01*
X850Y1236D01*
G37*
D02*
G36*
X40Y1142D02*
X40Y1140D01*
X1314Y1140D01*
X1314Y1142D01*
X40Y1142D01*
G37*
D02*
G36*
X40Y1142D02*
X40Y1140D01*
X1314Y1140D01*
X1314Y1142D01*
X40Y1142D01*
G37*
D02*
G36*
X40Y1142D02*
X40Y1140D01*
X1314Y1140D01*
X1314Y1142D01*
X40Y1142D01*
G37*
D02*
G36*
X40Y1142D02*
X40Y1140D01*
X1314Y1140D01*
X1314Y1142D01*
X40Y1142D01*
G37*
D02*
G36*
X40Y1140D02*
X40Y1136D01*
X1250Y1136D01*
X1250Y1134D01*
X1258Y1134D01*
X1258Y1132D01*
X1262Y1132D01*
X1262Y1130D01*
X1266Y1130D01*
X1266Y1128D01*
X1270Y1128D01*
X1270Y1126D01*
X1272Y1126D01*
X1272Y1124D01*
X1274Y1124D01*
X1274Y1122D01*
X1276Y1122D01*
X1276Y1120D01*
X1278Y1120D01*
X1278Y1118D01*
X1280Y1118D01*
X1280Y1116D01*
X1302Y1116D01*
X1302Y1118D01*
X1304Y1118D01*
X1304Y1120D01*
X1306Y1120D01*
X1306Y1122D01*
X1308Y1122D01*
X1308Y1124D01*
X1310Y1124D01*
X1310Y1126D01*
X1312Y1126D01*
X1312Y1128D01*
X1314Y1128D01*
X1314Y1140D01*
X40Y1140D01*
G37*
D02*
G36*
X40Y1136D02*
X40Y1042D01*
X630Y1042D01*
X630Y1044D01*
X622Y1044D01*
X622Y1046D01*
X620Y1046D01*
X620Y1048D01*
X616Y1048D01*
X616Y1050D01*
X614Y1050D01*
X614Y1052D01*
X610Y1052D01*
X610Y1054D01*
X608Y1054D01*
X608Y1056D01*
X606Y1056D01*
X606Y1058D01*
X604Y1058D01*
X604Y1062D01*
X602Y1062D01*
X602Y1064D01*
X600Y1064D01*
X600Y1068D01*
X598Y1068D01*
X598Y1074D01*
X596Y1074D01*
X596Y1082D01*
X594Y1082D01*
X594Y1096D01*
X596Y1096D01*
X596Y1104D01*
X598Y1104D01*
X598Y1108D01*
X600Y1108D01*
X600Y1112D01*
X602Y1112D01*
X602Y1116D01*
X604Y1116D01*
X604Y1118D01*
X606Y1118D01*
X606Y1120D01*
X608Y1120D01*
X608Y1122D01*
X610Y1122D01*
X610Y1124D01*
X612Y1124D01*
X612Y1126D01*
X614Y1126D01*
X614Y1128D01*
X618Y1128D01*
X618Y1130D01*
X622Y1130D01*
X622Y1132D01*
X626Y1132D01*
X626Y1134D01*
X632Y1134D01*
X632Y1136D01*
X40Y1136D01*
G37*
D02*
G36*
X650Y1136D02*
X650Y1134D01*
X658Y1134D01*
X658Y1132D01*
X662Y1132D01*
X662Y1130D01*
X666Y1130D01*
X666Y1128D01*
X670Y1128D01*
X670Y1126D01*
X672Y1126D01*
X672Y1124D01*
X674Y1124D01*
X674Y1122D01*
X676Y1122D01*
X676Y1120D01*
X678Y1120D01*
X678Y1118D01*
X680Y1118D01*
X680Y1116D01*
X682Y1116D01*
X682Y1112D01*
X684Y1112D01*
X684Y1108D01*
X686Y1108D01*
X686Y1102D01*
X688Y1102D01*
X688Y1094D01*
X690Y1094D01*
X690Y1084D01*
X688Y1084D01*
X688Y1074D01*
X686Y1074D01*
X686Y1068D01*
X684Y1068D01*
X684Y1066D01*
X682Y1066D01*
X682Y1062D01*
X680Y1062D01*
X680Y1060D01*
X678Y1060D01*
X678Y1056D01*
X676Y1056D01*
X676Y1054D01*
X674Y1054D01*
X674Y1052D01*
X670Y1052D01*
X670Y1050D01*
X668Y1050D01*
X668Y1048D01*
X664Y1048D01*
X664Y1046D01*
X660Y1046D01*
X660Y1044D01*
X654Y1044D01*
X654Y1042D01*
X930Y1042D01*
X930Y1044D01*
X922Y1044D01*
X922Y1046D01*
X920Y1046D01*
X920Y1048D01*
X916Y1048D01*
X916Y1050D01*
X914Y1050D01*
X914Y1052D01*
X910Y1052D01*
X910Y1054D01*
X908Y1054D01*
X908Y1056D01*
X906Y1056D01*
X906Y1058D01*
X904Y1058D01*
X904Y1062D01*
X902Y1062D01*
X902Y1064D01*
X900Y1064D01*
X900Y1068D01*
X898Y1068D01*
X898Y1074D01*
X896Y1074D01*
X896Y1082D01*
X894Y1082D01*
X894Y1096D01*
X896Y1096D01*
X896Y1104D01*
X898Y1104D01*
X898Y1108D01*
X900Y1108D01*
X900Y1112D01*
X902Y1112D01*
X902Y1116D01*
X904Y1116D01*
X904Y1118D01*
X906Y1118D01*
X906Y1120D01*
X908Y1120D01*
X908Y1122D01*
X910Y1122D01*
X910Y1124D01*
X912Y1124D01*
X912Y1126D01*
X914Y1126D01*
X914Y1128D01*
X918Y1128D01*
X918Y1130D01*
X922Y1130D01*
X922Y1132D01*
X926Y1132D01*
X926Y1134D01*
X932Y1134D01*
X932Y1136D01*
X650Y1136D01*
G37*
D02*
G36*
X950Y1136D02*
X950Y1134D01*
X958Y1134D01*
X958Y1132D01*
X962Y1132D01*
X962Y1130D01*
X966Y1130D01*
X966Y1128D01*
X970Y1128D01*
X970Y1126D01*
X972Y1126D01*
X972Y1124D01*
X974Y1124D01*
X974Y1122D01*
X976Y1122D01*
X976Y1120D01*
X978Y1120D01*
X978Y1118D01*
X980Y1118D01*
X980Y1116D01*
X982Y1116D01*
X982Y1112D01*
X984Y1112D01*
X984Y1108D01*
X986Y1108D01*
X986Y1102D01*
X988Y1102D01*
X988Y1094D01*
X990Y1094D01*
X990Y1084D01*
X988Y1084D01*
X988Y1074D01*
X986Y1074D01*
X986Y1068D01*
X984Y1068D01*
X984Y1066D01*
X982Y1066D01*
X982Y1062D01*
X980Y1062D01*
X980Y1060D01*
X978Y1060D01*
X978Y1056D01*
X976Y1056D01*
X976Y1054D01*
X974Y1054D01*
X974Y1052D01*
X970Y1052D01*
X970Y1050D01*
X968Y1050D01*
X968Y1048D01*
X964Y1048D01*
X964Y1046D01*
X960Y1046D01*
X960Y1044D01*
X954Y1044D01*
X954Y1042D01*
X1230Y1042D01*
X1230Y1044D01*
X1222Y1044D01*
X1222Y1046D01*
X1220Y1046D01*
X1220Y1048D01*
X1216Y1048D01*
X1216Y1050D01*
X1214Y1050D01*
X1214Y1052D01*
X1210Y1052D01*
X1210Y1054D01*
X1208Y1054D01*
X1208Y1056D01*
X1206Y1056D01*
X1206Y1058D01*
X1204Y1058D01*
X1204Y1062D01*
X1202Y1062D01*
X1202Y1064D01*
X1200Y1064D01*
X1200Y1068D01*
X1198Y1068D01*
X1198Y1074D01*
X1196Y1074D01*
X1196Y1082D01*
X1194Y1082D01*
X1194Y1096D01*
X1196Y1096D01*
X1196Y1104D01*
X1198Y1104D01*
X1198Y1108D01*
X1200Y1108D01*
X1200Y1112D01*
X1202Y1112D01*
X1202Y1116D01*
X1204Y1116D01*
X1204Y1118D01*
X1206Y1118D01*
X1206Y1120D01*
X1208Y1120D01*
X1208Y1122D01*
X1210Y1122D01*
X1210Y1124D01*
X1212Y1124D01*
X1212Y1126D01*
X1214Y1126D01*
X1214Y1128D01*
X1218Y1128D01*
X1218Y1130D01*
X1222Y1130D01*
X1222Y1132D01*
X1226Y1132D01*
X1226Y1134D01*
X1232Y1134D01*
X1232Y1136D01*
X950Y1136D01*
G37*
D02*
G36*
X1280Y1062D02*
X1280Y1060D01*
X1278Y1060D01*
X1278Y1056D01*
X1276Y1056D01*
X1276Y1054D01*
X1274Y1054D01*
X1274Y1052D01*
X1270Y1052D01*
X1270Y1050D01*
X1268Y1050D01*
X1268Y1048D01*
X1264Y1048D01*
X1264Y1046D01*
X1260Y1046D01*
X1260Y1044D01*
X1254Y1044D01*
X1254Y1042D01*
X1324Y1042D01*
X1324Y1044D01*
X1320Y1044D01*
X1320Y1046D01*
X1316Y1046D01*
X1316Y1048D01*
X1314Y1048D01*
X1314Y1050D01*
X1310Y1050D01*
X1310Y1052D01*
X1308Y1052D01*
X1308Y1054D01*
X1306Y1054D01*
X1306Y1056D01*
X1304Y1056D01*
X1304Y1060D01*
X1302Y1060D01*
X1302Y1062D01*
X1280Y1062D01*
G37*
D02*
G36*
X1382Y1062D02*
X1382Y1060D01*
X1380Y1060D01*
X1380Y1056D01*
X1378Y1056D01*
X1378Y1054D01*
X1376Y1054D01*
X1376Y1052D01*
X1372Y1052D01*
X1372Y1050D01*
X1370Y1050D01*
X1370Y1048D01*
X1368Y1048D01*
X1368Y1046D01*
X1364Y1046D01*
X1364Y1044D01*
X1360Y1044D01*
X1360Y1042D01*
X1354Y1042D01*
X1354Y1040D01*
X1430Y1040D01*
X1430Y1042D01*
X1424Y1042D01*
X1424Y1044D01*
X1420Y1044D01*
X1420Y1046D01*
X1416Y1046D01*
X1416Y1048D01*
X1414Y1048D01*
X1414Y1050D01*
X1410Y1050D01*
X1410Y1052D01*
X1408Y1052D01*
X1408Y1054D01*
X1406Y1054D01*
X1406Y1056D01*
X1404Y1056D01*
X1404Y1060D01*
X1402Y1060D01*
X1402Y1062D01*
X1382Y1062D01*
G37*
D02*
G36*
X40Y1042D02*
X40Y1040D01*
X1330Y1040D01*
X1330Y1042D01*
X40Y1042D01*
G37*
D02*
G36*
X40Y1042D02*
X40Y1040D01*
X1330Y1040D01*
X1330Y1042D01*
X40Y1042D01*
G37*
D02*
G36*
X40Y1042D02*
X40Y1040D01*
X1330Y1040D01*
X1330Y1042D01*
X40Y1042D01*
G37*
D02*
G36*
X40Y1042D02*
X40Y1040D01*
X1330Y1040D01*
X1330Y1042D01*
X40Y1042D01*
G37*
D02*
G36*
X40Y1040D02*
X40Y1038D01*
X1634Y1038D01*
X1634Y1040D01*
X40Y1040D01*
G37*
D02*
G36*
X40Y1040D02*
X40Y1038D01*
X1634Y1038D01*
X1634Y1040D01*
X40Y1040D01*
G37*
D02*
G36*
X40Y1040D02*
X40Y1038D01*
X1634Y1038D01*
X1634Y1040D01*
X40Y1040D01*
G37*
D02*
G36*
X40Y1038D02*
X40Y836D01*
X1150Y836D01*
X1150Y834D01*
X1158Y834D01*
X1158Y832D01*
X1162Y832D01*
X1162Y830D01*
X1166Y830D01*
X1166Y828D01*
X1170Y828D01*
X1170Y826D01*
X1172Y826D01*
X1172Y824D01*
X1174Y824D01*
X1174Y822D01*
X1176Y822D01*
X1176Y820D01*
X1178Y820D01*
X1178Y818D01*
X1180Y818D01*
X1180Y816D01*
X1182Y816D01*
X1182Y812D01*
X1184Y812D01*
X1184Y808D01*
X1186Y808D01*
X1186Y802D01*
X1188Y802D01*
X1188Y794D01*
X1190Y794D01*
X1190Y784D01*
X1188Y784D01*
X1188Y774D01*
X1186Y774D01*
X1186Y768D01*
X1184Y768D01*
X1184Y766D01*
X1182Y766D01*
X1182Y762D01*
X1180Y762D01*
X1180Y760D01*
X1178Y760D01*
X1178Y756D01*
X1176Y756D01*
X1176Y754D01*
X1174Y754D01*
X1174Y752D01*
X1170Y752D01*
X1170Y750D01*
X1168Y750D01*
X1168Y748D01*
X1164Y748D01*
X1164Y746D01*
X1160Y746D01*
X1160Y744D01*
X1154Y744D01*
X1154Y742D01*
X1634Y742D01*
X1634Y1038D01*
X40Y1038D01*
G37*
D02*
G36*
X40Y836D02*
X40Y742D01*
X530Y742D01*
X530Y744D01*
X522Y744D01*
X522Y746D01*
X520Y746D01*
X520Y748D01*
X516Y748D01*
X516Y750D01*
X514Y750D01*
X514Y752D01*
X510Y752D01*
X510Y754D01*
X508Y754D01*
X508Y756D01*
X506Y756D01*
X506Y758D01*
X504Y758D01*
X504Y762D01*
X502Y762D01*
X502Y764D01*
X500Y764D01*
X500Y768D01*
X498Y768D01*
X498Y774D01*
X496Y774D01*
X496Y782D01*
X494Y782D01*
X494Y796D01*
X496Y796D01*
X496Y804D01*
X498Y804D01*
X498Y808D01*
X500Y808D01*
X500Y812D01*
X502Y812D01*
X502Y816D01*
X504Y816D01*
X504Y818D01*
X506Y818D01*
X506Y820D01*
X508Y820D01*
X508Y822D01*
X510Y822D01*
X510Y824D01*
X512Y824D01*
X512Y826D01*
X514Y826D01*
X514Y828D01*
X518Y828D01*
X518Y830D01*
X522Y830D01*
X522Y832D01*
X526Y832D01*
X526Y834D01*
X532Y834D01*
X532Y836D01*
X40Y836D01*
G37*
D02*
G36*
X550Y836D02*
X550Y834D01*
X558Y834D01*
X558Y832D01*
X562Y832D01*
X562Y830D01*
X566Y830D01*
X566Y828D01*
X570Y828D01*
X570Y826D01*
X572Y826D01*
X572Y824D01*
X574Y824D01*
X574Y822D01*
X576Y822D01*
X576Y820D01*
X578Y820D01*
X578Y818D01*
X580Y818D01*
X580Y816D01*
X582Y816D01*
X582Y812D01*
X584Y812D01*
X584Y808D01*
X586Y808D01*
X586Y802D01*
X588Y802D01*
X588Y794D01*
X590Y794D01*
X590Y784D01*
X588Y784D01*
X588Y774D01*
X586Y774D01*
X586Y768D01*
X584Y768D01*
X584Y766D01*
X582Y766D01*
X582Y762D01*
X580Y762D01*
X580Y760D01*
X578Y760D01*
X578Y756D01*
X576Y756D01*
X576Y754D01*
X574Y754D01*
X574Y752D01*
X570Y752D01*
X570Y750D01*
X568Y750D01*
X568Y748D01*
X564Y748D01*
X564Y746D01*
X560Y746D01*
X560Y744D01*
X554Y744D01*
X554Y742D01*
X830Y742D01*
X830Y744D01*
X822Y744D01*
X822Y746D01*
X820Y746D01*
X820Y748D01*
X816Y748D01*
X816Y750D01*
X814Y750D01*
X814Y752D01*
X810Y752D01*
X810Y754D01*
X808Y754D01*
X808Y756D01*
X806Y756D01*
X806Y758D01*
X804Y758D01*
X804Y762D01*
X802Y762D01*
X802Y764D01*
X800Y764D01*
X800Y768D01*
X798Y768D01*
X798Y774D01*
X796Y774D01*
X796Y782D01*
X794Y782D01*
X794Y796D01*
X796Y796D01*
X796Y804D01*
X798Y804D01*
X798Y808D01*
X800Y808D01*
X800Y812D01*
X802Y812D01*
X802Y816D01*
X804Y816D01*
X804Y818D01*
X806Y818D01*
X806Y820D01*
X808Y820D01*
X808Y822D01*
X810Y822D01*
X810Y824D01*
X812Y824D01*
X812Y826D01*
X814Y826D01*
X814Y828D01*
X818Y828D01*
X818Y830D01*
X822Y830D01*
X822Y832D01*
X826Y832D01*
X826Y834D01*
X832Y834D01*
X832Y836D01*
X550Y836D01*
G37*
D02*
G36*
X850Y836D02*
X850Y834D01*
X858Y834D01*
X858Y832D01*
X862Y832D01*
X862Y830D01*
X866Y830D01*
X866Y828D01*
X870Y828D01*
X870Y826D01*
X872Y826D01*
X872Y824D01*
X874Y824D01*
X874Y822D01*
X876Y822D01*
X876Y820D01*
X878Y820D01*
X878Y818D01*
X880Y818D01*
X880Y816D01*
X882Y816D01*
X882Y812D01*
X884Y812D01*
X884Y808D01*
X886Y808D01*
X886Y802D01*
X888Y802D01*
X888Y794D01*
X890Y794D01*
X890Y784D01*
X888Y784D01*
X888Y774D01*
X886Y774D01*
X886Y768D01*
X884Y768D01*
X884Y766D01*
X882Y766D01*
X882Y762D01*
X880Y762D01*
X880Y760D01*
X878Y760D01*
X878Y756D01*
X876Y756D01*
X876Y754D01*
X874Y754D01*
X874Y752D01*
X870Y752D01*
X870Y750D01*
X868Y750D01*
X868Y748D01*
X864Y748D01*
X864Y746D01*
X860Y746D01*
X860Y744D01*
X854Y744D01*
X854Y742D01*
X1130Y742D01*
X1130Y744D01*
X1122Y744D01*
X1122Y746D01*
X1120Y746D01*
X1120Y748D01*
X1116Y748D01*
X1116Y750D01*
X1114Y750D01*
X1114Y752D01*
X1110Y752D01*
X1110Y754D01*
X1108Y754D01*
X1108Y756D01*
X1106Y756D01*
X1106Y758D01*
X1104Y758D01*
X1104Y762D01*
X1102Y762D01*
X1102Y764D01*
X1100Y764D01*
X1100Y768D01*
X1098Y768D01*
X1098Y774D01*
X1096Y774D01*
X1096Y782D01*
X1094Y782D01*
X1094Y796D01*
X1096Y796D01*
X1096Y804D01*
X1098Y804D01*
X1098Y808D01*
X1100Y808D01*
X1100Y812D01*
X1102Y812D01*
X1102Y816D01*
X1104Y816D01*
X1104Y818D01*
X1106Y818D01*
X1106Y820D01*
X1108Y820D01*
X1108Y822D01*
X1110Y822D01*
X1110Y824D01*
X1112Y824D01*
X1112Y826D01*
X1114Y826D01*
X1114Y828D01*
X1118Y828D01*
X1118Y830D01*
X1122Y830D01*
X1122Y832D01*
X1126Y832D01*
X1126Y834D01*
X1132Y834D01*
X1132Y836D01*
X850Y836D01*
G37*
D02*
G36*
X40Y742D02*
X40Y740D01*
X1634Y740D01*
X1634Y742D01*
X40Y742D01*
G37*
D02*
G36*
X40Y742D02*
X40Y740D01*
X1634Y740D01*
X1634Y742D01*
X40Y742D01*
G37*
D02*
G36*
X40Y742D02*
X40Y740D01*
X1634Y740D01*
X1634Y742D01*
X40Y742D01*
G37*
D02*
G36*
X40Y742D02*
X40Y740D01*
X1634Y740D01*
X1634Y742D01*
X40Y742D01*
G37*
D02*
G36*
X40Y740D02*
X40Y736D01*
X1250Y736D01*
X1250Y734D01*
X1258Y734D01*
X1258Y732D01*
X1262Y732D01*
X1262Y730D01*
X1266Y730D01*
X1266Y728D01*
X1270Y728D01*
X1270Y726D01*
X1272Y726D01*
X1272Y724D01*
X1274Y724D01*
X1274Y722D01*
X1276Y722D01*
X1276Y720D01*
X1278Y720D01*
X1278Y718D01*
X1280Y718D01*
X1280Y716D01*
X1282Y716D01*
X1282Y712D01*
X1284Y712D01*
X1284Y708D01*
X1286Y708D01*
X1286Y702D01*
X1288Y702D01*
X1288Y694D01*
X1290Y694D01*
X1290Y684D01*
X1288Y684D01*
X1288Y674D01*
X1286Y674D01*
X1286Y668D01*
X1284Y668D01*
X1284Y666D01*
X1282Y666D01*
X1282Y662D01*
X1280Y662D01*
X1280Y660D01*
X1278Y660D01*
X1278Y656D01*
X1276Y656D01*
X1276Y654D01*
X1274Y654D01*
X1274Y652D01*
X1270Y652D01*
X1270Y650D01*
X1268Y650D01*
X1268Y648D01*
X1266Y648D01*
X1266Y628D01*
X1270Y628D01*
X1270Y626D01*
X1272Y626D01*
X1272Y624D01*
X1274Y624D01*
X1274Y622D01*
X1276Y622D01*
X1276Y620D01*
X1278Y620D01*
X1278Y618D01*
X1280Y618D01*
X1280Y616D01*
X1282Y616D01*
X1282Y612D01*
X1284Y612D01*
X1284Y608D01*
X1286Y608D01*
X1286Y602D01*
X1288Y602D01*
X1288Y594D01*
X1290Y594D01*
X1290Y584D01*
X1288Y584D01*
X1288Y574D01*
X1286Y574D01*
X1286Y568D01*
X1284Y568D01*
X1284Y566D01*
X1282Y566D01*
X1282Y562D01*
X1280Y562D01*
X1280Y560D01*
X1278Y560D01*
X1278Y556D01*
X1276Y556D01*
X1276Y554D01*
X1274Y554D01*
X1274Y552D01*
X1270Y552D01*
X1270Y550D01*
X1268Y550D01*
X1268Y548D01*
X1264Y548D01*
X1264Y546D01*
X1260Y546D01*
X1260Y544D01*
X1254Y544D01*
X1254Y542D01*
X1634Y542D01*
X1634Y740D01*
X40Y740D01*
G37*
D02*
G36*
X40Y736D02*
X40Y636D01*
X550Y636D01*
X550Y634D01*
X558Y634D01*
X558Y632D01*
X562Y632D01*
X562Y630D01*
X566Y630D01*
X566Y628D01*
X570Y628D01*
X570Y626D01*
X572Y626D01*
X572Y624D01*
X574Y624D01*
X574Y622D01*
X576Y622D01*
X576Y620D01*
X578Y620D01*
X578Y618D01*
X580Y618D01*
X580Y616D01*
X582Y616D01*
X582Y612D01*
X602Y612D01*
X602Y616D01*
X604Y616D01*
X604Y618D01*
X606Y618D01*
X606Y620D01*
X608Y620D01*
X608Y622D01*
X610Y622D01*
X610Y624D01*
X612Y624D01*
X612Y626D01*
X614Y626D01*
X614Y628D01*
X618Y628D01*
X618Y648D01*
X616Y648D01*
X616Y650D01*
X614Y650D01*
X614Y652D01*
X610Y652D01*
X610Y654D01*
X608Y654D01*
X608Y656D01*
X606Y656D01*
X606Y658D01*
X604Y658D01*
X604Y662D01*
X602Y662D01*
X602Y664D01*
X600Y664D01*
X600Y668D01*
X598Y668D01*
X598Y674D01*
X596Y674D01*
X596Y682D01*
X594Y682D01*
X594Y696D01*
X596Y696D01*
X596Y704D01*
X598Y704D01*
X598Y708D01*
X600Y708D01*
X600Y712D01*
X602Y712D01*
X602Y716D01*
X604Y716D01*
X604Y718D01*
X606Y718D01*
X606Y720D01*
X608Y720D01*
X608Y722D01*
X610Y722D01*
X610Y724D01*
X612Y724D01*
X612Y726D01*
X614Y726D01*
X614Y728D01*
X618Y728D01*
X618Y730D01*
X622Y730D01*
X622Y732D01*
X626Y732D01*
X626Y734D01*
X632Y734D01*
X632Y736D01*
X40Y736D01*
G37*
D02*
G36*
X650Y736D02*
X650Y734D01*
X658Y734D01*
X658Y732D01*
X662Y732D01*
X662Y730D01*
X666Y730D01*
X666Y728D01*
X670Y728D01*
X670Y726D01*
X672Y726D01*
X672Y724D01*
X674Y724D01*
X674Y722D01*
X676Y722D01*
X676Y720D01*
X678Y720D01*
X678Y718D01*
X680Y718D01*
X680Y716D01*
X682Y716D01*
X682Y712D01*
X684Y712D01*
X684Y708D01*
X686Y708D01*
X686Y702D01*
X688Y702D01*
X688Y694D01*
X690Y694D01*
X690Y684D01*
X688Y684D01*
X688Y674D01*
X686Y674D01*
X686Y668D01*
X684Y668D01*
X684Y666D01*
X682Y666D01*
X682Y662D01*
X680Y662D01*
X680Y660D01*
X678Y660D01*
X678Y656D01*
X676Y656D01*
X676Y654D01*
X674Y654D01*
X674Y652D01*
X670Y652D01*
X670Y650D01*
X668Y650D01*
X668Y648D01*
X666Y648D01*
X666Y636D01*
X850Y636D01*
X850Y634D01*
X858Y634D01*
X858Y632D01*
X862Y632D01*
X862Y630D01*
X866Y630D01*
X866Y628D01*
X870Y628D01*
X870Y626D01*
X872Y626D01*
X872Y624D01*
X874Y624D01*
X874Y622D01*
X876Y622D01*
X876Y620D01*
X878Y620D01*
X878Y618D01*
X880Y618D01*
X880Y616D01*
X882Y616D01*
X882Y612D01*
X902Y612D01*
X902Y616D01*
X904Y616D01*
X904Y618D01*
X906Y618D01*
X906Y620D01*
X908Y620D01*
X908Y622D01*
X910Y622D01*
X910Y624D01*
X912Y624D01*
X912Y626D01*
X914Y626D01*
X914Y628D01*
X918Y628D01*
X918Y648D01*
X916Y648D01*
X916Y650D01*
X914Y650D01*
X914Y652D01*
X910Y652D01*
X910Y654D01*
X908Y654D01*
X908Y656D01*
X906Y656D01*
X906Y658D01*
X904Y658D01*
X904Y662D01*
X902Y662D01*
X902Y664D01*
X900Y664D01*
X900Y668D01*
X898Y668D01*
X898Y674D01*
X896Y674D01*
X896Y682D01*
X894Y682D01*
X894Y696D01*
X896Y696D01*
X896Y704D01*
X898Y704D01*
X898Y708D01*
X900Y708D01*
X900Y712D01*
X902Y712D01*
X902Y716D01*
X904Y716D01*
X904Y718D01*
X906Y718D01*
X906Y720D01*
X908Y720D01*
X908Y722D01*
X910Y722D01*
X910Y724D01*
X912Y724D01*
X912Y726D01*
X914Y726D01*
X914Y728D01*
X918Y728D01*
X918Y730D01*
X922Y730D01*
X922Y732D01*
X926Y732D01*
X926Y734D01*
X932Y734D01*
X932Y736D01*
X650Y736D01*
G37*
D02*
G36*
X950Y736D02*
X950Y734D01*
X958Y734D01*
X958Y732D01*
X962Y732D01*
X962Y730D01*
X966Y730D01*
X966Y728D01*
X970Y728D01*
X970Y726D01*
X972Y726D01*
X972Y724D01*
X974Y724D01*
X974Y722D01*
X976Y722D01*
X976Y720D01*
X978Y720D01*
X978Y718D01*
X980Y718D01*
X980Y716D01*
X982Y716D01*
X982Y712D01*
X984Y712D01*
X984Y708D01*
X986Y708D01*
X986Y702D01*
X988Y702D01*
X988Y694D01*
X990Y694D01*
X990Y684D01*
X988Y684D01*
X988Y674D01*
X986Y674D01*
X986Y668D01*
X984Y668D01*
X984Y666D01*
X982Y666D01*
X982Y662D01*
X980Y662D01*
X980Y660D01*
X978Y660D01*
X978Y656D01*
X976Y656D01*
X976Y654D01*
X974Y654D01*
X974Y652D01*
X970Y652D01*
X970Y650D01*
X968Y650D01*
X968Y648D01*
X966Y648D01*
X966Y636D01*
X1150Y636D01*
X1150Y634D01*
X1158Y634D01*
X1158Y632D01*
X1162Y632D01*
X1162Y630D01*
X1166Y630D01*
X1166Y628D01*
X1170Y628D01*
X1170Y626D01*
X1172Y626D01*
X1172Y624D01*
X1174Y624D01*
X1174Y622D01*
X1176Y622D01*
X1176Y620D01*
X1178Y620D01*
X1178Y618D01*
X1180Y618D01*
X1180Y616D01*
X1182Y616D01*
X1182Y612D01*
X1202Y612D01*
X1202Y616D01*
X1204Y616D01*
X1204Y618D01*
X1206Y618D01*
X1206Y620D01*
X1208Y620D01*
X1208Y622D01*
X1210Y622D01*
X1210Y624D01*
X1212Y624D01*
X1212Y626D01*
X1214Y626D01*
X1214Y628D01*
X1218Y628D01*
X1218Y648D01*
X1216Y648D01*
X1216Y650D01*
X1214Y650D01*
X1214Y652D01*
X1210Y652D01*
X1210Y654D01*
X1208Y654D01*
X1208Y656D01*
X1206Y656D01*
X1206Y658D01*
X1204Y658D01*
X1204Y662D01*
X1202Y662D01*
X1202Y664D01*
X1200Y664D01*
X1200Y668D01*
X1198Y668D01*
X1198Y674D01*
X1196Y674D01*
X1196Y682D01*
X1194Y682D01*
X1194Y696D01*
X1196Y696D01*
X1196Y704D01*
X1198Y704D01*
X1198Y708D01*
X1200Y708D01*
X1200Y712D01*
X1202Y712D01*
X1202Y716D01*
X1204Y716D01*
X1204Y718D01*
X1206Y718D01*
X1206Y720D01*
X1208Y720D01*
X1208Y722D01*
X1210Y722D01*
X1210Y724D01*
X1212Y724D01*
X1212Y726D01*
X1214Y726D01*
X1214Y728D01*
X1218Y728D01*
X1218Y730D01*
X1222Y730D01*
X1222Y732D01*
X1226Y732D01*
X1226Y734D01*
X1232Y734D01*
X1232Y736D01*
X950Y736D01*
G37*
D02*
G36*
X40Y636D02*
X40Y542D01*
X430Y542D01*
X430Y544D01*
X422Y544D01*
X422Y546D01*
X420Y546D01*
X420Y548D01*
X416Y548D01*
X416Y550D01*
X414Y550D01*
X414Y552D01*
X410Y552D01*
X410Y554D01*
X408Y554D01*
X408Y556D01*
X406Y556D01*
X406Y558D01*
X404Y558D01*
X404Y562D01*
X402Y562D01*
X402Y564D01*
X400Y564D01*
X400Y568D01*
X398Y568D01*
X398Y574D01*
X396Y574D01*
X396Y582D01*
X394Y582D01*
X394Y596D01*
X396Y596D01*
X396Y604D01*
X398Y604D01*
X398Y608D01*
X400Y608D01*
X400Y612D01*
X402Y612D01*
X402Y616D01*
X404Y616D01*
X404Y618D01*
X406Y618D01*
X406Y620D01*
X408Y620D01*
X408Y622D01*
X410Y622D01*
X410Y624D01*
X412Y624D01*
X412Y626D01*
X414Y626D01*
X414Y628D01*
X418Y628D01*
X418Y630D01*
X422Y630D01*
X422Y632D01*
X426Y632D01*
X426Y634D01*
X432Y634D01*
X432Y636D01*
X40Y636D01*
G37*
D02*
G36*
X450Y636D02*
X450Y634D01*
X458Y634D01*
X458Y632D01*
X462Y632D01*
X462Y630D01*
X466Y630D01*
X466Y628D01*
X470Y628D01*
X470Y626D01*
X472Y626D01*
X472Y624D01*
X474Y624D01*
X474Y622D01*
X476Y622D01*
X476Y620D01*
X478Y620D01*
X478Y618D01*
X480Y618D01*
X480Y616D01*
X482Y616D01*
X482Y612D01*
X502Y612D01*
X502Y616D01*
X504Y616D01*
X504Y618D01*
X506Y618D01*
X506Y620D01*
X508Y620D01*
X508Y622D01*
X510Y622D01*
X510Y624D01*
X512Y624D01*
X512Y626D01*
X514Y626D01*
X514Y628D01*
X518Y628D01*
X518Y630D01*
X522Y630D01*
X522Y632D01*
X526Y632D01*
X526Y634D01*
X532Y634D01*
X532Y636D01*
X450Y636D01*
G37*
D02*
G36*
X666Y636D02*
X666Y628D01*
X670Y628D01*
X670Y626D01*
X672Y626D01*
X672Y624D01*
X674Y624D01*
X674Y622D01*
X676Y622D01*
X676Y620D01*
X678Y620D01*
X678Y618D01*
X680Y618D01*
X680Y616D01*
X682Y616D01*
X682Y612D01*
X702Y612D01*
X702Y616D01*
X704Y616D01*
X704Y618D01*
X706Y618D01*
X706Y620D01*
X708Y620D01*
X708Y622D01*
X710Y622D01*
X710Y624D01*
X712Y624D01*
X712Y626D01*
X714Y626D01*
X714Y628D01*
X718Y628D01*
X718Y630D01*
X722Y630D01*
X722Y632D01*
X726Y632D01*
X726Y634D01*
X732Y634D01*
X732Y636D01*
X666Y636D01*
G37*
D02*
G36*
X750Y636D02*
X750Y634D01*
X758Y634D01*
X758Y632D01*
X762Y632D01*
X762Y630D01*
X766Y630D01*
X766Y628D01*
X770Y628D01*
X770Y626D01*
X772Y626D01*
X772Y624D01*
X774Y624D01*
X774Y622D01*
X776Y622D01*
X776Y620D01*
X778Y620D01*
X778Y618D01*
X780Y618D01*
X780Y616D01*
X782Y616D01*
X782Y612D01*
X802Y612D01*
X802Y616D01*
X804Y616D01*
X804Y618D01*
X806Y618D01*
X806Y620D01*
X808Y620D01*
X808Y622D01*
X810Y622D01*
X810Y624D01*
X812Y624D01*
X812Y626D01*
X814Y626D01*
X814Y628D01*
X818Y628D01*
X818Y630D01*
X822Y630D01*
X822Y632D01*
X826Y632D01*
X826Y634D01*
X832Y634D01*
X832Y636D01*
X750Y636D01*
G37*
D02*
G36*
X966Y636D02*
X966Y628D01*
X970Y628D01*
X970Y626D01*
X972Y626D01*
X972Y624D01*
X974Y624D01*
X974Y622D01*
X976Y622D01*
X976Y620D01*
X978Y620D01*
X978Y618D01*
X980Y618D01*
X980Y616D01*
X982Y616D01*
X982Y612D01*
X1002Y612D01*
X1002Y616D01*
X1004Y616D01*
X1004Y618D01*
X1006Y618D01*
X1006Y620D01*
X1008Y620D01*
X1008Y622D01*
X1010Y622D01*
X1010Y624D01*
X1012Y624D01*
X1012Y626D01*
X1014Y626D01*
X1014Y628D01*
X1018Y628D01*
X1018Y630D01*
X1022Y630D01*
X1022Y632D01*
X1026Y632D01*
X1026Y634D01*
X1032Y634D01*
X1032Y636D01*
X966Y636D01*
G37*
D02*
G36*
X1050Y636D02*
X1050Y634D01*
X1058Y634D01*
X1058Y632D01*
X1062Y632D01*
X1062Y630D01*
X1066Y630D01*
X1066Y628D01*
X1070Y628D01*
X1070Y626D01*
X1072Y626D01*
X1072Y624D01*
X1074Y624D01*
X1074Y622D01*
X1076Y622D01*
X1076Y620D01*
X1078Y620D01*
X1078Y618D01*
X1080Y618D01*
X1080Y616D01*
X1082Y616D01*
X1082Y612D01*
X1102Y612D01*
X1102Y616D01*
X1104Y616D01*
X1104Y618D01*
X1106Y618D01*
X1106Y620D01*
X1108Y620D01*
X1108Y622D01*
X1110Y622D01*
X1110Y624D01*
X1112Y624D01*
X1112Y626D01*
X1114Y626D01*
X1114Y628D01*
X1118Y628D01*
X1118Y630D01*
X1122Y630D01*
X1122Y632D01*
X1126Y632D01*
X1126Y634D01*
X1132Y634D01*
X1132Y636D01*
X1050Y636D01*
G37*
D02*
G36*
X482Y564D02*
X482Y562D01*
X480Y562D01*
X480Y560D01*
X478Y560D01*
X478Y556D01*
X476Y556D01*
X476Y554D01*
X474Y554D01*
X474Y552D01*
X470Y552D01*
X470Y550D01*
X468Y550D01*
X468Y548D01*
X464Y548D01*
X464Y546D01*
X460Y546D01*
X460Y544D01*
X454Y544D01*
X454Y542D01*
X530Y542D01*
X530Y544D01*
X522Y544D01*
X522Y546D01*
X520Y546D01*
X520Y548D01*
X516Y548D01*
X516Y550D01*
X514Y550D01*
X514Y552D01*
X510Y552D01*
X510Y554D01*
X508Y554D01*
X508Y556D01*
X506Y556D01*
X506Y558D01*
X504Y558D01*
X504Y562D01*
X502Y562D01*
X502Y564D01*
X482Y564D01*
G37*
D02*
G36*
X582Y564D02*
X582Y562D01*
X580Y562D01*
X580Y560D01*
X578Y560D01*
X578Y556D01*
X576Y556D01*
X576Y554D01*
X574Y554D01*
X574Y552D01*
X570Y552D01*
X570Y550D01*
X568Y550D01*
X568Y548D01*
X564Y548D01*
X564Y546D01*
X560Y546D01*
X560Y544D01*
X554Y544D01*
X554Y542D01*
X630Y542D01*
X630Y544D01*
X622Y544D01*
X622Y546D01*
X620Y546D01*
X620Y548D01*
X616Y548D01*
X616Y550D01*
X614Y550D01*
X614Y552D01*
X610Y552D01*
X610Y554D01*
X608Y554D01*
X608Y556D01*
X606Y556D01*
X606Y558D01*
X604Y558D01*
X604Y562D01*
X602Y562D01*
X602Y564D01*
X582Y564D01*
G37*
D02*
G36*
X682Y564D02*
X682Y562D01*
X680Y562D01*
X680Y560D01*
X678Y560D01*
X678Y556D01*
X676Y556D01*
X676Y554D01*
X674Y554D01*
X674Y552D01*
X670Y552D01*
X670Y550D01*
X668Y550D01*
X668Y548D01*
X664Y548D01*
X664Y546D01*
X660Y546D01*
X660Y544D01*
X654Y544D01*
X654Y542D01*
X730Y542D01*
X730Y544D01*
X722Y544D01*
X722Y546D01*
X720Y546D01*
X720Y548D01*
X716Y548D01*
X716Y550D01*
X714Y550D01*
X714Y552D01*
X710Y552D01*
X710Y554D01*
X708Y554D01*
X708Y556D01*
X706Y556D01*
X706Y558D01*
X704Y558D01*
X704Y562D01*
X702Y562D01*
X702Y564D01*
X682Y564D01*
G37*
D02*
G36*
X782Y564D02*
X782Y562D01*
X780Y562D01*
X780Y560D01*
X778Y560D01*
X778Y556D01*
X776Y556D01*
X776Y554D01*
X774Y554D01*
X774Y552D01*
X770Y552D01*
X770Y550D01*
X768Y550D01*
X768Y548D01*
X764Y548D01*
X764Y546D01*
X760Y546D01*
X760Y544D01*
X754Y544D01*
X754Y542D01*
X830Y542D01*
X830Y544D01*
X822Y544D01*
X822Y546D01*
X820Y546D01*
X820Y548D01*
X816Y548D01*
X816Y550D01*
X814Y550D01*
X814Y552D01*
X810Y552D01*
X810Y554D01*
X808Y554D01*
X808Y556D01*
X806Y556D01*
X806Y558D01*
X804Y558D01*
X804Y562D01*
X802Y562D01*
X802Y564D01*
X782Y564D01*
G37*
D02*
G36*
X882Y564D02*
X882Y562D01*
X880Y562D01*
X880Y560D01*
X878Y560D01*
X878Y556D01*
X876Y556D01*
X876Y554D01*
X874Y554D01*
X874Y552D01*
X870Y552D01*
X870Y550D01*
X868Y550D01*
X868Y548D01*
X864Y548D01*
X864Y546D01*
X860Y546D01*
X860Y544D01*
X854Y544D01*
X854Y542D01*
X930Y542D01*
X930Y544D01*
X922Y544D01*
X922Y546D01*
X920Y546D01*
X920Y548D01*
X916Y548D01*
X916Y550D01*
X914Y550D01*
X914Y552D01*
X910Y552D01*
X910Y554D01*
X908Y554D01*
X908Y556D01*
X906Y556D01*
X906Y558D01*
X904Y558D01*
X904Y562D01*
X902Y562D01*
X902Y564D01*
X882Y564D01*
G37*
D02*
G36*
X982Y564D02*
X982Y562D01*
X980Y562D01*
X980Y560D01*
X978Y560D01*
X978Y556D01*
X976Y556D01*
X976Y554D01*
X974Y554D01*
X974Y552D01*
X970Y552D01*
X970Y550D01*
X968Y550D01*
X968Y548D01*
X964Y548D01*
X964Y546D01*
X960Y546D01*
X960Y544D01*
X954Y544D01*
X954Y542D01*
X1030Y542D01*
X1030Y544D01*
X1022Y544D01*
X1022Y546D01*
X1020Y546D01*
X1020Y548D01*
X1016Y548D01*
X1016Y550D01*
X1014Y550D01*
X1014Y552D01*
X1010Y552D01*
X1010Y554D01*
X1008Y554D01*
X1008Y556D01*
X1006Y556D01*
X1006Y558D01*
X1004Y558D01*
X1004Y562D01*
X1002Y562D01*
X1002Y564D01*
X982Y564D01*
G37*
D02*
G36*
X1082Y564D02*
X1082Y562D01*
X1080Y562D01*
X1080Y560D01*
X1078Y560D01*
X1078Y556D01*
X1076Y556D01*
X1076Y554D01*
X1074Y554D01*
X1074Y552D01*
X1070Y552D01*
X1070Y550D01*
X1068Y550D01*
X1068Y548D01*
X1064Y548D01*
X1064Y546D01*
X1060Y546D01*
X1060Y544D01*
X1054Y544D01*
X1054Y542D01*
X1130Y542D01*
X1130Y544D01*
X1122Y544D01*
X1122Y546D01*
X1120Y546D01*
X1120Y548D01*
X1116Y548D01*
X1116Y550D01*
X1114Y550D01*
X1114Y552D01*
X1110Y552D01*
X1110Y554D01*
X1108Y554D01*
X1108Y556D01*
X1106Y556D01*
X1106Y558D01*
X1104Y558D01*
X1104Y562D01*
X1102Y562D01*
X1102Y564D01*
X1082Y564D01*
G37*
D02*
G36*
X1182Y564D02*
X1182Y562D01*
X1180Y562D01*
X1180Y560D01*
X1178Y560D01*
X1178Y556D01*
X1176Y556D01*
X1176Y554D01*
X1174Y554D01*
X1174Y552D01*
X1170Y552D01*
X1170Y550D01*
X1168Y550D01*
X1168Y548D01*
X1164Y548D01*
X1164Y546D01*
X1160Y546D01*
X1160Y544D01*
X1154Y544D01*
X1154Y542D01*
X1230Y542D01*
X1230Y544D01*
X1222Y544D01*
X1222Y546D01*
X1220Y546D01*
X1220Y548D01*
X1216Y548D01*
X1216Y550D01*
X1214Y550D01*
X1214Y552D01*
X1210Y552D01*
X1210Y554D01*
X1208Y554D01*
X1208Y556D01*
X1206Y556D01*
X1206Y558D01*
X1204Y558D01*
X1204Y562D01*
X1202Y562D01*
X1202Y564D01*
X1182Y564D01*
G37*
D02*
G36*
X40Y542D02*
X40Y540D01*
X1634Y540D01*
X1634Y542D01*
X40Y542D01*
G37*
D02*
G36*
X40Y542D02*
X40Y540D01*
X1634Y540D01*
X1634Y542D01*
X40Y542D01*
G37*
D02*
G36*
X40Y542D02*
X40Y540D01*
X1634Y540D01*
X1634Y542D01*
X40Y542D01*
G37*
D02*
G36*
X40Y542D02*
X40Y540D01*
X1634Y540D01*
X1634Y542D01*
X40Y542D01*
G37*
D02*
G36*
X40Y542D02*
X40Y540D01*
X1634Y540D01*
X1634Y542D01*
X40Y542D01*
G37*
D02*
G36*
X40Y542D02*
X40Y540D01*
X1634Y540D01*
X1634Y542D01*
X40Y542D01*
G37*
D02*
G36*
X40Y542D02*
X40Y540D01*
X1634Y540D01*
X1634Y542D01*
X40Y542D01*
G37*
D02*
G36*
X40Y542D02*
X40Y540D01*
X1634Y540D01*
X1634Y542D01*
X40Y542D01*
G37*
D02*
G36*
X40Y542D02*
X40Y540D01*
X1634Y540D01*
X1634Y542D01*
X40Y542D01*
G37*
D02*
G36*
X40Y542D02*
X40Y540D01*
X1634Y540D01*
X1634Y542D01*
X40Y542D01*
G37*
D02*
G36*
X40Y540D02*
X40Y340D01*
X1592Y340D01*
X1592Y238D01*
X1634Y238D01*
X1634Y540D01*
X40Y540D01*
G37*
D02*
G36*
X40Y340D02*
X40Y238D01*
X130Y238D01*
X130Y240D01*
X124Y240D01*
X124Y242D01*
X120Y242D01*
X120Y244D01*
X116Y244D01*
X116Y246D01*
X112Y246D01*
X112Y248D01*
X110Y248D01*
X110Y250D01*
X108Y250D01*
X108Y252D01*
X106Y252D01*
X106Y254D01*
X104Y254D01*
X104Y256D01*
X102Y256D01*
X102Y258D01*
X100Y258D01*
X100Y262D01*
X98Y262D01*
X98Y264D01*
X96Y264D01*
X96Y268D01*
X94Y268D01*
X94Y274D01*
X92Y274D01*
X92Y286D01*
X90Y286D01*
X90Y292D01*
X92Y292D01*
X92Y302D01*
X94Y302D01*
X94Y308D01*
X96Y308D01*
X96Y312D01*
X98Y312D01*
X98Y316D01*
X100Y316D01*
X100Y318D01*
X102Y318D01*
X102Y322D01*
X104Y322D01*
X104Y324D01*
X106Y324D01*
X106Y326D01*
X108Y326D01*
X108Y328D01*
X112Y328D01*
X112Y330D01*
X114Y330D01*
X114Y332D01*
X118Y332D01*
X118Y334D01*
X122Y334D01*
X122Y336D01*
X126Y336D01*
X126Y338D01*
X136Y338D01*
X136Y340D01*
X40Y340D01*
G37*
D02*
G36*
X148Y340D02*
X148Y338D01*
X158Y338D01*
X158Y336D01*
X162Y336D01*
X162Y334D01*
X166Y334D01*
X166Y332D01*
X170Y332D01*
X170Y330D01*
X172Y330D01*
X172Y328D01*
X174Y328D01*
X174Y326D01*
X178Y326D01*
X178Y324D01*
X180Y324D01*
X180Y320D01*
X182Y320D01*
X182Y318D01*
X202Y318D01*
X202Y322D01*
X204Y322D01*
X204Y324D01*
X206Y324D01*
X206Y326D01*
X208Y326D01*
X208Y328D01*
X212Y328D01*
X212Y330D01*
X214Y330D01*
X214Y332D01*
X218Y332D01*
X218Y334D01*
X222Y334D01*
X222Y336D01*
X226Y336D01*
X226Y338D01*
X236Y338D01*
X236Y340D01*
X148Y340D01*
G37*
D02*
G36*
X248Y340D02*
X248Y338D01*
X258Y338D01*
X258Y336D01*
X262Y336D01*
X262Y334D01*
X266Y334D01*
X266Y332D01*
X270Y332D01*
X270Y330D01*
X290Y330D01*
X290Y338D01*
X292Y338D01*
X292Y340D01*
X248Y340D01*
G37*
D02*
G36*
X392Y340D02*
X392Y238D01*
X730Y238D01*
X730Y240D01*
X724Y240D01*
X724Y242D01*
X720Y242D01*
X720Y244D01*
X716Y244D01*
X716Y246D01*
X712Y246D01*
X712Y248D01*
X710Y248D01*
X710Y250D01*
X708Y250D01*
X708Y252D01*
X706Y252D01*
X706Y254D01*
X704Y254D01*
X704Y256D01*
X702Y256D01*
X702Y258D01*
X700Y258D01*
X700Y262D01*
X698Y262D01*
X698Y264D01*
X696Y264D01*
X696Y268D01*
X694Y268D01*
X694Y274D01*
X692Y274D01*
X692Y286D01*
X690Y286D01*
X690Y292D01*
X692Y292D01*
X692Y302D01*
X694Y302D01*
X694Y308D01*
X696Y308D01*
X696Y312D01*
X698Y312D01*
X698Y316D01*
X700Y316D01*
X700Y318D01*
X702Y318D01*
X702Y322D01*
X704Y322D01*
X704Y324D01*
X706Y324D01*
X706Y326D01*
X708Y326D01*
X708Y328D01*
X712Y328D01*
X712Y330D01*
X714Y330D01*
X714Y332D01*
X718Y332D01*
X718Y334D01*
X722Y334D01*
X722Y336D01*
X726Y336D01*
X726Y338D01*
X736Y338D01*
X736Y340D01*
X392Y340D01*
G37*
D02*
G36*
X748Y340D02*
X748Y338D01*
X758Y338D01*
X758Y336D01*
X762Y336D01*
X762Y334D01*
X766Y334D01*
X766Y332D01*
X770Y332D01*
X770Y330D01*
X772Y330D01*
X772Y328D01*
X774Y328D01*
X774Y326D01*
X778Y326D01*
X778Y324D01*
X780Y324D01*
X780Y320D01*
X782Y320D01*
X782Y318D01*
X802Y318D01*
X802Y322D01*
X804Y322D01*
X804Y324D01*
X806Y324D01*
X806Y326D01*
X808Y326D01*
X808Y328D01*
X812Y328D01*
X812Y330D01*
X814Y330D01*
X814Y332D01*
X818Y332D01*
X818Y334D01*
X822Y334D01*
X822Y336D01*
X826Y336D01*
X826Y338D01*
X836Y338D01*
X836Y340D01*
X748Y340D01*
G37*
D02*
G36*
X848Y340D02*
X848Y338D01*
X858Y338D01*
X858Y336D01*
X862Y336D01*
X862Y334D01*
X866Y334D01*
X866Y332D01*
X870Y332D01*
X870Y330D01*
X890Y330D01*
X890Y338D01*
X892Y338D01*
X892Y340D01*
X848Y340D01*
G37*
D02*
G36*
X992Y340D02*
X992Y238D01*
X1330Y238D01*
X1330Y240D01*
X1324Y240D01*
X1324Y242D01*
X1320Y242D01*
X1320Y244D01*
X1316Y244D01*
X1316Y246D01*
X1312Y246D01*
X1312Y248D01*
X1310Y248D01*
X1310Y250D01*
X1308Y250D01*
X1308Y252D01*
X1306Y252D01*
X1306Y254D01*
X1304Y254D01*
X1304Y256D01*
X1302Y256D01*
X1302Y258D01*
X1300Y258D01*
X1300Y262D01*
X1298Y262D01*
X1298Y264D01*
X1296Y264D01*
X1296Y268D01*
X1294Y268D01*
X1294Y274D01*
X1292Y274D01*
X1292Y286D01*
X1290Y286D01*
X1290Y290D01*
X1292Y290D01*
X1292Y302D01*
X1294Y302D01*
X1294Y308D01*
X1296Y308D01*
X1296Y312D01*
X1298Y312D01*
X1298Y316D01*
X1300Y316D01*
X1300Y318D01*
X1302Y318D01*
X1302Y322D01*
X1304Y322D01*
X1304Y324D01*
X1306Y324D01*
X1306Y326D01*
X1308Y326D01*
X1308Y328D01*
X1312Y328D01*
X1312Y330D01*
X1314Y330D01*
X1314Y332D01*
X1318Y332D01*
X1318Y334D01*
X1322Y334D01*
X1322Y336D01*
X1326Y336D01*
X1326Y338D01*
X1336Y338D01*
X1336Y340D01*
X992Y340D01*
G37*
D02*
G36*
X1348Y340D02*
X1348Y338D01*
X1358Y338D01*
X1358Y336D01*
X1362Y336D01*
X1362Y334D01*
X1366Y334D01*
X1366Y332D01*
X1370Y332D01*
X1370Y330D01*
X1372Y330D01*
X1372Y328D01*
X1374Y328D01*
X1374Y326D01*
X1378Y326D01*
X1378Y324D01*
X1380Y324D01*
X1380Y320D01*
X1382Y320D01*
X1382Y318D01*
X1402Y318D01*
X1402Y322D01*
X1404Y322D01*
X1404Y324D01*
X1406Y324D01*
X1406Y326D01*
X1408Y326D01*
X1408Y328D01*
X1412Y328D01*
X1412Y330D01*
X1414Y330D01*
X1414Y332D01*
X1418Y332D01*
X1418Y334D01*
X1422Y334D01*
X1422Y336D01*
X1426Y336D01*
X1426Y338D01*
X1436Y338D01*
X1436Y340D01*
X1348Y340D01*
G37*
D02*
G36*
X1448Y340D02*
X1448Y338D01*
X1458Y338D01*
X1458Y336D01*
X1462Y336D01*
X1462Y334D01*
X1466Y334D01*
X1466Y332D01*
X1470Y332D01*
X1470Y330D01*
X1490Y330D01*
X1490Y338D01*
X1492Y338D01*
X1492Y340D01*
X1448Y340D01*
G37*
D02*
G36*
X182Y258D02*
X182Y256D01*
X180Y256D01*
X180Y254D01*
X178Y254D01*
X178Y252D01*
X176Y252D01*
X176Y250D01*
X174Y250D01*
X174Y248D01*
X172Y248D01*
X172Y246D01*
X168Y246D01*
X168Y244D01*
X164Y244D01*
X164Y242D01*
X160Y242D01*
X160Y240D01*
X154Y240D01*
X154Y238D01*
X230Y238D01*
X230Y240D01*
X224Y240D01*
X224Y242D01*
X220Y242D01*
X220Y244D01*
X216Y244D01*
X216Y246D01*
X212Y246D01*
X212Y248D01*
X210Y248D01*
X210Y250D01*
X208Y250D01*
X208Y252D01*
X206Y252D01*
X206Y254D01*
X204Y254D01*
X204Y256D01*
X202Y256D01*
X202Y258D01*
X182Y258D01*
G37*
D02*
G36*
X782Y258D02*
X782Y256D01*
X780Y256D01*
X780Y254D01*
X778Y254D01*
X778Y252D01*
X776Y252D01*
X776Y250D01*
X774Y250D01*
X774Y248D01*
X772Y248D01*
X772Y246D01*
X768Y246D01*
X768Y244D01*
X764Y244D01*
X764Y242D01*
X760Y242D01*
X760Y240D01*
X754Y240D01*
X754Y238D01*
X830Y238D01*
X830Y240D01*
X824Y240D01*
X824Y242D01*
X820Y242D01*
X820Y244D01*
X816Y244D01*
X816Y246D01*
X812Y246D01*
X812Y248D01*
X810Y248D01*
X810Y250D01*
X808Y250D01*
X808Y252D01*
X806Y252D01*
X806Y254D01*
X804Y254D01*
X804Y256D01*
X802Y256D01*
X802Y258D01*
X782Y258D01*
G37*
D02*
G36*
X1382Y258D02*
X1382Y256D01*
X1380Y256D01*
X1380Y254D01*
X1378Y254D01*
X1378Y252D01*
X1376Y252D01*
X1376Y250D01*
X1374Y250D01*
X1374Y248D01*
X1372Y248D01*
X1372Y246D01*
X1368Y246D01*
X1368Y244D01*
X1364Y244D01*
X1364Y242D01*
X1360Y242D01*
X1360Y240D01*
X1354Y240D01*
X1354Y238D01*
X1430Y238D01*
X1430Y240D01*
X1424Y240D01*
X1424Y242D01*
X1420Y242D01*
X1420Y244D01*
X1416Y244D01*
X1416Y246D01*
X1412Y246D01*
X1412Y248D01*
X1410Y248D01*
X1410Y250D01*
X1408Y250D01*
X1408Y252D01*
X1406Y252D01*
X1406Y254D01*
X1404Y254D01*
X1404Y256D01*
X1402Y256D01*
X1402Y258D01*
X1382Y258D01*
G37*
D02*
G36*
X268Y246D02*
X268Y244D01*
X264Y244D01*
X264Y242D01*
X260Y242D01*
X260Y240D01*
X254Y240D01*
X254Y238D01*
X290Y238D01*
X290Y246D01*
X268Y246D01*
G37*
D02*
G36*
X868Y246D02*
X868Y244D01*
X864Y244D01*
X864Y242D01*
X860Y242D01*
X860Y240D01*
X854Y240D01*
X854Y238D01*
X890Y238D01*
X890Y246D01*
X868Y246D01*
G37*
D02*
G36*
X1468Y246D02*
X1468Y244D01*
X1464Y244D01*
X1464Y242D01*
X1460Y242D01*
X1460Y240D01*
X1454Y240D01*
X1454Y238D01*
X1490Y238D01*
X1490Y246D01*
X1468Y246D01*
G37*
D02*
G36*
X40Y238D02*
X40Y236D01*
X1634Y236D01*
X1634Y238D01*
X40Y238D01*
G37*
D02*
G36*
X40Y238D02*
X40Y236D01*
X1634Y236D01*
X1634Y238D01*
X40Y238D01*
G37*
D02*
G36*
X40Y238D02*
X40Y236D01*
X1634Y236D01*
X1634Y238D01*
X40Y238D01*
G37*
D02*
G36*
X40Y238D02*
X40Y236D01*
X1634Y236D01*
X1634Y238D01*
X40Y238D01*
G37*
D02*
G36*
X40Y238D02*
X40Y236D01*
X1634Y236D01*
X1634Y238D01*
X40Y238D01*
G37*
D02*
G36*
X40Y238D02*
X40Y236D01*
X1634Y236D01*
X1634Y238D01*
X40Y238D01*
G37*
D02*
G36*
X40Y238D02*
X40Y236D01*
X1634Y236D01*
X1634Y238D01*
X40Y238D01*
G37*
D02*
G36*
X40Y238D02*
X40Y236D01*
X1634Y236D01*
X1634Y238D01*
X40Y238D01*
G37*
D02*
G36*
X40Y238D02*
X40Y236D01*
X1634Y236D01*
X1634Y238D01*
X40Y238D01*
G37*
D02*
G36*
X40Y238D02*
X40Y236D01*
X1634Y236D01*
X1634Y238D01*
X40Y238D01*
G37*
D02*
G36*
X40Y236D02*
X40Y138D01*
X948Y138D01*
X948Y136D01*
X956Y136D01*
X956Y134D01*
X962Y134D01*
X962Y132D01*
X966Y132D01*
X966Y130D01*
X970Y130D01*
X970Y128D01*
X972Y128D01*
X972Y126D01*
X974Y126D01*
X974Y124D01*
X976Y124D01*
X976Y122D01*
X978Y122D01*
X978Y120D01*
X980Y120D01*
X980Y118D01*
X982Y118D01*
X982Y114D01*
X984Y114D01*
X984Y112D01*
X986Y112D01*
X986Y108D01*
X988Y108D01*
X988Y100D01*
X990Y100D01*
X990Y76D01*
X988Y76D01*
X988Y70D01*
X986Y70D01*
X986Y66D01*
X984Y66D01*
X984Y62D01*
X982Y62D01*
X982Y42D01*
X1634Y42D01*
X1634Y236D01*
X40Y236D01*
G37*
D02*
G36*
X40Y138D02*
X40Y42D01*
X602Y42D01*
X602Y62D01*
X600Y62D01*
X600Y66D01*
X598Y66D01*
X598Y68D01*
X596Y68D01*
X596Y76D01*
X594Y76D01*
X594Y86D01*
X592Y86D01*
X592Y90D01*
X594Y90D01*
X594Y102D01*
X596Y102D01*
X596Y108D01*
X598Y108D01*
X598Y112D01*
X600Y112D01*
X600Y116D01*
X602Y116D01*
X602Y118D01*
X604Y118D01*
X604Y120D01*
X606Y120D01*
X606Y122D01*
X608Y122D01*
X608Y124D01*
X610Y124D01*
X610Y126D01*
X612Y126D01*
X612Y128D01*
X614Y128D01*
X614Y130D01*
X618Y130D01*
X618Y132D01*
X622Y132D01*
X622Y134D01*
X628Y134D01*
X628Y136D01*
X636Y136D01*
X636Y138D01*
X40Y138D01*
G37*
D02*
G36*
X648Y138D02*
X648Y136D01*
X656Y136D01*
X656Y134D01*
X662Y134D01*
X662Y132D01*
X666Y132D01*
X666Y130D01*
X670Y130D01*
X670Y128D01*
X672Y128D01*
X672Y126D01*
X674Y126D01*
X674Y124D01*
X676Y124D01*
X676Y122D01*
X678Y122D01*
X678Y120D01*
X680Y120D01*
X680Y118D01*
X682Y118D01*
X682Y116D01*
X702Y116D01*
X702Y118D01*
X704Y118D01*
X704Y120D01*
X706Y120D01*
X706Y122D01*
X708Y122D01*
X708Y124D01*
X710Y124D01*
X710Y126D01*
X712Y126D01*
X712Y128D01*
X714Y128D01*
X714Y130D01*
X718Y130D01*
X718Y132D01*
X722Y132D01*
X722Y134D01*
X728Y134D01*
X728Y136D01*
X736Y136D01*
X736Y138D01*
X648Y138D01*
G37*
D02*
G36*
X748Y138D02*
X748Y136D01*
X756Y136D01*
X756Y134D01*
X762Y134D01*
X762Y132D01*
X766Y132D01*
X766Y130D01*
X770Y130D01*
X770Y128D01*
X772Y128D01*
X772Y126D01*
X774Y126D01*
X774Y124D01*
X776Y124D01*
X776Y122D01*
X778Y122D01*
X778Y120D01*
X780Y120D01*
X780Y118D01*
X782Y118D01*
X782Y116D01*
X802Y116D01*
X802Y118D01*
X804Y118D01*
X804Y120D01*
X806Y120D01*
X806Y122D01*
X808Y122D01*
X808Y124D01*
X810Y124D01*
X810Y126D01*
X812Y126D01*
X812Y128D01*
X814Y128D01*
X814Y130D01*
X818Y130D01*
X818Y132D01*
X822Y132D01*
X822Y134D01*
X828Y134D01*
X828Y136D01*
X836Y136D01*
X836Y138D01*
X748Y138D01*
G37*
D02*
G36*
X848Y138D02*
X848Y136D01*
X856Y136D01*
X856Y134D01*
X862Y134D01*
X862Y132D01*
X866Y132D01*
X866Y130D01*
X870Y130D01*
X870Y128D01*
X872Y128D01*
X872Y126D01*
X874Y126D01*
X874Y124D01*
X876Y124D01*
X876Y122D01*
X878Y122D01*
X878Y120D01*
X880Y120D01*
X880Y118D01*
X882Y118D01*
X882Y116D01*
X902Y116D01*
X902Y118D01*
X904Y118D01*
X904Y120D01*
X906Y120D01*
X906Y122D01*
X908Y122D01*
X908Y124D01*
X910Y124D01*
X910Y126D01*
X912Y126D01*
X912Y128D01*
X914Y128D01*
X914Y130D01*
X918Y130D01*
X918Y132D01*
X922Y132D01*
X922Y134D01*
X928Y134D01*
X928Y136D01*
X936Y136D01*
X936Y138D01*
X848Y138D01*
G37*
D02*
G04 End of Copper1*
M02*