; NON-PLATED HOLES START AT T1
; THROUGH (PLATED) HOLES START AT T100
M48
INCH
T100C0.035000
T101C0.038000
T102C0.042000
%
T100
X004418Y005883
X005418Y013883
X011418Y007883
X005418Y011883
X008418Y005883
X009418Y010883
X005418Y007883
X006418Y010883
X005418Y005883
X007418Y016883
X009418Y006883
X012418Y010883
X008418Y011883
X009418Y013883
X010418Y016883
X011418Y011883
X012418Y006883
X006418Y005883
X008418Y007883
X006418Y006883
X006418Y016883
X012418Y005883
X006418Y013883
X008418Y016883
X005418Y016883
X007418Y013883
X008418Y013883
X009418Y016883
X010418Y013883
X009418Y005883
X011418Y016883
X011418Y013883
X010418Y005883
X007418Y005883
X011418Y005883
T101
X006418Y000883
X012468Y016883
X013418Y010883
X012468Y013883
X013418Y011883
X009418Y000883
X014418Y011883
X007418Y000883
X008418Y000883
X012468Y014883
X012468Y015883
X014418Y010883
T102
X003418Y002883
X001418Y002883
X015418Y002883
X007418Y002883
X008418Y002883
X013418Y002883
X009418Y002883
X002418Y002883
X014418Y002883
T00
M30
