G04 MADE WITH FRITZING*
G04 WWW.FRITZING.ORG*
G04 DOUBLE SIDED*
G04 HOLES PLATED*
G04 CONTOUR ON CENTER OF CONTOUR VECTOR*
%ASAXBY*%
%FSLAX23Y23*%
%MOIN*%
%OFA0B0*%
%SFA1.0B1.0*%
%ADD10C,0.075000*%
%ADD11C,0.078000*%
%ADD12C,0.082000*%
%ADD13R,0.075000X0.075000*%
%ADD14R,0.082000X0.082000*%
%ADD15C,0.024000*%
%LNCOPPER0*%
G90*
G70*
G54D10*
X704Y1002D03*
X696Y821D03*
X1007Y821D03*
X573Y493D03*
X713Y410D03*
X883Y496D03*
X1227Y496D03*
X232Y201D03*
X1094Y410D03*
X1538Y1700D03*
G54D11*
X1499Y1211D03*
X1399Y1211D03*
X1499Y1211D03*
X1399Y1211D03*
X1499Y1111D03*
X1399Y1111D03*
X1499Y1111D03*
X1399Y1111D03*
X699Y111D03*
X799Y111D03*
X899Y111D03*
X999Y111D03*
X699Y111D03*
X799Y111D03*
X899Y111D03*
X999Y111D03*
G54D10*
X1199Y1711D03*
X1199Y1411D03*
X1099Y1711D03*
X1099Y1411D03*
X999Y1711D03*
X999Y1411D03*
X899Y1711D03*
X899Y1411D03*
X799Y1711D03*
X799Y1411D03*
X699Y1711D03*
X699Y1411D03*
X599Y1711D03*
X599Y1411D03*
G54D11*
X1304Y1711D03*
X1304Y1611D03*
X1304Y1511D03*
X1304Y1411D03*
X1304Y1711D03*
X1304Y1611D03*
X1304Y1511D03*
X1304Y1411D03*
G54D10*
X699Y611D03*
X599Y611D03*
X499Y611D03*
X699Y611D03*
X599Y611D03*
X499Y611D03*
X999Y611D03*
X899Y611D03*
X799Y611D03*
X999Y611D03*
X899Y611D03*
X799Y611D03*
X1299Y611D03*
X1199Y611D03*
X1099Y611D03*
X1299Y611D03*
X1199Y611D03*
X1099Y611D03*
G54D12*
X999Y311D03*
X899Y311D03*
X799Y311D03*
X999Y311D03*
X899Y311D03*
X799Y311D03*
X399Y311D03*
X299Y311D03*
X199Y311D03*
X399Y311D03*
X299Y311D03*
X199Y311D03*
X1599Y311D03*
X1499Y311D03*
X1399Y311D03*
X1599Y311D03*
X1499Y311D03*
X1399Y311D03*
G54D10*
X699Y711D03*
X699Y1111D03*
X699Y711D03*
X699Y1111D03*
X999Y711D03*
X999Y1111D03*
X999Y711D03*
X999Y1111D03*
X1299Y711D03*
X1299Y1111D03*
X1299Y711D03*
X1299Y1111D03*
X899Y1211D03*
X899Y811D03*
X899Y1211D03*
X899Y811D03*
X599Y1211D03*
X599Y811D03*
X599Y1211D03*
X599Y811D03*
X1199Y1211D03*
X1199Y811D03*
X1199Y1211D03*
X1199Y811D03*
G54D13*
X1199Y1711D03*
G54D14*
X999Y311D03*
X999Y311D03*
X399Y311D03*
X399Y311D03*
X1599Y311D03*
X1599Y311D03*
G54D15*
X200Y112D02*
X669Y111D01*
D02*
X98Y313D02*
X98Y210D01*
D02*
X397Y612D02*
X98Y313D01*
D02*
X397Y809D02*
X397Y612D01*
D02*
X499Y912D02*
X397Y809D01*
D02*
X598Y1010D02*
X499Y912D01*
D02*
X98Y210D02*
X200Y112D01*
D02*
X679Y1091D02*
X598Y1010D01*
D02*
X397Y210D02*
X700Y210D01*
D02*
X700Y210D02*
X778Y133D01*
D02*
X1098Y210D02*
X1398Y210D01*
D02*
X1398Y210D02*
X1476Y288D01*
D02*
X321Y288D02*
X397Y210D01*
D02*
X899Y141D02*
X899Y279D01*
D02*
X1020Y132D02*
X1098Y210D01*
D02*
X1601Y1213D02*
X1529Y1212D01*
D02*
X1469Y1211D02*
X1429Y1211D01*
D02*
X1469Y1111D02*
X1429Y1111D01*
D02*
X1369Y1111D02*
X1327Y1111D01*
D02*
X498Y1313D02*
X579Y1231D01*
D02*
X499Y809D02*
X499Y640D01*
D02*
X598Y912D02*
X499Y809D01*
D02*
X498Y1611D02*
X498Y1313D01*
D02*
X578Y1691D02*
X498Y1611D01*
D02*
X800Y912D02*
X598Y912D01*
D02*
X800Y912D02*
X799Y640D01*
D02*
X1098Y912D02*
X800Y912D01*
D02*
X1098Y912D02*
X1400Y910D01*
D02*
X1400Y910D02*
X1601Y1111D01*
D02*
X1601Y1213D02*
X1601Y1512D01*
D02*
X1601Y1111D02*
X1601Y1213D01*
D02*
X1400Y1712D02*
X1334Y1712D01*
D02*
X1601Y1512D02*
X1400Y1712D01*
D02*
X1099Y640D02*
X1098Y912D01*
D02*
X800Y1313D02*
X719Y1391D01*
D02*
X879Y1232D02*
X800Y1313D01*
D02*
X1227Y1711D02*
X1274Y1711D01*
D02*
X800Y1611D02*
X1274Y1611D01*
D02*
X719Y1691D02*
X800Y1611D01*
D02*
X698Y1513D02*
X1274Y1511D01*
D02*
X619Y1432D02*
X698Y1513D01*
D02*
X498Y312D02*
X698Y512D01*
D02*
X698Y512D02*
X699Y583D01*
D02*
X1397Y410D02*
X1299Y512D01*
D02*
X1299Y512D02*
X1299Y610D01*
D02*
X1597Y410D02*
X1397Y410D01*
D02*
X431Y311D02*
X498Y312D01*
D02*
X699Y640D02*
X699Y683D01*
D02*
X999Y640D02*
X999Y683D01*
D02*
X1299Y610D02*
X1298Y583D01*
D02*
X1598Y343D02*
X1597Y410D01*
D02*
X1299Y640D02*
X1299Y683D01*
D02*
X727Y1111D02*
X970Y1111D01*
D02*
X1027Y1111D02*
X1270Y1111D01*
D02*
X999Y343D02*
X999Y583D01*
D02*
X1299Y1313D02*
X1302Y1381D01*
D02*
X1201Y1313D02*
X1299Y1313D01*
D02*
X1199Y1383D02*
X1201Y1313D01*
D02*
X1001Y1313D02*
X919Y1391D01*
D02*
X1201Y1313D02*
X1001Y1313D01*
D02*
X1199Y640D02*
X1199Y783D01*
D02*
X1001Y1210D02*
X1170Y1211D01*
D02*
X898Y1313D02*
X1001Y1210D01*
D02*
X819Y1391D02*
X898Y1313D01*
D02*
X899Y640D02*
X899Y783D01*
D02*
X600Y712D02*
X599Y783D01*
D02*
X599Y640D02*
X600Y712D01*
D02*
X1299Y312D02*
X1367Y311D01*
D02*
X1098Y512D02*
X1299Y312D01*
D02*
X1099Y583D02*
X1098Y512D01*
D02*
X799Y583D02*
X799Y343D01*
D02*
X400Y410D02*
X298Y410D01*
D02*
X298Y410D02*
X221Y334D01*
D02*
X498Y512D02*
X400Y410D01*
D02*
X498Y583D02*
X498Y512D01*
G36*
X838Y1687D02*
X838Y1683D01*
X836Y1683D01*
X836Y1681D01*
X834Y1681D01*
X834Y1679D01*
X832Y1679D01*
X832Y1677D01*
X830Y1677D01*
X830Y1675D01*
X828Y1675D01*
X828Y1673D01*
X824Y1673D01*
X824Y1671D01*
X822Y1671D01*
X822Y1669D01*
X818Y1669D01*
X818Y1667D01*
X812Y1667D01*
X812Y1665D01*
X886Y1665D01*
X886Y1667D01*
X880Y1667D01*
X880Y1669D01*
X876Y1669D01*
X876Y1671D01*
X872Y1671D01*
X872Y1673D01*
X870Y1673D01*
X870Y1675D01*
X868Y1675D01*
X868Y1677D01*
X866Y1677D01*
X866Y1679D01*
X864Y1679D01*
X864Y1681D01*
X862Y1681D01*
X862Y1683D01*
X860Y1683D01*
X860Y1685D01*
X858Y1685D01*
X858Y1687D01*
X838Y1687D01*
G37*
D02*
G36*
X938Y1687D02*
X938Y1683D01*
X936Y1683D01*
X936Y1681D01*
X934Y1681D01*
X934Y1679D01*
X932Y1679D01*
X932Y1677D01*
X930Y1677D01*
X930Y1675D01*
X928Y1675D01*
X928Y1673D01*
X924Y1673D01*
X924Y1671D01*
X922Y1671D01*
X922Y1669D01*
X918Y1669D01*
X918Y1667D01*
X912Y1667D01*
X912Y1665D01*
X986Y1665D01*
X986Y1667D01*
X980Y1667D01*
X980Y1669D01*
X976Y1669D01*
X976Y1671D01*
X972Y1671D01*
X972Y1673D01*
X970Y1673D01*
X970Y1675D01*
X968Y1675D01*
X968Y1677D01*
X966Y1677D01*
X966Y1679D01*
X964Y1679D01*
X964Y1681D01*
X962Y1681D01*
X962Y1683D01*
X960Y1683D01*
X960Y1685D01*
X958Y1685D01*
X958Y1687D01*
X938Y1687D01*
G37*
D02*
G36*
X1038Y1687D02*
X1038Y1683D01*
X1036Y1683D01*
X1036Y1681D01*
X1034Y1681D01*
X1034Y1679D01*
X1032Y1679D01*
X1032Y1677D01*
X1030Y1677D01*
X1030Y1675D01*
X1028Y1675D01*
X1028Y1673D01*
X1024Y1673D01*
X1024Y1671D01*
X1022Y1671D01*
X1022Y1669D01*
X1018Y1669D01*
X1018Y1667D01*
X1012Y1667D01*
X1012Y1665D01*
X1086Y1665D01*
X1086Y1667D01*
X1080Y1667D01*
X1080Y1669D01*
X1076Y1669D01*
X1076Y1671D01*
X1072Y1671D01*
X1072Y1673D01*
X1070Y1673D01*
X1070Y1675D01*
X1068Y1675D01*
X1068Y1677D01*
X1066Y1677D01*
X1066Y1679D01*
X1064Y1679D01*
X1064Y1681D01*
X1062Y1681D01*
X1062Y1683D01*
X1060Y1683D01*
X1060Y1685D01*
X1058Y1685D01*
X1058Y1687D01*
X1038Y1687D01*
G37*
D02*
G36*
X1246Y1681D02*
X1246Y1663D01*
X1276Y1663D01*
X1276Y1673D01*
X1272Y1673D01*
X1272Y1675D01*
X1270Y1675D01*
X1270Y1677D01*
X1268Y1677D01*
X1268Y1679D01*
X1266Y1679D01*
X1266Y1681D01*
X1246Y1681D01*
G37*
D02*
G36*
X1132Y1679D02*
X1132Y1677D01*
X1130Y1677D01*
X1130Y1675D01*
X1128Y1675D01*
X1128Y1673D01*
X1124Y1673D01*
X1124Y1671D01*
X1122Y1671D01*
X1122Y1669D01*
X1118Y1669D01*
X1118Y1667D01*
X1112Y1667D01*
X1112Y1665D01*
X1152Y1665D01*
X1152Y1679D01*
X1132Y1679D01*
G37*
D02*
G36*
X796Y1665D02*
X796Y1663D01*
X1152Y1663D01*
X1152Y1665D01*
X796Y1665D01*
G37*
D02*
G36*
X796Y1665D02*
X796Y1663D01*
X1152Y1663D01*
X1152Y1665D01*
X796Y1665D01*
G37*
D02*
G36*
X796Y1665D02*
X796Y1663D01*
X1152Y1663D01*
X1152Y1665D01*
X796Y1665D01*
G37*
D02*
G36*
X796Y1665D02*
X796Y1663D01*
X1152Y1663D01*
X1152Y1665D01*
X796Y1665D01*
G37*
D02*
G36*
X796Y1663D02*
X796Y1661D01*
X1276Y1661D01*
X1276Y1663D01*
X796Y1663D01*
G37*
D02*
G36*
X796Y1663D02*
X796Y1661D01*
X1276Y1661D01*
X1276Y1663D01*
X796Y1663D01*
G37*
D02*
G36*
X796Y1661D02*
X796Y1645D01*
X798Y1645D01*
X798Y1643D01*
X800Y1643D01*
X800Y1641D01*
X802Y1641D01*
X802Y1639D01*
X804Y1639D01*
X804Y1637D01*
X806Y1637D01*
X806Y1635D01*
X808Y1635D01*
X808Y1633D01*
X1260Y1633D01*
X1260Y1635D01*
X1262Y1635D01*
X1262Y1639D01*
X1264Y1639D01*
X1264Y1641D01*
X1266Y1641D01*
X1266Y1643D01*
X1268Y1643D01*
X1268Y1645D01*
X1270Y1645D01*
X1270Y1647D01*
X1272Y1647D01*
X1272Y1649D01*
X1274Y1649D01*
X1274Y1651D01*
X1276Y1651D01*
X1276Y1661D01*
X796Y1661D01*
G37*
D02*
G36*
X706Y1491D02*
X706Y1489D01*
X704Y1489D01*
X704Y1487D01*
X702Y1487D01*
X702Y1485D01*
X700Y1485D01*
X700Y1483D01*
X698Y1483D01*
X698Y1481D01*
X696Y1481D01*
X696Y1479D01*
X694Y1479D01*
X694Y1459D01*
X1208Y1459D01*
X1208Y1457D01*
X1214Y1457D01*
X1214Y1455D01*
X1220Y1455D01*
X1220Y1453D01*
X1224Y1453D01*
X1224Y1451D01*
X1226Y1451D01*
X1226Y1449D01*
X1228Y1449D01*
X1228Y1447D01*
X1232Y1447D01*
X1232Y1445D01*
X1234Y1445D01*
X1234Y1441D01*
X1236Y1441D01*
X1236Y1439D01*
X1238Y1439D01*
X1238Y1437D01*
X1240Y1437D01*
X1240Y1433D01*
X1260Y1433D01*
X1260Y1435D01*
X1262Y1435D01*
X1262Y1439D01*
X1264Y1439D01*
X1264Y1441D01*
X1266Y1441D01*
X1266Y1443D01*
X1268Y1443D01*
X1268Y1445D01*
X1270Y1445D01*
X1270Y1447D01*
X1272Y1447D01*
X1272Y1449D01*
X1274Y1449D01*
X1274Y1451D01*
X1276Y1451D01*
X1276Y1473D01*
X1272Y1473D01*
X1272Y1475D01*
X1270Y1475D01*
X1270Y1477D01*
X1268Y1477D01*
X1268Y1479D01*
X1266Y1479D01*
X1266Y1481D01*
X1264Y1481D01*
X1264Y1485D01*
X1262Y1485D01*
X1262Y1489D01*
X1112Y1489D01*
X1112Y1491D01*
X706Y1491D01*
G37*
D02*
G36*
X708Y1459D02*
X708Y1457D01*
X714Y1457D01*
X714Y1455D01*
X720Y1455D01*
X720Y1453D01*
X724Y1453D01*
X724Y1451D01*
X726Y1451D01*
X726Y1449D01*
X728Y1449D01*
X728Y1447D01*
X732Y1447D01*
X732Y1445D01*
X734Y1445D01*
X734Y1441D01*
X736Y1441D01*
X736Y1439D01*
X738Y1439D01*
X738Y1437D01*
X760Y1437D01*
X760Y1439D01*
X762Y1439D01*
X762Y1443D01*
X764Y1443D01*
X764Y1445D01*
X766Y1445D01*
X766Y1447D01*
X768Y1447D01*
X768Y1449D01*
X772Y1449D01*
X772Y1451D01*
X774Y1451D01*
X774Y1453D01*
X778Y1453D01*
X778Y1455D01*
X782Y1455D01*
X782Y1457D01*
X790Y1457D01*
X790Y1459D01*
X708Y1459D01*
G37*
D02*
G36*
X808Y1459D02*
X808Y1457D01*
X814Y1457D01*
X814Y1455D01*
X820Y1455D01*
X820Y1453D01*
X824Y1453D01*
X824Y1451D01*
X826Y1451D01*
X826Y1449D01*
X828Y1449D01*
X828Y1447D01*
X832Y1447D01*
X832Y1445D01*
X834Y1445D01*
X834Y1441D01*
X836Y1441D01*
X836Y1439D01*
X838Y1439D01*
X838Y1437D01*
X860Y1437D01*
X860Y1439D01*
X862Y1439D01*
X862Y1443D01*
X864Y1443D01*
X864Y1445D01*
X866Y1445D01*
X866Y1447D01*
X868Y1447D01*
X868Y1449D01*
X872Y1449D01*
X872Y1451D01*
X874Y1451D01*
X874Y1453D01*
X878Y1453D01*
X878Y1455D01*
X882Y1455D01*
X882Y1457D01*
X890Y1457D01*
X890Y1459D01*
X808Y1459D01*
G37*
D02*
G36*
X908Y1459D02*
X908Y1457D01*
X914Y1457D01*
X914Y1455D01*
X920Y1455D01*
X920Y1453D01*
X924Y1453D01*
X924Y1451D01*
X926Y1451D01*
X926Y1449D01*
X928Y1449D01*
X928Y1447D01*
X932Y1447D01*
X932Y1445D01*
X934Y1445D01*
X934Y1441D01*
X936Y1441D01*
X936Y1439D01*
X938Y1439D01*
X938Y1437D01*
X960Y1437D01*
X960Y1439D01*
X962Y1439D01*
X962Y1443D01*
X964Y1443D01*
X964Y1445D01*
X966Y1445D01*
X966Y1447D01*
X968Y1447D01*
X968Y1449D01*
X972Y1449D01*
X972Y1451D01*
X974Y1451D01*
X974Y1453D01*
X978Y1453D01*
X978Y1455D01*
X982Y1455D01*
X982Y1457D01*
X990Y1457D01*
X990Y1459D01*
X908Y1459D01*
G37*
D02*
G36*
X1008Y1459D02*
X1008Y1457D01*
X1014Y1457D01*
X1014Y1455D01*
X1020Y1455D01*
X1020Y1453D01*
X1024Y1453D01*
X1024Y1451D01*
X1026Y1451D01*
X1026Y1449D01*
X1028Y1449D01*
X1028Y1447D01*
X1032Y1447D01*
X1032Y1445D01*
X1034Y1445D01*
X1034Y1441D01*
X1036Y1441D01*
X1036Y1439D01*
X1038Y1439D01*
X1038Y1437D01*
X1060Y1437D01*
X1060Y1439D01*
X1062Y1439D01*
X1062Y1443D01*
X1064Y1443D01*
X1064Y1445D01*
X1066Y1445D01*
X1066Y1447D01*
X1068Y1447D01*
X1068Y1449D01*
X1072Y1449D01*
X1072Y1451D01*
X1074Y1451D01*
X1074Y1453D01*
X1078Y1453D01*
X1078Y1455D01*
X1082Y1455D01*
X1082Y1457D01*
X1090Y1457D01*
X1090Y1459D01*
X1008Y1459D01*
G37*
D02*
G36*
X1108Y1459D02*
X1108Y1457D01*
X1114Y1457D01*
X1114Y1455D01*
X1120Y1455D01*
X1120Y1453D01*
X1124Y1453D01*
X1124Y1451D01*
X1126Y1451D01*
X1126Y1449D01*
X1128Y1449D01*
X1128Y1447D01*
X1132Y1447D01*
X1132Y1445D01*
X1134Y1445D01*
X1134Y1441D01*
X1136Y1441D01*
X1136Y1439D01*
X1138Y1439D01*
X1138Y1437D01*
X1160Y1437D01*
X1160Y1439D01*
X1162Y1439D01*
X1162Y1443D01*
X1164Y1443D01*
X1164Y1445D01*
X1166Y1445D01*
X1166Y1447D01*
X1168Y1447D01*
X1168Y1449D01*
X1172Y1449D01*
X1172Y1451D01*
X1174Y1451D01*
X1174Y1453D01*
X1178Y1453D01*
X1178Y1455D01*
X1182Y1455D01*
X1182Y1457D01*
X1190Y1457D01*
X1190Y1459D01*
X1108Y1459D01*
G37*
D02*
G36*
X1240Y1391D02*
X1240Y1387D01*
X1238Y1387D01*
X1238Y1383D01*
X1236Y1383D01*
X1236Y1381D01*
X1234Y1381D01*
X1234Y1379D01*
X1232Y1379D01*
X1232Y1377D01*
X1230Y1377D01*
X1230Y1375D01*
X1228Y1375D01*
X1228Y1373D01*
X1224Y1373D01*
X1224Y1371D01*
X1222Y1371D01*
X1222Y1335D01*
X1278Y1335D01*
X1278Y1371D01*
X1276Y1371D01*
X1276Y1373D01*
X1272Y1373D01*
X1272Y1375D01*
X1270Y1375D01*
X1270Y1377D01*
X1268Y1377D01*
X1268Y1379D01*
X1266Y1379D01*
X1266Y1381D01*
X1264Y1381D01*
X1264Y1385D01*
X1262Y1385D01*
X1262Y1389D01*
X1260Y1389D01*
X1260Y1391D01*
X1240Y1391D01*
G37*
D02*
G36*
X1038Y1387D02*
X1038Y1383D01*
X1036Y1383D01*
X1036Y1381D01*
X1034Y1381D01*
X1034Y1379D01*
X1032Y1379D01*
X1032Y1377D01*
X1030Y1377D01*
X1030Y1375D01*
X1028Y1375D01*
X1028Y1373D01*
X1024Y1373D01*
X1024Y1371D01*
X1022Y1371D01*
X1022Y1369D01*
X1018Y1369D01*
X1018Y1367D01*
X1012Y1367D01*
X1012Y1365D01*
X1086Y1365D01*
X1086Y1367D01*
X1080Y1367D01*
X1080Y1369D01*
X1076Y1369D01*
X1076Y1371D01*
X1072Y1371D01*
X1072Y1373D01*
X1070Y1373D01*
X1070Y1375D01*
X1068Y1375D01*
X1068Y1377D01*
X1066Y1377D01*
X1066Y1379D01*
X1064Y1379D01*
X1064Y1381D01*
X1062Y1381D01*
X1062Y1383D01*
X1060Y1383D01*
X1060Y1385D01*
X1058Y1385D01*
X1058Y1387D01*
X1038Y1387D01*
G37*
D02*
G36*
X1138Y1387D02*
X1138Y1383D01*
X1136Y1383D01*
X1136Y1381D01*
X1134Y1381D01*
X1134Y1379D01*
X1132Y1379D01*
X1132Y1377D01*
X1130Y1377D01*
X1130Y1375D01*
X1128Y1375D01*
X1128Y1373D01*
X1124Y1373D01*
X1124Y1371D01*
X1122Y1371D01*
X1122Y1369D01*
X1118Y1369D01*
X1118Y1367D01*
X1112Y1367D01*
X1112Y1365D01*
X1178Y1365D01*
X1178Y1369D01*
X1176Y1369D01*
X1176Y1371D01*
X1172Y1371D01*
X1172Y1373D01*
X1170Y1373D01*
X1170Y1375D01*
X1168Y1375D01*
X1168Y1377D01*
X1166Y1377D01*
X1166Y1379D01*
X1164Y1379D01*
X1164Y1381D01*
X1162Y1381D01*
X1162Y1383D01*
X1160Y1383D01*
X1160Y1385D01*
X1158Y1385D01*
X1158Y1387D01*
X1138Y1387D01*
G37*
D02*
G36*
X998Y1365D02*
X998Y1363D01*
X1178Y1363D01*
X1178Y1365D01*
X998Y1365D01*
G37*
D02*
G36*
X998Y1365D02*
X998Y1363D01*
X1178Y1363D01*
X1178Y1365D01*
X998Y1365D01*
G37*
D02*
G36*
X998Y1363D02*
X998Y1345D01*
X1000Y1345D01*
X1000Y1343D01*
X1002Y1343D01*
X1002Y1341D01*
X1004Y1341D01*
X1004Y1339D01*
X1006Y1339D01*
X1006Y1337D01*
X1008Y1337D01*
X1008Y1335D01*
X1178Y1335D01*
X1178Y1363D01*
X998Y1363D01*
G37*
D02*
G36*
X798Y1363D02*
X798Y1345D01*
X800Y1345D01*
X800Y1343D01*
X802Y1343D01*
X802Y1341D01*
X804Y1341D01*
X804Y1339D01*
X806Y1339D01*
X806Y1337D01*
X808Y1337D01*
X808Y1335D01*
X810Y1335D01*
X810Y1333D01*
X812Y1333D01*
X812Y1331D01*
X814Y1331D01*
X814Y1329D01*
X816Y1329D01*
X816Y1327D01*
X818Y1327D01*
X818Y1325D01*
X820Y1325D01*
X820Y1323D01*
X822Y1323D01*
X822Y1321D01*
X824Y1321D01*
X824Y1319D01*
X826Y1319D01*
X826Y1317D01*
X828Y1317D01*
X828Y1315D01*
X830Y1315D01*
X830Y1313D01*
X832Y1313D01*
X832Y1311D01*
X834Y1311D01*
X834Y1309D01*
X836Y1309D01*
X836Y1307D01*
X838Y1307D01*
X838Y1305D01*
X840Y1305D01*
X840Y1303D01*
X842Y1303D01*
X842Y1301D01*
X844Y1301D01*
X844Y1299D01*
X846Y1299D01*
X846Y1297D01*
X848Y1297D01*
X848Y1295D01*
X850Y1295D01*
X850Y1293D01*
X852Y1293D01*
X852Y1291D01*
X854Y1291D01*
X854Y1289D01*
X856Y1289D01*
X856Y1287D01*
X858Y1287D01*
X858Y1285D01*
X860Y1285D01*
X860Y1281D01*
X862Y1281D01*
X862Y1279D01*
X864Y1279D01*
X864Y1277D01*
X866Y1277D01*
X866Y1275D01*
X868Y1275D01*
X868Y1273D01*
X870Y1273D01*
X870Y1271D01*
X872Y1271D01*
X872Y1269D01*
X874Y1269D01*
X874Y1267D01*
X876Y1267D01*
X876Y1265D01*
X878Y1265D01*
X878Y1263D01*
X880Y1263D01*
X880Y1261D01*
X882Y1261D01*
X882Y1259D01*
X902Y1259D01*
X902Y1279D01*
X900Y1279D01*
X900Y1281D01*
X898Y1281D01*
X898Y1283D01*
X896Y1283D01*
X896Y1285D01*
X894Y1285D01*
X894Y1287D01*
X892Y1287D01*
X892Y1289D01*
X890Y1289D01*
X890Y1291D01*
X888Y1291D01*
X888Y1293D01*
X886Y1293D01*
X886Y1295D01*
X884Y1295D01*
X884Y1297D01*
X882Y1297D01*
X882Y1299D01*
X880Y1299D01*
X880Y1301D01*
X878Y1301D01*
X878Y1303D01*
X876Y1303D01*
X876Y1305D01*
X874Y1305D01*
X874Y1307D01*
X872Y1307D01*
X872Y1309D01*
X870Y1309D01*
X870Y1311D01*
X868Y1311D01*
X868Y1313D01*
X866Y1313D01*
X866Y1315D01*
X864Y1315D01*
X864Y1317D01*
X862Y1317D01*
X862Y1319D01*
X860Y1319D01*
X860Y1321D01*
X858Y1321D01*
X858Y1323D01*
X856Y1323D01*
X856Y1325D01*
X854Y1325D01*
X854Y1327D01*
X852Y1327D01*
X852Y1329D01*
X850Y1329D01*
X850Y1331D01*
X848Y1331D01*
X848Y1333D01*
X846Y1333D01*
X846Y1335D01*
X844Y1335D01*
X844Y1337D01*
X842Y1337D01*
X842Y1339D01*
X840Y1339D01*
X840Y1341D01*
X838Y1341D01*
X838Y1343D01*
X836Y1343D01*
X836Y1345D01*
X834Y1345D01*
X834Y1347D01*
X832Y1347D01*
X832Y1349D01*
X830Y1349D01*
X830Y1351D01*
X828Y1351D01*
X828Y1353D01*
X826Y1353D01*
X826Y1355D01*
X824Y1355D01*
X824Y1357D01*
X822Y1357D01*
X822Y1359D01*
X820Y1359D01*
X820Y1361D01*
X818Y1361D01*
X818Y1363D01*
X798Y1363D01*
G37*
D02*
G36*
X1542Y1191D02*
X1542Y1187D01*
X1540Y1187D01*
X1540Y1183D01*
X1538Y1183D01*
X1538Y1181D01*
X1536Y1181D01*
X1536Y1179D01*
X1534Y1179D01*
X1534Y1177D01*
X1532Y1177D01*
X1532Y1175D01*
X1530Y1175D01*
X1530Y1173D01*
X1528Y1173D01*
X1528Y1171D01*
X1526Y1171D01*
X1526Y1151D01*
X1528Y1151D01*
X1528Y1149D01*
X1532Y1149D01*
X1532Y1147D01*
X1534Y1147D01*
X1534Y1145D01*
X1536Y1145D01*
X1536Y1141D01*
X1538Y1141D01*
X1538Y1139D01*
X1540Y1139D01*
X1540Y1135D01*
X1542Y1135D01*
X1542Y1133D01*
X1544Y1133D01*
X1544Y1127D01*
X1546Y1127D01*
X1546Y1119D01*
X1548Y1119D01*
X1548Y1109D01*
X1568Y1109D01*
X1568Y1111D01*
X1570Y1111D01*
X1570Y1113D01*
X1572Y1113D01*
X1572Y1115D01*
X1574Y1115D01*
X1574Y1117D01*
X1576Y1117D01*
X1576Y1119D01*
X1578Y1119D01*
X1578Y1191D01*
X1542Y1191D01*
G37*
D02*
G36*
X740Y1089D02*
X740Y1087D01*
X958Y1087D01*
X958Y1089D01*
X740Y1089D01*
G37*
D02*
G36*
X1040Y1089D02*
X1040Y1087D01*
X1038Y1087D01*
X1038Y1083D01*
X1036Y1083D01*
X1036Y1081D01*
X1034Y1081D01*
X1034Y1079D01*
X1032Y1079D01*
X1032Y1077D01*
X1030Y1077D01*
X1030Y1075D01*
X1028Y1075D01*
X1028Y1073D01*
X1024Y1073D01*
X1024Y1071D01*
X1022Y1071D01*
X1022Y1069D01*
X1018Y1069D01*
X1018Y1067D01*
X1012Y1067D01*
X1012Y1065D01*
X1286Y1065D01*
X1286Y1067D01*
X1280Y1067D01*
X1280Y1069D01*
X1276Y1069D01*
X1276Y1071D01*
X1272Y1071D01*
X1272Y1073D01*
X1270Y1073D01*
X1270Y1075D01*
X1268Y1075D01*
X1268Y1077D01*
X1266Y1077D01*
X1266Y1079D01*
X1264Y1079D01*
X1264Y1081D01*
X1262Y1081D01*
X1262Y1083D01*
X1260Y1083D01*
X1260Y1085D01*
X1258Y1085D01*
X1258Y1089D01*
X1040Y1089D01*
G37*
D02*
G36*
X738Y1087D02*
X738Y1083D01*
X736Y1083D01*
X736Y1081D01*
X734Y1081D01*
X734Y1079D01*
X732Y1079D01*
X732Y1077D01*
X730Y1077D01*
X730Y1075D01*
X728Y1075D01*
X728Y1073D01*
X724Y1073D01*
X724Y1071D01*
X722Y1071D01*
X722Y1069D01*
X718Y1069D01*
X718Y1067D01*
X712Y1067D01*
X712Y1065D01*
X986Y1065D01*
X986Y1067D01*
X980Y1067D01*
X980Y1069D01*
X976Y1069D01*
X976Y1071D01*
X972Y1071D01*
X972Y1073D01*
X970Y1073D01*
X970Y1075D01*
X968Y1075D01*
X968Y1077D01*
X966Y1077D01*
X966Y1079D01*
X964Y1079D01*
X964Y1081D01*
X962Y1081D01*
X962Y1083D01*
X960Y1083D01*
X960Y1085D01*
X958Y1085D01*
X958Y1087D01*
X738Y1087D01*
G37*
D02*
G36*
X1338Y1087D02*
X1338Y1083D01*
X1336Y1083D01*
X1336Y1081D01*
X1334Y1081D01*
X1334Y1079D01*
X1332Y1079D01*
X1332Y1077D01*
X1330Y1077D01*
X1330Y1075D01*
X1328Y1075D01*
X1328Y1073D01*
X1324Y1073D01*
X1324Y1071D01*
X1322Y1071D01*
X1322Y1069D01*
X1318Y1069D01*
X1318Y1067D01*
X1312Y1067D01*
X1312Y1065D01*
X1380Y1065D01*
X1380Y1067D01*
X1376Y1067D01*
X1376Y1069D01*
X1374Y1069D01*
X1374Y1071D01*
X1370Y1071D01*
X1370Y1073D01*
X1368Y1073D01*
X1368Y1075D01*
X1366Y1075D01*
X1366Y1077D01*
X1364Y1077D01*
X1364Y1079D01*
X1362Y1079D01*
X1362Y1081D01*
X1360Y1081D01*
X1360Y1083D01*
X1358Y1083D01*
X1358Y1087D01*
X1338Y1087D01*
G37*
D02*
G36*
X1438Y1083D02*
X1438Y1081D01*
X1436Y1081D01*
X1436Y1079D01*
X1434Y1079D01*
X1434Y1077D01*
X1432Y1077D01*
X1432Y1075D01*
X1430Y1075D01*
X1430Y1073D01*
X1428Y1073D01*
X1428Y1071D01*
X1424Y1071D01*
X1424Y1069D01*
X1420Y1069D01*
X1420Y1067D01*
X1416Y1067D01*
X1416Y1065D01*
X1410Y1065D01*
X1410Y1063D01*
X1488Y1063D01*
X1488Y1065D01*
X1480Y1065D01*
X1480Y1067D01*
X1476Y1067D01*
X1476Y1069D01*
X1474Y1069D01*
X1474Y1071D01*
X1470Y1071D01*
X1470Y1073D01*
X1468Y1073D01*
X1468Y1075D01*
X1466Y1075D01*
X1466Y1077D01*
X1464Y1077D01*
X1464Y1079D01*
X1462Y1079D01*
X1462Y1081D01*
X1460Y1081D01*
X1460Y1083D01*
X1438Y1083D01*
G37*
D02*
G36*
X682Y1065D02*
X682Y1063D01*
X1388Y1063D01*
X1388Y1065D01*
X682Y1065D01*
G37*
D02*
G36*
X682Y1065D02*
X682Y1063D01*
X1388Y1063D01*
X1388Y1065D01*
X682Y1065D01*
G37*
D02*
G36*
X682Y1065D02*
X682Y1063D01*
X1388Y1063D01*
X1388Y1065D01*
X682Y1065D01*
G37*
D02*
G36*
X680Y1063D02*
X680Y1061D01*
X1502Y1061D01*
X1502Y1063D01*
X680Y1063D01*
G37*
D02*
G36*
X680Y1063D02*
X680Y1061D01*
X1502Y1061D01*
X1502Y1063D01*
X680Y1063D01*
G37*
D02*
G36*
X678Y1061D02*
X678Y1059D01*
X676Y1059D01*
X676Y1057D01*
X674Y1057D01*
X674Y1055D01*
X672Y1055D01*
X672Y1053D01*
X670Y1053D01*
X670Y1051D01*
X668Y1051D01*
X668Y1049D01*
X666Y1049D01*
X666Y1047D01*
X664Y1047D01*
X664Y1045D01*
X662Y1045D01*
X662Y1043D01*
X660Y1043D01*
X660Y1041D01*
X658Y1041D01*
X658Y1039D01*
X656Y1039D01*
X656Y1037D01*
X654Y1037D01*
X654Y1035D01*
X652Y1035D01*
X652Y1033D01*
X650Y1033D01*
X650Y1031D01*
X648Y1031D01*
X648Y1029D01*
X646Y1029D01*
X646Y1027D01*
X644Y1027D01*
X644Y1025D01*
X642Y1025D01*
X642Y1023D01*
X640Y1023D01*
X640Y1021D01*
X638Y1021D01*
X638Y1019D01*
X636Y1019D01*
X636Y1017D01*
X634Y1017D01*
X634Y1015D01*
X632Y1015D01*
X632Y1013D01*
X630Y1013D01*
X630Y1011D01*
X628Y1011D01*
X628Y1009D01*
X626Y1009D01*
X626Y1007D01*
X624Y1007D01*
X624Y1005D01*
X622Y1005D01*
X622Y1003D01*
X620Y1003D01*
X620Y1001D01*
X618Y1001D01*
X618Y999D01*
X616Y999D01*
X616Y997D01*
X614Y997D01*
X614Y995D01*
X612Y995D01*
X612Y993D01*
X610Y993D01*
X610Y991D01*
X608Y991D01*
X608Y989D01*
X606Y989D01*
X606Y987D01*
X604Y987D01*
X604Y985D01*
X602Y985D01*
X602Y983D01*
X600Y983D01*
X600Y981D01*
X598Y981D01*
X598Y979D01*
X596Y979D01*
X596Y977D01*
X594Y977D01*
X594Y975D01*
X592Y975D01*
X592Y973D01*
X590Y973D01*
X590Y971D01*
X588Y971D01*
X588Y969D01*
X586Y969D01*
X586Y967D01*
X584Y967D01*
X584Y965D01*
X582Y965D01*
X582Y963D01*
X580Y963D01*
X580Y961D01*
X578Y961D01*
X578Y959D01*
X576Y959D01*
X576Y957D01*
X574Y957D01*
X574Y955D01*
X572Y955D01*
X572Y953D01*
X570Y953D01*
X570Y951D01*
X568Y951D01*
X568Y949D01*
X566Y949D01*
X566Y947D01*
X564Y947D01*
X564Y945D01*
X562Y945D01*
X562Y943D01*
X560Y943D01*
X560Y941D01*
X558Y941D01*
X558Y939D01*
X556Y939D01*
X556Y937D01*
X554Y937D01*
X554Y935D01*
X1180Y935D01*
X1180Y933D01*
X1392Y933D01*
X1392Y935D01*
X1394Y935D01*
X1394Y937D01*
X1396Y937D01*
X1396Y939D01*
X1398Y939D01*
X1398Y941D01*
X1400Y941D01*
X1400Y943D01*
X1402Y943D01*
X1402Y945D01*
X1404Y945D01*
X1404Y947D01*
X1406Y947D01*
X1406Y949D01*
X1408Y949D01*
X1408Y951D01*
X1410Y951D01*
X1410Y953D01*
X1412Y953D01*
X1412Y955D01*
X1414Y955D01*
X1414Y957D01*
X1416Y957D01*
X1416Y959D01*
X1418Y959D01*
X1418Y961D01*
X1420Y961D01*
X1420Y963D01*
X1422Y963D01*
X1422Y965D01*
X1424Y965D01*
X1424Y967D01*
X1426Y967D01*
X1426Y969D01*
X1428Y969D01*
X1428Y971D01*
X1430Y971D01*
X1430Y973D01*
X1432Y973D01*
X1432Y975D01*
X1434Y975D01*
X1434Y977D01*
X1436Y977D01*
X1436Y979D01*
X1438Y979D01*
X1438Y981D01*
X1440Y981D01*
X1440Y983D01*
X1442Y983D01*
X1442Y985D01*
X1444Y985D01*
X1444Y987D01*
X1446Y987D01*
X1446Y989D01*
X1448Y989D01*
X1448Y991D01*
X1450Y991D01*
X1450Y993D01*
X1452Y993D01*
X1452Y995D01*
X1454Y995D01*
X1454Y997D01*
X1456Y997D01*
X1456Y999D01*
X1458Y999D01*
X1458Y1001D01*
X1460Y1001D01*
X1460Y1003D01*
X1462Y1003D01*
X1462Y1005D01*
X1464Y1005D01*
X1464Y1007D01*
X1466Y1007D01*
X1466Y1009D01*
X1468Y1009D01*
X1468Y1011D01*
X1470Y1011D01*
X1470Y1013D01*
X1472Y1013D01*
X1472Y1015D01*
X1474Y1015D01*
X1474Y1017D01*
X1476Y1017D01*
X1476Y1019D01*
X1478Y1019D01*
X1478Y1021D01*
X1480Y1021D01*
X1480Y1023D01*
X1482Y1023D01*
X1482Y1025D01*
X1484Y1025D01*
X1484Y1027D01*
X1486Y1027D01*
X1486Y1029D01*
X1488Y1029D01*
X1488Y1031D01*
X1490Y1031D01*
X1490Y1033D01*
X1492Y1033D01*
X1492Y1035D01*
X1494Y1035D01*
X1494Y1037D01*
X1496Y1037D01*
X1496Y1039D01*
X1498Y1039D01*
X1498Y1041D01*
X1500Y1041D01*
X1500Y1043D01*
X1502Y1043D01*
X1502Y1061D01*
X678Y1061D01*
G37*
D02*
G36*
X552Y935D02*
X552Y933D01*
X550Y933D01*
X550Y931D01*
X548Y931D01*
X548Y929D01*
X546Y929D01*
X546Y927D01*
X544Y927D01*
X544Y925D01*
X542Y925D01*
X542Y923D01*
X540Y923D01*
X540Y921D01*
X538Y921D01*
X538Y919D01*
X536Y919D01*
X536Y917D01*
X534Y917D01*
X534Y915D01*
X532Y915D01*
X532Y913D01*
X530Y913D01*
X530Y911D01*
X528Y911D01*
X528Y909D01*
X526Y909D01*
X526Y907D01*
X524Y907D01*
X524Y905D01*
X522Y905D01*
X522Y903D01*
X520Y903D01*
X520Y901D01*
X518Y901D01*
X518Y899D01*
X516Y899D01*
X516Y897D01*
X514Y897D01*
X514Y895D01*
X512Y895D01*
X512Y893D01*
X510Y893D01*
X510Y891D01*
X508Y891D01*
X508Y889D01*
X506Y889D01*
X506Y887D01*
X504Y887D01*
X504Y885D01*
X502Y885D01*
X502Y883D01*
X500Y883D01*
X500Y881D01*
X498Y881D01*
X498Y879D01*
X496Y879D01*
X496Y877D01*
X494Y877D01*
X494Y875D01*
X492Y875D01*
X492Y873D01*
X490Y873D01*
X490Y871D01*
X488Y871D01*
X488Y869D01*
X486Y869D01*
X486Y867D01*
X484Y867D01*
X484Y865D01*
X482Y865D01*
X482Y863D01*
X480Y863D01*
X480Y861D01*
X478Y861D01*
X478Y859D01*
X476Y859D01*
X476Y857D01*
X474Y857D01*
X474Y855D01*
X472Y855D01*
X472Y853D01*
X470Y853D01*
X470Y851D01*
X468Y851D01*
X468Y849D01*
X466Y849D01*
X466Y847D01*
X464Y847D01*
X464Y845D01*
X462Y845D01*
X462Y843D01*
X460Y843D01*
X460Y841D01*
X458Y841D01*
X458Y839D01*
X456Y839D01*
X456Y837D01*
X454Y837D01*
X454Y835D01*
X452Y835D01*
X452Y833D01*
X450Y833D01*
X450Y831D01*
X448Y831D01*
X448Y829D01*
X446Y829D01*
X446Y827D01*
X444Y827D01*
X444Y825D01*
X442Y825D01*
X442Y823D01*
X440Y823D01*
X440Y821D01*
X438Y821D01*
X438Y819D01*
X436Y819D01*
X436Y817D01*
X434Y817D01*
X434Y815D01*
X432Y815D01*
X432Y813D01*
X430Y813D01*
X430Y811D01*
X428Y811D01*
X428Y809D01*
X426Y809D01*
X426Y807D01*
X424Y807D01*
X424Y805D01*
X422Y805D01*
X422Y803D01*
X420Y803D01*
X420Y613D01*
X418Y613D01*
X418Y603D01*
X416Y603D01*
X416Y599D01*
X414Y599D01*
X414Y597D01*
X412Y597D01*
X412Y595D01*
X410Y595D01*
X410Y593D01*
X408Y593D01*
X408Y591D01*
X406Y591D01*
X406Y589D01*
X404Y589D01*
X404Y587D01*
X402Y587D01*
X402Y585D01*
X400Y585D01*
X400Y583D01*
X398Y583D01*
X398Y581D01*
X396Y581D01*
X396Y579D01*
X394Y579D01*
X394Y577D01*
X392Y577D01*
X392Y575D01*
X390Y575D01*
X390Y573D01*
X388Y573D01*
X388Y571D01*
X386Y571D01*
X386Y569D01*
X384Y569D01*
X384Y567D01*
X382Y567D01*
X382Y565D01*
X380Y565D01*
X380Y563D01*
X378Y563D01*
X378Y561D01*
X376Y561D01*
X376Y559D01*
X374Y559D01*
X374Y557D01*
X372Y557D01*
X372Y555D01*
X370Y555D01*
X370Y553D01*
X368Y553D01*
X368Y551D01*
X366Y551D01*
X366Y549D01*
X364Y549D01*
X364Y547D01*
X362Y547D01*
X362Y545D01*
X360Y545D01*
X360Y543D01*
X358Y543D01*
X358Y541D01*
X356Y541D01*
X356Y539D01*
X354Y539D01*
X354Y537D01*
X352Y537D01*
X352Y535D01*
X350Y535D01*
X350Y533D01*
X348Y533D01*
X348Y531D01*
X346Y531D01*
X346Y529D01*
X344Y529D01*
X344Y527D01*
X342Y527D01*
X342Y525D01*
X340Y525D01*
X340Y523D01*
X338Y523D01*
X338Y521D01*
X336Y521D01*
X336Y519D01*
X334Y519D01*
X334Y517D01*
X332Y517D01*
X332Y515D01*
X330Y515D01*
X330Y513D01*
X328Y513D01*
X328Y511D01*
X326Y511D01*
X326Y509D01*
X324Y509D01*
X324Y507D01*
X322Y507D01*
X322Y505D01*
X320Y505D01*
X320Y503D01*
X318Y503D01*
X318Y501D01*
X316Y501D01*
X316Y499D01*
X314Y499D01*
X314Y497D01*
X312Y497D01*
X312Y495D01*
X310Y495D01*
X310Y493D01*
X308Y493D01*
X308Y491D01*
X306Y491D01*
X306Y489D01*
X304Y489D01*
X304Y487D01*
X302Y487D01*
X302Y485D01*
X300Y485D01*
X300Y483D01*
X298Y483D01*
X298Y481D01*
X296Y481D01*
X296Y479D01*
X294Y479D01*
X294Y477D01*
X292Y477D01*
X292Y475D01*
X290Y475D01*
X290Y473D01*
X288Y473D01*
X288Y471D01*
X286Y471D01*
X286Y469D01*
X284Y469D01*
X284Y467D01*
X282Y467D01*
X282Y465D01*
X280Y465D01*
X280Y463D01*
X278Y463D01*
X278Y461D01*
X276Y461D01*
X276Y459D01*
X274Y459D01*
X274Y457D01*
X272Y457D01*
X272Y455D01*
X270Y455D01*
X270Y453D01*
X268Y453D01*
X268Y451D01*
X266Y451D01*
X266Y449D01*
X264Y449D01*
X264Y447D01*
X262Y447D01*
X262Y445D01*
X260Y445D01*
X260Y443D01*
X258Y443D01*
X258Y441D01*
X256Y441D01*
X256Y439D01*
X254Y439D01*
X254Y437D01*
X252Y437D01*
X252Y435D01*
X250Y435D01*
X250Y433D01*
X248Y433D01*
X248Y431D01*
X246Y431D01*
X246Y429D01*
X244Y429D01*
X244Y427D01*
X242Y427D01*
X242Y425D01*
X240Y425D01*
X240Y423D01*
X238Y423D01*
X238Y421D01*
X236Y421D01*
X236Y419D01*
X234Y419D01*
X234Y417D01*
X232Y417D01*
X232Y415D01*
X230Y415D01*
X230Y413D01*
X228Y413D01*
X228Y411D01*
X226Y411D01*
X226Y409D01*
X224Y409D01*
X224Y407D01*
X222Y407D01*
X222Y405D01*
X220Y405D01*
X220Y403D01*
X218Y403D01*
X218Y401D01*
X216Y401D01*
X216Y399D01*
X214Y399D01*
X214Y397D01*
X212Y397D01*
X212Y395D01*
X210Y395D01*
X210Y393D01*
X208Y393D01*
X208Y391D01*
X206Y391D01*
X206Y389D01*
X204Y389D01*
X204Y387D01*
X202Y387D01*
X202Y385D01*
X200Y385D01*
X200Y383D01*
X198Y383D01*
X198Y363D01*
X220Y363D01*
X220Y365D01*
X222Y365D01*
X222Y367D01*
X224Y367D01*
X224Y369D01*
X226Y369D01*
X226Y371D01*
X228Y371D01*
X228Y373D01*
X230Y373D01*
X230Y375D01*
X232Y375D01*
X232Y377D01*
X234Y377D01*
X234Y379D01*
X236Y379D01*
X236Y381D01*
X238Y381D01*
X238Y383D01*
X240Y383D01*
X240Y385D01*
X242Y385D01*
X242Y387D01*
X244Y387D01*
X244Y389D01*
X246Y389D01*
X246Y391D01*
X248Y391D01*
X248Y393D01*
X250Y393D01*
X250Y395D01*
X252Y395D01*
X252Y397D01*
X254Y397D01*
X254Y399D01*
X256Y399D01*
X256Y401D01*
X258Y401D01*
X258Y403D01*
X260Y403D01*
X260Y405D01*
X262Y405D01*
X262Y407D01*
X264Y407D01*
X264Y409D01*
X266Y409D01*
X266Y411D01*
X268Y411D01*
X268Y413D01*
X270Y413D01*
X270Y415D01*
X272Y415D01*
X272Y417D01*
X274Y417D01*
X274Y419D01*
X276Y419D01*
X276Y421D01*
X278Y421D01*
X278Y423D01*
X280Y423D01*
X280Y425D01*
X282Y425D01*
X282Y427D01*
X286Y427D01*
X286Y429D01*
X288Y429D01*
X288Y431D01*
X390Y431D01*
X390Y433D01*
X392Y433D01*
X392Y435D01*
X394Y435D01*
X394Y437D01*
X396Y437D01*
X396Y439D01*
X398Y439D01*
X398Y441D01*
X400Y441D01*
X400Y443D01*
X402Y443D01*
X402Y445D01*
X404Y445D01*
X404Y447D01*
X406Y447D01*
X406Y449D01*
X408Y449D01*
X408Y451D01*
X410Y451D01*
X410Y453D01*
X412Y453D01*
X412Y455D01*
X414Y455D01*
X414Y457D01*
X416Y457D01*
X416Y459D01*
X418Y459D01*
X418Y461D01*
X420Y461D01*
X420Y463D01*
X422Y463D01*
X422Y465D01*
X424Y465D01*
X424Y467D01*
X426Y467D01*
X426Y469D01*
X428Y469D01*
X428Y473D01*
X430Y473D01*
X430Y475D01*
X432Y475D01*
X432Y477D01*
X434Y477D01*
X434Y479D01*
X436Y479D01*
X436Y481D01*
X438Y481D01*
X438Y483D01*
X440Y483D01*
X440Y485D01*
X442Y485D01*
X442Y487D01*
X444Y487D01*
X444Y489D01*
X446Y489D01*
X446Y491D01*
X448Y491D01*
X448Y493D01*
X450Y493D01*
X450Y495D01*
X452Y495D01*
X452Y497D01*
X454Y497D01*
X454Y499D01*
X456Y499D01*
X456Y501D01*
X458Y501D01*
X458Y503D01*
X460Y503D01*
X460Y505D01*
X462Y505D01*
X462Y507D01*
X464Y507D01*
X464Y509D01*
X466Y509D01*
X466Y511D01*
X468Y511D01*
X468Y513D01*
X470Y513D01*
X470Y515D01*
X472Y515D01*
X472Y517D01*
X474Y517D01*
X474Y521D01*
X476Y521D01*
X476Y571D01*
X472Y571D01*
X472Y573D01*
X470Y573D01*
X470Y575D01*
X468Y575D01*
X468Y577D01*
X466Y577D01*
X466Y579D01*
X464Y579D01*
X464Y581D01*
X462Y581D01*
X462Y583D01*
X460Y583D01*
X460Y585D01*
X458Y585D01*
X458Y589D01*
X456Y589D01*
X456Y593D01*
X454Y593D01*
X454Y599D01*
X452Y599D01*
X452Y623D01*
X454Y623D01*
X454Y629D01*
X456Y629D01*
X456Y633D01*
X458Y633D01*
X458Y637D01*
X460Y637D01*
X460Y639D01*
X462Y639D01*
X462Y643D01*
X464Y643D01*
X464Y645D01*
X466Y645D01*
X466Y647D01*
X468Y647D01*
X468Y649D01*
X472Y649D01*
X472Y651D01*
X474Y651D01*
X474Y653D01*
X476Y653D01*
X476Y697D01*
X478Y697D01*
X478Y817D01*
X480Y817D01*
X480Y821D01*
X482Y821D01*
X482Y825D01*
X484Y825D01*
X484Y827D01*
X486Y827D01*
X486Y829D01*
X488Y829D01*
X488Y831D01*
X490Y831D01*
X490Y833D01*
X492Y833D01*
X492Y835D01*
X494Y835D01*
X494Y837D01*
X496Y837D01*
X496Y839D01*
X498Y839D01*
X498Y841D01*
X500Y841D01*
X500Y843D01*
X502Y843D01*
X502Y845D01*
X504Y845D01*
X504Y847D01*
X506Y847D01*
X506Y849D01*
X508Y849D01*
X508Y851D01*
X510Y851D01*
X510Y853D01*
X512Y853D01*
X512Y855D01*
X514Y855D01*
X514Y857D01*
X516Y857D01*
X516Y859D01*
X518Y859D01*
X518Y861D01*
X520Y861D01*
X520Y863D01*
X522Y863D01*
X522Y865D01*
X524Y865D01*
X524Y867D01*
X526Y867D01*
X526Y871D01*
X528Y871D01*
X528Y873D01*
X530Y873D01*
X530Y875D01*
X532Y875D01*
X532Y877D01*
X534Y877D01*
X534Y879D01*
X536Y879D01*
X536Y881D01*
X538Y881D01*
X538Y883D01*
X540Y883D01*
X540Y885D01*
X542Y885D01*
X542Y887D01*
X544Y887D01*
X544Y889D01*
X546Y889D01*
X546Y891D01*
X548Y891D01*
X548Y893D01*
X550Y893D01*
X550Y895D01*
X552Y895D01*
X552Y897D01*
X554Y897D01*
X554Y899D01*
X556Y899D01*
X556Y901D01*
X558Y901D01*
X558Y903D01*
X560Y903D01*
X560Y905D01*
X562Y905D01*
X562Y907D01*
X564Y907D01*
X564Y909D01*
X566Y909D01*
X566Y911D01*
X568Y911D01*
X568Y913D01*
X570Y913D01*
X570Y915D01*
X572Y915D01*
X572Y917D01*
X574Y917D01*
X574Y919D01*
X576Y919D01*
X576Y921D01*
X578Y921D01*
X578Y925D01*
X580Y925D01*
X580Y927D01*
X582Y927D01*
X582Y929D01*
X586Y929D01*
X586Y931D01*
X588Y931D01*
X588Y933D01*
X598Y933D01*
X598Y935D01*
X552Y935D01*
G37*
D02*
G36*
X608Y891D02*
X608Y889D01*
X606Y889D01*
X606Y887D01*
X604Y887D01*
X604Y885D01*
X602Y885D01*
X602Y883D01*
X600Y883D01*
X600Y881D01*
X598Y881D01*
X598Y879D01*
X596Y879D01*
X596Y859D01*
X608Y859D01*
X608Y857D01*
X614Y857D01*
X614Y855D01*
X620Y855D01*
X620Y853D01*
X624Y853D01*
X624Y851D01*
X626Y851D01*
X626Y849D01*
X628Y849D01*
X628Y847D01*
X632Y847D01*
X632Y845D01*
X634Y845D01*
X634Y841D01*
X636Y841D01*
X636Y839D01*
X638Y839D01*
X638Y837D01*
X640Y837D01*
X640Y833D01*
X642Y833D01*
X642Y829D01*
X644Y829D01*
X644Y821D01*
X646Y821D01*
X646Y801D01*
X644Y801D01*
X644Y795D01*
X642Y795D01*
X642Y791D01*
X640Y791D01*
X640Y787D01*
X638Y787D01*
X638Y783D01*
X636Y783D01*
X636Y781D01*
X634Y781D01*
X634Y779D01*
X632Y779D01*
X632Y777D01*
X630Y777D01*
X630Y775D01*
X628Y775D01*
X628Y773D01*
X624Y773D01*
X624Y771D01*
X622Y771D01*
X622Y759D01*
X708Y759D01*
X708Y757D01*
X714Y757D01*
X714Y755D01*
X720Y755D01*
X720Y753D01*
X724Y753D01*
X724Y751D01*
X726Y751D01*
X726Y749D01*
X728Y749D01*
X728Y747D01*
X732Y747D01*
X732Y745D01*
X734Y745D01*
X734Y741D01*
X736Y741D01*
X736Y739D01*
X738Y739D01*
X738Y737D01*
X740Y737D01*
X740Y733D01*
X742Y733D01*
X742Y729D01*
X744Y729D01*
X744Y721D01*
X746Y721D01*
X746Y701D01*
X744Y701D01*
X744Y695D01*
X742Y695D01*
X742Y691D01*
X740Y691D01*
X740Y687D01*
X738Y687D01*
X738Y683D01*
X736Y683D01*
X736Y681D01*
X734Y681D01*
X734Y679D01*
X732Y679D01*
X732Y677D01*
X730Y677D01*
X730Y675D01*
X728Y675D01*
X728Y673D01*
X724Y673D01*
X724Y651D01*
X726Y651D01*
X726Y649D01*
X728Y649D01*
X728Y647D01*
X732Y647D01*
X732Y645D01*
X734Y645D01*
X734Y641D01*
X736Y641D01*
X736Y639D01*
X738Y639D01*
X738Y637D01*
X760Y637D01*
X760Y639D01*
X762Y639D01*
X762Y643D01*
X764Y643D01*
X764Y645D01*
X766Y645D01*
X766Y647D01*
X768Y647D01*
X768Y649D01*
X772Y649D01*
X772Y651D01*
X774Y651D01*
X774Y653D01*
X776Y653D01*
X776Y665D01*
X778Y665D01*
X778Y891D01*
X608Y891D01*
G37*
D02*
G36*
X622Y759D02*
X622Y653D01*
X624Y653D01*
X624Y651D01*
X626Y651D01*
X626Y649D01*
X628Y649D01*
X628Y647D01*
X632Y647D01*
X632Y645D01*
X634Y645D01*
X634Y641D01*
X636Y641D01*
X636Y639D01*
X638Y639D01*
X638Y637D01*
X660Y637D01*
X660Y639D01*
X662Y639D01*
X662Y643D01*
X664Y643D01*
X664Y645D01*
X666Y645D01*
X666Y647D01*
X668Y647D01*
X668Y649D01*
X672Y649D01*
X672Y651D01*
X674Y651D01*
X674Y671D01*
X672Y671D01*
X672Y673D01*
X670Y673D01*
X670Y675D01*
X668Y675D01*
X668Y677D01*
X666Y677D01*
X666Y679D01*
X664Y679D01*
X664Y681D01*
X662Y681D01*
X662Y683D01*
X660Y683D01*
X660Y685D01*
X658Y685D01*
X658Y689D01*
X656Y689D01*
X656Y693D01*
X654Y693D01*
X654Y699D01*
X652Y699D01*
X652Y723D01*
X654Y723D01*
X654Y729D01*
X656Y729D01*
X656Y733D01*
X658Y733D01*
X658Y737D01*
X660Y737D01*
X660Y739D01*
X662Y739D01*
X662Y743D01*
X664Y743D01*
X664Y745D01*
X666Y745D01*
X666Y747D01*
X668Y747D01*
X668Y749D01*
X672Y749D01*
X672Y751D01*
X674Y751D01*
X674Y753D01*
X678Y753D01*
X678Y755D01*
X682Y755D01*
X682Y757D01*
X690Y757D01*
X690Y759D01*
X622Y759D01*
G37*
D02*
G36*
X822Y891D02*
X822Y859D01*
X908Y859D01*
X908Y857D01*
X914Y857D01*
X914Y855D01*
X920Y855D01*
X920Y853D01*
X924Y853D01*
X924Y851D01*
X926Y851D01*
X926Y849D01*
X928Y849D01*
X928Y847D01*
X932Y847D01*
X932Y845D01*
X934Y845D01*
X934Y841D01*
X936Y841D01*
X936Y839D01*
X938Y839D01*
X938Y837D01*
X940Y837D01*
X940Y833D01*
X942Y833D01*
X942Y829D01*
X944Y829D01*
X944Y821D01*
X946Y821D01*
X946Y801D01*
X944Y801D01*
X944Y795D01*
X942Y795D01*
X942Y791D01*
X940Y791D01*
X940Y787D01*
X938Y787D01*
X938Y783D01*
X936Y783D01*
X936Y781D01*
X934Y781D01*
X934Y779D01*
X932Y779D01*
X932Y777D01*
X930Y777D01*
X930Y775D01*
X928Y775D01*
X928Y773D01*
X924Y773D01*
X924Y771D01*
X922Y771D01*
X922Y769D01*
X920Y769D01*
X920Y759D01*
X1008Y759D01*
X1008Y757D01*
X1014Y757D01*
X1014Y755D01*
X1020Y755D01*
X1020Y753D01*
X1024Y753D01*
X1024Y751D01*
X1026Y751D01*
X1026Y749D01*
X1028Y749D01*
X1028Y747D01*
X1032Y747D01*
X1032Y745D01*
X1034Y745D01*
X1034Y741D01*
X1036Y741D01*
X1036Y739D01*
X1038Y739D01*
X1038Y737D01*
X1040Y737D01*
X1040Y733D01*
X1042Y733D01*
X1042Y729D01*
X1044Y729D01*
X1044Y721D01*
X1046Y721D01*
X1046Y701D01*
X1044Y701D01*
X1044Y695D01*
X1042Y695D01*
X1042Y691D01*
X1040Y691D01*
X1040Y687D01*
X1038Y687D01*
X1038Y683D01*
X1036Y683D01*
X1036Y681D01*
X1034Y681D01*
X1034Y679D01*
X1032Y679D01*
X1032Y677D01*
X1030Y677D01*
X1030Y675D01*
X1028Y675D01*
X1028Y673D01*
X1024Y673D01*
X1024Y651D01*
X1026Y651D01*
X1026Y649D01*
X1028Y649D01*
X1028Y647D01*
X1032Y647D01*
X1032Y645D01*
X1034Y645D01*
X1034Y641D01*
X1036Y641D01*
X1036Y639D01*
X1038Y639D01*
X1038Y637D01*
X1060Y637D01*
X1060Y639D01*
X1062Y639D01*
X1062Y643D01*
X1064Y643D01*
X1064Y645D01*
X1066Y645D01*
X1066Y647D01*
X1068Y647D01*
X1068Y649D01*
X1072Y649D01*
X1072Y651D01*
X1074Y651D01*
X1074Y653D01*
X1076Y653D01*
X1076Y891D01*
X822Y891D01*
G37*
D02*
G36*
X822Y859D02*
X822Y653D01*
X824Y653D01*
X824Y651D01*
X826Y651D01*
X826Y649D01*
X828Y649D01*
X828Y647D01*
X832Y647D01*
X832Y645D01*
X834Y645D01*
X834Y641D01*
X836Y641D01*
X836Y639D01*
X838Y639D01*
X838Y637D01*
X860Y637D01*
X860Y639D01*
X862Y639D01*
X862Y643D01*
X864Y643D01*
X864Y645D01*
X866Y645D01*
X866Y647D01*
X868Y647D01*
X868Y649D01*
X872Y649D01*
X872Y651D01*
X874Y651D01*
X874Y653D01*
X876Y653D01*
X876Y771D01*
X872Y771D01*
X872Y773D01*
X870Y773D01*
X870Y775D01*
X868Y775D01*
X868Y777D01*
X866Y777D01*
X866Y779D01*
X864Y779D01*
X864Y781D01*
X862Y781D01*
X862Y783D01*
X860Y783D01*
X860Y785D01*
X858Y785D01*
X858Y789D01*
X856Y789D01*
X856Y793D01*
X854Y793D01*
X854Y799D01*
X852Y799D01*
X852Y823D01*
X854Y823D01*
X854Y829D01*
X856Y829D01*
X856Y833D01*
X858Y833D01*
X858Y837D01*
X860Y837D01*
X860Y839D01*
X862Y839D01*
X862Y843D01*
X864Y843D01*
X864Y845D01*
X866Y845D01*
X866Y847D01*
X868Y847D01*
X868Y849D01*
X872Y849D01*
X872Y851D01*
X874Y851D01*
X874Y853D01*
X878Y853D01*
X878Y855D01*
X882Y855D01*
X882Y857D01*
X890Y857D01*
X890Y859D01*
X822Y859D01*
G37*
D02*
G36*
X920Y759D02*
X920Y653D01*
X924Y653D01*
X924Y651D01*
X926Y651D01*
X926Y649D01*
X928Y649D01*
X928Y647D01*
X932Y647D01*
X932Y645D01*
X934Y645D01*
X934Y641D01*
X936Y641D01*
X936Y639D01*
X938Y639D01*
X938Y637D01*
X960Y637D01*
X960Y639D01*
X962Y639D01*
X962Y643D01*
X964Y643D01*
X964Y645D01*
X966Y645D01*
X966Y647D01*
X968Y647D01*
X968Y649D01*
X972Y649D01*
X972Y651D01*
X974Y651D01*
X974Y671D01*
X972Y671D01*
X972Y673D01*
X970Y673D01*
X970Y675D01*
X968Y675D01*
X968Y677D01*
X966Y677D01*
X966Y679D01*
X964Y679D01*
X964Y681D01*
X962Y681D01*
X962Y683D01*
X960Y683D01*
X960Y685D01*
X958Y685D01*
X958Y689D01*
X956Y689D01*
X956Y693D01*
X954Y693D01*
X954Y699D01*
X952Y699D01*
X952Y723D01*
X954Y723D01*
X954Y729D01*
X956Y729D01*
X956Y733D01*
X958Y733D01*
X958Y737D01*
X960Y737D01*
X960Y739D01*
X962Y739D01*
X962Y743D01*
X964Y743D01*
X964Y745D01*
X966Y745D01*
X966Y747D01*
X968Y747D01*
X968Y749D01*
X972Y749D01*
X972Y751D01*
X974Y751D01*
X974Y753D01*
X978Y753D01*
X978Y755D01*
X982Y755D01*
X982Y757D01*
X990Y757D01*
X990Y759D01*
X920Y759D01*
G37*
D02*
G36*
X532Y813D02*
X532Y811D01*
X530Y811D01*
X530Y809D01*
X528Y809D01*
X528Y807D01*
X526Y807D01*
X526Y805D01*
X524Y805D01*
X524Y803D01*
X522Y803D01*
X522Y693D01*
X520Y693D01*
X520Y653D01*
X524Y653D01*
X524Y651D01*
X526Y651D01*
X526Y649D01*
X528Y649D01*
X528Y647D01*
X532Y647D01*
X532Y645D01*
X534Y645D01*
X534Y641D01*
X536Y641D01*
X536Y639D01*
X538Y639D01*
X538Y637D01*
X560Y637D01*
X560Y639D01*
X562Y639D01*
X562Y643D01*
X564Y643D01*
X564Y645D01*
X566Y645D01*
X566Y647D01*
X568Y647D01*
X568Y649D01*
X572Y649D01*
X572Y651D01*
X574Y651D01*
X574Y653D01*
X578Y653D01*
X578Y769D01*
X576Y769D01*
X576Y771D01*
X572Y771D01*
X572Y773D01*
X570Y773D01*
X570Y775D01*
X568Y775D01*
X568Y777D01*
X566Y777D01*
X566Y779D01*
X564Y779D01*
X564Y781D01*
X562Y781D01*
X562Y783D01*
X560Y783D01*
X560Y785D01*
X558Y785D01*
X558Y789D01*
X556Y789D01*
X556Y793D01*
X554Y793D01*
X554Y799D01*
X552Y799D01*
X552Y813D01*
X532Y813D01*
G37*
D02*
G36*
X538Y587D02*
X538Y583D01*
X536Y583D01*
X536Y581D01*
X534Y581D01*
X534Y579D01*
X532Y579D01*
X532Y577D01*
X530Y577D01*
X530Y575D01*
X528Y575D01*
X528Y573D01*
X524Y573D01*
X524Y571D01*
X522Y571D01*
X522Y569D01*
X520Y569D01*
X520Y565D01*
X586Y565D01*
X586Y567D01*
X580Y567D01*
X580Y569D01*
X576Y569D01*
X576Y571D01*
X572Y571D01*
X572Y573D01*
X570Y573D01*
X570Y575D01*
X568Y575D01*
X568Y577D01*
X566Y577D01*
X566Y579D01*
X564Y579D01*
X564Y581D01*
X562Y581D01*
X562Y583D01*
X560Y583D01*
X560Y585D01*
X558Y585D01*
X558Y587D01*
X538Y587D01*
G37*
D02*
G36*
X638Y587D02*
X638Y583D01*
X636Y583D01*
X636Y581D01*
X634Y581D01*
X634Y579D01*
X632Y579D01*
X632Y577D01*
X630Y577D01*
X630Y575D01*
X628Y575D01*
X628Y573D01*
X624Y573D01*
X624Y571D01*
X622Y571D01*
X622Y569D01*
X618Y569D01*
X618Y567D01*
X612Y567D01*
X612Y565D01*
X676Y565D01*
X676Y571D01*
X672Y571D01*
X672Y573D01*
X670Y573D01*
X670Y575D01*
X668Y575D01*
X668Y577D01*
X666Y577D01*
X666Y579D01*
X664Y579D01*
X664Y581D01*
X662Y581D01*
X662Y583D01*
X660Y583D01*
X660Y585D01*
X658Y585D01*
X658Y587D01*
X638Y587D01*
G37*
D02*
G36*
X520Y565D02*
X520Y563D01*
X676Y563D01*
X676Y565D01*
X520Y565D01*
G37*
D02*
G36*
X520Y565D02*
X520Y563D01*
X676Y563D01*
X676Y565D01*
X520Y565D01*
G37*
D02*
G36*
X520Y563D02*
X520Y507D01*
X518Y507D01*
X518Y501D01*
X516Y501D01*
X516Y499D01*
X514Y499D01*
X514Y497D01*
X512Y497D01*
X512Y495D01*
X510Y495D01*
X510Y491D01*
X508Y491D01*
X508Y489D01*
X506Y489D01*
X506Y487D01*
X504Y487D01*
X504Y485D01*
X502Y485D01*
X502Y483D01*
X500Y483D01*
X500Y481D01*
X498Y481D01*
X498Y479D01*
X496Y479D01*
X496Y477D01*
X494Y477D01*
X494Y475D01*
X492Y475D01*
X492Y473D01*
X490Y473D01*
X490Y471D01*
X488Y471D01*
X488Y469D01*
X486Y469D01*
X486Y467D01*
X484Y467D01*
X484Y465D01*
X482Y465D01*
X482Y463D01*
X480Y463D01*
X480Y461D01*
X478Y461D01*
X478Y459D01*
X476Y459D01*
X476Y457D01*
X474Y457D01*
X474Y455D01*
X472Y455D01*
X472Y453D01*
X470Y453D01*
X470Y451D01*
X468Y451D01*
X468Y449D01*
X466Y449D01*
X466Y447D01*
X464Y447D01*
X464Y443D01*
X462Y443D01*
X462Y441D01*
X460Y441D01*
X460Y439D01*
X458Y439D01*
X458Y437D01*
X456Y437D01*
X456Y435D01*
X454Y435D01*
X454Y433D01*
X452Y433D01*
X452Y431D01*
X450Y431D01*
X450Y429D01*
X448Y429D01*
X448Y427D01*
X446Y427D01*
X446Y425D01*
X444Y425D01*
X444Y423D01*
X442Y423D01*
X442Y421D01*
X440Y421D01*
X440Y419D01*
X438Y419D01*
X438Y417D01*
X436Y417D01*
X436Y415D01*
X434Y415D01*
X434Y413D01*
X432Y413D01*
X432Y411D01*
X430Y411D01*
X430Y409D01*
X428Y409D01*
X428Y407D01*
X426Y407D01*
X426Y405D01*
X424Y405D01*
X424Y403D01*
X422Y403D01*
X422Y401D01*
X420Y401D01*
X420Y399D01*
X418Y399D01*
X418Y395D01*
X416Y395D01*
X416Y393D01*
X412Y393D01*
X412Y391D01*
X410Y391D01*
X410Y389D01*
X402Y389D01*
X402Y387D01*
X304Y387D01*
X304Y385D01*
X302Y385D01*
X302Y383D01*
X300Y383D01*
X300Y363D01*
X450Y363D01*
X450Y333D01*
X488Y333D01*
X488Y335D01*
X490Y335D01*
X490Y337D01*
X492Y337D01*
X492Y339D01*
X494Y339D01*
X494Y341D01*
X496Y341D01*
X496Y343D01*
X498Y343D01*
X498Y345D01*
X500Y345D01*
X500Y347D01*
X502Y347D01*
X502Y349D01*
X504Y349D01*
X504Y351D01*
X506Y351D01*
X506Y353D01*
X508Y353D01*
X508Y355D01*
X510Y355D01*
X510Y357D01*
X512Y357D01*
X512Y359D01*
X514Y359D01*
X514Y361D01*
X516Y361D01*
X516Y363D01*
X518Y363D01*
X518Y365D01*
X520Y365D01*
X520Y367D01*
X522Y367D01*
X522Y369D01*
X524Y369D01*
X524Y371D01*
X526Y371D01*
X526Y373D01*
X528Y373D01*
X528Y375D01*
X530Y375D01*
X530Y377D01*
X532Y377D01*
X532Y379D01*
X534Y379D01*
X534Y381D01*
X536Y381D01*
X536Y383D01*
X538Y383D01*
X538Y385D01*
X540Y385D01*
X540Y387D01*
X542Y387D01*
X542Y389D01*
X544Y389D01*
X544Y391D01*
X546Y391D01*
X546Y393D01*
X548Y393D01*
X548Y395D01*
X550Y395D01*
X550Y397D01*
X552Y397D01*
X552Y399D01*
X554Y399D01*
X554Y401D01*
X556Y401D01*
X556Y403D01*
X558Y403D01*
X558Y405D01*
X560Y405D01*
X560Y407D01*
X562Y407D01*
X562Y409D01*
X564Y409D01*
X564Y411D01*
X566Y411D01*
X566Y413D01*
X568Y413D01*
X568Y415D01*
X570Y415D01*
X570Y417D01*
X572Y417D01*
X572Y419D01*
X574Y419D01*
X574Y421D01*
X576Y421D01*
X576Y423D01*
X578Y423D01*
X578Y425D01*
X580Y425D01*
X580Y427D01*
X582Y427D01*
X582Y429D01*
X584Y429D01*
X584Y431D01*
X586Y431D01*
X586Y433D01*
X588Y433D01*
X588Y435D01*
X590Y435D01*
X590Y437D01*
X592Y437D01*
X592Y439D01*
X594Y439D01*
X594Y441D01*
X596Y441D01*
X596Y443D01*
X598Y443D01*
X598Y445D01*
X600Y445D01*
X600Y447D01*
X602Y447D01*
X602Y449D01*
X604Y449D01*
X604Y451D01*
X606Y451D01*
X606Y453D01*
X608Y453D01*
X608Y455D01*
X610Y455D01*
X610Y457D01*
X612Y457D01*
X612Y459D01*
X614Y459D01*
X614Y461D01*
X616Y461D01*
X616Y463D01*
X618Y463D01*
X618Y465D01*
X620Y465D01*
X620Y467D01*
X622Y467D01*
X622Y469D01*
X624Y469D01*
X624Y471D01*
X626Y471D01*
X626Y473D01*
X628Y473D01*
X628Y475D01*
X630Y475D01*
X630Y477D01*
X632Y477D01*
X632Y479D01*
X634Y479D01*
X634Y481D01*
X636Y481D01*
X636Y483D01*
X638Y483D01*
X638Y485D01*
X640Y485D01*
X640Y487D01*
X642Y487D01*
X642Y489D01*
X644Y489D01*
X644Y491D01*
X646Y491D01*
X646Y493D01*
X648Y493D01*
X648Y495D01*
X650Y495D01*
X650Y497D01*
X652Y497D01*
X652Y499D01*
X654Y499D01*
X654Y501D01*
X656Y501D01*
X656Y503D01*
X658Y503D01*
X658Y505D01*
X660Y505D01*
X660Y507D01*
X662Y507D01*
X662Y509D01*
X664Y509D01*
X664Y511D01*
X666Y511D01*
X666Y513D01*
X668Y513D01*
X668Y515D01*
X670Y515D01*
X670Y517D01*
X672Y517D01*
X672Y519D01*
X674Y519D01*
X674Y521D01*
X676Y521D01*
X676Y563D01*
X520Y563D01*
G37*
D02*
G36*
X304Y363D02*
X304Y361D01*
X314Y361D01*
X314Y359D01*
X320Y359D01*
X320Y357D01*
X324Y357D01*
X324Y355D01*
X326Y355D01*
X326Y353D01*
X348Y353D01*
X348Y363D01*
X304Y363D01*
G37*
D02*
G36*
X738Y587D02*
X738Y583D01*
X736Y583D01*
X736Y581D01*
X734Y581D01*
X734Y579D01*
X732Y579D01*
X732Y577D01*
X730Y577D01*
X730Y575D01*
X728Y575D01*
X728Y573D01*
X724Y573D01*
X724Y571D01*
X722Y571D01*
X722Y569D01*
X720Y569D01*
X720Y505D01*
X718Y505D01*
X718Y501D01*
X716Y501D01*
X716Y499D01*
X714Y499D01*
X714Y495D01*
X712Y495D01*
X712Y493D01*
X710Y493D01*
X710Y491D01*
X708Y491D01*
X708Y489D01*
X706Y489D01*
X706Y487D01*
X704Y487D01*
X704Y485D01*
X702Y485D01*
X702Y483D01*
X700Y483D01*
X700Y481D01*
X698Y481D01*
X698Y479D01*
X696Y479D01*
X696Y477D01*
X694Y477D01*
X694Y475D01*
X692Y475D01*
X692Y473D01*
X690Y473D01*
X690Y471D01*
X688Y471D01*
X688Y469D01*
X686Y469D01*
X686Y467D01*
X684Y467D01*
X684Y465D01*
X682Y465D01*
X682Y463D01*
X680Y463D01*
X680Y461D01*
X678Y461D01*
X678Y459D01*
X676Y459D01*
X676Y457D01*
X674Y457D01*
X674Y455D01*
X672Y455D01*
X672Y453D01*
X670Y453D01*
X670Y451D01*
X668Y451D01*
X668Y449D01*
X666Y449D01*
X666Y447D01*
X664Y447D01*
X664Y445D01*
X662Y445D01*
X662Y443D01*
X660Y443D01*
X660Y441D01*
X658Y441D01*
X658Y439D01*
X656Y439D01*
X656Y437D01*
X654Y437D01*
X654Y435D01*
X652Y435D01*
X652Y433D01*
X650Y433D01*
X650Y431D01*
X648Y431D01*
X648Y429D01*
X646Y429D01*
X646Y427D01*
X644Y427D01*
X644Y425D01*
X642Y425D01*
X642Y423D01*
X640Y423D01*
X640Y421D01*
X638Y421D01*
X638Y419D01*
X636Y419D01*
X636Y417D01*
X634Y417D01*
X634Y415D01*
X632Y415D01*
X632Y413D01*
X630Y413D01*
X630Y411D01*
X628Y411D01*
X628Y409D01*
X626Y409D01*
X626Y407D01*
X624Y407D01*
X624Y405D01*
X622Y405D01*
X622Y403D01*
X620Y403D01*
X620Y401D01*
X618Y401D01*
X618Y399D01*
X616Y399D01*
X616Y397D01*
X614Y397D01*
X614Y395D01*
X612Y395D01*
X612Y393D01*
X610Y393D01*
X610Y391D01*
X608Y391D01*
X608Y389D01*
X606Y389D01*
X606Y387D01*
X604Y387D01*
X604Y385D01*
X602Y385D01*
X602Y383D01*
X600Y383D01*
X600Y381D01*
X598Y381D01*
X598Y379D01*
X596Y379D01*
X596Y377D01*
X594Y377D01*
X594Y375D01*
X592Y375D01*
X592Y373D01*
X590Y373D01*
X590Y371D01*
X588Y371D01*
X588Y369D01*
X586Y369D01*
X586Y367D01*
X584Y367D01*
X584Y365D01*
X582Y365D01*
X582Y363D01*
X580Y363D01*
X580Y361D01*
X578Y361D01*
X578Y359D01*
X576Y359D01*
X576Y357D01*
X574Y357D01*
X574Y355D01*
X572Y355D01*
X572Y353D01*
X570Y353D01*
X570Y351D01*
X568Y351D01*
X568Y349D01*
X566Y349D01*
X566Y347D01*
X564Y347D01*
X564Y345D01*
X562Y345D01*
X562Y343D01*
X560Y343D01*
X560Y341D01*
X558Y341D01*
X558Y339D01*
X556Y339D01*
X556Y337D01*
X554Y337D01*
X554Y335D01*
X552Y335D01*
X552Y333D01*
X550Y333D01*
X550Y331D01*
X548Y331D01*
X548Y329D01*
X546Y329D01*
X546Y327D01*
X544Y327D01*
X544Y325D01*
X542Y325D01*
X542Y323D01*
X540Y323D01*
X540Y321D01*
X538Y321D01*
X538Y319D01*
X536Y319D01*
X536Y317D01*
X534Y317D01*
X534Y315D01*
X532Y315D01*
X532Y313D01*
X530Y313D01*
X530Y311D01*
X528Y311D01*
X528Y309D01*
X526Y309D01*
X526Y307D01*
X524Y307D01*
X524Y305D01*
X522Y305D01*
X522Y303D01*
X520Y303D01*
X520Y301D01*
X518Y301D01*
X518Y299D01*
X516Y299D01*
X516Y297D01*
X514Y297D01*
X514Y295D01*
X510Y295D01*
X510Y293D01*
X508Y293D01*
X508Y291D01*
X498Y291D01*
X498Y289D01*
X450Y289D01*
X450Y261D01*
X786Y261D01*
X786Y263D01*
X780Y263D01*
X780Y265D01*
X776Y265D01*
X776Y267D01*
X772Y267D01*
X772Y269D01*
X770Y269D01*
X770Y271D01*
X766Y271D01*
X766Y273D01*
X764Y273D01*
X764Y275D01*
X762Y275D01*
X762Y277D01*
X760Y277D01*
X760Y279D01*
X758Y279D01*
X758Y283D01*
X756Y283D01*
X756Y285D01*
X754Y285D01*
X754Y289D01*
X752Y289D01*
X752Y293D01*
X750Y293D01*
X750Y301D01*
X748Y301D01*
X748Y323D01*
X750Y323D01*
X750Y329D01*
X752Y329D01*
X752Y333D01*
X754Y333D01*
X754Y337D01*
X756Y337D01*
X756Y341D01*
X758Y341D01*
X758Y343D01*
X760Y343D01*
X760Y345D01*
X762Y345D01*
X762Y347D01*
X764Y347D01*
X764Y349D01*
X766Y349D01*
X766Y351D01*
X768Y351D01*
X768Y353D01*
X770Y353D01*
X770Y355D01*
X774Y355D01*
X774Y357D01*
X776Y357D01*
X776Y571D01*
X772Y571D01*
X772Y573D01*
X770Y573D01*
X770Y575D01*
X768Y575D01*
X768Y577D01*
X766Y577D01*
X766Y579D01*
X764Y579D01*
X764Y581D01*
X762Y581D01*
X762Y583D01*
X760Y583D01*
X760Y585D01*
X758Y585D01*
X758Y587D01*
X738Y587D01*
G37*
D02*
G36*
X838Y281D02*
X838Y279D01*
X836Y279D01*
X836Y275D01*
X834Y275D01*
X834Y273D01*
X830Y273D01*
X830Y271D01*
X828Y271D01*
X828Y269D01*
X824Y269D01*
X824Y267D01*
X822Y267D01*
X822Y265D01*
X818Y265D01*
X818Y263D01*
X810Y263D01*
X810Y261D01*
X876Y261D01*
X876Y267D01*
X872Y267D01*
X872Y269D01*
X870Y269D01*
X870Y271D01*
X866Y271D01*
X866Y273D01*
X864Y273D01*
X864Y275D01*
X862Y275D01*
X862Y277D01*
X860Y277D01*
X860Y279D01*
X858Y279D01*
X858Y281D01*
X838Y281D01*
G37*
D02*
G36*
X398Y261D02*
X398Y259D01*
X876Y259D01*
X876Y261D01*
X398Y261D01*
G37*
D02*
G36*
X398Y261D02*
X398Y259D01*
X876Y259D01*
X876Y261D01*
X398Y261D01*
G37*
D02*
G36*
X398Y259D02*
X398Y241D01*
X400Y241D01*
X400Y239D01*
X402Y239D01*
X402Y237D01*
X404Y237D01*
X404Y235D01*
X406Y235D01*
X406Y233D01*
X706Y233D01*
X706Y231D01*
X710Y231D01*
X710Y229D01*
X714Y229D01*
X714Y227D01*
X716Y227D01*
X716Y225D01*
X718Y225D01*
X718Y223D01*
X720Y223D01*
X720Y221D01*
X722Y221D01*
X722Y219D01*
X724Y219D01*
X724Y217D01*
X726Y217D01*
X726Y215D01*
X728Y215D01*
X728Y213D01*
X730Y213D01*
X730Y211D01*
X732Y211D01*
X732Y209D01*
X734Y209D01*
X734Y207D01*
X736Y207D01*
X736Y205D01*
X738Y205D01*
X738Y203D01*
X740Y203D01*
X740Y201D01*
X742Y201D01*
X742Y199D01*
X744Y199D01*
X744Y197D01*
X746Y197D01*
X746Y195D01*
X748Y195D01*
X748Y193D01*
X750Y193D01*
X750Y191D01*
X752Y191D01*
X752Y189D01*
X754Y189D01*
X754Y187D01*
X756Y187D01*
X756Y185D01*
X758Y185D01*
X758Y183D01*
X760Y183D01*
X760Y181D01*
X762Y181D01*
X762Y179D01*
X764Y179D01*
X764Y177D01*
X766Y177D01*
X766Y175D01*
X768Y175D01*
X768Y173D01*
X770Y173D01*
X770Y171D01*
X772Y171D01*
X772Y169D01*
X774Y169D01*
X774Y167D01*
X776Y167D01*
X776Y165D01*
X778Y165D01*
X778Y163D01*
X780Y163D01*
X780Y161D01*
X804Y161D01*
X804Y159D01*
X814Y159D01*
X814Y157D01*
X818Y157D01*
X818Y155D01*
X822Y155D01*
X822Y153D01*
X826Y153D01*
X826Y151D01*
X828Y151D01*
X828Y149D01*
X832Y149D01*
X832Y147D01*
X834Y147D01*
X834Y145D01*
X836Y145D01*
X836Y141D01*
X838Y141D01*
X838Y139D01*
X860Y139D01*
X860Y143D01*
X862Y143D01*
X862Y145D01*
X864Y145D01*
X864Y147D01*
X866Y147D01*
X866Y149D01*
X868Y149D01*
X868Y151D01*
X872Y151D01*
X872Y153D01*
X874Y153D01*
X874Y155D01*
X876Y155D01*
X876Y259D01*
X398Y259D01*
G37*
D02*
G36*
X838Y587D02*
X838Y583D01*
X836Y583D01*
X836Y581D01*
X834Y581D01*
X834Y579D01*
X832Y579D01*
X832Y577D01*
X830Y577D01*
X830Y575D01*
X828Y575D01*
X828Y573D01*
X824Y573D01*
X824Y571D01*
X822Y571D01*
X822Y569D01*
X820Y569D01*
X820Y565D01*
X886Y565D01*
X886Y567D01*
X880Y567D01*
X880Y569D01*
X876Y569D01*
X876Y571D01*
X872Y571D01*
X872Y573D01*
X870Y573D01*
X870Y575D01*
X868Y575D01*
X868Y577D01*
X866Y577D01*
X866Y579D01*
X864Y579D01*
X864Y581D01*
X862Y581D01*
X862Y583D01*
X860Y583D01*
X860Y585D01*
X858Y585D01*
X858Y587D01*
X838Y587D01*
G37*
D02*
G36*
X938Y587D02*
X938Y583D01*
X936Y583D01*
X936Y581D01*
X934Y581D01*
X934Y579D01*
X932Y579D01*
X932Y577D01*
X930Y577D01*
X930Y575D01*
X928Y575D01*
X928Y573D01*
X924Y573D01*
X924Y571D01*
X922Y571D01*
X922Y569D01*
X918Y569D01*
X918Y567D01*
X912Y567D01*
X912Y565D01*
X976Y565D01*
X976Y571D01*
X972Y571D01*
X972Y573D01*
X970Y573D01*
X970Y575D01*
X968Y575D01*
X968Y577D01*
X966Y577D01*
X966Y579D01*
X964Y579D01*
X964Y581D01*
X962Y581D01*
X962Y583D01*
X960Y583D01*
X960Y585D01*
X958Y585D01*
X958Y587D01*
X938Y587D01*
G37*
D02*
G36*
X820Y565D02*
X820Y563D01*
X976Y563D01*
X976Y565D01*
X820Y565D01*
G37*
D02*
G36*
X820Y565D02*
X820Y563D01*
X976Y563D01*
X976Y565D01*
X820Y565D01*
G37*
D02*
G36*
X820Y563D02*
X820Y363D01*
X904Y363D01*
X904Y361D01*
X914Y361D01*
X914Y359D01*
X920Y359D01*
X920Y357D01*
X924Y357D01*
X924Y355D01*
X926Y355D01*
X926Y353D01*
X948Y353D01*
X948Y363D01*
X976Y363D01*
X976Y563D01*
X820Y563D01*
G37*
D02*
G36*
X820Y363D02*
X820Y357D01*
X824Y357D01*
X824Y355D01*
X826Y355D01*
X826Y353D01*
X830Y353D01*
X830Y351D01*
X832Y351D01*
X832Y349D01*
X834Y349D01*
X834Y347D01*
X836Y347D01*
X836Y345D01*
X838Y345D01*
X838Y343D01*
X860Y343D01*
X860Y345D01*
X862Y345D01*
X862Y347D01*
X864Y347D01*
X864Y349D01*
X866Y349D01*
X866Y351D01*
X868Y351D01*
X868Y353D01*
X870Y353D01*
X870Y355D01*
X874Y355D01*
X874Y357D01*
X878Y357D01*
X878Y359D01*
X884Y359D01*
X884Y361D01*
X892Y361D01*
X892Y363D01*
X820Y363D01*
G37*
D02*
G36*
X1138Y587D02*
X1138Y583D01*
X1136Y583D01*
X1136Y581D01*
X1134Y581D01*
X1134Y579D01*
X1132Y579D01*
X1132Y577D01*
X1130Y577D01*
X1130Y575D01*
X1128Y575D01*
X1128Y573D01*
X1124Y573D01*
X1124Y571D01*
X1122Y571D01*
X1122Y569D01*
X1120Y569D01*
X1120Y565D01*
X1186Y565D01*
X1186Y567D01*
X1180Y567D01*
X1180Y569D01*
X1176Y569D01*
X1176Y571D01*
X1172Y571D01*
X1172Y573D01*
X1170Y573D01*
X1170Y575D01*
X1168Y575D01*
X1168Y577D01*
X1166Y577D01*
X1166Y579D01*
X1164Y579D01*
X1164Y581D01*
X1162Y581D01*
X1162Y583D01*
X1160Y583D01*
X1160Y585D01*
X1158Y585D01*
X1158Y587D01*
X1138Y587D01*
G37*
D02*
G36*
X1238Y587D02*
X1238Y583D01*
X1236Y583D01*
X1236Y581D01*
X1234Y581D01*
X1234Y579D01*
X1232Y579D01*
X1232Y577D01*
X1230Y577D01*
X1230Y575D01*
X1228Y575D01*
X1228Y573D01*
X1224Y573D01*
X1224Y571D01*
X1222Y571D01*
X1222Y569D01*
X1218Y569D01*
X1218Y567D01*
X1212Y567D01*
X1212Y565D01*
X1276Y565D01*
X1276Y571D01*
X1272Y571D01*
X1272Y573D01*
X1270Y573D01*
X1270Y575D01*
X1268Y575D01*
X1268Y577D01*
X1266Y577D01*
X1266Y579D01*
X1264Y579D01*
X1264Y581D01*
X1262Y581D01*
X1262Y583D01*
X1260Y583D01*
X1260Y585D01*
X1258Y585D01*
X1258Y587D01*
X1238Y587D01*
G37*
D02*
G36*
X1120Y565D02*
X1120Y563D01*
X1276Y563D01*
X1276Y565D01*
X1120Y565D01*
G37*
D02*
G36*
X1120Y565D02*
X1120Y563D01*
X1276Y563D01*
X1276Y565D01*
X1120Y565D01*
G37*
D02*
G36*
X1120Y563D02*
X1120Y521D01*
X1122Y521D01*
X1122Y519D01*
X1124Y519D01*
X1124Y517D01*
X1126Y517D01*
X1126Y515D01*
X1128Y515D01*
X1128Y513D01*
X1130Y513D01*
X1130Y511D01*
X1132Y511D01*
X1132Y509D01*
X1134Y509D01*
X1134Y507D01*
X1136Y507D01*
X1136Y505D01*
X1138Y505D01*
X1138Y503D01*
X1140Y503D01*
X1140Y501D01*
X1142Y501D01*
X1142Y499D01*
X1144Y499D01*
X1144Y497D01*
X1146Y497D01*
X1146Y495D01*
X1148Y495D01*
X1148Y493D01*
X1150Y493D01*
X1150Y491D01*
X1152Y491D01*
X1152Y489D01*
X1154Y489D01*
X1154Y487D01*
X1156Y487D01*
X1156Y485D01*
X1158Y485D01*
X1158Y483D01*
X1160Y483D01*
X1160Y481D01*
X1162Y481D01*
X1162Y479D01*
X1164Y479D01*
X1164Y477D01*
X1166Y477D01*
X1166Y475D01*
X1168Y475D01*
X1168Y473D01*
X1170Y473D01*
X1170Y471D01*
X1172Y471D01*
X1172Y469D01*
X1174Y469D01*
X1174Y467D01*
X1176Y467D01*
X1176Y465D01*
X1178Y465D01*
X1178Y463D01*
X1180Y463D01*
X1180Y461D01*
X1182Y461D01*
X1182Y459D01*
X1184Y459D01*
X1184Y457D01*
X1186Y457D01*
X1186Y455D01*
X1188Y455D01*
X1188Y453D01*
X1190Y453D01*
X1190Y451D01*
X1192Y451D01*
X1192Y449D01*
X1194Y449D01*
X1194Y447D01*
X1196Y447D01*
X1196Y445D01*
X1198Y445D01*
X1198Y443D01*
X1200Y443D01*
X1200Y441D01*
X1202Y441D01*
X1202Y439D01*
X1204Y439D01*
X1204Y437D01*
X1206Y437D01*
X1206Y435D01*
X1208Y435D01*
X1208Y433D01*
X1210Y433D01*
X1210Y431D01*
X1212Y431D01*
X1212Y429D01*
X1214Y429D01*
X1214Y427D01*
X1216Y427D01*
X1216Y425D01*
X1218Y425D01*
X1218Y423D01*
X1220Y423D01*
X1220Y421D01*
X1222Y421D01*
X1222Y419D01*
X1224Y419D01*
X1224Y417D01*
X1226Y417D01*
X1226Y415D01*
X1228Y415D01*
X1228Y413D01*
X1230Y413D01*
X1230Y411D01*
X1232Y411D01*
X1232Y409D01*
X1234Y409D01*
X1234Y407D01*
X1236Y407D01*
X1236Y405D01*
X1238Y405D01*
X1238Y403D01*
X1240Y403D01*
X1240Y401D01*
X1242Y401D01*
X1242Y399D01*
X1244Y399D01*
X1244Y397D01*
X1246Y397D01*
X1246Y395D01*
X1248Y395D01*
X1248Y393D01*
X1250Y393D01*
X1250Y391D01*
X1252Y391D01*
X1252Y389D01*
X1254Y389D01*
X1254Y387D01*
X1256Y387D01*
X1256Y385D01*
X1258Y385D01*
X1258Y383D01*
X1260Y383D01*
X1260Y381D01*
X1262Y381D01*
X1262Y379D01*
X1264Y379D01*
X1264Y377D01*
X1266Y377D01*
X1266Y375D01*
X1268Y375D01*
X1268Y373D01*
X1270Y373D01*
X1270Y371D01*
X1272Y371D01*
X1272Y369D01*
X1274Y369D01*
X1274Y367D01*
X1276Y367D01*
X1276Y365D01*
X1278Y365D01*
X1278Y363D01*
X1504Y363D01*
X1504Y361D01*
X1514Y361D01*
X1514Y359D01*
X1520Y359D01*
X1520Y357D01*
X1524Y357D01*
X1524Y355D01*
X1526Y355D01*
X1526Y353D01*
X1548Y353D01*
X1548Y363D01*
X1576Y363D01*
X1576Y387D01*
X1396Y387D01*
X1396Y389D01*
X1388Y389D01*
X1388Y391D01*
X1384Y391D01*
X1384Y393D01*
X1382Y393D01*
X1382Y395D01*
X1380Y395D01*
X1380Y397D01*
X1378Y397D01*
X1378Y399D01*
X1376Y399D01*
X1376Y401D01*
X1374Y401D01*
X1374Y403D01*
X1372Y403D01*
X1372Y405D01*
X1370Y405D01*
X1370Y407D01*
X1368Y407D01*
X1368Y409D01*
X1366Y409D01*
X1366Y411D01*
X1364Y411D01*
X1364Y413D01*
X1362Y413D01*
X1362Y415D01*
X1360Y415D01*
X1360Y417D01*
X1358Y417D01*
X1358Y419D01*
X1356Y419D01*
X1356Y421D01*
X1354Y421D01*
X1354Y423D01*
X1352Y423D01*
X1352Y425D01*
X1350Y425D01*
X1350Y427D01*
X1348Y427D01*
X1348Y429D01*
X1346Y429D01*
X1346Y431D01*
X1344Y431D01*
X1344Y435D01*
X1342Y435D01*
X1342Y437D01*
X1340Y437D01*
X1340Y439D01*
X1338Y439D01*
X1338Y441D01*
X1336Y441D01*
X1336Y443D01*
X1334Y443D01*
X1334Y445D01*
X1332Y445D01*
X1332Y447D01*
X1330Y447D01*
X1330Y449D01*
X1328Y449D01*
X1328Y451D01*
X1326Y451D01*
X1326Y453D01*
X1324Y453D01*
X1324Y455D01*
X1322Y455D01*
X1322Y457D01*
X1320Y457D01*
X1320Y459D01*
X1318Y459D01*
X1318Y461D01*
X1316Y461D01*
X1316Y463D01*
X1314Y463D01*
X1314Y465D01*
X1312Y465D01*
X1312Y467D01*
X1310Y467D01*
X1310Y469D01*
X1308Y469D01*
X1308Y471D01*
X1306Y471D01*
X1306Y473D01*
X1304Y473D01*
X1304Y475D01*
X1302Y475D01*
X1302Y477D01*
X1300Y477D01*
X1300Y479D01*
X1298Y479D01*
X1298Y483D01*
X1296Y483D01*
X1296Y485D01*
X1294Y485D01*
X1294Y487D01*
X1292Y487D01*
X1292Y489D01*
X1290Y489D01*
X1290Y491D01*
X1288Y491D01*
X1288Y493D01*
X1286Y493D01*
X1286Y495D01*
X1284Y495D01*
X1284Y497D01*
X1282Y497D01*
X1282Y499D01*
X1280Y499D01*
X1280Y503D01*
X1278Y503D01*
X1278Y509D01*
X1276Y509D01*
X1276Y563D01*
X1120Y563D01*
G37*
D02*
G36*
X1280Y363D02*
X1280Y361D01*
X1282Y361D01*
X1282Y359D01*
X1284Y359D01*
X1284Y357D01*
X1286Y357D01*
X1286Y355D01*
X1288Y355D01*
X1288Y353D01*
X1290Y353D01*
X1290Y351D01*
X1292Y351D01*
X1292Y349D01*
X1294Y349D01*
X1294Y347D01*
X1296Y347D01*
X1296Y345D01*
X1298Y345D01*
X1298Y343D01*
X1300Y343D01*
X1300Y341D01*
X1302Y341D01*
X1302Y339D01*
X1304Y339D01*
X1304Y337D01*
X1306Y337D01*
X1306Y335D01*
X1308Y335D01*
X1308Y333D01*
X1354Y333D01*
X1354Y337D01*
X1356Y337D01*
X1356Y341D01*
X1358Y341D01*
X1358Y343D01*
X1360Y343D01*
X1360Y345D01*
X1362Y345D01*
X1362Y347D01*
X1364Y347D01*
X1364Y349D01*
X1366Y349D01*
X1366Y351D01*
X1368Y351D01*
X1368Y353D01*
X1370Y353D01*
X1370Y355D01*
X1374Y355D01*
X1374Y357D01*
X1378Y357D01*
X1378Y359D01*
X1384Y359D01*
X1384Y361D01*
X1392Y361D01*
X1392Y363D01*
X1280Y363D01*
G37*
D02*
G36*
X1404Y363D02*
X1404Y361D01*
X1414Y361D01*
X1414Y359D01*
X1420Y359D01*
X1420Y357D01*
X1424Y357D01*
X1424Y355D01*
X1426Y355D01*
X1426Y353D01*
X1430Y353D01*
X1430Y351D01*
X1432Y351D01*
X1432Y349D01*
X1434Y349D01*
X1434Y347D01*
X1436Y347D01*
X1436Y345D01*
X1438Y345D01*
X1438Y343D01*
X1460Y343D01*
X1460Y345D01*
X1462Y345D01*
X1462Y347D01*
X1464Y347D01*
X1464Y349D01*
X1466Y349D01*
X1466Y351D01*
X1468Y351D01*
X1468Y353D01*
X1470Y353D01*
X1470Y355D01*
X1474Y355D01*
X1474Y357D01*
X1478Y357D01*
X1478Y359D01*
X1484Y359D01*
X1484Y361D01*
X1492Y361D01*
X1492Y363D01*
X1404Y363D01*
G37*
D02*
G36*
X128Y313D02*
X128Y311D01*
X126Y311D01*
X126Y309D01*
X124Y309D01*
X124Y307D01*
X122Y307D01*
X122Y305D01*
X120Y305D01*
X120Y261D01*
X186Y261D01*
X186Y263D01*
X180Y263D01*
X180Y265D01*
X176Y265D01*
X176Y267D01*
X172Y267D01*
X172Y269D01*
X170Y269D01*
X170Y271D01*
X166Y271D01*
X166Y273D01*
X164Y273D01*
X164Y275D01*
X162Y275D01*
X162Y277D01*
X160Y277D01*
X160Y279D01*
X158Y279D01*
X158Y283D01*
X156Y283D01*
X156Y285D01*
X154Y285D01*
X154Y289D01*
X152Y289D01*
X152Y293D01*
X150Y293D01*
X150Y301D01*
X148Y301D01*
X148Y313D01*
X128Y313D01*
G37*
D02*
G36*
X238Y281D02*
X238Y279D01*
X236Y279D01*
X236Y275D01*
X234Y275D01*
X234Y273D01*
X230Y273D01*
X230Y271D01*
X228Y271D01*
X228Y269D01*
X224Y269D01*
X224Y267D01*
X222Y267D01*
X222Y265D01*
X218Y265D01*
X218Y263D01*
X210Y263D01*
X210Y261D01*
X286Y261D01*
X286Y263D01*
X280Y263D01*
X280Y265D01*
X276Y265D01*
X276Y267D01*
X272Y267D01*
X272Y269D01*
X270Y269D01*
X270Y271D01*
X266Y271D01*
X266Y273D01*
X264Y273D01*
X264Y275D01*
X262Y275D01*
X262Y277D01*
X260Y277D01*
X260Y279D01*
X258Y279D01*
X258Y281D01*
X238Y281D01*
G37*
D02*
G36*
X120Y261D02*
X120Y259D01*
X318Y259D01*
X318Y261D01*
X120Y261D01*
G37*
D02*
G36*
X120Y261D02*
X120Y259D01*
X318Y259D01*
X318Y261D01*
X120Y261D01*
G37*
D02*
G36*
X120Y259D02*
X120Y219D01*
X122Y219D01*
X122Y217D01*
X124Y217D01*
X124Y215D01*
X126Y215D01*
X126Y213D01*
X128Y213D01*
X128Y211D01*
X130Y211D01*
X130Y209D01*
X132Y209D01*
X132Y207D01*
X134Y207D01*
X134Y205D01*
X136Y205D01*
X136Y203D01*
X138Y203D01*
X138Y201D01*
X140Y201D01*
X140Y199D01*
X142Y199D01*
X142Y197D01*
X144Y197D01*
X144Y195D01*
X146Y195D01*
X146Y193D01*
X148Y193D01*
X148Y191D01*
X150Y191D01*
X150Y189D01*
X152Y189D01*
X152Y187D01*
X154Y187D01*
X154Y185D01*
X156Y185D01*
X156Y183D01*
X160Y183D01*
X160Y181D01*
X162Y181D01*
X162Y179D01*
X164Y179D01*
X164Y177D01*
X166Y177D01*
X166Y175D01*
X168Y175D01*
X168Y173D01*
X170Y173D01*
X170Y171D01*
X172Y171D01*
X172Y169D01*
X174Y169D01*
X174Y167D01*
X176Y167D01*
X176Y165D01*
X178Y165D01*
X178Y163D01*
X180Y163D01*
X180Y161D01*
X182Y161D01*
X182Y159D01*
X184Y159D01*
X184Y157D01*
X186Y157D01*
X186Y155D01*
X188Y155D01*
X188Y153D01*
X190Y153D01*
X190Y151D01*
X192Y151D01*
X192Y149D01*
X194Y149D01*
X194Y147D01*
X196Y147D01*
X196Y145D01*
X198Y145D01*
X198Y143D01*
X200Y143D01*
X200Y141D01*
X202Y141D01*
X202Y139D01*
X204Y139D01*
X204Y137D01*
X206Y137D01*
X206Y135D01*
X306Y135D01*
X306Y133D01*
X656Y133D01*
X656Y137D01*
X658Y137D01*
X658Y139D01*
X660Y139D01*
X660Y143D01*
X662Y143D01*
X662Y145D01*
X664Y145D01*
X664Y147D01*
X666Y147D01*
X666Y149D01*
X668Y149D01*
X668Y151D01*
X672Y151D01*
X672Y153D01*
X674Y153D01*
X674Y155D01*
X678Y155D01*
X678Y157D01*
X684Y157D01*
X684Y159D01*
X692Y159D01*
X692Y161D01*
X700Y161D01*
X700Y181D01*
X698Y181D01*
X698Y183D01*
X696Y183D01*
X696Y185D01*
X694Y185D01*
X694Y187D01*
X692Y187D01*
X692Y189D01*
X390Y189D01*
X390Y191D01*
X386Y191D01*
X386Y193D01*
X382Y193D01*
X382Y195D01*
X380Y195D01*
X380Y197D01*
X378Y197D01*
X378Y199D01*
X376Y199D01*
X376Y201D01*
X374Y201D01*
X374Y203D01*
X372Y203D01*
X372Y205D01*
X370Y205D01*
X370Y207D01*
X368Y207D01*
X368Y209D01*
X366Y209D01*
X366Y213D01*
X364Y213D01*
X364Y215D01*
X362Y215D01*
X362Y217D01*
X360Y217D01*
X360Y219D01*
X358Y219D01*
X358Y221D01*
X356Y221D01*
X356Y223D01*
X354Y223D01*
X354Y225D01*
X352Y225D01*
X352Y227D01*
X350Y227D01*
X350Y229D01*
X348Y229D01*
X348Y231D01*
X346Y231D01*
X346Y233D01*
X344Y233D01*
X344Y235D01*
X342Y235D01*
X342Y237D01*
X340Y237D01*
X340Y239D01*
X338Y239D01*
X338Y241D01*
X336Y241D01*
X336Y243D01*
X334Y243D01*
X334Y245D01*
X332Y245D01*
X332Y247D01*
X330Y247D01*
X330Y249D01*
X328Y249D01*
X328Y251D01*
X326Y251D01*
X326Y253D01*
X324Y253D01*
X324Y255D01*
X322Y255D01*
X322Y257D01*
X320Y257D01*
X320Y259D01*
X120Y259D01*
G37*
D02*
G36*
X1038Y587D02*
X1038Y583D01*
X1036Y583D01*
X1036Y581D01*
X1034Y581D01*
X1034Y579D01*
X1032Y579D01*
X1032Y577D01*
X1030Y577D01*
X1030Y575D01*
X1028Y575D01*
X1028Y573D01*
X1024Y573D01*
X1024Y571D01*
X1022Y571D01*
X1022Y569D01*
X1020Y569D01*
X1020Y363D01*
X1050Y363D01*
X1050Y261D01*
X1386Y261D01*
X1386Y263D01*
X1380Y263D01*
X1380Y265D01*
X1376Y265D01*
X1376Y267D01*
X1372Y267D01*
X1372Y269D01*
X1370Y269D01*
X1370Y271D01*
X1366Y271D01*
X1366Y273D01*
X1364Y273D01*
X1364Y275D01*
X1362Y275D01*
X1362Y277D01*
X1360Y277D01*
X1360Y279D01*
X1358Y279D01*
X1358Y283D01*
X1356Y283D01*
X1356Y285D01*
X1354Y285D01*
X1354Y289D01*
X1298Y289D01*
X1298Y291D01*
X1290Y291D01*
X1290Y293D01*
X1286Y293D01*
X1286Y295D01*
X1284Y295D01*
X1284Y297D01*
X1282Y297D01*
X1282Y299D01*
X1280Y299D01*
X1280Y301D01*
X1278Y301D01*
X1278Y303D01*
X1276Y303D01*
X1276Y305D01*
X1274Y305D01*
X1274Y307D01*
X1272Y307D01*
X1272Y309D01*
X1270Y309D01*
X1270Y311D01*
X1268Y311D01*
X1268Y313D01*
X1266Y313D01*
X1266Y315D01*
X1264Y315D01*
X1264Y317D01*
X1262Y317D01*
X1262Y319D01*
X1260Y319D01*
X1260Y321D01*
X1258Y321D01*
X1258Y323D01*
X1256Y323D01*
X1256Y325D01*
X1254Y325D01*
X1254Y327D01*
X1252Y327D01*
X1252Y329D01*
X1250Y329D01*
X1250Y331D01*
X1248Y331D01*
X1248Y333D01*
X1246Y333D01*
X1246Y335D01*
X1244Y335D01*
X1244Y337D01*
X1242Y337D01*
X1242Y339D01*
X1240Y339D01*
X1240Y341D01*
X1238Y341D01*
X1238Y343D01*
X1236Y343D01*
X1236Y345D01*
X1234Y345D01*
X1234Y347D01*
X1232Y347D01*
X1232Y349D01*
X1230Y349D01*
X1230Y351D01*
X1228Y351D01*
X1228Y353D01*
X1226Y353D01*
X1226Y355D01*
X1224Y355D01*
X1224Y357D01*
X1222Y357D01*
X1222Y359D01*
X1220Y359D01*
X1220Y361D01*
X1218Y361D01*
X1218Y363D01*
X1216Y363D01*
X1216Y365D01*
X1214Y365D01*
X1214Y367D01*
X1212Y367D01*
X1212Y369D01*
X1210Y369D01*
X1210Y371D01*
X1208Y371D01*
X1208Y373D01*
X1206Y373D01*
X1206Y375D01*
X1204Y375D01*
X1204Y377D01*
X1202Y377D01*
X1202Y379D01*
X1200Y379D01*
X1200Y381D01*
X1198Y381D01*
X1198Y383D01*
X1196Y383D01*
X1196Y385D01*
X1194Y385D01*
X1194Y387D01*
X1192Y387D01*
X1192Y389D01*
X1190Y389D01*
X1190Y391D01*
X1188Y391D01*
X1188Y393D01*
X1186Y393D01*
X1186Y395D01*
X1184Y395D01*
X1184Y397D01*
X1182Y397D01*
X1182Y399D01*
X1180Y399D01*
X1180Y401D01*
X1178Y401D01*
X1178Y403D01*
X1176Y403D01*
X1176Y405D01*
X1174Y405D01*
X1174Y407D01*
X1172Y407D01*
X1172Y409D01*
X1170Y409D01*
X1170Y411D01*
X1168Y411D01*
X1168Y413D01*
X1166Y413D01*
X1166Y415D01*
X1164Y415D01*
X1164Y417D01*
X1162Y417D01*
X1162Y419D01*
X1160Y419D01*
X1160Y421D01*
X1158Y421D01*
X1158Y423D01*
X1156Y423D01*
X1156Y425D01*
X1154Y425D01*
X1154Y427D01*
X1152Y427D01*
X1152Y429D01*
X1150Y429D01*
X1150Y431D01*
X1148Y431D01*
X1148Y433D01*
X1146Y433D01*
X1146Y435D01*
X1144Y435D01*
X1144Y437D01*
X1142Y437D01*
X1142Y439D01*
X1140Y439D01*
X1140Y441D01*
X1138Y441D01*
X1138Y443D01*
X1136Y443D01*
X1136Y445D01*
X1134Y445D01*
X1134Y447D01*
X1132Y447D01*
X1132Y449D01*
X1130Y449D01*
X1130Y451D01*
X1128Y451D01*
X1128Y453D01*
X1126Y453D01*
X1126Y455D01*
X1124Y455D01*
X1124Y457D01*
X1122Y457D01*
X1122Y459D01*
X1120Y459D01*
X1120Y461D01*
X1118Y461D01*
X1118Y463D01*
X1116Y463D01*
X1116Y465D01*
X1114Y465D01*
X1114Y467D01*
X1112Y467D01*
X1112Y469D01*
X1110Y469D01*
X1110Y471D01*
X1108Y471D01*
X1108Y473D01*
X1106Y473D01*
X1106Y475D01*
X1104Y475D01*
X1104Y477D01*
X1102Y477D01*
X1102Y479D01*
X1100Y479D01*
X1100Y481D01*
X1098Y481D01*
X1098Y483D01*
X1096Y483D01*
X1096Y485D01*
X1094Y485D01*
X1094Y487D01*
X1092Y487D01*
X1092Y489D01*
X1090Y489D01*
X1090Y491D01*
X1088Y491D01*
X1088Y493D01*
X1086Y493D01*
X1086Y495D01*
X1084Y495D01*
X1084Y497D01*
X1082Y497D01*
X1082Y499D01*
X1080Y499D01*
X1080Y503D01*
X1078Y503D01*
X1078Y507D01*
X1076Y507D01*
X1076Y571D01*
X1072Y571D01*
X1072Y573D01*
X1070Y573D01*
X1070Y575D01*
X1068Y575D01*
X1068Y577D01*
X1066Y577D01*
X1066Y579D01*
X1064Y579D01*
X1064Y581D01*
X1062Y581D01*
X1062Y583D01*
X1060Y583D01*
X1060Y585D01*
X1058Y585D01*
X1058Y587D01*
X1038Y587D01*
G37*
D02*
G36*
X928Y271D02*
X928Y269D01*
X924Y269D01*
X924Y267D01*
X922Y267D01*
X922Y265D01*
X920Y265D01*
X920Y261D01*
X948Y261D01*
X948Y271D01*
X928Y271D01*
G37*
D02*
G36*
X920Y261D02*
X920Y259D01*
X1398Y259D01*
X1398Y261D01*
X920Y261D01*
G37*
D02*
G36*
X920Y261D02*
X920Y259D01*
X1398Y259D01*
X1398Y261D01*
X920Y261D01*
G37*
D02*
G36*
X920Y259D02*
X920Y155D01*
X922Y155D01*
X922Y153D01*
X926Y153D01*
X926Y151D01*
X928Y151D01*
X928Y149D01*
X932Y149D01*
X932Y147D01*
X934Y147D01*
X934Y145D01*
X936Y145D01*
X936Y141D01*
X938Y141D01*
X938Y139D01*
X960Y139D01*
X960Y143D01*
X962Y143D01*
X962Y145D01*
X964Y145D01*
X964Y147D01*
X966Y147D01*
X966Y149D01*
X968Y149D01*
X968Y151D01*
X972Y151D01*
X972Y153D01*
X974Y153D01*
X974Y155D01*
X978Y155D01*
X978Y157D01*
X984Y157D01*
X984Y159D01*
X992Y159D01*
X992Y161D01*
X1018Y161D01*
X1018Y163D01*
X1020Y163D01*
X1020Y165D01*
X1022Y165D01*
X1022Y167D01*
X1024Y167D01*
X1024Y169D01*
X1026Y169D01*
X1026Y171D01*
X1028Y171D01*
X1028Y173D01*
X1030Y173D01*
X1030Y175D01*
X1032Y175D01*
X1032Y177D01*
X1034Y177D01*
X1034Y179D01*
X1036Y179D01*
X1036Y181D01*
X1038Y181D01*
X1038Y183D01*
X1040Y183D01*
X1040Y185D01*
X1042Y185D01*
X1042Y187D01*
X1044Y187D01*
X1044Y189D01*
X1046Y189D01*
X1046Y191D01*
X1048Y191D01*
X1048Y193D01*
X1050Y193D01*
X1050Y195D01*
X1052Y195D01*
X1052Y197D01*
X1054Y197D01*
X1054Y199D01*
X1056Y199D01*
X1056Y201D01*
X1058Y201D01*
X1058Y203D01*
X1060Y203D01*
X1060Y205D01*
X1062Y205D01*
X1062Y207D01*
X1064Y207D01*
X1064Y209D01*
X1066Y209D01*
X1066Y211D01*
X1068Y211D01*
X1068Y213D01*
X1070Y213D01*
X1070Y215D01*
X1072Y215D01*
X1072Y217D01*
X1074Y217D01*
X1074Y219D01*
X1076Y219D01*
X1076Y221D01*
X1078Y221D01*
X1078Y223D01*
X1080Y223D01*
X1080Y225D01*
X1082Y225D01*
X1082Y227D01*
X1084Y227D01*
X1084Y229D01*
X1088Y229D01*
X1088Y231D01*
X1094Y231D01*
X1094Y233D01*
X1390Y233D01*
X1390Y235D01*
X1392Y235D01*
X1392Y237D01*
X1394Y237D01*
X1394Y239D01*
X1396Y239D01*
X1396Y241D01*
X1398Y241D01*
X1398Y259D01*
X920Y259D01*
G37*
D02*
G36*
X40Y1781D02*
X40Y1761D01*
X1310Y1761D01*
X1310Y1759D01*
X1318Y1759D01*
X1318Y1757D01*
X1324Y1757D01*
X1324Y1755D01*
X1328Y1755D01*
X1328Y1753D01*
X1332Y1753D01*
X1332Y1751D01*
X1334Y1751D01*
X1334Y1749D01*
X1336Y1749D01*
X1336Y1747D01*
X1338Y1747D01*
X1338Y1745D01*
X1340Y1745D01*
X1340Y1743D01*
X1342Y1743D01*
X1342Y1741D01*
X1344Y1741D01*
X1344Y1737D01*
X1346Y1737D01*
X1346Y1735D01*
X1406Y1735D01*
X1406Y1733D01*
X1410Y1733D01*
X1410Y1731D01*
X1414Y1731D01*
X1414Y1729D01*
X1416Y1729D01*
X1416Y1727D01*
X1418Y1727D01*
X1418Y1725D01*
X1420Y1725D01*
X1420Y1723D01*
X1422Y1723D01*
X1422Y1721D01*
X1424Y1721D01*
X1424Y1719D01*
X1426Y1719D01*
X1426Y1717D01*
X1428Y1717D01*
X1428Y1715D01*
X1430Y1715D01*
X1430Y1713D01*
X1432Y1713D01*
X1432Y1711D01*
X1434Y1711D01*
X1434Y1709D01*
X1436Y1709D01*
X1436Y1707D01*
X1438Y1707D01*
X1438Y1705D01*
X1440Y1705D01*
X1440Y1703D01*
X1442Y1703D01*
X1442Y1701D01*
X1444Y1701D01*
X1444Y1699D01*
X1446Y1699D01*
X1446Y1697D01*
X1448Y1697D01*
X1448Y1695D01*
X1450Y1695D01*
X1450Y1693D01*
X1452Y1693D01*
X1452Y1691D01*
X1454Y1691D01*
X1454Y1689D01*
X1456Y1689D01*
X1456Y1687D01*
X1458Y1687D01*
X1458Y1685D01*
X1460Y1685D01*
X1460Y1683D01*
X1462Y1683D01*
X1462Y1681D01*
X1464Y1681D01*
X1464Y1679D01*
X1466Y1679D01*
X1466Y1677D01*
X1468Y1677D01*
X1468Y1675D01*
X1470Y1675D01*
X1470Y1673D01*
X1472Y1673D01*
X1472Y1671D01*
X1474Y1671D01*
X1474Y1669D01*
X1476Y1669D01*
X1476Y1667D01*
X1478Y1667D01*
X1478Y1665D01*
X1480Y1665D01*
X1480Y1663D01*
X1482Y1663D01*
X1482Y1661D01*
X1484Y1661D01*
X1484Y1659D01*
X1486Y1659D01*
X1486Y1657D01*
X1488Y1657D01*
X1488Y1655D01*
X1490Y1655D01*
X1490Y1653D01*
X1492Y1653D01*
X1492Y1651D01*
X1494Y1651D01*
X1494Y1649D01*
X1496Y1649D01*
X1496Y1647D01*
X1498Y1647D01*
X1498Y1645D01*
X1500Y1645D01*
X1500Y1643D01*
X1502Y1643D01*
X1502Y1641D01*
X1504Y1641D01*
X1504Y1639D01*
X1506Y1639D01*
X1506Y1637D01*
X1508Y1637D01*
X1508Y1635D01*
X1510Y1635D01*
X1510Y1633D01*
X1512Y1633D01*
X1512Y1631D01*
X1514Y1631D01*
X1514Y1629D01*
X1516Y1629D01*
X1516Y1627D01*
X1518Y1627D01*
X1518Y1625D01*
X1520Y1625D01*
X1520Y1623D01*
X1522Y1623D01*
X1522Y1621D01*
X1524Y1621D01*
X1524Y1619D01*
X1526Y1619D01*
X1526Y1617D01*
X1528Y1617D01*
X1528Y1615D01*
X1530Y1615D01*
X1530Y1613D01*
X1532Y1613D01*
X1532Y1611D01*
X1534Y1611D01*
X1534Y1609D01*
X1536Y1609D01*
X1536Y1607D01*
X1538Y1607D01*
X1538Y1605D01*
X1540Y1605D01*
X1540Y1603D01*
X1542Y1603D01*
X1542Y1601D01*
X1544Y1601D01*
X1544Y1599D01*
X1546Y1599D01*
X1546Y1597D01*
X1548Y1597D01*
X1548Y1595D01*
X1550Y1595D01*
X1550Y1593D01*
X1552Y1593D01*
X1552Y1591D01*
X1554Y1591D01*
X1554Y1589D01*
X1556Y1589D01*
X1556Y1587D01*
X1558Y1587D01*
X1558Y1585D01*
X1560Y1585D01*
X1560Y1583D01*
X1562Y1583D01*
X1562Y1581D01*
X1564Y1581D01*
X1564Y1579D01*
X1566Y1579D01*
X1566Y1577D01*
X1568Y1577D01*
X1568Y1575D01*
X1570Y1575D01*
X1570Y1573D01*
X1572Y1573D01*
X1572Y1571D01*
X1574Y1571D01*
X1574Y1569D01*
X1576Y1569D01*
X1576Y1567D01*
X1578Y1567D01*
X1578Y1565D01*
X1580Y1565D01*
X1580Y1563D01*
X1582Y1563D01*
X1582Y1561D01*
X1584Y1561D01*
X1584Y1559D01*
X1586Y1559D01*
X1586Y1557D01*
X1588Y1557D01*
X1588Y1555D01*
X1590Y1555D01*
X1590Y1553D01*
X1592Y1553D01*
X1592Y1551D01*
X1594Y1551D01*
X1594Y1549D01*
X1596Y1549D01*
X1596Y1547D01*
X1598Y1547D01*
X1598Y1545D01*
X1600Y1545D01*
X1600Y1543D01*
X1602Y1543D01*
X1602Y1541D01*
X1604Y1541D01*
X1604Y1539D01*
X1606Y1539D01*
X1606Y1537D01*
X1608Y1537D01*
X1608Y1535D01*
X1610Y1535D01*
X1610Y1533D01*
X1612Y1533D01*
X1612Y1531D01*
X1614Y1531D01*
X1614Y1529D01*
X1616Y1529D01*
X1616Y1527D01*
X1618Y1527D01*
X1618Y1525D01*
X1620Y1525D01*
X1620Y1521D01*
X1622Y1521D01*
X1622Y1103D01*
X1620Y1103D01*
X1620Y1099D01*
X1618Y1099D01*
X1618Y1097D01*
X1616Y1097D01*
X1616Y1095D01*
X1614Y1095D01*
X1614Y1093D01*
X1612Y1093D01*
X1612Y1091D01*
X1610Y1091D01*
X1610Y1089D01*
X1608Y1089D01*
X1608Y1087D01*
X1606Y1087D01*
X1606Y1085D01*
X1604Y1085D01*
X1604Y1083D01*
X1602Y1083D01*
X1602Y1081D01*
X1600Y1081D01*
X1600Y1079D01*
X1598Y1079D01*
X1598Y1077D01*
X1596Y1077D01*
X1596Y1075D01*
X1594Y1075D01*
X1594Y1073D01*
X1592Y1073D01*
X1592Y1071D01*
X1590Y1071D01*
X1590Y1069D01*
X1588Y1069D01*
X1588Y1067D01*
X1586Y1067D01*
X1586Y1065D01*
X1584Y1065D01*
X1584Y1063D01*
X1582Y1063D01*
X1582Y1061D01*
X1580Y1061D01*
X1580Y1059D01*
X1578Y1059D01*
X1578Y1057D01*
X1576Y1057D01*
X1576Y1055D01*
X1574Y1055D01*
X1574Y1053D01*
X1572Y1053D01*
X1572Y1051D01*
X1570Y1051D01*
X1570Y1049D01*
X1568Y1049D01*
X1568Y1047D01*
X1566Y1047D01*
X1566Y1045D01*
X1564Y1045D01*
X1564Y1043D01*
X1562Y1043D01*
X1562Y1041D01*
X1560Y1041D01*
X1560Y1039D01*
X1558Y1039D01*
X1558Y1037D01*
X1556Y1037D01*
X1556Y1035D01*
X1554Y1035D01*
X1554Y1033D01*
X1552Y1033D01*
X1552Y1031D01*
X1550Y1031D01*
X1550Y1029D01*
X1548Y1029D01*
X1548Y1027D01*
X1546Y1027D01*
X1546Y1025D01*
X1544Y1025D01*
X1544Y1023D01*
X1542Y1023D01*
X1542Y1021D01*
X1540Y1021D01*
X1540Y1019D01*
X1538Y1019D01*
X1538Y1017D01*
X1536Y1017D01*
X1536Y1015D01*
X1534Y1015D01*
X1534Y1013D01*
X1532Y1013D01*
X1532Y1011D01*
X1530Y1011D01*
X1530Y1009D01*
X1528Y1009D01*
X1528Y1007D01*
X1526Y1007D01*
X1526Y1005D01*
X1524Y1005D01*
X1524Y1003D01*
X1522Y1003D01*
X1522Y1001D01*
X1520Y1001D01*
X1520Y999D01*
X1518Y999D01*
X1518Y997D01*
X1516Y997D01*
X1516Y995D01*
X1514Y995D01*
X1514Y993D01*
X1512Y993D01*
X1512Y991D01*
X1510Y991D01*
X1510Y989D01*
X1508Y989D01*
X1508Y987D01*
X1506Y987D01*
X1506Y985D01*
X1504Y985D01*
X1504Y983D01*
X1502Y983D01*
X1502Y981D01*
X1500Y981D01*
X1500Y979D01*
X1498Y979D01*
X1498Y977D01*
X1496Y977D01*
X1496Y975D01*
X1494Y975D01*
X1494Y973D01*
X1492Y973D01*
X1492Y971D01*
X1490Y971D01*
X1490Y969D01*
X1488Y969D01*
X1488Y967D01*
X1486Y967D01*
X1486Y965D01*
X1484Y965D01*
X1484Y963D01*
X1482Y963D01*
X1482Y961D01*
X1480Y961D01*
X1480Y959D01*
X1478Y959D01*
X1478Y957D01*
X1476Y957D01*
X1476Y955D01*
X1474Y955D01*
X1474Y953D01*
X1472Y953D01*
X1472Y951D01*
X1470Y951D01*
X1470Y949D01*
X1468Y949D01*
X1468Y947D01*
X1466Y947D01*
X1466Y945D01*
X1464Y945D01*
X1464Y943D01*
X1462Y943D01*
X1462Y941D01*
X1460Y941D01*
X1460Y939D01*
X1458Y939D01*
X1458Y937D01*
X1456Y937D01*
X1456Y935D01*
X1454Y935D01*
X1454Y933D01*
X1452Y933D01*
X1452Y931D01*
X1450Y931D01*
X1450Y929D01*
X1448Y929D01*
X1448Y927D01*
X1446Y927D01*
X1446Y925D01*
X1444Y925D01*
X1444Y923D01*
X1442Y923D01*
X1442Y921D01*
X1440Y921D01*
X1440Y919D01*
X1438Y919D01*
X1438Y917D01*
X1436Y917D01*
X1436Y915D01*
X1434Y915D01*
X1434Y913D01*
X1432Y913D01*
X1432Y911D01*
X1430Y911D01*
X1430Y909D01*
X1428Y909D01*
X1428Y907D01*
X1426Y907D01*
X1426Y905D01*
X1424Y905D01*
X1424Y903D01*
X1422Y903D01*
X1422Y901D01*
X1420Y901D01*
X1420Y899D01*
X1418Y899D01*
X1418Y897D01*
X1416Y897D01*
X1416Y895D01*
X1414Y895D01*
X1414Y893D01*
X1412Y893D01*
X1412Y891D01*
X1408Y891D01*
X1408Y889D01*
X1690Y889D01*
X1690Y1781D01*
X40Y1781D01*
G37*
D02*
G36*
X40Y1761D02*
X40Y1759D01*
X1246Y1759D01*
X1246Y1741D01*
X1266Y1741D01*
X1266Y1743D01*
X1268Y1743D01*
X1268Y1745D01*
X1270Y1745D01*
X1270Y1747D01*
X1272Y1747D01*
X1272Y1749D01*
X1274Y1749D01*
X1274Y1751D01*
X1276Y1751D01*
X1276Y1753D01*
X1280Y1753D01*
X1280Y1755D01*
X1284Y1755D01*
X1284Y1757D01*
X1290Y1757D01*
X1290Y1759D01*
X1298Y1759D01*
X1298Y1761D01*
X40Y1761D01*
G37*
D02*
G36*
X40Y1759D02*
X40Y1165D01*
X586Y1165D01*
X586Y1167D01*
X580Y1167D01*
X580Y1169D01*
X576Y1169D01*
X576Y1171D01*
X572Y1171D01*
X572Y1173D01*
X570Y1173D01*
X570Y1175D01*
X568Y1175D01*
X568Y1177D01*
X566Y1177D01*
X566Y1179D01*
X564Y1179D01*
X564Y1181D01*
X562Y1181D01*
X562Y1183D01*
X560Y1183D01*
X560Y1185D01*
X558Y1185D01*
X558Y1189D01*
X556Y1189D01*
X556Y1193D01*
X554Y1193D01*
X554Y1199D01*
X552Y1199D01*
X552Y1229D01*
X550Y1229D01*
X550Y1231D01*
X548Y1231D01*
X548Y1233D01*
X546Y1233D01*
X546Y1235D01*
X544Y1235D01*
X544Y1237D01*
X542Y1237D01*
X542Y1239D01*
X540Y1239D01*
X540Y1241D01*
X538Y1241D01*
X538Y1243D01*
X536Y1243D01*
X536Y1245D01*
X534Y1245D01*
X534Y1247D01*
X532Y1247D01*
X532Y1249D01*
X530Y1249D01*
X530Y1251D01*
X528Y1251D01*
X528Y1253D01*
X526Y1253D01*
X526Y1255D01*
X524Y1255D01*
X524Y1257D01*
X522Y1257D01*
X522Y1259D01*
X520Y1259D01*
X520Y1261D01*
X518Y1261D01*
X518Y1263D01*
X516Y1263D01*
X516Y1265D01*
X514Y1265D01*
X514Y1267D01*
X512Y1267D01*
X512Y1269D01*
X510Y1269D01*
X510Y1271D01*
X508Y1271D01*
X508Y1273D01*
X506Y1273D01*
X506Y1275D01*
X504Y1275D01*
X504Y1277D01*
X502Y1277D01*
X502Y1279D01*
X500Y1279D01*
X500Y1281D01*
X498Y1281D01*
X498Y1283D01*
X496Y1283D01*
X496Y1285D01*
X494Y1285D01*
X494Y1287D01*
X492Y1287D01*
X492Y1289D01*
X490Y1289D01*
X490Y1291D01*
X488Y1291D01*
X488Y1293D01*
X486Y1293D01*
X486Y1295D01*
X484Y1295D01*
X484Y1297D01*
X482Y1297D01*
X482Y1299D01*
X480Y1299D01*
X480Y1301D01*
X478Y1301D01*
X478Y1307D01*
X476Y1307D01*
X476Y1617D01*
X478Y1617D01*
X478Y1623D01*
X480Y1623D01*
X480Y1625D01*
X482Y1625D01*
X482Y1627D01*
X484Y1627D01*
X484Y1629D01*
X486Y1629D01*
X486Y1631D01*
X488Y1631D01*
X488Y1633D01*
X490Y1633D01*
X490Y1635D01*
X492Y1635D01*
X492Y1637D01*
X494Y1637D01*
X494Y1639D01*
X496Y1639D01*
X496Y1641D01*
X498Y1641D01*
X498Y1643D01*
X500Y1643D01*
X500Y1645D01*
X502Y1645D01*
X502Y1647D01*
X504Y1647D01*
X504Y1649D01*
X506Y1649D01*
X506Y1651D01*
X508Y1651D01*
X508Y1653D01*
X510Y1653D01*
X510Y1655D01*
X512Y1655D01*
X512Y1657D01*
X514Y1657D01*
X514Y1659D01*
X516Y1659D01*
X516Y1661D01*
X518Y1661D01*
X518Y1663D01*
X520Y1663D01*
X520Y1665D01*
X522Y1665D01*
X522Y1667D01*
X524Y1667D01*
X524Y1669D01*
X526Y1669D01*
X526Y1671D01*
X528Y1671D01*
X528Y1673D01*
X530Y1673D01*
X530Y1675D01*
X532Y1675D01*
X532Y1677D01*
X534Y1677D01*
X534Y1679D01*
X536Y1679D01*
X536Y1681D01*
X538Y1681D01*
X538Y1683D01*
X540Y1683D01*
X540Y1685D01*
X542Y1685D01*
X542Y1687D01*
X544Y1687D01*
X544Y1689D01*
X546Y1689D01*
X546Y1691D01*
X548Y1691D01*
X548Y1693D01*
X550Y1693D01*
X550Y1695D01*
X552Y1695D01*
X552Y1723D01*
X554Y1723D01*
X554Y1729D01*
X556Y1729D01*
X556Y1733D01*
X558Y1733D01*
X558Y1737D01*
X560Y1737D01*
X560Y1739D01*
X562Y1739D01*
X562Y1743D01*
X564Y1743D01*
X564Y1745D01*
X566Y1745D01*
X566Y1747D01*
X568Y1747D01*
X568Y1749D01*
X572Y1749D01*
X572Y1751D01*
X574Y1751D01*
X574Y1753D01*
X578Y1753D01*
X578Y1755D01*
X582Y1755D01*
X582Y1757D01*
X590Y1757D01*
X590Y1759D01*
X40Y1759D01*
G37*
D02*
G36*
X608Y1759D02*
X608Y1757D01*
X614Y1757D01*
X614Y1755D01*
X620Y1755D01*
X620Y1753D01*
X624Y1753D01*
X624Y1751D01*
X626Y1751D01*
X626Y1749D01*
X628Y1749D01*
X628Y1747D01*
X632Y1747D01*
X632Y1745D01*
X634Y1745D01*
X634Y1741D01*
X636Y1741D01*
X636Y1739D01*
X638Y1739D01*
X638Y1737D01*
X660Y1737D01*
X660Y1739D01*
X662Y1739D01*
X662Y1743D01*
X664Y1743D01*
X664Y1745D01*
X666Y1745D01*
X666Y1747D01*
X668Y1747D01*
X668Y1749D01*
X672Y1749D01*
X672Y1751D01*
X674Y1751D01*
X674Y1753D01*
X678Y1753D01*
X678Y1755D01*
X682Y1755D01*
X682Y1757D01*
X690Y1757D01*
X690Y1759D01*
X608Y1759D01*
G37*
D02*
G36*
X708Y1759D02*
X708Y1757D01*
X714Y1757D01*
X714Y1755D01*
X720Y1755D01*
X720Y1753D01*
X724Y1753D01*
X724Y1751D01*
X726Y1751D01*
X726Y1749D01*
X728Y1749D01*
X728Y1747D01*
X732Y1747D01*
X732Y1745D01*
X734Y1745D01*
X734Y1741D01*
X736Y1741D01*
X736Y1739D01*
X738Y1739D01*
X738Y1737D01*
X760Y1737D01*
X760Y1739D01*
X762Y1739D01*
X762Y1743D01*
X764Y1743D01*
X764Y1745D01*
X766Y1745D01*
X766Y1747D01*
X768Y1747D01*
X768Y1749D01*
X772Y1749D01*
X772Y1751D01*
X774Y1751D01*
X774Y1753D01*
X778Y1753D01*
X778Y1755D01*
X782Y1755D01*
X782Y1757D01*
X790Y1757D01*
X790Y1759D01*
X708Y1759D01*
G37*
D02*
G36*
X808Y1759D02*
X808Y1757D01*
X814Y1757D01*
X814Y1755D01*
X820Y1755D01*
X820Y1753D01*
X824Y1753D01*
X824Y1751D01*
X826Y1751D01*
X826Y1749D01*
X828Y1749D01*
X828Y1747D01*
X832Y1747D01*
X832Y1745D01*
X834Y1745D01*
X834Y1741D01*
X836Y1741D01*
X836Y1739D01*
X838Y1739D01*
X838Y1737D01*
X860Y1737D01*
X860Y1739D01*
X862Y1739D01*
X862Y1743D01*
X864Y1743D01*
X864Y1745D01*
X866Y1745D01*
X866Y1747D01*
X868Y1747D01*
X868Y1749D01*
X872Y1749D01*
X872Y1751D01*
X874Y1751D01*
X874Y1753D01*
X878Y1753D01*
X878Y1755D01*
X882Y1755D01*
X882Y1757D01*
X890Y1757D01*
X890Y1759D01*
X808Y1759D01*
G37*
D02*
G36*
X908Y1759D02*
X908Y1757D01*
X914Y1757D01*
X914Y1755D01*
X920Y1755D01*
X920Y1753D01*
X924Y1753D01*
X924Y1751D01*
X926Y1751D01*
X926Y1749D01*
X928Y1749D01*
X928Y1747D01*
X932Y1747D01*
X932Y1745D01*
X934Y1745D01*
X934Y1741D01*
X936Y1741D01*
X936Y1739D01*
X938Y1739D01*
X938Y1737D01*
X960Y1737D01*
X960Y1739D01*
X962Y1739D01*
X962Y1743D01*
X964Y1743D01*
X964Y1745D01*
X966Y1745D01*
X966Y1747D01*
X968Y1747D01*
X968Y1749D01*
X972Y1749D01*
X972Y1751D01*
X974Y1751D01*
X974Y1753D01*
X978Y1753D01*
X978Y1755D01*
X982Y1755D01*
X982Y1757D01*
X990Y1757D01*
X990Y1759D01*
X908Y1759D01*
G37*
D02*
G36*
X1008Y1759D02*
X1008Y1757D01*
X1014Y1757D01*
X1014Y1755D01*
X1020Y1755D01*
X1020Y1753D01*
X1024Y1753D01*
X1024Y1751D01*
X1026Y1751D01*
X1026Y1749D01*
X1028Y1749D01*
X1028Y1747D01*
X1032Y1747D01*
X1032Y1745D01*
X1034Y1745D01*
X1034Y1741D01*
X1036Y1741D01*
X1036Y1739D01*
X1038Y1739D01*
X1038Y1737D01*
X1060Y1737D01*
X1060Y1739D01*
X1062Y1739D01*
X1062Y1743D01*
X1064Y1743D01*
X1064Y1745D01*
X1066Y1745D01*
X1066Y1747D01*
X1068Y1747D01*
X1068Y1749D01*
X1072Y1749D01*
X1072Y1751D01*
X1074Y1751D01*
X1074Y1753D01*
X1078Y1753D01*
X1078Y1755D01*
X1082Y1755D01*
X1082Y1757D01*
X1090Y1757D01*
X1090Y1759D01*
X1008Y1759D01*
G37*
D02*
G36*
X1108Y1759D02*
X1108Y1757D01*
X1114Y1757D01*
X1114Y1755D01*
X1120Y1755D01*
X1120Y1753D01*
X1124Y1753D01*
X1124Y1751D01*
X1126Y1751D01*
X1126Y1749D01*
X1128Y1749D01*
X1128Y1747D01*
X1132Y1747D01*
X1132Y1745D01*
X1152Y1745D01*
X1152Y1759D01*
X1108Y1759D01*
G37*
D02*
G36*
X1348Y1691D02*
X1348Y1689D01*
X1346Y1689D01*
X1346Y1685D01*
X1344Y1685D01*
X1344Y1683D01*
X1342Y1683D01*
X1342Y1681D01*
X1340Y1681D01*
X1340Y1677D01*
X1338Y1677D01*
X1338Y1675D01*
X1334Y1675D01*
X1334Y1673D01*
X1332Y1673D01*
X1332Y1651D01*
X1334Y1651D01*
X1334Y1649D01*
X1336Y1649D01*
X1336Y1647D01*
X1338Y1647D01*
X1338Y1645D01*
X1340Y1645D01*
X1340Y1643D01*
X1342Y1643D01*
X1342Y1641D01*
X1344Y1641D01*
X1344Y1637D01*
X1346Y1637D01*
X1346Y1633D01*
X1348Y1633D01*
X1348Y1631D01*
X1350Y1631D01*
X1350Y1623D01*
X1352Y1623D01*
X1352Y1599D01*
X1350Y1599D01*
X1350Y1593D01*
X1348Y1593D01*
X1348Y1589D01*
X1346Y1589D01*
X1346Y1585D01*
X1344Y1585D01*
X1344Y1583D01*
X1342Y1583D01*
X1342Y1581D01*
X1340Y1581D01*
X1340Y1577D01*
X1338Y1577D01*
X1338Y1575D01*
X1334Y1575D01*
X1334Y1573D01*
X1332Y1573D01*
X1332Y1551D01*
X1334Y1551D01*
X1334Y1549D01*
X1336Y1549D01*
X1336Y1547D01*
X1338Y1547D01*
X1338Y1545D01*
X1340Y1545D01*
X1340Y1543D01*
X1342Y1543D01*
X1342Y1541D01*
X1344Y1541D01*
X1344Y1537D01*
X1346Y1537D01*
X1346Y1533D01*
X1348Y1533D01*
X1348Y1531D01*
X1350Y1531D01*
X1350Y1523D01*
X1352Y1523D01*
X1352Y1499D01*
X1350Y1499D01*
X1350Y1493D01*
X1348Y1493D01*
X1348Y1489D01*
X1346Y1489D01*
X1346Y1485D01*
X1344Y1485D01*
X1344Y1483D01*
X1342Y1483D01*
X1342Y1481D01*
X1340Y1481D01*
X1340Y1477D01*
X1338Y1477D01*
X1338Y1475D01*
X1334Y1475D01*
X1334Y1473D01*
X1332Y1473D01*
X1332Y1451D01*
X1334Y1451D01*
X1334Y1449D01*
X1336Y1449D01*
X1336Y1447D01*
X1338Y1447D01*
X1338Y1445D01*
X1340Y1445D01*
X1340Y1443D01*
X1342Y1443D01*
X1342Y1441D01*
X1344Y1441D01*
X1344Y1437D01*
X1346Y1437D01*
X1346Y1433D01*
X1348Y1433D01*
X1348Y1431D01*
X1350Y1431D01*
X1350Y1423D01*
X1352Y1423D01*
X1352Y1399D01*
X1350Y1399D01*
X1350Y1393D01*
X1348Y1393D01*
X1348Y1389D01*
X1346Y1389D01*
X1346Y1385D01*
X1344Y1385D01*
X1344Y1383D01*
X1342Y1383D01*
X1342Y1381D01*
X1340Y1381D01*
X1340Y1377D01*
X1338Y1377D01*
X1338Y1375D01*
X1334Y1375D01*
X1334Y1373D01*
X1332Y1373D01*
X1332Y1371D01*
X1330Y1371D01*
X1330Y1369D01*
X1326Y1369D01*
X1326Y1367D01*
X1324Y1367D01*
X1324Y1357D01*
X1322Y1357D01*
X1322Y1319D01*
X1320Y1319D01*
X1320Y1305D01*
X1318Y1305D01*
X1318Y1301D01*
X1316Y1301D01*
X1316Y1299D01*
X1314Y1299D01*
X1314Y1297D01*
X1312Y1297D01*
X1312Y1295D01*
X1310Y1295D01*
X1310Y1293D01*
X1306Y1293D01*
X1306Y1291D01*
X1578Y1291D01*
X1578Y1505D01*
X1576Y1505D01*
X1576Y1507D01*
X1574Y1507D01*
X1574Y1509D01*
X1572Y1509D01*
X1572Y1511D01*
X1570Y1511D01*
X1570Y1513D01*
X1568Y1513D01*
X1568Y1515D01*
X1566Y1515D01*
X1566Y1517D01*
X1564Y1517D01*
X1564Y1519D01*
X1562Y1519D01*
X1562Y1521D01*
X1560Y1521D01*
X1560Y1523D01*
X1558Y1523D01*
X1558Y1525D01*
X1556Y1525D01*
X1556Y1527D01*
X1554Y1527D01*
X1554Y1529D01*
X1552Y1529D01*
X1552Y1531D01*
X1550Y1531D01*
X1550Y1533D01*
X1548Y1533D01*
X1548Y1535D01*
X1546Y1535D01*
X1546Y1537D01*
X1544Y1537D01*
X1544Y1539D01*
X1542Y1539D01*
X1542Y1541D01*
X1540Y1541D01*
X1540Y1543D01*
X1538Y1543D01*
X1538Y1545D01*
X1536Y1545D01*
X1536Y1547D01*
X1534Y1547D01*
X1534Y1549D01*
X1532Y1549D01*
X1532Y1551D01*
X1530Y1551D01*
X1530Y1553D01*
X1528Y1553D01*
X1528Y1555D01*
X1526Y1555D01*
X1526Y1557D01*
X1524Y1557D01*
X1524Y1559D01*
X1522Y1559D01*
X1522Y1561D01*
X1520Y1561D01*
X1520Y1563D01*
X1518Y1563D01*
X1518Y1565D01*
X1516Y1565D01*
X1516Y1567D01*
X1514Y1567D01*
X1514Y1569D01*
X1512Y1569D01*
X1512Y1571D01*
X1510Y1571D01*
X1510Y1573D01*
X1508Y1573D01*
X1508Y1575D01*
X1506Y1575D01*
X1506Y1577D01*
X1504Y1577D01*
X1504Y1579D01*
X1502Y1579D01*
X1502Y1581D01*
X1500Y1581D01*
X1500Y1583D01*
X1498Y1583D01*
X1498Y1585D01*
X1496Y1585D01*
X1496Y1587D01*
X1494Y1587D01*
X1494Y1589D01*
X1492Y1589D01*
X1492Y1591D01*
X1490Y1591D01*
X1490Y1593D01*
X1488Y1593D01*
X1488Y1595D01*
X1486Y1595D01*
X1486Y1597D01*
X1484Y1597D01*
X1484Y1599D01*
X1482Y1599D01*
X1482Y1601D01*
X1480Y1601D01*
X1480Y1603D01*
X1478Y1603D01*
X1478Y1605D01*
X1476Y1605D01*
X1476Y1607D01*
X1474Y1607D01*
X1474Y1609D01*
X1472Y1609D01*
X1472Y1611D01*
X1470Y1611D01*
X1470Y1613D01*
X1468Y1613D01*
X1468Y1615D01*
X1466Y1615D01*
X1466Y1617D01*
X1464Y1617D01*
X1464Y1619D01*
X1462Y1619D01*
X1462Y1621D01*
X1460Y1621D01*
X1460Y1623D01*
X1458Y1623D01*
X1458Y1625D01*
X1456Y1625D01*
X1456Y1627D01*
X1454Y1627D01*
X1454Y1629D01*
X1452Y1629D01*
X1452Y1631D01*
X1450Y1631D01*
X1450Y1633D01*
X1448Y1633D01*
X1448Y1635D01*
X1446Y1635D01*
X1446Y1637D01*
X1444Y1637D01*
X1444Y1639D01*
X1442Y1639D01*
X1442Y1641D01*
X1440Y1641D01*
X1440Y1643D01*
X1438Y1643D01*
X1438Y1645D01*
X1436Y1645D01*
X1436Y1647D01*
X1434Y1647D01*
X1434Y1649D01*
X1432Y1649D01*
X1432Y1651D01*
X1430Y1651D01*
X1430Y1653D01*
X1428Y1653D01*
X1428Y1655D01*
X1426Y1655D01*
X1426Y1657D01*
X1424Y1657D01*
X1424Y1659D01*
X1422Y1659D01*
X1422Y1661D01*
X1420Y1661D01*
X1420Y1663D01*
X1418Y1663D01*
X1418Y1665D01*
X1416Y1665D01*
X1416Y1667D01*
X1414Y1667D01*
X1414Y1669D01*
X1412Y1669D01*
X1412Y1671D01*
X1410Y1671D01*
X1410Y1673D01*
X1408Y1673D01*
X1408Y1675D01*
X1406Y1675D01*
X1406Y1677D01*
X1404Y1677D01*
X1404Y1679D01*
X1402Y1679D01*
X1402Y1681D01*
X1400Y1681D01*
X1400Y1683D01*
X1398Y1683D01*
X1398Y1685D01*
X1396Y1685D01*
X1396Y1687D01*
X1394Y1687D01*
X1394Y1689D01*
X1392Y1689D01*
X1392Y1691D01*
X1348Y1691D01*
G37*
D02*
G36*
X638Y1687D02*
X638Y1683D01*
X636Y1683D01*
X636Y1681D01*
X634Y1681D01*
X634Y1679D01*
X632Y1679D01*
X632Y1677D01*
X630Y1677D01*
X630Y1675D01*
X628Y1675D01*
X628Y1673D01*
X624Y1673D01*
X624Y1671D01*
X622Y1671D01*
X622Y1669D01*
X618Y1669D01*
X618Y1667D01*
X612Y1667D01*
X612Y1665D01*
X582Y1665D01*
X582Y1663D01*
X580Y1663D01*
X580Y1661D01*
X578Y1661D01*
X578Y1659D01*
X576Y1659D01*
X576Y1657D01*
X574Y1657D01*
X574Y1655D01*
X572Y1655D01*
X572Y1653D01*
X570Y1653D01*
X570Y1651D01*
X568Y1651D01*
X568Y1649D01*
X566Y1649D01*
X566Y1647D01*
X564Y1647D01*
X564Y1645D01*
X562Y1645D01*
X562Y1643D01*
X560Y1643D01*
X560Y1641D01*
X558Y1641D01*
X558Y1639D01*
X556Y1639D01*
X556Y1637D01*
X554Y1637D01*
X554Y1635D01*
X552Y1635D01*
X552Y1633D01*
X550Y1633D01*
X550Y1631D01*
X548Y1631D01*
X548Y1629D01*
X546Y1629D01*
X546Y1627D01*
X544Y1627D01*
X544Y1625D01*
X542Y1625D01*
X542Y1623D01*
X540Y1623D01*
X540Y1621D01*
X538Y1621D01*
X538Y1619D01*
X536Y1619D01*
X536Y1617D01*
X534Y1617D01*
X534Y1615D01*
X532Y1615D01*
X532Y1613D01*
X530Y1613D01*
X530Y1611D01*
X528Y1611D01*
X528Y1609D01*
X526Y1609D01*
X526Y1607D01*
X524Y1607D01*
X524Y1605D01*
X522Y1605D01*
X522Y1603D01*
X520Y1603D01*
X520Y1535D01*
X1116Y1535D01*
X1116Y1533D01*
X1260Y1533D01*
X1260Y1535D01*
X1262Y1535D01*
X1262Y1539D01*
X1264Y1539D01*
X1264Y1541D01*
X1266Y1541D01*
X1266Y1543D01*
X1268Y1543D01*
X1268Y1545D01*
X1270Y1545D01*
X1270Y1547D01*
X1272Y1547D01*
X1272Y1549D01*
X1274Y1549D01*
X1274Y1551D01*
X1276Y1551D01*
X1276Y1573D01*
X1272Y1573D01*
X1272Y1575D01*
X1270Y1575D01*
X1270Y1577D01*
X1268Y1577D01*
X1268Y1579D01*
X1266Y1579D01*
X1266Y1581D01*
X1264Y1581D01*
X1264Y1585D01*
X1262Y1585D01*
X1262Y1589D01*
X794Y1589D01*
X794Y1591D01*
X790Y1591D01*
X790Y1593D01*
X786Y1593D01*
X786Y1595D01*
X784Y1595D01*
X784Y1597D01*
X782Y1597D01*
X782Y1599D01*
X780Y1599D01*
X780Y1601D01*
X778Y1601D01*
X778Y1603D01*
X776Y1603D01*
X776Y1605D01*
X774Y1605D01*
X774Y1607D01*
X772Y1607D01*
X772Y1609D01*
X770Y1609D01*
X770Y1611D01*
X768Y1611D01*
X768Y1613D01*
X766Y1613D01*
X766Y1615D01*
X764Y1615D01*
X764Y1617D01*
X762Y1617D01*
X762Y1619D01*
X760Y1619D01*
X760Y1621D01*
X758Y1621D01*
X758Y1623D01*
X756Y1623D01*
X756Y1625D01*
X754Y1625D01*
X754Y1627D01*
X752Y1627D01*
X752Y1629D01*
X750Y1629D01*
X750Y1631D01*
X748Y1631D01*
X748Y1633D01*
X746Y1633D01*
X746Y1635D01*
X744Y1635D01*
X744Y1637D01*
X742Y1637D01*
X742Y1639D01*
X740Y1639D01*
X740Y1641D01*
X738Y1641D01*
X738Y1643D01*
X736Y1643D01*
X736Y1645D01*
X734Y1645D01*
X734Y1647D01*
X732Y1647D01*
X732Y1649D01*
X730Y1649D01*
X730Y1651D01*
X728Y1651D01*
X728Y1653D01*
X726Y1653D01*
X726Y1655D01*
X724Y1655D01*
X724Y1657D01*
X722Y1657D01*
X722Y1659D01*
X720Y1659D01*
X720Y1661D01*
X718Y1661D01*
X718Y1663D01*
X716Y1663D01*
X716Y1665D01*
X686Y1665D01*
X686Y1667D01*
X680Y1667D01*
X680Y1669D01*
X676Y1669D01*
X676Y1671D01*
X672Y1671D01*
X672Y1673D01*
X670Y1673D01*
X670Y1675D01*
X668Y1675D01*
X668Y1677D01*
X666Y1677D01*
X666Y1679D01*
X664Y1679D01*
X664Y1681D01*
X662Y1681D01*
X662Y1683D01*
X660Y1683D01*
X660Y1685D01*
X658Y1685D01*
X658Y1687D01*
X638Y1687D01*
G37*
D02*
G36*
X520Y1535D02*
X520Y1365D01*
X586Y1365D01*
X586Y1367D01*
X580Y1367D01*
X580Y1369D01*
X576Y1369D01*
X576Y1371D01*
X572Y1371D01*
X572Y1373D01*
X570Y1373D01*
X570Y1375D01*
X568Y1375D01*
X568Y1377D01*
X566Y1377D01*
X566Y1379D01*
X564Y1379D01*
X564Y1381D01*
X562Y1381D01*
X562Y1383D01*
X560Y1383D01*
X560Y1385D01*
X558Y1385D01*
X558Y1389D01*
X556Y1389D01*
X556Y1393D01*
X554Y1393D01*
X554Y1399D01*
X552Y1399D01*
X552Y1423D01*
X554Y1423D01*
X554Y1429D01*
X556Y1429D01*
X556Y1433D01*
X558Y1433D01*
X558Y1437D01*
X560Y1437D01*
X560Y1439D01*
X562Y1439D01*
X562Y1443D01*
X564Y1443D01*
X564Y1445D01*
X566Y1445D01*
X566Y1447D01*
X568Y1447D01*
X568Y1449D01*
X572Y1449D01*
X572Y1451D01*
X574Y1451D01*
X574Y1453D01*
X578Y1453D01*
X578Y1455D01*
X582Y1455D01*
X582Y1457D01*
X590Y1457D01*
X590Y1459D01*
X616Y1459D01*
X616Y1461D01*
X618Y1461D01*
X618Y1463D01*
X620Y1463D01*
X620Y1465D01*
X622Y1465D01*
X622Y1467D01*
X624Y1467D01*
X624Y1469D01*
X626Y1469D01*
X626Y1471D01*
X628Y1471D01*
X628Y1473D01*
X630Y1473D01*
X630Y1475D01*
X632Y1475D01*
X632Y1479D01*
X634Y1479D01*
X634Y1481D01*
X636Y1481D01*
X636Y1483D01*
X638Y1483D01*
X638Y1485D01*
X640Y1485D01*
X640Y1487D01*
X642Y1487D01*
X642Y1489D01*
X644Y1489D01*
X644Y1491D01*
X646Y1491D01*
X646Y1493D01*
X648Y1493D01*
X648Y1495D01*
X650Y1495D01*
X650Y1497D01*
X652Y1497D01*
X652Y1499D01*
X654Y1499D01*
X654Y1501D01*
X656Y1501D01*
X656Y1503D01*
X658Y1503D01*
X658Y1505D01*
X660Y1505D01*
X660Y1507D01*
X662Y1507D01*
X662Y1509D01*
X664Y1509D01*
X664Y1511D01*
X666Y1511D01*
X666Y1513D01*
X668Y1513D01*
X668Y1515D01*
X670Y1515D01*
X670Y1517D01*
X672Y1517D01*
X672Y1519D01*
X674Y1519D01*
X674Y1521D01*
X676Y1521D01*
X676Y1523D01*
X678Y1523D01*
X678Y1525D01*
X680Y1525D01*
X680Y1527D01*
X682Y1527D01*
X682Y1529D01*
X684Y1529D01*
X684Y1531D01*
X686Y1531D01*
X686Y1533D01*
X692Y1533D01*
X692Y1535D01*
X520Y1535D01*
G37*
D02*
G36*
X638Y1387D02*
X638Y1383D01*
X636Y1383D01*
X636Y1381D01*
X634Y1381D01*
X634Y1379D01*
X632Y1379D01*
X632Y1377D01*
X630Y1377D01*
X630Y1375D01*
X628Y1375D01*
X628Y1373D01*
X624Y1373D01*
X624Y1371D01*
X622Y1371D01*
X622Y1369D01*
X618Y1369D01*
X618Y1367D01*
X612Y1367D01*
X612Y1365D01*
X686Y1365D01*
X686Y1367D01*
X680Y1367D01*
X680Y1369D01*
X676Y1369D01*
X676Y1371D01*
X672Y1371D01*
X672Y1373D01*
X670Y1373D01*
X670Y1375D01*
X668Y1375D01*
X668Y1377D01*
X666Y1377D01*
X666Y1379D01*
X664Y1379D01*
X664Y1381D01*
X662Y1381D01*
X662Y1383D01*
X660Y1383D01*
X660Y1385D01*
X658Y1385D01*
X658Y1387D01*
X638Y1387D01*
G37*
D02*
G36*
X520Y1365D02*
X520Y1363D01*
X716Y1363D01*
X716Y1365D01*
X520Y1365D01*
G37*
D02*
G36*
X520Y1365D02*
X520Y1363D01*
X716Y1363D01*
X716Y1365D01*
X520Y1365D01*
G37*
D02*
G36*
X896Y1365D02*
X896Y1345D01*
X898Y1345D01*
X898Y1343D01*
X900Y1343D01*
X900Y1341D01*
X902Y1341D01*
X902Y1339D01*
X904Y1339D01*
X904Y1337D01*
X906Y1337D01*
X906Y1335D01*
X908Y1335D01*
X908Y1333D01*
X910Y1333D01*
X910Y1331D01*
X912Y1331D01*
X912Y1329D01*
X914Y1329D01*
X914Y1327D01*
X916Y1327D01*
X916Y1325D01*
X918Y1325D01*
X918Y1323D01*
X920Y1323D01*
X920Y1321D01*
X922Y1321D01*
X922Y1319D01*
X924Y1319D01*
X924Y1317D01*
X926Y1317D01*
X926Y1315D01*
X928Y1315D01*
X928Y1313D01*
X930Y1313D01*
X930Y1311D01*
X932Y1311D01*
X932Y1309D01*
X934Y1309D01*
X934Y1307D01*
X936Y1307D01*
X936Y1305D01*
X938Y1305D01*
X938Y1303D01*
X940Y1303D01*
X940Y1301D01*
X942Y1301D01*
X942Y1299D01*
X944Y1299D01*
X944Y1297D01*
X946Y1297D01*
X946Y1295D01*
X948Y1295D01*
X948Y1293D01*
X950Y1293D01*
X950Y1291D01*
X994Y1291D01*
X994Y1293D01*
X990Y1293D01*
X990Y1295D01*
X986Y1295D01*
X986Y1297D01*
X984Y1297D01*
X984Y1299D01*
X982Y1299D01*
X982Y1301D01*
X980Y1301D01*
X980Y1303D01*
X978Y1303D01*
X978Y1305D01*
X976Y1305D01*
X976Y1307D01*
X974Y1307D01*
X974Y1309D01*
X972Y1309D01*
X972Y1311D01*
X970Y1311D01*
X970Y1313D01*
X968Y1313D01*
X968Y1315D01*
X966Y1315D01*
X966Y1317D01*
X964Y1317D01*
X964Y1319D01*
X962Y1319D01*
X962Y1321D01*
X960Y1321D01*
X960Y1323D01*
X958Y1323D01*
X958Y1325D01*
X956Y1325D01*
X956Y1327D01*
X954Y1327D01*
X954Y1329D01*
X952Y1329D01*
X952Y1331D01*
X950Y1331D01*
X950Y1333D01*
X948Y1333D01*
X948Y1335D01*
X946Y1335D01*
X946Y1337D01*
X942Y1337D01*
X942Y1339D01*
X940Y1339D01*
X940Y1341D01*
X938Y1341D01*
X938Y1343D01*
X936Y1343D01*
X936Y1345D01*
X934Y1345D01*
X934Y1347D01*
X932Y1347D01*
X932Y1349D01*
X930Y1349D01*
X930Y1351D01*
X928Y1351D01*
X928Y1353D01*
X926Y1353D01*
X926Y1355D01*
X924Y1355D01*
X924Y1357D01*
X922Y1357D01*
X922Y1359D01*
X920Y1359D01*
X920Y1361D01*
X918Y1361D01*
X918Y1363D01*
X916Y1363D01*
X916Y1365D01*
X896Y1365D01*
G37*
D02*
G36*
X520Y1363D02*
X520Y1321D01*
X522Y1321D01*
X522Y1319D01*
X524Y1319D01*
X524Y1317D01*
X526Y1317D01*
X526Y1315D01*
X528Y1315D01*
X528Y1313D01*
X530Y1313D01*
X530Y1311D01*
X532Y1311D01*
X532Y1309D01*
X534Y1309D01*
X534Y1307D01*
X536Y1307D01*
X536Y1305D01*
X538Y1305D01*
X538Y1303D01*
X540Y1303D01*
X540Y1301D01*
X542Y1301D01*
X542Y1299D01*
X544Y1299D01*
X544Y1297D01*
X546Y1297D01*
X546Y1295D01*
X548Y1295D01*
X548Y1293D01*
X550Y1293D01*
X550Y1291D01*
X552Y1291D01*
X552Y1289D01*
X554Y1289D01*
X554Y1287D01*
X556Y1287D01*
X556Y1285D01*
X558Y1285D01*
X558Y1283D01*
X560Y1283D01*
X560Y1281D01*
X562Y1281D01*
X562Y1279D01*
X564Y1279D01*
X564Y1277D01*
X566Y1277D01*
X566Y1275D01*
X568Y1275D01*
X568Y1273D01*
X570Y1273D01*
X570Y1271D01*
X572Y1271D01*
X572Y1269D01*
X574Y1269D01*
X574Y1267D01*
X576Y1267D01*
X576Y1265D01*
X578Y1265D01*
X578Y1263D01*
X580Y1263D01*
X580Y1261D01*
X582Y1261D01*
X582Y1259D01*
X608Y1259D01*
X608Y1257D01*
X614Y1257D01*
X614Y1255D01*
X620Y1255D01*
X620Y1253D01*
X624Y1253D01*
X624Y1251D01*
X626Y1251D01*
X626Y1249D01*
X628Y1249D01*
X628Y1247D01*
X632Y1247D01*
X632Y1245D01*
X634Y1245D01*
X634Y1241D01*
X636Y1241D01*
X636Y1239D01*
X638Y1239D01*
X638Y1237D01*
X640Y1237D01*
X640Y1233D01*
X642Y1233D01*
X642Y1229D01*
X644Y1229D01*
X644Y1221D01*
X646Y1221D01*
X646Y1201D01*
X644Y1201D01*
X644Y1195D01*
X642Y1195D01*
X642Y1191D01*
X640Y1191D01*
X640Y1187D01*
X638Y1187D01*
X638Y1183D01*
X636Y1183D01*
X636Y1181D01*
X634Y1181D01*
X634Y1179D01*
X632Y1179D01*
X632Y1177D01*
X630Y1177D01*
X630Y1175D01*
X628Y1175D01*
X628Y1173D01*
X624Y1173D01*
X624Y1171D01*
X622Y1171D01*
X622Y1169D01*
X618Y1169D01*
X618Y1167D01*
X612Y1167D01*
X612Y1165D01*
X886Y1165D01*
X886Y1167D01*
X880Y1167D01*
X880Y1169D01*
X876Y1169D01*
X876Y1171D01*
X872Y1171D01*
X872Y1173D01*
X870Y1173D01*
X870Y1175D01*
X868Y1175D01*
X868Y1177D01*
X866Y1177D01*
X866Y1179D01*
X864Y1179D01*
X864Y1181D01*
X862Y1181D01*
X862Y1183D01*
X860Y1183D01*
X860Y1185D01*
X858Y1185D01*
X858Y1189D01*
X856Y1189D01*
X856Y1193D01*
X854Y1193D01*
X854Y1199D01*
X852Y1199D01*
X852Y1229D01*
X850Y1229D01*
X850Y1231D01*
X848Y1231D01*
X848Y1233D01*
X846Y1233D01*
X846Y1235D01*
X844Y1235D01*
X844Y1237D01*
X842Y1237D01*
X842Y1239D01*
X840Y1239D01*
X840Y1241D01*
X838Y1241D01*
X838Y1243D01*
X836Y1243D01*
X836Y1245D01*
X834Y1245D01*
X834Y1247D01*
X832Y1247D01*
X832Y1249D01*
X830Y1249D01*
X830Y1251D01*
X828Y1251D01*
X828Y1253D01*
X826Y1253D01*
X826Y1255D01*
X824Y1255D01*
X824Y1257D01*
X822Y1257D01*
X822Y1259D01*
X820Y1259D01*
X820Y1263D01*
X818Y1263D01*
X818Y1265D01*
X816Y1265D01*
X816Y1267D01*
X814Y1267D01*
X814Y1269D01*
X812Y1269D01*
X812Y1271D01*
X810Y1271D01*
X810Y1273D01*
X808Y1273D01*
X808Y1275D01*
X806Y1275D01*
X806Y1277D01*
X804Y1277D01*
X804Y1279D01*
X802Y1279D01*
X802Y1281D01*
X800Y1281D01*
X800Y1283D01*
X798Y1283D01*
X798Y1285D01*
X796Y1285D01*
X796Y1287D01*
X794Y1287D01*
X794Y1289D01*
X792Y1289D01*
X792Y1291D01*
X790Y1291D01*
X790Y1293D01*
X788Y1293D01*
X788Y1295D01*
X786Y1295D01*
X786Y1297D01*
X784Y1297D01*
X784Y1299D01*
X782Y1299D01*
X782Y1301D01*
X780Y1301D01*
X780Y1303D01*
X778Y1303D01*
X778Y1305D01*
X776Y1305D01*
X776Y1307D01*
X774Y1307D01*
X774Y1309D01*
X772Y1309D01*
X772Y1311D01*
X770Y1311D01*
X770Y1313D01*
X768Y1313D01*
X768Y1315D01*
X766Y1315D01*
X766Y1317D01*
X764Y1317D01*
X764Y1319D01*
X762Y1319D01*
X762Y1321D01*
X760Y1321D01*
X760Y1323D01*
X758Y1323D01*
X758Y1325D01*
X756Y1325D01*
X756Y1327D01*
X754Y1327D01*
X754Y1329D01*
X752Y1329D01*
X752Y1331D01*
X750Y1331D01*
X750Y1333D01*
X746Y1333D01*
X746Y1335D01*
X744Y1335D01*
X744Y1337D01*
X742Y1337D01*
X742Y1339D01*
X740Y1339D01*
X740Y1341D01*
X738Y1341D01*
X738Y1343D01*
X736Y1343D01*
X736Y1345D01*
X734Y1345D01*
X734Y1347D01*
X732Y1347D01*
X732Y1349D01*
X730Y1349D01*
X730Y1351D01*
X728Y1351D01*
X728Y1353D01*
X726Y1353D01*
X726Y1355D01*
X724Y1355D01*
X724Y1357D01*
X722Y1357D01*
X722Y1359D01*
X720Y1359D01*
X720Y1361D01*
X718Y1361D01*
X718Y1363D01*
X520Y1363D01*
G37*
D02*
G36*
X952Y1291D02*
X952Y1289D01*
X1578Y1289D01*
X1578Y1291D01*
X952Y1291D01*
G37*
D02*
G36*
X952Y1291D02*
X952Y1289D01*
X1578Y1289D01*
X1578Y1291D01*
X952Y1291D01*
G37*
D02*
G36*
X954Y1289D02*
X954Y1287D01*
X956Y1287D01*
X956Y1285D01*
X958Y1285D01*
X958Y1283D01*
X960Y1283D01*
X960Y1281D01*
X962Y1281D01*
X962Y1279D01*
X964Y1279D01*
X964Y1277D01*
X966Y1277D01*
X966Y1275D01*
X968Y1275D01*
X968Y1273D01*
X970Y1273D01*
X970Y1271D01*
X972Y1271D01*
X972Y1269D01*
X974Y1269D01*
X974Y1267D01*
X976Y1267D01*
X976Y1265D01*
X978Y1265D01*
X978Y1263D01*
X980Y1263D01*
X980Y1261D01*
X1504Y1261D01*
X1504Y1259D01*
X1514Y1259D01*
X1514Y1257D01*
X1518Y1257D01*
X1518Y1255D01*
X1522Y1255D01*
X1522Y1253D01*
X1526Y1253D01*
X1526Y1251D01*
X1528Y1251D01*
X1528Y1249D01*
X1532Y1249D01*
X1532Y1247D01*
X1534Y1247D01*
X1534Y1245D01*
X1536Y1245D01*
X1536Y1241D01*
X1538Y1241D01*
X1538Y1239D01*
X1540Y1239D01*
X1540Y1235D01*
X1578Y1235D01*
X1578Y1289D01*
X954Y1289D01*
G37*
D02*
G36*
X982Y1261D02*
X982Y1259D01*
X1208Y1259D01*
X1208Y1257D01*
X1214Y1257D01*
X1214Y1255D01*
X1220Y1255D01*
X1220Y1253D01*
X1224Y1253D01*
X1224Y1251D01*
X1226Y1251D01*
X1226Y1249D01*
X1228Y1249D01*
X1228Y1247D01*
X1232Y1247D01*
X1232Y1245D01*
X1234Y1245D01*
X1234Y1241D01*
X1236Y1241D01*
X1236Y1239D01*
X1238Y1239D01*
X1238Y1237D01*
X1240Y1237D01*
X1240Y1233D01*
X1242Y1233D01*
X1242Y1229D01*
X1244Y1229D01*
X1244Y1221D01*
X1246Y1221D01*
X1246Y1201D01*
X1244Y1201D01*
X1244Y1195D01*
X1242Y1195D01*
X1242Y1191D01*
X1240Y1191D01*
X1240Y1187D01*
X1238Y1187D01*
X1238Y1183D01*
X1236Y1183D01*
X1236Y1181D01*
X1234Y1181D01*
X1234Y1179D01*
X1232Y1179D01*
X1232Y1177D01*
X1230Y1177D01*
X1230Y1175D01*
X1228Y1175D01*
X1228Y1173D01*
X1224Y1173D01*
X1224Y1171D01*
X1222Y1171D01*
X1222Y1169D01*
X1218Y1169D01*
X1218Y1167D01*
X1212Y1167D01*
X1212Y1165D01*
X1372Y1165D01*
X1372Y1171D01*
X1370Y1171D01*
X1370Y1173D01*
X1368Y1173D01*
X1368Y1175D01*
X1366Y1175D01*
X1366Y1177D01*
X1364Y1177D01*
X1364Y1179D01*
X1362Y1179D01*
X1362Y1181D01*
X1360Y1181D01*
X1360Y1183D01*
X1358Y1183D01*
X1358Y1187D01*
X1356Y1187D01*
X1356Y1189D01*
X1354Y1189D01*
X1354Y1195D01*
X1352Y1195D01*
X1352Y1201D01*
X1350Y1201D01*
X1350Y1221D01*
X1352Y1221D01*
X1352Y1229D01*
X1354Y1229D01*
X1354Y1233D01*
X1356Y1233D01*
X1356Y1237D01*
X1358Y1237D01*
X1358Y1239D01*
X1360Y1239D01*
X1360Y1243D01*
X1362Y1243D01*
X1362Y1245D01*
X1364Y1245D01*
X1364Y1247D01*
X1366Y1247D01*
X1366Y1249D01*
X1368Y1249D01*
X1368Y1251D01*
X1372Y1251D01*
X1372Y1253D01*
X1374Y1253D01*
X1374Y1255D01*
X1378Y1255D01*
X1378Y1257D01*
X1384Y1257D01*
X1384Y1259D01*
X1392Y1259D01*
X1392Y1261D01*
X982Y1261D01*
G37*
D02*
G36*
X1404Y1261D02*
X1404Y1259D01*
X1414Y1259D01*
X1414Y1257D01*
X1418Y1257D01*
X1418Y1255D01*
X1422Y1255D01*
X1422Y1253D01*
X1426Y1253D01*
X1426Y1251D01*
X1428Y1251D01*
X1428Y1249D01*
X1432Y1249D01*
X1432Y1247D01*
X1434Y1247D01*
X1434Y1245D01*
X1436Y1245D01*
X1436Y1241D01*
X1438Y1241D01*
X1438Y1239D01*
X1460Y1239D01*
X1460Y1243D01*
X1462Y1243D01*
X1462Y1245D01*
X1464Y1245D01*
X1464Y1247D01*
X1466Y1247D01*
X1466Y1249D01*
X1468Y1249D01*
X1468Y1251D01*
X1472Y1251D01*
X1472Y1253D01*
X1474Y1253D01*
X1474Y1255D01*
X1478Y1255D01*
X1478Y1257D01*
X1484Y1257D01*
X1484Y1259D01*
X1492Y1259D01*
X1492Y1261D01*
X1404Y1261D01*
G37*
D02*
G36*
X984Y1259D02*
X984Y1257D01*
X986Y1257D01*
X986Y1255D01*
X988Y1255D01*
X988Y1253D01*
X990Y1253D01*
X990Y1251D01*
X992Y1251D01*
X992Y1249D01*
X994Y1249D01*
X994Y1247D01*
X996Y1247D01*
X996Y1245D01*
X998Y1245D01*
X998Y1243D01*
X1000Y1243D01*
X1000Y1241D01*
X1002Y1241D01*
X1002Y1239D01*
X1004Y1239D01*
X1004Y1237D01*
X1006Y1237D01*
X1006Y1235D01*
X1008Y1235D01*
X1008Y1233D01*
X1158Y1233D01*
X1158Y1237D01*
X1160Y1237D01*
X1160Y1239D01*
X1162Y1239D01*
X1162Y1243D01*
X1164Y1243D01*
X1164Y1245D01*
X1166Y1245D01*
X1166Y1247D01*
X1168Y1247D01*
X1168Y1249D01*
X1172Y1249D01*
X1172Y1251D01*
X1174Y1251D01*
X1174Y1253D01*
X1178Y1253D01*
X1178Y1255D01*
X1182Y1255D01*
X1182Y1257D01*
X1190Y1257D01*
X1190Y1259D01*
X984Y1259D01*
G37*
D02*
G36*
X946Y1215D02*
X946Y1201D01*
X944Y1201D01*
X944Y1195D01*
X942Y1195D01*
X942Y1191D01*
X940Y1191D01*
X940Y1187D01*
X938Y1187D01*
X938Y1183D01*
X936Y1183D01*
X936Y1181D01*
X934Y1181D01*
X934Y1179D01*
X932Y1179D01*
X932Y1177D01*
X930Y1177D01*
X930Y1175D01*
X928Y1175D01*
X928Y1173D01*
X924Y1173D01*
X924Y1171D01*
X922Y1171D01*
X922Y1169D01*
X918Y1169D01*
X918Y1167D01*
X912Y1167D01*
X912Y1165D01*
X1186Y1165D01*
X1186Y1167D01*
X1180Y1167D01*
X1180Y1169D01*
X1176Y1169D01*
X1176Y1171D01*
X1172Y1171D01*
X1172Y1173D01*
X1170Y1173D01*
X1170Y1175D01*
X1168Y1175D01*
X1168Y1177D01*
X1166Y1177D01*
X1166Y1179D01*
X1164Y1179D01*
X1164Y1181D01*
X1162Y1181D01*
X1162Y1183D01*
X1160Y1183D01*
X1160Y1185D01*
X1158Y1185D01*
X1158Y1189D01*
X994Y1189D01*
X994Y1191D01*
X990Y1191D01*
X990Y1193D01*
X986Y1193D01*
X986Y1195D01*
X984Y1195D01*
X984Y1197D01*
X982Y1197D01*
X982Y1199D01*
X980Y1199D01*
X980Y1201D01*
X978Y1201D01*
X978Y1203D01*
X976Y1203D01*
X976Y1205D01*
X974Y1205D01*
X974Y1207D01*
X972Y1207D01*
X972Y1209D01*
X970Y1209D01*
X970Y1211D01*
X968Y1211D01*
X968Y1213D01*
X966Y1213D01*
X966Y1215D01*
X946Y1215D01*
G37*
D02*
G36*
X40Y1165D02*
X40Y1163D01*
X1372Y1163D01*
X1372Y1165D01*
X40Y1165D01*
G37*
D02*
G36*
X40Y1165D02*
X40Y1163D01*
X1372Y1163D01*
X1372Y1165D01*
X40Y1165D01*
G37*
D02*
G36*
X40Y1165D02*
X40Y1163D01*
X1372Y1163D01*
X1372Y1165D01*
X40Y1165D01*
G37*
D02*
G36*
X40Y1165D02*
X40Y1163D01*
X1372Y1163D01*
X1372Y1165D01*
X40Y1165D01*
G37*
D02*
G36*
X40Y1163D02*
X40Y1159D01*
X1308Y1159D01*
X1308Y1157D01*
X1314Y1157D01*
X1314Y1155D01*
X1320Y1155D01*
X1320Y1153D01*
X1324Y1153D01*
X1324Y1151D01*
X1326Y1151D01*
X1326Y1149D01*
X1328Y1149D01*
X1328Y1147D01*
X1332Y1147D01*
X1332Y1145D01*
X1334Y1145D01*
X1334Y1141D01*
X1336Y1141D01*
X1336Y1139D01*
X1338Y1139D01*
X1338Y1137D01*
X1358Y1137D01*
X1358Y1139D01*
X1360Y1139D01*
X1360Y1143D01*
X1362Y1143D01*
X1362Y1145D01*
X1364Y1145D01*
X1364Y1147D01*
X1366Y1147D01*
X1366Y1149D01*
X1368Y1149D01*
X1368Y1151D01*
X1372Y1151D01*
X1372Y1163D01*
X40Y1163D01*
G37*
D02*
G36*
X40Y1159D02*
X40Y63D01*
X688Y63D01*
X688Y65D01*
X680Y65D01*
X680Y67D01*
X676Y67D01*
X676Y69D01*
X674Y69D01*
X674Y71D01*
X670Y71D01*
X670Y73D01*
X668Y73D01*
X668Y75D01*
X666Y75D01*
X666Y77D01*
X664Y77D01*
X664Y79D01*
X662Y79D01*
X662Y81D01*
X660Y81D01*
X660Y83D01*
X658Y83D01*
X658Y87D01*
X656Y87D01*
X656Y89D01*
X298Y89D01*
X298Y91D01*
X192Y91D01*
X192Y93D01*
X188Y93D01*
X188Y95D01*
X184Y95D01*
X184Y97D01*
X182Y97D01*
X182Y99D01*
X180Y99D01*
X180Y101D01*
X178Y101D01*
X178Y103D01*
X176Y103D01*
X176Y105D01*
X174Y105D01*
X174Y107D01*
X172Y107D01*
X172Y109D01*
X170Y109D01*
X170Y111D01*
X168Y111D01*
X168Y113D01*
X166Y113D01*
X166Y115D01*
X164Y115D01*
X164Y117D01*
X162Y117D01*
X162Y119D01*
X160Y119D01*
X160Y121D01*
X158Y121D01*
X158Y123D01*
X156Y123D01*
X156Y125D01*
X154Y125D01*
X154Y127D01*
X152Y127D01*
X152Y129D01*
X150Y129D01*
X150Y131D01*
X148Y131D01*
X148Y133D01*
X146Y133D01*
X146Y135D01*
X144Y135D01*
X144Y137D01*
X142Y137D01*
X142Y139D01*
X140Y139D01*
X140Y141D01*
X138Y141D01*
X138Y143D01*
X136Y143D01*
X136Y145D01*
X132Y145D01*
X132Y147D01*
X130Y147D01*
X130Y149D01*
X128Y149D01*
X128Y151D01*
X126Y151D01*
X126Y153D01*
X124Y153D01*
X124Y155D01*
X122Y155D01*
X122Y157D01*
X120Y157D01*
X120Y159D01*
X118Y159D01*
X118Y161D01*
X116Y161D01*
X116Y163D01*
X114Y163D01*
X114Y165D01*
X112Y165D01*
X112Y167D01*
X110Y167D01*
X110Y169D01*
X108Y169D01*
X108Y171D01*
X106Y171D01*
X106Y173D01*
X104Y173D01*
X104Y175D01*
X102Y175D01*
X102Y177D01*
X100Y177D01*
X100Y179D01*
X98Y179D01*
X98Y181D01*
X96Y181D01*
X96Y183D01*
X94Y183D01*
X94Y185D01*
X92Y185D01*
X92Y187D01*
X90Y187D01*
X90Y189D01*
X88Y189D01*
X88Y191D01*
X86Y191D01*
X86Y193D01*
X84Y193D01*
X84Y195D01*
X82Y195D01*
X82Y197D01*
X80Y197D01*
X80Y199D01*
X78Y199D01*
X78Y203D01*
X76Y203D01*
X76Y321D01*
X78Y321D01*
X78Y325D01*
X80Y325D01*
X80Y327D01*
X82Y327D01*
X82Y329D01*
X84Y329D01*
X84Y331D01*
X86Y331D01*
X86Y333D01*
X88Y333D01*
X88Y335D01*
X90Y335D01*
X90Y337D01*
X92Y337D01*
X92Y339D01*
X94Y339D01*
X94Y341D01*
X96Y341D01*
X96Y343D01*
X98Y343D01*
X98Y345D01*
X100Y345D01*
X100Y347D01*
X102Y347D01*
X102Y349D01*
X104Y349D01*
X104Y351D01*
X106Y351D01*
X106Y353D01*
X108Y353D01*
X108Y355D01*
X110Y355D01*
X110Y357D01*
X112Y357D01*
X112Y359D01*
X114Y359D01*
X114Y361D01*
X116Y361D01*
X116Y363D01*
X118Y363D01*
X118Y365D01*
X120Y365D01*
X120Y367D01*
X122Y367D01*
X122Y369D01*
X124Y369D01*
X124Y371D01*
X126Y371D01*
X126Y373D01*
X128Y373D01*
X128Y375D01*
X130Y375D01*
X130Y377D01*
X132Y377D01*
X132Y379D01*
X134Y379D01*
X134Y381D01*
X136Y381D01*
X136Y383D01*
X138Y383D01*
X138Y385D01*
X140Y385D01*
X140Y387D01*
X142Y387D01*
X142Y389D01*
X144Y389D01*
X144Y391D01*
X146Y391D01*
X146Y393D01*
X148Y393D01*
X148Y395D01*
X150Y395D01*
X150Y397D01*
X152Y397D01*
X152Y399D01*
X154Y399D01*
X154Y401D01*
X156Y401D01*
X156Y403D01*
X158Y403D01*
X158Y405D01*
X160Y405D01*
X160Y407D01*
X162Y407D01*
X162Y409D01*
X164Y409D01*
X164Y411D01*
X166Y411D01*
X166Y413D01*
X168Y413D01*
X168Y415D01*
X170Y415D01*
X170Y417D01*
X172Y417D01*
X172Y419D01*
X174Y419D01*
X174Y421D01*
X176Y421D01*
X176Y423D01*
X178Y423D01*
X178Y425D01*
X180Y425D01*
X180Y427D01*
X182Y427D01*
X182Y429D01*
X184Y429D01*
X184Y431D01*
X186Y431D01*
X186Y433D01*
X188Y433D01*
X188Y435D01*
X190Y435D01*
X190Y437D01*
X192Y437D01*
X192Y439D01*
X194Y439D01*
X194Y441D01*
X196Y441D01*
X196Y443D01*
X198Y443D01*
X198Y445D01*
X200Y445D01*
X200Y447D01*
X202Y447D01*
X202Y449D01*
X204Y449D01*
X204Y451D01*
X206Y451D01*
X206Y453D01*
X208Y453D01*
X208Y455D01*
X210Y455D01*
X210Y457D01*
X212Y457D01*
X212Y459D01*
X214Y459D01*
X214Y461D01*
X216Y461D01*
X216Y463D01*
X218Y463D01*
X218Y465D01*
X220Y465D01*
X220Y467D01*
X222Y467D01*
X222Y469D01*
X224Y469D01*
X224Y471D01*
X226Y471D01*
X226Y473D01*
X228Y473D01*
X228Y475D01*
X230Y475D01*
X230Y477D01*
X232Y477D01*
X232Y479D01*
X234Y479D01*
X234Y481D01*
X236Y481D01*
X236Y483D01*
X238Y483D01*
X238Y485D01*
X240Y485D01*
X240Y487D01*
X242Y487D01*
X242Y489D01*
X244Y489D01*
X244Y491D01*
X246Y491D01*
X246Y493D01*
X248Y493D01*
X248Y495D01*
X250Y495D01*
X250Y497D01*
X252Y497D01*
X252Y499D01*
X254Y499D01*
X254Y501D01*
X256Y501D01*
X256Y503D01*
X258Y503D01*
X258Y505D01*
X260Y505D01*
X260Y507D01*
X262Y507D01*
X262Y509D01*
X264Y509D01*
X264Y511D01*
X266Y511D01*
X266Y513D01*
X268Y513D01*
X268Y515D01*
X270Y515D01*
X270Y517D01*
X272Y517D01*
X272Y519D01*
X274Y519D01*
X274Y521D01*
X276Y521D01*
X276Y523D01*
X278Y523D01*
X278Y525D01*
X280Y525D01*
X280Y527D01*
X282Y527D01*
X282Y529D01*
X284Y529D01*
X284Y531D01*
X286Y531D01*
X286Y533D01*
X288Y533D01*
X288Y535D01*
X290Y535D01*
X290Y537D01*
X292Y537D01*
X292Y539D01*
X294Y539D01*
X294Y541D01*
X296Y541D01*
X296Y543D01*
X298Y543D01*
X298Y545D01*
X300Y545D01*
X300Y547D01*
X302Y547D01*
X302Y549D01*
X304Y549D01*
X304Y551D01*
X306Y551D01*
X306Y553D01*
X308Y553D01*
X308Y555D01*
X310Y555D01*
X310Y557D01*
X312Y557D01*
X312Y559D01*
X314Y559D01*
X314Y561D01*
X316Y561D01*
X316Y563D01*
X318Y563D01*
X318Y565D01*
X320Y565D01*
X320Y567D01*
X322Y567D01*
X322Y569D01*
X324Y569D01*
X324Y571D01*
X326Y571D01*
X326Y573D01*
X328Y573D01*
X328Y575D01*
X330Y575D01*
X330Y577D01*
X332Y577D01*
X332Y579D01*
X334Y579D01*
X334Y581D01*
X336Y581D01*
X336Y583D01*
X338Y583D01*
X338Y585D01*
X340Y585D01*
X340Y587D01*
X342Y587D01*
X342Y589D01*
X344Y589D01*
X344Y591D01*
X346Y591D01*
X346Y593D01*
X348Y593D01*
X348Y595D01*
X350Y595D01*
X350Y597D01*
X352Y597D01*
X352Y599D01*
X354Y599D01*
X354Y601D01*
X356Y601D01*
X356Y603D01*
X358Y603D01*
X358Y605D01*
X360Y605D01*
X360Y607D01*
X362Y607D01*
X362Y609D01*
X364Y609D01*
X364Y611D01*
X366Y611D01*
X366Y613D01*
X368Y613D01*
X368Y615D01*
X370Y615D01*
X370Y617D01*
X372Y617D01*
X372Y619D01*
X374Y619D01*
X374Y621D01*
X376Y621D01*
X376Y819D01*
X378Y819D01*
X378Y823D01*
X380Y823D01*
X380Y825D01*
X382Y825D01*
X382Y827D01*
X384Y827D01*
X384Y829D01*
X386Y829D01*
X386Y831D01*
X388Y831D01*
X388Y833D01*
X390Y833D01*
X390Y835D01*
X392Y835D01*
X392Y837D01*
X394Y837D01*
X394Y839D01*
X396Y839D01*
X396Y841D01*
X398Y841D01*
X398Y843D01*
X400Y843D01*
X400Y845D01*
X402Y845D01*
X402Y847D01*
X404Y847D01*
X404Y849D01*
X406Y849D01*
X406Y851D01*
X408Y851D01*
X408Y853D01*
X410Y853D01*
X410Y855D01*
X412Y855D01*
X412Y857D01*
X414Y857D01*
X414Y859D01*
X416Y859D01*
X416Y861D01*
X418Y861D01*
X418Y863D01*
X420Y863D01*
X420Y865D01*
X422Y865D01*
X422Y867D01*
X424Y867D01*
X424Y869D01*
X426Y869D01*
X426Y871D01*
X428Y871D01*
X428Y873D01*
X430Y873D01*
X430Y875D01*
X432Y875D01*
X432Y877D01*
X434Y877D01*
X434Y879D01*
X436Y879D01*
X436Y881D01*
X438Y881D01*
X438Y883D01*
X440Y883D01*
X440Y885D01*
X442Y885D01*
X442Y887D01*
X444Y887D01*
X444Y889D01*
X446Y889D01*
X446Y891D01*
X448Y891D01*
X448Y893D01*
X450Y893D01*
X450Y895D01*
X452Y895D01*
X452Y897D01*
X454Y897D01*
X454Y899D01*
X456Y899D01*
X456Y901D01*
X458Y901D01*
X458Y903D01*
X460Y903D01*
X460Y905D01*
X462Y905D01*
X462Y907D01*
X464Y907D01*
X464Y909D01*
X466Y909D01*
X466Y911D01*
X468Y911D01*
X468Y913D01*
X470Y913D01*
X470Y915D01*
X472Y915D01*
X472Y917D01*
X474Y917D01*
X474Y919D01*
X476Y919D01*
X476Y921D01*
X478Y921D01*
X478Y923D01*
X480Y923D01*
X480Y925D01*
X482Y925D01*
X482Y927D01*
X484Y927D01*
X484Y929D01*
X486Y929D01*
X486Y931D01*
X488Y931D01*
X488Y933D01*
X490Y933D01*
X490Y935D01*
X492Y935D01*
X492Y937D01*
X494Y937D01*
X494Y939D01*
X496Y939D01*
X496Y941D01*
X498Y941D01*
X498Y943D01*
X500Y943D01*
X500Y945D01*
X502Y945D01*
X502Y947D01*
X504Y947D01*
X504Y949D01*
X506Y949D01*
X506Y951D01*
X508Y951D01*
X508Y953D01*
X510Y953D01*
X510Y955D01*
X512Y955D01*
X512Y957D01*
X514Y957D01*
X514Y959D01*
X516Y959D01*
X516Y961D01*
X518Y961D01*
X518Y963D01*
X520Y963D01*
X520Y965D01*
X522Y965D01*
X522Y967D01*
X524Y967D01*
X524Y969D01*
X526Y969D01*
X526Y971D01*
X528Y971D01*
X528Y973D01*
X530Y973D01*
X530Y975D01*
X532Y975D01*
X532Y977D01*
X534Y977D01*
X534Y979D01*
X536Y979D01*
X536Y981D01*
X538Y981D01*
X538Y983D01*
X540Y983D01*
X540Y985D01*
X542Y985D01*
X542Y987D01*
X544Y987D01*
X544Y989D01*
X546Y989D01*
X546Y991D01*
X548Y991D01*
X548Y993D01*
X550Y993D01*
X550Y995D01*
X552Y995D01*
X552Y997D01*
X554Y997D01*
X554Y999D01*
X556Y999D01*
X556Y1001D01*
X558Y1001D01*
X558Y1003D01*
X560Y1003D01*
X560Y1005D01*
X562Y1005D01*
X562Y1007D01*
X564Y1007D01*
X564Y1009D01*
X566Y1009D01*
X566Y1011D01*
X568Y1011D01*
X568Y1013D01*
X570Y1013D01*
X570Y1015D01*
X572Y1015D01*
X572Y1017D01*
X574Y1017D01*
X574Y1019D01*
X576Y1019D01*
X576Y1021D01*
X578Y1021D01*
X578Y1023D01*
X580Y1023D01*
X580Y1025D01*
X582Y1025D01*
X582Y1027D01*
X584Y1027D01*
X584Y1029D01*
X586Y1029D01*
X586Y1031D01*
X588Y1031D01*
X588Y1033D01*
X590Y1033D01*
X590Y1035D01*
X592Y1035D01*
X592Y1037D01*
X594Y1037D01*
X594Y1039D01*
X596Y1039D01*
X596Y1041D01*
X598Y1041D01*
X598Y1043D01*
X600Y1043D01*
X600Y1045D01*
X602Y1045D01*
X602Y1047D01*
X604Y1047D01*
X604Y1049D01*
X606Y1049D01*
X606Y1051D01*
X608Y1051D01*
X608Y1053D01*
X610Y1053D01*
X610Y1055D01*
X612Y1055D01*
X612Y1057D01*
X614Y1057D01*
X614Y1059D01*
X616Y1059D01*
X616Y1061D01*
X618Y1061D01*
X618Y1063D01*
X620Y1063D01*
X620Y1065D01*
X622Y1065D01*
X622Y1067D01*
X624Y1067D01*
X624Y1069D01*
X626Y1069D01*
X626Y1071D01*
X628Y1071D01*
X628Y1073D01*
X630Y1073D01*
X630Y1075D01*
X632Y1075D01*
X632Y1077D01*
X634Y1077D01*
X634Y1079D01*
X636Y1079D01*
X636Y1081D01*
X638Y1081D01*
X638Y1083D01*
X640Y1083D01*
X640Y1085D01*
X642Y1085D01*
X642Y1087D01*
X644Y1087D01*
X644Y1089D01*
X646Y1089D01*
X646Y1091D01*
X648Y1091D01*
X648Y1093D01*
X650Y1093D01*
X650Y1095D01*
X652Y1095D01*
X652Y1123D01*
X654Y1123D01*
X654Y1129D01*
X656Y1129D01*
X656Y1133D01*
X658Y1133D01*
X658Y1137D01*
X660Y1137D01*
X660Y1139D01*
X662Y1139D01*
X662Y1143D01*
X664Y1143D01*
X664Y1145D01*
X666Y1145D01*
X666Y1147D01*
X668Y1147D01*
X668Y1149D01*
X672Y1149D01*
X672Y1151D01*
X674Y1151D01*
X674Y1153D01*
X678Y1153D01*
X678Y1155D01*
X682Y1155D01*
X682Y1157D01*
X690Y1157D01*
X690Y1159D01*
X40Y1159D01*
G37*
D02*
G36*
X708Y1159D02*
X708Y1157D01*
X714Y1157D01*
X714Y1155D01*
X720Y1155D01*
X720Y1153D01*
X724Y1153D01*
X724Y1151D01*
X726Y1151D01*
X726Y1149D01*
X728Y1149D01*
X728Y1147D01*
X732Y1147D01*
X732Y1145D01*
X734Y1145D01*
X734Y1141D01*
X736Y1141D01*
X736Y1139D01*
X738Y1139D01*
X738Y1137D01*
X740Y1137D01*
X740Y1133D01*
X958Y1133D01*
X958Y1137D01*
X960Y1137D01*
X960Y1139D01*
X962Y1139D01*
X962Y1143D01*
X964Y1143D01*
X964Y1145D01*
X966Y1145D01*
X966Y1147D01*
X968Y1147D01*
X968Y1149D01*
X972Y1149D01*
X972Y1151D01*
X974Y1151D01*
X974Y1153D01*
X978Y1153D01*
X978Y1155D01*
X982Y1155D01*
X982Y1157D01*
X990Y1157D01*
X990Y1159D01*
X708Y1159D01*
G37*
D02*
G36*
X1008Y1159D02*
X1008Y1157D01*
X1014Y1157D01*
X1014Y1155D01*
X1020Y1155D01*
X1020Y1153D01*
X1024Y1153D01*
X1024Y1151D01*
X1026Y1151D01*
X1026Y1149D01*
X1028Y1149D01*
X1028Y1147D01*
X1032Y1147D01*
X1032Y1145D01*
X1034Y1145D01*
X1034Y1141D01*
X1036Y1141D01*
X1036Y1139D01*
X1038Y1139D01*
X1038Y1137D01*
X1040Y1137D01*
X1040Y1133D01*
X1258Y1133D01*
X1258Y1137D01*
X1260Y1137D01*
X1260Y1139D01*
X1262Y1139D01*
X1262Y1143D01*
X1264Y1143D01*
X1264Y1145D01*
X1266Y1145D01*
X1266Y1147D01*
X1268Y1147D01*
X1268Y1149D01*
X1272Y1149D01*
X1272Y1151D01*
X1274Y1151D01*
X1274Y1153D01*
X1278Y1153D01*
X1278Y1155D01*
X1282Y1155D01*
X1282Y1157D01*
X1290Y1157D01*
X1290Y1159D01*
X1008Y1159D01*
G37*
D02*
G36*
X1120Y891D02*
X1120Y889D01*
X1178Y889D01*
X1178Y891D01*
X1120Y891D01*
G37*
D02*
G36*
X1120Y889D02*
X1120Y887D01*
X1690Y887D01*
X1690Y889D01*
X1120Y889D01*
G37*
D02*
G36*
X1120Y889D02*
X1120Y887D01*
X1690Y887D01*
X1690Y889D01*
X1120Y889D01*
G37*
D02*
G36*
X1120Y887D02*
X1120Y859D01*
X1208Y859D01*
X1208Y857D01*
X1214Y857D01*
X1214Y855D01*
X1220Y855D01*
X1220Y853D01*
X1224Y853D01*
X1224Y851D01*
X1226Y851D01*
X1226Y849D01*
X1228Y849D01*
X1228Y847D01*
X1232Y847D01*
X1232Y845D01*
X1234Y845D01*
X1234Y841D01*
X1236Y841D01*
X1236Y839D01*
X1238Y839D01*
X1238Y837D01*
X1240Y837D01*
X1240Y833D01*
X1242Y833D01*
X1242Y829D01*
X1244Y829D01*
X1244Y821D01*
X1246Y821D01*
X1246Y801D01*
X1244Y801D01*
X1244Y795D01*
X1242Y795D01*
X1242Y791D01*
X1240Y791D01*
X1240Y787D01*
X1238Y787D01*
X1238Y783D01*
X1236Y783D01*
X1236Y781D01*
X1234Y781D01*
X1234Y779D01*
X1232Y779D01*
X1232Y777D01*
X1230Y777D01*
X1230Y775D01*
X1228Y775D01*
X1228Y773D01*
X1224Y773D01*
X1224Y771D01*
X1222Y771D01*
X1222Y769D01*
X1220Y769D01*
X1220Y759D01*
X1308Y759D01*
X1308Y757D01*
X1314Y757D01*
X1314Y755D01*
X1320Y755D01*
X1320Y753D01*
X1324Y753D01*
X1324Y751D01*
X1326Y751D01*
X1326Y749D01*
X1328Y749D01*
X1328Y747D01*
X1332Y747D01*
X1332Y745D01*
X1334Y745D01*
X1334Y741D01*
X1336Y741D01*
X1336Y739D01*
X1338Y739D01*
X1338Y737D01*
X1340Y737D01*
X1340Y733D01*
X1342Y733D01*
X1342Y729D01*
X1344Y729D01*
X1344Y721D01*
X1346Y721D01*
X1346Y701D01*
X1344Y701D01*
X1344Y695D01*
X1342Y695D01*
X1342Y691D01*
X1340Y691D01*
X1340Y687D01*
X1338Y687D01*
X1338Y683D01*
X1336Y683D01*
X1336Y681D01*
X1334Y681D01*
X1334Y679D01*
X1332Y679D01*
X1332Y677D01*
X1330Y677D01*
X1330Y675D01*
X1328Y675D01*
X1328Y673D01*
X1324Y673D01*
X1324Y651D01*
X1326Y651D01*
X1326Y649D01*
X1328Y649D01*
X1328Y647D01*
X1332Y647D01*
X1332Y645D01*
X1334Y645D01*
X1334Y641D01*
X1336Y641D01*
X1336Y639D01*
X1338Y639D01*
X1338Y637D01*
X1340Y637D01*
X1340Y633D01*
X1342Y633D01*
X1342Y629D01*
X1344Y629D01*
X1344Y621D01*
X1346Y621D01*
X1346Y601D01*
X1344Y601D01*
X1344Y595D01*
X1342Y595D01*
X1342Y591D01*
X1340Y591D01*
X1340Y587D01*
X1338Y587D01*
X1338Y583D01*
X1336Y583D01*
X1336Y581D01*
X1334Y581D01*
X1334Y579D01*
X1332Y579D01*
X1332Y577D01*
X1330Y577D01*
X1330Y575D01*
X1328Y575D01*
X1328Y573D01*
X1324Y573D01*
X1324Y571D01*
X1322Y571D01*
X1322Y569D01*
X1320Y569D01*
X1320Y521D01*
X1322Y521D01*
X1322Y519D01*
X1324Y519D01*
X1324Y517D01*
X1326Y517D01*
X1326Y515D01*
X1328Y515D01*
X1328Y513D01*
X1330Y513D01*
X1330Y511D01*
X1332Y511D01*
X1332Y509D01*
X1334Y509D01*
X1334Y507D01*
X1336Y507D01*
X1336Y503D01*
X1338Y503D01*
X1338Y501D01*
X1340Y501D01*
X1340Y499D01*
X1342Y499D01*
X1342Y497D01*
X1344Y497D01*
X1344Y495D01*
X1346Y495D01*
X1346Y493D01*
X1348Y493D01*
X1348Y491D01*
X1350Y491D01*
X1350Y489D01*
X1352Y489D01*
X1352Y487D01*
X1354Y487D01*
X1354Y485D01*
X1356Y485D01*
X1356Y483D01*
X1358Y483D01*
X1358Y481D01*
X1360Y481D01*
X1360Y479D01*
X1362Y479D01*
X1362Y477D01*
X1364Y477D01*
X1364Y475D01*
X1366Y475D01*
X1366Y473D01*
X1368Y473D01*
X1368Y471D01*
X1370Y471D01*
X1370Y469D01*
X1372Y469D01*
X1372Y467D01*
X1374Y467D01*
X1374Y465D01*
X1376Y465D01*
X1376Y463D01*
X1378Y463D01*
X1378Y461D01*
X1380Y461D01*
X1380Y459D01*
X1382Y459D01*
X1382Y455D01*
X1384Y455D01*
X1384Y453D01*
X1386Y453D01*
X1386Y451D01*
X1388Y451D01*
X1388Y449D01*
X1390Y449D01*
X1390Y447D01*
X1392Y447D01*
X1392Y445D01*
X1394Y445D01*
X1394Y443D01*
X1396Y443D01*
X1396Y441D01*
X1398Y441D01*
X1398Y439D01*
X1400Y439D01*
X1400Y437D01*
X1402Y437D01*
X1402Y435D01*
X1404Y435D01*
X1404Y433D01*
X1406Y433D01*
X1406Y431D01*
X1606Y431D01*
X1606Y429D01*
X1610Y429D01*
X1610Y427D01*
X1612Y427D01*
X1612Y425D01*
X1614Y425D01*
X1614Y423D01*
X1616Y423D01*
X1616Y419D01*
X1618Y419D01*
X1618Y403D01*
X1620Y403D01*
X1620Y363D01*
X1650Y363D01*
X1650Y261D01*
X1690Y261D01*
X1690Y887D01*
X1120Y887D01*
G37*
D02*
G36*
X1120Y859D02*
X1120Y653D01*
X1124Y653D01*
X1124Y651D01*
X1126Y651D01*
X1126Y649D01*
X1128Y649D01*
X1128Y647D01*
X1132Y647D01*
X1132Y645D01*
X1134Y645D01*
X1134Y641D01*
X1136Y641D01*
X1136Y639D01*
X1138Y639D01*
X1138Y637D01*
X1160Y637D01*
X1160Y639D01*
X1162Y639D01*
X1162Y643D01*
X1164Y643D01*
X1164Y645D01*
X1166Y645D01*
X1166Y647D01*
X1168Y647D01*
X1168Y649D01*
X1172Y649D01*
X1172Y651D01*
X1174Y651D01*
X1174Y653D01*
X1176Y653D01*
X1176Y771D01*
X1172Y771D01*
X1172Y773D01*
X1170Y773D01*
X1170Y775D01*
X1168Y775D01*
X1168Y777D01*
X1166Y777D01*
X1166Y779D01*
X1164Y779D01*
X1164Y781D01*
X1162Y781D01*
X1162Y783D01*
X1160Y783D01*
X1160Y785D01*
X1158Y785D01*
X1158Y789D01*
X1156Y789D01*
X1156Y793D01*
X1154Y793D01*
X1154Y799D01*
X1152Y799D01*
X1152Y823D01*
X1154Y823D01*
X1154Y829D01*
X1156Y829D01*
X1156Y833D01*
X1158Y833D01*
X1158Y837D01*
X1160Y837D01*
X1160Y839D01*
X1162Y839D01*
X1162Y843D01*
X1164Y843D01*
X1164Y845D01*
X1166Y845D01*
X1166Y847D01*
X1168Y847D01*
X1168Y849D01*
X1172Y849D01*
X1172Y851D01*
X1174Y851D01*
X1174Y853D01*
X1178Y853D01*
X1178Y855D01*
X1182Y855D01*
X1182Y857D01*
X1190Y857D01*
X1190Y859D01*
X1120Y859D01*
G37*
D02*
G36*
X1220Y759D02*
X1220Y653D01*
X1224Y653D01*
X1224Y651D01*
X1226Y651D01*
X1226Y649D01*
X1228Y649D01*
X1228Y647D01*
X1232Y647D01*
X1232Y645D01*
X1234Y645D01*
X1234Y641D01*
X1236Y641D01*
X1236Y639D01*
X1238Y639D01*
X1238Y637D01*
X1260Y637D01*
X1260Y639D01*
X1262Y639D01*
X1262Y643D01*
X1264Y643D01*
X1264Y645D01*
X1266Y645D01*
X1266Y647D01*
X1268Y647D01*
X1268Y649D01*
X1272Y649D01*
X1272Y651D01*
X1274Y651D01*
X1274Y671D01*
X1272Y671D01*
X1272Y673D01*
X1270Y673D01*
X1270Y675D01*
X1268Y675D01*
X1268Y677D01*
X1266Y677D01*
X1266Y679D01*
X1264Y679D01*
X1264Y681D01*
X1262Y681D01*
X1262Y683D01*
X1260Y683D01*
X1260Y685D01*
X1258Y685D01*
X1258Y689D01*
X1256Y689D01*
X1256Y693D01*
X1254Y693D01*
X1254Y699D01*
X1252Y699D01*
X1252Y723D01*
X1254Y723D01*
X1254Y729D01*
X1256Y729D01*
X1256Y733D01*
X1258Y733D01*
X1258Y737D01*
X1260Y737D01*
X1260Y739D01*
X1262Y739D01*
X1262Y743D01*
X1264Y743D01*
X1264Y745D01*
X1266Y745D01*
X1266Y747D01*
X1268Y747D01*
X1268Y749D01*
X1272Y749D01*
X1272Y751D01*
X1274Y751D01*
X1274Y753D01*
X1278Y753D01*
X1278Y755D01*
X1282Y755D01*
X1282Y757D01*
X1290Y757D01*
X1290Y759D01*
X1220Y759D01*
G37*
D02*
G36*
X1528Y271D02*
X1528Y269D01*
X1524Y269D01*
X1524Y267D01*
X1522Y267D01*
X1522Y265D01*
X1518Y265D01*
X1518Y263D01*
X1510Y263D01*
X1510Y261D01*
X1548Y261D01*
X1548Y271D01*
X1528Y271D01*
G37*
D02*
G36*
X1478Y261D02*
X1478Y259D01*
X1690Y259D01*
X1690Y261D01*
X1478Y261D01*
G37*
D02*
G36*
X1478Y261D02*
X1478Y259D01*
X1690Y259D01*
X1690Y261D01*
X1478Y261D01*
G37*
D02*
G36*
X1476Y259D02*
X1476Y257D01*
X1474Y257D01*
X1474Y255D01*
X1472Y255D01*
X1472Y253D01*
X1470Y253D01*
X1470Y251D01*
X1468Y251D01*
X1468Y249D01*
X1466Y249D01*
X1466Y247D01*
X1464Y247D01*
X1464Y245D01*
X1462Y245D01*
X1462Y243D01*
X1460Y243D01*
X1460Y241D01*
X1458Y241D01*
X1458Y239D01*
X1456Y239D01*
X1456Y237D01*
X1454Y237D01*
X1454Y235D01*
X1452Y235D01*
X1452Y233D01*
X1450Y233D01*
X1450Y231D01*
X1448Y231D01*
X1448Y229D01*
X1446Y229D01*
X1446Y227D01*
X1444Y227D01*
X1444Y225D01*
X1442Y225D01*
X1442Y223D01*
X1440Y223D01*
X1440Y221D01*
X1438Y221D01*
X1438Y219D01*
X1436Y219D01*
X1436Y217D01*
X1434Y217D01*
X1434Y215D01*
X1432Y215D01*
X1432Y213D01*
X1430Y213D01*
X1430Y211D01*
X1428Y211D01*
X1428Y209D01*
X1426Y209D01*
X1426Y207D01*
X1424Y207D01*
X1424Y205D01*
X1422Y205D01*
X1422Y203D01*
X1420Y203D01*
X1420Y201D01*
X1418Y201D01*
X1418Y199D01*
X1416Y199D01*
X1416Y197D01*
X1414Y197D01*
X1414Y195D01*
X1412Y195D01*
X1412Y193D01*
X1410Y193D01*
X1410Y191D01*
X1406Y191D01*
X1406Y189D01*
X1106Y189D01*
X1106Y187D01*
X1104Y187D01*
X1104Y185D01*
X1102Y185D01*
X1102Y183D01*
X1100Y183D01*
X1100Y181D01*
X1098Y181D01*
X1098Y179D01*
X1096Y179D01*
X1096Y177D01*
X1094Y177D01*
X1094Y175D01*
X1092Y175D01*
X1092Y173D01*
X1090Y173D01*
X1090Y171D01*
X1088Y171D01*
X1088Y169D01*
X1086Y169D01*
X1086Y167D01*
X1084Y167D01*
X1084Y165D01*
X1082Y165D01*
X1082Y163D01*
X1080Y163D01*
X1080Y161D01*
X1078Y161D01*
X1078Y159D01*
X1076Y159D01*
X1076Y157D01*
X1074Y157D01*
X1074Y155D01*
X1072Y155D01*
X1072Y153D01*
X1070Y153D01*
X1070Y151D01*
X1068Y151D01*
X1068Y149D01*
X1066Y149D01*
X1066Y147D01*
X1064Y147D01*
X1064Y145D01*
X1062Y145D01*
X1062Y143D01*
X1060Y143D01*
X1060Y141D01*
X1058Y141D01*
X1058Y139D01*
X1056Y139D01*
X1056Y137D01*
X1054Y137D01*
X1054Y135D01*
X1052Y135D01*
X1052Y133D01*
X1050Y133D01*
X1050Y131D01*
X1048Y131D01*
X1048Y103D01*
X1046Y103D01*
X1046Y97D01*
X1044Y97D01*
X1044Y91D01*
X1042Y91D01*
X1042Y87D01*
X1040Y87D01*
X1040Y83D01*
X1038Y83D01*
X1038Y81D01*
X1036Y81D01*
X1036Y79D01*
X1034Y79D01*
X1034Y77D01*
X1032Y77D01*
X1032Y75D01*
X1030Y75D01*
X1030Y73D01*
X1028Y73D01*
X1028Y71D01*
X1024Y71D01*
X1024Y69D01*
X1020Y69D01*
X1020Y67D01*
X1016Y67D01*
X1016Y65D01*
X1010Y65D01*
X1010Y63D01*
X1690Y63D01*
X1690Y259D01*
X1476Y259D01*
G37*
D02*
G36*
X738Y83D02*
X738Y81D01*
X736Y81D01*
X736Y79D01*
X734Y79D01*
X734Y77D01*
X732Y77D01*
X732Y75D01*
X730Y75D01*
X730Y73D01*
X728Y73D01*
X728Y71D01*
X724Y71D01*
X724Y69D01*
X720Y69D01*
X720Y67D01*
X716Y67D01*
X716Y65D01*
X710Y65D01*
X710Y63D01*
X788Y63D01*
X788Y65D01*
X780Y65D01*
X780Y67D01*
X776Y67D01*
X776Y69D01*
X774Y69D01*
X774Y71D01*
X770Y71D01*
X770Y73D01*
X768Y73D01*
X768Y75D01*
X766Y75D01*
X766Y77D01*
X764Y77D01*
X764Y79D01*
X762Y79D01*
X762Y81D01*
X760Y81D01*
X760Y83D01*
X738Y83D01*
G37*
D02*
G36*
X838Y83D02*
X838Y81D01*
X836Y81D01*
X836Y79D01*
X834Y79D01*
X834Y77D01*
X832Y77D01*
X832Y75D01*
X830Y75D01*
X830Y73D01*
X828Y73D01*
X828Y71D01*
X824Y71D01*
X824Y69D01*
X820Y69D01*
X820Y67D01*
X816Y67D01*
X816Y65D01*
X810Y65D01*
X810Y63D01*
X888Y63D01*
X888Y65D01*
X880Y65D01*
X880Y67D01*
X876Y67D01*
X876Y69D01*
X874Y69D01*
X874Y71D01*
X870Y71D01*
X870Y73D01*
X868Y73D01*
X868Y75D01*
X866Y75D01*
X866Y77D01*
X864Y77D01*
X864Y79D01*
X862Y79D01*
X862Y81D01*
X860Y81D01*
X860Y83D01*
X838Y83D01*
G37*
D02*
G36*
X938Y83D02*
X938Y81D01*
X936Y81D01*
X936Y79D01*
X934Y79D01*
X934Y77D01*
X932Y77D01*
X932Y75D01*
X930Y75D01*
X930Y73D01*
X928Y73D01*
X928Y71D01*
X924Y71D01*
X924Y69D01*
X920Y69D01*
X920Y67D01*
X916Y67D01*
X916Y65D01*
X910Y65D01*
X910Y63D01*
X988Y63D01*
X988Y65D01*
X980Y65D01*
X980Y67D01*
X976Y67D01*
X976Y69D01*
X974Y69D01*
X974Y71D01*
X970Y71D01*
X970Y73D01*
X968Y73D01*
X968Y75D01*
X966Y75D01*
X966Y77D01*
X964Y77D01*
X964Y79D01*
X962Y79D01*
X962Y81D01*
X960Y81D01*
X960Y83D01*
X938Y83D01*
G37*
D02*
G36*
X40Y63D02*
X40Y61D01*
X1690Y61D01*
X1690Y63D01*
X40Y63D01*
G37*
D02*
G36*
X40Y63D02*
X40Y61D01*
X1690Y61D01*
X1690Y63D01*
X40Y63D01*
G37*
D02*
G36*
X40Y63D02*
X40Y61D01*
X1690Y61D01*
X1690Y63D01*
X40Y63D01*
G37*
D02*
G36*
X40Y63D02*
X40Y61D01*
X1690Y61D01*
X1690Y63D01*
X40Y63D01*
G37*
D02*
G36*
X40Y63D02*
X40Y61D01*
X1690Y61D01*
X1690Y63D01*
X40Y63D01*
G37*
D02*
G36*
X40Y61D02*
X40Y41D01*
X1690Y41D01*
X1690Y61D01*
X40Y61D01*
G37*
D02*
G04 End of Copper0*
M02*