G04 MADE WITH FRITZING*
G04 WWW.FRITZING.ORG*
G04 DOUBLE SIDED*
G04 HOLES PLATED*
G04 CONTOUR ON CENTER OF CONTOUR VECTOR*
%ASAXBY*%
%FSLAX23Y23*%
%MOIN*%
%OFA0B0*%
%SFA1.0B1.0*%
%ADD10R,1.730980X1.820650X1.714980X1.804650*%
%ADD11C,0.008000*%
%ADD12C,0.010000*%
%ADD13R,0.001000X0.001000*%
%LNSILK1*%
G90*
G70*
G54D11*
X4Y1817D02*
X1727Y1817D01*
X1727Y4D01*
X4Y4D01*
X4Y1817D01*
D02*
G54D12*
X1249Y1761D02*
X549Y1761D01*
D02*
X549Y1761D02*
X549Y1361D01*
D02*
X549Y1361D02*
X1249Y1361D01*
D02*
X1249Y1761D02*
X1249Y1611D01*
D02*
X1249Y1511D02*
X1249Y1361D01*
G54D13*
X369Y1757D02*
X396Y1757D01*
X433Y1757D02*
X446Y1757D01*
X469Y1757D02*
X485Y1757D01*
X367Y1756D02*
X398Y1756D01*
X429Y1756D02*
X448Y1756D01*
X467Y1756D02*
X486Y1756D01*
X366Y1755D02*
X399Y1755D01*
X428Y1755D02*
X449Y1755D01*
X466Y1755D02*
X486Y1755D01*
X366Y1754D02*
X399Y1754D01*
X426Y1754D02*
X449Y1754D01*
X466Y1754D02*
X486Y1754D01*
X366Y1753D02*
X399Y1753D01*
X426Y1753D02*
X449Y1753D01*
X466Y1753D02*
X486Y1753D01*
X366Y1752D02*
X399Y1752D01*
X425Y1752D02*
X449Y1752D01*
X466Y1752D02*
X486Y1752D01*
X367Y1751D02*
X398Y1751D01*
X424Y1751D02*
X448Y1751D01*
X467Y1751D02*
X486Y1751D01*
X379Y1750D02*
X386Y1750D01*
X424Y1750D02*
X432Y1750D01*
X479Y1750D02*
X486Y1750D01*
X379Y1749D02*
X385Y1749D01*
X423Y1749D02*
X431Y1749D01*
X480Y1749D02*
X486Y1749D01*
X379Y1748D02*
X385Y1748D01*
X423Y1748D02*
X430Y1748D01*
X480Y1748D02*
X486Y1748D01*
X379Y1747D02*
X385Y1747D01*
X422Y1747D02*
X429Y1747D01*
X480Y1747D02*
X486Y1747D01*
X379Y1746D02*
X385Y1746D01*
X422Y1746D02*
X429Y1746D01*
X480Y1746D02*
X486Y1746D01*
X379Y1745D02*
X385Y1745D01*
X421Y1745D02*
X428Y1745D01*
X480Y1745D02*
X486Y1745D01*
X379Y1744D02*
X385Y1744D01*
X421Y1744D02*
X428Y1744D01*
X480Y1744D02*
X486Y1744D01*
X379Y1743D02*
X385Y1743D01*
X420Y1743D02*
X427Y1743D01*
X480Y1743D02*
X486Y1743D01*
X379Y1742D02*
X385Y1742D01*
X420Y1742D02*
X427Y1742D01*
X480Y1742D02*
X486Y1742D01*
X379Y1741D02*
X385Y1741D01*
X419Y1741D02*
X426Y1741D01*
X480Y1741D02*
X486Y1741D01*
X379Y1740D02*
X385Y1740D01*
X419Y1740D02*
X426Y1740D01*
X480Y1740D02*
X486Y1740D01*
X379Y1739D02*
X385Y1739D01*
X418Y1739D02*
X425Y1739D01*
X480Y1739D02*
X486Y1739D01*
X379Y1738D02*
X385Y1738D01*
X418Y1738D02*
X425Y1738D01*
X480Y1738D02*
X486Y1738D01*
X379Y1737D02*
X385Y1737D01*
X417Y1737D02*
X424Y1737D01*
X480Y1737D02*
X486Y1737D01*
X379Y1736D02*
X385Y1736D01*
X417Y1736D02*
X424Y1736D01*
X480Y1736D02*
X486Y1736D01*
X379Y1735D02*
X385Y1735D01*
X417Y1735D02*
X423Y1735D01*
X480Y1735D02*
X486Y1735D01*
X379Y1734D02*
X385Y1734D01*
X416Y1734D02*
X423Y1734D01*
X480Y1734D02*
X486Y1734D01*
X379Y1733D02*
X385Y1733D01*
X416Y1733D02*
X422Y1733D01*
X480Y1733D02*
X486Y1733D01*
X379Y1732D02*
X385Y1732D01*
X416Y1732D02*
X422Y1732D01*
X480Y1732D02*
X486Y1732D01*
X379Y1731D02*
X385Y1731D01*
X416Y1731D02*
X422Y1731D01*
X480Y1731D02*
X486Y1731D01*
X379Y1730D02*
X385Y1730D01*
X416Y1730D02*
X422Y1730D01*
X480Y1730D02*
X486Y1730D01*
X379Y1729D02*
X385Y1729D01*
X416Y1729D02*
X422Y1729D01*
X480Y1729D02*
X486Y1729D01*
X379Y1728D02*
X385Y1728D01*
X416Y1728D02*
X422Y1728D01*
X480Y1728D02*
X486Y1728D01*
X379Y1727D02*
X385Y1727D01*
X416Y1727D02*
X422Y1727D01*
X480Y1727D02*
X486Y1727D01*
X495Y1727D02*
X498Y1727D01*
X379Y1726D02*
X385Y1726D01*
X416Y1726D02*
X423Y1726D01*
X480Y1726D02*
X486Y1726D01*
X494Y1726D02*
X499Y1726D01*
X379Y1725D02*
X385Y1725D01*
X417Y1725D02*
X423Y1725D01*
X480Y1725D02*
X486Y1725D01*
X494Y1725D02*
X499Y1725D01*
X379Y1724D02*
X385Y1724D01*
X417Y1724D02*
X424Y1724D01*
X480Y1724D02*
X486Y1724D01*
X494Y1724D02*
X500Y1724D01*
X379Y1723D02*
X385Y1723D01*
X417Y1723D02*
X424Y1723D01*
X480Y1723D02*
X486Y1723D01*
X494Y1723D02*
X500Y1723D01*
X379Y1722D02*
X385Y1722D01*
X418Y1722D02*
X425Y1722D01*
X480Y1722D02*
X486Y1722D01*
X494Y1722D02*
X500Y1722D01*
X379Y1721D02*
X385Y1721D01*
X418Y1721D02*
X425Y1721D01*
X480Y1721D02*
X486Y1721D01*
X494Y1721D02*
X500Y1721D01*
X379Y1720D02*
X385Y1720D01*
X419Y1720D02*
X426Y1720D01*
X480Y1720D02*
X486Y1720D01*
X494Y1720D02*
X500Y1720D01*
X379Y1719D02*
X385Y1719D01*
X419Y1719D02*
X426Y1719D01*
X480Y1719D02*
X486Y1719D01*
X494Y1719D02*
X500Y1719D01*
X379Y1718D02*
X385Y1718D01*
X420Y1718D02*
X427Y1718D01*
X480Y1718D02*
X486Y1718D01*
X494Y1718D02*
X500Y1718D01*
X379Y1717D02*
X385Y1717D01*
X420Y1717D02*
X427Y1717D01*
X480Y1717D02*
X486Y1717D01*
X494Y1717D02*
X500Y1717D01*
X379Y1716D02*
X385Y1716D01*
X421Y1716D02*
X428Y1716D01*
X480Y1716D02*
X486Y1716D01*
X494Y1716D02*
X500Y1716D01*
X379Y1715D02*
X385Y1715D01*
X421Y1715D02*
X428Y1715D01*
X480Y1715D02*
X486Y1715D01*
X494Y1715D02*
X500Y1715D01*
X379Y1714D02*
X385Y1714D01*
X422Y1714D02*
X429Y1714D01*
X480Y1714D02*
X486Y1714D01*
X494Y1714D02*
X500Y1714D01*
X379Y1713D02*
X385Y1713D01*
X422Y1713D02*
X429Y1713D01*
X480Y1713D02*
X486Y1713D01*
X494Y1713D02*
X500Y1713D01*
X379Y1712D02*
X385Y1712D01*
X423Y1712D02*
X430Y1712D01*
X480Y1712D02*
X486Y1712D01*
X494Y1712D02*
X500Y1712D01*
X379Y1711D02*
X385Y1711D01*
X423Y1711D02*
X431Y1711D01*
X480Y1711D02*
X486Y1711D01*
X494Y1711D02*
X500Y1711D01*
X379Y1710D02*
X386Y1710D01*
X424Y1710D02*
X432Y1710D01*
X479Y1710D02*
X486Y1710D01*
X493Y1710D02*
X500Y1710D01*
X367Y1709D02*
X398Y1709D01*
X424Y1709D02*
X448Y1709D01*
X467Y1709D02*
X500Y1709D01*
X366Y1708D02*
X399Y1708D01*
X425Y1708D02*
X449Y1708D01*
X466Y1708D02*
X500Y1708D01*
X366Y1707D02*
X399Y1707D01*
X426Y1707D02*
X449Y1707D01*
X466Y1707D02*
X500Y1707D01*
X366Y1706D02*
X399Y1706D01*
X427Y1706D02*
X449Y1706D01*
X466Y1706D02*
X500Y1706D01*
X366Y1705D02*
X399Y1705D01*
X428Y1705D02*
X449Y1705D01*
X466Y1705D02*
X499Y1705D01*
X367Y1704D02*
X398Y1704D01*
X430Y1704D02*
X448Y1704D01*
X467Y1704D02*
X498Y1704D01*
X369Y1703D02*
X396Y1703D01*
X433Y1703D02*
X446Y1703D01*
X469Y1703D02*
X496Y1703D01*
D02*
G04 End of Silk1*
M02*