G04 MADE WITH FRITZING*
G04 WWW.FRITZING.ORG*
G04 DOUBLE SIDED*
G04 HOLES PLATED*
G04 CONTOUR ON CENTER OF CONTOUR VECTOR*
%ASAXBY*%
%FSLAX23Y23*%
%MOIN*%
%OFA0B0*%
%SFA1.0B1.0*%
%ADD10C,0.075000*%
%ADD11C,0.078000*%
%ADD12C,0.082000*%
%ADD13R,0.075000X0.075000*%
%ADD14R,0.082000X0.082000*%
%ADD15C,0.024000*%
%LNCOPPER0*%
G90*
G70*
G54D10*
X648Y979D03*
X640Y798D03*
X951Y798D03*
X517Y470D03*
X657Y387D03*
X827Y473D03*
X1171Y473D03*
X174Y178D03*
X1038Y387D03*
X1483Y1678D03*
G54D11*
X1442Y1188D03*
X1342Y1188D03*
X1442Y1188D03*
X1342Y1188D03*
X1442Y1088D03*
X1342Y1088D03*
X1442Y1088D03*
X1342Y1088D03*
X642Y88D03*
X742Y88D03*
X842Y88D03*
X942Y88D03*
X642Y88D03*
X742Y88D03*
X842Y88D03*
X942Y88D03*
G54D10*
X1142Y1688D03*
X1142Y1388D03*
X1042Y1688D03*
X1042Y1388D03*
X942Y1688D03*
X942Y1388D03*
X842Y1688D03*
X842Y1388D03*
X742Y1688D03*
X742Y1388D03*
X642Y1688D03*
X642Y1388D03*
X542Y1688D03*
X542Y1388D03*
G54D11*
X1247Y1688D03*
X1247Y1588D03*
X1247Y1488D03*
X1247Y1388D03*
X1247Y1688D03*
X1247Y1588D03*
X1247Y1488D03*
X1247Y1388D03*
G54D10*
X642Y588D03*
X542Y588D03*
X442Y588D03*
X642Y588D03*
X542Y588D03*
X442Y588D03*
X942Y588D03*
X842Y588D03*
X742Y588D03*
X942Y588D03*
X842Y588D03*
X742Y588D03*
X1242Y588D03*
X1142Y588D03*
X1042Y588D03*
X1242Y588D03*
X1142Y588D03*
X1042Y588D03*
G54D12*
X942Y288D03*
X842Y288D03*
X742Y288D03*
X942Y288D03*
X842Y288D03*
X742Y288D03*
X342Y288D03*
X242Y288D03*
X142Y288D03*
X342Y288D03*
X242Y288D03*
X142Y288D03*
X1542Y288D03*
X1442Y288D03*
X1342Y288D03*
X1542Y288D03*
X1442Y288D03*
X1342Y288D03*
G54D10*
X642Y688D03*
X642Y1088D03*
X642Y688D03*
X642Y1088D03*
X942Y688D03*
X942Y1088D03*
X942Y688D03*
X942Y1088D03*
X1242Y688D03*
X1242Y1088D03*
X1242Y688D03*
X1242Y1088D03*
X842Y1188D03*
X842Y788D03*
X842Y1188D03*
X842Y788D03*
X542Y1188D03*
X542Y788D03*
X542Y1188D03*
X542Y788D03*
X1142Y1188D03*
X1142Y788D03*
X1142Y1188D03*
X1142Y788D03*
G54D13*
X1142Y1688D03*
G54D14*
X942Y288D03*
X942Y288D03*
X342Y288D03*
X342Y288D03*
X1542Y288D03*
X1542Y288D03*
G54D15*
X143Y89D02*
X612Y88D01*
D02*
X41Y290D02*
X41Y188D01*
D02*
X340Y589D02*
X41Y290D01*
D02*
X340Y787D02*
X340Y589D01*
D02*
X443Y889D02*
X340Y787D01*
D02*
X541Y988D02*
X443Y889D01*
D02*
X41Y188D02*
X143Y89D01*
D02*
X622Y1068D02*
X541Y988D01*
D02*
X340Y188D02*
X643Y188D01*
D02*
X643Y188D02*
X721Y110D01*
D02*
X1042Y188D02*
X1341Y188D01*
D02*
X1341Y188D02*
X1419Y266D01*
D02*
X264Y265D02*
X340Y188D01*
D02*
X842Y119D02*
X842Y256D01*
D02*
X963Y110D02*
X1042Y188D01*
D02*
X1544Y1190D02*
X1472Y1189D01*
D02*
X1412Y1188D02*
X1372Y1188D01*
D02*
X1412Y1088D02*
X1372Y1088D01*
D02*
X1312Y1088D02*
X1270Y1088D01*
D02*
X441Y1290D02*
X522Y1209D01*
D02*
X443Y787D02*
X442Y617D01*
D02*
X541Y889D02*
X443Y787D01*
D02*
X441Y1588D02*
X441Y1290D01*
D02*
X522Y1668D02*
X441Y1588D01*
D02*
X743Y889D02*
X541Y889D01*
D02*
X743Y889D02*
X742Y617D01*
D02*
X1042Y889D02*
X743Y889D01*
D02*
X1042Y889D02*
X1343Y887D01*
D02*
X1343Y887D02*
X1544Y1088D01*
D02*
X1544Y1190D02*
X1544Y1489D01*
D02*
X1544Y1088D02*
X1544Y1190D01*
D02*
X1343Y1690D02*
X1277Y1689D01*
D02*
X1544Y1489D02*
X1343Y1690D01*
D02*
X1042Y617D02*
X1042Y889D01*
D02*
X743Y1290D02*
X662Y1368D01*
D02*
X822Y1209D02*
X743Y1290D01*
D02*
X1170Y1688D02*
X1217Y1688D01*
D02*
X743Y1588D02*
X1217Y1588D01*
D02*
X662Y1668D02*
X743Y1588D01*
D02*
X641Y1490D02*
X1217Y1488D01*
D02*
X562Y1409D02*
X641Y1490D01*
D02*
X441Y289D02*
X641Y489D01*
D02*
X641Y489D02*
X642Y560D01*
D02*
X1340Y387D02*
X1242Y489D01*
D02*
X1242Y489D02*
X1242Y587D01*
D02*
X1540Y387D02*
X1340Y387D01*
D02*
X374Y289D02*
X441Y289D01*
D02*
X642Y617D02*
X642Y660D01*
D02*
X942Y617D02*
X942Y660D01*
D02*
X1242Y587D02*
X1241Y560D01*
D02*
X1541Y321D02*
X1540Y387D01*
D02*
X1242Y617D02*
X1242Y660D01*
D02*
X670Y1088D02*
X913Y1088D01*
D02*
X970Y1088D02*
X1213Y1088D01*
D02*
X942Y321D02*
X942Y560D01*
D02*
X1242Y1290D02*
X1245Y1358D01*
D02*
X1144Y1290D02*
X1242Y1290D01*
D02*
X1142Y1360D02*
X1144Y1290D01*
D02*
X944Y1290D02*
X862Y1368D01*
D02*
X1144Y1290D02*
X944Y1290D01*
D02*
X1142Y617D02*
X1142Y760D01*
D02*
X944Y1188D02*
X1113Y1188D01*
D02*
X841Y1290D02*
X944Y1188D01*
D02*
X762Y1368D02*
X841Y1290D01*
D02*
X842Y617D02*
X842Y760D01*
D02*
X543Y689D02*
X542Y760D01*
D02*
X542Y617D02*
X543Y689D01*
D02*
X1242Y289D02*
X1310Y289D01*
D02*
X1042Y489D02*
X1242Y289D01*
D02*
X1042Y560D02*
X1042Y489D01*
D02*
X742Y560D02*
X742Y321D01*
D02*
X343Y387D02*
X241Y387D01*
D02*
X241Y387D02*
X165Y311D01*
D02*
X441Y489D02*
X343Y387D01*
D02*
X442Y560D02*
X441Y489D01*
G36*
X782Y1664D02*
X782Y1662D01*
X780Y1662D01*
X780Y1660D01*
X778Y1660D01*
X778Y1656D01*
X776Y1656D01*
X776Y1654D01*
X774Y1654D01*
X774Y1652D01*
X770Y1652D01*
X770Y1650D01*
X768Y1650D01*
X768Y1648D01*
X764Y1648D01*
X764Y1646D01*
X760Y1646D01*
X760Y1644D01*
X754Y1644D01*
X754Y1642D01*
X830Y1642D01*
X830Y1644D01*
X822Y1644D01*
X822Y1646D01*
X820Y1646D01*
X820Y1648D01*
X816Y1648D01*
X816Y1650D01*
X814Y1650D01*
X814Y1652D01*
X810Y1652D01*
X810Y1654D01*
X808Y1654D01*
X808Y1656D01*
X806Y1656D01*
X806Y1658D01*
X804Y1658D01*
X804Y1662D01*
X802Y1662D01*
X802Y1664D01*
X782Y1664D01*
G37*
D02*
G36*
X882Y1664D02*
X882Y1662D01*
X880Y1662D01*
X880Y1660D01*
X878Y1660D01*
X878Y1656D01*
X876Y1656D01*
X876Y1654D01*
X874Y1654D01*
X874Y1652D01*
X870Y1652D01*
X870Y1650D01*
X868Y1650D01*
X868Y1648D01*
X864Y1648D01*
X864Y1646D01*
X860Y1646D01*
X860Y1644D01*
X854Y1644D01*
X854Y1642D01*
X930Y1642D01*
X930Y1644D01*
X922Y1644D01*
X922Y1646D01*
X920Y1646D01*
X920Y1648D01*
X916Y1648D01*
X916Y1650D01*
X914Y1650D01*
X914Y1652D01*
X910Y1652D01*
X910Y1654D01*
X908Y1654D01*
X908Y1656D01*
X906Y1656D01*
X906Y1658D01*
X904Y1658D01*
X904Y1662D01*
X902Y1662D01*
X902Y1664D01*
X882Y1664D01*
G37*
D02*
G36*
X982Y1664D02*
X982Y1662D01*
X980Y1662D01*
X980Y1660D01*
X978Y1660D01*
X978Y1656D01*
X976Y1656D01*
X976Y1654D01*
X974Y1654D01*
X974Y1652D01*
X970Y1652D01*
X970Y1650D01*
X968Y1650D01*
X968Y1648D01*
X964Y1648D01*
X964Y1646D01*
X960Y1646D01*
X960Y1644D01*
X954Y1644D01*
X954Y1642D01*
X1030Y1642D01*
X1030Y1644D01*
X1022Y1644D01*
X1022Y1646D01*
X1020Y1646D01*
X1020Y1648D01*
X1016Y1648D01*
X1016Y1650D01*
X1014Y1650D01*
X1014Y1652D01*
X1010Y1652D01*
X1010Y1654D01*
X1008Y1654D01*
X1008Y1656D01*
X1006Y1656D01*
X1006Y1658D01*
X1004Y1658D01*
X1004Y1662D01*
X1002Y1662D01*
X1002Y1664D01*
X982Y1664D01*
G37*
D02*
G36*
X1190Y1658D02*
X1190Y1642D01*
X1188Y1642D01*
X1188Y1640D01*
X1220Y1640D01*
X1220Y1648D01*
X1218Y1648D01*
X1218Y1650D01*
X1216Y1650D01*
X1216Y1652D01*
X1214Y1652D01*
X1214Y1654D01*
X1212Y1654D01*
X1212Y1656D01*
X1210Y1656D01*
X1210Y1658D01*
X1190Y1658D01*
G37*
D02*
G36*
X1074Y1654D02*
X1074Y1652D01*
X1070Y1652D01*
X1070Y1650D01*
X1068Y1650D01*
X1068Y1648D01*
X1064Y1648D01*
X1064Y1646D01*
X1060Y1646D01*
X1060Y1644D01*
X1054Y1644D01*
X1054Y1642D01*
X1094Y1642D01*
X1094Y1654D01*
X1074Y1654D01*
G37*
D02*
G36*
X740Y1642D02*
X740Y1640D01*
X1096Y1640D01*
X1096Y1642D01*
X740Y1642D01*
G37*
D02*
G36*
X740Y1642D02*
X740Y1640D01*
X1096Y1640D01*
X1096Y1642D01*
X740Y1642D01*
G37*
D02*
G36*
X740Y1642D02*
X740Y1640D01*
X1096Y1640D01*
X1096Y1642D01*
X740Y1642D01*
G37*
D02*
G36*
X740Y1642D02*
X740Y1640D01*
X1096Y1640D01*
X1096Y1642D01*
X740Y1642D01*
G37*
D02*
G36*
X740Y1640D02*
X740Y1638D01*
X1220Y1638D01*
X1220Y1640D01*
X740Y1640D01*
G37*
D02*
G36*
X740Y1640D02*
X740Y1638D01*
X1220Y1638D01*
X1220Y1640D01*
X740Y1640D01*
G37*
D02*
G36*
X740Y1638D02*
X740Y1622D01*
X742Y1622D01*
X742Y1620D01*
X744Y1620D01*
X744Y1618D01*
X746Y1618D01*
X746Y1616D01*
X748Y1616D01*
X748Y1614D01*
X750Y1614D01*
X750Y1612D01*
X752Y1612D01*
X752Y1610D01*
X1204Y1610D01*
X1204Y1614D01*
X1206Y1614D01*
X1206Y1616D01*
X1208Y1616D01*
X1208Y1620D01*
X1210Y1620D01*
X1210Y1622D01*
X1212Y1622D01*
X1212Y1624D01*
X1214Y1624D01*
X1214Y1626D01*
X1216Y1626D01*
X1216Y1628D01*
X1220Y1628D01*
X1220Y1638D01*
X740Y1638D01*
G37*
D02*
G36*
X650Y1468D02*
X650Y1466D01*
X648Y1466D01*
X648Y1464D01*
X646Y1464D01*
X646Y1462D01*
X644Y1462D01*
X644Y1460D01*
X642Y1460D01*
X642Y1458D01*
X640Y1458D01*
X640Y1456D01*
X638Y1456D01*
X638Y1436D01*
X1152Y1436D01*
X1152Y1434D01*
X1158Y1434D01*
X1158Y1432D01*
X1162Y1432D01*
X1162Y1430D01*
X1166Y1430D01*
X1166Y1428D01*
X1170Y1428D01*
X1170Y1426D01*
X1172Y1426D01*
X1172Y1424D01*
X1174Y1424D01*
X1174Y1422D01*
X1176Y1422D01*
X1176Y1420D01*
X1178Y1420D01*
X1178Y1418D01*
X1180Y1418D01*
X1180Y1416D01*
X1182Y1416D01*
X1182Y1412D01*
X1184Y1412D01*
X1184Y1410D01*
X1204Y1410D01*
X1204Y1414D01*
X1206Y1414D01*
X1206Y1416D01*
X1208Y1416D01*
X1208Y1420D01*
X1210Y1420D01*
X1210Y1422D01*
X1212Y1422D01*
X1212Y1424D01*
X1214Y1424D01*
X1214Y1426D01*
X1216Y1426D01*
X1216Y1428D01*
X1220Y1428D01*
X1220Y1448D01*
X1218Y1448D01*
X1218Y1450D01*
X1216Y1450D01*
X1216Y1452D01*
X1214Y1452D01*
X1214Y1454D01*
X1212Y1454D01*
X1212Y1456D01*
X1210Y1456D01*
X1210Y1458D01*
X1208Y1458D01*
X1208Y1460D01*
X1206Y1460D01*
X1206Y1464D01*
X1204Y1464D01*
X1204Y1466D01*
X1054Y1466D01*
X1054Y1468D01*
X650Y1468D01*
G37*
D02*
G36*
X652Y1436D02*
X652Y1434D01*
X658Y1434D01*
X658Y1432D01*
X662Y1432D01*
X662Y1430D01*
X666Y1430D01*
X666Y1428D01*
X670Y1428D01*
X670Y1426D01*
X672Y1426D01*
X672Y1424D01*
X674Y1424D01*
X674Y1422D01*
X676Y1422D01*
X676Y1420D01*
X678Y1420D01*
X678Y1418D01*
X680Y1418D01*
X680Y1416D01*
X682Y1416D01*
X682Y1412D01*
X702Y1412D01*
X702Y1416D01*
X704Y1416D01*
X704Y1418D01*
X706Y1418D01*
X706Y1420D01*
X708Y1420D01*
X708Y1422D01*
X710Y1422D01*
X710Y1424D01*
X712Y1424D01*
X712Y1426D01*
X714Y1426D01*
X714Y1428D01*
X718Y1428D01*
X718Y1430D01*
X722Y1430D01*
X722Y1432D01*
X726Y1432D01*
X726Y1434D01*
X732Y1434D01*
X732Y1436D01*
X652Y1436D01*
G37*
D02*
G36*
X752Y1436D02*
X752Y1434D01*
X758Y1434D01*
X758Y1432D01*
X762Y1432D01*
X762Y1430D01*
X766Y1430D01*
X766Y1428D01*
X770Y1428D01*
X770Y1426D01*
X772Y1426D01*
X772Y1424D01*
X774Y1424D01*
X774Y1422D01*
X776Y1422D01*
X776Y1420D01*
X778Y1420D01*
X778Y1418D01*
X780Y1418D01*
X780Y1416D01*
X782Y1416D01*
X782Y1412D01*
X802Y1412D01*
X802Y1416D01*
X804Y1416D01*
X804Y1418D01*
X806Y1418D01*
X806Y1420D01*
X808Y1420D01*
X808Y1422D01*
X810Y1422D01*
X810Y1424D01*
X812Y1424D01*
X812Y1426D01*
X814Y1426D01*
X814Y1428D01*
X818Y1428D01*
X818Y1430D01*
X822Y1430D01*
X822Y1432D01*
X826Y1432D01*
X826Y1434D01*
X832Y1434D01*
X832Y1436D01*
X752Y1436D01*
G37*
D02*
G36*
X852Y1436D02*
X852Y1434D01*
X858Y1434D01*
X858Y1432D01*
X862Y1432D01*
X862Y1430D01*
X866Y1430D01*
X866Y1428D01*
X870Y1428D01*
X870Y1426D01*
X872Y1426D01*
X872Y1424D01*
X874Y1424D01*
X874Y1422D01*
X876Y1422D01*
X876Y1420D01*
X878Y1420D01*
X878Y1418D01*
X880Y1418D01*
X880Y1416D01*
X882Y1416D01*
X882Y1412D01*
X902Y1412D01*
X902Y1416D01*
X904Y1416D01*
X904Y1418D01*
X906Y1418D01*
X906Y1420D01*
X908Y1420D01*
X908Y1422D01*
X910Y1422D01*
X910Y1424D01*
X912Y1424D01*
X912Y1426D01*
X914Y1426D01*
X914Y1428D01*
X918Y1428D01*
X918Y1430D01*
X922Y1430D01*
X922Y1432D01*
X926Y1432D01*
X926Y1434D01*
X932Y1434D01*
X932Y1436D01*
X852Y1436D01*
G37*
D02*
G36*
X952Y1436D02*
X952Y1434D01*
X958Y1434D01*
X958Y1432D01*
X962Y1432D01*
X962Y1430D01*
X966Y1430D01*
X966Y1428D01*
X970Y1428D01*
X970Y1426D01*
X972Y1426D01*
X972Y1424D01*
X974Y1424D01*
X974Y1422D01*
X976Y1422D01*
X976Y1420D01*
X978Y1420D01*
X978Y1418D01*
X980Y1418D01*
X980Y1416D01*
X982Y1416D01*
X982Y1412D01*
X1002Y1412D01*
X1002Y1416D01*
X1004Y1416D01*
X1004Y1418D01*
X1006Y1418D01*
X1006Y1420D01*
X1008Y1420D01*
X1008Y1422D01*
X1010Y1422D01*
X1010Y1424D01*
X1012Y1424D01*
X1012Y1426D01*
X1014Y1426D01*
X1014Y1428D01*
X1018Y1428D01*
X1018Y1430D01*
X1022Y1430D01*
X1022Y1432D01*
X1026Y1432D01*
X1026Y1434D01*
X1032Y1434D01*
X1032Y1436D01*
X952Y1436D01*
G37*
D02*
G36*
X1052Y1436D02*
X1052Y1434D01*
X1058Y1434D01*
X1058Y1432D01*
X1062Y1432D01*
X1062Y1430D01*
X1066Y1430D01*
X1066Y1428D01*
X1070Y1428D01*
X1070Y1426D01*
X1072Y1426D01*
X1072Y1424D01*
X1074Y1424D01*
X1074Y1422D01*
X1076Y1422D01*
X1076Y1420D01*
X1078Y1420D01*
X1078Y1418D01*
X1080Y1418D01*
X1080Y1416D01*
X1082Y1416D01*
X1082Y1412D01*
X1102Y1412D01*
X1102Y1416D01*
X1104Y1416D01*
X1104Y1418D01*
X1106Y1418D01*
X1106Y1420D01*
X1108Y1420D01*
X1108Y1422D01*
X1110Y1422D01*
X1110Y1424D01*
X1112Y1424D01*
X1112Y1426D01*
X1114Y1426D01*
X1114Y1428D01*
X1118Y1428D01*
X1118Y1430D01*
X1122Y1430D01*
X1122Y1432D01*
X1126Y1432D01*
X1126Y1434D01*
X1132Y1434D01*
X1132Y1436D01*
X1052Y1436D01*
G37*
D02*
G36*
X1184Y1368D02*
X1184Y1366D01*
X1182Y1366D01*
X1182Y1362D01*
X1180Y1362D01*
X1180Y1360D01*
X1178Y1360D01*
X1178Y1356D01*
X1176Y1356D01*
X1176Y1354D01*
X1174Y1354D01*
X1174Y1352D01*
X1170Y1352D01*
X1170Y1350D01*
X1168Y1350D01*
X1168Y1348D01*
X1166Y1348D01*
X1166Y1312D01*
X1220Y1312D01*
X1220Y1314D01*
X1222Y1314D01*
X1222Y1348D01*
X1218Y1348D01*
X1218Y1350D01*
X1216Y1350D01*
X1216Y1352D01*
X1214Y1352D01*
X1214Y1354D01*
X1212Y1354D01*
X1212Y1356D01*
X1210Y1356D01*
X1210Y1358D01*
X1208Y1358D01*
X1208Y1360D01*
X1206Y1360D01*
X1206Y1364D01*
X1204Y1364D01*
X1204Y1368D01*
X1184Y1368D01*
G37*
D02*
G36*
X982Y1364D02*
X982Y1362D01*
X980Y1362D01*
X980Y1360D01*
X978Y1360D01*
X978Y1356D01*
X976Y1356D01*
X976Y1354D01*
X974Y1354D01*
X974Y1352D01*
X970Y1352D01*
X970Y1350D01*
X968Y1350D01*
X968Y1348D01*
X964Y1348D01*
X964Y1346D01*
X960Y1346D01*
X960Y1344D01*
X954Y1344D01*
X954Y1342D01*
X1030Y1342D01*
X1030Y1344D01*
X1022Y1344D01*
X1022Y1346D01*
X1020Y1346D01*
X1020Y1348D01*
X1016Y1348D01*
X1016Y1350D01*
X1014Y1350D01*
X1014Y1352D01*
X1010Y1352D01*
X1010Y1354D01*
X1008Y1354D01*
X1008Y1356D01*
X1006Y1356D01*
X1006Y1358D01*
X1004Y1358D01*
X1004Y1362D01*
X1002Y1362D01*
X1002Y1364D01*
X982Y1364D01*
G37*
D02*
G36*
X1082Y1364D02*
X1082Y1362D01*
X1080Y1362D01*
X1080Y1360D01*
X1078Y1360D01*
X1078Y1356D01*
X1076Y1356D01*
X1076Y1354D01*
X1074Y1354D01*
X1074Y1352D01*
X1070Y1352D01*
X1070Y1350D01*
X1068Y1350D01*
X1068Y1348D01*
X1064Y1348D01*
X1064Y1346D01*
X1060Y1346D01*
X1060Y1344D01*
X1054Y1344D01*
X1054Y1342D01*
X1120Y1342D01*
X1120Y1348D01*
X1116Y1348D01*
X1116Y1350D01*
X1114Y1350D01*
X1114Y1352D01*
X1110Y1352D01*
X1110Y1354D01*
X1108Y1354D01*
X1108Y1356D01*
X1106Y1356D01*
X1106Y1358D01*
X1104Y1358D01*
X1104Y1362D01*
X1102Y1362D01*
X1102Y1364D01*
X1082Y1364D01*
G37*
D02*
G36*
X942Y1342D02*
X942Y1340D01*
X1120Y1340D01*
X1120Y1342D01*
X942Y1342D01*
G37*
D02*
G36*
X942Y1342D02*
X942Y1340D01*
X1120Y1340D01*
X1120Y1342D01*
X942Y1342D01*
G37*
D02*
G36*
X942Y1340D02*
X942Y1322D01*
X944Y1322D01*
X944Y1320D01*
X946Y1320D01*
X946Y1318D01*
X948Y1318D01*
X948Y1316D01*
X950Y1316D01*
X950Y1314D01*
X952Y1314D01*
X952Y1312D01*
X1120Y1312D01*
X1120Y1340D01*
X942Y1340D01*
G37*
D02*
G36*
X740Y1340D02*
X740Y1322D01*
X744Y1322D01*
X744Y1320D01*
X746Y1320D01*
X746Y1318D01*
X748Y1318D01*
X748Y1316D01*
X750Y1316D01*
X750Y1314D01*
X752Y1314D01*
X752Y1312D01*
X754Y1312D01*
X754Y1310D01*
X756Y1310D01*
X756Y1308D01*
X758Y1308D01*
X758Y1306D01*
X760Y1306D01*
X760Y1304D01*
X762Y1304D01*
X762Y1302D01*
X764Y1302D01*
X764Y1300D01*
X766Y1300D01*
X766Y1298D01*
X768Y1298D01*
X768Y1296D01*
X770Y1296D01*
X770Y1294D01*
X772Y1294D01*
X772Y1292D01*
X774Y1292D01*
X774Y1288D01*
X776Y1288D01*
X776Y1286D01*
X778Y1286D01*
X778Y1284D01*
X780Y1284D01*
X780Y1282D01*
X782Y1282D01*
X782Y1280D01*
X784Y1280D01*
X784Y1278D01*
X786Y1278D01*
X786Y1276D01*
X788Y1276D01*
X788Y1274D01*
X790Y1274D01*
X790Y1272D01*
X792Y1272D01*
X792Y1270D01*
X794Y1270D01*
X794Y1268D01*
X796Y1268D01*
X796Y1266D01*
X798Y1266D01*
X798Y1264D01*
X800Y1264D01*
X800Y1262D01*
X802Y1262D01*
X802Y1260D01*
X804Y1260D01*
X804Y1258D01*
X806Y1258D01*
X806Y1256D01*
X808Y1256D01*
X808Y1254D01*
X810Y1254D01*
X810Y1252D01*
X812Y1252D01*
X812Y1250D01*
X814Y1250D01*
X814Y1248D01*
X816Y1248D01*
X816Y1246D01*
X818Y1246D01*
X818Y1244D01*
X820Y1244D01*
X820Y1242D01*
X822Y1242D01*
X822Y1240D01*
X824Y1240D01*
X824Y1238D01*
X826Y1238D01*
X826Y1236D01*
X846Y1236D01*
X846Y1256D01*
X844Y1256D01*
X844Y1258D01*
X842Y1258D01*
X842Y1260D01*
X840Y1260D01*
X840Y1262D01*
X838Y1262D01*
X838Y1264D01*
X836Y1264D01*
X836Y1266D01*
X834Y1266D01*
X834Y1268D01*
X832Y1268D01*
X832Y1270D01*
X830Y1270D01*
X830Y1272D01*
X828Y1272D01*
X828Y1274D01*
X826Y1274D01*
X826Y1276D01*
X824Y1276D01*
X824Y1278D01*
X822Y1278D01*
X822Y1280D01*
X820Y1280D01*
X820Y1282D01*
X818Y1282D01*
X818Y1284D01*
X816Y1284D01*
X816Y1286D01*
X814Y1286D01*
X814Y1288D01*
X812Y1288D01*
X812Y1290D01*
X810Y1290D01*
X810Y1292D01*
X808Y1292D01*
X808Y1294D01*
X806Y1294D01*
X806Y1296D01*
X802Y1296D01*
X802Y1298D01*
X800Y1298D01*
X800Y1300D01*
X798Y1300D01*
X798Y1302D01*
X796Y1302D01*
X796Y1304D01*
X794Y1304D01*
X794Y1306D01*
X792Y1306D01*
X792Y1308D01*
X790Y1308D01*
X790Y1310D01*
X788Y1310D01*
X788Y1312D01*
X786Y1312D01*
X786Y1314D01*
X784Y1314D01*
X784Y1316D01*
X782Y1316D01*
X782Y1318D01*
X780Y1318D01*
X780Y1320D01*
X778Y1320D01*
X778Y1322D01*
X776Y1322D01*
X776Y1324D01*
X774Y1324D01*
X774Y1326D01*
X772Y1326D01*
X772Y1328D01*
X770Y1328D01*
X770Y1330D01*
X768Y1330D01*
X768Y1332D01*
X766Y1332D01*
X766Y1334D01*
X764Y1334D01*
X764Y1336D01*
X762Y1336D01*
X762Y1338D01*
X760Y1338D01*
X760Y1340D01*
X740Y1340D01*
G37*
D02*
G36*
X1486Y1168D02*
X1486Y1166D01*
X1484Y1166D01*
X1484Y1162D01*
X1482Y1162D01*
X1482Y1160D01*
X1480Y1160D01*
X1480Y1156D01*
X1478Y1156D01*
X1478Y1154D01*
X1476Y1154D01*
X1476Y1152D01*
X1472Y1152D01*
X1472Y1150D01*
X1470Y1150D01*
X1470Y1128D01*
X1472Y1128D01*
X1472Y1126D01*
X1474Y1126D01*
X1474Y1124D01*
X1476Y1124D01*
X1476Y1122D01*
X1478Y1122D01*
X1478Y1120D01*
X1480Y1120D01*
X1480Y1118D01*
X1482Y1118D01*
X1482Y1114D01*
X1484Y1114D01*
X1484Y1112D01*
X1486Y1112D01*
X1486Y1108D01*
X1488Y1108D01*
X1488Y1100D01*
X1490Y1100D01*
X1490Y1084D01*
X1510Y1084D01*
X1510Y1086D01*
X1512Y1086D01*
X1512Y1088D01*
X1514Y1088D01*
X1514Y1090D01*
X1516Y1090D01*
X1516Y1092D01*
X1518Y1092D01*
X1518Y1094D01*
X1520Y1094D01*
X1520Y1096D01*
X1522Y1096D01*
X1522Y1168D01*
X1486Y1168D01*
G37*
D02*
G36*
X682Y1066D02*
X682Y1062D01*
X680Y1062D01*
X680Y1060D01*
X678Y1060D01*
X678Y1056D01*
X676Y1056D01*
X676Y1054D01*
X674Y1054D01*
X674Y1052D01*
X670Y1052D01*
X670Y1050D01*
X668Y1050D01*
X668Y1048D01*
X664Y1048D01*
X664Y1046D01*
X660Y1046D01*
X660Y1044D01*
X654Y1044D01*
X654Y1042D01*
X930Y1042D01*
X930Y1044D01*
X922Y1044D01*
X922Y1046D01*
X920Y1046D01*
X920Y1048D01*
X916Y1048D01*
X916Y1050D01*
X914Y1050D01*
X914Y1052D01*
X910Y1052D01*
X910Y1054D01*
X908Y1054D01*
X908Y1056D01*
X906Y1056D01*
X906Y1058D01*
X904Y1058D01*
X904Y1062D01*
X902Y1062D01*
X902Y1064D01*
X900Y1064D01*
X900Y1066D01*
X682Y1066D01*
G37*
D02*
G36*
X982Y1066D02*
X982Y1062D01*
X980Y1062D01*
X980Y1060D01*
X978Y1060D01*
X978Y1056D01*
X976Y1056D01*
X976Y1054D01*
X974Y1054D01*
X974Y1052D01*
X970Y1052D01*
X970Y1050D01*
X968Y1050D01*
X968Y1048D01*
X964Y1048D01*
X964Y1046D01*
X960Y1046D01*
X960Y1044D01*
X954Y1044D01*
X954Y1042D01*
X1230Y1042D01*
X1230Y1044D01*
X1222Y1044D01*
X1222Y1046D01*
X1220Y1046D01*
X1220Y1048D01*
X1216Y1048D01*
X1216Y1050D01*
X1214Y1050D01*
X1214Y1052D01*
X1210Y1052D01*
X1210Y1054D01*
X1208Y1054D01*
X1208Y1056D01*
X1206Y1056D01*
X1206Y1058D01*
X1204Y1058D01*
X1204Y1062D01*
X1202Y1062D01*
X1202Y1064D01*
X1200Y1064D01*
X1200Y1066D01*
X982Y1066D01*
G37*
D02*
G36*
X1280Y1062D02*
X1280Y1060D01*
X1278Y1060D01*
X1278Y1056D01*
X1276Y1056D01*
X1276Y1054D01*
X1274Y1054D01*
X1274Y1052D01*
X1270Y1052D01*
X1270Y1050D01*
X1268Y1050D01*
X1268Y1048D01*
X1264Y1048D01*
X1264Y1046D01*
X1260Y1046D01*
X1260Y1044D01*
X1254Y1044D01*
X1254Y1042D01*
X1324Y1042D01*
X1324Y1044D01*
X1320Y1044D01*
X1320Y1046D01*
X1316Y1046D01*
X1316Y1048D01*
X1314Y1048D01*
X1314Y1050D01*
X1310Y1050D01*
X1310Y1052D01*
X1308Y1052D01*
X1308Y1054D01*
X1306Y1054D01*
X1306Y1056D01*
X1304Y1056D01*
X1304Y1060D01*
X1302Y1060D01*
X1302Y1062D01*
X1280Y1062D01*
G37*
D02*
G36*
X1382Y1062D02*
X1382Y1060D01*
X1380Y1060D01*
X1380Y1056D01*
X1378Y1056D01*
X1378Y1054D01*
X1376Y1054D01*
X1376Y1052D01*
X1372Y1052D01*
X1372Y1050D01*
X1370Y1050D01*
X1370Y1048D01*
X1368Y1048D01*
X1368Y1046D01*
X1364Y1046D01*
X1364Y1044D01*
X1360Y1044D01*
X1360Y1042D01*
X1354Y1042D01*
X1354Y1040D01*
X1430Y1040D01*
X1430Y1042D01*
X1424Y1042D01*
X1424Y1044D01*
X1420Y1044D01*
X1420Y1046D01*
X1416Y1046D01*
X1416Y1048D01*
X1414Y1048D01*
X1414Y1050D01*
X1410Y1050D01*
X1410Y1052D01*
X1408Y1052D01*
X1408Y1054D01*
X1406Y1054D01*
X1406Y1056D01*
X1404Y1056D01*
X1404Y1060D01*
X1402Y1060D01*
X1402Y1062D01*
X1382Y1062D01*
G37*
D02*
G36*
X626Y1042D02*
X626Y1040D01*
X1330Y1040D01*
X1330Y1042D01*
X626Y1042D01*
G37*
D02*
G36*
X626Y1042D02*
X626Y1040D01*
X1330Y1040D01*
X1330Y1042D01*
X626Y1042D01*
G37*
D02*
G36*
X626Y1042D02*
X626Y1040D01*
X1330Y1040D01*
X1330Y1042D01*
X626Y1042D01*
G37*
D02*
G36*
X624Y1040D02*
X624Y1038D01*
X1446Y1038D01*
X1446Y1040D01*
X624Y1040D01*
G37*
D02*
G36*
X624Y1040D02*
X624Y1038D01*
X1446Y1038D01*
X1446Y1040D01*
X624Y1040D01*
G37*
D02*
G36*
X622Y1038D02*
X622Y1036D01*
X620Y1036D01*
X620Y1034D01*
X618Y1034D01*
X618Y1032D01*
X616Y1032D01*
X616Y1030D01*
X614Y1030D01*
X614Y1028D01*
X612Y1028D01*
X612Y1026D01*
X610Y1026D01*
X610Y1024D01*
X608Y1024D01*
X608Y1022D01*
X606Y1022D01*
X606Y1020D01*
X604Y1020D01*
X604Y1018D01*
X602Y1018D01*
X602Y1016D01*
X600Y1016D01*
X600Y1014D01*
X598Y1014D01*
X598Y1012D01*
X596Y1012D01*
X596Y1010D01*
X594Y1010D01*
X594Y1008D01*
X592Y1008D01*
X592Y1006D01*
X590Y1006D01*
X590Y1004D01*
X588Y1004D01*
X588Y1002D01*
X586Y1002D01*
X586Y1000D01*
X584Y1000D01*
X584Y998D01*
X582Y998D01*
X582Y996D01*
X580Y996D01*
X580Y994D01*
X578Y994D01*
X578Y992D01*
X576Y992D01*
X576Y990D01*
X574Y990D01*
X574Y988D01*
X572Y988D01*
X572Y986D01*
X570Y986D01*
X570Y984D01*
X568Y984D01*
X568Y982D01*
X566Y982D01*
X566Y980D01*
X564Y980D01*
X564Y978D01*
X562Y978D01*
X562Y976D01*
X560Y976D01*
X560Y974D01*
X558Y974D01*
X558Y972D01*
X556Y972D01*
X556Y970D01*
X554Y970D01*
X554Y968D01*
X552Y968D01*
X552Y966D01*
X550Y966D01*
X550Y964D01*
X548Y964D01*
X548Y962D01*
X546Y962D01*
X546Y960D01*
X544Y960D01*
X544Y958D01*
X542Y958D01*
X542Y956D01*
X540Y956D01*
X540Y954D01*
X538Y954D01*
X538Y952D01*
X536Y952D01*
X536Y950D01*
X534Y950D01*
X534Y948D01*
X532Y948D01*
X532Y946D01*
X530Y946D01*
X530Y944D01*
X528Y944D01*
X528Y942D01*
X526Y942D01*
X526Y940D01*
X524Y940D01*
X524Y938D01*
X522Y938D01*
X522Y936D01*
X520Y936D01*
X520Y934D01*
X518Y934D01*
X518Y932D01*
X516Y932D01*
X516Y930D01*
X514Y930D01*
X514Y928D01*
X512Y928D01*
X512Y926D01*
X510Y926D01*
X510Y924D01*
X508Y924D01*
X508Y922D01*
X506Y922D01*
X506Y920D01*
X504Y920D01*
X504Y918D01*
X502Y918D01*
X502Y916D01*
X500Y916D01*
X500Y914D01*
X498Y914D01*
X498Y912D01*
X1124Y912D01*
X1124Y910D01*
X1336Y910D01*
X1336Y912D01*
X1338Y912D01*
X1338Y914D01*
X1340Y914D01*
X1340Y916D01*
X1342Y916D01*
X1342Y918D01*
X1344Y918D01*
X1344Y920D01*
X1346Y920D01*
X1346Y922D01*
X1348Y922D01*
X1348Y924D01*
X1350Y924D01*
X1350Y926D01*
X1352Y926D01*
X1352Y928D01*
X1354Y928D01*
X1354Y930D01*
X1356Y930D01*
X1356Y932D01*
X1358Y932D01*
X1358Y934D01*
X1360Y934D01*
X1360Y936D01*
X1362Y936D01*
X1362Y938D01*
X1364Y938D01*
X1364Y940D01*
X1366Y940D01*
X1366Y942D01*
X1368Y942D01*
X1368Y944D01*
X1370Y944D01*
X1370Y946D01*
X1372Y946D01*
X1372Y948D01*
X1374Y948D01*
X1374Y950D01*
X1376Y950D01*
X1376Y952D01*
X1378Y952D01*
X1378Y954D01*
X1380Y954D01*
X1380Y956D01*
X1382Y956D01*
X1382Y958D01*
X1384Y958D01*
X1384Y960D01*
X1386Y960D01*
X1386Y962D01*
X1388Y962D01*
X1388Y964D01*
X1390Y964D01*
X1390Y966D01*
X1392Y966D01*
X1392Y968D01*
X1394Y968D01*
X1394Y970D01*
X1396Y970D01*
X1396Y972D01*
X1398Y972D01*
X1398Y974D01*
X1400Y974D01*
X1400Y976D01*
X1402Y976D01*
X1402Y978D01*
X1404Y978D01*
X1404Y980D01*
X1406Y980D01*
X1406Y982D01*
X1408Y982D01*
X1408Y984D01*
X1410Y984D01*
X1410Y986D01*
X1412Y986D01*
X1412Y988D01*
X1414Y988D01*
X1414Y990D01*
X1416Y990D01*
X1416Y992D01*
X1418Y992D01*
X1418Y994D01*
X1420Y994D01*
X1420Y996D01*
X1422Y996D01*
X1422Y998D01*
X1424Y998D01*
X1424Y1000D01*
X1426Y1000D01*
X1426Y1002D01*
X1428Y1002D01*
X1428Y1004D01*
X1430Y1004D01*
X1430Y1006D01*
X1432Y1006D01*
X1432Y1008D01*
X1434Y1008D01*
X1434Y1010D01*
X1436Y1010D01*
X1436Y1012D01*
X1438Y1012D01*
X1438Y1014D01*
X1440Y1014D01*
X1440Y1016D01*
X1442Y1016D01*
X1442Y1018D01*
X1444Y1018D01*
X1444Y1020D01*
X1446Y1020D01*
X1446Y1038D01*
X622Y1038D01*
G37*
D02*
G36*
X496Y912D02*
X496Y910D01*
X494Y910D01*
X494Y908D01*
X492Y908D01*
X492Y906D01*
X490Y906D01*
X490Y904D01*
X488Y904D01*
X488Y902D01*
X486Y902D01*
X486Y900D01*
X484Y900D01*
X484Y898D01*
X482Y898D01*
X482Y896D01*
X480Y896D01*
X480Y894D01*
X478Y894D01*
X478Y892D01*
X476Y892D01*
X476Y890D01*
X474Y890D01*
X474Y888D01*
X472Y888D01*
X472Y886D01*
X470Y886D01*
X470Y884D01*
X468Y884D01*
X468Y882D01*
X466Y882D01*
X466Y880D01*
X464Y880D01*
X464Y878D01*
X462Y878D01*
X462Y876D01*
X460Y876D01*
X460Y874D01*
X458Y874D01*
X458Y872D01*
X456Y872D01*
X456Y870D01*
X454Y870D01*
X454Y868D01*
X452Y868D01*
X452Y866D01*
X450Y866D01*
X450Y864D01*
X448Y864D01*
X448Y862D01*
X446Y862D01*
X446Y860D01*
X444Y860D01*
X444Y858D01*
X442Y858D01*
X442Y856D01*
X440Y856D01*
X440Y854D01*
X438Y854D01*
X438Y852D01*
X436Y852D01*
X436Y850D01*
X434Y850D01*
X434Y848D01*
X432Y848D01*
X432Y846D01*
X430Y846D01*
X430Y844D01*
X428Y844D01*
X428Y842D01*
X426Y842D01*
X426Y840D01*
X424Y840D01*
X424Y838D01*
X422Y838D01*
X422Y836D01*
X420Y836D01*
X420Y834D01*
X418Y834D01*
X418Y832D01*
X416Y832D01*
X416Y830D01*
X414Y830D01*
X414Y828D01*
X412Y828D01*
X412Y826D01*
X410Y826D01*
X410Y824D01*
X408Y824D01*
X408Y822D01*
X406Y822D01*
X406Y820D01*
X404Y820D01*
X404Y818D01*
X402Y818D01*
X402Y816D01*
X400Y816D01*
X400Y814D01*
X398Y814D01*
X398Y812D01*
X396Y812D01*
X396Y810D01*
X394Y810D01*
X394Y808D01*
X392Y808D01*
X392Y806D01*
X390Y806D01*
X390Y804D01*
X388Y804D01*
X388Y802D01*
X386Y802D01*
X386Y800D01*
X384Y800D01*
X384Y798D01*
X382Y798D01*
X382Y796D01*
X380Y796D01*
X380Y794D01*
X378Y794D01*
X378Y792D01*
X376Y792D01*
X376Y790D01*
X374Y790D01*
X374Y788D01*
X372Y788D01*
X372Y786D01*
X370Y786D01*
X370Y784D01*
X368Y784D01*
X368Y782D01*
X366Y782D01*
X366Y780D01*
X364Y780D01*
X364Y778D01*
X362Y778D01*
X362Y582D01*
X360Y582D01*
X360Y578D01*
X358Y578D01*
X358Y576D01*
X356Y576D01*
X356Y574D01*
X354Y574D01*
X354Y572D01*
X352Y572D01*
X352Y570D01*
X350Y570D01*
X350Y568D01*
X348Y568D01*
X348Y566D01*
X346Y566D01*
X346Y564D01*
X344Y564D01*
X344Y562D01*
X342Y562D01*
X342Y560D01*
X340Y560D01*
X340Y558D01*
X338Y558D01*
X338Y556D01*
X336Y556D01*
X336Y554D01*
X334Y554D01*
X334Y552D01*
X332Y552D01*
X332Y550D01*
X330Y550D01*
X330Y548D01*
X328Y548D01*
X328Y546D01*
X326Y546D01*
X326Y544D01*
X324Y544D01*
X324Y542D01*
X322Y542D01*
X322Y540D01*
X320Y540D01*
X320Y538D01*
X318Y538D01*
X318Y536D01*
X316Y536D01*
X316Y534D01*
X314Y534D01*
X314Y532D01*
X312Y532D01*
X312Y530D01*
X310Y530D01*
X310Y528D01*
X308Y528D01*
X308Y526D01*
X306Y526D01*
X306Y524D01*
X304Y524D01*
X304Y522D01*
X302Y522D01*
X302Y520D01*
X300Y520D01*
X300Y518D01*
X298Y518D01*
X298Y516D01*
X296Y516D01*
X296Y514D01*
X294Y514D01*
X294Y512D01*
X292Y512D01*
X292Y510D01*
X290Y510D01*
X290Y508D01*
X288Y508D01*
X288Y506D01*
X286Y506D01*
X286Y504D01*
X284Y504D01*
X284Y502D01*
X282Y502D01*
X282Y500D01*
X280Y500D01*
X280Y498D01*
X278Y498D01*
X278Y496D01*
X276Y496D01*
X276Y494D01*
X274Y494D01*
X274Y492D01*
X272Y492D01*
X272Y490D01*
X270Y490D01*
X270Y488D01*
X268Y488D01*
X268Y486D01*
X266Y486D01*
X266Y484D01*
X264Y484D01*
X264Y482D01*
X262Y482D01*
X262Y480D01*
X260Y480D01*
X260Y478D01*
X258Y478D01*
X258Y476D01*
X256Y476D01*
X256Y474D01*
X254Y474D01*
X254Y472D01*
X252Y472D01*
X252Y470D01*
X250Y470D01*
X250Y468D01*
X248Y468D01*
X248Y466D01*
X246Y466D01*
X246Y464D01*
X244Y464D01*
X244Y462D01*
X242Y462D01*
X242Y460D01*
X240Y460D01*
X240Y458D01*
X238Y458D01*
X238Y456D01*
X236Y456D01*
X236Y454D01*
X234Y454D01*
X234Y452D01*
X232Y452D01*
X232Y450D01*
X230Y450D01*
X230Y448D01*
X228Y448D01*
X228Y446D01*
X226Y446D01*
X226Y444D01*
X224Y444D01*
X224Y442D01*
X222Y442D01*
X222Y440D01*
X220Y440D01*
X220Y438D01*
X218Y438D01*
X218Y436D01*
X216Y436D01*
X216Y434D01*
X214Y434D01*
X214Y432D01*
X212Y432D01*
X212Y430D01*
X210Y430D01*
X210Y428D01*
X208Y428D01*
X208Y426D01*
X206Y426D01*
X206Y424D01*
X204Y424D01*
X204Y422D01*
X202Y422D01*
X202Y420D01*
X200Y420D01*
X200Y418D01*
X198Y418D01*
X198Y416D01*
X196Y416D01*
X196Y414D01*
X194Y414D01*
X194Y412D01*
X192Y412D01*
X192Y410D01*
X190Y410D01*
X190Y408D01*
X188Y408D01*
X188Y406D01*
X186Y406D01*
X186Y404D01*
X184Y404D01*
X184Y402D01*
X182Y402D01*
X182Y400D01*
X180Y400D01*
X180Y398D01*
X178Y398D01*
X178Y396D01*
X176Y396D01*
X176Y394D01*
X174Y394D01*
X174Y392D01*
X172Y392D01*
X172Y390D01*
X170Y390D01*
X170Y388D01*
X168Y388D01*
X168Y386D01*
X166Y386D01*
X166Y384D01*
X164Y384D01*
X164Y382D01*
X162Y382D01*
X162Y380D01*
X160Y380D01*
X160Y378D01*
X158Y378D01*
X158Y376D01*
X156Y376D01*
X156Y374D01*
X154Y374D01*
X154Y372D01*
X152Y372D01*
X152Y370D01*
X150Y370D01*
X150Y368D01*
X148Y368D01*
X148Y366D01*
X146Y366D01*
X146Y364D01*
X144Y364D01*
X144Y362D01*
X142Y362D01*
X142Y360D01*
X140Y360D01*
X140Y340D01*
X164Y340D01*
X164Y342D01*
X166Y342D01*
X166Y344D01*
X168Y344D01*
X168Y346D01*
X170Y346D01*
X170Y348D01*
X172Y348D01*
X172Y350D01*
X174Y350D01*
X174Y352D01*
X176Y352D01*
X176Y354D01*
X178Y354D01*
X178Y356D01*
X180Y356D01*
X180Y358D01*
X182Y358D01*
X182Y360D01*
X184Y360D01*
X184Y362D01*
X186Y362D01*
X186Y364D01*
X188Y364D01*
X188Y366D01*
X190Y366D01*
X190Y368D01*
X192Y368D01*
X192Y370D01*
X194Y370D01*
X194Y372D01*
X196Y372D01*
X196Y374D01*
X198Y374D01*
X198Y376D01*
X200Y376D01*
X200Y378D01*
X202Y378D01*
X202Y380D01*
X204Y380D01*
X204Y382D01*
X206Y382D01*
X206Y384D01*
X208Y384D01*
X208Y386D01*
X210Y386D01*
X210Y388D01*
X212Y388D01*
X212Y390D01*
X214Y390D01*
X214Y392D01*
X216Y392D01*
X216Y394D01*
X218Y394D01*
X218Y396D01*
X220Y396D01*
X220Y398D01*
X222Y398D01*
X222Y400D01*
X224Y400D01*
X224Y402D01*
X226Y402D01*
X226Y404D01*
X228Y404D01*
X228Y406D01*
X232Y406D01*
X232Y408D01*
X334Y408D01*
X334Y410D01*
X336Y410D01*
X336Y412D01*
X338Y412D01*
X338Y414D01*
X340Y414D01*
X340Y416D01*
X342Y416D01*
X342Y418D01*
X344Y418D01*
X344Y420D01*
X346Y420D01*
X346Y422D01*
X348Y422D01*
X348Y424D01*
X350Y424D01*
X350Y426D01*
X352Y426D01*
X352Y430D01*
X354Y430D01*
X354Y432D01*
X356Y432D01*
X356Y434D01*
X358Y434D01*
X358Y436D01*
X360Y436D01*
X360Y438D01*
X362Y438D01*
X362Y440D01*
X364Y440D01*
X364Y442D01*
X366Y442D01*
X366Y444D01*
X368Y444D01*
X368Y446D01*
X370Y446D01*
X370Y448D01*
X372Y448D01*
X372Y450D01*
X374Y450D01*
X374Y452D01*
X376Y452D01*
X376Y454D01*
X378Y454D01*
X378Y456D01*
X380Y456D01*
X380Y458D01*
X382Y458D01*
X382Y460D01*
X384Y460D01*
X384Y462D01*
X386Y462D01*
X386Y464D01*
X388Y464D01*
X388Y466D01*
X390Y466D01*
X390Y468D01*
X392Y468D01*
X392Y470D01*
X394Y470D01*
X394Y472D01*
X396Y472D01*
X396Y476D01*
X398Y476D01*
X398Y478D01*
X400Y478D01*
X400Y480D01*
X402Y480D01*
X402Y482D01*
X404Y482D01*
X404Y484D01*
X406Y484D01*
X406Y486D01*
X408Y486D01*
X408Y488D01*
X410Y488D01*
X410Y490D01*
X412Y490D01*
X412Y492D01*
X414Y492D01*
X414Y494D01*
X416Y494D01*
X416Y496D01*
X418Y496D01*
X418Y498D01*
X420Y498D01*
X420Y548D01*
X416Y548D01*
X416Y550D01*
X414Y550D01*
X414Y552D01*
X410Y552D01*
X410Y554D01*
X408Y554D01*
X408Y556D01*
X406Y556D01*
X406Y558D01*
X404Y558D01*
X404Y562D01*
X402Y562D01*
X402Y564D01*
X400Y564D01*
X400Y568D01*
X398Y568D01*
X398Y574D01*
X396Y574D01*
X396Y582D01*
X394Y582D01*
X394Y596D01*
X396Y596D01*
X396Y604D01*
X398Y604D01*
X398Y608D01*
X400Y608D01*
X400Y612D01*
X402Y612D01*
X402Y616D01*
X404Y616D01*
X404Y618D01*
X406Y618D01*
X406Y620D01*
X408Y620D01*
X408Y622D01*
X410Y622D01*
X410Y624D01*
X412Y624D01*
X412Y626D01*
X414Y626D01*
X414Y628D01*
X418Y628D01*
X418Y630D01*
X420Y630D01*
X420Y790D01*
X422Y790D01*
X422Y796D01*
X424Y796D01*
X424Y800D01*
X426Y800D01*
X426Y802D01*
X428Y802D01*
X428Y804D01*
X430Y804D01*
X430Y806D01*
X432Y806D01*
X432Y808D01*
X434Y808D01*
X434Y810D01*
X436Y810D01*
X436Y812D01*
X438Y812D01*
X438Y814D01*
X440Y814D01*
X440Y816D01*
X442Y816D01*
X442Y818D01*
X444Y818D01*
X444Y820D01*
X446Y820D01*
X446Y824D01*
X448Y824D01*
X448Y826D01*
X450Y826D01*
X450Y828D01*
X452Y828D01*
X452Y830D01*
X454Y830D01*
X454Y832D01*
X456Y832D01*
X456Y834D01*
X458Y834D01*
X458Y836D01*
X460Y836D01*
X460Y838D01*
X462Y838D01*
X462Y840D01*
X464Y840D01*
X464Y842D01*
X466Y842D01*
X466Y844D01*
X468Y844D01*
X468Y846D01*
X470Y846D01*
X470Y848D01*
X472Y848D01*
X472Y850D01*
X474Y850D01*
X474Y852D01*
X476Y852D01*
X476Y854D01*
X478Y854D01*
X478Y856D01*
X480Y856D01*
X480Y858D01*
X482Y858D01*
X482Y860D01*
X484Y860D01*
X484Y862D01*
X486Y862D01*
X486Y864D01*
X488Y864D01*
X488Y866D01*
X490Y866D01*
X490Y868D01*
X492Y868D01*
X492Y870D01*
X494Y870D01*
X494Y872D01*
X496Y872D01*
X496Y874D01*
X498Y874D01*
X498Y878D01*
X500Y878D01*
X500Y880D01*
X502Y880D01*
X502Y882D01*
X504Y882D01*
X504Y884D01*
X506Y884D01*
X506Y886D01*
X508Y886D01*
X508Y888D01*
X510Y888D01*
X510Y890D01*
X512Y890D01*
X512Y892D01*
X514Y892D01*
X514Y894D01*
X516Y894D01*
X516Y896D01*
X518Y896D01*
X518Y898D01*
X520Y898D01*
X520Y900D01*
X522Y900D01*
X522Y902D01*
X524Y902D01*
X524Y904D01*
X526Y904D01*
X526Y906D01*
X528Y906D01*
X528Y908D01*
X532Y908D01*
X532Y910D01*
X540Y910D01*
X540Y912D01*
X496Y912D01*
G37*
D02*
G36*
X550Y868D02*
X550Y866D01*
X548Y866D01*
X548Y864D01*
X546Y864D01*
X546Y862D01*
X544Y862D01*
X544Y860D01*
X542Y860D01*
X542Y858D01*
X540Y858D01*
X540Y856D01*
X538Y856D01*
X538Y836D01*
X550Y836D01*
X550Y834D01*
X558Y834D01*
X558Y832D01*
X562Y832D01*
X562Y830D01*
X566Y830D01*
X566Y828D01*
X570Y828D01*
X570Y826D01*
X572Y826D01*
X572Y824D01*
X574Y824D01*
X574Y822D01*
X576Y822D01*
X576Y820D01*
X578Y820D01*
X578Y818D01*
X580Y818D01*
X580Y816D01*
X582Y816D01*
X582Y812D01*
X584Y812D01*
X584Y808D01*
X586Y808D01*
X586Y802D01*
X588Y802D01*
X588Y794D01*
X590Y794D01*
X590Y784D01*
X588Y784D01*
X588Y774D01*
X586Y774D01*
X586Y768D01*
X584Y768D01*
X584Y766D01*
X582Y766D01*
X582Y762D01*
X580Y762D01*
X580Y760D01*
X578Y760D01*
X578Y756D01*
X576Y756D01*
X576Y754D01*
X574Y754D01*
X574Y752D01*
X570Y752D01*
X570Y750D01*
X568Y750D01*
X568Y748D01*
X564Y748D01*
X564Y736D01*
X650Y736D01*
X650Y734D01*
X658Y734D01*
X658Y732D01*
X662Y732D01*
X662Y730D01*
X666Y730D01*
X666Y728D01*
X670Y728D01*
X670Y726D01*
X672Y726D01*
X672Y724D01*
X674Y724D01*
X674Y722D01*
X676Y722D01*
X676Y720D01*
X678Y720D01*
X678Y718D01*
X680Y718D01*
X680Y716D01*
X682Y716D01*
X682Y712D01*
X684Y712D01*
X684Y708D01*
X686Y708D01*
X686Y702D01*
X688Y702D01*
X688Y694D01*
X690Y694D01*
X690Y684D01*
X688Y684D01*
X688Y674D01*
X686Y674D01*
X686Y668D01*
X684Y668D01*
X684Y666D01*
X682Y666D01*
X682Y662D01*
X680Y662D01*
X680Y660D01*
X678Y660D01*
X678Y656D01*
X676Y656D01*
X676Y654D01*
X674Y654D01*
X674Y652D01*
X670Y652D01*
X670Y650D01*
X668Y650D01*
X668Y648D01*
X666Y648D01*
X666Y628D01*
X670Y628D01*
X670Y626D01*
X672Y626D01*
X672Y624D01*
X674Y624D01*
X674Y622D01*
X676Y622D01*
X676Y620D01*
X678Y620D01*
X678Y618D01*
X680Y618D01*
X680Y616D01*
X682Y616D01*
X682Y612D01*
X702Y612D01*
X702Y616D01*
X704Y616D01*
X704Y618D01*
X706Y618D01*
X706Y620D01*
X708Y620D01*
X708Y622D01*
X710Y622D01*
X710Y624D01*
X712Y624D01*
X712Y626D01*
X714Y626D01*
X714Y628D01*
X718Y628D01*
X718Y630D01*
X720Y630D01*
X720Y808D01*
X722Y808D01*
X722Y868D01*
X550Y868D01*
G37*
D02*
G36*
X564Y736D02*
X564Y708D01*
X566Y708D01*
X566Y670D01*
X564Y670D01*
X564Y630D01*
X566Y630D01*
X566Y628D01*
X570Y628D01*
X570Y626D01*
X572Y626D01*
X572Y624D01*
X574Y624D01*
X574Y622D01*
X576Y622D01*
X576Y620D01*
X578Y620D01*
X578Y618D01*
X580Y618D01*
X580Y616D01*
X582Y616D01*
X582Y612D01*
X602Y612D01*
X602Y616D01*
X604Y616D01*
X604Y618D01*
X606Y618D01*
X606Y620D01*
X608Y620D01*
X608Y622D01*
X610Y622D01*
X610Y624D01*
X612Y624D01*
X612Y626D01*
X614Y626D01*
X614Y628D01*
X618Y628D01*
X618Y648D01*
X616Y648D01*
X616Y650D01*
X614Y650D01*
X614Y652D01*
X610Y652D01*
X610Y654D01*
X608Y654D01*
X608Y656D01*
X606Y656D01*
X606Y658D01*
X604Y658D01*
X604Y662D01*
X602Y662D01*
X602Y664D01*
X600Y664D01*
X600Y668D01*
X598Y668D01*
X598Y674D01*
X596Y674D01*
X596Y682D01*
X594Y682D01*
X594Y696D01*
X596Y696D01*
X596Y704D01*
X598Y704D01*
X598Y708D01*
X600Y708D01*
X600Y712D01*
X602Y712D01*
X602Y716D01*
X604Y716D01*
X604Y718D01*
X606Y718D01*
X606Y720D01*
X608Y720D01*
X608Y722D01*
X610Y722D01*
X610Y724D01*
X612Y724D01*
X612Y726D01*
X614Y726D01*
X614Y728D01*
X618Y728D01*
X618Y730D01*
X622Y730D01*
X622Y732D01*
X626Y732D01*
X626Y734D01*
X632Y734D01*
X632Y736D01*
X564Y736D01*
G37*
D02*
G36*
X766Y868D02*
X766Y836D01*
X850Y836D01*
X850Y834D01*
X858Y834D01*
X858Y832D01*
X862Y832D01*
X862Y830D01*
X866Y830D01*
X866Y828D01*
X870Y828D01*
X870Y826D01*
X872Y826D01*
X872Y824D01*
X874Y824D01*
X874Y822D01*
X876Y822D01*
X876Y820D01*
X878Y820D01*
X878Y818D01*
X880Y818D01*
X880Y816D01*
X882Y816D01*
X882Y812D01*
X884Y812D01*
X884Y808D01*
X886Y808D01*
X886Y802D01*
X888Y802D01*
X888Y794D01*
X890Y794D01*
X890Y784D01*
X888Y784D01*
X888Y774D01*
X886Y774D01*
X886Y768D01*
X884Y768D01*
X884Y766D01*
X882Y766D01*
X882Y762D01*
X880Y762D01*
X880Y760D01*
X878Y760D01*
X878Y756D01*
X876Y756D01*
X876Y754D01*
X874Y754D01*
X874Y752D01*
X870Y752D01*
X870Y750D01*
X868Y750D01*
X868Y748D01*
X864Y748D01*
X864Y736D01*
X950Y736D01*
X950Y734D01*
X958Y734D01*
X958Y732D01*
X962Y732D01*
X962Y730D01*
X966Y730D01*
X966Y728D01*
X970Y728D01*
X970Y726D01*
X972Y726D01*
X972Y724D01*
X974Y724D01*
X974Y722D01*
X976Y722D01*
X976Y720D01*
X978Y720D01*
X978Y718D01*
X980Y718D01*
X980Y716D01*
X982Y716D01*
X982Y712D01*
X984Y712D01*
X984Y708D01*
X986Y708D01*
X986Y702D01*
X988Y702D01*
X988Y694D01*
X990Y694D01*
X990Y684D01*
X988Y684D01*
X988Y674D01*
X986Y674D01*
X986Y668D01*
X984Y668D01*
X984Y666D01*
X982Y666D01*
X982Y662D01*
X980Y662D01*
X980Y660D01*
X978Y660D01*
X978Y656D01*
X976Y656D01*
X976Y654D01*
X974Y654D01*
X974Y652D01*
X970Y652D01*
X970Y650D01*
X968Y650D01*
X968Y648D01*
X966Y648D01*
X966Y628D01*
X970Y628D01*
X970Y626D01*
X972Y626D01*
X972Y624D01*
X974Y624D01*
X974Y622D01*
X976Y622D01*
X976Y620D01*
X978Y620D01*
X978Y618D01*
X980Y618D01*
X980Y616D01*
X982Y616D01*
X982Y612D01*
X1002Y612D01*
X1002Y616D01*
X1004Y616D01*
X1004Y618D01*
X1006Y618D01*
X1006Y620D01*
X1008Y620D01*
X1008Y622D01*
X1010Y622D01*
X1010Y624D01*
X1012Y624D01*
X1012Y626D01*
X1014Y626D01*
X1014Y628D01*
X1018Y628D01*
X1018Y630D01*
X1020Y630D01*
X1020Y868D01*
X766Y868D01*
G37*
D02*
G36*
X766Y836D02*
X766Y806D01*
X764Y806D01*
X764Y630D01*
X766Y630D01*
X766Y628D01*
X770Y628D01*
X770Y626D01*
X772Y626D01*
X772Y624D01*
X774Y624D01*
X774Y622D01*
X776Y622D01*
X776Y620D01*
X778Y620D01*
X778Y618D01*
X780Y618D01*
X780Y616D01*
X782Y616D01*
X782Y612D01*
X802Y612D01*
X802Y616D01*
X804Y616D01*
X804Y618D01*
X806Y618D01*
X806Y620D01*
X808Y620D01*
X808Y622D01*
X810Y622D01*
X810Y624D01*
X812Y624D01*
X812Y626D01*
X814Y626D01*
X814Y628D01*
X818Y628D01*
X818Y630D01*
X820Y630D01*
X820Y748D01*
X816Y748D01*
X816Y750D01*
X814Y750D01*
X814Y752D01*
X810Y752D01*
X810Y754D01*
X808Y754D01*
X808Y756D01*
X806Y756D01*
X806Y758D01*
X804Y758D01*
X804Y762D01*
X802Y762D01*
X802Y764D01*
X800Y764D01*
X800Y768D01*
X798Y768D01*
X798Y774D01*
X796Y774D01*
X796Y782D01*
X794Y782D01*
X794Y796D01*
X796Y796D01*
X796Y804D01*
X798Y804D01*
X798Y808D01*
X800Y808D01*
X800Y812D01*
X802Y812D01*
X802Y816D01*
X804Y816D01*
X804Y818D01*
X806Y818D01*
X806Y820D01*
X808Y820D01*
X808Y822D01*
X810Y822D01*
X810Y824D01*
X812Y824D01*
X812Y826D01*
X814Y826D01*
X814Y828D01*
X818Y828D01*
X818Y830D01*
X822Y830D01*
X822Y832D01*
X826Y832D01*
X826Y834D01*
X832Y834D01*
X832Y836D01*
X766Y836D01*
G37*
D02*
G36*
X864Y736D02*
X864Y630D01*
X866Y630D01*
X866Y628D01*
X870Y628D01*
X870Y626D01*
X872Y626D01*
X872Y624D01*
X874Y624D01*
X874Y622D01*
X876Y622D01*
X876Y620D01*
X878Y620D01*
X878Y618D01*
X880Y618D01*
X880Y616D01*
X882Y616D01*
X882Y612D01*
X902Y612D01*
X902Y616D01*
X904Y616D01*
X904Y618D01*
X906Y618D01*
X906Y620D01*
X908Y620D01*
X908Y622D01*
X910Y622D01*
X910Y624D01*
X912Y624D01*
X912Y626D01*
X914Y626D01*
X914Y628D01*
X918Y628D01*
X918Y648D01*
X916Y648D01*
X916Y650D01*
X914Y650D01*
X914Y652D01*
X910Y652D01*
X910Y654D01*
X908Y654D01*
X908Y656D01*
X906Y656D01*
X906Y658D01*
X904Y658D01*
X904Y662D01*
X902Y662D01*
X902Y664D01*
X900Y664D01*
X900Y668D01*
X898Y668D01*
X898Y674D01*
X896Y674D01*
X896Y682D01*
X894Y682D01*
X894Y696D01*
X896Y696D01*
X896Y704D01*
X898Y704D01*
X898Y708D01*
X900Y708D01*
X900Y712D01*
X902Y712D01*
X902Y716D01*
X904Y716D01*
X904Y718D01*
X906Y718D01*
X906Y720D01*
X908Y720D01*
X908Y722D01*
X910Y722D01*
X910Y724D01*
X912Y724D01*
X912Y726D01*
X914Y726D01*
X914Y728D01*
X918Y728D01*
X918Y730D01*
X922Y730D01*
X922Y732D01*
X926Y732D01*
X926Y734D01*
X932Y734D01*
X932Y736D01*
X864Y736D01*
G37*
D02*
G36*
X474Y788D02*
X474Y786D01*
X472Y786D01*
X472Y784D01*
X470Y784D01*
X470Y782D01*
X468Y782D01*
X468Y780D01*
X466Y780D01*
X466Y778D01*
X464Y778D01*
X464Y630D01*
X466Y630D01*
X466Y628D01*
X470Y628D01*
X470Y626D01*
X472Y626D01*
X472Y624D01*
X474Y624D01*
X474Y622D01*
X476Y622D01*
X476Y620D01*
X478Y620D01*
X478Y618D01*
X480Y618D01*
X480Y616D01*
X482Y616D01*
X482Y612D01*
X502Y612D01*
X502Y616D01*
X504Y616D01*
X504Y618D01*
X506Y618D01*
X506Y620D01*
X508Y620D01*
X508Y622D01*
X510Y622D01*
X510Y624D01*
X512Y624D01*
X512Y626D01*
X514Y626D01*
X514Y628D01*
X518Y628D01*
X518Y630D01*
X520Y630D01*
X520Y672D01*
X522Y672D01*
X522Y706D01*
X520Y706D01*
X520Y748D01*
X516Y748D01*
X516Y750D01*
X514Y750D01*
X514Y752D01*
X510Y752D01*
X510Y754D01*
X508Y754D01*
X508Y756D01*
X506Y756D01*
X506Y758D01*
X504Y758D01*
X504Y762D01*
X502Y762D01*
X502Y764D01*
X500Y764D01*
X500Y768D01*
X498Y768D01*
X498Y774D01*
X496Y774D01*
X496Y782D01*
X494Y782D01*
X494Y788D01*
X474Y788D01*
G37*
D02*
G36*
X482Y564D02*
X482Y562D01*
X480Y562D01*
X480Y560D01*
X478Y560D01*
X478Y556D01*
X476Y556D01*
X476Y554D01*
X474Y554D01*
X474Y552D01*
X470Y552D01*
X470Y550D01*
X468Y550D01*
X468Y548D01*
X464Y548D01*
X464Y542D01*
X530Y542D01*
X530Y544D01*
X522Y544D01*
X522Y546D01*
X520Y546D01*
X520Y548D01*
X516Y548D01*
X516Y550D01*
X514Y550D01*
X514Y552D01*
X510Y552D01*
X510Y554D01*
X508Y554D01*
X508Y556D01*
X506Y556D01*
X506Y558D01*
X504Y558D01*
X504Y562D01*
X502Y562D01*
X502Y564D01*
X482Y564D01*
G37*
D02*
G36*
X582Y564D02*
X582Y562D01*
X580Y562D01*
X580Y560D01*
X578Y560D01*
X578Y556D01*
X576Y556D01*
X576Y554D01*
X574Y554D01*
X574Y552D01*
X570Y552D01*
X570Y550D01*
X568Y550D01*
X568Y548D01*
X564Y548D01*
X564Y546D01*
X560Y546D01*
X560Y544D01*
X554Y544D01*
X554Y542D01*
X620Y542D01*
X620Y548D01*
X616Y548D01*
X616Y550D01*
X614Y550D01*
X614Y552D01*
X610Y552D01*
X610Y554D01*
X608Y554D01*
X608Y556D01*
X606Y556D01*
X606Y558D01*
X604Y558D01*
X604Y562D01*
X602Y562D01*
X602Y564D01*
X582Y564D01*
G37*
D02*
G36*
X464Y542D02*
X464Y540D01*
X620Y540D01*
X620Y542D01*
X464Y542D01*
G37*
D02*
G36*
X464Y542D02*
X464Y540D01*
X620Y540D01*
X620Y542D01*
X464Y542D01*
G37*
D02*
G36*
X464Y540D02*
X464Y490D01*
X462Y490D01*
X462Y480D01*
X460Y480D01*
X460Y476D01*
X458Y476D01*
X458Y474D01*
X456Y474D01*
X456Y472D01*
X454Y472D01*
X454Y470D01*
X452Y470D01*
X452Y468D01*
X450Y468D01*
X450Y466D01*
X448Y466D01*
X448Y464D01*
X446Y464D01*
X446Y462D01*
X444Y462D01*
X444Y460D01*
X442Y460D01*
X442Y458D01*
X440Y458D01*
X440Y456D01*
X438Y456D01*
X438Y454D01*
X436Y454D01*
X436Y452D01*
X434Y452D01*
X434Y448D01*
X432Y448D01*
X432Y446D01*
X430Y446D01*
X430Y444D01*
X428Y444D01*
X428Y442D01*
X426Y442D01*
X426Y440D01*
X424Y440D01*
X424Y438D01*
X422Y438D01*
X422Y436D01*
X420Y436D01*
X420Y434D01*
X418Y434D01*
X418Y432D01*
X416Y432D01*
X416Y430D01*
X414Y430D01*
X414Y428D01*
X412Y428D01*
X412Y426D01*
X410Y426D01*
X410Y424D01*
X408Y424D01*
X408Y422D01*
X406Y422D01*
X406Y420D01*
X404Y420D01*
X404Y418D01*
X402Y418D01*
X402Y416D01*
X400Y416D01*
X400Y414D01*
X398Y414D01*
X398Y412D01*
X396Y412D01*
X396Y410D01*
X394Y410D01*
X394Y408D01*
X392Y408D01*
X392Y406D01*
X390Y406D01*
X390Y404D01*
X388Y404D01*
X388Y400D01*
X386Y400D01*
X386Y398D01*
X384Y398D01*
X384Y396D01*
X382Y396D01*
X382Y394D01*
X380Y394D01*
X380Y392D01*
X378Y392D01*
X378Y390D01*
X376Y390D01*
X376Y388D01*
X374Y388D01*
X374Y386D01*
X372Y386D01*
X372Y384D01*
X370Y384D01*
X370Y382D01*
X368Y382D01*
X368Y380D01*
X366Y380D01*
X366Y378D01*
X364Y378D01*
X364Y376D01*
X362Y376D01*
X362Y374D01*
X360Y374D01*
X360Y372D01*
X358Y372D01*
X358Y370D01*
X356Y370D01*
X356Y368D01*
X352Y368D01*
X352Y366D01*
X344Y366D01*
X344Y364D01*
X248Y364D01*
X248Y362D01*
X246Y362D01*
X246Y360D01*
X244Y360D01*
X244Y340D01*
X392Y340D01*
X392Y310D01*
X432Y310D01*
X432Y312D01*
X434Y312D01*
X434Y314D01*
X436Y314D01*
X436Y316D01*
X438Y316D01*
X438Y318D01*
X440Y318D01*
X440Y320D01*
X442Y320D01*
X442Y322D01*
X444Y322D01*
X444Y324D01*
X446Y324D01*
X446Y326D01*
X448Y326D01*
X448Y328D01*
X450Y328D01*
X450Y330D01*
X452Y330D01*
X452Y332D01*
X454Y332D01*
X454Y334D01*
X456Y334D01*
X456Y336D01*
X458Y336D01*
X458Y338D01*
X460Y338D01*
X460Y340D01*
X462Y340D01*
X462Y342D01*
X464Y342D01*
X464Y344D01*
X466Y344D01*
X466Y346D01*
X468Y346D01*
X468Y348D01*
X470Y348D01*
X470Y350D01*
X472Y350D01*
X472Y352D01*
X474Y352D01*
X474Y354D01*
X476Y354D01*
X476Y356D01*
X478Y356D01*
X478Y358D01*
X480Y358D01*
X480Y360D01*
X482Y360D01*
X482Y362D01*
X484Y362D01*
X484Y364D01*
X486Y364D01*
X486Y366D01*
X488Y366D01*
X488Y368D01*
X490Y368D01*
X490Y370D01*
X492Y370D01*
X492Y372D01*
X494Y372D01*
X494Y374D01*
X496Y374D01*
X496Y376D01*
X498Y376D01*
X498Y378D01*
X500Y378D01*
X500Y380D01*
X502Y380D01*
X502Y382D01*
X504Y382D01*
X504Y384D01*
X506Y384D01*
X506Y386D01*
X508Y386D01*
X508Y388D01*
X510Y388D01*
X510Y390D01*
X512Y390D01*
X512Y392D01*
X514Y392D01*
X514Y394D01*
X516Y394D01*
X516Y396D01*
X518Y396D01*
X518Y398D01*
X520Y398D01*
X520Y400D01*
X522Y400D01*
X522Y402D01*
X524Y402D01*
X524Y404D01*
X526Y404D01*
X526Y406D01*
X528Y406D01*
X528Y408D01*
X530Y408D01*
X530Y410D01*
X532Y410D01*
X532Y412D01*
X534Y412D01*
X534Y414D01*
X536Y414D01*
X536Y416D01*
X538Y416D01*
X538Y418D01*
X540Y418D01*
X540Y420D01*
X542Y420D01*
X542Y422D01*
X544Y422D01*
X544Y424D01*
X546Y424D01*
X546Y426D01*
X548Y426D01*
X548Y428D01*
X550Y428D01*
X550Y430D01*
X552Y430D01*
X552Y432D01*
X554Y432D01*
X554Y434D01*
X556Y434D01*
X556Y436D01*
X558Y436D01*
X558Y438D01*
X560Y438D01*
X560Y440D01*
X562Y440D01*
X562Y442D01*
X564Y442D01*
X564Y444D01*
X566Y444D01*
X566Y446D01*
X568Y446D01*
X568Y448D01*
X570Y448D01*
X570Y450D01*
X572Y450D01*
X572Y452D01*
X574Y452D01*
X574Y454D01*
X576Y454D01*
X576Y456D01*
X578Y456D01*
X578Y458D01*
X580Y458D01*
X580Y460D01*
X582Y460D01*
X582Y462D01*
X584Y462D01*
X584Y464D01*
X586Y464D01*
X586Y466D01*
X588Y466D01*
X588Y468D01*
X590Y468D01*
X590Y470D01*
X592Y470D01*
X592Y472D01*
X594Y472D01*
X594Y474D01*
X596Y474D01*
X596Y476D01*
X598Y476D01*
X598Y478D01*
X600Y478D01*
X600Y480D01*
X602Y480D01*
X602Y482D01*
X604Y482D01*
X604Y484D01*
X606Y484D01*
X606Y486D01*
X608Y486D01*
X608Y488D01*
X610Y488D01*
X610Y490D01*
X612Y490D01*
X612Y492D01*
X614Y492D01*
X614Y494D01*
X616Y494D01*
X616Y496D01*
X618Y496D01*
X618Y498D01*
X620Y498D01*
X620Y540D01*
X464Y540D01*
G37*
D02*
G36*
X248Y340D02*
X248Y338D01*
X258Y338D01*
X258Y336D01*
X262Y336D01*
X262Y334D01*
X266Y334D01*
X266Y332D01*
X270Y332D01*
X270Y330D01*
X290Y330D01*
X290Y338D01*
X292Y338D01*
X292Y340D01*
X248Y340D01*
G37*
D02*
G36*
X682Y564D02*
X682Y562D01*
X680Y562D01*
X680Y560D01*
X678Y560D01*
X678Y556D01*
X676Y556D01*
X676Y554D01*
X674Y554D01*
X674Y552D01*
X670Y552D01*
X670Y550D01*
X668Y550D01*
X668Y548D01*
X664Y548D01*
X664Y486D01*
X662Y486D01*
X662Y480D01*
X660Y480D01*
X660Y476D01*
X658Y476D01*
X658Y474D01*
X656Y474D01*
X656Y472D01*
X654Y472D01*
X654Y470D01*
X652Y470D01*
X652Y468D01*
X650Y468D01*
X650Y466D01*
X648Y466D01*
X648Y464D01*
X646Y464D01*
X646Y462D01*
X644Y462D01*
X644Y460D01*
X642Y460D01*
X642Y458D01*
X640Y458D01*
X640Y456D01*
X638Y456D01*
X638Y454D01*
X636Y454D01*
X636Y452D01*
X634Y452D01*
X634Y450D01*
X632Y450D01*
X632Y448D01*
X630Y448D01*
X630Y446D01*
X628Y446D01*
X628Y444D01*
X626Y444D01*
X626Y442D01*
X624Y442D01*
X624Y440D01*
X622Y440D01*
X622Y438D01*
X620Y438D01*
X620Y436D01*
X618Y436D01*
X618Y434D01*
X616Y434D01*
X616Y432D01*
X614Y432D01*
X614Y430D01*
X612Y430D01*
X612Y428D01*
X610Y428D01*
X610Y426D01*
X608Y426D01*
X608Y424D01*
X606Y424D01*
X606Y422D01*
X604Y422D01*
X604Y420D01*
X602Y420D01*
X602Y418D01*
X600Y418D01*
X600Y416D01*
X598Y416D01*
X598Y414D01*
X596Y414D01*
X596Y412D01*
X594Y412D01*
X594Y410D01*
X592Y410D01*
X592Y408D01*
X590Y408D01*
X590Y406D01*
X588Y406D01*
X588Y404D01*
X586Y404D01*
X586Y402D01*
X584Y402D01*
X584Y400D01*
X582Y400D01*
X582Y398D01*
X580Y398D01*
X580Y396D01*
X578Y396D01*
X578Y394D01*
X576Y394D01*
X576Y392D01*
X574Y392D01*
X574Y390D01*
X572Y390D01*
X572Y388D01*
X570Y388D01*
X570Y386D01*
X568Y386D01*
X568Y384D01*
X566Y384D01*
X566Y382D01*
X564Y382D01*
X564Y380D01*
X562Y380D01*
X562Y378D01*
X560Y378D01*
X560Y376D01*
X558Y376D01*
X558Y374D01*
X556Y374D01*
X556Y372D01*
X554Y372D01*
X554Y370D01*
X552Y370D01*
X552Y368D01*
X550Y368D01*
X550Y366D01*
X548Y366D01*
X548Y364D01*
X546Y364D01*
X546Y362D01*
X544Y362D01*
X544Y360D01*
X542Y360D01*
X542Y358D01*
X540Y358D01*
X540Y356D01*
X538Y356D01*
X538Y354D01*
X536Y354D01*
X536Y352D01*
X534Y352D01*
X534Y350D01*
X532Y350D01*
X532Y348D01*
X530Y348D01*
X530Y346D01*
X528Y346D01*
X528Y344D01*
X526Y344D01*
X526Y342D01*
X524Y342D01*
X524Y340D01*
X522Y340D01*
X522Y338D01*
X520Y338D01*
X520Y336D01*
X518Y336D01*
X518Y334D01*
X516Y334D01*
X516Y332D01*
X514Y332D01*
X514Y330D01*
X512Y330D01*
X512Y328D01*
X510Y328D01*
X510Y326D01*
X508Y326D01*
X508Y324D01*
X506Y324D01*
X506Y322D01*
X504Y322D01*
X504Y320D01*
X502Y320D01*
X502Y318D01*
X500Y318D01*
X500Y316D01*
X498Y316D01*
X498Y314D01*
X496Y314D01*
X496Y312D01*
X494Y312D01*
X494Y310D01*
X492Y310D01*
X492Y308D01*
X490Y308D01*
X490Y306D01*
X488Y306D01*
X488Y304D01*
X486Y304D01*
X486Y302D01*
X484Y302D01*
X484Y300D01*
X482Y300D01*
X482Y298D01*
X480Y298D01*
X480Y296D01*
X478Y296D01*
X478Y294D01*
X476Y294D01*
X476Y292D01*
X474Y292D01*
X474Y290D01*
X472Y290D01*
X472Y288D01*
X470Y288D01*
X470Y286D01*
X468Y286D01*
X468Y284D01*
X466Y284D01*
X466Y282D01*
X464Y282D01*
X464Y280D01*
X462Y280D01*
X462Y278D01*
X460Y278D01*
X460Y276D01*
X458Y276D01*
X458Y274D01*
X456Y274D01*
X456Y272D01*
X454Y272D01*
X454Y270D01*
X450Y270D01*
X450Y268D01*
X442Y268D01*
X442Y266D01*
X392Y266D01*
X392Y238D01*
X730Y238D01*
X730Y240D01*
X724Y240D01*
X724Y242D01*
X720Y242D01*
X720Y244D01*
X716Y244D01*
X716Y246D01*
X712Y246D01*
X712Y248D01*
X710Y248D01*
X710Y250D01*
X708Y250D01*
X708Y252D01*
X706Y252D01*
X706Y254D01*
X704Y254D01*
X704Y256D01*
X702Y256D01*
X702Y258D01*
X700Y258D01*
X700Y262D01*
X698Y262D01*
X698Y264D01*
X696Y264D01*
X696Y268D01*
X694Y268D01*
X694Y274D01*
X692Y274D01*
X692Y286D01*
X690Y286D01*
X690Y292D01*
X692Y292D01*
X692Y302D01*
X694Y302D01*
X694Y308D01*
X696Y308D01*
X696Y312D01*
X698Y312D01*
X698Y316D01*
X700Y316D01*
X700Y318D01*
X702Y318D01*
X702Y322D01*
X704Y322D01*
X704Y324D01*
X706Y324D01*
X706Y326D01*
X708Y326D01*
X708Y328D01*
X712Y328D01*
X712Y330D01*
X714Y330D01*
X714Y332D01*
X718Y332D01*
X718Y334D01*
X720Y334D01*
X720Y548D01*
X716Y548D01*
X716Y550D01*
X714Y550D01*
X714Y552D01*
X710Y552D01*
X710Y554D01*
X708Y554D01*
X708Y556D01*
X706Y556D01*
X706Y558D01*
X704Y558D01*
X704Y562D01*
X702Y562D01*
X702Y564D01*
X682Y564D01*
G37*
D02*
G36*
X782Y258D02*
X782Y256D01*
X780Y256D01*
X780Y254D01*
X778Y254D01*
X778Y252D01*
X776Y252D01*
X776Y250D01*
X774Y250D01*
X774Y248D01*
X772Y248D01*
X772Y246D01*
X768Y246D01*
X768Y244D01*
X764Y244D01*
X764Y242D01*
X760Y242D01*
X760Y240D01*
X754Y240D01*
X754Y238D01*
X820Y238D01*
X820Y244D01*
X816Y244D01*
X816Y246D01*
X812Y246D01*
X812Y248D01*
X810Y248D01*
X810Y250D01*
X808Y250D01*
X808Y252D01*
X806Y252D01*
X806Y254D01*
X804Y254D01*
X804Y256D01*
X802Y256D01*
X802Y258D01*
X782Y258D01*
G37*
D02*
G36*
X340Y238D02*
X340Y236D01*
X820Y236D01*
X820Y238D01*
X340Y238D01*
G37*
D02*
G36*
X340Y238D02*
X340Y236D01*
X820Y236D01*
X820Y238D01*
X340Y238D01*
G37*
D02*
G36*
X340Y236D02*
X340Y218D01*
X342Y218D01*
X342Y216D01*
X344Y216D01*
X344Y214D01*
X346Y214D01*
X346Y212D01*
X348Y212D01*
X348Y210D01*
X648Y210D01*
X648Y208D01*
X654Y208D01*
X654Y206D01*
X656Y206D01*
X656Y204D01*
X660Y204D01*
X660Y202D01*
X662Y202D01*
X662Y200D01*
X664Y200D01*
X664Y198D01*
X666Y198D01*
X666Y196D01*
X668Y196D01*
X668Y194D01*
X670Y194D01*
X670Y192D01*
X672Y192D01*
X672Y190D01*
X674Y190D01*
X674Y188D01*
X676Y188D01*
X676Y186D01*
X678Y186D01*
X678Y184D01*
X680Y184D01*
X680Y182D01*
X682Y182D01*
X682Y180D01*
X684Y180D01*
X684Y178D01*
X686Y178D01*
X686Y176D01*
X688Y176D01*
X688Y174D01*
X690Y174D01*
X690Y172D01*
X692Y172D01*
X692Y170D01*
X694Y170D01*
X694Y166D01*
X696Y166D01*
X696Y164D01*
X698Y164D01*
X698Y162D01*
X700Y162D01*
X700Y160D01*
X702Y160D01*
X702Y158D01*
X704Y158D01*
X704Y156D01*
X706Y156D01*
X706Y154D01*
X708Y154D01*
X708Y152D01*
X710Y152D01*
X710Y150D01*
X712Y150D01*
X712Y148D01*
X714Y148D01*
X714Y146D01*
X716Y146D01*
X716Y144D01*
X718Y144D01*
X718Y142D01*
X720Y142D01*
X720Y140D01*
X722Y140D01*
X722Y138D01*
X748Y138D01*
X748Y136D01*
X756Y136D01*
X756Y134D01*
X762Y134D01*
X762Y132D01*
X766Y132D01*
X766Y130D01*
X770Y130D01*
X770Y128D01*
X772Y128D01*
X772Y126D01*
X774Y126D01*
X774Y124D01*
X776Y124D01*
X776Y122D01*
X778Y122D01*
X778Y120D01*
X780Y120D01*
X780Y118D01*
X782Y118D01*
X782Y116D01*
X802Y116D01*
X802Y118D01*
X804Y118D01*
X804Y120D01*
X806Y120D01*
X806Y122D01*
X808Y122D01*
X808Y124D01*
X810Y124D01*
X810Y126D01*
X812Y126D01*
X812Y128D01*
X814Y128D01*
X814Y130D01*
X818Y130D01*
X818Y132D01*
X820Y132D01*
X820Y236D01*
X340Y236D01*
G37*
D02*
G36*
X782Y564D02*
X782Y562D01*
X780Y562D01*
X780Y560D01*
X778Y560D01*
X778Y556D01*
X776Y556D01*
X776Y554D01*
X774Y554D01*
X774Y552D01*
X770Y552D01*
X770Y550D01*
X768Y550D01*
X768Y548D01*
X764Y548D01*
X764Y542D01*
X830Y542D01*
X830Y544D01*
X822Y544D01*
X822Y546D01*
X820Y546D01*
X820Y548D01*
X816Y548D01*
X816Y550D01*
X814Y550D01*
X814Y552D01*
X810Y552D01*
X810Y554D01*
X808Y554D01*
X808Y556D01*
X806Y556D01*
X806Y558D01*
X804Y558D01*
X804Y562D01*
X802Y562D01*
X802Y564D01*
X782Y564D01*
G37*
D02*
G36*
X882Y564D02*
X882Y562D01*
X880Y562D01*
X880Y560D01*
X878Y560D01*
X878Y556D01*
X876Y556D01*
X876Y554D01*
X874Y554D01*
X874Y552D01*
X870Y552D01*
X870Y550D01*
X868Y550D01*
X868Y548D01*
X864Y548D01*
X864Y546D01*
X860Y546D01*
X860Y544D01*
X854Y544D01*
X854Y542D01*
X920Y542D01*
X920Y548D01*
X916Y548D01*
X916Y550D01*
X914Y550D01*
X914Y552D01*
X910Y552D01*
X910Y554D01*
X908Y554D01*
X908Y556D01*
X906Y556D01*
X906Y558D01*
X904Y558D01*
X904Y562D01*
X902Y562D01*
X902Y564D01*
X882Y564D01*
G37*
D02*
G36*
X764Y542D02*
X764Y540D01*
X920Y540D01*
X920Y542D01*
X764Y542D01*
G37*
D02*
G36*
X764Y542D02*
X764Y540D01*
X920Y540D01*
X920Y542D01*
X764Y542D01*
G37*
D02*
G36*
X764Y540D02*
X764Y340D01*
X848Y340D01*
X848Y338D01*
X858Y338D01*
X858Y336D01*
X862Y336D01*
X862Y334D01*
X866Y334D01*
X866Y332D01*
X870Y332D01*
X870Y330D01*
X890Y330D01*
X890Y338D01*
X892Y338D01*
X892Y340D01*
X920Y340D01*
X920Y540D01*
X764Y540D01*
G37*
D02*
G36*
X764Y340D02*
X764Y334D01*
X766Y334D01*
X766Y332D01*
X770Y332D01*
X770Y330D01*
X772Y330D01*
X772Y328D01*
X774Y328D01*
X774Y326D01*
X778Y326D01*
X778Y324D01*
X780Y324D01*
X780Y320D01*
X782Y320D01*
X782Y318D01*
X802Y318D01*
X802Y322D01*
X804Y322D01*
X804Y324D01*
X806Y324D01*
X806Y326D01*
X808Y326D01*
X808Y328D01*
X812Y328D01*
X812Y330D01*
X814Y330D01*
X814Y332D01*
X818Y332D01*
X818Y334D01*
X822Y334D01*
X822Y336D01*
X826Y336D01*
X826Y338D01*
X836Y338D01*
X836Y340D01*
X764Y340D01*
G37*
D02*
G36*
X1082Y564D02*
X1082Y562D01*
X1080Y562D01*
X1080Y560D01*
X1078Y560D01*
X1078Y556D01*
X1076Y556D01*
X1076Y554D01*
X1074Y554D01*
X1074Y552D01*
X1070Y552D01*
X1070Y550D01*
X1068Y550D01*
X1068Y548D01*
X1064Y548D01*
X1064Y542D01*
X1130Y542D01*
X1130Y544D01*
X1122Y544D01*
X1122Y546D01*
X1120Y546D01*
X1120Y548D01*
X1116Y548D01*
X1116Y550D01*
X1114Y550D01*
X1114Y552D01*
X1110Y552D01*
X1110Y554D01*
X1108Y554D01*
X1108Y556D01*
X1106Y556D01*
X1106Y558D01*
X1104Y558D01*
X1104Y562D01*
X1102Y562D01*
X1102Y564D01*
X1082Y564D01*
G37*
D02*
G36*
X1182Y564D02*
X1182Y562D01*
X1180Y562D01*
X1180Y560D01*
X1178Y560D01*
X1178Y556D01*
X1176Y556D01*
X1176Y554D01*
X1174Y554D01*
X1174Y552D01*
X1170Y552D01*
X1170Y550D01*
X1168Y550D01*
X1168Y548D01*
X1164Y548D01*
X1164Y546D01*
X1160Y546D01*
X1160Y544D01*
X1154Y544D01*
X1154Y542D01*
X1220Y542D01*
X1220Y548D01*
X1216Y548D01*
X1216Y550D01*
X1214Y550D01*
X1214Y552D01*
X1210Y552D01*
X1210Y554D01*
X1208Y554D01*
X1208Y556D01*
X1206Y556D01*
X1206Y558D01*
X1204Y558D01*
X1204Y562D01*
X1202Y562D01*
X1202Y564D01*
X1182Y564D01*
G37*
D02*
G36*
X1064Y542D02*
X1064Y540D01*
X1220Y540D01*
X1220Y542D01*
X1064Y542D01*
G37*
D02*
G36*
X1064Y542D02*
X1064Y540D01*
X1220Y540D01*
X1220Y542D01*
X1064Y542D01*
G37*
D02*
G36*
X1064Y540D02*
X1064Y496D01*
X1066Y496D01*
X1066Y494D01*
X1068Y494D01*
X1068Y492D01*
X1070Y492D01*
X1070Y490D01*
X1072Y490D01*
X1072Y488D01*
X1074Y488D01*
X1074Y486D01*
X1076Y486D01*
X1076Y484D01*
X1078Y484D01*
X1078Y482D01*
X1080Y482D01*
X1080Y480D01*
X1082Y480D01*
X1082Y478D01*
X1084Y478D01*
X1084Y476D01*
X1086Y476D01*
X1086Y474D01*
X1088Y474D01*
X1088Y472D01*
X1090Y472D01*
X1090Y470D01*
X1092Y470D01*
X1092Y468D01*
X1094Y468D01*
X1094Y466D01*
X1096Y466D01*
X1096Y464D01*
X1098Y464D01*
X1098Y462D01*
X1100Y462D01*
X1100Y460D01*
X1102Y460D01*
X1102Y458D01*
X1104Y458D01*
X1104Y456D01*
X1106Y456D01*
X1106Y454D01*
X1108Y454D01*
X1108Y452D01*
X1110Y452D01*
X1110Y450D01*
X1112Y450D01*
X1112Y448D01*
X1114Y448D01*
X1114Y446D01*
X1116Y446D01*
X1116Y444D01*
X1118Y444D01*
X1118Y442D01*
X1120Y442D01*
X1120Y440D01*
X1122Y440D01*
X1122Y438D01*
X1124Y438D01*
X1124Y436D01*
X1126Y436D01*
X1126Y434D01*
X1128Y434D01*
X1128Y432D01*
X1130Y432D01*
X1130Y430D01*
X1132Y430D01*
X1132Y428D01*
X1134Y428D01*
X1134Y426D01*
X1136Y426D01*
X1136Y424D01*
X1138Y424D01*
X1138Y422D01*
X1140Y422D01*
X1140Y420D01*
X1142Y420D01*
X1142Y418D01*
X1144Y418D01*
X1144Y416D01*
X1146Y416D01*
X1146Y414D01*
X1148Y414D01*
X1148Y412D01*
X1150Y412D01*
X1150Y410D01*
X1152Y410D01*
X1152Y408D01*
X1154Y408D01*
X1154Y406D01*
X1156Y406D01*
X1156Y404D01*
X1158Y404D01*
X1158Y402D01*
X1160Y402D01*
X1160Y400D01*
X1162Y400D01*
X1162Y398D01*
X1164Y398D01*
X1164Y396D01*
X1166Y396D01*
X1166Y394D01*
X1168Y394D01*
X1168Y392D01*
X1170Y392D01*
X1170Y390D01*
X1172Y390D01*
X1172Y388D01*
X1174Y388D01*
X1174Y386D01*
X1176Y386D01*
X1176Y384D01*
X1178Y384D01*
X1178Y382D01*
X1180Y382D01*
X1180Y380D01*
X1182Y380D01*
X1182Y378D01*
X1184Y378D01*
X1184Y376D01*
X1186Y376D01*
X1186Y374D01*
X1188Y374D01*
X1188Y372D01*
X1190Y372D01*
X1190Y370D01*
X1192Y370D01*
X1192Y368D01*
X1194Y368D01*
X1194Y366D01*
X1196Y366D01*
X1196Y364D01*
X1198Y364D01*
X1198Y362D01*
X1200Y362D01*
X1200Y360D01*
X1202Y360D01*
X1202Y358D01*
X1204Y358D01*
X1204Y356D01*
X1206Y356D01*
X1206Y354D01*
X1208Y354D01*
X1208Y352D01*
X1210Y352D01*
X1210Y350D01*
X1212Y350D01*
X1212Y348D01*
X1214Y348D01*
X1214Y346D01*
X1216Y346D01*
X1216Y344D01*
X1218Y344D01*
X1218Y342D01*
X1220Y342D01*
X1220Y340D01*
X1448Y340D01*
X1448Y338D01*
X1458Y338D01*
X1458Y336D01*
X1462Y336D01*
X1462Y334D01*
X1466Y334D01*
X1466Y332D01*
X1470Y332D01*
X1470Y330D01*
X1490Y330D01*
X1490Y338D01*
X1492Y338D01*
X1492Y340D01*
X1518Y340D01*
X1518Y364D01*
X1338Y364D01*
X1338Y366D01*
X1330Y366D01*
X1330Y368D01*
X1328Y368D01*
X1328Y370D01*
X1324Y370D01*
X1324Y372D01*
X1322Y372D01*
X1322Y374D01*
X1320Y374D01*
X1320Y376D01*
X1318Y376D01*
X1318Y378D01*
X1316Y378D01*
X1316Y380D01*
X1314Y380D01*
X1314Y384D01*
X1312Y384D01*
X1312Y386D01*
X1310Y386D01*
X1310Y388D01*
X1308Y388D01*
X1308Y390D01*
X1306Y390D01*
X1306Y392D01*
X1304Y392D01*
X1304Y394D01*
X1302Y394D01*
X1302Y396D01*
X1300Y396D01*
X1300Y398D01*
X1298Y398D01*
X1298Y400D01*
X1296Y400D01*
X1296Y402D01*
X1294Y402D01*
X1294Y404D01*
X1292Y404D01*
X1292Y406D01*
X1290Y406D01*
X1290Y408D01*
X1288Y408D01*
X1288Y410D01*
X1286Y410D01*
X1286Y412D01*
X1284Y412D01*
X1284Y414D01*
X1282Y414D01*
X1282Y416D01*
X1280Y416D01*
X1280Y418D01*
X1278Y418D01*
X1278Y420D01*
X1276Y420D01*
X1276Y422D01*
X1274Y422D01*
X1274Y424D01*
X1272Y424D01*
X1272Y426D01*
X1270Y426D01*
X1270Y428D01*
X1268Y428D01*
X1268Y432D01*
X1266Y432D01*
X1266Y434D01*
X1264Y434D01*
X1264Y436D01*
X1262Y436D01*
X1262Y438D01*
X1260Y438D01*
X1260Y440D01*
X1258Y440D01*
X1258Y442D01*
X1256Y442D01*
X1256Y444D01*
X1254Y444D01*
X1254Y446D01*
X1252Y446D01*
X1252Y448D01*
X1250Y448D01*
X1250Y450D01*
X1248Y450D01*
X1248Y452D01*
X1246Y452D01*
X1246Y454D01*
X1244Y454D01*
X1244Y456D01*
X1242Y456D01*
X1242Y458D01*
X1240Y458D01*
X1240Y460D01*
X1238Y460D01*
X1238Y462D01*
X1236Y462D01*
X1236Y464D01*
X1234Y464D01*
X1234Y466D01*
X1232Y466D01*
X1232Y468D01*
X1230Y468D01*
X1230Y470D01*
X1228Y470D01*
X1228Y472D01*
X1226Y472D01*
X1226Y476D01*
X1224Y476D01*
X1224Y478D01*
X1222Y478D01*
X1222Y482D01*
X1220Y482D01*
X1220Y540D01*
X1064Y540D01*
G37*
D02*
G36*
X1222Y340D02*
X1222Y338D01*
X1224Y338D01*
X1224Y336D01*
X1226Y336D01*
X1226Y334D01*
X1228Y334D01*
X1228Y332D01*
X1230Y332D01*
X1230Y330D01*
X1232Y330D01*
X1232Y328D01*
X1234Y328D01*
X1234Y326D01*
X1236Y326D01*
X1236Y324D01*
X1238Y324D01*
X1238Y322D01*
X1240Y322D01*
X1240Y320D01*
X1242Y320D01*
X1242Y318D01*
X1244Y318D01*
X1244Y316D01*
X1246Y316D01*
X1246Y314D01*
X1248Y314D01*
X1248Y312D01*
X1250Y312D01*
X1250Y310D01*
X1296Y310D01*
X1296Y312D01*
X1298Y312D01*
X1298Y316D01*
X1300Y316D01*
X1300Y318D01*
X1302Y318D01*
X1302Y322D01*
X1304Y322D01*
X1304Y324D01*
X1306Y324D01*
X1306Y326D01*
X1308Y326D01*
X1308Y328D01*
X1312Y328D01*
X1312Y330D01*
X1314Y330D01*
X1314Y332D01*
X1318Y332D01*
X1318Y334D01*
X1322Y334D01*
X1322Y336D01*
X1326Y336D01*
X1326Y338D01*
X1336Y338D01*
X1336Y340D01*
X1222Y340D01*
G37*
D02*
G36*
X1348Y340D02*
X1348Y338D01*
X1358Y338D01*
X1358Y336D01*
X1362Y336D01*
X1362Y334D01*
X1366Y334D01*
X1366Y332D01*
X1370Y332D01*
X1370Y330D01*
X1372Y330D01*
X1372Y328D01*
X1374Y328D01*
X1374Y326D01*
X1378Y326D01*
X1378Y324D01*
X1380Y324D01*
X1380Y320D01*
X1382Y320D01*
X1382Y318D01*
X1402Y318D01*
X1402Y322D01*
X1404Y322D01*
X1404Y324D01*
X1406Y324D01*
X1406Y326D01*
X1408Y326D01*
X1408Y328D01*
X1412Y328D01*
X1412Y330D01*
X1414Y330D01*
X1414Y332D01*
X1418Y332D01*
X1418Y334D01*
X1422Y334D01*
X1422Y336D01*
X1426Y336D01*
X1426Y338D01*
X1436Y338D01*
X1436Y340D01*
X1348Y340D01*
G37*
D02*
G36*
X70Y290D02*
X70Y288D01*
X68Y288D01*
X68Y286D01*
X66Y286D01*
X66Y284D01*
X64Y284D01*
X64Y282D01*
X62Y282D01*
X62Y238D01*
X130Y238D01*
X130Y240D01*
X124Y240D01*
X124Y242D01*
X120Y242D01*
X120Y244D01*
X116Y244D01*
X116Y246D01*
X112Y246D01*
X112Y248D01*
X110Y248D01*
X110Y250D01*
X108Y250D01*
X108Y252D01*
X106Y252D01*
X106Y254D01*
X104Y254D01*
X104Y256D01*
X102Y256D01*
X102Y258D01*
X100Y258D01*
X100Y262D01*
X98Y262D01*
X98Y264D01*
X96Y264D01*
X96Y268D01*
X94Y268D01*
X94Y274D01*
X92Y274D01*
X92Y286D01*
X90Y286D01*
X90Y290D01*
X70Y290D01*
G37*
D02*
G36*
X182Y258D02*
X182Y256D01*
X180Y256D01*
X180Y254D01*
X178Y254D01*
X178Y252D01*
X176Y252D01*
X176Y250D01*
X174Y250D01*
X174Y248D01*
X172Y248D01*
X172Y246D01*
X168Y246D01*
X168Y244D01*
X164Y244D01*
X164Y242D01*
X160Y242D01*
X160Y240D01*
X154Y240D01*
X154Y238D01*
X230Y238D01*
X230Y240D01*
X224Y240D01*
X224Y242D01*
X220Y242D01*
X220Y244D01*
X216Y244D01*
X216Y246D01*
X212Y246D01*
X212Y248D01*
X210Y248D01*
X210Y250D01*
X208Y250D01*
X208Y252D01*
X206Y252D01*
X206Y254D01*
X204Y254D01*
X204Y256D01*
X202Y256D01*
X202Y258D01*
X182Y258D01*
G37*
D02*
G36*
X62Y238D02*
X62Y236D01*
X262Y236D01*
X262Y238D01*
X62Y238D01*
G37*
D02*
G36*
X62Y238D02*
X62Y236D01*
X262Y236D01*
X262Y238D01*
X62Y238D01*
G37*
D02*
G36*
X62Y236D02*
X62Y196D01*
X64Y196D01*
X64Y194D01*
X66Y194D01*
X66Y192D01*
X68Y192D01*
X68Y190D01*
X72Y190D01*
X72Y188D01*
X74Y188D01*
X74Y186D01*
X76Y186D01*
X76Y184D01*
X78Y184D01*
X78Y182D01*
X80Y182D01*
X80Y180D01*
X82Y180D01*
X82Y178D01*
X84Y178D01*
X84Y176D01*
X86Y176D01*
X86Y174D01*
X88Y174D01*
X88Y172D01*
X90Y172D01*
X90Y170D01*
X92Y170D01*
X92Y168D01*
X94Y168D01*
X94Y166D01*
X96Y166D01*
X96Y164D01*
X98Y164D01*
X98Y162D01*
X100Y162D01*
X100Y160D01*
X102Y160D01*
X102Y158D01*
X104Y158D01*
X104Y156D01*
X106Y156D01*
X106Y154D01*
X108Y154D01*
X108Y152D01*
X110Y152D01*
X110Y150D01*
X112Y150D01*
X112Y148D01*
X114Y148D01*
X114Y146D01*
X116Y146D01*
X116Y144D01*
X118Y144D01*
X118Y142D01*
X120Y142D01*
X120Y140D01*
X122Y140D01*
X122Y138D01*
X126Y138D01*
X126Y136D01*
X128Y136D01*
X128Y134D01*
X130Y134D01*
X130Y132D01*
X132Y132D01*
X132Y130D01*
X134Y130D01*
X134Y128D01*
X136Y128D01*
X136Y126D01*
X138Y126D01*
X138Y124D01*
X140Y124D01*
X140Y122D01*
X142Y122D01*
X142Y120D01*
X144Y120D01*
X144Y118D01*
X146Y118D01*
X146Y116D01*
X148Y116D01*
X148Y114D01*
X150Y114D01*
X150Y112D01*
X248Y112D01*
X248Y110D01*
X598Y110D01*
X598Y112D01*
X600Y112D01*
X600Y116D01*
X602Y116D01*
X602Y118D01*
X604Y118D01*
X604Y120D01*
X606Y120D01*
X606Y122D01*
X608Y122D01*
X608Y124D01*
X610Y124D01*
X610Y126D01*
X612Y126D01*
X612Y128D01*
X614Y128D01*
X614Y130D01*
X618Y130D01*
X618Y132D01*
X622Y132D01*
X622Y134D01*
X628Y134D01*
X628Y136D01*
X636Y136D01*
X636Y138D01*
X642Y138D01*
X642Y158D01*
X640Y158D01*
X640Y160D01*
X638Y160D01*
X638Y162D01*
X636Y162D01*
X636Y164D01*
X634Y164D01*
X634Y166D01*
X332Y166D01*
X332Y168D01*
X328Y168D01*
X328Y170D01*
X326Y170D01*
X326Y172D01*
X324Y172D01*
X324Y174D01*
X322Y174D01*
X322Y176D01*
X320Y176D01*
X320Y178D01*
X318Y178D01*
X318Y180D01*
X316Y180D01*
X316Y182D01*
X314Y182D01*
X314Y184D01*
X312Y184D01*
X312Y186D01*
X310Y186D01*
X310Y188D01*
X308Y188D01*
X308Y190D01*
X306Y190D01*
X306Y192D01*
X304Y192D01*
X304Y194D01*
X302Y194D01*
X302Y196D01*
X300Y196D01*
X300Y198D01*
X298Y198D01*
X298Y200D01*
X296Y200D01*
X296Y202D01*
X294Y202D01*
X294Y204D01*
X292Y204D01*
X292Y206D01*
X290Y206D01*
X290Y208D01*
X288Y208D01*
X288Y210D01*
X286Y210D01*
X286Y212D01*
X284Y212D01*
X284Y214D01*
X282Y214D01*
X282Y216D01*
X280Y216D01*
X280Y218D01*
X278Y218D01*
X278Y220D01*
X276Y220D01*
X276Y222D01*
X274Y222D01*
X274Y226D01*
X272Y226D01*
X272Y228D01*
X270Y228D01*
X270Y230D01*
X268Y230D01*
X268Y232D01*
X266Y232D01*
X266Y234D01*
X264Y234D01*
X264Y236D01*
X62Y236D01*
G37*
D02*
G36*
X982Y564D02*
X982Y562D01*
X980Y562D01*
X980Y560D01*
X978Y560D01*
X978Y556D01*
X976Y556D01*
X976Y554D01*
X974Y554D01*
X974Y552D01*
X970Y552D01*
X970Y550D01*
X968Y550D01*
X968Y548D01*
X964Y548D01*
X964Y340D01*
X992Y340D01*
X992Y238D01*
X1330Y238D01*
X1330Y240D01*
X1324Y240D01*
X1324Y242D01*
X1320Y242D01*
X1320Y244D01*
X1316Y244D01*
X1316Y246D01*
X1312Y246D01*
X1312Y248D01*
X1310Y248D01*
X1310Y250D01*
X1308Y250D01*
X1308Y252D01*
X1306Y252D01*
X1306Y254D01*
X1304Y254D01*
X1304Y256D01*
X1302Y256D01*
X1302Y258D01*
X1300Y258D01*
X1300Y262D01*
X1298Y262D01*
X1298Y264D01*
X1296Y264D01*
X1296Y266D01*
X1240Y266D01*
X1240Y268D01*
X1232Y268D01*
X1232Y270D01*
X1230Y270D01*
X1230Y272D01*
X1226Y272D01*
X1226Y274D01*
X1224Y274D01*
X1224Y276D01*
X1222Y276D01*
X1222Y278D01*
X1220Y278D01*
X1220Y280D01*
X1218Y280D01*
X1218Y282D01*
X1216Y282D01*
X1216Y284D01*
X1214Y284D01*
X1214Y286D01*
X1212Y286D01*
X1212Y288D01*
X1210Y288D01*
X1210Y290D01*
X1208Y290D01*
X1208Y292D01*
X1206Y292D01*
X1206Y294D01*
X1204Y294D01*
X1204Y296D01*
X1202Y296D01*
X1202Y298D01*
X1200Y298D01*
X1200Y300D01*
X1198Y300D01*
X1198Y302D01*
X1196Y302D01*
X1196Y304D01*
X1194Y304D01*
X1194Y306D01*
X1192Y306D01*
X1192Y308D01*
X1190Y308D01*
X1190Y310D01*
X1188Y310D01*
X1188Y312D01*
X1186Y312D01*
X1186Y314D01*
X1184Y314D01*
X1184Y316D01*
X1182Y316D01*
X1182Y318D01*
X1180Y318D01*
X1180Y320D01*
X1178Y320D01*
X1178Y322D01*
X1176Y322D01*
X1176Y324D01*
X1174Y324D01*
X1174Y326D01*
X1172Y326D01*
X1172Y328D01*
X1170Y328D01*
X1170Y330D01*
X1168Y330D01*
X1168Y332D01*
X1166Y332D01*
X1166Y334D01*
X1164Y334D01*
X1164Y336D01*
X1162Y336D01*
X1162Y338D01*
X1160Y338D01*
X1160Y340D01*
X1158Y340D01*
X1158Y342D01*
X1156Y342D01*
X1156Y344D01*
X1154Y344D01*
X1154Y346D01*
X1152Y346D01*
X1152Y348D01*
X1150Y348D01*
X1150Y350D01*
X1148Y350D01*
X1148Y352D01*
X1146Y352D01*
X1146Y354D01*
X1144Y354D01*
X1144Y356D01*
X1142Y356D01*
X1142Y358D01*
X1140Y358D01*
X1140Y360D01*
X1138Y360D01*
X1138Y362D01*
X1136Y362D01*
X1136Y364D01*
X1134Y364D01*
X1134Y366D01*
X1132Y366D01*
X1132Y368D01*
X1130Y368D01*
X1130Y370D01*
X1128Y370D01*
X1128Y372D01*
X1126Y372D01*
X1126Y374D01*
X1124Y374D01*
X1124Y376D01*
X1122Y376D01*
X1122Y378D01*
X1120Y378D01*
X1120Y380D01*
X1118Y380D01*
X1118Y382D01*
X1116Y382D01*
X1116Y384D01*
X1114Y384D01*
X1114Y386D01*
X1112Y386D01*
X1112Y388D01*
X1110Y388D01*
X1110Y390D01*
X1108Y390D01*
X1108Y392D01*
X1106Y392D01*
X1106Y394D01*
X1104Y394D01*
X1104Y396D01*
X1102Y396D01*
X1102Y398D01*
X1100Y398D01*
X1100Y400D01*
X1098Y400D01*
X1098Y402D01*
X1096Y402D01*
X1096Y404D01*
X1094Y404D01*
X1094Y406D01*
X1092Y406D01*
X1092Y408D01*
X1090Y408D01*
X1090Y410D01*
X1088Y410D01*
X1088Y412D01*
X1086Y412D01*
X1086Y414D01*
X1084Y414D01*
X1084Y416D01*
X1082Y416D01*
X1082Y418D01*
X1080Y418D01*
X1080Y420D01*
X1078Y420D01*
X1078Y422D01*
X1076Y422D01*
X1076Y424D01*
X1074Y424D01*
X1074Y426D01*
X1072Y426D01*
X1072Y428D01*
X1070Y428D01*
X1070Y430D01*
X1068Y430D01*
X1068Y432D01*
X1066Y432D01*
X1066Y434D01*
X1064Y434D01*
X1064Y436D01*
X1062Y436D01*
X1062Y438D01*
X1060Y438D01*
X1060Y440D01*
X1058Y440D01*
X1058Y442D01*
X1056Y442D01*
X1056Y444D01*
X1054Y444D01*
X1054Y446D01*
X1052Y446D01*
X1052Y448D01*
X1050Y448D01*
X1050Y450D01*
X1048Y450D01*
X1048Y452D01*
X1046Y452D01*
X1046Y454D01*
X1044Y454D01*
X1044Y456D01*
X1042Y456D01*
X1042Y458D01*
X1040Y458D01*
X1040Y460D01*
X1038Y460D01*
X1038Y462D01*
X1036Y462D01*
X1036Y464D01*
X1034Y464D01*
X1034Y466D01*
X1032Y466D01*
X1032Y468D01*
X1030Y468D01*
X1030Y470D01*
X1028Y470D01*
X1028Y472D01*
X1026Y472D01*
X1026Y474D01*
X1024Y474D01*
X1024Y478D01*
X1022Y478D01*
X1022Y482D01*
X1020Y482D01*
X1020Y548D01*
X1016Y548D01*
X1016Y550D01*
X1014Y550D01*
X1014Y552D01*
X1010Y552D01*
X1010Y554D01*
X1008Y554D01*
X1008Y556D01*
X1006Y556D01*
X1006Y558D01*
X1004Y558D01*
X1004Y562D01*
X1002Y562D01*
X1002Y564D01*
X982Y564D01*
G37*
D02*
G36*
X868Y246D02*
X868Y244D01*
X864Y244D01*
X864Y238D01*
X890Y238D01*
X890Y246D01*
X868Y246D01*
G37*
D02*
G36*
X864Y238D02*
X864Y236D01*
X1342Y236D01*
X1342Y238D01*
X864Y238D01*
G37*
D02*
G36*
X864Y238D02*
X864Y236D01*
X1342Y236D01*
X1342Y238D01*
X864Y238D01*
G37*
D02*
G36*
X864Y236D02*
X864Y132D01*
X866Y132D01*
X866Y130D01*
X870Y130D01*
X870Y128D01*
X872Y128D01*
X872Y126D01*
X874Y126D01*
X874Y124D01*
X876Y124D01*
X876Y122D01*
X878Y122D01*
X878Y120D01*
X880Y120D01*
X880Y118D01*
X882Y118D01*
X882Y116D01*
X902Y116D01*
X902Y118D01*
X904Y118D01*
X904Y120D01*
X906Y120D01*
X906Y122D01*
X908Y122D01*
X908Y124D01*
X910Y124D01*
X910Y126D01*
X912Y126D01*
X912Y128D01*
X914Y128D01*
X914Y130D01*
X918Y130D01*
X918Y132D01*
X922Y132D01*
X922Y134D01*
X928Y134D01*
X928Y136D01*
X936Y136D01*
X936Y138D01*
X962Y138D01*
X962Y140D01*
X964Y140D01*
X964Y142D01*
X966Y142D01*
X966Y144D01*
X968Y144D01*
X968Y146D01*
X970Y146D01*
X970Y148D01*
X972Y148D01*
X972Y150D01*
X974Y150D01*
X974Y152D01*
X976Y152D01*
X976Y154D01*
X978Y154D01*
X978Y156D01*
X980Y156D01*
X980Y158D01*
X982Y158D01*
X982Y160D01*
X984Y160D01*
X984Y162D01*
X986Y162D01*
X986Y164D01*
X988Y164D01*
X988Y166D01*
X990Y166D01*
X990Y168D01*
X992Y168D01*
X992Y170D01*
X994Y170D01*
X994Y172D01*
X996Y172D01*
X996Y174D01*
X998Y174D01*
X998Y176D01*
X1000Y176D01*
X1000Y178D01*
X1002Y178D01*
X1002Y180D01*
X1004Y180D01*
X1004Y182D01*
X1006Y182D01*
X1006Y184D01*
X1008Y184D01*
X1008Y186D01*
X1010Y186D01*
X1010Y188D01*
X1012Y188D01*
X1012Y190D01*
X1014Y190D01*
X1014Y192D01*
X1016Y192D01*
X1016Y194D01*
X1018Y194D01*
X1018Y196D01*
X1020Y196D01*
X1020Y198D01*
X1022Y198D01*
X1022Y200D01*
X1024Y200D01*
X1024Y202D01*
X1026Y202D01*
X1026Y204D01*
X1028Y204D01*
X1028Y206D01*
X1032Y206D01*
X1032Y208D01*
X1036Y208D01*
X1036Y210D01*
X1334Y210D01*
X1334Y212D01*
X1336Y212D01*
X1336Y214D01*
X1338Y214D01*
X1338Y216D01*
X1340Y216D01*
X1340Y218D01*
X1342Y218D01*
X1342Y236D01*
X864Y236D01*
G37*
D02*
G36*
X40Y1758D02*
X40Y1738D01*
X1252Y1738D01*
X1252Y1736D01*
X1262Y1736D01*
X1262Y1734D01*
X1268Y1734D01*
X1268Y1732D01*
X1270Y1732D01*
X1270Y1730D01*
X1274Y1730D01*
X1274Y1728D01*
X1276Y1728D01*
X1276Y1726D01*
X1280Y1726D01*
X1280Y1724D01*
X1282Y1724D01*
X1282Y1722D01*
X1284Y1722D01*
X1284Y1718D01*
X1286Y1718D01*
X1286Y1716D01*
X1288Y1716D01*
X1288Y1712D01*
X1348Y1712D01*
X1348Y1710D01*
X1354Y1710D01*
X1354Y1708D01*
X1356Y1708D01*
X1356Y1706D01*
X1360Y1706D01*
X1360Y1704D01*
X1362Y1704D01*
X1362Y1702D01*
X1364Y1702D01*
X1364Y1700D01*
X1366Y1700D01*
X1366Y1698D01*
X1368Y1698D01*
X1368Y1696D01*
X1370Y1696D01*
X1370Y1694D01*
X1372Y1694D01*
X1372Y1692D01*
X1374Y1692D01*
X1374Y1690D01*
X1376Y1690D01*
X1376Y1688D01*
X1378Y1688D01*
X1378Y1686D01*
X1380Y1686D01*
X1380Y1684D01*
X1382Y1684D01*
X1382Y1682D01*
X1384Y1682D01*
X1384Y1680D01*
X1386Y1680D01*
X1386Y1678D01*
X1388Y1678D01*
X1388Y1676D01*
X1390Y1676D01*
X1390Y1674D01*
X1392Y1674D01*
X1392Y1672D01*
X1394Y1672D01*
X1394Y1670D01*
X1396Y1670D01*
X1396Y1668D01*
X1398Y1668D01*
X1398Y1666D01*
X1400Y1666D01*
X1400Y1664D01*
X1402Y1664D01*
X1402Y1662D01*
X1404Y1662D01*
X1404Y1660D01*
X1406Y1660D01*
X1406Y1658D01*
X1408Y1658D01*
X1408Y1656D01*
X1410Y1656D01*
X1410Y1654D01*
X1412Y1654D01*
X1412Y1652D01*
X1414Y1652D01*
X1414Y1650D01*
X1416Y1650D01*
X1416Y1648D01*
X1418Y1648D01*
X1418Y1646D01*
X1420Y1646D01*
X1420Y1644D01*
X1422Y1644D01*
X1422Y1642D01*
X1424Y1642D01*
X1424Y1640D01*
X1426Y1640D01*
X1426Y1638D01*
X1428Y1638D01*
X1428Y1636D01*
X1430Y1636D01*
X1430Y1634D01*
X1432Y1634D01*
X1432Y1632D01*
X1434Y1632D01*
X1434Y1630D01*
X1436Y1630D01*
X1436Y1628D01*
X1438Y1628D01*
X1438Y1626D01*
X1440Y1626D01*
X1440Y1624D01*
X1442Y1624D01*
X1442Y1622D01*
X1444Y1622D01*
X1444Y1620D01*
X1446Y1620D01*
X1446Y1618D01*
X1448Y1618D01*
X1448Y1616D01*
X1450Y1616D01*
X1450Y1614D01*
X1452Y1614D01*
X1452Y1612D01*
X1454Y1612D01*
X1454Y1610D01*
X1456Y1610D01*
X1456Y1608D01*
X1458Y1608D01*
X1458Y1606D01*
X1460Y1606D01*
X1460Y1604D01*
X1462Y1604D01*
X1462Y1602D01*
X1464Y1602D01*
X1464Y1600D01*
X1466Y1600D01*
X1466Y1598D01*
X1468Y1598D01*
X1468Y1596D01*
X1470Y1596D01*
X1470Y1594D01*
X1472Y1594D01*
X1472Y1592D01*
X1474Y1592D01*
X1474Y1590D01*
X1476Y1590D01*
X1476Y1588D01*
X1478Y1588D01*
X1478Y1586D01*
X1480Y1586D01*
X1480Y1584D01*
X1482Y1584D01*
X1482Y1582D01*
X1484Y1582D01*
X1484Y1580D01*
X1486Y1580D01*
X1486Y1578D01*
X1488Y1578D01*
X1488Y1576D01*
X1490Y1576D01*
X1490Y1574D01*
X1492Y1574D01*
X1492Y1572D01*
X1494Y1572D01*
X1494Y1570D01*
X1496Y1570D01*
X1496Y1568D01*
X1498Y1568D01*
X1498Y1566D01*
X1500Y1566D01*
X1500Y1564D01*
X1502Y1564D01*
X1502Y1562D01*
X1504Y1562D01*
X1504Y1560D01*
X1506Y1560D01*
X1506Y1558D01*
X1508Y1558D01*
X1508Y1556D01*
X1510Y1556D01*
X1510Y1554D01*
X1512Y1554D01*
X1512Y1552D01*
X1514Y1552D01*
X1514Y1550D01*
X1516Y1550D01*
X1516Y1548D01*
X1518Y1548D01*
X1518Y1546D01*
X1520Y1546D01*
X1520Y1544D01*
X1522Y1544D01*
X1522Y1542D01*
X1524Y1542D01*
X1524Y1540D01*
X1526Y1540D01*
X1526Y1538D01*
X1528Y1538D01*
X1528Y1536D01*
X1530Y1536D01*
X1530Y1534D01*
X1532Y1534D01*
X1532Y1532D01*
X1534Y1532D01*
X1534Y1530D01*
X1536Y1530D01*
X1536Y1528D01*
X1538Y1528D01*
X1538Y1526D01*
X1540Y1526D01*
X1540Y1524D01*
X1542Y1524D01*
X1542Y1522D01*
X1544Y1522D01*
X1544Y1520D01*
X1546Y1520D01*
X1546Y1518D01*
X1548Y1518D01*
X1548Y1516D01*
X1550Y1516D01*
X1550Y1514D01*
X1552Y1514D01*
X1552Y1512D01*
X1554Y1512D01*
X1554Y1510D01*
X1556Y1510D01*
X1556Y1508D01*
X1558Y1508D01*
X1558Y1506D01*
X1560Y1506D01*
X1560Y1502D01*
X1562Y1502D01*
X1562Y1500D01*
X1564Y1500D01*
X1564Y1496D01*
X1566Y1496D01*
X1566Y1082D01*
X1564Y1082D01*
X1564Y1078D01*
X1562Y1078D01*
X1562Y1074D01*
X1560Y1074D01*
X1560Y1072D01*
X1558Y1072D01*
X1558Y1070D01*
X1556Y1070D01*
X1556Y1068D01*
X1554Y1068D01*
X1554Y1066D01*
X1552Y1066D01*
X1552Y1064D01*
X1550Y1064D01*
X1550Y1062D01*
X1548Y1062D01*
X1548Y1060D01*
X1546Y1060D01*
X1546Y1058D01*
X1544Y1058D01*
X1544Y1056D01*
X1542Y1056D01*
X1542Y1054D01*
X1540Y1054D01*
X1540Y1052D01*
X1538Y1052D01*
X1538Y1050D01*
X1536Y1050D01*
X1536Y1048D01*
X1534Y1048D01*
X1534Y1046D01*
X1532Y1046D01*
X1532Y1044D01*
X1530Y1044D01*
X1530Y1042D01*
X1528Y1042D01*
X1528Y1040D01*
X1526Y1040D01*
X1526Y1038D01*
X1524Y1038D01*
X1524Y1036D01*
X1522Y1036D01*
X1522Y1034D01*
X1520Y1034D01*
X1520Y1032D01*
X1518Y1032D01*
X1518Y1030D01*
X1516Y1030D01*
X1516Y1028D01*
X1514Y1028D01*
X1514Y1026D01*
X1512Y1026D01*
X1512Y1024D01*
X1510Y1024D01*
X1510Y1022D01*
X1508Y1022D01*
X1508Y1020D01*
X1506Y1020D01*
X1506Y1018D01*
X1504Y1018D01*
X1504Y1016D01*
X1502Y1016D01*
X1502Y1014D01*
X1500Y1014D01*
X1500Y1012D01*
X1498Y1012D01*
X1498Y1010D01*
X1496Y1010D01*
X1496Y1008D01*
X1494Y1008D01*
X1494Y1006D01*
X1492Y1006D01*
X1492Y1004D01*
X1490Y1004D01*
X1490Y1002D01*
X1488Y1002D01*
X1488Y1000D01*
X1486Y1000D01*
X1486Y998D01*
X1484Y998D01*
X1484Y996D01*
X1482Y996D01*
X1482Y994D01*
X1480Y994D01*
X1480Y992D01*
X1478Y992D01*
X1478Y990D01*
X1476Y990D01*
X1476Y988D01*
X1474Y988D01*
X1474Y986D01*
X1472Y986D01*
X1472Y984D01*
X1470Y984D01*
X1470Y982D01*
X1468Y982D01*
X1468Y980D01*
X1466Y980D01*
X1466Y978D01*
X1464Y978D01*
X1464Y976D01*
X1462Y976D01*
X1462Y974D01*
X1460Y974D01*
X1460Y972D01*
X1458Y972D01*
X1458Y970D01*
X1456Y970D01*
X1456Y968D01*
X1454Y968D01*
X1454Y966D01*
X1452Y966D01*
X1452Y964D01*
X1450Y964D01*
X1450Y962D01*
X1448Y962D01*
X1448Y960D01*
X1446Y960D01*
X1446Y958D01*
X1444Y958D01*
X1444Y956D01*
X1442Y956D01*
X1442Y954D01*
X1440Y954D01*
X1440Y952D01*
X1438Y952D01*
X1438Y950D01*
X1436Y950D01*
X1436Y948D01*
X1434Y948D01*
X1434Y946D01*
X1432Y946D01*
X1432Y944D01*
X1430Y944D01*
X1430Y942D01*
X1428Y942D01*
X1428Y940D01*
X1426Y940D01*
X1426Y938D01*
X1424Y938D01*
X1424Y936D01*
X1422Y936D01*
X1422Y934D01*
X1420Y934D01*
X1420Y932D01*
X1418Y932D01*
X1418Y930D01*
X1416Y930D01*
X1416Y928D01*
X1414Y928D01*
X1414Y926D01*
X1412Y926D01*
X1412Y924D01*
X1410Y924D01*
X1410Y922D01*
X1408Y922D01*
X1408Y920D01*
X1406Y920D01*
X1406Y918D01*
X1404Y918D01*
X1404Y916D01*
X1402Y916D01*
X1402Y914D01*
X1400Y914D01*
X1400Y912D01*
X1398Y912D01*
X1398Y910D01*
X1396Y910D01*
X1396Y908D01*
X1394Y908D01*
X1394Y906D01*
X1392Y906D01*
X1392Y904D01*
X1390Y904D01*
X1390Y902D01*
X1388Y902D01*
X1388Y900D01*
X1386Y900D01*
X1386Y898D01*
X1384Y898D01*
X1384Y896D01*
X1382Y896D01*
X1382Y894D01*
X1380Y894D01*
X1380Y892D01*
X1378Y892D01*
X1378Y890D01*
X1376Y890D01*
X1376Y888D01*
X1374Y888D01*
X1374Y886D01*
X1372Y886D01*
X1372Y884D01*
X1370Y884D01*
X1370Y882D01*
X1368Y882D01*
X1368Y880D01*
X1366Y880D01*
X1366Y878D01*
X1364Y878D01*
X1364Y876D01*
X1362Y876D01*
X1362Y874D01*
X1360Y874D01*
X1360Y872D01*
X1358Y872D01*
X1358Y870D01*
X1356Y870D01*
X1356Y868D01*
X1352Y868D01*
X1352Y866D01*
X1634Y866D01*
X1634Y1758D01*
X40Y1758D01*
G37*
D02*
G36*
X40Y1738D02*
X40Y1736D01*
X1190Y1736D01*
X1190Y1720D01*
X1210Y1720D01*
X1210Y1722D01*
X1212Y1722D01*
X1212Y1724D01*
X1214Y1724D01*
X1214Y1726D01*
X1216Y1726D01*
X1216Y1728D01*
X1220Y1728D01*
X1220Y1730D01*
X1224Y1730D01*
X1224Y1732D01*
X1226Y1732D01*
X1226Y1734D01*
X1232Y1734D01*
X1232Y1736D01*
X1240Y1736D01*
X1240Y1738D01*
X40Y1738D01*
G37*
D02*
G36*
X40Y1736D02*
X40Y1142D01*
X530Y1142D01*
X530Y1144D01*
X522Y1144D01*
X522Y1146D01*
X520Y1146D01*
X520Y1148D01*
X516Y1148D01*
X516Y1150D01*
X514Y1150D01*
X514Y1152D01*
X510Y1152D01*
X510Y1154D01*
X508Y1154D01*
X508Y1156D01*
X506Y1156D01*
X506Y1158D01*
X504Y1158D01*
X504Y1162D01*
X502Y1162D01*
X502Y1164D01*
X500Y1164D01*
X500Y1168D01*
X498Y1168D01*
X498Y1174D01*
X496Y1174D01*
X496Y1182D01*
X494Y1182D01*
X494Y1206D01*
X492Y1206D01*
X492Y1208D01*
X490Y1208D01*
X490Y1210D01*
X488Y1210D01*
X488Y1212D01*
X486Y1212D01*
X486Y1214D01*
X484Y1214D01*
X484Y1216D01*
X482Y1216D01*
X482Y1218D01*
X480Y1218D01*
X480Y1220D01*
X478Y1220D01*
X478Y1222D01*
X476Y1222D01*
X476Y1224D01*
X474Y1224D01*
X474Y1226D01*
X472Y1226D01*
X472Y1228D01*
X470Y1228D01*
X470Y1230D01*
X468Y1230D01*
X468Y1232D01*
X466Y1232D01*
X466Y1234D01*
X464Y1234D01*
X464Y1236D01*
X462Y1236D01*
X462Y1238D01*
X460Y1238D01*
X460Y1240D01*
X458Y1240D01*
X458Y1242D01*
X456Y1242D01*
X456Y1244D01*
X454Y1244D01*
X454Y1246D01*
X452Y1246D01*
X452Y1248D01*
X450Y1248D01*
X450Y1250D01*
X448Y1250D01*
X448Y1252D01*
X446Y1252D01*
X446Y1254D01*
X444Y1254D01*
X444Y1256D01*
X442Y1256D01*
X442Y1258D01*
X440Y1258D01*
X440Y1260D01*
X438Y1260D01*
X438Y1262D01*
X436Y1262D01*
X436Y1264D01*
X434Y1264D01*
X434Y1266D01*
X432Y1266D01*
X432Y1268D01*
X430Y1268D01*
X430Y1270D01*
X428Y1270D01*
X428Y1272D01*
X426Y1272D01*
X426Y1274D01*
X424Y1274D01*
X424Y1278D01*
X422Y1278D01*
X422Y1280D01*
X420Y1280D01*
X420Y1290D01*
X418Y1290D01*
X418Y1588D01*
X420Y1588D01*
X420Y1598D01*
X422Y1598D01*
X422Y1600D01*
X424Y1600D01*
X424Y1604D01*
X426Y1604D01*
X426Y1606D01*
X428Y1606D01*
X428Y1608D01*
X430Y1608D01*
X430Y1610D01*
X432Y1610D01*
X432Y1612D01*
X434Y1612D01*
X434Y1614D01*
X436Y1614D01*
X436Y1616D01*
X438Y1616D01*
X438Y1618D01*
X440Y1618D01*
X440Y1620D01*
X442Y1620D01*
X442Y1622D01*
X444Y1622D01*
X444Y1624D01*
X446Y1624D01*
X446Y1626D01*
X448Y1626D01*
X448Y1628D01*
X450Y1628D01*
X450Y1630D01*
X452Y1630D01*
X452Y1632D01*
X454Y1632D01*
X454Y1634D01*
X456Y1634D01*
X456Y1636D01*
X458Y1636D01*
X458Y1638D01*
X460Y1638D01*
X460Y1640D01*
X462Y1640D01*
X462Y1642D01*
X464Y1642D01*
X464Y1644D01*
X466Y1644D01*
X466Y1646D01*
X468Y1646D01*
X468Y1648D01*
X470Y1648D01*
X470Y1650D01*
X472Y1650D01*
X472Y1652D01*
X476Y1652D01*
X476Y1654D01*
X478Y1654D01*
X478Y1656D01*
X480Y1656D01*
X480Y1658D01*
X482Y1658D01*
X482Y1660D01*
X484Y1660D01*
X484Y1662D01*
X486Y1662D01*
X486Y1664D01*
X488Y1664D01*
X488Y1666D01*
X490Y1666D01*
X490Y1668D01*
X492Y1668D01*
X492Y1670D01*
X494Y1670D01*
X494Y1696D01*
X496Y1696D01*
X496Y1704D01*
X498Y1704D01*
X498Y1708D01*
X500Y1708D01*
X500Y1712D01*
X502Y1712D01*
X502Y1716D01*
X504Y1716D01*
X504Y1718D01*
X506Y1718D01*
X506Y1720D01*
X508Y1720D01*
X508Y1722D01*
X510Y1722D01*
X510Y1724D01*
X512Y1724D01*
X512Y1726D01*
X514Y1726D01*
X514Y1728D01*
X518Y1728D01*
X518Y1730D01*
X522Y1730D01*
X522Y1732D01*
X526Y1732D01*
X526Y1734D01*
X532Y1734D01*
X532Y1736D01*
X40Y1736D01*
G37*
D02*
G36*
X550Y1736D02*
X550Y1734D01*
X558Y1734D01*
X558Y1732D01*
X562Y1732D01*
X562Y1730D01*
X566Y1730D01*
X566Y1728D01*
X570Y1728D01*
X570Y1726D01*
X572Y1726D01*
X572Y1724D01*
X574Y1724D01*
X574Y1722D01*
X576Y1722D01*
X576Y1720D01*
X578Y1720D01*
X578Y1718D01*
X580Y1718D01*
X580Y1716D01*
X582Y1716D01*
X582Y1712D01*
X602Y1712D01*
X602Y1716D01*
X604Y1716D01*
X604Y1718D01*
X606Y1718D01*
X606Y1720D01*
X608Y1720D01*
X608Y1722D01*
X610Y1722D01*
X610Y1724D01*
X612Y1724D01*
X612Y1726D01*
X614Y1726D01*
X614Y1728D01*
X618Y1728D01*
X618Y1730D01*
X622Y1730D01*
X622Y1732D01*
X626Y1732D01*
X626Y1734D01*
X632Y1734D01*
X632Y1736D01*
X550Y1736D01*
G37*
D02*
G36*
X650Y1736D02*
X650Y1734D01*
X658Y1734D01*
X658Y1732D01*
X662Y1732D01*
X662Y1730D01*
X666Y1730D01*
X666Y1728D01*
X670Y1728D01*
X670Y1726D01*
X672Y1726D01*
X672Y1724D01*
X674Y1724D01*
X674Y1722D01*
X676Y1722D01*
X676Y1720D01*
X678Y1720D01*
X678Y1718D01*
X680Y1718D01*
X680Y1716D01*
X682Y1716D01*
X682Y1712D01*
X702Y1712D01*
X702Y1716D01*
X704Y1716D01*
X704Y1718D01*
X706Y1718D01*
X706Y1720D01*
X708Y1720D01*
X708Y1722D01*
X710Y1722D01*
X710Y1724D01*
X712Y1724D01*
X712Y1726D01*
X714Y1726D01*
X714Y1728D01*
X718Y1728D01*
X718Y1730D01*
X722Y1730D01*
X722Y1732D01*
X726Y1732D01*
X726Y1734D01*
X732Y1734D01*
X732Y1736D01*
X650Y1736D01*
G37*
D02*
G36*
X750Y1736D02*
X750Y1734D01*
X758Y1734D01*
X758Y1732D01*
X762Y1732D01*
X762Y1730D01*
X766Y1730D01*
X766Y1728D01*
X770Y1728D01*
X770Y1726D01*
X772Y1726D01*
X772Y1724D01*
X774Y1724D01*
X774Y1722D01*
X776Y1722D01*
X776Y1720D01*
X778Y1720D01*
X778Y1718D01*
X780Y1718D01*
X780Y1716D01*
X782Y1716D01*
X782Y1712D01*
X802Y1712D01*
X802Y1716D01*
X804Y1716D01*
X804Y1718D01*
X806Y1718D01*
X806Y1720D01*
X808Y1720D01*
X808Y1722D01*
X810Y1722D01*
X810Y1724D01*
X812Y1724D01*
X812Y1726D01*
X814Y1726D01*
X814Y1728D01*
X818Y1728D01*
X818Y1730D01*
X822Y1730D01*
X822Y1732D01*
X826Y1732D01*
X826Y1734D01*
X832Y1734D01*
X832Y1736D01*
X750Y1736D01*
G37*
D02*
G36*
X850Y1736D02*
X850Y1734D01*
X858Y1734D01*
X858Y1732D01*
X862Y1732D01*
X862Y1730D01*
X866Y1730D01*
X866Y1728D01*
X870Y1728D01*
X870Y1726D01*
X872Y1726D01*
X872Y1724D01*
X874Y1724D01*
X874Y1722D01*
X876Y1722D01*
X876Y1720D01*
X878Y1720D01*
X878Y1718D01*
X880Y1718D01*
X880Y1716D01*
X882Y1716D01*
X882Y1712D01*
X902Y1712D01*
X902Y1716D01*
X904Y1716D01*
X904Y1718D01*
X906Y1718D01*
X906Y1720D01*
X908Y1720D01*
X908Y1722D01*
X910Y1722D01*
X910Y1724D01*
X912Y1724D01*
X912Y1726D01*
X914Y1726D01*
X914Y1728D01*
X918Y1728D01*
X918Y1730D01*
X922Y1730D01*
X922Y1732D01*
X926Y1732D01*
X926Y1734D01*
X932Y1734D01*
X932Y1736D01*
X850Y1736D01*
G37*
D02*
G36*
X950Y1736D02*
X950Y1734D01*
X958Y1734D01*
X958Y1732D01*
X962Y1732D01*
X962Y1730D01*
X966Y1730D01*
X966Y1728D01*
X970Y1728D01*
X970Y1726D01*
X972Y1726D01*
X972Y1724D01*
X974Y1724D01*
X974Y1722D01*
X976Y1722D01*
X976Y1720D01*
X978Y1720D01*
X978Y1718D01*
X980Y1718D01*
X980Y1716D01*
X982Y1716D01*
X982Y1712D01*
X1002Y1712D01*
X1002Y1716D01*
X1004Y1716D01*
X1004Y1718D01*
X1006Y1718D01*
X1006Y1720D01*
X1008Y1720D01*
X1008Y1722D01*
X1010Y1722D01*
X1010Y1724D01*
X1012Y1724D01*
X1012Y1726D01*
X1014Y1726D01*
X1014Y1728D01*
X1018Y1728D01*
X1018Y1730D01*
X1022Y1730D01*
X1022Y1732D01*
X1026Y1732D01*
X1026Y1734D01*
X1032Y1734D01*
X1032Y1736D01*
X950Y1736D01*
G37*
D02*
G36*
X1050Y1736D02*
X1050Y1734D01*
X1058Y1734D01*
X1058Y1732D01*
X1062Y1732D01*
X1062Y1730D01*
X1066Y1730D01*
X1066Y1728D01*
X1070Y1728D01*
X1070Y1726D01*
X1072Y1726D01*
X1072Y1724D01*
X1074Y1724D01*
X1074Y1722D01*
X1094Y1722D01*
X1094Y1736D01*
X1050Y1736D01*
G37*
D02*
G36*
X1290Y1668D02*
X1290Y1664D01*
X1288Y1664D01*
X1288Y1660D01*
X1286Y1660D01*
X1286Y1658D01*
X1284Y1658D01*
X1284Y1656D01*
X1282Y1656D01*
X1282Y1654D01*
X1280Y1654D01*
X1280Y1652D01*
X1278Y1652D01*
X1278Y1650D01*
X1276Y1650D01*
X1276Y1648D01*
X1274Y1648D01*
X1274Y1628D01*
X1276Y1628D01*
X1276Y1626D01*
X1280Y1626D01*
X1280Y1624D01*
X1282Y1624D01*
X1282Y1622D01*
X1284Y1622D01*
X1284Y1618D01*
X1286Y1618D01*
X1286Y1616D01*
X1288Y1616D01*
X1288Y1612D01*
X1290Y1612D01*
X1290Y1610D01*
X1292Y1610D01*
X1292Y1604D01*
X1294Y1604D01*
X1294Y1596D01*
X1296Y1596D01*
X1296Y1580D01*
X1294Y1580D01*
X1294Y1572D01*
X1292Y1572D01*
X1292Y1568D01*
X1290Y1568D01*
X1290Y1564D01*
X1288Y1564D01*
X1288Y1560D01*
X1286Y1560D01*
X1286Y1558D01*
X1284Y1558D01*
X1284Y1556D01*
X1282Y1556D01*
X1282Y1554D01*
X1280Y1554D01*
X1280Y1552D01*
X1278Y1552D01*
X1278Y1550D01*
X1276Y1550D01*
X1276Y1548D01*
X1274Y1548D01*
X1274Y1528D01*
X1276Y1528D01*
X1276Y1526D01*
X1280Y1526D01*
X1280Y1524D01*
X1282Y1524D01*
X1282Y1522D01*
X1284Y1522D01*
X1284Y1518D01*
X1286Y1518D01*
X1286Y1516D01*
X1288Y1516D01*
X1288Y1512D01*
X1290Y1512D01*
X1290Y1510D01*
X1292Y1510D01*
X1292Y1504D01*
X1294Y1504D01*
X1294Y1496D01*
X1296Y1496D01*
X1296Y1480D01*
X1294Y1480D01*
X1294Y1472D01*
X1292Y1472D01*
X1292Y1468D01*
X1290Y1468D01*
X1290Y1464D01*
X1288Y1464D01*
X1288Y1460D01*
X1286Y1460D01*
X1286Y1458D01*
X1284Y1458D01*
X1284Y1456D01*
X1282Y1456D01*
X1282Y1454D01*
X1280Y1454D01*
X1280Y1452D01*
X1278Y1452D01*
X1278Y1450D01*
X1276Y1450D01*
X1276Y1448D01*
X1274Y1448D01*
X1274Y1428D01*
X1276Y1428D01*
X1276Y1426D01*
X1280Y1426D01*
X1280Y1424D01*
X1282Y1424D01*
X1282Y1422D01*
X1284Y1422D01*
X1284Y1418D01*
X1286Y1418D01*
X1286Y1416D01*
X1288Y1416D01*
X1288Y1412D01*
X1290Y1412D01*
X1290Y1410D01*
X1292Y1410D01*
X1292Y1404D01*
X1294Y1404D01*
X1294Y1396D01*
X1296Y1396D01*
X1296Y1380D01*
X1294Y1380D01*
X1294Y1372D01*
X1292Y1372D01*
X1292Y1368D01*
X1290Y1368D01*
X1290Y1364D01*
X1288Y1364D01*
X1288Y1360D01*
X1286Y1360D01*
X1286Y1358D01*
X1284Y1358D01*
X1284Y1356D01*
X1282Y1356D01*
X1282Y1354D01*
X1280Y1354D01*
X1280Y1352D01*
X1278Y1352D01*
X1278Y1350D01*
X1276Y1350D01*
X1276Y1348D01*
X1272Y1348D01*
X1272Y1346D01*
X1268Y1346D01*
X1268Y1344D01*
X1266Y1344D01*
X1266Y1312D01*
X1264Y1312D01*
X1264Y1284D01*
X1262Y1284D01*
X1262Y1280D01*
X1260Y1280D01*
X1260Y1276D01*
X1258Y1276D01*
X1258Y1274D01*
X1256Y1274D01*
X1256Y1272D01*
X1252Y1272D01*
X1252Y1270D01*
X1248Y1270D01*
X1248Y1268D01*
X1522Y1268D01*
X1522Y1480D01*
X1520Y1480D01*
X1520Y1482D01*
X1518Y1482D01*
X1518Y1484D01*
X1516Y1484D01*
X1516Y1486D01*
X1514Y1486D01*
X1514Y1488D01*
X1512Y1488D01*
X1512Y1490D01*
X1510Y1490D01*
X1510Y1492D01*
X1508Y1492D01*
X1508Y1494D01*
X1506Y1494D01*
X1506Y1496D01*
X1504Y1496D01*
X1504Y1498D01*
X1502Y1498D01*
X1502Y1500D01*
X1500Y1500D01*
X1500Y1502D01*
X1498Y1502D01*
X1498Y1504D01*
X1496Y1504D01*
X1496Y1506D01*
X1494Y1506D01*
X1494Y1508D01*
X1492Y1508D01*
X1492Y1510D01*
X1490Y1510D01*
X1490Y1512D01*
X1488Y1512D01*
X1488Y1514D01*
X1486Y1514D01*
X1486Y1516D01*
X1484Y1516D01*
X1484Y1518D01*
X1482Y1518D01*
X1482Y1520D01*
X1480Y1520D01*
X1480Y1522D01*
X1478Y1522D01*
X1478Y1524D01*
X1476Y1524D01*
X1476Y1526D01*
X1474Y1526D01*
X1474Y1528D01*
X1472Y1528D01*
X1472Y1530D01*
X1470Y1530D01*
X1470Y1532D01*
X1468Y1532D01*
X1468Y1534D01*
X1466Y1534D01*
X1466Y1536D01*
X1464Y1536D01*
X1464Y1538D01*
X1462Y1538D01*
X1462Y1540D01*
X1460Y1540D01*
X1460Y1542D01*
X1458Y1542D01*
X1458Y1544D01*
X1456Y1544D01*
X1456Y1546D01*
X1454Y1546D01*
X1454Y1548D01*
X1452Y1548D01*
X1452Y1550D01*
X1450Y1550D01*
X1450Y1552D01*
X1448Y1552D01*
X1448Y1554D01*
X1446Y1554D01*
X1446Y1556D01*
X1444Y1556D01*
X1444Y1558D01*
X1442Y1558D01*
X1442Y1560D01*
X1440Y1560D01*
X1440Y1562D01*
X1438Y1562D01*
X1438Y1564D01*
X1436Y1564D01*
X1436Y1566D01*
X1434Y1566D01*
X1434Y1568D01*
X1432Y1568D01*
X1432Y1570D01*
X1430Y1570D01*
X1430Y1572D01*
X1428Y1572D01*
X1428Y1574D01*
X1426Y1574D01*
X1426Y1576D01*
X1424Y1576D01*
X1424Y1578D01*
X1422Y1578D01*
X1422Y1580D01*
X1420Y1580D01*
X1420Y1582D01*
X1418Y1582D01*
X1418Y1584D01*
X1416Y1584D01*
X1416Y1586D01*
X1414Y1586D01*
X1414Y1588D01*
X1412Y1588D01*
X1412Y1590D01*
X1410Y1590D01*
X1410Y1592D01*
X1408Y1592D01*
X1408Y1594D01*
X1406Y1594D01*
X1406Y1596D01*
X1404Y1596D01*
X1404Y1598D01*
X1402Y1598D01*
X1402Y1600D01*
X1400Y1600D01*
X1400Y1602D01*
X1398Y1602D01*
X1398Y1604D01*
X1396Y1604D01*
X1396Y1606D01*
X1394Y1606D01*
X1394Y1608D01*
X1392Y1608D01*
X1392Y1610D01*
X1390Y1610D01*
X1390Y1612D01*
X1388Y1612D01*
X1388Y1614D01*
X1386Y1614D01*
X1386Y1616D01*
X1384Y1616D01*
X1384Y1618D01*
X1382Y1618D01*
X1382Y1620D01*
X1380Y1620D01*
X1380Y1622D01*
X1378Y1622D01*
X1378Y1624D01*
X1376Y1624D01*
X1376Y1626D01*
X1374Y1626D01*
X1374Y1628D01*
X1372Y1628D01*
X1372Y1630D01*
X1370Y1630D01*
X1370Y1632D01*
X1368Y1632D01*
X1368Y1634D01*
X1366Y1634D01*
X1366Y1636D01*
X1364Y1636D01*
X1364Y1638D01*
X1362Y1638D01*
X1362Y1640D01*
X1360Y1640D01*
X1360Y1642D01*
X1358Y1642D01*
X1358Y1644D01*
X1356Y1644D01*
X1356Y1646D01*
X1354Y1646D01*
X1354Y1648D01*
X1352Y1648D01*
X1352Y1650D01*
X1350Y1650D01*
X1350Y1652D01*
X1348Y1652D01*
X1348Y1654D01*
X1346Y1654D01*
X1346Y1656D01*
X1344Y1656D01*
X1344Y1658D01*
X1342Y1658D01*
X1342Y1660D01*
X1340Y1660D01*
X1340Y1662D01*
X1338Y1662D01*
X1338Y1664D01*
X1336Y1664D01*
X1336Y1666D01*
X1334Y1666D01*
X1334Y1668D01*
X1290Y1668D01*
G37*
D02*
G36*
X582Y1664D02*
X582Y1662D01*
X580Y1662D01*
X580Y1660D01*
X578Y1660D01*
X578Y1656D01*
X576Y1656D01*
X576Y1654D01*
X574Y1654D01*
X574Y1652D01*
X570Y1652D01*
X570Y1650D01*
X568Y1650D01*
X568Y1648D01*
X564Y1648D01*
X564Y1646D01*
X560Y1646D01*
X560Y1644D01*
X554Y1644D01*
X554Y1642D01*
X526Y1642D01*
X526Y1640D01*
X524Y1640D01*
X524Y1638D01*
X522Y1638D01*
X522Y1636D01*
X520Y1636D01*
X520Y1634D01*
X518Y1634D01*
X518Y1632D01*
X516Y1632D01*
X516Y1630D01*
X514Y1630D01*
X514Y1628D01*
X512Y1628D01*
X512Y1626D01*
X510Y1626D01*
X510Y1624D01*
X508Y1624D01*
X508Y1622D01*
X506Y1622D01*
X506Y1620D01*
X504Y1620D01*
X504Y1618D01*
X502Y1618D01*
X502Y1616D01*
X500Y1616D01*
X500Y1614D01*
X498Y1614D01*
X498Y1612D01*
X496Y1612D01*
X496Y1610D01*
X494Y1610D01*
X494Y1608D01*
X492Y1608D01*
X492Y1606D01*
X490Y1606D01*
X490Y1604D01*
X488Y1604D01*
X488Y1602D01*
X486Y1602D01*
X486Y1600D01*
X484Y1600D01*
X484Y1598D01*
X482Y1598D01*
X482Y1596D01*
X480Y1596D01*
X480Y1594D01*
X478Y1594D01*
X478Y1592D01*
X476Y1592D01*
X476Y1590D01*
X474Y1590D01*
X474Y1588D01*
X472Y1588D01*
X472Y1586D01*
X470Y1586D01*
X470Y1584D01*
X468Y1584D01*
X468Y1582D01*
X466Y1582D01*
X466Y1580D01*
X464Y1580D01*
X464Y1512D01*
X1060Y1512D01*
X1060Y1510D01*
X1204Y1510D01*
X1204Y1514D01*
X1206Y1514D01*
X1206Y1516D01*
X1208Y1516D01*
X1208Y1520D01*
X1210Y1520D01*
X1210Y1522D01*
X1212Y1522D01*
X1212Y1524D01*
X1214Y1524D01*
X1214Y1526D01*
X1216Y1526D01*
X1216Y1528D01*
X1220Y1528D01*
X1220Y1548D01*
X1218Y1548D01*
X1218Y1550D01*
X1216Y1550D01*
X1216Y1552D01*
X1214Y1552D01*
X1214Y1554D01*
X1212Y1554D01*
X1212Y1556D01*
X1210Y1556D01*
X1210Y1558D01*
X1208Y1558D01*
X1208Y1560D01*
X1206Y1560D01*
X1206Y1564D01*
X1204Y1564D01*
X1204Y1566D01*
X738Y1566D01*
X738Y1568D01*
X732Y1568D01*
X732Y1570D01*
X730Y1570D01*
X730Y1572D01*
X728Y1572D01*
X728Y1574D01*
X726Y1574D01*
X726Y1576D01*
X724Y1576D01*
X724Y1578D01*
X722Y1578D01*
X722Y1580D01*
X720Y1580D01*
X720Y1582D01*
X718Y1582D01*
X718Y1584D01*
X716Y1584D01*
X716Y1586D01*
X714Y1586D01*
X714Y1588D01*
X712Y1588D01*
X712Y1590D01*
X710Y1590D01*
X710Y1592D01*
X708Y1592D01*
X708Y1594D01*
X706Y1594D01*
X706Y1596D01*
X704Y1596D01*
X704Y1598D01*
X702Y1598D01*
X702Y1600D01*
X700Y1600D01*
X700Y1602D01*
X698Y1602D01*
X698Y1604D01*
X696Y1604D01*
X696Y1606D01*
X692Y1606D01*
X692Y1608D01*
X690Y1608D01*
X690Y1610D01*
X688Y1610D01*
X688Y1612D01*
X686Y1612D01*
X686Y1614D01*
X684Y1614D01*
X684Y1616D01*
X682Y1616D01*
X682Y1618D01*
X680Y1618D01*
X680Y1620D01*
X678Y1620D01*
X678Y1622D01*
X676Y1622D01*
X676Y1624D01*
X674Y1624D01*
X674Y1626D01*
X672Y1626D01*
X672Y1628D01*
X670Y1628D01*
X670Y1630D01*
X668Y1630D01*
X668Y1632D01*
X666Y1632D01*
X666Y1634D01*
X664Y1634D01*
X664Y1636D01*
X662Y1636D01*
X662Y1638D01*
X660Y1638D01*
X660Y1640D01*
X658Y1640D01*
X658Y1642D01*
X630Y1642D01*
X630Y1644D01*
X622Y1644D01*
X622Y1646D01*
X620Y1646D01*
X620Y1648D01*
X616Y1648D01*
X616Y1650D01*
X614Y1650D01*
X614Y1652D01*
X610Y1652D01*
X610Y1654D01*
X608Y1654D01*
X608Y1656D01*
X606Y1656D01*
X606Y1658D01*
X604Y1658D01*
X604Y1662D01*
X602Y1662D01*
X602Y1664D01*
X582Y1664D01*
G37*
D02*
G36*
X464Y1512D02*
X464Y1342D01*
X530Y1342D01*
X530Y1344D01*
X522Y1344D01*
X522Y1346D01*
X520Y1346D01*
X520Y1348D01*
X516Y1348D01*
X516Y1350D01*
X514Y1350D01*
X514Y1352D01*
X510Y1352D01*
X510Y1354D01*
X508Y1354D01*
X508Y1356D01*
X506Y1356D01*
X506Y1358D01*
X504Y1358D01*
X504Y1362D01*
X502Y1362D01*
X502Y1364D01*
X500Y1364D01*
X500Y1368D01*
X498Y1368D01*
X498Y1374D01*
X496Y1374D01*
X496Y1382D01*
X494Y1382D01*
X494Y1396D01*
X496Y1396D01*
X496Y1404D01*
X498Y1404D01*
X498Y1408D01*
X500Y1408D01*
X500Y1412D01*
X502Y1412D01*
X502Y1416D01*
X504Y1416D01*
X504Y1418D01*
X506Y1418D01*
X506Y1420D01*
X508Y1420D01*
X508Y1422D01*
X510Y1422D01*
X510Y1424D01*
X512Y1424D01*
X512Y1426D01*
X514Y1426D01*
X514Y1428D01*
X518Y1428D01*
X518Y1430D01*
X522Y1430D01*
X522Y1432D01*
X526Y1432D01*
X526Y1434D01*
X532Y1434D01*
X532Y1436D01*
X558Y1436D01*
X558Y1438D01*
X560Y1438D01*
X560Y1440D01*
X562Y1440D01*
X562Y1442D01*
X564Y1442D01*
X564Y1444D01*
X566Y1444D01*
X566Y1446D01*
X568Y1446D01*
X568Y1448D01*
X570Y1448D01*
X570Y1450D01*
X572Y1450D01*
X572Y1452D01*
X574Y1452D01*
X574Y1454D01*
X576Y1454D01*
X576Y1456D01*
X578Y1456D01*
X578Y1458D01*
X580Y1458D01*
X580Y1460D01*
X582Y1460D01*
X582Y1462D01*
X584Y1462D01*
X584Y1464D01*
X586Y1464D01*
X586Y1466D01*
X588Y1466D01*
X588Y1468D01*
X590Y1468D01*
X590Y1470D01*
X592Y1470D01*
X592Y1472D01*
X594Y1472D01*
X594Y1474D01*
X596Y1474D01*
X596Y1476D01*
X598Y1476D01*
X598Y1478D01*
X600Y1478D01*
X600Y1480D01*
X602Y1480D01*
X602Y1482D01*
X604Y1482D01*
X604Y1484D01*
X606Y1484D01*
X606Y1486D01*
X608Y1486D01*
X608Y1488D01*
X610Y1488D01*
X610Y1490D01*
X612Y1490D01*
X612Y1492D01*
X614Y1492D01*
X614Y1494D01*
X616Y1494D01*
X616Y1496D01*
X618Y1496D01*
X618Y1498D01*
X620Y1498D01*
X620Y1500D01*
X622Y1500D01*
X622Y1502D01*
X624Y1502D01*
X624Y1506D01*
X628Y1506D01*
X628Y1508D01*
X630Y1508D01*
X630Y1510D01*
X634Y1510D01*
X634Y1512D01*
X464Y1512D01*
G37*
D02*
G36*
X582Y1364D02*
X582Y1362D01*
X580Y1362D01*
X580Y1360D01*
X578Y1360D01*
X578Y1356D01*
X576Y1356D01*
X576Y1354D01*
X574Y1354D01*
X574Y1352D01*
X570Y1352D01*
X570Y1350D01*
X568Y1350D01*
X568Y1348D01*
X564Y1348D01*
X564Y1346D01*
X560Y1346D01*
X560Y1344D01*
X554Y1344D01*
X554Y1342D01*
X630Y1342D01*
X630Y1344D01*
X622Y1344D01*
X622Y1346D01*
X620Y1346D01*
X620Y1348D01*
X616Y1348D01*
X616Y1350D01*
X614Y1350D01*
X614Y1352D01*
X610Y1352D01*
X610Y1354D01*
X608Y1354D01*
X608Y1356D01*
X606Y1356D01*
X606Y1358D01*
X604Y1358D01*
X604Y1362D01*
X602Y1362D01*
X602Y1364D01*
X582Y1364D01*
G37*
D02*
G36*
X464Y1342D02*
X464Y1340D01*
X660Y1340D01*
X660Y1342D01*
X464Y1342D01*
G37*
D02*
G36*
X464Y1342D02*
X464Y1340D01*
X660Y1340D01*
X660Y1342D01*
X464Y1342D01*
G37*
D02*
G36*
X840Y1342D02*
X840Y1322D01*
X842Y1322D01*
X842Y1320D01*
X844Y1320D01*
X844Y1318D01*
X846Y1318D01*
X846Y1316D01*
X848Y1316D01*
X848Y1314D01*
X850Y1314D01*
X850Y1312D01*
X852Y1312D01*
X852Y1310D01*
X854Y1310D01*
X854Y1308D01*
X856Y1308D01*
X856Y1306D01*
X858Y1306D01*
X858Y1304D01*
X860Y1304D01*
X860Y1302D01*
X862Y1302D01*
X862Y1300D01*
X864Y1300D01*
X864Y1298D01*
X866Y1298D01*
X866Y1296D01*
X868Y1296D01*
X868Y1294D01*
X870Y1294D01*
X870Y1292D01*
X872Y1292D01*
X872Y1290D01*
X874Y1290D01*
X874Y1288D01*
X876Y1288D01*
X876Y1286D01*
X878Y1286D01*
X878Y1284D01*
X880Y1284D01*
X880Y1282D01*
X882Y1282D01*
X882Y1280D01*
X884Y1280D01*
X884Y1278D01*
X886Y1278D01*
X886Y1276D01*
X888Y1276D01*
X888Y1274D01*
X890Y1274D01*
X890Y1272D01*
X892Y1272D01*
X892Y1270D01*
X894Y1270D01*
X894Y1268D01*
X938Y1268D01*
X938Y1270D01*
X932Y1270D01*
X932Y1272D01*
X930Y1272D01*
X930Y1274D01*
X928Y1274D01*
X928Y1276D01*
X926Y1276D01*
X926Y1278D01*
X924Y1278D01*
X924Y1280D01*
X922Y1280D01*
X922Y1282D01*
X920Y1282D01*
X920Y1284D01*
X918Y1284D01*
X918Y1286D01*
X916Y1286D01*
X916Y1288D01*
X912Y1288D01*
X912Y1290D01*
X910Y1290D01*
X910Y1292D01*
X908Y1292D01*
X908Y1294D01*
X906Y1294D01*
X906Y1296D01*
X904Y1296D01*
X904Y1298D01*
X902Y1298D01*
X902Y1300D01*
X900Y1300D01*
X900Y1302D01*
X898Y1302D01*
X898Y1304D01*
X896Y1304D01*
X896Y1306D01*
X894Y1306D01*
X894Y1308D01*
X892Y1308D01*
X892Y1310D01*
X890Y1310D01*
X890Y1312D01*
X888Y1312D01*
X888Y1314D01*
X886Y1314D01*
X886Y1316D01*
X884Y1316D01*
X884Y1318D01*
X882Y1318D01*
X882Y1320D01*
X880Y1320D01*
X880Y1322D01*
X878Y1322D01*
X878Y1324D01*
X876Y1324D01*
X876Y1326D01*
X874Y1326D01*
X874Y1328D01*
X872Y1328D01*
X872Y1330D01*
X870Y1330D01*
X870Y1332D01*
X868Y1332D01*
X868Y1334D01*
X866Y1334D01*
X866Y1336D01*
X864Y1336D01*
X864Y1338D01*
X862Y1338D01*
X862Y1340D01*
X860Y1340D01*
X860Y1342D01*
X840Y1342D01*
G37*
D02*
G36*
X464Y1340D02*
X464Y1298D01*
X466Y1298D01*
X466Y1294D01*
X468Y1294D01*
X468Y1292D01*
X470Y1292D01*
X470Y1290D01*
X472Y1290D01*
X472Y1288D01*
X474Y1288D01*
X474Y1286D01*
X476Y1286D01*
X476Y1284D01*
X478Y1284D01*
X478Y1282D01*
X480Y1282D01*
X480Y1280D01*
X482Y1280D01*
X482Y1278D01*
X484Y1278D01*
X484Y1276D01*
X486Y1276D01*
X486Y1274D01*
X488Y1274D01*
X488Y1272D01*
X490Y1272D01*
X490Y1270D01*
X492Y1270D01*
X492Y1268D01*
X494Y1268D01*
X494Y1266D01*
X496Y1266D01*
X496Y1264D01*
X498Y1264D01*
X498Y1262D01*
X500Y1262D01*
X500Y1260D01*
X502Y1260D01*
X502Y1258D01*
X504Y1258D01*
X504Y1256D01*
X506Y1256D01*
X506Y1254D01*
X508Y1254D01*
X508Y1252D01*
X510Y1252D01*
X510Y1250D01*
X512Y1250D01*
X512Y1248D01*
X514Y1248D01*
X514Y1246D01*
X516Y1246D01*
X516Y1244D01*
X518Y1244D01*
X518Y1242D01*
X520Y1242D01*
X520Y1240D01*
X522Y1240D01*
X522Y1238D01*
X524Y1238D01*
X524Y1236D01*
X550Y1236D01*
X550Y1234D01*
X558Y1234D01*
X558Y1232D01*
X562Y1232D01*
X562Y1230D01*
X566Y1230D01*
X566Y1228D01*
X570Y1228D01*
X570Y1226D01*
X572Y1226D01*
X572Y1224D01*
X574Y1224D01*
X574Y1222D01*
X576Y1222D01*
X576Y1220D01*
X578Y1220D01*
X578Y1218D01*
X580Y1218D01*
X580Y1216D01*
X582Y1216D01*
X582Y1212D01*
X584Y1212D01*
X584Y1208D01*
X586Y1208D01*
X586Y1202D01*
X588Y1202D01*
X588Y1194D01*
X590Y1194D01*
X590Y1184D01*
X588Y1184D01*
X588Y1174D01*
X586Y1174D01*
X586Y1168D01*
X584Y1168D01*
X584Y1166D01*
X582Y1166D01*
X582Y1162D01*
X580Y1162D01*
X580Y1160D01*
X578Y1160D01*
X578Y1156D01*
X576Y1156D01*
X576Y1154D01*
X574Y1154D01*
X574Y1152D01*
X570Y1152D01*
X570Y1150D01*
X568Y1150D01*
X568Y1148D01*
X564Y1148D01*
X564Y1146D01*
X560Y1146D01*
X560Y1144D01*
X554Y1144D01*
X554Y1142D01*
X830Y1142D01*
X830Y1144D01*
X822Y1144D01*
X822Y1146D01*
X820Y1146D01*
X820Y1148D01*
X816Y1148D01*
X816Y1150D01*
X814Y1150D01*
X814Y1152D01*
X810Y1152D01*
X810Y1154D01*
X808Y1154D01*
X808Y1156D01*
X806Y1156D01*
X806Y1158D01*
X804Y1158D01*
X804Y1162D01*
X802Y1162D01*
X802Y1164D01*
X800Y1164D01*
X800Y1168D01*
X798Y1168D01*
X798Y1174D01*
X796Y1174D01*
X796Y1182D01*
X794Y1182D01*
X794Y1208D01*
X792Y1208D01*
X792Y1210D01*
X790Y1210D01*
X790Y1212D01*
X788Y1212D01*
X788Y1214D01*
X786Y1214D01*
X786Y1216D01*
X784Y1216D01*
X784Y1218D01*
X782Y1218D01*
X782Y1220D01*
X780Y1220D01*
X780Y1222D01*
X778Y1222D01*
X778Y1224D01*
X776Y1224D01*
X776Y1226D01*
X774Y1226D01*
X774Y1228D01*
X772Y1228D01*
X772Y1230D01*
X770Y1230D01*
X770Y1232D01*
X768Y1232D01*
X768Y1234D01*
X766Y1234D01*
X766Y1236D01*
X764Y1236D01*
X764Y1238D01*
X762Y1238D01*
X762Y1240D01*
X760Y1240D01*
X760Y1242D01*
X758Y1242D01*
X758Y1244D01*
X756Y1244D01*
X756Y1246D01*
X754Y1246D01*
X754Y1248D01*
X752Y1248D01*
X752Y1250D01*
X750Y1250D01*
X750Y1252D01*
X748Y1252D01*
X748Y1254D01*
X746Y1254D01*
X746Y1256D01*
X744Y1256D01*
X744Y1258D01*
X742Y1258D01*
X742Y1260D01*
X740Y1260D01*
X740Y1262D01*
X738Y1262D01*
X738Y1264D01*
X736Y1264D01*
X736Y1268D01*
X734Y1268D01*
X734Y1270D01*
X732Y1270D01*
X732Y1272D01*
X730Y1272D01*
X730Y1274D01*
X728Y1274D01*
X728Y1276D01*
X726Y1276D01*
X726Y1278D01*
X724Y1278D01*
X724Y1280D01*
X722Y1280D01*
X722Y1282D01*
X718Y1282D01*
X718Y1284D01*
X716Y1284D01*
X716Y1286D01*
X714Y1286D01*
X714Y1288D01*
X712Y1288D01*
X712Y1290D01*
X710Y1290D01*
X710Y1292D01*
X708Y1292D01*
X708Y1294D01*
X706Y1294D01*
X706Y1296D01*
X704Y1296D01*
X704Y1298D01*
X702Y1298D01*
X702Y1300D01*
X700Y1300D01*
X700Y1302D01*
X698Y1302D01*
X698Y1304D01*
X696Y1304D01*
X696Y1306D01*
X694Y1306D01*
X694Y1308D01*
X692Y1308D01*
X692Y1310D01*
X690Y1310D01*
X690Y1312D01*
X688Y1312D01*
X688Y1314D01*
X686Y1314D01*
X686Y1316D01*
X684Y1316D01*
X684Y1318D01*
X682Y1318D01*
X682Y1320D01*
X680Y1320D01*
X680Y1322D01*
X678Y1322D01*
X678Y1324D01*
X676Y1324D01*
X676Y1326D01*
X674Y1326D01*
X674Y1328D01*
X672Y1328D01*
X672Y1330D01*
X670Y1330D01*
X670Y1332D01*
X668Y1332D01*
X668Y1334D01*
X666Y1334D01*
X666Y1336D01*
X664Y1336D01*
X664Y1338D01*
X662Y1338D01*
X662Y1340D01*
X464Y1340D01*
G37*
D02*
G36*
X896Y1268D02*
X896Y1266D01*
X1522Y1266D01*
X1522Y1268D01*
X896Y1268D01*
G37*
D02*
G36*
X896Y1268D02*
X896Y1266D01*
X1522Y1266D01*
X1522Y1268D01*
X896Y1268D01*
G37*
D02*
G36*
X898Y1266D02*
X898Y1264D01*
X900Y1264D01*
X900Y1262D01*
X902Y1262D01*
X902Y1260D01*
X904Y1260D01*
X904Y1258D01*
X906Y1258D01*
X906Y1256D01*
X908Y1256D01*
X908Y1254D01*
X910Y1254D01*
X910Y1252D01*
X912Y1252D01*
X912Y1250D01*
X914Y1250D01*
X914Y1248D01*
X916Y1248D01*
X916Y1246D01*
X918Y1246D01*
X918Y1244D01*
X920Y1244D01*
X920Y1242D01*
X922Y1242D01*
X922Y1240D01*
X924Y1240D01*
X924Y1238D01*
X1448Y1238D01*
X1448Y1236D01*
X1456Y1236D01*
X1456Y1234D01*
X1462Y1234D01*
X1462Y1232D01*
X1466Y1232D01*
X1466Y1230D01*
X1470Y1230D01*
X1470Y1228D01*
X1472Y1228D01*
X1472Y1226D01*
X1474Y1226D01*
X1474Y1224D01*
X1476Y1224D01*
X1476Y1222D01*
X1478Y1222D01*
X1478Y1220D01*
X1480Y1220D01*
X1480Y1218D01*
X1482Y1218D01*
X1482Y1214D01*
X1484Y1214D01*
X1484Y1212D01*
X1522Y1212D01*
X1522Y1266D01*
X898Y1266D01*
G37*
D02*
G36*
X926Y1238D02*
X926Y1236D01*
X1150Y1236D01*
X1150Y1234D01*
X1158Y1234D01*
X1158Y1232D01*
X1162Y1232D01*
X1162Y1230D01*
X1166Y1230D01*
X1166Y1228D01*
X1170Y1228D01*
X1170Y1226D01*
X1172Y1226D01*
X1172Y1224D01*
X1174Y1224D01*
X1174Y1222D01*
X1176Y1222D01*
X1176Y1220D01*
X1178Y1220D01*
X1178Y1218D01*
X1180Y1218D01*
X1180Y1216D01*
X1182Y1216D01*
X1182Y1212D01*
X1184Y1212D01*
X1184Y1208D01*
X1186Y1208D01*
X1186Y1202D01*
X1188Y1202D01*
X1188Y1194D01*
X1190Y1194D01*
X1190Y1184D01*
X1188Y1184D01*
X1188Y1174D01*
X1186Y1174D01*
X1186Y1168D01*
X1184Y1168D01*
X1184Y1166D01*
X1182Y1166D01*
X1182Y1162D01*
X1180Y1162D01*
X1180Y1160D01*
X1178Y1160D01*
X1178Y1156D01*
X1176Y1156D01*
X1176Y1154D01*
X1174Y1154D01*
X1174Y1152D01*
X1170Y1152D01*
X1170Y1150D01*
X1168Y1150D01*
X1168Y1148D01*
X1164Y1148D01*
X1164Y1146D01*
X1160Y1146D01*
X1160Y1144D01*
X1154Y1144D01*
X1154Y1142D01*
X1314Y1142D01*
X1314Y1150D01*
X1310Y1150D01*
X1310Y1152D01*
X1308Y1152D01*
X1308Y1154D01*
X1306Y1154D01*
X1306Y1156D01*
X1304Y1156D01*
X1304Y1160D01*
X1302Y1160D01*
X1302Y1162D01*
X1300Y1162D01*
X1300Y1166D01*
X1298Y1166D01*
X1298Y1168D01*
X1296Y1168D01*
X1296Y1176D01*
X1294Y1176D01*
X1294Y1186D01*
X1292Y1186D01*
X1292Y1190D01*
X1294Y1190D01*
X1294Y1202D01*
X1296Y1202D01*
X1296Y1208D01*
X1298Y1208D01*
X1298Y1212D01*
X1300Y1212D01*
X1300Y1216D01*
X1302Y1216D01*
X1302Y1218D01*
X1304Y1218D01*
X1304Y1220D01*
X1306Y1220D01*
X1306Y1222D01*
X1308Y1222D01*
X1308Y1224D01*
X1310Y1224D01*
X1310Y1226D01*
X1312Y1226D01*
X1312Y1228D01*
X1314Y1228D01*
X1314Y1230D01*
X1318Y1230D01*
X1318Y1232D01*
X1322Y1232D01*
X1322Y1234D01*
X1328Y1234D01*
X1328Y1236D01*
X1336Y1236D01*
X1336Y1238D01*
X926Y1238D01*
G37*
D02*
G36*
X1348Y1238D02*
X1348Y1236D01*
X1356Y1236D01*
X1356Y1234D01*
X1362Y1234D01*
X1362Y1232D01*
X1366Y1232D01*
X1366Y1230D01*
X1370Y1230D01*
X1370Y1228D01*
X1372Y1228D01*
X1372Y1226D01*
X1374Y1226D01*
X1374Y1224D01*
X1376Y1224D01*
X1376Y1222D01*
X1378Y1222D01*
X1378Y1220D01*
X1380Y1220D01*
X1380Y1218D01*
X1382Y1218D01*
X1382Y1216D01*
X1402Y1216D01*
X1402Y1218D01*
X1404Y1218D01*
X1404Y1220D01*
X1406Y1220D01*
X1406Y1222D01*
X1408Y1222D01*
X1408Y1224D01*
X1410Y1224D01*
X1410Y1226D01*
X1412Y1226D01*
X1412Y1228D01*
X1414Y1228D01*
X1414Y1230D01*
X1418Y1230D01*
X1418Y1232D01*
X1422Y1232D01*
X1422Y1234D01*
X1428Y1234D01*
X1428Y1236D01*
X1436Y1236D01*
X1436Y1238D01*
X1348Y1238D01*
G37*
D02*
G36*
X928Y1236D02*
X928Y1234D01*
X930Y1234D01*
X930Y1232D01*
X932Y1232D01*
X932Y1230D01*
X934Y1230D01*
X934Y1228D01*
X936Y1228D01*
X936Y1226D01*
X938Y1226D01*
X938Y1224D01*
X940Y1224D01*
X940Y1222D01*
X942Y1222D01*
X942Y1220D01*
X944Y1220D01*
X944Y1218D01*
X946Y1218D01*
X946Y1216D01*
X948Y1216D01*
X948Y1214D01*
X950Y1214D01*
X950Y1212D01*
X952Y1212D01*
X952Y1210D01*
X1100Y1210D01*
X1100Y1212D01*
X1102Y1212D01*
X1102Y1216D01*
X1104Y1216D01*
X1104Y1218D01*
X1106Y1218D01*
X1106Y1220D01*
X1108Y1220D01*
X1108Y1222D01*
X1110Y1222D01*
X1110Y1224D01*
X1112Y1224D01*
X1112Y1226D01*
X1114Y1226D01*
X1114Y1228D01*
X1118Y1228D01*
X1118Y1230D01*
X1122Y1230D01*
X1122Y1232D01*
X1126Y1232D01*
X1126Y1234D01*
X1132Y1234D01*
X1132Y1236D01*
X928Y1236D01*
G37*
D02*
G36*
X890Y1192D02*
X890Y1184D01*
X888Y1184D01*
X888Y1174D01*
X886Y1174D01*
X886Y1168D01*
X884Y1168D01*
X884Y1166D01*
X882Y1166D01*
X882Y1162D01*
X880Y1162D01*
X880Y1160D01*
X878Y1160D01*
X878Y1156D01*
X876Y1156D01*
X876Y1154D01*
X874Y1154D01*
X874Y1152D01*
X870Y1152D01*
X870Y1150D01*
X868Y1150D01*
X868Y1148D01*
X864Y1148D01*
X864Y1146D01*
X860Y1146D01*
X860Y1144D01*
X854Y1144D01*
X854Y1142D01*
X1130Y1142D01*
X1130Y1144D01*
X1122Y1144D01*
X1122Y1146D01*
X1120Y1146D01*
X1120Y1148D01*
X1116Y1148D01*
X1116Y1150D01*
X1114Y1150D01*
X1114Y1152D01*
X1110Y1152D01*
X1110Y1154D01*
X1108Y1154D01*
X1108Y1156D01*
X1106Y1156D01*
X1106Y1158D01*
X1104Y1158D01*
X1104Y1162D01*
X1102Y1162D01*
X1102Y1164D01*
X1100Y1164D01*
X1100Y1166D01*
X936Y1166D01*
X936Y1168D01*
X932Y1168D01*
X932Y1170D01*
X930Y1170D01*
X930Y1172D01*
X928Y1172D01*
X928Y1174D01*
X926Y1174D01*
X926Y1176D01*
X924Y1176D01*
X924Y1178D01*
X922Y1178D01*
X922Y1180D01*
X920Y1180D01*
X920Y1182D01*
X918Y1182D01*
X918Y1184D01*
X916Y1184D01*
X916Y1186D01*
X914Y1186D01*
X914Y1188D01*
X912Y1188D01*
X912Y1190D01*
X910Y1190D01*
X910Y1192D01*
X890Y1192D01*
G37*
D02*
G36*
X40Y1142D02*
X40Y1140D01*
X1314Y1140D01*
X1314Y1142D01*
X40Y1142D01*
G37*
D02*
G36*
X40Y1142D02*
X40Y1140D01*
X1314Y1140D01*
X1314Y1142D01*
X40Y1142D01*
G37*
D02*
G36*
X40Y1142D02*
X40Y1140D01*
X1314Y1140D01*
X1314Y1142D01*
X40Y1142D01*
G37*
D02*
G36*
X40Y1142D02*
X40Y1140D01*
X1314Y1140D01*
X1314Y1142D01*
X40Y1142D01*
G37*
D02*
G36*
X40Y1140D02*
X40Y1136D01*
X1250Y1136D01*
X1250Y1134D01*
X1258Y1134D01*
X1258Y1132D01*
X1262Y1132D01*
X1262Y1130D01*
X1266Y1130D01*
X1266Y1128D01*
X1270Y1128D01*
X1270Y1126D01*
X1272Y1126D01*
X1272Y1124D01*
X1274Y1124D01*
X1274Y1122D01*
X1276Y1122D01*
X1276Y1120D01*
X1278Y1120D01*
X1278Y1118D01*
X1280Y1118D01*
X1280Y1116D01*
X1302Y1116D01*
X1302Y1118D01*
X1304Y1118D01*
X1304Y1120D01*
X1306Y1120D01*
X1306Y1122D01*
X1308Y1122D01*
X1308Y1124D01*
X1310Y1124D01*
X1310Y1126D01*
X1312Y1126D01*
X1312Y1128D01*
X1314Y1128D01*
X1314Y1140D01*
X40Y1140D01*
G37*
D02*
G36*
X40Y1136D02*
X40Y340D01*
X60Y340D01*
X60Y342D01*
X62Y342D01*
X62Y344D01*
X64Y344D01*
X64Y346D01*
X66Y346D01*
X66Y348D01*
X68Y348D01*
X68Y350D01*
X70Y350D01*
X70Y352D01*
X72Y352D01*
X72Y354D01*
X74Y354D01*
X74Y356D01*
X76Y356D01*
X76Y358D01*
X78Y358D01*
X78Y360D01*
X80Y360D01*
X80Y362D01*
X82Y362D01*
X82Y364D01*
X84Y364D01*
X84Y366D01*
X86Y366D01*
X86Y368D01*
X88Y368D01*
X88Y370D01*
X90Y370D01*
X90Y372D01*
X92Y372D01*
X92Y374D01*
X94Y374D01*
X94Y376D01*
X96Y376D01*
X96Y378D01*
X98Y378D01*
X98Y380D01*
X100Y380D01*
X100Y382D01*
X102Y382D01*
X102Y384D01*
X104Y384D01*
X104Y386D01*
X106Y386D01*
X106Y388D01*
X108Y388D01*
X108Y390D01*
X110Y390D01*
X110Y392D01*
X112Y392D01*
X112Y394D01*
X114Y394D01*
X114Y396D01*
X116Y396D01*
X116Y398D01*
X118Y398D01*
X118Y400D01*
X120Y400D01*
X120Y402D01*
X122Y402D01*
X122Y404D01*
X124Y404D01*
X124Y406D01*
X126Y406D01*
X126Y408D01*
X128Y408D01*
X128Y410D01*
X130Y410D01*
X130Y412D01*
X132Y412D01*
X132Y414D01*
X134Y414D01*
X134Y416D01*
X136Y416D01*
X136Y418D01*
X138Y418D01*
X138Y420D01*
X140Y420D01*
X140Y422D01*
X142Y422D01*
X142Y424D01*
X144Y424D01*
X144Y426D01*
X146Y426D01*
X146Y428D01*
X148Y428D01*
X148Y430D01*
X150Y430D01*
X150Y432D01*
X152Y432D01*
X152Y434D01*
X154Y434D01*
X154Y436D01*
X156Y436D01*
X156Y438D01*
X158Y438D01*
X158Y440D01*
X160Y440D01*
X160Y442D01*
X162Y442D01*
X162Y444D01*
X164Y444D01*
X164Y446D01*
X166Y446D01*
X166Y448D01*
X168Y448D01*
X168Y450D01*
X170Y450D01*
X170Y452D01*
X172Y452D01*
X172Y454D01*
X174Y454D01*
X174Y456D01*
X176Y456D01*
X176Y458D01*
X178Y458D01*
X178Y460D01*
X180Y460D01*
X180Y462D01*
X182Y462D01*
X182Y464D01*
X184Y464D01*
X184Y466D01*
X186Y466D01*
X186Y468D01*
X188Y468D01*
X188Y470D01*
X190Y470D01*
X190Y472D01*
X192Y472D01*
X192Y474D01*
X194Y474D01*
X194Y476D01*
X196Y476D01*
X196Y478D01*
X198Y478D01*
X198Y480D01*
X200Y480D01*
X200Y482D01*
X202Y482D01*
X202Y484D01*
X204Y484D01*
X204Y486D01*
X206Y486D01*
X206Y488D01*
X208Y488D01*
X208Y490D01*
X210Y490D01*
X210Y492D01*
X212Y492D01*
X212Y494D01*
X214Y494D01*
X214Y496D01*
X216Y496D01*
X216Y498D01*
X218Y498D01*
X218Y500D01*
X220Y500D01*
X220Y502D01*
X222Y502D01*
X222Y504D01*
X224Y504D01*
X224Y506D01*
X226Y506D01*
X226Y508D01*
X228Y508D01*
X228Y510D01*
X230Y510D01*
X230Y512D01*
X232Y512D01*
X232Y514D01*
X234Y514D01*
X234Y516D01*
X236Y516D01*
X236Y518D01*
X238Y518D01*
X238Y520D01*
X240Y520D01*
X240Y522D01*
X242Y522D01*
X242Y524D01*
X244Y524D01*
X244Y526D01*
X246Y526D01*
X246Y528D01*
X248Y528D01*
X248Y530D01*
X250Y530D01*
X250Y532D01*
X252Y532D01*
X252Y534D01*
X254Y534D01*
X254Y536D01*
X256Y536D01*
X256Y538D01*
X258Y538D01*
X258Y540D01*
X260Y540D01*
X260Y542D01*
X262Y542D01*
X262Y544D01*
X264Y544D01*
X264Y546D01*
X266Y546D01*
X266Y548D01*
X268Y548D01*
X268Y550D01*
X270Y550D01*
X270Y552D01*
X272Y552D01*
X272Y554D01*
X274Y554D01*
X274Y556D01*
X276Y556D01*
X276Y558D01*
X278Y558D01*
X278Y560D01*
X280Y560D01*
X280Y562D01*
X282Y562D01*
X282Y564D01*
X284Y564D01*
X284Y566D01*
X286Y566D01*
X286Y568D01*
X288Y568D01*
X288Y570D01*
X290Y570D01*
X290Y572D01*
X292Y572D01*
X292Y574D01*
X294Y574D01*
X294Y576D01*
X296Y576D01*
X296Y578D01*
X298Y578D01*
X298Y580D01*
X300Y580D01*
X300Y582D01*
X302Y582D01*
X302Y584D01*
X304Y584D01*
X304Y586D01*
X306Y586D01*
X306Y588D01*
X308Y588D01*
X308Y590D01*
X310Y590D01*
X310Y592D01*
X312Y592D01*
X312Y594D01*
X314Y594D01*
X314Y596D01*
X316Y596D01*
X316Y598D01*
X318Y598D01*
X318Y792D01*
X320Y792D01*
X320Y798D01*
X322Y798D01*
X322Y800D01*
X324Y800D01*
X324Y802D01*
X326Y802D01*
X326Y804D01*
X328Y804D01*
X328Y806D01*
X330Y806D01*
X330Y808D01*
X332Y808D01*
X332Y810D01*
X334Y810D01*
X334Y812D01*
X336Y812D01*
X336Y814D01*
X338Y814D01*
X338Y816D01*
X340Y816D01*
X340Y818D01*
X342Y818D01*
X342Y820D01*
X344Y820D01*
X344Y822D01*
X346Y822D01*
X346Y824D01*
X348Y824D01*
X348Y826D01*
X350Y826D01*
X350Y828D01*
X352Y828D01*
X352Y830D01*
X354Y830D01*
X354Y832D01*
X356Y832D01*
X356Y834D01*
X358Y834D01*
X358Y836D01*
X360Y836D01*
X360Y838D01*
X362Y838D01*
X362Y840D01*
X364Y840D01*
X364Y842D01*
X366Y842D01*
X366Y844D01*
X368Y844D01*
X368Y846D01*
X370Y846D01*
X370Y848D01*
X372Y848D01*
X372Y850D01*
X374Y850D01*
X374Y852D01*
X376Y852D01*
X376Y854D01*
X378Y854D01*
X378Y856D01*
X380Y856D01*
X380Y858D01*
X382Y858D01*
X382Y860D01*
X384Y860D01*
X384Y862D01*
X386Y862D01*
X386Y864D01*
X388Y864D01*
X388Y866D01*
X390Y866D01*
X390Y868D01*
X392Y868D01*
X392Y870D01*
X394Y870D01*
X394Y872D01*
X396Y872D01*
X396Y874D01*
X398Y874D01*
X398Y876D01*
X400Y876D01*
X400Y878D01*
X402Y878D01*
X402Y880D01*
X404Y880D01*
X404Y882D01*
X406Y882D01*
X406Y884D01*
X408Y884D01*
X408Y886D01*
X410Y886D01*
X410Y888D01*
X412Y888D01*
X412Y890D01*
X414Y890D01*
X414Y892D01*
X416Y892D01*
X416Y894D01*
X418Y894D01*
X418Y896D01*
X420Y896D01*
X420Y898D01*
X422Y898D01*
X422Y900D01*
X424Y900D01*
X424Y902D01*
X426Y902D01*
X426Y904D01*
X428Y904D01*
X428Y906D01*
X430Y906D01*
X430Y908D01*
X432Y908D01*
X432Y910D01*
X434Y910D01*
X434Y912D01*
X436Y912D01*
X436Y914D01*
X438Y914D01*
X438Y916D01*
X440Y916D01*
X440Y918D01*
X442Y918D01*
X442Y920D01*
X444Y920D01*
X444Y922D01*
X446Y922D01*
X446Y924D01*
X448Y924D01*
X448Y926D01*
X450Y926D01*
X450Y928D01*
X452Y928D01*
X452Y930D01*
X454Y930D01*
X454Y932D01*
X456Y932D01*
X456Y934D01*
X458Y934D01*
X458Y936D01*
X460Y936D01*
X460Y938D01*
X462Y938D01*
X462Y940D01*
X464Y940D01*
X464Y942D01*
X466Y942D01*
X466Y944D01*
X468Y944D01*
X468Y946D01*
X470Y946D01*
X470Y948D01*
X472Y948D01*
X472Y950D01*
X474Y950D01*
X474Y952D01*
X476Y952D01*
X476Y954D01*
X478Y954D01*
X478Y956D01*
X480Y956D01*
X480Y958D01*
X482Y958D01*
X482Y960D01*
X484Y960D01*
X484Y962D01*
X486Y962D01*
X486Y964D01*
X488Y964D01*
X488Y966D01*
X490Y966D01*
X490Y968D01*
X492Y968D01*
X492Y970D01*
X494Y970D01*
X494Y972D01*
X496Y972D01*
X496Y974D01*
X498Y974D01*
X498Y976D01*
X500Y976D01*
X500Y978D01*
X502Y978D01*
X502Y980D01*
X504Y980D01*
X504Y982D01*
X506Y982D01*
X506Y984D01*
X508Y984D01*
X508Y986D01*
X510Y986D01*
X510Y988D01*
X512Y988D01*
X512Y990D01*
X514Y990D01*
X514Y992D01*
X516Y992D01*
X516Y994D01*
X518Y994D01*
X518Y996D01*
X520Y996D01*
X520Y998D01*
X522Y998D01*
X522Y1000D01*
X524Y1000D01*
X524Y1002D01*
X526Y1002D01*
X526Y1004D01*
X528Y1004D01*
X528Y1006D01*
X530Y1006D01*
X530Y1008D01*
X532Y1008D01*
X532Y1010D01*
X534Y1010D01*
X534Y1012D01*
X536Y1012D01*
X536Y1014D01*
X538Y1014D01*
X538Y1016D01*
X540Y1016D01*
X540Y1018D01*
X542Y1018D01*
X542Y1020D01*
X544Y1020D01*
X544Y1022D01*
X546Y1022D01*
X546Y1024D01*
X548Y1024D01*
X548Y1026D01*
X550Y1026D01*
X550Y1028D01*
X552Y1028D01*
X552Y1030D01*
X554Y1030D01*
X554Y1032D01*
X556Y1032D01*
X556Y1034D01*
X558Y1034D01*
X558Y1036D01*
X560Y1036D01*
X560Y1038D01*
X562Y1038D01*
X562Y1040D01*
X564Y1040D01*
X564Y1042D01*
X566Y1042D01*
X566Y1044D01*
X568Y1044D01*
X568Y1046D01*
X570Y1046D01*
X570Y1048D01*
X572Y1048D01*
X572Y1050D01*
X574Y1050D01*
X574Y1052D01*
X576Y1052D01*
X576Y1054D01*
X578Y1054D01*
X578Y1056D01*
X580Y1056D01*
X580Y1058D01*
X582Y1058D01*
X582Y1060D01*
X584Y1060D01*
X584Y1062D01*
X586Y1062D01*
X586Y1064D01*
X588Y1064D01*
X588Y1066D01*
X590Y1066D01*
X590Y1068D01*
X592Y1068D01*
X592Y1070D01*
X594Y1070D01*
X594Y1096D01*
X596Y1096D01*
X596Y1104D01*
X598Y1104D01*
X598Y1108D01*
X600Y1108D01*
X600Y1112D01*
X602Y1112D01*
X602Y1116D01*
X604Y1116D01*
X604Y1118D01*
X606Y1118D01*
X606Y1120D01*
X608Y1120D01*
X608Y1122D01*
X610Y1122D01*
X610Y1124D01*
X612Y1124D01*
X612Y1126D01*
X614Y1126D01*
X614Y1128D01*
X618Y1128D01*
X618Y1130D01*
X622Y1130D01*
X622Y1132D01*
X626Y1132D01*
X626Y1134D01*
X632Y1134D01*
X632Y1136D01*
X40Y1136D01*
G37*
D02*
G36*
X650Y1136D02*
X650Y1134D01*
X658Y1134D01*
X658Y1132D01*
X662Y1132D01*
X662Y1130D01*
X666Y1130D01*
X666Y1128D01*
X670Y1128D01*
X670Y1126D01*
X672Y1126D01*
X672Y1124D01*
X674Y1124D01*
X674Y1122D01*
X676Y1122D01*
X676Y1120D01*
X678Y1120D01*
X678Y1118D01*
X680Y1118D01*
X680Y1116D01*
X682Y1116D01*
X682Y1112D01*
X684Y1112D01*
X684Y1110D01*
X900Y1110D01*
X900Y1112D01*
X902Y1112D01*
X902Y1116D01*
X904Y1116D01*
X904Y1118D01*
X906Y1118D01*
X906Y1120D01*
X908Y1120D01*
X908Y1122D01*
X910Y1122D01*
X910Y1124D01*
X912Y1124D01*
X912Y1126D01*
X914Y1126D01*
X914Y1128D01*
X918Y1128D01*
X918Y1130D01*
X922Y1130D01*
X922Y1132D01*
X926Y1132D01*
X926Y1134D01*
X932Y1134D01*
X932Y1136D01*
X650Y1136D01*
G37*
D02*
G36*
X950Y1136D02*
X950Y1134D01*
X958Y1134D01*
X958Y1132D01*
X962Y1132D01*
X962Y1130D01*
X966Y1130D01*
X966Y1128D01*
X970Y1128D01*
X970Y1126D01*
X972Y1126D01*
X972Y1124D01*
X974Y1124D01*
X974Y1122D01*
X976Y1122D01*
X976Y1120D01*
X978Y1120D01*
X978Y1118D01*
X980Y1118D01*
X980Y1116D01*
X982Y1116D01*
X982Y1112D01*
X984Y1112D01*
X984Y1110D01*
X1200Y1110D01*
X1200Y1112D01*
X1202Y1112D01*
X1202Y1116D01*
X1204Y1116D01*
X1204Y1118D01*
X1206Y1118D01*
X1206Y1120D01*
X1208Y1120D01*
X1208Y1122D01*
X1210Y1122D01*
X1210Y1124D01*
X1212Y1124D01*
X1212Y1126D01*
X1214Y1126D01*
X1214Y1128D01*
X1218Y1128D01*
X1218Y1130D01*
X1222Y1130D01*
X1222Y1132D01*
X1226Y1132D01*
X1226Y1134D01*
X1232Y1134D01*
X1232Y1136D01*
X950Y1136D01*
G37*
D02*
G36*
X1064Y868D02*
X1064Y866D01*
X1122Y866D01*
X1122Y868D01*
X1064Y868D01*
G37*
D02*
G36*
X1064Y866D02*
X1064Y864D01*
X1634Y864D01*
X1634Y866D01*
X1064Y866D01*
G37*
D02*
G36*
X1064Y866D02*
X1064Y864D01*
X1634Y864D01*
X1634Y866D01*
X1064Y866D01*
G37*
D02*
G36*
X1064Y864D02*
X1064Y836D01*
X1150Y836D01*
X1150Y834D01*
X1158Y834D01*
X1158Y832D01*
X1162Y832D01*
X1162Y830D01*
X1166Y830D01*
X1166Y828D01*
X1170Y828D01*
X1170Y826D01*
X1172Y826D01*
X1172Y824D01*
X1174Y824D01*
X1174Y822D01*
X1176Y822D01*
X1176Y820D01*
X1178Y820D01*
X1178Y818D01*
X1180Y818D01*
X1180Y816D01*
X1182Y816D01*
X1182Y812D01*
X1184Y812D01*
X1184Y808D01*
X1186Y808D01*
X1186Y802D01*
X1188Y802D01*
X1188Y794D01*
X1190Y794D01*
X1190Y784D01*
X1188Y784D01*
X1188Y774D01*
X1186Y774D01*
X1186Y768D01*
X1184Y768D01*
X1184Y766D01*
X1182Y766D01*
X1182Y762D01*
X1180Y762D01*
X1180Y760D01*
X1178Y760D01*
X1178Y756D01*
X1176Y756D01*
X1176Y754D01*
X1174Y754D01*
X1174Y752D01*
X1170Y752D01*
X1170Y750D01*
X1168Y750D01*
X1168Y748D01*
X1164Y748D01*
X1164Y736D01*
X1250Y736D01*
X1250Y734D01*
X1258Y734D01*
X1258Y732D01*
X1262Y732D01*
X1262Y730D01*
X1266Y730D01*
X1266Y728D01*
X1270Y728D01*
X1270Y726D01*
X1272Y726D01*
X1272Y724D01*
X1274Y724D01*
X1274Y722D01*
X1276Y722D01*
X1276Y720D01*
X1278Y720D01*
X1278Y718D01*
X1280Y718D01*
X1280Y716D01*
X1282Y716D01*
X1282Y712D01*
X1284Y712D01*
X1284Y708D01*
X1286Y708D01*
X1286Y702D01*
X1288Y702D01*
X1288Y694D01*
X1290Y694D01*
X1290Y684D01*
X1288Y684D01*
X1288Y674D01*
X1286Y674D01*
X1286Y668D01*
X1284Y668D01*
X1284Y666D01*
X1282Y666D01*
X1282Y662D01*
X1280Y662D01*
X1280Y660D01*
X1278Y660D01*
X1278Y656D01*
X1276Y656D01*
X1276Y654D01*
X1274Y654D01*
X1274Y652D01*
X1270Y652D01*
X1270Y650D01*
X1268Y650D01*
X1268Y648D01*
X1266Y648D01*
X1266Y628D01*
X1270Y628D01*
X1270Y626D01*
X1272Y626D01*
X1272Y624D01*
X1274Y624D01*
X1274Y622D01*
X1276Y622D01*
X1276Y620D01*
X1278Y620D01*
X1278Y618D01*
X1280Y618D01*
X1280Y616D01*
X1282Y616D01*
X1282Y612D01*
X1284Y612D01*
X1284Y608D01*
X1286Y608D01*
X1286Y602D01*
X1288Y602D01*
X1288Y594D01*
X1290Y594D01*
X1290Y584D01*
X1288Y584D01*
X1288Y574D01*
X1286Y574D01*
X1286Y568D01*
X1284Y568D01*
X1284Y566D01*
X1282Y566D01*
X1282Y562D01*
X1280Y562D01*
X1280Y560D01*
X1278Y560D01*
X1278Y556D01*
X1276Y556D01*
X1276Y554D01*
X1274Y554D01*
X1274Y552D01*
X1270Y552D01*
X1270Y550D01*
X1268Y550D01*
X1268Y548D01*
X1264Y548D01*
X1264Y496D01*
X1266Y496D01*
X1266Y494D01*
X1268Y494D01*
X1268Y492D01*
X1270Y492D01*
X1270Y490D01*
X1272Y490D01*
X1272Y488D01*
X1274Y488D01*
X1274Y486D01*
X1276Y486D01*
X1276Y484D01*
X1278Y484D01*
X1278Y482D01*
X1280Y482D01*
X1280Y480D01*
X1282Y480D01*
X1282Y478D01*
X1284Y478D01*
X1284Y476D01*
X1286Y476D01*
X1286Y474D01*
X1288Y474D01*
X1288Y472D01*
X1290Y472D01*
X1290Y470D01*
X1292Y470D01*
X1292Y468D01*
X1294Y468D01*
X1294Y466D01*
X1296Y466D01*
X1296Y464D01*
X1298Y464D01*
X1298Y462D01*
X1300Y462D01*
X1300Y460D01*
X1302Y460D01*
X1302Y458D01*
X1304Y458D01*
X1304Y454D01*
X1306Y454D01*
X1306Y452D01*
X1308Y452D01*
X1308Y450D01*
X1310Y450D01*
X1310Y448D01*
X1312Y448D01*
X1312Y446D01*
X1314Y446D01*
X1314Y444D01*
X1316Y444D01*
X1316Y442D01*
X1318Y442D01*
X1318Y440D01*
X1320Y440D01*
X1320Y438D01*
X1322Y438D01*
X1322Y436D01*
X1324Y436D01*
X1324Y434D01*
X1326Y434D01*
X1326Y432D01*
X1328Y432D01*
X1328Y430D01*
X1330Y430D01*
X1330Y428D01*
X1332Y428D01*
X1332Y426D01*
X1334Y426D01*
X1334Y424D01*
X1336Y424D01*
X1336Y422D01*
X1338Y422D01*
X1338Y420D01*
X1340Y420D01*
X1340Y418D01*
X1342Y418D01*
X1342Y416D01*
X1344Y416D01*
X1344Y414D01*
X1346Y414D01*
X1346Y412D01*
X1348Y412D01*
X1348Y410D01*
X1350Y410D01*
X1350Y408D01*
X1548Y408D01*
X1548Y406D01*
X1552Y406D01*
X1552Y404D01*
X1554Y404D01*
X1554Y402D01*
X1556Y402D01*
X1556Y400D01*
X1558Y400D01*
X1558Y398D01*
X1560Y398D01*
X1560Y394D01*
X1562Y394D01*
X1562Y340D01*
X1592Y340D01*
X1592Y238D01*
X1634Y238D01*
X1634Y864D01*
X1064Y864D01*
G37*
D02*
G36*
X1064Y836D02*
X1064Y630D01*
X1066Y630D01*
X1066Y628D01*
X1070Y628D01*
X1070Y626D01*
X1072Y626D01*
X1072Y624D01*
X1074Y624D01*
X1074Y622D01*
X1076Y622D01*
X1076Y620D01*
X1078Y620D01*
X1078Y618D01*
X1080Y618D01*
X1080Y616D01*
X1082Y616D01*
X1082Y612D01*
X1102Y612D01*
X1102Y616D01*
X1104Y616D01*
X1104Y618D01*
X1106Y618D01*
X1106Y620D01*
X1108Y620D01*
X1108Y622D01*
X1110Y622D01*
X1110Y624D01*
X1112Y624D01*
X1112Y626D01*
X1114Y626D01*
X1114Y628D01*
X1118Y628D01*
X1118Y630D01*
X1120Y630D01*
X1120Y748D01*
X1116Y748D01*
X1116Y750D01*
X1114Y750D01*
X1114Y752D01*
X1110Y752D01*
X1110Y754D01*
X1108Y754D01*
X1108Y756D01*
X1106Y756D01*
X1106Y758D01*
X1104Y758D01*
X1104Y762D01*
X1102Y762D01*
X1102Y764D01*
X1100Y764D01*
X1100Y768D01*
X1098Y768D01*
X1098Y774D01*
X1096Y774D01*
X1096Y782D01*
X1094Y782D01*
X1094Y796D01*
X1096Y796D01*
X1096Y804D01*
X1098Y804D01*
X1098Y808D01*
X1100Y808D01*
X1100Y812D01*
X1102Y812D01*
X1102Y816D01*
X1104Y816D01*
X1104Y818D01*
X1106Y818D01*
X1106Y820D01*
X1108Y820D01*
X1108Y822D01*
X1110Y822D01*
X1110Y824D01*
X1112Y824D01*
X1112Y826D01*
X1114Y826D01*
X1114Y828D01*
X1118Y828D01*
X1118Y830D01*
X1122Y830D01*
X1122Y832D01*
X1126Y832D01*
X1126Y834D01*
X1132Y834D01*
X1132Y836D01*
X1064Y836D01*
G37*
D02*
G36*
X1164Y736D02*
X1164Y630D01*
X1166Y630D01*
X1166Y628D01*
X1170Y628D01*
X1170Y626D01*
X1172Y626D01*
X1172Y624D01*
X1174Y624D01*
X1174Y622D01*
X1176Y622D01*
X1176Y620D01*
X1178Y620D01*
X1178Y618D01*
X1180Y618D01*
X1180Y616D01*
X1182Y616D01*
X1182Y612D01*
X1202Y612D01*
X1202Y616D01*
X1204Y616D01*
X1204Y618D01*
X1206Y618D01*
X1206Y620D01*
X1208Y620D01*
X1208Y622D01*
X1210Y622D01*
X1210Y624D01*
X1212Y624D01*
X1212Y626D01*
X1214Y626D01*
X1214Y628D01*
X1218Y628D01*
X1218Y648D01*
X1216Y648D01*
X1216Y650D01*
X1214Y650D01*
X1214Y652D01*
X1210Y652D01*
X1210Y654D01*
X1208Y654D01*
X1208Y656D01*
X1206Y656D01*
X1206Y658D01*
X1204Y658D01*
X1204Y662D01*
X1202Y662D01*
X1202Y664D01*
X1200Y664D01*
X1200Y668D01*
X1198Y668D01*
X1198Y674D01*
X1196Y674D01*
X1196Y682D01*
X1194Y682D01*
X1194Y696D01*
X1196Y696D01*
X1196Y704D01*
X1198Y704D01*
X1198Y708D01*
X1200Y708D01*
X1200Y712D01*
X1202Y712D01*
X1202Y716D01*
X1204Y716D01*
X1204Y718D01*
X1206Y718D01*
X1206Y720D01*
X1208Y720D01*
X1208Y722D01*
X1210Y722D01*
X1210Y724D01*
X1212Y724D01*
X1212Y726D01*
X1214Y726D01*
X1214Y728D01*
X1218Y728D01*
X1218Y730D01*
X1222Y730D01*
X1222Y732D01*
X1226Y732D01*
X1226Y734D01*
X1232Y734D01*
X1232Y736D01*
X1164Y736D01*
G37*
D02*
G36*
X1468Y246D02*
X1468Y244D01*
X1464Y244D01*
X1464Y242D01*
X1460Y242D01*
X1460Y240D01*
X1454Y240D01*
X1454Y238D01*
X1490Y238D01*
X1490Y246D01*
X1468Y246D01*
G37*
D02*
G36*
X1422Y238D02*
X1422Y236D01*
X1634Y236D01*
X1634Y238D01*
X1422Y238D01*
G37*
D02*
G36*
X1422Y238D02*
X1422Y236D01*
X1634Y236D01*
X1634Y238D01*
X1422Y238D01*
G37*
D02*
G36*
X1420Y236D02*
X1420Y234D01*
X1418Y234D01*
X1418Y232D01*
X1416Y232D01*
X1416Y230D01*
X1414Y230D01*
X1414Y228D01*
X1412Y228D01*
X1412Y226D01*
X1410Y226D01*
X1410Y224D01*
X1408Y224D01*
X1408Y222D01*
X1406Y222D01*
X1406Y220D01*
X1404Y220D01*
X1404Y218D01*
X1402Y218D01*
X1402Y216D01*
X1400Y216D01*
X1400Y214D01*
X1398Y214D01*
X1398Y212D01*
X1396Y212D01*
X1396Y210D01*
X1394Y210D01*
X1394Y208D01*
X1392Y208D01*
X1392Y206D01*
X1390Y206D01*
X1390Y204D01*
X1388Y204D01*
X1388Y202D01*
X1386Y202D01*
X1386Y200D01*
X1384Y200D01*
X1384Y198D01*
X1382Y198D01*
X1382Y196D01*
X1380Y196D01*
X1380Y194D01*
X1378Y194D01*
X1378Y192D01*
X1376Y192D01*
X1376Y190D01*
X1374Y190D01*
X1374Y188D01*
X1372Y188D01*
X1372Y186D01*
X1370Y186D01*
X1370Y184D01*
X1368Y184D01*
X1368Y182D01*
X1366Y182D01*
X1366Y180D01*
X1364Y180D01*
X1364Y178D01*
X1362Y178D01*
X1362Y176D01*
X1360Y176D01*
X1360Y174D01*
X1358Y174D01*
X1358Y172D01*
X1356Y172D01*
X1356Y170D01*
X1352Y170D01*
X1352Y168D01*
X1348Y168D01*
X1348Y166D01*
X1050Y166D01*
X1050Y164D01*
X1048Y164D01*
X1048Y162D01*
X1046Y162D01*
X1046Y160D01*
X1044Y160D01*
X1044Y158D01*
X1042Y158D01*
X1042Y156D01*
X1040Y156D01*
X1040Y154D01*
X1038Y154D01*
X1038Y152D01*
X1036Y152D01*
X1036Y150D01*
X1034Y150D01*
X1034Y148D01*
X1032Y148D01*
X1032Y146D01*
X1030Y146D01*
X1030Y144D01*
X1028Y144D01*
X1028Y142D01*
X1026Y142D01*
X1026Y140D01*
X1024Y140D01*
X1024Y138D01*
X1022Y138D01*
X1022Y136D01*
X1020Y136D01*
X1020Y134D01*
X1018Y134D01*
X1018Y132D01*
X1016Y132D01*
X1016Y130D01*
X1014Y130D01*
X1014Y128D01*
X1012Y128D01*
X1012Y126D01*
X1010Y126D01*
X1010Y124D01*
X1008Y124D01*
X1008Y122D01*
X1006Y122D01*
X1006Y120D01*
X1004Y120D01*
X1004Y118D01*
X1002Y118D01*
X1002Y116D01*
X1000Y116D01*
X1000Y114D01*
X998Y114D01*
X998Y112D01*
X996Y112D01*
X996Y110D01*
X994Y110D01*
X994Y108D01*
X992Y108D01*
X992Y106D01*
X990Y106D01*
X990Y76D01*
X988Y76D01*
X988Y70D01*
X986Y70D01*
X986Y66D01*
X984Y66D01*
X984Y62D01*
X982Y62D01*
X982Y42D01*
X1634Y42D01*
X1634Y236D01*
X1420Y236D01*
G37*
D02*
G36*
X40Y140D02*
X40Y42D01*
X602Y42D01*
X602Y62D01*
X600Y62D01*
X600Y66D01*
X240Y66D01*
X240Y68D01*
X134Y68D01*
X134Y70D01*
X130Y70D01*
X130Y72D01*
X128Y72D01*
X128Y74D01*
X126Y74D01*
X126Y76D01*
X124Y76D01*
X124Y78D01*
X122Y78D01*
X122Y80D01*
X120Y80D01*
X120Y82D01*
X118Y82D01*
X118Y84D01*
X116Y84D01*
X116Y86D01*
X114Y86D01*
X114Y88D01*
X112Y88D01*
X112Y90D01*
X110Y90D01*
X110Y92D01*
X108Y92D01*
X108Y94D01*
X106Y94D01*
X106Y96D01*
X104Y96D01*
X104Y98D01*
X102Y98D01*
X102Y100D01*
X98Y100D01*
X98Y102D01*
X96Y102D01*
X96Y104D01*
X94Y104D01*
X94Y106D01*
X92Y106D01*
X92Y108D01*
X90Y108D01*
X90Y110D01*
X88Y110D01*
X88Y112D01*
X86Y112D01*
X86Y114D01*
X84Y114D01*
X84Y116D01*
X82Y116D01*
X82Y118D01*
X80Y118D01*
X80Y120D01*
X78Y120D01*
X78Y122D01*
X76Y122D01*
X76Y124D01*
X74Y124D01*
X74Y126D01*
X72Y126D01*
X72Y128D01*
X70Y128D01*
X70Y130D01*
X68Y130D01*
X68Y132D01*
X66Y132D01*
X66Y134D01*
X64Y134D01*
X64Y136D01*
X62Y136D01*
X62Y138D01*
X60Y138D01*
X60Y140D01*
X40Y140D01*
G37*
D02*
G04 End of Copper0*
M02*