; NON-PLATED HOLES START AT T1
; THROUGH (PLATED) HOLES START AT T100
M48
INCH
T100C0.035000
T101C0.038000
T102C0.042000
%
T100
X006987Y011111
X006987Y014111
X012987Y011111
X011987Y012111
X010987Y014111
X008987Y008111
X008987Y014111
X009987Y006111
X010987Y017111
X007987Y014111
X009987Y007111
X007987Y017111
X009987Y011111
X005987Y014111
X008987Y017111
X011987Y017111
X008987Y006111
X008987Y012111
X005987Y008111
X009987Y017111
X012987Y007111
X006987Y006111
X004987Y006111
X006987Y017111
X007987Y006111
X011987Y008111
X006987Y007111
X005987Y012111
X010987Y006111
X011987Y014111
X012987Y006111
X005987Y006111
X011987Y006111
X005987Y017111
X009987Y014111
T101
X008987Y001111
X013037Y016111
X014987Y012111
X013037Y015111
X014987Y011111
X009987Y001111
X013987Y011111
X013037Y017111
X013987Y012111
X007987Y001111
X006987Y001111
X013037Y014111
T102
X001987Y003111
X002987Y003111
X014987Y003111
X015987Y003111
X003987Y003111
X009987Y003111
X008987Y003111
X007987Y003111
X013987Y003111
T00
M30
