; NON-PLATED HOLES START AT T1
; THROUGH (PLATED) HOLES START AT T100
M48
INCH
T100C0.042000
T101C0.038000
T102C0.035000
%
T100
X025679Y005984
X014679Y005984
X018679Y005984
X012679Y005984
X019679Y005984
X013679Y005984
X020679Y005984
X024679Y005984
X026679Y005984
T101
X023679Y019984
X024679Y014984
X023679Y017984
X021679Y004084
X020679Y003984
X025679Y014984
X019679Y004084
X024679Y013984
X023779Y018984
X025679Y013984
X018679Y003984
X023779Y016984
T102
X020679Y008984
X016679Y016984
X016679Y019984
X019679Y014984
X019679Y016984
X021679Y019984
X019679Y019984
X020679Y013984
X022679Y019984
X017679Y016984
X020679Y016984
X017679Y013984
X018679Y019984
X023679Y013984
X016679Y014984
X016679Y010984
X015679Y008984
X018679Y008984
X021679Y008984
X016679Y008984
X017679Y019984
X017679Y008984
X023679Y008984
X019679Y008984
X018679Y016984
X022679Y010984
X022679Y014984
X020679Y019984
X023679Y009984
X019679Y010984
X020679Y009984
X017679Y009984
X022679Y008984
X022679Y016984
X021679Y016984
T00
M30
