G04 MADE WITH FRITZING*
G04 WWW.FRITZING.ORG*
G04 DOUBLE SIDED*
G04 HOLES PLATED*
G04 CONTOUR ON CENTER OF CONTOUR VECTOR*
%ASAXBY*%
%FSLAX23Y23*%
%MOIN*%
%OFA0B0*%
%SFA1.0B1.0*%
%ADD10C,0.075000*%
%ADD11C,0.078000*%
%ADD12C,0.082000*%
%ADD13R,0.075000X0.075000*%
%ADD14R,0.082000X0.082000*%
%ADD15C,0.024000*%
%LNCOPPER0*%
G90*
G70*
G54D10*
X1779Y1108D03*
X2077Y1108D03*
X1643Y779D03*
X1783Y698D03*
X1953Y782D03*
X2297Y782D03*
X2164Y698D03*
X123Y2102D03*
G54D11*
X1868Y398D03*
X1968Y408D03*
X2068Y398D03*
X2168Y408D03*
X1868Y398D03*
X1968Y408D03*
X2068Y398D03*
X2168Y408D03*
G54D10*
X2268Y1998D03*
X2268Y1698D03*
X2168Y1998D03*
X2168Y1698D03*
X2068Y1998D03*
X2068Y1698D03*
X1968Y1998D03*
X1968Y1698D03*
X1868Y1998D03*
X1868Y1698D03*
X1768Y1998D03*
X1768Y1698D03*
X1668Y1998D03*
X1668Y1698D03*
G54D11*
X2368Y1998D03*
X2378Y1898D03*
X2368Y1798D03*
X2378Y1698D03*
X2368Y1998D03*
X2378Y1898D03*
X2368Y1798D03*
X2378Y1698D03*
G54D10*
X1768Y898D03*
X1668Y898D03*
X1568Y898D03*
X1768Y898D03*
X1668Y898D03*
X1568Y898D03*
X2068Y898D03*
X1968Y898D03*
X1868Y898D03*
X2068Y898D03*
X1968Y898D03*
X1868Y898D03*
X2368Y898D03*
X2268Y898D03*
X2168Y898D03*
X2368Y898D03*
X2268Y898D03*
X2168Y898D03*
G54D12*
X2068Y598D03*
X1968Y598D03*
X1868Y598D03*
X2068Y598D03*
X1968Y598D03*
X1868Y598D03*
X1468Y598D03*
X1368Y598D03*
X1268Y598D03*
X1468Y598D03*
X1368Y598D03*
X1268Y598D03*
X2668Y598D03*
X2568Y598D03*
X2468Y598D03*
X2668Y598D03*
X2568Y598D03*
X2468Y598D03*
G54D10*
X1768Y998D03*
X1768Y1398D03*
X1768Y998D03*
X1768Y1398D03*
X2068Y998D03*
X2068Y1398D03*
X2068Y998D03*
X2068Y1398D03*
X2368Y998D03*
X2368Y1398D03*
X2368Y998D03*
X2368Y1398D03*
X1968Y1498D03*
X1968Y1098D03*
X1968Y1498D03*
X1968Y1098D03*
X1668Y1498D03*
X1668Y1098D03*
X1668Y1498D03*
X1668Y1098D03*
X2268Y1498D03*
X2268Y1098D03*
X2268Y1498D03*
X2268Y1098D03*
G54D11*
X2568Y1398D03*
X2468Y1398D03*
X2568Y1398D03*
X2468Y1398D03*
X2568Y1498D03*
X2468Y1498D03*
X2568Y1498D03*
X2468Y1498D03*
G54D13*
X2268Y1998D03*
G54D14*
X2068Y598D03*
X2068Y598D03*
X1468Y598D03*
X1468Y598D03*
X2668Y598D03*
X2668Y598D03*
G54D15*
X1567Y1600D02*
X1648Y1519D01*
D02*
X1567Y1200D02*
X1568Y927D01*
D02*
X1767Y1200D02*
X1567Y1200D01*
D02*
X1567Y1898D02*
X1567Y1600D01*
D02*
X1648Y1978D02*
X1567Y1898D01*
D02*
X1870Y1200D02*
X1767Y1200D01*
D02*
X1870Y1200D02*
X1868Y927D01*
D02*
X2168Y1200D02*
X1870Y1200D01*
D02*
X2168Y1200D02*
X2469Y1198D01*
D02*
X2469Y1198D02*
X2670Y1398D01*
D02*
X2670Y1500D02*
X2670Y1799D01*
D02*
X2670Y1398D02*
X2670Y1500D01*
D02*
X2469Y2000D02*
X2398Y1999D01*
D02*
X2670Y1799D02*
X2469Y2000D01*
D02*
X2168Y927D02*
X2168Y1200D01*
D02*
X1870Y1600D02*
X1788Y1679D01*
D02*
X1948Y1519D02*
X1870Y1600D01*
D02*
X2297Y1998D02*
X2338Y1998D01*
D02*
X1870Y1898D02*
X2348Y1898D01*
D02*
X1788Y1978D02*
X1870Y1898D01*
D02*
X1767Y1800D02*
X2338Y1799D01*
D02*
X1688Y1719D02*
X1767Y1800D01*
D02*
X1567Y599D02*
X1767Y799D01*
D02*
X1767Y799D02*
X1768Y870D01*
D02*
X2466Y697D02*
X2368Y799D01*
D02*
X2368Y799D02*
X2368Y897D01*
D02*
X2666Y697D02*
X2466Y697D01*
D02*
X1500Y599D02*
X1567Y599D01*
D02*
X1768Y927D02*
X1768Y970D01*
D02*
X2068Y927D02*
X2068Y970D01*
D02*
X2368Y897D02*
X2367Y870D01*
D02*
X2667Y631D02*
X2666Y697D01*
D02*
X2368Y927D02*
X2368Y970D01*
D02*
X1797Y1398D02*
X2039Y1398D01*
D02*
X2097Y1398D02*
X2339Y1398D01*
D02*
X2466Y399D02*
X2198Y407D01*
D02*
X2645Y576D02*
X2466Y399D01*
D02*
X2168Y497D02*
X2466Y497D01*
D02*
X2466Y497D02*
X2545Y576D01*
D02*
X2089Y420D02*
X2168Y497D01*
D02*
X1767Y497D02*
X1846Y419D01*
D02*
X1469Y497D02*
X1767Y497D01*
D02*
X1391Y576D02*
X1469Y497D01*
D02*
X1968Y439D02*
X1968Y566D01*
D02*
X2068Y631D02*
X2068Y870D01*
D02*
X2368Y1600D02*
X2375Y1669D01*
D02*
X2270Y1600D02*
X2368Y1600D01*
D02*
X2269Y1670D02*
X2270Y1600D01*
D02*
X2070Y1600D02*
X1989Y1679D01*
D02*
X2270Y1600D02*
X2070Y1600D01*
D02*
X2268Y927D02*
X2268Y1070D01*
D02*
X2070Y1498D02*
X2239Y1498D01*
D02*
X1968Y1600D02*
X2070Y1498D01*
D02*
X1888Y1678D02*
X1968Y1600D01*
D02*
X1968Y927D02*
X1968Y1070D01*
D02*
X1669Y999D02*
X1668Y1070D01*
D02*
X1668Y927D02*
X1669Y999D01*
D02*
X2368Y599D02*
X2436Y599D01*
D02*
X2168Y799D02*
X2368Y599D01*
D02*
X2168Y870D02*
X2168Y799D01*
D02*
X1868Y870D02*
X1868Y631D01*
D02*
X1469Y697D02*
X1367Y697D01*
D02*
X1367Y697D02*
X1291Y621D01*
D02*
X1567Y799D02*
X1469Y697D01*
D02*
X1568Y870D02*
X1567Y799D01*
D02*
X2438Y1398D02*
X2397Y1398D01*
D02*
X2538Y1398D02*
X2498Y1398D01*
D02*
X2538Y1498D02*
X2498Y1498D01*
D02*
X2670Y1500D02*
X2598Y1499D01*
G36*
X1908Y1974D02*
X1908Y1972D01*
X1906Y1972D01*
X1906Y1968D01*
X1904Y1968D01*
X1904Y1966D01*
X1902Y1966D01*
X1902Y1964D01*
X1900Y1964D01*
X1900Y1962D01*
X1898Y1962D01*
X1898Y1960D01*
X1894Y1960D01*
X1894Y1958D01*
X1890Y1958D01*
X1890Y1956D01*
X1888Y1956D01*
X1888Y1954D01*
X1882Y1954D01*
X1882Y1952D01*
X1872Y1952D01*
X1872Y1950D01*
X1964Y1950D01*
X1964Y1952D01*
X1954Y1952D01*
X1954Y1954D01*
X1948Y1954D01*
X1948Y1956D01*
X1944Y1956D01*
X1944Y1958D01*
X1942Y1958D01*
X1942Y1960D01*
X1938Y1960D01*
X1938Y1962D01*
X1936Y1962D01*
X1936Y1964D01*
X1934Y1964D01*
X1934Y1966D01*
X1932Y1966D01*
X1932Y1968D01*
X1930Y1968D01*
X1930Y1972D01*
X1928Y1972D01*
X1928Y1974D01*
X1908Y1974D01*
G37*
D02*
G36*
X2008Y1974D02*
X2008Y1972D01*
X2006Y1972D01*
X2006Y1968D01*
X2004Y1968D01*
X2004Y1966D01*
X2002Y1966D01*
X2002Y1964D01*
X2000Y1964D01*
X2000Y1962D01*
X1998Y1962D01*
X1998Y1960D01*
X1994Y1960D01*
X1994Y1958D01*
X1990Y1958D01*
X1990Y1956D01*
X1988Y1956D01*
X1988Y1954D01*
X1982Y1954D01*
X1982Y1952D01*
X1972Y1952D01*
X1972Y1950D01*
X2064Y1950D01*
X2064Y1952D01*
X2054Y1952D01*
X2054Y1954D01*
X2048Y1954D01*
X2048Y1956D01*
X2044Y1956D01*
X2044Y1958D01*
X2042Y1958D01*
X2042Y1960D01*
X2038Y1960D01*
X2038Y1962D01*
X2036Y1962D01*
X2036Y1964D01*
X2034Y1964D01*
X2034Y1966D01*
X2032Y1966D01*
X2032Y1968D01*
X2030Y1968D01*
X2030Y1972D01*
X2028Y1972D01*
X2028Y1974D01*
X2008Y1974D01*
G37*
D02*
G36*
X2108Y1974D02*
X2108Y1972D01*
X2106Y1972D01*
X2106Y1968D01*
X2104Y1968D01*
X2104Y1966D01*
X2102Y1966D01*
X2102Y1964D01*
X2100Y1964D01*
X2100Y1962D01*
X2098Y1962D01*
X2098Y1960D01*
X2094Y1960D01*
X2094Y1958D01*
X2090Y1958D01*
X2090Y1956D01*
X2088Y1956D01*
X2088Y1954D01*
X2082Y1954D01*
X2082Y1952D01*
X2072Y1952D01*
X2072Y1950D01*
X2164Y1950D01*
X2164Y1952D01*
X2154Y1952D01*
X2154Y1954D01*
X2148Y1954D01*
X2148Y1956D01*
X2144Y1956D01*
X2144Y1958D01*
X2142Y1958D01*
X2142Y1960D01*
X2138Y1960D01*
X2138Y1962D01*
X2136Y1962D01*
X2136Y1964D01*
X2134Y1964D01*
X2134Y1966D01*
X2132Y1966D01*
X2132Y1968D01*
X2130Y1968D01*
X2130Y1972D01*
X2128Y1972D01*
X2128Y1974D01*
X2108Y1974D01*
G37*
D02*
G36*
X2200Y1964D02*
X2200Y1962D01*
X2198Y1962D01*
X2198Y1960D01*
X2194Y1960D01*
X2194Y1958D01*
X2190Y1958D01*
X2190Y1956D01*
X2188Y1956D01*
X2188Y1954D01*
X2182Y1954D01*
X2182Y1952D01*
X2172Y1952D01*
X2172Y1950D01*
X2222Y1950D01*
X2222Y1952D01*
X2220Y1952D01*
X2220Y1964D01*
X2200Y1964D01*
G37*
D02*
G36*
X2316Y1962D02*
X2316Y1952D01*
X2314Y1952D01*
X2314Y1950D01*
X2346Y1950D01*
X2346Y1956D01*
X2342Y1956D01*
X2342Y1958D01*
X2340Y1958D01*
X2340Y1960D01*
X2336Y1960D01*
X2336Y1962D01*
X2316Y1962D01*
G37*
D02*
G36*
X1868Y1950D02*
X1868Y1948D01*
X2346Y1948D01*
X2346Y1950D01*
X1868Y1950D01*
G37*
D02*
G36*
X1868Y1950D02*
X1868Y1948D01*
X2346Y1948D01*
X2346Y1950D01*
X1868Y1950D01*
G37*
D02*
G36*
X1868Y1950D02*
X1868Y1948D01*
X2346Y1948D01*
X2346Y1950D01*
X1868Y1950D01*
G37*
D02*
G36*
X1868Y1950D02*
X1868Y1948D01*
X2346Y1948D01*
X2346Y1950D01*
X1868Y1950D01*
G37*
D02*
G36*
X1868Y1950D02*
X1868Y1948D01*
X2346Y1948D01*
X2346Y1950D01*
X1868Y1950D01*
G37*
D02*
G36*
X1868Y1948D02*
X1868Y1930D01*
X1870Y1930D01*
X1870Y1928D01*
X1872Y1928D01*
X1872Y1926D01*
X1874Y1926D01*
X1874Y1924D01*
X1876Y1924D01*
X1876Y1922D01*
X1878Y1922D01*
X1878Y1920D01*
X2334Y1920D01*
X2334Y1922D01*
X2336Y1922D01*
X2336Y1924D01*
X2338Y1924D01*
X2338Y1928D01*
X2340Y1928D01*
X2340Y1930D01*
X2342Y1930D01*
X2342Y1932D01*
X2344Y1932D01*
X2344Y1934D01*
X2346Y1934D01*
X2346Y1948D01*
X1868Y1948D01*
G37*
D02*
G36*
X1776Y1778D02*
X1776Y1776D01*
X1774Y1776D01*
X1774Y1774D01*
X1772Y1774D01*
X1772Y1772D01*
X1770Y1772D01*
X1770Y1770D01*
X1768Y1770D01*
X1768Y1768D01*
X1766Y1768D01*
X1766Y1766D01*
X1764Y1766D01*
X1764Y1746D01*
X2276Y1746D01*
X2276Y1744D01*
X2284Y1744D01*
X2284Y1742D01*
X2288Y1742D01*
X2288Y1740D01*
X2292Y1740D01*
X2292Y1738D01*
X2296Y1738D01*
X2296Y1736D01*
X2298Y1736D01*
X2298Y1734D01*
X2300Y1734D01*
X2300Y1732D01*
X2302Y1732D01*
X2302Y1730D01*
X2304Y1730D01*
X2304Y1728D01*
X2306Y1728D01*
X2306Y1726D01*
X2308Y1726D01*
X2308Y1722D01*
X2310Y1722D01*
X2310Y1718D01*
X2312Y1718D01*
X2312Y1712D01*
X2332Y1712D01*
X2332Y1718D01*
X2334Y1718D01*
X2334Y1722D01*
X2336Y1722D01*
X2336Y1724D01*
X2338Y1724D01*
X2338Y1728D01*
X2340Y1728D01*
X2340Y1730D01*
X2342Y1730D01*
X2342Y1732D01*
X2344Y1732D01*
X2344Y1734D01*
X2346Y1734D01*
X2346Y1756D01*
X2342Y1756D01*
X2342Y1758D01*
X2340Y1758D01*
X2340Y1760D01*
X2336Y1760D01*
X2336Y1762D01*
X2334Y1762D01*
X2334Y1764D01*
X2332Y1764D01*
X2332Y1766D01*
X2330Y1766D01*
X2330Y1768D01*
X2328Y1768D01*
X2328Y1772D01*
X2326Y1772D01*
X2326Y1776D01*
X2092Y1776D01*
X2092Y1778D01*
X1776Y1778D01*
G37*
D02*
G36*
X1776Y1746D02*
X1776Y1744D01*
X1784Y1744D01*
X1784Y1742D01*
X1788Y1742D01*
X1788Y1740D01*
X1792Y1740D01*
X1792Y1738D01*
X1796Y1738D01*
X1796Y1736D01*
X1798Y1736D01*
X1798Y1734D01*
X1800Y1734D01*
X1800Y1732D01*
X1802Y1732D01*
X1802Y1730D01*
X1804Y1730D01*
X1804Y1728D01*
X1806Y1728D01*
X1806Y1726D01*
X1808Y1726D01*
X1808Y1722D01*
X1828Y1722D01*
X1828Y1726D01*
X1830Y1726D01*
X1830Y1728D01*
X1832Y1728D01*
X1832Y1730D01*
X1834Y1730D01*
X1834Y1732D01*
X1836Y1732D01*
X1836Y1734D01*
X1838Y1734D01*
X1838Y1736D01*
X1840Y1736D01*
X1840Y1738D01*
X1844Y1738D01*
X1844Y1740D01*
X1848Y1740D01*
X1848Y1742D01*
X1852Y1742D01*
X1852Y1744D01*
X1860Y1744D01*
X1860Y1746D01*
X1776Y1746D01*
G37*
D02*
G36*
X1876Y1746D02*
X1876Y1744D01*
X1884Y1744D01*
X1884Y1742D01*
X1888Y1742D01*
X1888Y1740D01*
X1892Y1740D01*
X1892Y1738D01*
X1896Y1738D01*
X1896Y1736D01*
X1898Y1736D01*
X1898Y1734D01*
X1900Y1734D01*
X1900Y1732D01*
X1902Y1732D01*
X1902Y1730D01*
X1904Y1730D01*
X1904Y1728D01*
X1906Y1728D01*
X1906Y1726D01*
X1908Y1726D01*
X1908Y1722D01*
X1928Y1722D01*
X1928Y1726D01*
X1930Y1726D01*
X1930Y1728D01*
X1932Y1728D01*
X1932Y1730D01*
X1934Y1730D01*
X1934Y1732D01*
X1936Y1732D01*
X1936Y1734D01*
X1938Y1734D01*
X1938Y1736D01*
X1940Y1736D01*
X1940Y1738D01*
X1944Y1738D01*
X1944Y1740D01*
X1948Y1740D01*
X1948Y1742D01*
X1952Y1742D01*
X1952Y1744D01*
X1960Y1744D01*
X1960Y1746D01*
X1876Y1746D01*
G37*
D02*
G36*
X1976Y1746D02*
X1976Y1744D01*
X1984Y1744D01*
X1984Y1742D01*
X1988Y1742D01*
X1988Y1740D01*
X1992Y1740D01*
X1992Y1738D01*
X1996Y1738D01*
X1996Y1736D01*
X1998Y1736D01*
X1998Y1734D01*
X2000Y1734D01*
X2000Y1732D01*
X2002Y1732D01*
X2002Y1730D01*
X2004Y1730D01*
X2004Y1728D01*
X2006Y1728D01*
X2006Y1726D01*
X2008Y1726D01*
X2008Y1722D01*
X2028Y1722D01*
X2028Y1726D01*
X2030Y1726D01*
X2030Y1728D01*
X2032Y1728D01*
X2032Y1730D01*
X2034Y1730D01*
X2034Y1732D01*
X2036Y1732D01*
X2036Y1734D01*
X2038Y1734D01*
X2038Y1736D01*
X2040Y1736D01*
X2040Y1738D01*
X2044Y1738D01*
X2044Y1740D01*
X2048Y1740D01*
X2048Y1742D01*
X2052Y1742D01*
X2052Y1744D01*
X2060Y1744D01*
X2060Y1746D01*
X1976Y1746D01*
G37*
D02*
G36*
X2076Y1746D02*
X2076Y1744D01*
X2084Y1744D01*
X2084Y1742D01*
X2088Y1742D01*
X2088Y1740D01*
X2092Y1740D01*
X2092Y1738D01*
X2096Y1738D01*
X2096Y1736D01*
X2098Y1736D01*
X2098Y1734D01*
X2100Y1734D01*
X2100Y1732D01*
X2102Y1732D01*
X2102Y1730D01*
X2104Y1730D01*
X2104Y1728D01*
X2106Y1728D01*
X2106Y1726D01*
X2108Y1726D01*
X2108Y1722D01*
X2128Y1722D01*
X2128Y1726D01*
X2130Y1726D01*
X2130Y1728D01*
X2132Y1728D01*
X2132Y1730D01*
X2134Y1730D01*
X2134Y1732D01*
X2136Y1732D01*
X2136Y1734D01*
X2138Y1734D01*
X2138Y1736D01*
X2140Y1736D01*
X2140Y1738D01*
X2144Y1738D01*
X2144Y1740D01*
X2148Y1740D01*
X2148Y1742D01*
X2152Y1742D01*
X2152Y1744D01*
X2160Y1744D01*
X2160Y1746D01*
X2076Y1746D01*
G37*
D02*
G36*
X2176Y1746D02*
X2176Y1744D01*
X2184Y1744D01*
X2184Y1742D01*
X2188Y1742D01*
X2188Y1740D01*
X2192Y1740D01*
X2192Y1738D01*
X2196Y1738D01*
X2196Y1736D01*
X2198Y1736D01*
X2198Y1734D01*
X2200Y1734D01*
X2200Y1732D01*
X2202Y1732D01*
X2202Y1730D01*
X2204Y1730D01*
X2204Y1728D01*
X2206Y1728D01*
X2206Y1726D01*
X2208Y1726D01*
X2208Y1722D01*
X2228Y1722D01*
X2228Y1726D01*
X2230Y1726D01*
X2230Y1728D01*
X2232Y1728D01*
X2232Y1730D01*
X2234Y1730D01*
X2234Y1732D01*
X2236Y1732D01*
X2236Y1734D01*
X2238Y1734D01*
X2238Y1736D01*
X2240Y1736D01*
X2240Y1738D01*
X2244Y1738D01*
X2244Y1740D01*
X2248Y1740D01*
X2248Y1742D01*
X2252Y1742D01*
X2252Y1744D01*
X2260Y1744D01*
X2260Y1746D01*
X2176Y1746D01*
G37*
D02*
G36*
X2312Y1684D02*
X2312Y1678D01*
X2310Y1678D01*
X2310Y1674D01*
X2308Y1674D01*
X2308Y1672D01*
X2306Y1672D01*
X2306Y1668D01*
X2304Y1668D01*
X2304Y1666D01*
X2302Y1666D01*
X2302Y1664D01*
X2300Y1664D01*
X2300Y1662D01*
X2298Y1662D01*
X2298Y1660D01*
X2294Y1660D01*
X2294Y1658D01*
X2292Y1658D01*
X2292Y1622D01*
X2348Y1622D01*
X2348Y1632D01*
X2350Y1632D01*
X2350Y1660D01*
X2346Y1660D01*
X2346Y1662D01*
X2344Y1662D01*
X2344Y1664D01*
X2342Y1664D01*
X2342Y1666D01*
X2340Y1666D01*
X2340Y1668D01*
X2338Y1668D01*
X2338Y1672D01*
X2336Y1672D01*
X2336Y1676D01*
X2334Y1676D01*
X2334Y1678D01*
X2332Y1678D01*
X2332Y1684D01*
X2312Y1684D01*
G37*
D02*
G36*
X2108Y1674D02*
X2108Y1672D01*
X2106Y1672D01*
X2106Y1668D01*
X2104Y1668D01*
X2104Y1666D01*
X2102Y1666D01*
X2102Y1664D01*
X2100Y1664D01*
X2100Y1662D01*
X2098Y1662D01*
X2098Y1660D01*
X2094Y1660D01*
X2094Y1658D01*
X2090Y1658D01*
X2090Y1656D01*
X2088Y1656D01*
X2088Y1654D01*
X2082Y1654D01*
X2082Y1652D01*
X2072Y1652D01*
X2072Y1650D01*
X2164Y1650D01*
X2164Y1652D01*
X2154Y1652D01*
X2154Y1654D01*
X2148Y1654D01*
X2148Y1656D01*
X2144Y1656D01*
X2144Y1658D01*
X2142Y1658D01*
X2142Y1660D01*
X2138Y1660D01*
X2138Y1662D01*
X2136Y1662D01*
X2136Y1664D01*
X2134Y1664D01*
X2134Y1666D01*
X2132Y1666D01*
X2132Y1668D01*
X2130Y1668D01*
X2130Y1672D01*
X2128Y1672D01*
X2128Y1674D01*
X2108Y1674D01*
G37*
D02*
G36*
X2208Y1674D02*
X2208Y1672D01*
X2206Y1672D01*
X2206Y1668D01*
X2204Y1668D01*
X2204Y1666D01*
X2202Y1666D01*
X2202Y1664D01*
X2200Y1664D01*
X2200Y1662D01*
X2198Y1662D01*
X2198Y1660D01*
X2194Y1660D01*
X2194Y1658D01*
X2190Y1658D01*
X2190Y1656D01*
X2188Y1656D01*
X2188Y1654D01*
X2182Y1654D01*
X2182Y1652D01*
X2172Y1652D01*
X2172Y1650D01*
X2246Y1650D01*
X2246Y1656D01*
X2244Y1656D01*
X2244Y1658D01*
X2242Y1658D01*
X2242Y1660D01*
X2238Y1660D01*
X2238Y1662D01*
X2236Y1662D01*
X2236Y1664D01*
X2234Y1664D01*
X2234Y1666D01*
X2232Y1666D01*
X2232Y1668D01*
X2230Y1668D01*
X2230Y1672D01*
X2228Y1672D01*
X2228Y1674D01*
X2208Y1674D01*
G37*
D02*
G36*
X2070Y1650D02*
X2070Y1648D01*
X2246Y1648D01*
X2246Y1650D01*
X2070Y1650D01*
G37*
D02*
G36*
X2070Y1650D02*
X2070Y1648D01*
X2246Y1648D01*
X2246Y1650D01*
X2070Y1650D01*
G37*
D02*
G36*
X2070Y1648D02*
X2070Y1630D01*
X2072Y1630D01*
X2072Y1628D01*
X2074Y1628D01*
X2074Y1626D01*
X2076Y1626D01*
X2076Y1624D01*
X2078Y1624D01*
X2078Y1622D01*
X2248Y1622D01*
X2248Y1646D01*
X2246Y1646D01*
X2246Y1648D01*
X2070Y1648D01*
G37*
D02*
G36*
X1868Y1648D02*
X1868Y1630D01*
X1870Y1630D01*
X1870Y1628D01*
X1872Y1628D01*
X1872Y1626D01*
X1876Y1626D01*
X1876Y1624D01*
X1878Y1624D01*
X1878Y1622D01*
X1880Y1622D01*
X1880Y1620D01*
X1882Y1620D01*
X1882Y1618D01*
X1884Y1618D01*
X1884Y1616D01*
X1886Y1616D01*
X1886Y1614D01*
X1888Y1614D01*
X1888Y1612D01*
X1890Y1612D01*
X1890Y1610D01*
X1892Y1610D01*
X1892Y1608D01*
X1894Y1608D01*
X1894Y1606D01*
X1896Y1606D01*
X1896Y1602D01*
X1898Y1602D01*
X1898Y1600D01*
X1900Y1600D01*
X1900Y1598D01*
X1902Y1598D01*
X1902Y1596D01*
X1904Y1596D01*
X1904Y1594D01*
X1906Y1594D01*
X1906Y1592D01*
X1908Y1592D01*
X1908Y1590D01*
X1910Y1590D01*
X1910Y1588D01*
X1912Y1588D01*
X1912Y1586D01*
X1914Y1586D01*
X1914Y1584D01*
X1916Y1584D01*
X1916Y1582D01*
X1918Y1582D01*
X1918Y1580D01*
X1920Y1580D01*
X1920Y1578D01*
X1922Y1578D01*
X1922Y1576D01*
X1924Y1576D01*
X1924Y1574D01*
X1926Y1574D01*
X1926Y1572D01*
X1928Y1572D01*
X1928Y1570D01*
X1930Y1570D01*
X1930Y1568D01*
X1932Y1568D01*
X1932Y1566D01*
X1934Y1566D01*
X1934Y1564D01*
X1936Y1564D01*
X1936Y1562D01*
X1938Y1562D01*
X1938Y1560D01*
X1940Y1560D01*
X1940Y1558D01*
X1942Y1558D01*
X1942Y1556D01*
X1944Y1556D01*
X1944Y1554D01*
X1946Y1554D01*
X1946Y1552D01*
X1948Y1552D01*
X1948Y1550D01*
X1950Y1550D01*
X1950Y1548D01*
X1952Y1548D01*
X1952Y1546D01*
X1972Y1546D01*
X1972Y1566D01*
X1970Y1566D01*
X1970Y1568D01*
X1968Y1568D01*
X1968Y1570D01*
X1966Y1570D01*
X1966Y1572D01*
X1964Y1572D01*
X1964Y1574D01*
X1962Y1574D01*
X1962Y1576D01*
X1960Y1576D01*
X1960Y1578D01*
X1958Y1578D01*
X1958Y1580D01*
X1956Y1580D01*
X1956Y1582D01*
X1954Y1582D01*
X1954Y1584D01*
X1952Y1584D01*
X1952Y1586D01*
X1950Y1586D01*
X1950Y1588D01*
X1948Y1588D01*
X1948Y1590D01*
X1944Y1590D01*
X1944Y1592D01*
X1942Y1592D01*
X1942Y1594D01*
X1940Y1594D01*
X1940Y1596D01*
X1938Y1596D01*
X1938Y1598D01*
X1936Y1598D01*
X1936Y1600D01*
X1934Y1600D01*
X1934Y1602D01*
X1932Y1602D01*
X1932Y1604D01*
X1930Y1604D01*
X1930Y1606D01*
X1928Y1606D01*
X1928Y1608D01*
X1926Y1608D01*
X1926Y1610D01*
X1924Y1610D01*
X1924Y1612D01*
X1922Y1612D01*
X1922Y1614D01*
X1920Y1614D01*
X1920Y1616D01*
X1918Y1616D01*
X1918Y1618D01*
X1916Y1618D01*
X1916Y1620D01*
X1914Y1620D01*
X1914Y1622D01*
X1912Y1622D01*
X1912Y1624D01*
X1910Y1624D01*
X1910Y1626D01*
X1908Y1626D01*
X1908Y1628D01*
X1906Y1628D01*
X1906Y1630D01*
X1904Y1630D01*
X1904Y1632D01*
X1902Y1632D01*
X1902Y1634D01*
X1900Y1634D01*
X1900Y1636D01*
X1898Y1636D01*
X1898Y1638D01*
X1896Y1638D01*
X1896Y1640D01*
X1894Y1640D01*
X1894Y1642D01*
X1892Y1642D01*
X1892Y1644D01*
X1890Y1644D01*
X1890Y1646D01*
X1888Y1646D01*
X1888Y1648D01*
X1868Y1648D01*
G37*
D02*
G36*
X2612Y1478D02*
X2612Y1476D01*
X2610Y1476D01*
X2610Y1472D01*
X2608Y1472D01*
X2608Y1470D01*
X2606Y1470D01*
X2606Y1466D01*
X2604Y1466D01*
X2604Y1464D01*
X2602Y1464D01*
X2602Y1462D01*
X2600Y1462D01*
X2600Y1460D01*
X2596Y1460D01*
X2596Y1458D01*
X2594Y1458D01*
X2594Y1438D01*
X2598Y1438D01*
X2598Y1436D01*
X2600Y1436D01*
X2600Y1434D01*
X2602Y1434D01*
X2602Y1432D01*
X2604Y1432D01*
X2604Y1430D01*
X2606Y1430D01*
X2606Y1428D01*
X2608Y1428D01*
X2608Y1424D01*
X2610Y1424D01*
X2610Y1422D01*
X2612Y1422D01*
X2612Y1418D01*
X2614Y1418D01*
X2614Y1412D01*
X2616Y1412D01*
X2616Y1394D01*
X2636Y1394D01*
X2636Y1396D01*
X2638Y1396D01*
X2638Y1398D01*
X2640Y1398D01*
X2640Y1400D01*
X2642Y1400D01*
X2642Y1402D01*
X2644Y1402D01*
X2644Y1404D01*
X2646Y1404D01*
X2646Y1406D01*
X2648Y1406D01*
X2648Y1478D01*
X2612Y1478D01*
G37*
D02*
G36*
X1590Y1178D02*
X1590Y1146D01*
X1676Y1146D01*
X1676Y1144D01*
X1684Y1144D01*
X1684Y1142D01*
X1688Y1142D01*
X1688Y1140D01*
X1692Y1140D01*
X1692Y1138D01*
X1696Y1138D01*
X1696Y1136D01*
X1698Y1136D01*
X1698Y1134D01*
X1700Y1134D01*
X1700Y1132D01*
X1702Y1132D01*
X1702Y1130D01*
X1704Y1130D01*
X1704Y1128D01*
X1706Y1128D01*
X1706Y1126D01*
X1708Y1126D01*
X1708Y1122D01*
X1710Y1122D01*
X1710Y1118D01*
X1712Y1118D01*
X1712Y1112D01*
X1714Y1112D01*
X1714Y1104D01*
X1716Y1104D01*
X1716Y1092D01*
X1714Y1092D01*
X1714Y1084D01*
X1712Y1084D01*
X1712Y1078D01*
X1710Y1078D01*
X1710Y1074D01*
X1708Y1074D01*
X1708Y1072D01*
X1706Y1072D01*
X1706Y1068D01*
X1704Y1068D01*
X1704Y1066D01*
X1702Y1066D01*
X1702Y1064D01*
X1700Y1064D01*
X1700Y1062D01*
X1698Y1062D01*
X1698Y1060D01*
X1694Y1060D01*
X1694Y1058D01*
X1690Y1058D01*
X1690Y1046D01*
X1776Y1046D01*
X1776Y1044D01*
X1784Y1044D01*
X1784Y1042D01*
X1788Y1042D01*
X1788Y1040D01*
X1792Y1040D01*
X1792Y1038D01*
X1796Y1038D01*
X1796Y1036D01*
X1798Y1036D01*
X1798Y1034D01*
X1800Y1034D01*
X1800Y1032D01*
X1802Y1032D01*
X1802Y1030D01*
X1804Y1030D01*
X1804Y1028D01*
X1806Y1028D01*
X1806Y1026D01*
X1808Y1026D01*
X1808Y1022D01*
X1810Y1022D01*
X1810Y1018D01*
X1812Y1018D01*
X1812Y1012D01*
X1814Y1012D01*
X1814Y1004D01*
X1816Y1004D01*
X1816Y992D01*
X1814Y992D01*
X1814Y984D01*
X1812Y984D01*
X1812Y978D01*
X1810Y978D01*
X1810Y974D01*
X1808Y974D01*
X1808Y972D01*
X1806Y972D01*
X1806Y968D01*
X1804Y968D01*
X1804Y966D01*
X1802Y966D01*
X1802Y964D01*
X1800Y964D01*
X1800Y962D01*
X1798Y962D01*
X1798Y960D01*
X1794Y960D01*
X1794Y958D01*
X1792Y958D01*
X1792Y938D01*
X1796Y938D01*
X1796Y936D01*
X1798Y936D01*
X1798Y934D01*
X1800Y934D01*
X1800Y932D01*
X1802Y932D01*
X1802Y930D01*
X1804Y930D01*
X1804Y928D01*
X1806Y928D01*
X1806Y926D01*
X1808Y926D01*
X1808Y922D01*
X1828Y922D01*
X1828Y926D01*
X1830Y926D01*
X1830Y928D01*
X1832Y928D01*
X1832Y930D01*
X1834Y930D01*
X1834Y932D01*
X1836Y932D01*
X1836Y934D01*
X1838Y934D01*
X1838Y936D01*
X1840Y936D01*
X1840Y938D01*
X1844Y938D01*
X1844Y940D01*
X1846Y940D01*
X1846Y1098D01*
X1848Y1098D01*
X1848Y1178D01*
X1590Y1178D01*
G37*
D02*
G36*
X1590Y1146D02*
X1590Y940D01*
X1592Y940D01*
X1592Y938D01*
X1596Y938D01*
X1596Y936D01*
X1598Y936D01*
X1598Y934D01*
X1600Y934D01*
X1600Y932D01*
X1602Y932D01*
X1602Y930D01*
X1604Y930D01*
X1604Y928D01*
X1606Y928D01*
X1606Y926D01*
X1608Y926D01*
X1608Y922D01*
X1628Y922D01*
X1628Y926D01*
X1630Y926D01*
X1630Y928D01*
X1632Y928D01*
X1632Y930D01*
X1634Y930D01*
X1634Y932D01*
X1636Y932D01*
X1636Y934D01*
X1638Y934D01*
X1638Y936D01*
X1640Y936D01*
X1640Y938D01*
X1644Y938D01*
X1644Y940D01*
X1646Y940D01*
X1646Y976D01*
X1648Y976D01*
X1648Y1024D01*
X1646Y1024D01*
X1646Y1056D01*
X1644Y1056D01*
X1644Y1058D01*
X1642Y1058D01*
X1642Y1060D01*
X1638Y1060D01*
X1638Y1062D01*
X1636Y1062D01*
X1636Y1064D01*
X1634Y1064D01*
X1634Y1066D01*
X1632Y1066D01*
X1632Y1068D01*
X1630Y1068D01*
X1630Y1072D01*
X1628Y1072D01*
X1628Y1074D01*
X1626Y1074D01*
X1626Y1078D01*
X1624Y1078D01*
X1624Y1084D01*
X1622Y1084D01*
X1622Y1092D01*
X1620Y1092D01*
X1620Y1104D01*
X1622Y1104D01*
X1622Y1112D01*
X1624Y1112D01*
X1624Y1118D01*
X1626Y1118D01*
X1626Y1122D01*
X1628Y1122D01*
X1628Y1126D01*
X1630Y1126D01*
X1630Y1128D01*
X1632Y1128D01*
X1632Y1130D01*
X1634Y1130D01*
X1634Y1132D01*
X1636Y1132D01*
X1636Y1134D01*
X1638Y1134D01*
X1638Y1136D01*
X1640Y1136D01*
X1640Y1138D01*
X1644Y1138D01*
X1644Y1140D01*
X1648Y1140D01*
X1648Y1142D01*
X1652Y1142D01*
X1652Y1144D01*
X1660Y1144D01*
X1660Y1146D01*
X1590Y1146D01*
G37*
D02*
G36*
X1690Y1046D02*
X1690Y1024D01*
X1692Y1024D01*
X1692Y974D01*
X1690Y974D01*
X1690Y940D01*
X1692Y940D01*
X1692Y938D01*
X1696Y938D01*
X1696Y936D01*
X1698Y936D01*
X1698Y934D01*
X1700Y934D01*
X1700Y932D01*
X1702Y932D01*
X1702Y930D01*
X1704Y930D01*
X1704Y928D01*
X1706Y928D01*
X1706Y926D01*
X1708Y926D01*
X1708Y922D01*
X1728Y922D01*
X1728Y926D01*
X1730Y926D01*
X1730Y928D01*
X1732Y928D01*
X1732Y930D01*
X1734Y930D01*
X1734Y932D01*
X1736Y932D01*
X1736Y934D01*
X1738Y934D01*
X1738Y936D01*
X1740Y936D01*
X1740Y938D01*
X1744Y938D01*
X1744Y958D01*
X1742Y958D01*
X1742Y960D01*
X1738Y960D01*
X1738Y962D01*
X1736Y962D01*
X1736Y964D01*
X1734Y964D01*
X1734Y966D01*
X1732Y966D01*
X1732Y968D01*
X1730Y968D01*
X1730Y972D01*
X1728Y972D01*
X1728Y974D01*
X1726Y974D01*
X1726Y978D01*
X1724Y978D01*
X1724Y984D01*
X1722Y984D01*
X1722Y992D01*
X1720Y992D01*
X1720Y1004D01*
X1722Y1004D01*
X1722Y1012D01*
X1724Y1012D01*
X1724Y1018D01*
X1726Y1018D01*
X1726Y1022D01*
X1728Y1022D01*
X1728Y1026D01*
X1730Y1026D01*
X1730Y1028D01*
X1732Y1028D01*
X1732Y1030D01*
X1734Y1030D01*
X1734Y1032D01*
X1736Y1032D01*
X1736Y1034D01*
X1738Y1034D01*
X1738Y1036D01*
X1740Y1036D01*
X1740Y1038D01*
X1744Y1038D01*
X1744Y1040D01*
X1748Y1040D01*
X1748Y1042D01*
X1752Y1042D01*
X1752Y1044D01*
X1760Y1044D01*
X1760Y1046D01*
X1690Y1046D01*
G37*
D02*
G36*
X1892Y1178D02*
X1892Y1146D01*
X1976Y1146D01*
X1976Y1144D01*
X1984Y1144D01*
X1984Y1142D01*
X1988Y1142D01*
X1988Y1140D01*
X1992Y1140D01*
X1992Y1138D01*
X1996Y1138D01*
X1996Y1136D01*
X1998Y1136D01*
X1998Y1134D01*
X2000Y1134D01*
X2000Y1132D01*
X2002Y1132D01*
X2002Y1130D01*
X2004Y1130D01*
X2004Y1128D01*
X2006Y1128D01*
X2006Y1126D01*
X2008Y1126D01*
X2008Y1122D01*
X2010Y1122D01*
X2010Y1118D01*
X2012Y1118D01*
X2012Y1112D01*
X2014Y1112D01*
X2014Y1104D01*
X2016Y1104D01*
X2016Y1092D01*
X2014Y1092D01*
X2014Y1084D01*
X2012Y1084D01*
X2012Y1078D01*
X2010Y1078D01*
X2010Y1074D01*
X2008Y1074D01*
X2008Y1072D01*
X2006Y1072D01*
X2006Y1068D01*
X2004Y1068D01*
X2004Y1066D01*
X2002Y1066D01*
X2002Y1064D01*
X2000Y1064D01*
X2000Y1062D01*
X1998Y1062D01*
X1998Y1060D01*
X1994Y1060D01*
X1994Y1058D01*
X1990Y1058D01*
X1990Y1046D01*
X2076Y1046D01*
X2076Y1044D01*
X2084Y1044D01*
X2084Y1042D01*
X2088Y1042D01*
X2088Y1040D01*
X2092Y1040D01*
X2092Y1038D01*
X2096Y1038D01*
X2096Y1036D01*
X2098Y1036D01*
X2098Y1034D01*
X2100Y1034D01*
X2100Y1032D01*
X2102Y1032D01*
X2102Y1030D01*
X2104Y1030D01*
X2104Y1028D01*
X2106Y1028D01*
X2106Y1026D01*
X2108Y1026D01*
X2108Y1022D01*
X2110Y1022D01*
X2110Y1018D01*
X2112Y1018D01*
X2112Y1012D01*
X2114Y1012D01*
X2114Y1004D01*
X2116Y1004D01*
X2116Y992D01*
X2114Y992D01*
X2114Y984D01*
X2112Y984D01*
X2112Y978D01*
X2110Y978D01*
X2110Y974D01*
X2108Y974D01*
X2108Y972D01*
X2106Y972D01*
X2106Y968D01*
X2104Y968D01*
X2104Y966D01*
X2102Y966D01*
X2102Y964D01*
X2100Y964D01*
X2100Y962D01*
X2098Y962D01*
X2098Y960D01*
X2094Y960D01*
X2094Y958D01*
X2092Y958D01*
X2092Y938D01*
X2096Y938D01*
X2096Y936D01*
X2098Y936D01*
X2098Y934D01*
X2100Y934D01*
X2100Y932D01*
X2102Y932D01*
X2102Y930D01*
X2104Y930D01*
X2104Y928D01*
X2106Y928D01*
X2106Y926D01*
X2108Y926D01*
X2108Y922D01*
X2128Y922D01*
X2128Y926D01*
X2130Y926D01*
X2130Y928D01*
X2132Y928D01*
X2132Y930D01*
X2134Y930D01*
X2134Y932D01*
X2136Y932D01*
X2136Y934D01*
X2138Y934D01*
X2138Y936D01*
X2140Y936D01*
X2140Y938D01*
X2144Y938D01*
X2144Y940D01*
X2146Y940D01*
X2146Y1178D01*
X1892Y1178D01*
G37*
D02*
G36*
X1892Y1146D02*
X1892Y1096D01*
X1890Y1096D01*
X1890Y940D01*
X1892Y940D01*
X1892Y938D01*
X1896Y938D01*
X1896Y936D01*
X1898Y936D01*
X1898Y934D01*
X1900Y934D01*
X1900Y932D01*
X1902Y932D01*
X1902Y930D01*
X1904Y930D01*
X1904Y928D01*
X1906Y928D01*
X1906Y926D01*
X1908Y926D01*
X1908Y922D01*
X1928Y922D01*
X1928Y926D01*
X1930Y926D01*
X1930Y928D01*
X1932Y928D01*
X1932Y930D01*
X1934Y930D01*
X1934Y932D01*
X1936Y932D01*
X1936Y934D01*
X1938Y934D01*
X1938Y936D01*
X1940Y936D01*
X1940Y938D01*
X1944Y938D01*
X1944Y940D01*
X1946Y940D01*
X1946Y1056D01*
X1944Y1056D01*
X1944Y1058D01*
X1942Y1058D01*
X1942Y1060D01*
X1938Y1060D01*
X1938Y1062D01*
X1936Y1062D01*
X1936Y1064D01*
X1934Y1064D01*
X1934Y1066D01*
X1932Y1066D01*
X1932Y1068D01*
X1930Y1068D01*
X1930Y1072D01*
X1928Y1072D01*
X1928Y1074D01*
X1926Y1074D01*
X1926Y1078D01*
X1924Y1078D01*
X1924Y1084D01*
X1922Y1084D01*
X1922Y1092D01*
X1920Y1092D01*
X1920Y1104D01*
X1922Y1104D01*
X1922Y1112D01*
X1924Y1112D01*
X1924Y1118D01*
X1926Y1118D01*
X1926Y1122D01*
X1928Y1122D01*
X1928Y1126D01*
X1930Y1126D01*
X1930Y1128D01*
X1932Y1128D01*
X1932Y1130D01*
X1934Y1130D01*
X1934Y1132D01*
X1936Y1132D01*
X1936Y1134D01*
X1938Y1134D01*
X1938Y1136D01*
X1940Y1136D01*
X1940Y1138D01*
X1944Y1138D01*
X1944Y1140D01*
X1948Y1140D01*
X1948Y1142D01*
X1952Y1142D01*
X1952Y1144D01*
X1960Y1144D01*
X1960Y1146D01*
X1892Y1146D01*
G37*
D02*
G36*
X1990Y1046D02*
X1990Y940D01*
X1992Y940D01*
X1992Y938D01*
X1996Y938D01*
X1996Y936D01*
X1998Y936D01*
X1998Y934D01*
X2000Y934D01*
X2000Y932D01*
X2002Y932D01*
X2002Y930D01*
X2004Y930D01*
X2004Y928D01*
X2006Y928D01*
X2006Y926D01*
X2008Y926D01*
X2008Y922D01*
X2028Y922D01*
X2028Y926D01*
X2030Y926D01*
X2030Y928D01*
X2032Y928D01*
X2032Y930D01*
X2034Y930D01*
X2034Y932D01*
X2036Y932D01*
X2036Y934D01*
X2038Y934D01*
X2038Y936D01*
X2040Y936D01*
X2040Y938D01*
X2044Y938D01*
X2044Y958D01*
X2042Y958D01*
X2042Y960D01*
X2038Y960D01*
X2038Y962D01*
X2036Y962D01*
X2036Y964D01*
X2034Y964D01*
X2034Y966D01*
X2032Y966D01*
X2032Y968D01*
X2030Y968D01*
X2030Y972D01*
X2028Y972D01*
X2028Y974D01*
X2026Y974D01*
X2026Y978D01*
X2024Y978D01*
X2024Y984D01*
X2022Y984D01*
X2022Y992D01*
X2020Y992D01*
X2020Y1004D01*
X2022Y1004D01*
X2022Y1012D01*
X2024Y1012D01*
X2024Y1018D01*
X2026Y1018D01*
X2026Y1022D01*
X2028Y1022D01*
X2028Y1026D01*
X2030Y1026D01*
X2030Y1028D01*
X2032Y1028D01*
X2032Y1030D01*
X2034Y1030D01*
X2034Y1032D01*
X2036Y1032D01*
X2036Y1034D01*
X2038Y1034D01*
X2038Y1036D01*
X2040Y1036D01*
X2040Y1038D01*
X2044Y1038D01*
X2044Y1040D01*
X2048Y1040D01*
X2048Y1042D01*
X2052Y1042D01*
X2052Y1044D01*
X2060Y1044D01*
X2060Y1046D01*
X1990Y1046D01*
G37*
D02*
G36*
X1608Y874D02*
X1608Y872D01*
X1606Y872D01*
X1606Y868D01*
X1604Y868D01*
X1604Y866D01*
X1602Y866D01*
X1602Y864D01*
X1600Y864D01*
X1600Y862D01*
X1598Y862D01*
X1598Y860D01*
X1594Y860D01*
X1594Y858D01*
X1590Y858D01*
X1590Y850D01*
X1664Y850D01*
X1664Y852D01*
X1654Y852D01*
X1654Y854D01*
X1648Y854D01*
X1648Y856D01*
X1644Y856D01*
X1644Y858D01*
X1642Y858D01*
X1642Y860D01*
X1638Y860D01*
X1638Y862D01*
X1636Y862D01*
X1636Y864D01*
X1634Y864D01*
X1634Y866D01*
X1632Y866D01*
X1632Y868D01*
X1630Y868D01*
X1630Y872D01*
X1628Y872D01*
X1628Y874D01*
X1608Y874D01*
G37*
D02*
G36*
X1708Y874D02*
X1708Y872D01*
X1706Y872D01*
X1706Y868D01*
X1704Y868D01*
X1704Y866D01*
X1702Y866D01*
X1702Y864D01*
X1700Y864D01*
X1700Y862D01*
X1698Y862D01*
X1698Y860D01*
X1694Y860D01*
X1694Y858D01*
X1690Y858D01*
X1690Y856D01*
X1688Y856D01*
X1688Y854D01*
X1682Y854D01*
X1682Y852D01*
X1672Y852D01*
X1672Y850D01*
X1746Y850D01*
X1746Y856D01*
X1744Y856D01*
X1744Y858D01*
X1742Y858D01*
X1742Y860D01*
X1738Y860D01*
X1738Y862D01*
X1736Y862D01*
X1736Y864D01*
X1734Y864D01*
X1734Y866D01*
X1732Y866D01*
X1732Y868D01*
X1730Y868D01*
X1730Y872D01*
X1728Y872D01*
X1728Y874D01*
X1708Y874D01*
G37*
D02*
G36*
X1590Y850D02*
X1590Y848D01*
X1746Y848D01*
X1746Y850D01*
X1590Y850D01*
G37*
D02*
G36*
X1590Y850D02*
X1590Y848D01*
X1746Y848D01*
X1746Y850D01*
X1590Y850D01*
G37*
D02*
G36*
X1590Y848D02*
X1590Y798D01*
X1588Y798D01*
X1588Y790D01*
X1586Y790D01*
X1586Y786D01*
X1584Y786D01*
X1584Y784D01*
X1582Y784D01*
X1582Y782D01*
X1580Y782D01*
X1580Y780D01*
X1578Y780D01*
X1578Y778D01*
X1576Y778D01*
X1576Y776D01*
X1574Y776D01*
X1574Y774D01*
X1572Y774D01*
X1572Y772D01*
X1570Y772D01*
X1570Y770D01*
X1568Y770D01*
X1568Y766D01*
X1566Y766D01*
X1566Y764D01*
X1564Y764D01*
X1564Y762D01*
X1562Y762D01*
X1562Y760D01*
X1560Y760D01*
X1560Y758D01*
X1558Y758D01*
X1558Y756D01*
X1556Y756D01*
X1556Y754D01*
X1554Y754D01*
X1554Y752D01*
X1552Y752D01*
X1552Y750D01*
X1550Y750D01*
X1550Y748D01*
X1548Y748D01*
X1548Y746D01*
X1546Y746D01*
X1546Y744D01*
X1544Y744D01*
X1544Y742D01*
X1542Y742D01*
X1542Y740D01*
X1540Y740D01*
X1540Y738D01*
X1538Y738D01*
X1538Y736D01*
X1536Y736D01*
X1536Y734D01*
X1534Y734D01*
X1534Y732D01*
X1532Y732D01*
X1532Y730D01*
X1530Y730D01*
X1530Y728D01*
X1528Y728D01*
X1528Y726D01*
X1526Y726D01*
X1526Y724D01*
X1524Y724D01*
X1524Y722D01*
X1522Y722D01*
X1522Y718D01*
X1520Y718D01*
X1520Y716D01*
X1518Y716D01*
X1518Y714D01*
X1516Y714D01*
X1516Y712D01*
X1514Y712D01*
X1514Y710D01*
X1512Y710D01*
X1512Y708D01*
X1510Y708D01*
X1510Y706D01*
X1508Y706D01*
X1508Y704D01*
X1506Y704D01*
X1506Y702D01*
X1504Y702D01*
X1504Y700D01*
X1502Y700D01*
X1502Y698D01*
X1500Y698D01*
X1500Y696D01*
X1498Y696D01*
X1498Y694D01*
X1496Y694D01*
X1496Y692D01*
X1494Y692D01*
X1494Y690D01*
X1492Y690D01*
X1492Y688D01*
X1490Y688D01*
X1490Y686D01*
X1488Y686D01*
X1488Y684D01*
X1486Y684D01*
X1486Y682D01*
X1484Y682D01*
X1484Y680D01*
X1482Y680D01*
X1482Y678D01*
X1478Y678D01*
X1478Y676D01*
X1472Y676D01*
X1472Y674D01*
X1374Y674D01*
X1374Y672D01*
X1372Y672D01*
X1372Y670D01*
X1370Y670D01*
X1370Y650D01*
X1518Y650D01*
X1518Y620D01*
X1558Y620D01*
X1558Y622D01*
X1560Y622D01*
X1560Y624D01*
X1562Y624D01*
X1562Y626D01*
X1564Y626D01*
X1564Y628D01*
X1566Y628D01*
X1566Y630D01*
X1568Y630D01*
X1568Y632D01*
X1570Y632D01*
X1570Y634D01*
X1572Y634D01*
X1572Y636D01*
X1574Y636D01*
X1574Y638D01*
X1576Y638D01*
X1576Y640D01*
X1578Y640D01*
X1578Y642D01*
X1580Y642D01*
X1580Y644D01*
X1582Y644D01*
X1582Y646D01*
X1584Y646D01*
X1584Y648D01*
X1586Y648D01*
X1586Y650D01*
X1588Y650D01*
X1588Y652D01*
X1590Y652D01*
X1590Y654D01*
X1592Y654D01*
X1592Y656D01*
X1594Y656D01*
X1594Y658D01*
X1596Y658D01*
X1596Y660D01*
X1598Y660D01*
X1598Y662D01*
X1600Y662D01*
X1600Y664D01*
X1602Y664D01*
X1602Y666D01*
X1604Y666D01*
X1604Y668D01*
X1606Y668D01*
X1606Y670D01*
X1608Y670D01*
X1608Y672D01*
X1610Y672D01*
X1610Y674D01*
X1612Y674D01*
X1612Y676D01*
X1614Y676D01*
X1614Y678D01*
X1616Y678D01*
X1616Y680D01*
X1618Y680D01*
X1618Y682D01*
X1620Y682D01*
X1620Y684D01*
X1622Y684D01*
X1622Y686D01*
X1624Y686D01*
X1624Y688D01*
X1626Y688D01*
X1626Y690D01*
X1628Y690D01*
X1628Y692D01*
X1630Y692D01*
X1630Y694D01*
X1632Y694D01*
X1632Y696D01*
X1634Y696D01*
X1634Y698D01*
X1636Y698D01*
X1636Y700D01*
X1638Y700D01*
X1638Y702D01*
X1640Y702D01*
X1640Y704D01*
X1642Y704D01*
X1642Y706D01*
X1644Y706D01*
X1644Y708D01*
X1646Y708D01*
X1646Y710D01*
X1648Y710D01*
X1648Y712D01*
X1650Y712D01*
X1650Y714D01*
X1652Y714D01*
X1652Y716D01*
X1654Y716D01*
X1654Y718D01*
X1656Y718D01*
X1656Y720D01*
X1658Y720D01*
X1658Y722D01*
X1660Y722D01*
X1660Y724D01*
X1662Y724D01*
X1662Y726D01*
X1664Y726D01*
X1664Y728D01*
X1666Y728D01*
X1666Y730D01*
X1668Y730D01*
X1668Y732D01*
X1670Y732D01*
X1670Y734D01*
X1672Y734D01*
X1672Y736D01*
X1674Y736D01*
X1674Y738D01*
X1676Y738D01*
X1676Y740D01*
X1678Y740D01*
X1678Y742D01*
X1680Y742D01*
X1680Y744D01*
X1682Y744D01*
X1682Y746D01*
X1684Y746D01*
X1684Y748D01*
X1686Y748D01*
X1686Y750D01*
X1688Y750D01*
X1688Y752D01*
X1690Y752D01*
X1690Y754D01*
X1692Y754D01*
X1692Y756D01*
X1694Y756D01*
X1694Y758D01*
X1696Y758D01*
X1696Y760D01*
X1698Y760D01*
X1698Y762D01*
X1700Y762D01*
X1700Y764D01*
X1702Y764D01*
X1702Y766D01*
X1704Y766D01*
X1704Y768D01*
X1706Y768D01*
X1706Y770D01*
X1708Y770D01*
X1708Y772D01*
X1710Y772D01*
X1710Y774D01*
X1712Y774D01*
X1712Y776D01*
X1714Y776D01*
X1714Y778D01*
X1716Y778D01*
X1716Y780D01*
X1718Y780D01*
X1718Y782D01*
X1720Y782D01*
X1720Y784D01*
X1722Y784D01*
X1722Y786D01*
X1724Y786D01*
X1724Y788D01*
X1726Y788D01*
X1726Y790D01*
X1728Y790D01*
X1728Y792D01*
X1730Y792D01*
X1730Y794D01*
X1732Y794D01*
X1732Y796D01*
X1734Y796D01*
X1734Y798D01*
X1736Y798D01*
X1736Y800D01*
X1738Y800D01*
X1738Y802D01*
X1740Y802D01*
X1740Y804D01*
X1742Y804D01*
X1742Y806D01*
X1744Y806D01*
X1744Y808D01*
X1746Y808D01*
X1746Y848D01*
X1590Y848D01*
G37*
D02*
G36*
X1372Y650D02*
X1372Y648D01*
X1382Y648D01*
X1382Y646D01*
X1388Y646D01*
X1388Y644D01*
X1392Y644D01*
X1392Y642D01*
X1396Y642D01*
X1396Y640D01*
X1416Y640D01*
X1416Y648D01*
X1418Y648D01*
X1418Y650D01*
X1372Y650D01*
G37*
D02*
G36*
X1808Y874D02*
X1808Y872D01*
X1806Y872D01*
X1806Y868D01*
X1804Y868D01*
X1804Y866D01*
X1802Y866D01*
X1802Y864D01*
X1800Y864D01*
X1800Y862D01*
X1798Y862D01*
X1798Y860D01*
X1794Y860D01*
X1794Y858D01*
X1790Y858D01*
X1790Y796D01*
X1788Y796D01*
X1788Y790D01*
X1786Y790D01*
X1786Y786D01*
X1784Y786D01*
X1784Y784D01*
X1782Y784D01*
X1782Y782D01*
X1780Y782D01*
X1780Y780D01*
X1778Y780D01*
X1778Y778D01*
X1776Y778D01*
X1776Y776D01*
X1774Y776D01*
X1774Y774D01*
X1772Y774D01*
X1772Y772D01*
X1770Y772D01*
X1770Y770D01*
X1768Y770D01*
X1768Y768D01*
X1766Y768D01*
X1766Y766D01*
X1764Y766D01*
X1764Y764D01*
X1762Y764D01*
X1762Y762D01*
X1760Y762D01*
X1760Y760D01*
X1758Y760D01*
X1758Y758D01*
X1756Y758D01*
X1756Y756D01*
X1754Y756D01*
X1754Y754D01*
X1752Y754D01*
X1752Y752D01*
X1750Y752D01*
X1750Y750D01*
X1748Y750D01*
X1748Y748D01*
X1746Y748D01*
X1746Y746D01*
X1744Y746D01*
X1744Y744D01*
X1742Y744D01*
X1742Y742D01*
X1740Y742D01*
X1740Y740D01*
X1738Y740D01*
X1738Y738D01*
X1736Y738D01*
X1736Y736D01*
X1734Y736D01*
X1734Y734D01*
X1732Y734D01*
X1732Y732D01*
X1730Y732D01*
X1730Y730D01*
X1728Y730D01*
X1728Y728D01*
X1726Y728D01*
X1726Y726D01*
X1724Y726D01*
X1724Y724D01*
X1722Y724D01*
X1722Y722D01*
X1720Y722D01*
X1720Y720D01*
X1718Y720D01*
X1718Y718D01*
X1716Y718D01*
X1716Y716D01*
X1714Y716D01*
X1714Y714D01*
X1712Y714D01*
X1712Y712D01*
X1710Y712D01*
X1710Y710D01*
X1708Y710D01*
X1708Y708D01*
X1706Y708D01*
X1706Y706D01*
X1704Y706D01*
X1704Y704D01*
X1702Y704D01*
X1702Y702D01*
X1700Y702D01*
X1700Y700D01*
X1698Y700D01*
X1698Y698D01*
X1696Y698D01*
X1696Y696D01*
X1694Y696D01*
X1694Y694D01*
X1692Y694D01*
X1692Y692D01*
X1690Y692D01*
X1690Y690D01*
X1688Y690D01*
X1688Y688D01*
X1686Y688D01*
X1686Y686D01*
X1684Y686D01*
X1684Y684D01*
X1682Y684D01*
X1682Y682D01*
X1680Y682D01*
X1680Y680D01*
X1678Y680D01*
X1678Y678D01*
X1676Y678D01*
X1676Y676D01*
X1674Y676D01*
X1674Y674D01*
X1672Y674D01*
X1672Y672D01*
X1670Y672D01*
X1670Y670D01*
X1668Y670D01*
X1668Y668D01*
X1666Y668D01*
X1666Y666D01*
X1664Y666D01*
X1664Y664D01*
X1662Y664D01*
X1662Y662D01*
X1660Y662D01*
X1660Y660D01*
X1658Y660D01*
X1658Y658D01*
X1656Y658D01*
X1656Y656D01*
X1654Y656D01*
X1654Y654D01*
X1652Y654D01*
X1652Y652D01*
X1650Y652D01*
X1650Y650D01*
X1648Y650D01*
X1648Y648D01*
X1646Y648D01*
X1646Y646D01*
X1644Y646D01*
X1644Y644D01*
X1642Y644D01*
X1642Y642D01*
X1640Y642D01*
X1640Y640D01*
X1638Y640D01*
X1638Y638D01*
X1636Y638D01*
X1636Y636D01*
X1634Y636D01*
X1634Y634D01*
X1632Y634D01*
X1632Y632D01*
X1630Y632D01*
X1630Y630D01*
X1628Y630D01*
X1628Y628D01*
X1626Y628D01*
X1626Y626D01*
X1624Y626D01*
X1624Y624D01*
X1622Y624D01*
X1622Y622D01*
X1620Y622D01*
X1620Y620D01*
X1618Y620D01*
X1618Y618D01*
X1616Y618D01*
X1616Y616D01*
X1614Y616D01*
X1614Y614D01*
X1612Y614D01*
X1612Y612D01*
X1610Y612D01*
X1610Y610D01*
X1608Y610D01*
X1608Y608D01*
X1606Y608D01*
X1606Y606D01*
X1604Y606D01*
X1604Y604D01*
X1602Y604D01*
X1602Y602D01*
X1600Y602D01*
X1600Y600D01*
X1598Y600D01*
X1598Y598D01*
X1596Y598D01*
X1596Y596D01*
X1594Y596D01*
X1594Y594D01*
X1592Y594D01*
X1592Y592D01*
X1590Y592D01*
X1590Y590D01*
X1588Y590D01*
X1588Y588D01*
X1586Y588D01*
X1586Y586D01*
X1584Y586D01*
X1584Y584D01*
X1582Y584D01*
X1582Y582D01*
X1580Y582D01*
X1580Y580D01*
X1576Y580D01*
X1576Y578D01*
X1570Y578D01*
X1570Y576D01*
X1518Y576D01*
X1518Y548D01*
X1856Y548D01*
X1856Y550D01*
X1848Y550D01*
X1848Y552D01*
X1844Y552D01*
X1844Y554D01*
X1842Y554D01*
X1842Y556D01*
X1838Y556D01*
X1838Y558D01*
X1836Y558D01*
X1836Y560D01*
X1834Y560D01*
X1834Y562D01*
X1832Y562D01*
X1832Y564D01*
X1830Y564D01*
X1830Y566D01*
X1828Y566D01*
X1828Y568D01*
X1826Y568D01*
X1826Y572D01*
X1824Y572D01*
X1824Y574D01*
X1822Y574D01*
X1822Y578D01*
X1820Y578D01*
X1820Y584D01*
X1818Y584D01*
X1818Y612D01*
X1820Y612D01*
X1820Y618D01*
X1822Y618D01*
X1822Y622D01*
X1824Y622D01*
X1824Y626D01*
X1826Y626D01*
X1826Y628D01*
X1828Y628D01*
X1828Y630D01*
X1830Y630D01*
X1830Y634D01*
X1832Y634D01*
X1832Y636D01*
X1836Y636D01*
X1836Y638D01*
X1838Y638D01*
X1838Y640D01*
X1840Y640D01*
X1840Y642D01*
X1844Y642D01*
X1844Y644D01*
X1846Y644D01*
X1846Y856D01*
X1844Y856D01*
X1844Y858D01*
X1842Y858D01*
X1842Y860D01*
X1838Y860D01*
X1838Y862D01*
X1836Y862D01*
X1836Y864D01*
X1834Y864D01*
X1834Y866D01*
X1832Y866D01*
X1832Y868D01*
X1830Y868D01*
X1830Y872D01*
X1828Y872D01*
X1828Y874D01*
X1808Y874D01*
G37*
D02*
G36*
X1908Y568D02*
X1908Y566D01*
X1906Y566D01*
X1906Y564D01*
X1904Y564D01*
X1904Y562D01*
X1902Y562D01*
X1902Y560D01*
X1900Y560D01*
X1900Y558D01*
X1898Y558D01*
X1898Y556D01*
X1894Y556D01*
X1894Y554D01*
X1890Y554D01*
X1890Y552D01*
X1888Y552D01*
X1888Y550D01*
X1880Y550D01*
X1880Y548D01*
X1946Y548D01*
X1946Y552D01*
X1944Y552D01*
X1944Y554D01*
X1942Y554D01*
X1942Y556D01*
X1938Y556D01*
X1938Y558D01*
X1936Y558D01*
X1936Y560D01*
X1934Y560D01*
X1934Y562D01*
X1932Y562D01*
X1932Y564D01*
X1930Y564D01*
X1930Y566D01*
X1928Y566D01*
X1928Y568D01*
X1908Y568D01*
G37*
D02*
G36*
X1468Y548D02*
X1468Y546D01*
X1946Y546D01*
X1946Y548D01*
X1468Y548D01*
G37*
D02*
G36*
X1468Y548D02*
X1468Y546D01*
X1946Y546D01*
X1946Y548D01*
X1468Y548D01*
G37*
D02*
G36*
X1468Y546D02*
X1468Y528D01*
X1470Y528D01*
X1470Y526D01*
X1472Y526D01*
X1472Y524D01*
X1474Y524D01*
X1474Y522D01*
X1476Y522D01*
X1476Y520D01*
X1478Y520D01*
X1478Y518D01*
X1776Y518D01*
X1776Y516D01*
X1780Y516D01*
X1780Y514D01*
X1782Y514D01*
X1782Y512D01*
X1784Y512D01*
X1784Y510D01*
X1786Y510D01*
X1786Y508D01*
X1788Y508D01*
X1788Y506D01*
X1790Y506D01*
X1790Y504D01*
X1792Y504D01*
X1792Y502D01*
X1794Y502D01*
X1794Y500D01*
X1796Y500D01*
X1796Y498D01*
X1798Y498D01*
X1798Y496D01*
X1800Y496D01*
X1800Y494D01*
X1802Y494D01*
X1802Y492D01*
X1804Y492D01*
X1804Y490D01*
X1806Y490D01*
X1806Y488D01*
X1808Y488D01*
X1808Y486D01*
X1810Y486D01*
X1810Y484D01*
X1812Y484D01*
X1812Y482D01*
X1814Y482D01*
X1814Y480D01*
X1816Y480D01*
X1816Y478D01*
X1818Y478D01*
X1818Y476D01*
X1820Y476D01*
X1820Y474D01*
X1822Y474D01*
X1822Y472D01*
X1824Y472D01*
X1824Y470D01*
X1826Y470D01*
X1826Y468D01*
X1830Y468D01*
X1830Y466D01*
X1832Y466D01*
X1832Y464D01*
X1834Y464D01*
X1834Y462D01*
X1836Y462D01*
X1836Y460D01*
X1838Y460D01*
X1838Y458D01*
X1840Y458D01*
X1840Y456D01*
X1842Y456D01*
X1842Y454D01*
X1844Y454D01*
X1844Y452D01*
X1846Y452D01*
X1846Y450D01*
X1848Y450D01*
X1848Y448D01*
X1872Y448D01*
X1872Y446D01*
X1882Y446D01*
X1882Y444D01*
X1888Y444D01*
X1888Y442D01*
X1892Y442D01*
X1892Y440D01*
X1894Y440D01*
X1894Y438D01*
X1898Y438D01*
X1898Y436D01*
X1900Y436D01*
X1900Y434D01*
X1902Y434D01*
X1902Y432D01*
X1904Y432D01*
X1904Y430D01*
X1924Y430D01*
X1924Y432D01*
X1926Y432D01*
X1926Y434D01*
X1928Y434D01*
X1928Y438D01*
X1930Y438D01*
X1930Y440D01*
X1932Y440D01*
X1932Y442D01*
X1934Y442D01*
X1934Y444D01*
X1936Y444D01*
X1936Y446D01*
X1938Y446D01*
X1938Y448D01*
X1942Y448D01*
X1942Y450D01*
X1944Y450D01*
X1944Y452D01*
X1946Y452D01*
X1946Y546D01*
X1468Y546D01*
G37*
D02*
G36*
X1908Y874D02*
X1908Y872D01*
X1906Y872D01*
X1906Y868D01*
X1904Y868D01*
X1904Y866D01*
X1902Y866D01*
X1902Y864D01*
X1900Y864D01*
X1900Y862D01*
X1898Y862D01*
X1898Y860D01*
X1894Y860D01*
X1894Y858D01*
X1890Y858D01*
X1890Y850D01*
X1964Y850D01*
X1964Y852D01*
X1954Y852D01*
X1954Y854D01*
X1948Y854D01*
X1948Y856D01*
X1944Y856D01*
X1944Y858D01*
X1942Y858D01*
X1942Y860D01*
X1938Y860D01*
X1938Y862D01*
X1936Y862D01*
X1936Y864D01*
X1934Y864D01*
X1934Y866D01*
X1932Y866D01*
X1932Y868D01*
X1930Y868D01*
X1930Y872D01*
X1928Y872D01*
X1928Y874D01*
X1908Y874D01*
G37*
D02*
G36*
X2008Y874D02*
X2008Y872D01*
X2006Y872D01*
X2006Y868D01*
X2004Y868D01*
X2004Y866D01*
X2002Y866D01*
X2002Y864D01*
X2000Y864D01*
X2000Y862D01*
X1998Y862D01*
X1998Y860D01*
X1994Y860D01*
X1994Y858D01*
X1990Y858D01*
X1990Y856D01*
X1988Y856D01*
X1988Y854D01*
X1982Y854D01*
X1982Y852D01*
X1972Y852D01*
X1972Y850D01*
X2046Y850D01*
X2046Y856D01*
X2044Y856D01*
X2044Y858D01*
X2042Y858D01*
X2042Y860D01*
X2038Y860D01*
X2038Y862D01*
X2036Y862D01*
X2036Y864D01*
X2034Y864D01*
X2034Y866D01*
X2032Y866D01*
X2032Y868D01*
X2030Y868D01*
X2030Y872D01*
X2028Y872D01*
X2028Y874D01*
X2008Y874D01*
G37*
D02*
G36*
X1890Y850D02*
X1890Y848D01*
X2046Y848D01*
X2046Y850D01*
X1890Y850D01*
G37*
D02*
G36*
X1890Y850D02*
X1890Y848D01*
X2046Y848D01*
X2046Y850D01*
X1890Y850D01*
G37*
D02*
G36*
X1890Y848D02*
X1890Y650D01*
X1972Y650D01*
X1972Y648D01*
X1982Y648D01*
X1982Y646D01*
X1988Y646D01*
X1988Y644D01*
X1992Y644D01*
X1992Y642D01*
X1996Y642D01*
X1996Y640D01*
X2016Y640D01*
X2016Y648D01*
X2018Y648D01*
X2018Y650D01*
X2046Y650D01*
X2046Y848D01*
X1890Y848D01*
G37*
D02*
G36*
X1890Y650D02*
X1890Y644D01*
X1892Y644D01*
X1892Y642D01*
X1896Y642D01*
X1896Y640D01*
X1898Y640D01*
X1898Y638D01*
X1900Y638D01*
X1900Y636D01*
X1904Y636D01*
X1904Y634D01*
X1906Y634D01*
X1906Y630D01*
X1908Y630D01*
X1908Y628D01*
X1928Y628D01*
X1928Y630D01*
X1930Y630D01*
X1930Y634D01*
X1932Y634D01*
X1932Y636D01*
X1936Y636D01*
X1936Y638D01*
X1938Y638D01*
X1938Y640D01*
X1940Y640D01*
X1940Y642D01*
X1944Y642D01*
X1944Y644D01*
X1948Y644D01*
X1948Y646D01*
X1954Y646D01*
X1954Y648D01*
X1964Y648D01*
X1964Y650D01*
X1890Y650D01*
G37*
D02*
G36*
X2208Y874D02*
X2208Y872D01*
X2206Y872D01*
X2206Y868D01*
X2204Y868D01*
X2204Y866D01*
X2202Y866D01*
X2202Y864D01*
X2200Y864D01*
X2200Y862D01*
X2198Y862D01*
X2198Y860D01*
X2194Y860D01*
X2194Y858D01*
X2190Y858D01*
X2190Y850D01*
X2264Y850D01*
X2264Y852D01*
X2254Y852D01*
X2254Y854D01*
X2248Y854D01*
X2248Y856D01*
X2244Y856D01*
X2244Y858D01*
X2242Y858D01*
X2242Y860D01*
X2238Y860D01*
X2238Y862D01*
X2236Y862D01*
X2236Y864D01*
X2234Y864D01*
X2234Y866D01*
X2232Y866D01*
X2232Y868D01*
X2230Y868D01*
X2230Y872D01*
X2228Y872D01*
X2228Y874D01*
X2208Y874D01*
G37*
D02*
G36*
X2308Y874D02*
X2308Y872D01*
X2306Y872D01*
X2306Y868D01*
X2304Y868D01*
X2304Y866D01*
X2302Y866D01*
X2302Y864D01*
X2300Y864D01*
X2300Y862D01*
X2298Y862D01*
X2298Y860D01*
X2294Y860D01*
X2294Y858D01*
X2290Y858D01*
X2290Y856D01*
X2288Y856D01*
X2288Y854D01*
X2282Y854D01*
X2282Y852D01*
X2272Y852D01*
X2272Y850D01*
X2346Y850D01*
X2346Y856D01*
X2344Y856D01*
X2344Y858D01*
X2342Y858D01*
X2342Y860D01*
X2338Y860D01*
X2338Y862D01*
X2336Y862D01*
X2336Y864D01*
X2334Y864D01*
X2334Y866D01*
X2332Y866D01*
X2332Y868D01*
X2330Y868D01*
X2330Y872D01*
X2328Y872D01*
X2328Y874D01*
X2308Y874D01*
G37*
D02*
G36*
X2190Y850D02*
X2190Y848D01*
X2346Y848D01*
X2346Y850D01*
X2190Y850D01*
G37*
D02*
G36*
X2190Y850D02*
X2190Y848D01*
X2346Y848D01*
X2346Y850D01*
X2190Y850D01*
G37*
D02*
G36*
X2190Y848D02*
X2190Y806D01*
X2192Y806D01*
X2192Y804D01*
X2194Y804D01*
X2194Y802D01*
X2196Y802D01*
X2196Y800D01*
X2198Y800D01*
X2198Y798D01*
X2200Y798D01*
X2200Y796D01*
X2202Y796D01*
X2202Y794D01*
X2204Y794D01*
X2204Y792D01*
X2206Y792D01*
X2206Y790D01*
X2208Y790D01*
X2208Y788D01*
X2210Y788D01*
X2210Y786D01*
X2212Y786D01*
X2212Y784D01*
X2214Y784D01*
X2214Y782D01*
X2216Y782D01*
X2216Y780D01*
X2218Y780D01*
X2218Y778D01*
X2220Y778D01*
X2220Y776D01*
X2222Y776D01*
X2222Y774D01*
X2224Y774D01*
X2224Y772D01*
X2226Y772D01*
X2226Y770D01*
X2228Y770D01*
X2228Y768D01*
X2230Y768D01*
X2230Y766D01*
X2232Y766D01*
X2232Y764D01*
X2234Y764D01*
X2234Y762D01*
X2236Y762D01*
X2236Y760D01*
X2238Y760D01*
X2238Y758D01*
X2240Y758D01*
X2240Y756D01*
X2242Y756D01*
X2242Y754D01*
X2244Y754D01*
X2244Y752D01*
X2246Y752D01*
X2246Y750D01*
X2248Y750D01*
X2248Y748D01*
X2250Y748D01*
X2250Y746D01*
X2252Y746D01*
X2252Y744D01*
X2254Y744D01*
X2254Y742D01*
X2256Y742D01*
X2256Y740D01*
X2258Y740D01*
X2258Y738D01*
X2260Y738D01*
X2260Y736D01*
X2262Y736D01*
X2262Y734D01*
X2264Y734D01*
X2264Y732D01*
X2266Y732D01*
X2266Y730D01*
X2268Y730D01*
X2268Y728D01*
X2270Y728D01*
X2270Y726D01*
X2272Y726D01*
X2272Y724D01*
X2274Y724D01*
X2274Y722D01*
X2276Y722D01*
X2276Y720D01*
X2278Y720D01*
X2278Y718D01*
X2280Y718D01*
X2280Y716D01*
X2282Y716D01*
X2282Y714D01*
X2284Y714D01*
X2284Y712D01*
X2286Y712D01*
X2286Y710D01*
X2288Y710D01*
X2288Y708D01*
X2290Y708D01*
X2290Y706D01*
X2292Y706D01*
X2292Y704D01*
X2294Y704D01*
X2294Y702D01*
X2296Y702D01*
X2296Y700D01*
X2298Y700D01*
X2298Y698D01*
X2300Y698D01*
X2300Y696D01*
X2302Y696D01*
X2302Y694D01*
X2304Y694D01*
X2304Y692D01*
X2306Y692D01*
X2306Y690D01*
X2308Y690D01*
X2308Y688D01*
X2310Y688D01*
X2310Y686D01*
X2312Y686D01*
X2312Y684D01*
X2314Y684D01*
X2314Y682D01*
X2316Y682D01*
X2316Y680D01*
X2318Y680D01*
X2318Y678D01*
X2320Y678D01*
X2320Y676D01*
X2322Y676D01*
X2322Y674D01*
X2324Y674D01*
X2324Y672D01*
X2326Y672D01*
X2326Y670D01*
X2328Y670D01*
X2328Y668D01*
X2330Y668D01*
X2330Y666D01*
X2332Y666D01*
X2332Y664D01*
X2334Y664D01*
X2334Y662D01*
X2336Y662D01*
X2336Y660D01*
X2338Y660D01*
X2338Y658D01*
X2340Y658D01*
X2340Y656D01*
X2342Y656D01*
X2342Y654D01*
X2344Y654D01*
X2344Y652D01*
X2346Y652D01*
X2346Y650D01*
X2572Y650D01*
X2572Y648D01*
X2582Y648D01*
X2582Y646D01*
X2588Y646D01*
X2588Y644D01*
X2592Y644D01*
X2592Y642D01*
X2596Y642D01*
X2596Y640D01*
X2616Y640D01*
X2616Y648D01*
X2618Y648D01*
X2618Y650D01*
X2644Y650D01*
X2644Y674D01*
X2462Y674D01*
X2462Y676D01*
X2456Y676D01*
X2456Y678D01*
X2452Y678D01*
X2452Y680D01*
X2450Y680D01*
X2450Y682D01*
X2448Y682D01*
X2448Y684D01*
X2446Y684D01*
X2446Y686D01*
X2444Y686D01*
X2444Y688D01*
X2442Y688D01*
X2442Y690D01*
X2440Y690D01*
X2440Y692D01*
X2438Y692D01*
X2438Y694D01*
X2436Y694D01*
X2436Y698D01*
X2434Y698D01*
X2434Y700D01*
X2432Y700D01*
X2432Y702D01*
X2430Y702D01*
X2430Y704D01*
X2428Y704D01*
X2428Y706D01*
X2426Y706D01*
X2426Y708D01*
X2424Y708D01*
X2424Y710D01*
X2422Y710D01*
X2422Y712D01*
X2420Y712D01*
X2420Y714D01*
X2418Y714D01*
X2418Y716D01*
X2416Y716D01*
X2416Y718D01*
X2414Y718D01*
X2414Y720D01*
X2412Y720D01*
X2412Y722D01*
X2410Y722D01*
X2410Y724D01*
X2408Y724D01*
X2408Y726D01*
X2406Y726D01*
X2406Y728D01*
X2404Y728D01*
X2404Y730D01*
X2402Y730D01*
X2402Y732D01*
X2400Y732D01*
X2400Y734D01*
X2398Y734D01*
X2398Y736D01*
X2396Y736D01*
X2396Y738D01*
X2394Y738D01*
X2394Y740D01*
X2392Y740D01*
X2392Y742D01*
X2390Y742D01*
X2390Y746D01*
X2388Y746D01*
X2388Y748D01*
X2386Y748D01*
X2386Y750D01*
X2384Y750D01*
X2384Y752D01*
X2382Y752D01*
X2382Y754D01*
X2380Y754D01*
X2380Y756D01*
X2378Y756D01*
X2378Y758D01*
X2376Y758D01*
X2376Y760D01*
X2374Y760D01*
X2374Y762D01*
X2372Y762D01*
X2372Y764D01*
X2370Y764D01*
X2370Y766D01*
X2368Y766D01*
X2368Y768D01*
X2366Y768D01*
X2366Y770D01*
X2364Y770D01*
X2364Y772D01*
X2362Y772D01*
X2362Y774D01*
X2360Y774D01*
X2360Y776D01*
X2358Y776D01*
X2358Y778D01*
X2356Y778D01*
X2356Y780D01*
X2354Y780D01*
X2354Y782D01*
X2352Y782D01*
X2352Y784D01*
X2350Y784D01*
X2350Y788D01*
X2348Y788D01*
X2348Y792D01*
X2346Y792D01*
X2346Y848D01*
X2190Y848D01*
G37*
D02*
G36*
X2348Y650D02*
X2348Y648D01*
X2350Y648D01*
X2350Y646D01*
X2352Y646D01*
X2352Y644D01*
X2354Y644D01*
X2354Y642D01*
X2356Y642D01*
X2356Y640D01*
X2358Y640D01*
X2358Y638D01*
X2360Y638D01*
X2360Y636D01*
X2362Y636D01*
X2362Y634D01*
X2364Y634D01*
X2364Y632D01*
X2366Y632D01*
X2366Y630D01*
X2368Y630D01*
X2368Y628D01*
X2370Y628D01*
X2370Y626D01*
X2372Y626D01*
X2372Y624D01*
X2374Y624D01*
X2374Y622D01*
X2376Y622D01*
X2376Y620D01*
X2422Y620D01*
X2422Y622D01*
X2424Y622D01*
X2424Y626D01*
X2426Y626D01*
X2426Y628D01*
X2428Y628D01*
X2428Y630D01*
X2430Y630D01*
X2430Y634D01*
X2432Y634D01*
X2432Y636D01*
X2436Y636D01*
X2436Y638D01*
X2438Y638D01*
X2438Y640D01*
X2440Y640D01*
X2440Y642D01*
X2444Y642D01*
X2444Y644D01*
X2448Y644D01*
X2448Y646D01*
X2454Y646D01*
X2454Y648D01*
X2464Y648D01*
X2464Y650D01*
X2348Y650D01*
G37*
D02*
G36*
X2472Y650D02*
X2472Y648D01*
X2482Y648D01*
X2482Y646D01*
X2488Y646D01*
X2488Y644D01*
X2492Y644D01*
X2492Y642D01*
X2496Y642D01*
X2496Y640D01*
X2498Y640D01*
X2498Y638D01*
X2500Y638D01*
X2500Y636D01*
X2504Y636D01*
X2504Y634D01*
X2506Y634D01*
X2506Y630D01*
X2508Y630D01*
X2508Y628D01*
X2528Y628D01*
X2528Y630D01*
X2530Y630D01*
X2530Y634D01*
X2532Y634D01*
X2532Y636D01*
X2536Y636D01*
X2536Y638D01*
X2538Y638D01*
X2538Y640D01*
X2540Y640D01*
X2540Y642D01*
X2544Y642D01*
X2544Y644D01*
X2548Y644D01*
X2548Y646D01*
X2554Y646D01*
X2554Y648D01*
X2564Y648D01*
X2564Y650D01*
X2472Y650D01*
G37*
D02*
G36*
X2108Y874D02*
X2108Y872D01*
X2106Y872D01*
X2106Y868D01*
X2104Y868D01*
X2104Y866D01*
X2102Y866D01*
X2102Y864D01*
X2100Y864D01*
X2100Y862D01*
X2098Y862D01*
X2098Y860D01*
X2094Y860D01*
X2094Y858D01*
X2090Y858D01*
X2090Y650D01*
X2118Y650D01*
X2118Y548D01*
X2456Y548D01*
X2456Y550D01*
X2448Y550D01*
X2448Y552D01*
X2444Y552D01*
X2444Y554D01*
X2442Y554D01*
X2442Y556D01*
X2438Y556D01*
X2438Y558D01*
X2436Y558D01*
X2436Y560D01*
X2434Y560D01*
X2434Y562D01*
X2432Y562D01*
X2432Y564D01*
X2430Y564D01*
X2430Y566D01*
X2428Y566D01*
X2428Y568D01*
X2426Y568D01*
X2426Y572D01*
X2424Y572D01*
X2424Y574D01*
X2422Y574D01*
X2422Y576D01*
X2364Y576D01*
X2364Y578D01*
X2358Y578D01*
X2358Y580D01*
X2354Y580D01*
X2354Y582D01*
X2352Y582D01*
X2352Y584D01*
X2350Y584D01*
X2350Y586D01*
X2348Y586D01*
X2348Y588D01*
X2346Y588D01*
X2346Y590D01*
X2344Y590D01*
X2344Y592D01*
X2342Y592D01*
X2342Y594D01*
X2340Y594D01*
X2340Y596D01*
X2338Y596D01*
X2338Y598D01*
X2336Y598D01*
X2336Y600D01*
X2334Y600D01*
X2334Y602D01*
X2332Y602D01*
X2332Y604D01*
X2330Y604D01*
X2330Y606D01*
X2328Y606D01*
X2328Y608D01*
X2326Y608D01*
X2326Y610D01*
X2324Y610D01*
X2324Y612D01*
X2322Y612D01*
X2322Y614D01*
X2320Y614D01*
X2320Y616D01*
X2318Y616D01*
X2318Y618D01*
X2316Y618D01*
X2316Y620D01*
X2314Y620D01*
X2314Y622D01*
X2312Y622D01*
X2312Y624D01*
X2310Y624D01*
X2310Y626D01*
X2308Y626D01*
X2308Y628D01*
X2306Y628D01*
X2306Y630D01*
X2304Y630D01*
X2304Y632D01*
X2302Y632D01*
X2302Y634D01*
X2300Y634D01*
X2300Y636D01*
X2298Y636D01*
X2298Y638D01*
X2296Y638D01*
X2296Y640D01*
X2294Y640D01*
X2294Y642D01*
X2292Y642D01*
X2292Y644D01*
X2290Y644D01*
X2290Y646D01*
X2288Y646D01*
X2288Y648D01*
X2286Y648D01*
X2286Y650D01*
X2284Y650D01*
X2284Y652D01*
X2282Y652D01*
X2282Y654D01*
X2280Y654D01*
X2280Y656D01*
X2278Y656D01*
X2278Y658D01*
X2276Y658D01*
X2276Y660D01*
X2274Y660D01*
X2274Y662D01*
X2272Y662D01*
X2272Y664D01*
X2270Y664D01*
X2270Y666D01*
X2268Y666D01*
X2268Y668D01*
X2266Y668D01*
X2266Y670D01*
X2264Y670D01*
X2264Y672D01*
X2262Y672D01*
X2262Y674D01*
X2260Y674D01*
X2260Y676D01*
X2258Y676D01*
X2258Y678D01*
X2256Y678D01*
X2256Y680D01*
X2254Y680D01*
X2254Y682D01*
X2252Y682D01*
X2252Y684D01*
X2250Y684D01*
X2250Y686D01*
X2248Y686D01*
X2248Y688D01*
X2246Y688D01*
X2246Y690D01*
X2244Y690D01*
X2244Y692D01*
X2242Y692D01*
X2242Y694D01*
X2240Y694D01*
X2240Y696D01*
X2238Y696D01*
X2238Y698D01*
X2236Y698D01*
X2236Y700D01*
X2234Y700D01*
X2234Y702D01*
X2232Y702D01*
X2232Y704D01*
X2230Y704D01*
X2230Y706D01*
X2228Y706D01*
X2228Y708D01*
X2226Y708D01*
X2226Y710D01*
X2224Y710D01*
X2224Y712D01*
X2222Y712D01*
X2222Y714D01*
X2220Y714D01*
X2220Y716D01*
X2218Y716D01*
X2218Y718D01*
X2216Y718D01*
X2216Y720D01*
X2214Y720D01*
X2214Y722D01*
X2212Y722D01*
X2212Y724D01*
X2210Y724D01*
X2210Y726D01*
X2208Y726D01*
X2208Y728D01*
X2206Y728D01*
X2206Y730D01*
X2204Y730D01*
X2204Y732D01*
X2202Y732D01*
X2202Y734D01*
X2200Y734D01*
X2200Y736D01*
X2198Y736D01*
X2198Y738D01*
X2196Y738D01*
X2196Y740D01*
X2194Y740D01*
X2194Y742D01*
X2192Y742D01*
X2192Y744D01*
X2190Y744D01*
X2190Y746D01*
X2188Y746D01*
X2188Y748D01*
X2186Y748D01*
X2186Y750D01*
X2184Y750D01*
X2184Y752D01*
X2182Y752D01*
X2182Y754D01*
X2180Y754D01*
X2180Y756D01*
X2178Y756D01*
X2178Y758D01*
X2176Y758D01*
X2176Y760D01*
X2174Y760D01*
X2174Y762D01*
X2172Y762D01*
X2172Y764D01*
X2170Y764D01*
X2170Y766D01*
X2168Y766D01*
X2168Y768D01*
X2166Y768D01*
X2166Y770D01*
X2164Y770D01*
X2164Y772D01*
X2162Y772D01*
X2162Y774D01*
X2160Y774D01*
X2160Y776D01*
X2158Y776D01*
X2158Y778D01*
X2156Y778D01*
X2156Y780D01*
X2154Y780D01*
X2154Y782D01*
X2152Y782D01*
X2152Y784D01*
X2150Y784D01*
X2150Y788D01*
X2148Y788D01*
X2148Y792D01*
X2146Y792D01*
X2146Y856D01*
X2144Y856D01*
X2144Y858D01*
X2142Y858D01*
X2142Y860D01*
X2138Y860D01*
X2138Y862D01*
X2136Y862D01*
X2136Y864D01*
X2134Y864D01*
X2134Y866D01*
X2132Y866D01*
X2132Y868D01*
X2130Y868D01*
X2130Y872D01*
X2128Y872D01*
X2128Y874D01*
X2108Y874D01*
G37*
D02*
G36*
X1994Y556D02*
X1994Y554D01*
X1990Y554D01*
X1990Y548D01*
X2016Y548D01*
X2016Y556D01*
X1994Y556D01*
G37*
D02*
G36*
X1990Y548D02*
X1990Y546D01*
X2468Y546D01*
X2468Y548D01*
X1990Y548D01*
G37*
D02*
G36*
X1990Y548D02*
X1990Y546D01*
X2468Y546D01*
X2468Y548D01*
X1990Y548D01*
G37*
D02*
G36*
X1990Y546D02*
X1990Y452D01*
X1992Y452D01*
X1992Y450D01*
X1994Y450D01*
X1994Y448D01*
X1998Y448D01*
X1998Y446D01*
X2000Y446D01*
X2000Y444D01*
X2002Y444D01*
X2002Y442D01*
X2004Y442D01*
X2004Y440D01*
X2006Y440D01*
X2006Y438D01*
X2008Y438D01*
X2008Y434D01*
X2010Y434D01*
X2010Y432D01*
X2012Y432D01*
X2012Y430D01*
X2032Y430D01*
X2032Y432D01*
X2034Y432D01*
X2034Y434D01*
X2036Y434D01*
X2036Y436D01*
X2038Y436D01*
X2038Y438D01*
X2042Y438D01*
X2042Y440D01*
X2044Y440D01*
X2044Y442D01*
X2048Y442D01*
X2048Y444D01*
X2054Y444D01*
X2054Y446D01*
X2064Y446D01*
X2064Y448D01*
X2088Y448D01*
X2088Y450D01*
X2090Y450D01*
X2090Y452D01*
X2092Y452D01*
X2092Y454D01*
X2094Y454D01*
X2094Y456D01*
X2096Y456D01*
X2096Y458D01*
X2098Y458D01*
X2098Y460D01*
X2100Y460D01*
X2100Y462D01*
X2102Y462D01*
X2102Y464D01*
X2104Y464D01*
X2104Y466D01*
X2106Y466D01*
X2106Y468D01*
X2108Y468D01*
X2108Y470D01*
X2110Y470D01*
X2110Y472D01*
X2112Y472D01*
X2112Y474D01*
X2114Y474D01*
X2114Y476D01*
X2116Y476D01*
X2116Y478D01*
X2118Y478D01*
X2118Y480D01*
X2120Y480D01*
X2120Y482D01*
X2122Y482D01*
X2122Y484D01*
X2124Y484D01*
X2124Y486D01*
X2126Y486D01*
X2126Y488D01*
X2128Y488D01*
X2128Y490D01*
X2130Y490D01*
X2130Y492D01*
X2132Y492D01*
X2132Y494D01*
X2134Y494D01*
X2134Y496D01*
X2136Y496D01*
X2136Y498D01*
X2138Y498D01*
X2138Y500D01*
X2140Y500D01*
X2140Y502D01*
X2142Y502D01*
X2142Y504D01*
X2146Y504D01*
X2146Y506D01*
X2148Y506D01*
X2148Y508D01*
X2150Y508D01*
X2150Y510D01*
X2152Y510D01*
X2152Y512D01*
X2154Y512D01*
X2154Y514D01*
X2156Y514D01*
X2156Y516D01*
X2160Y516D01*
X2160Y518D01*
X2458Y518D01*
X2458Y520D01*
X2460Y520D01*
X2460Y522D01*
X2462Y522D01*
X2462Y524D01*
X2464Y524D01*
X2464Y526D01*
X2466Y526D01*
X2466Y528D01*
X2468Y528D01*
X2468Y546D01*
X1990Y546D01*
G37*
D02*
G36*
X2546Y546D02*
X2546Y544D01*
X2544Y544D01*
X2544Y542D01*
X2542Y542D01*
X2542Y540D01*
X2540Y540D01*
X2540Y538D01*
X2538Y538D01*
X2538Y536D01*
X2536Y536D01*
X2536Y534D01*
X2534Y534D01*
X2534Y532D01*
X2532Y532D01*
X2532Y530D01*
X2530Y530D01*
X2530Y528D01*
X2528Y528D01*
X2528Y526D01*
X2526Y526D01*
X2526Y524D01*
X2524Y524D01*
X2524Y522D01*
X2522Y522D01*
X2522Y520D01*
X2520Y520D01*
X2520Y518D01*
X2518Y518D01*
X2518Y516D01*
X2516Y516D01*
X2516Y514D01*
X2514Y514D01*
X2514Y512D01*
X2512Y512D01*
X2512Y510D01*
X2510Y510D01*
X2510Y508D01*
X2508Y508D01*
X2508Y506D01*
X2506Y506D01*
X2506Y504D01*
X2504Y504D01*
X2504Y502D01*
X2502Y502D01*
X2502Y500D01*
X2500Y500D01*
X2500Y498D01*
X2498Y498D01*
X2498Y496D01*
X2496Y496D01*
X2496Y494D01*
X2494Y494D01*
X2494Y492D01*
X2492Y492D01*
X2492Y490D01*
X2490Y490D01*
X2490Y488D01*
X2488Y488D01*
X2488Y486D01*
X2486Y486D01*
X2486Y484D01*
X2484Y484D01*
X2484Y482D01*
X2482Y482D01*
X2482Y480D01*
X2480Y480D01*
X2480Y478D01*
X2476Y478D01*
X2476Y476D01*
X2470Y476D01*
X2470Y474D01*
X2182Y474D01*
X2182Y454D01*
X2188Y454D01*
X2188Y452D01*
X2192Y452D01*
X2192Y450D01*
X2194Y450D01*
X2194Y448D01*
X2198Y448D01*
X2198Y446D01*
X2200Y446D01*
X2200Y444D01*
X2202Y444D01*
X2202Y442D01*
X2204Y442D01*
X2204Y440D01*
X2206Y440D01*
X2206Y438D01*
X2208Y438D01*
X2208Y434D01*
X2210Y434D01*
X2210Y432D01*
X2212Y432D01*
X2212Y428D01*
X2268Y428D01*
X2268Y426D01*
X2328Y426D01*
X2328Y424D01*
X2390Y424D01*
X2390Y422D01*
X2460Y422D01*
X2460Y424D01*
X2462Y424D01*
X2462Y426D01*
X2464Y426D01*
X2464Y428D01*
X2466Y428D01*
X2466Y430D01*
X2468Y430D01*
X2468Y432D01*
X2470Y432D01*
X2470Y434D01*
X2472Y434D01*
X2472Y436D01*
X2474Y436D01*
X2474Y438D01*
X2476Y438D01*
X2476Y440D01*
X2478Y440D01*
X2478Y442D01*
X2480Y442D01*
X2480Y444D01*
X2482Y444D01*
X2482Y446D01*
X2484Y446D01*
X2484Y448D01*
X2486Y448D01*
X2486Y450D01*
X2488Y450D01*
X2488Y452D01*
X2490Y452D01*
X2490Y454D01*
X2492Y454D01*
X2492Y456D01*
X2494Y456D01*
X2494Y458D01*
X2496Y458D01*
X2496Y460D01*
X2498Y460D01*
X2498Y462D01*
X2500Y462D01*
X2500Y464D01*
X2502Y464D01*
X2502Y466D01*
X2504Y466D01*
X2504Y468D01*
X2506Y468D01*
X2506Y470D01*
X2508Y470D01*
X2508Y472D01*
X2510Y472D01*
X2510Y474D01*
X2512Y474D01*
X2512Y476D01*
X2514Y476D01*
X2514Y478D01*
X2516Y478D01*
X2516Y480D01*
X2518Y480D01*
X2518Y482D01*
X2520Y482D01*
X2520Y484D01*
X2522Y484D01*
X2522Y486D01*
X2524Y486D01*
X2524Y488D01*
X2526Y488D01*
X2526Y490D01*
X2528Y490D01*
X2528Y492D01*
X2530Y492D01*
X2530Y494D01*
X2532Y494D01*
X2532Y496D01*
X2534Y496D01*
X2534Y498D01*
X2536Y498D01*
X2536Y500D01*
X2538Y500D01*
X2538Y502D01*
X2540Y502D01*
X2540Y504D01*
X2542Y504D01*
X2542Y506D01*
X2544Y506D01*
X2544Y508D01*
X2546Y508D01*
X2546Y510D01*
X2548Y510D01*
X2548Y512D01*
X2550Y512D01*
X2550Y514D01*
X2552Y514D01*
X2552Y516D01*
X2554Y516D01*
X2554Y518D01*
X2556Y518D01*
X2556Y520D01*
X2558Y520D01*
X2558Y522D01*
X2560Y522D01*
X2560Y524D01*
X2562Y524D01*
X2562Y526D01*
X2564Y526D01*
X2564Y528D01*
X2566Y528D01*
X2566Y546D01*
X2546Y546D01*
G37*
D02*
G36*
X40Y2182D02*
X40Y2048D01*
X2372Y2048D01*
X2372Y2046D01*
X2382Y2046D01*
X2382Y2044D01*
X2388Y2044D01*
X2388Y2042D01*
X2392Y2042D01*
X2392Y2040D01*
X2394Y2040D01*
X2394Y2038D01*
X2398Y2038D01*
X2398Y2036D01*
X2400Y2036D01*
X2400Y2034D01*
X2402Y2034D01*
X2402Y2032D01*
X2404Y2032D01*
X2404Y2030D01*
X2406Y2030D01*
X2406Y2028D01*
X2408Y2028D01*
X2408Y2024D01*
X2410Y2024D01*
X2410Y2022D01*
X2474Y2022D01*
X2474Y2020D01*
X2480Y2020D01*
X2480Y2018D01*
X2482Y2018D01*
X2482Y2016D01*
X2486Y2016D01*
X2486Y2014D01*
X2488Y2014D01*
X2488Y2012D01*
X2490Y2012D01*
X2490Y2010D01*
X2492Y2010D01*
X2492Y2008D01*
X2494Y2008D01*
X2494Y2006D01*
X2496Y2006D01*
X2496Y2004D01*
X2498Y2004D01*
X2498Y2002D01*
X2500Y2002D01*
X2500Y2000D01*
X2502Y2000D01*
X2502Y1998D01*
X2504Y1998D01*
X2504Y1996D01*
X2506Y1996D01*
X2506Y1994D01*
X2508Y1994D01*
X2508Y1992D01*
X2510Y1992D01*
X2510Y1990D01*
X2512Y1990D01*
X2512Y1988D01*
X2514Y1988D01*
X2514Y1986D01*
X2516Y1986D01*
X2516Y1984D01*
X2518Y1984D01*
X2518Y1982D01*
X2520Y1982D01*
X2520Y1980D01*
X2522Y1980D01*
X2522Y1978D01*
X2524Y1978D01*
X2524Y1976D01*
X2526Y1976D01*
X2526Y1974D01*
X2528Y1974D01*
X2528Y1972D01*
X2530Y1972D01*
X2530Y1970D01*
X2532Y1970D01*
X2532Y1968D01*
X2534Y1968D01*
X2534Y1966D01*
X2536Y1966D01*
X2536Y1964D01*
X2538Y1964D01*
X2538Y1962D01*
X2540Y1962D01*
X2540Y1960D01*
X2542Y1960D01*
X2542Y1958D01*
X2544Y1958D01*
X2544Y1956D01*
X2546Y1956D01*
X2546Y1954D01*
X2548Y1954D01*
X2548Y1952D01*
X2550Y1952D01*
X2550Y1950D01*
X2552Y1950D01*
X2552Y1948D01*
X2554Y1948D01*
X2554Y1946D01*
X2556Y1946D01*
X2556Y1944D01*
X2558Y1944D01*
X2558Y1942D01*
X2560Y1942D01*
X2560Y1940D01*
X2562Y1940D01*
X2562Y1938D01*
X2564Y1938D01*
X2564Y1936D01*
X2566Y1936D01*
X2566Y1934D01*
X2568Y1934D01*
X2568Y1932D01*
X2570Y1932D01*
X2570Y1930D01*
X2572Y1930D01*
X2572Y1928D01*
X2574Y1928D01*
X2574Y1926D01*
X2576Y1926D01*
X2576Y1924D01*
X2578Y1924D01*
X2578Y1922D01*
X2580Y1922D01*
X2580Y1920D01*
X2582Y1920D01*
X2582Y1918D01*
X2584Y1918D01*
X2584Y1916D01*
X2586Y1916D01*
X2586Y1914D01*
X2588Y1914D01*
X2588Y1912D01*
X2590Y1912D01*
X2590Y1910D01*
X2592Y1910D01*
X2592Y1908D01*
X2594Y1908D01*
X2594Y1906D01*
X2596Y1906D01*
X2596Y1904D01*
X2598Y1904D01*
X2598Y1902D01*
X2600Y1902D01*
X2600Y1900D01*
X2602Y1900D01*
X2602Y1898D01*
X2604Y1898D01*
X2604Y1896D01*
X2606Y1896D01*
X2606Y1894D01*
X2608Y1894D01*
X2608Y1892D01*
X2610Y1892D01*
X2610Y1890D01*
X2612Y1890D01*
X2612Y1888D01*
X2614Y1888D01*
X2614Y1886D01*
X2616Y1886D01*
X2616Y1884D01*
X2618Y1884D01*
X2618Y1882D01*
X2620Y1882D01*
X2620Y1880D01*
X2622Y1880D01*
X2622Y1878D01*
X2624Y1878D01*
X2624Y1876D01*
X2626Y1876D01*
X2626Y1874D01*
X2628Y1874D01*
X2628Y1872D01*
X2630Y1872D01*
X2630Y1870D01*
X2632Y1870D01*
X2632Y1868D01*
X2634Y1868D01*
X2634Y1866D01*
X2636Y1866D01*
X2636Y1864D01*
X2638Y1864D01*
X2638Y1862D01*
X2640Y1862D01*
X2640Y1860D01*
X2642Y1860D01*
X2642Y1858D01*
X2644Y1858D01*
X2644Y1856D01*
X2646Y1856D01*
X2646Y1854D01*
X2648Y1854D01*
X2648Y1852D01*
X2650Y1852D01*
X2650Y1850D01*
X2652Y1850D01*
X2652Y1848D01*
X2654Y1848D01*
X2654Y1846D01*
X2656Y1846D01*
X2656Y1844D01*
X2658Y1844D01*
X2658Y1842D01*
X2660Y1842D01*
X2660Y1840D01*
X2662Y1840D01*
X2662Y1838D01*
X2664Y1838D01*
X2664Y1836D01*
X2666Y1836D01*
X2666Y1834D01*
X2668Y1834D01*
X2668Y1832D01*
X2670Y1832D01*
X2670Y1830D01*
X2672Y1830D01*
X2672Y1828D01*
X2674Y1828D01*
X2674Y1826D01*
X2676Y1826D01*
X2676Y1824D01*
X2678Y1824D01*
X2678Y1822D01*
X2680Y1822D01*
X2680Y1820D01*
X2682Y1820D01*
X2682Y1818D01*
X2684Y1818D01*
X2684Y1816D01*
X2686Y1816D01*
X2686Y1812D01*
X2688Y1812D01*
X2688Y1810D01*
X2690Y1810D01*
X2690Y1806D01*
X2692Y1806D01*
X2692Y1392D01*
X2690Y1392D01*
X2690Y1386D01*
X2688Y1386D01*
X2688Y1384D01*
X2686Y1384D01*
X2686Y1382D01*
X2684Y1382D01*
X2684Y1380D01*
X2682Y1380D01*
X2682Y1378D01*
X2680Y1378D01*
X2680Y1376D01*
X2678Y1376D01*
X2678Y1374D01*
X2676Y1374D01*
X2676Y1372D01*
X2674Y1372D01*
X2674Y1370D01*
X2672Y1370D01*
X2672Y1368D01*
X2670Y1368D01*
X2670Y1366D01*
X2668Y1366D01*
X2668Y1364D01*
X2666Y1364D01*
X2666Y1362D01*
X2664Y1362D01*
X2664Y1360D01*
X2662Y1360D01*
X2662Y1358D01*
X2660Y1358D01*
X2660Y1356D01*
X2658Y1356D01*
X2658Y1354D01*
X2656Y1354D01*
X2656Y1352D01*
X2654Y1352D01*
X2654Y1350D01*
X2652Y1350D01*
X2652Y1348D01*
X2650Y1348D01*
X2650Y1346D01*
X2648Y1346D01*
X2648Y1344D01*
X2646Y1344D01*
X2646Y1342D01*
X2644Y1342D01*
X2644Y1340D01*
X2642Y1340D01*
X2642Y1338D01*
X2640Y1338D01*
X2640Y1336D01*
X2638Y1336D01*
X2638Y1334D01*
X2636Y1334D01*
X2636Y1332D01*
X2634Y1332D01*
X2634Y1330D01*
X2632Y1330D01*
X2632Y1328D01*
X2630Y1328D01*
X2630Y1326D01*
X2628Y1326D01*
X2628Y1324D01*
X2626Y1324D01*
X2626Y1322D01*
X2624Y1322D01*
X2624Y1320D01*
X2622Y1320D01*
X2622Y1318D01*
X2620Y1318D01*
X2620Y1316D01*
X2618Y1316D01*
X2618Y1314D01*
X2616Y1314D01*
X2616Y1312D01*
X2614Y1312D01*
X2614Y1310D01*
X2612Y1310D01*
X2612Y1308D01*
X2610Y1308D01*
X2610Y1306D01*
X2608Y1306D01*
X2608Y1304D01*
X2606Y1304D01*
X2606Y1302D01*
X2604Y1302D01*
X2604Y1300D01*
X2602Y1300D01*
X2602Y1298D01*
X2600Y1298D01*
X2600Y1296D01*
X2598Y1296D01*
X2598Y1294D01*
X2596Y1294D01*
X2596Y1292D01*
X2594Y1292D01*
X2594Y1290D01*
X2592Y1290D01*
X2592Y1288D01*
X2590Y1288D01*
X2590Y1286D01*
X2588Y1286D01*
X2588Y1284D01*
X2586Y1284D01*
X2586Y1282D01*
X2584Y1282D01*
X2584Y1280D01*
X2582Y1280D01*
X2582Y1278D01*
X2580Y1278D01*
X2580Y1276D01*
X2578Y1276D01*
X2578Y1274D01*
X2576Y1274D01*
X2576Y1272D01*
X2574Y1272D01*
X2574Y1270D01*
X2572Y1270D01*
X2572Y1268D01*
X2570Y1268D01*
X2570Y1266D01*
X2568Y1266D01*
X2568Y1264D01*
X2566Y1264D01*
X2566Y1262D01*
X2564Y1262D01*
X2564Y1260D01*
X2562Y1260D01*
X2562Y1258D01*
X2560Y1258D01*
X2560Y1256D01*
X2558Y1256D01*
X2558Y1254D01*
X2556Y1254D01*
X2556Y1252D01*
X2554Y1252D01*
X2554Y1250D01*
X2552Y1250D01*
X2552Y1248D01*
X2550Y1248D01*
X2550Y1246D01*
X2548Y1246D01*
X2548Y1244D01*
X2546Y1244D01*
X2546Y1242D01*
X2544Y1242D01*
X2544Y1240D01*
X2542Y1240D01*
X2542Y1238D01*
X2540Y1238D01*
X2540Y1236D01*
X2538Y1236D01*
X2538Y1234D01*
X2536Y1234D01*
X2536Y1232D01*
X2534Y1232D01*
X2534Y1230D01*
X2532Y1230D01*
X2532Y1228D01*
X2530Y1228D01*
X2530Y1226D01*
X2528Y1226D01*
X2528Y1224D01*
X2526Y1224D01*
X2526Y1222D01*
X2524Y1222D01*
X2524Y1220D01*
X2522Y1220D01*
X2522Y1218D01*
X2520Y1218D01*
X2520Y1216D01*
X2518Y1216D01*
X2518Y1214D01*
X2516Y1214D01*
X2516Y1212D01*
X2514Y1212D01*
X2514Y1210D01*
X2512Y1210D01*
X2512Y1208D01*
X2510Y1208D01*
X2510Y1206D01*
X2508Y1206D01*
X2508Y1204D01*
X2506Y1204D01*
X2506Y1202D01*
X2504Y1202D01*
X2504Y1200D01*
X2502Y1200D01*
X2502Y1198D01*
X2500Y1198D01*
X2500Y1196D01*
X2498Y1196D01*
X2498Y1194D01*
X2496Y1194D01*
X2496Y1192D01*
X2494Y1192D01*
X2494Y1190D01*
X2492Y1190D01*
X2492Y1188D01*
X2490Y1188D01*
X2490Y1186D01*
X2488Y1186D01*
X2488Y1184D01*
X2486Y1184D01*
X2486Y1182D01*
X2484Y1182D01*
X2484Y1180D01*
X2482Y1180D01*
X2482Y1178D01*
X2478Y1178D01*
X2478Y1176D01*
X3292Y1176D01*
X3292Y2182D01*
X40Y2182D01*
G37*
D02*
G36*
X40Y2048D02*
X40Y2046D01*
X2316Y2046D01*
X2316Y2034D01*
X2336Y2034D01*
X2336Y2036D01*
X2338Y2036D01*
X2338Y2038D01*
X2342Y2038D01*
X2342Y2040D01*
X2344Y2040D01*
X2344Y2042D01*
X2348Y2042D01*
X2348Y2044D01*
X2354Y2044D01*
X2354Y2046D01*
X2364Y2046D01*
X2364Y2048D01*
X40Y2048D01*
G37*
D02*
G36*
X40Y2046D02*
X40Y1450D01*
X1664Y1450D01*
X1664Y1452D01*
X1654Y1452D01*
X1654Y1454D01*
X1648Y1454D01*
X1648Y1456D01*
X1644Y1456D01*
X1644Y1458D01*
X1642Y1458D01*
X1642Y1460D01*
X1638Y1460D01*
X1638Y1462D01*
X1636Y1462D01*
X1636Y1464D01*
X1634Y1464D01*
X1634Y1466D01*
X1632Y1466D01*
X1632Y1468D01*
X1630Y1468D01*
X1630Y1472D01*
X1628Y1472D01*
X1628Y1474D01*
X1626Y1474D01*
X1626Y1478D01*
X1624Y1478D01*
X1624Y1484D01*
X1622Y1484D01*
X1622Y1492D01*
X1620Y1492D01*
X1620Y1516D01*
X1618Y1516D01*
X1618Y1518D01*
X1616Y1518D01*
X1616Y1520D01*
X1614Y1520D01*
X1614Y1522D01*
X1612Y1522D01*
X1612Y1524D01*
X1610Y1524D01*
X1610Y1526D01*
X1608Y1526D01*
X1608Y1528D01*
X1606Y1528D01*
X1606Y1530D01*
X1604Y1530D01*
X1604Y1532D01*
X1602Y1532D01*
X1602Y1534D01*
X1600Y1534D01*
X1600Y1536D01*
X1598Y1536D01*
X1598Y1538D01*
X1596Y1538D01*
X1596Y1540D01*
X1594Y1540D01*
X1594Y1542D01*
X1592Y1542D01*
X1592Y1544D01*
X1590Y1544D01*
X1590Y1546D01*
X1588Y1546D01*
X1588Y1548D01*
X1586Y1548D01*
X1586Y1550D01*
X1584Y1550D01*
X1584Y1552D01*
X1582Y1552D01*
X1582Y1554D01*
X1580Y1554D01*
X1580Y1556D01*
X1578Y1556D01*
X1578Y1558D01*
X1576Y1558D01*
X1576Y1560D01*
X1574Y1560D01*
X1574Y1562D01*
X1572Y1562D01*
X1572Y1564D01*
X1570Y1564D01*
X1570Y1566D01*
X1568Y1566D01*
X1568Y1568D01*
X1566Y1568D01*
X1566Y1570D01*
X1564Y1570D01*
X1564Y1572D01*
X1562Y1572D01*
X1562Y1574D01*
X1560Y1574D01*
X1560Y1576D01*
X1558Y1576D01*
X1558Y1578D01*
X1556Y1578D01*
X1556Y1580D01*
X1554Y1580D01*
X1554Y1582D01*
X1552Y1582D01*
X1552Y1584D01*
X1550Y1584D01*
X1550Y1588D01*
X1548Y1588D01*
X1548Y1590D01*
X1546Y1590D01*
X1546Y1906D01*
X1548Y1906D01*
X1548Y1910D01*
X1550Y1910D01*
X1550Y1912D01*
X1552Y1912D01*
X1552Y1914D01*
X1554Y1914D01*
X1554Y1916D01*
X1556Y1916D01*
X1556Y1918D01*
X1558Y1918D01*
X1558Y1920D01*
X1560Y1920D01*
X1560Y1922D01*
X1562Y1922D01*
X1562Y1924D01*
X1564Y1924D01*
X1564Y1926D01*
X1566Y1926D01*
X1566Y1928D01*
X1568Y1928D01*
X1568Y1930D01*
X1570Y1930D01*
X1570Y1932D01*
X1572Y1932D01*
X1572Y1934D01*
X1574Y1934D01*
X1574Y1936D01*
X1576Y1936D01*
X1576Y1938D01*
X1578Y1938D01*
X1578Y1940D01*
X1580Y1940D01*
X1580Y1942D01*
X1582Y1942D01*
X1582Y1944D01*
X1584Y1944D01*
X1584Y1946D01*
X1586Y1946D01*
X1586Y1948D01*
X1588Y1948D01*
X1588Y1950D01*
X1590Y1950D01*
X1590Y1952D01*
X1592Y1952D01*
X1592Y1954D01*
X1594Y1954D01*
X1594Y1956D01*
X1596Y1956D01*
X1596Y1958D01*
X1598Y1958D01*
X1598Y1960D01*
X1600Y1960D01*
X1600Y1962D01*
X1602Y1962D01*
X1602Y1964D01*
X1604Y1964D01*
X1604Y1966D01*
X1606Y1966D01*
X1606Y1968D01*
X1608Y1968D01*
X1608Y1970D01*
X1610Y1970D01*
X1610Y1972D01*
X1612Y1972D01*
X1612Y1974D01*
X1614Y1974D01*
X1614Y1976D01*
X1616Y1976D01*
X1616Y1978D01*
X1618Y1978D01*
X1618Y1980D01*
X1620Y1980D01*
X1620Y2004D01*
X1622Y2004D01*
X1622Y2012D01*
X1624Y2012D01*
X1624Y2018D01*
X1626Y2018D01*
X1626Y2022D01*
X1628Y2022D01*
X1628Y2026D01*
X1630Y2026D01*
X1630Y2028D01*
X1632Y2028D01*
X1632Y2030D01*
X1634Y2030D01*
X1634Y2032D01*
X1636Y2032D01*
X1636Y2034D01*
X1638Y2034D01*
X1638Y2036D01*
X1640Y2036D01*
X1640Y2038D01*
X1644Y2038D01*
X1644Y2040D01*
X1648Y2040D01*
X1648Y2042D01*
X1652Y2042D01*
X1652Y2044D01*
X1660Y2044D01*
X1660Y2046D01*
X40Y2046D01*
G37*
D02*
G36*
X1676Y2046D02*
X1676Y2044D01*
X1684Y2044D01*
X1684Y2042D01*
X1688Y2042D01*
X1688Y2040D01*
X1692Y2040D01*
X1692Y2038D01*
X1696Y2038D01*
X1696Y2036D01*
X1698Y2036D01*
X1698Y2034D01*
X1700Y2034D01*
X1700Y2032D01*
X1702Y2032D01*
X1702Y2030D01*
X1704Y2030D01*
X1704Y2028D01*
X1706Y2028D01*
X1706Y2026D01*
X1708Y2026D01*
X1708Y2022D01*
X1728Y2022D01*
X1728Y2026D01*
X1730Y2026D01*
X1730Y2028D01*
X1732Y2028D01*
X1732Y2030D01*
X1734Y2030D01*
X1734Y2032D01*
X1736Y2032D01*
X1736Y2034D01*
X1738Y2034D01*
X1738Y2036D01*
X1740Y2036D01*
X1740Y2038D01*
X1744Y2038D01*
X1744Y2040D01*
X1748Y2040D01*
X1748Y2042D01*
X1752Y2042D01*
X1752Y2044D01*
X1760Y2044D01*
X1760Y2046D01*
X1676Y2046D01*
G37*
D02*
G36*
X1776Y2046D02*
X1776Y2044D01*
X1784Y2044D01*
X1784Y2042D01*
X1788Y2042D01*
X1788Y2040D01*
X1792Y2040D01*
X1792Y2038D01*
X1796Y2038D01*
X1796Y2036D01*
X1798Y2036D01*
X1798Y2034D01*
X1800Y2034D01*
X1800Y2032D01*
X1802Y2032D01*
X1802Y2030D01*
X1804Y2030D01*
X1804Y2028D01*
X1806Y2028D01*
X1806Y2026D01*
X1808Y2026D01*
X1808Y2022D01*
X1828Y2022D01*
X1828Y2026D01*
X1830Y2026D01*
X1830Y2028D01*
X1832Y2028D01*
X1832Y2030D01*
X1834Y2030D01*
X1834Y2032D01*
X1836Y2032D01*
X1836Y2034D01*
X1838Y2034D01*
X1838Y2036D01*
X1840Y2036D01*
X1840Y2038D01*
X1844Y2038D01*
X1844Y2040D01*
X1848Y2040D01*
X1848Y2042D01*
X1852Y2042D01*
X1852Y2044D01*
X1860Y2044D01*
X1860Y2046D01*
X1776Y2046D01*
G37*
D02*
G36*
X1876Y2046D02*
X1876Y2044D01*
X1884Y2044D01*
X1884Y2042D01*
X1888Y2042D01*
X1888Y2040D01*
X1892Y2040D01*
X1892Y2038D01*
X1896Y2038D01*
X1896Y2036D01*
X1898Y2036D01*
X1898Y2034D01*
X1900Y2034D01*
X1900Y2032D01*
X1902Y2032D01*
X1902Y2030D01*
X1904Y2030D01*
X1904Y2028D01*
X1906Y2028D01*
X1906Y2026D01*
X1908Y2026D01*
X1908Y2022D01*
X1928Y2022D01*
X1928Y2026D01*
X1930Y2026D01*
X1930Y2028D01*
X1932Y2028D01*
X1932Y2030D01*
X1934Y2030D01*
X1934Y2032D01*
X1936Y2032D01*
X1936Y2034D01*
X1938Y2034D01*
X1938Y2036D01*
X1940Y2036D01*
X1940Y2038D01*
X1944Y2038D01*
X1944Y2040D01*
X1948Y2040D01*
X1948Y2042D01*
X1952Y2042D01*
X1952Y2044D01*
X1960Y2044D01*
X1960Y2046D01*
X1876Y2046D01*
G37*
D02*
G36*
X1976Y2046D02*
X1976Y2044D01*
X1984Y2044D01*
X1984Y2042D01*
X1988Y2042D01*
X1988Y2040D01*
X1992Y2040D01*
X1992Y2038D01*
X1996Y2038D01*
X1996Y2036D01*
X1998Y2036D01*
X1998Y2034D01*
X2000Y2034D01*
X2000Y2032D01*
X2002Y2032D01*
X2002Y2030D01*
X2004Y2030D01*
X2004Y2028D01*
X2006Y2028D01*
X2006Y2026D01*
X2008Y2026D01*
X2008Y2022D01*
X2028Y2022D01*
X2028Y2026D01*
X2030Y2026D01*
X2030Y2028D01*
X2032Y2028D01*
X2032Y2030D01*
X2034Y2030D01*
X2034Y2032D01*
X2036Y2032D01*
X2036Y2034D01*
X2038Y2034D01*
X2038Y2036D01*
X2040Y2036D01*
X2040Y2038D01*
X2044Y2038D01*
X2044Y2040D01*
X2048Y2040D01*
X2048Y2042D01*
X2052Y2042D01*
X2052Y2044D01*
X2060Y2044D01*
X2060Y2046D01*
X1976Y2046D01*
G37*
D02*
G36*
X2076Y2046D02*
X2076Y2044D01*
X2084Y2044D01*
X2084Y2042D01*
X2088Y2042D01*
X2088Y2040D01*
X2092Y2040D01*
X2092Y2038D01*
X2096Y2038D01*
X2096Y2036D01*
X2098Y2036D01*
X2098Y2034D01*
X2100Y2034D01*
X2100Y2032D01*
X2102Y2032D01*
X2102Y2030D01*
X2104Y2030D01*
X2104Y2028D01*
X2106Y2028D01*
X2106Y2026D01*
X2108Y2026D01*
X2108Y2022D01*
X2128Y2022D01*
X2128Y2026D01*
X2130Y2026D01*
X2130Y2028D01*
X2132Y2028D01*
X2132Y2030D01*
X2134Y2030D01*
X2134Y2032D01*
X2136Y2032D01*
X2136Y2034D01*
X2138Y2034D01*
X2138Y2036D01*
X2140Y2036D01*
X2140Y2038D01*
X2144Y2038D01*
X2144Y2040D01*
X2148Y2040D01*
X2148Y2042D01*
X2152Y2042D01*
X2152Y2044D01*
X2160Y2044D01*
X2160Y2046D01*
X2076Y2046D01*
G37*
D02*
G36*
X2176Y2046D02*
X2176Y2044D01*
X2184Y2044D01*
X2184Y2042D01*
X2188Y2042D01*
X2188Y2040D01*
X2192Y2040D01*
X2192Y2038D01*
X2196Y2038D01*
X2196Y2036D01*
X2198Y2036D01*
X2198Y2034D01*
X2200Y2034D01*
X2200Y2032D01*
X2220Y2032D01*
X2220Y2046D01*
X2176Y2046D01*
G37*
D02*
G36*
X2428Y1978D02*
X2428Y1976D01*
X2410Y1976D01*
X2410Y1972D01*
X2408Y1972D01*
X2408Y1970D01*
X2406Y1970D01*
X2406Y1966D01*
X2404Y1966D01*
X2404Y1964D01*
X2402Y1964D01*
X2402Y1962D01*
X2400Y1962D01*
X2400Y1942D01*
X2402Y1942D01*
X2402Y1940D01*
X2404Y1940D01*
X2404Y1938D01*
X2408Y1938D01*
X2408Y1936D01*
X2410Y1936D01*
X2410Y1934D01*
X2412Y1934D01*
X2412Y1932D01*
X2414Y1932D01*
X2414Y1930D01*
X2416Y1930D01*
X2416Y1928D01*
X2418Y1928D01*
X2418Y1924D01*
X2420Y1924D01*
X2420Y1922D01*
X2422Y1922D01*
X2422Y1918D01*
X2424Y1918D01*
X2424Y1912D01*
X2426Y1912D01*
X2426Y1886D01*
X2424Y1886D01*
X2424Y1880D01*
X2422Y1880D01*
X2422Y1876D01*
X2420Y1876D01*
X2420Y1872D01*
X2418Y1872D01*
X2418Y1870D01*
X2416Y1870D01*
X2416Y1866D01*
X2414Y1866D01*
X2414Y1864D01*
X2412Y1864D01*
X2412Y1862D01*
X2410Y1862D01*
X2410Y1860D01*
X2406Y1860D01*
X2406Y1858D01*
X2404Y1858D01*
X2404Y1856D01*
X2400Y1856D01*
X2400Y1834D01*
X2402Y1834D01*
X2402Y1832D01*
X2404Y1832D01*
X2404Y1830D01*
X2406Y1830D01*
X2406Y1828D01*
X2408Y1828D01*
X2408Y1824D01*
X2410Y1824D01*
X2410Y1822D01*
X2412Y1822D01*
X2412Y1818D01*
X2414Y1818D01*
X2414Y1812D01*
X2416Y1812D01*
X2416Y1786D01*
X2414Y1786D01*
X2414Y1780D01*
X2412Y1780D01*
X2412Y1776D01*
X2410Y1776D01*
X2410Y1772D01*
X2408Y1772D01*
X2408Y1770D01*
X2406Y1770D01*
X2406Y1766D01*
X2404Y1766D01*
X2404Y1764D01*
X2402Y1764D01*
X2402Y1762D01*
X2400Y1762D01*
X2400Y1742D01*
X2402Y1742D01*
X2402Y1740D01*
X2404Y1740D01*
X2404Y1738D01*
X2408Y1738D01*
X2408Y1736D01*
X2410Y1736D01*
X2410Y1734D01*
X2412Y1734D01*
X2412Y1732D01*
X2414Y1732D01*
X2414Y1730D01*
X2416Y1730D01*
X2416Y1728D01*
X2418Y1728D01*
X2418Y1724D01*
X2420Y1724D01*
X2420Y1722D01*
X2422Y1722D01*
X2422Y1718D01*
X2424Y1718D01*
X2424Y1712D01*
X2426Y1712D01*
X2426Y1686D01*
X2424Y1686D01*
X2424Y1680D01*
X2422Y1680D01*
X2422Y1676D01*
X2420Y1676D01*
X2420Y1672D01*
X2418Y1672D01*
X2418Y1670D01*
X2416Y1670D01*
X2416Y1666D01*
X2414Y1666D01*
X2414Y1664D01*
X2412Y1664D01*
X2412Y1662D01*
X2410Y1662D01*
X2410Y1660D01*
X2406Y1660D01*
X2406Y1658D01*
X2404Y1658D01*
X2404Y1656D01*
X2400Y1656D01*
X2400Y1654D01*
X2396Y1654D01*
X2396Y1648D01*
X2394Y1648D01*
X2394Y1628D01*
X2392Y1628D01*
X2392Y1610D01*
X2390Y1610D01*
X2390Y1594D01*
X2388Y1594D01*
X2388Y1588D01*
X2386Y1588D01*
X2386Y1586D01*
X2384Y1586D01*
X2384Y1584D01*
X2382Y1584D01*
X2382Y1582D01*
X2380Y1582D01*
X2380Y1580D01*
X2376Y1580D01*
X2376Y1578D01*
X2648Y1578D01*
X2648Y1790D01*
X2646Y1790D01*
X2646Y1792D01*
X2644Y1792D01*
X2644Y1794D01*
X2642Y1794D01*
X2642Y1796D01*
X2640Y1796D01*
X2640Y1798D01*
X2638Y1798D01*
X2638Y1800D01*
X2636Y1800D01*
X2636Y1802D01*
X2634Y1802D01*
X2634Y1804D01*
X2632Y1804D01*
X2632Y1806D01*
X2630Y1806D01*
X2630Y1808D01*
X2628Y1808D01*
X2628Y1810D01*
X2626Y1810D01*
X2626Y1812D01*
X2624Y1812D01*
X2624Y1814D01*
X2622Y1814D01*
X2622Y1816D01*
X2620Y1816D01*
X2620Y1818D01*
X2618Y1818D01*
X2618Y1820D01*
X2616Y1820D01*
X2616Y1822D01*
X2614Y1822D01*
X2614Y1824D01*
X2612Y1824D01*
X2612Y1826D01*
X2610Y1826D01*
X2610Y1828D01*
X2608Y1828D01*
X2608Y1830D01*
X2606Y1830D01*
X2606Y1832D01*
X2604Y1832D01*
X2604Y1834D01*
X2602Y1834D01*
X2602Y1836D01*
X2600Y1836D01*
X2600Y1838D01*
X2598Y1838D01*
X2598Y1840D01*
X2596Y1840D01*
X2596Y1842D01*
X2594Y1842D01*
X2594Y1844D01*
X2592Y1844D01*
X2592Y1846D01*
X2590Y1846D01*
X2590Y1848D01*
X2588Y1848D01*
X2588Y1850D01*
X2586Y1850D01*
X2586Y1852D01*
X2584Y1852D01*
X2584Y1854D01*
X2582Y1854D01*
X2582Y1856D01*
X2580Y1856D01*
X2580Y1858D01*
X2578Y1858D01*
X2578Y1860D01*
X2576Y1860D01*
X2576Y1862D01*
X2574Y1862D01*
X2574Y1864D01*
X2572Y1864D01*
X2572Y1866D01*
X2570Y1866D01*
X2570Y1868D01*
X2568Y1868D01*
X2568Y1870D01*
X2566Y1870D01*
X2566Y1872D01*
X2564Y1872D01*
X2564Y1874D01*
X2562Y1874D01*
X2562Y1876D01*
X2560Y1876D01*
X2560Y1878D01*
X2558Y1878D01*
X2558Y1880D01*
X2556Y1880D01*
X2556Y1882D01*
X2554Y1882D01*
X2554Y1884D01*
X2552Y1884D01*
X2552Y1886D01*
X2550Y1886D01*
X2550Y1888D01*
X2548Y1888D01*
X2548Y1890D01*
X2546Y1890D01*
X2546Y1892D01*
X2544Y1892D01*
X2544Y1894D01*
X2542Y1894D01*
X2542Y1896D01*
X2540Y1896D01*
X2540Y1898D01*
X2538Y1898D01*
X2538Y1900D01*
X2536Y1900D01*
X2536Y1902D01*
X2534Y1902D01*
X2534Y1904D01*
X2532Y1904D01*
X2532Y1906D01*
X2530Y1906D01*
X2530Y1908D01*
X2528Y1908D01*
X2528Y1910D01*
X2526Y1910D01*
X2526Y1912D01*
X2524Y1912D01*
X2524Y1914D01*
X2522Y1914D01*
X2522Y1916D01*
X2520Y1916D01*
X2520Y1918D01*
X2518Y1918D01*
X2518Y1920D01*
X2516Y1920D01*
X2516Y1922D01*
X2514Y1922D01*
X2514Y1924D01*
X2512Y1924D01*
X2512Y1926D01*
X2510Y1926D01*
X2510Y1928D01*
X2508Y1928D01*
X2508Y1930D01*
X2506Y1930D01*
X2506Y1932D01*
X2504Y1932D01*
X2504Y1934D01*
X2502Y1934D01*
X2502Y1936D01*
X2500Y1936D01*
X2500Y1938D01*
X2498Y1938D01*
X2498Y1940D01*
X2496Y1940D01*
X2496Y1942D01*
X2494Y1942D01*
X2494Y1944D01*
X2492Y1944D01*
X2492Y1946D01*
X2490Y1946D01*
X2490Y1948D01*
X2488Y1948D01*
X2488Y1950D01*
X2486Y1950D01*
X2486Y1952D01*
X2484Y1952D01*
X2484Y1954D01*
X2482Y1954D01*
X2482Y1956D01*
X2480Y1956D01*
X2480Y1958D01*
X2478Y1958D01*
X2478Y1960D01*
X2476Y1960D01*
X2476Y1962D01*
X2474Y1962D01*
X2474Y1964D01*
X2472Y1964D01*
X2472Y1966D01*
X2470Y1966D01*
X2470Y1968D01*
X2468Y1968D01*
X2468Y1970D01*
X2466Y1970D01*
X2466Y1972D01*
X2464Y1972D01*
X2464Y1974D01*
X2462Y1974D01*
X2462Y1976D01*
X2460Y1976D01*
X2460Y1978D01*
X2428Y1978D01*
G37*
D02*
G36*
X1708Y1974D02*
X1708Y1972D01*
X1706Y1972D01*
X1706Y1968D01*
X1704Y1968D01*
X1704Y1966D01*
X1702Y1966D01*
X1702Y1964D01*
X1700Y1964D01*
X1700Y1962D01*
X1698Y1962D01*
X1698Y1960D01*
X1694Y1960D01*
X1694Y1958D01*
X1690Y1958D01*
X1690Y1956D01*
X1688Y1956D01*
X1688Y1954D01*
X1682Y1954D01*
X1682Y1952D01*
X1672Y1952D01*
X1672Y1950D01*
X1650Y1950D01*
X1650Y1948D01*
X1648Y1948D01*
X1648Y1946D01*
X1646Y1946D01*
X1646Y1944D01*
X1644Y1944D01*
X1644Y1942D01*
X1642Y1942D01*
X1642Y1940D01*
X1640Y1940D01*
X1640Y1938D01*
X1638Y1938D01*
X1638Y1936D01*
X1636Y1936D01*
X1636Y1934D01*
X1634Y1934D01*
X1634Y1932D01*
X1632Y1932D01*
X1632Y1930D01*
X1630Y1930D01*
X1630Y1928D01*
X1628Y1928D01*
X1628Y1926D01*
X1626Y1926D01*
X1626Y1924D01*
X1624Y1924D01*
X1624Y1922D01*
X1622Y1922D01*
X1622Y1920D01*
X1620Y1920D01*
X1620Y1918D01*
X1618Y1918D01*
X1618Y1916D01*
X1616Y1916D01*
X1616Y1914D01*
X1614Y1914D01*
X1614Y1912D01*
X1612Y1912D01*
X1612Y1910D01*
X1610Y1910D01*
X1610Y1908D01*
X1608Y1908D01*
X1608Y1906D01*
X1606Y1906D01*
X1606Y1904D01*
X1604Y1904D01*
X1604Y1902D01*
X1602Y1902D01*
X1602Y1900D01*
X1600Y1900D01*
X1600Y1898D01*
X1598Y1898D01*
X1598Y1896D01*
X1596Y1896D01*
X1596Y1894D01*
X1594Y1894D01*
X1594Y1892D01*
X1592Y1892D01*
X1592Y1890D01*
X1590Y1890D01*
X1590Y1822D01*
X2098Y1822D01*
X2098Y1820D01*
X2324Y1820D01*
X2324Y1822D01*
X2326Y1822D01*
X2326Y1824D01*
X2328Y1824D01*
X2328Y1828D01*
X2330Y1828D01*
X2330Y1830D01*
X2332Y1830D01*
X2332Y1832D01*
X2334Y1832D01*
X2334Y1834D01*
X2336Y1834D01*
X2336Y1836D01*
X2338Y1836D01*
X2338Y1838D01*
X2342Y1838D01*
X2342Y1840D01*
X2344Y1840D01*
X2344Y1842D01*
X2346Y1842D01*
X2346Y1862D01*
X2344Y1862D01*
X2344Y1864D01*
X2342Y1864D01*
X2342Y1866D01*
X2340Y1866D01*
X2340Y1868D01*
X2338Y1868D01*
X2338Y1872D01*
X2336Y1872D01*
X2336Y1876D01*
X1862Y1876D01*
X1862Y1878D01*
X1858Y1878D01*
X1858Y1880D01*
X1856Y1880D01*
X1856Y1882D01*
X1854Y1882D01*
X1854Y1884D01*
X1852Y1884D01*
X1852Y1886D01*
X1850Y1886D01*
X1850Y1888D01*
X1848Y1888D01*
X1848Y1890D01*
X1846Y1890D01*
X1846Y1892D01*
X1844Y1892D01*
X1844Y1894D01*
X1842Y1894D01*
X1842Y1896D01*
X1840Y1896D01*
X1840Y1898D01*
X1838Y1898D01*
X1838Y1900D01*
X1836Y1900D01*
X1836Y1902D01*
X1834Y1902D01*
X1834Y1904D01*
X1830Y1904D01*
X1830Y1906D01*
X1828Y1906D01*
X1828Y1908D01*
X1826Y1908D01*
X1826Y1910D01*
X1824Y1910D01*
X1824Y1912D01*
X1822Y1912D01*
X1822Y1914D01*
X1820Y1914D01*
X1820Y1916D01*
X1818Y1916D01*
X1818Y1918D01*
X1816Y1918D01*
X1816Y1920D01*
X1814Y1920D01*
X1814Y1922D01*
X1812Y1922D01*
X1812Y1924D01*
X1810Y1924D01*
X1810Y1926D01*
X1808Y1926D01*
X1808Y1928D01*
X1806Y1928D01*
X1806Y1930D01*
X1804Y1930D01*
X1804Y1932D01*
X1802Y1932D01*
X1802Y1934D01*
X1800Y1934D01*
X1800Y1936D01*
X1798Y1936D01*
X1798Y1938D01*
X1796Y1938D01*
X1796Y1940D01*
X1794Y1940D01*
X1794Y1942D01*
X1792Y1942D01*
X1792Y1944D01*
X1790Y1944D01*
X1790Y1946D01*
X1788Y1946D01*
X1788Y1948D01*
X1786Y1948D01*
X1786Y1950D01*
X1764Y1950D01*
X1764Y1952D01*
X1754Y1952D01*
X1754Y1954D01*
X1748Y1954D01*
X1748Y1956D01*
X1744Y1956D01*
X1744Y1958D01*
X1742Y1958D01*
X1742Y1960D01*
X1738Y1960D01*
X1738Y1962D01*
X1736Y1962D01*
X1736Y1964D01*
X1734Y1964D01*
X1734Y1966D01*
X1732Y1966D01*
X1732Y1968D01*
X1730Y1968D01*
X1730Y1972D01*
X1728Y1972D01*
X1728Y1974D01*
X1708Y1974D01*
G37*
D02*
G36*
X1590Y1822D02*
X1590Y1650D01*
X1664Y1650D01*
X1664Y1652D01*
X1654Y1652D01*
X1654Y1654D01*
X1648Y1654D01*
X1648Y1656D01*
X1644Y1656D01*
X1644Y1658D01*
X1642Y1658D01*
X1642Y1660D01*
X1638Y1660D01*
X1638Y1662D01*
X1636Y1662D01*
X1636Y1664D01*
X1634Y1664D01*
X1634Y1666D01*
X1632Y1666D01*
X1632Y1668D01*
X1630Y1668D01*
X1630Y1672D01*
X1628Y1672D01*
X1628Y1674D01*
X1626Y1674D01*
X1626Y1678D01*
X1624Y1678D01*
X1624Y1684D01*
X1622Y1684D01*
X1622Y1692D01*
X1620Y1692D01*
X1620Y1704D01*
X1622Y1704D01*
X1622Y1712D01*
X1624Y1712D01*
X1624Y1718D01*
X1626Y1718D01*
X1626Y1722D01*
X1628Y1722D01*
X1628Y1726D01*
X1630Y1726D01*
X1630Y1728D01*
X1632Y1728D01*
X1632Y1730D01*
X1634Y1730D01*
X1634Y1732D01*
X1636Y1732D01*
X1636Y1734D01*
X1638Y1734D01*
X1638Y1736D01*
X1640Y1736D01*
X1640Y1738D01*
X1644Y1738D01*
X1644Y1740D01*
X1648Y1740D01*
X1648Y1742D01*
X1652Y1742D01*
X1652Y1744D01*
X1660Y1744D01*
X1660Y1746D01*
X1684Y1746D01*
X1684Y1748D01*
X1686Y1748D01*
X1686Y1750D01*
X1688Y1750D01*
X1688Y1752D01*
X1690Y1752D01*
X1690Y1754D01*
X1692Y1754D01*
X1692Y1756D01*
X1694Y1756D01*
X1694Y1758D01*
X1696Y1758D01*
X1696Y1760D01*
X1698Y1760D01*
X1698Y1762D01*
X1700Y1762D01*
X1700Y1764D01*
X1702Y1764D01*
X1702Y1766D01*
X1704Y1766D01*
X1704Y1768D01*
X1706Y1768D01*
X1706Y1770D01*
X1708Y1770D01*
X1708Y1772D01*
X1710Y1772D01*
X1710Y1774D01*
X1712Y1774D01*
X1712Y1776D01*
X1714Y1776D01*
X1714Y1778D01*
X1716Y1778D01*
X1716Y1780D01*
X1718Y1780D01*
X1718Y1782D01*
X1720Y1782D01*
X1720Y1784D01*
X1722Y1784D01*
X1722Y1786D01*
X1724Y1786D01*
X1724Y1788D01*
X1726Y1788D01*
X1726Y1790D01*
X1728Y1790D01*
X1728Y1792D01*
X1730Y1792D01*
X1730Y1794D01*
X1732Y1794D01*
X1732Y1796D01*
X1734Y1796D01*
X1734Y1798D01*
X1736Y1798D01*
X1736Y1800D01*
X1738Y1800D01*
X1738Y1802D01*
X1740Y1802D01*
X1740Y1804D01*
X1742Y1804D01*
X1742Y1806D01*
X1744Y1806D01*
X1744Y1808D01*
X1746Y1808D01*
X1746Y1810D01*
X1748Y1810D01*
X1748Y1812D01*
X1750Y1812D01*
X1750Y1814D01*
X1752Y1814D01*
X1752Y1816D01*
X1754Y1816D01*
X1754Y1818D01*
X1756Y1818D01*
X1756Y1820D01*
X1762Y1820D01*
X1762Y1822D01*
X1590Y1822D01*
G37*
D02*
G36*
X1708Y1674D02*
X1708Y1672D01*
X1706Y1672D01*
X1706Y1668D01*
X1704Y1668D01*
X1704Y1666D01*
X1702Y1666D01*
X1702Y1664D01*
X1700Y1664D01*
X1700Y1662D01*
X1698Y1662D01*
X1698Y1660D01*
X1694Y1660D01*
X1694Y1658D01*
X1690Y1658D01*
X1690Y1656D01*
X1688Y1656D01*
X1688Y1654D01*
X1682Y1654D01*
X1682Y1652D01*
X1672Y1652D01*
X1672Y1650D01*
X1764Y1650D01*
X1764Y1652D01*
X1754Y1652D01*
X1754Y1654D01*
X1748Y1654D01*
X1748Y1656D01*
X1744Y1656D01*
X1744Y1658D01*
X1742Y1658D01*
X1742Y1660D01*
X1738Y1660D01*
X1738Y1662D01*
X1736Y1662D01*
X1736Y1664D01*
X1734Y1664D01*
X1734Y1666D01*
X1732Y1666D01*
X1732Y1668D01*
X1730Y1668D01*
X1730Y1672D01*
X1728Y1672D01*
X1728Y1674D01*
X1708Y1674D01*
G37*
D02*
G36*
X1590Y1650D02*
X1590Y1648D01*
X1788Y1648D01*
X1788Y1650D01*
X1590Y1650D01*
G37*
D02*
G36*
X1590Y1650D02*
X1590Y1648D01*
X1788Y1648D01*
X1788Y1650D01*
X1590Y1650D01*
G37*
D02*
G36*
X1968Y1650D02*
X1968Y1630D01*
X1970Y1630D01*
X1970Y1628D01*
X1972Y1628D01*
X1972Y1626D01*
X1974Y1626D01*
X1974Y1624D01*
X1976Y1624D01*
X1976Y1622D01*
X1978Y1622D01*
X1978Y1620D01*
X1980Y1620D01*
X1980Y1618D01*
X1982Y1618D01*
X1982Y1616D01*
X1984Y1616D01*
X1984Y1614D01*
X1986Y1614D01*
X1986Y1612D01*
X1988Y1612D01*
X1988Y1610D01*
X1990Y1610D01*
X1990Y1608D01*
X1992Y1608D01*
X1992Y1606D01*
X1994Y1606D01*
X1994Y1604D01*
X1996Y1604D01*
X1996Y1602D01*
X1998Y1602D01*
X1998Y1600D01*
X2000Y1600D01*
X2000Y1598D01*
X2002Y1598D01*
X2002Y1596D01*
X2004Y1596D01*
X2004Y1594D01*
X2006Y1594D01*
X2006Y1592D01*
X2008Y1592D01*
X2008Y1590D01*
X2010Y1590D01*
X2010Y1588D01*
X2012Y1588D01*
X2012Y1586D01*
X2014Y1586D01*
X2014Y1584D01*
X2016Y1584D01*
X2016Y1582D01*
X2018Y1582D01*
X2018Y1580D01*
X2020Y1580D01*
X2020Y1578D01*
X2062Y1578D01*
X2062Y1580D01*
X2058Y1580D01*
X2058Y1582D01*
X2056Y1582D01*
X2056Y1584D01*
X2054Y1584D01*
X2054Y1586D01*
X2052Y1586D01*
X2052Y1588D01*
X2050Y1588D01*
X2050Y1590D01*
X2048Y1590D01*
X2048Y1592D01*
X2046Y1592D01*
X2046Y1594D01*
X2042Y1594D01*
X2042Y1596D01*
X2040Y1596D01*
X2040Y1598D01*
X2038Y1598D01*
X2038Y1600D01*
X2036Y1600D01*
X2036Y1602D01*
X2034Y1602D01*
X2034Y1604D01*
X2032Y1604D01*
X2032Y1606D01*
X2030Y1606D01*
X2030Y1608D01*
X2028Y1608D01*
X2028Y1610D01*
X2026Y1610D01*
X2026Y1612D01*
X2024Y1612D01*
X2024Y1614D01*
X2022Y1614D01*
X2022Y1616D01*
X2020Y1616D01*
X2020Y1618D01*
X2018Y1618D01*
X2018Y1620D01*
X2016Y1620D01*
X2016Y1622D01*
X2014Y1622D01*
X2014Y1624D01*
X2012Y1624D01*
X2012Y1626D01*
X2010Y1626D01*
X2010Y1628D01*
X2008Y1628D01*
X2008Y1630D01*
X2006Y1630D01*
X2006Y1632D01*
X2004Y1632D01*
X2004Y1634D01*
X2002Y1634D01*
X2002Y1636D01*
X2000Y1636D01*
X2000Y1638D01*
X1998Y1638D01*
X1998Y1640D01*
X1996Y1640D01*
X1996Y1642D01*
X1994Y1642D01*
X1994Y1644D01*
X1992Y1644D01*
X1992Y1646D01*
X1990Y1646D01*
X1990Y1648D01*
X1988Y1648D01*
X1988Y1650D01*
X1968Y1650D01*
G37*
D02*
G36*
X1590Y1648D02*
X1590Y1606D01*
X1592Y1606D01*
X1592Y1604D01*
X1594Y1604D01*
X1594Y1602D01*
X1596Y1602D01*
X1596Y1600D01*
X1598Y1600D01*
X1598Y1598D01*
X1600Y1598D01*
X1600Y1596D01*
X1602Y1596D01*
X1602Y1594D01*
X1604Y1594D01*
X1604Y1592D01*
X1606Y1592D01*
X1606Y1590D01*
X1608Y1590D01*
X1608Y1588D01*
X1610Y1588D01*
X1610Y1586D01*
X1612Y1586D01*
X1612Y1584D01*
X1614Y1584D01*
X1614Y1582D01*
X1616Y1582D01*
X1616Y1580D01*
X1618Y1580D01*
X1618Y1578D01*
X1620Y1578D01*
X1620Y1576D01*
X1622Y1576D01*
X1622Y1574D01*
X1624Y1574D01*
X1624Y1572D01*
X1626Y1572D01*
X1626Y1570D01*
X1628Y1570D01*
X1628Y1568D01*
X1630Y1568D01*
X1630Y1566D01*
X1632Y1566D01*
X1632Y1564D01*
X1634Y1564D01*
X1634Y1562D01*
X1636Y1562D01*
X1636Y1560D01*
X1638Y1560D01*
X1638Y1558D01*
X1640Y1558D01*
X1640Y1556D01*
X1642Y1556D01*
X1642Y1554D01*
X1644Y1554D01*
X1644Y1552D01*
X1646Y1552D01*
X1646Y1550D01*
X1648Y1550D01*
X1648Y1548D01*
X1650Y1548D01*
X1650Y1546D01*
X1676Y1546D01*
X1676Y1544D01*
X1684Y1544D01*
X1684Y1542D01*
X1688Y1542D01*
X1688Y1540D01*
X1692Y1540D01*
X1692Y1538D01*
X1696Y1538D01*
X1696Y1536D01*
X1698Y1536D01*
X1698Y1534D01*
X1700Y1534D01*
X1700Y1532D01*
X1702Y1532D01*
X1702Y1530D01*
X1704Y1530D01*
X1704Y1528D01*
X1706Y1528D01*
X1706Y1526D01*
X1708Y1526D01*
X1708Y1522D01*
X1710Y1522D01*
X1710Y1518D01*
X1712Y1518D01*
X1712Y1512D01*
X1714Y1512D01*
X1714Y1504D01*
X1716Y1504D01*
X1716Y1492D01*
X1714Y1492D01*
X1714Y1484D01*
X1712Y1484D01*
X1712Y1478D01*
X1710Y1478D01*
X1710Y1474D01*
X1708Y1474D01*
X1708Y1472D01*
X1706Y1472D01*
X1706Y1468D01*
X1704Y1468D01*
X1704Y1466D01*
X1702Y1466D01*
X1702Y1464D01*
X1700Y1464D01*
X1700Y1462D01*
X1698Y1462D01*
X1698Y1460D01*
X1694Y1460D01*
X1694Y1458D01*
X1690Y1458D01*
X1690Y1456D01*
X1688Y1456D01*
X1688Y1454D01*
X1682Y1454D01*
X1682Y1452D01*
X1672Y1452D01*
X1672Y1450D01*
X1964Y1450D01*
X1964Y1452D01*
X1954Y1452D01*
X1954Y1454D01*
X1948Y1454D01*
X1948Y1456D01*
X1944Y1456D01*
X1944Y1458D01*
X1942Y1458D01*
X1942Y1460D01*
X1938Y1460D01*
X1938Y1462D01*
X1936Y1462D01*
X1936Y1464D01*
X1934Y1464D01*
X1934Y1466D01*
X1932Y1466D01*
X1932Y1468D01*
X1930Y1468D01*
X1930Y1472D01*
X1928Y1472D01*
X1928Y1474D01*
X1926Y1474D01*
X1926Y1478D01*
X1924Y1478D01*
X1924Y1484D01*
X1922Y1484D01*
X1922Y1492D01*
X1920Y1492D01*
X1920Y1518D01*
X1918Y1518D01*
X1918Y1520D01*
X1916Y1520D01*
X1916Y1522D01*
X1914Y1522D01*
X1914Y1524D01*
X1912Y1524D01*
X1912Y1526D01*
X1910Y1526D01*
X1910Y1528D01*
X1908Y1528D01*
X1908Y1530D01*
X1906Y1530D01*
X1906Y1532D01*
X1904Y1532D01*
X1904Y1534D01*
X1902Y1534D01*
X1902Y1536D01*
X1900Y1536D01*
X1900Y1538D01*
X1898Y1538D01*
X1898Y1540D01*
X1896Y1540D01*
X1896Y1542D01*
X1894Y1542D01*
X1894Y1544D01*
X1892Y1544D01*
X1892Y1546D01*
X1890Y1546D01*
X1890Y1548D01*
X1888Y1548D01*
X1888Y1550D01*
X1886Y1550D01*
X1886Y1552D01*
X1884Y1552D01*
X1884Y1554D01*
X1882Y1554D01*
X1882Y1556D01*
X1880Y1556D01*
X1880Y1558D01*
X1878Y1558D01*
X1878Y1560D01*
X1876Y1560D01*
X1876Y1562D01*
X1874Y1562D01*
X1874Y1564D01*
X1872Y1564D01*
X1872Y1566D01*
X1870Y1566D01*
X1870Y1568D01*
X1868Y1568D01*
X1868Y1570D01*
X1866Y1570D01*
X1866Y1572D01*
X1864Y1572D01*
X1864Y1574D01*
X1862Y1574D01*
X1862Y1576D01*
X1860Y1576D01*
X1860Y1578D01*
X1858Y1578D01*
X1858Y1580D01*
X1856Y1580D01*
X1856Y1584D01*
X1854Y1584D01*
X1854Y1586D01*
X1850Y1586D01*
X1850Y1588D01*
X1848Y1588D01*
X1848Y1590D01*
X1846Y1590D01*
X1846Y1592D01*
X1844Y1592D01*
X1844Y1594D01*
X1842Y1594D01*
X1842Y1596D01*
X1840Y1596D01*
X1840Y1598D01*
X1838Y1598D01*
X1838Y1600D01*
X1836Y1600D01*
X1836Y1602D01*
X1834Y1602D01*
X1834Y1604D01*
X1832Y1604D01*
X1832Y1606D01*
X1830Y1606D01*
X1830Y1608D01*
X1828Y1608D01*
X1828Y1610D01*
X1826Y1610D01*
X1826Y1612D01*
X1824Y1612D01*
X1824Y1614D01*
X1822Y1614D01*
X1822Y1616D01*
X1820Y1616D01*
X1820Y1618D01*
X1818Y1618D01*
X1818Y1620D01*
X1816Y1620D01*
X1816Y1622D01*
X1814Y1622D01*
X1814Y1624D01*
X1812Y1624D01*
X1812Y1626D01*
X1810Y1626D01*
X1810Y1628D01*
X1808Y1628D01*
X1808Y1630D01*
X1806Y1630D01*
X1806Y1632D01*
X1804Y1632D01*
X1804Y1634D01*
X1802Y1634D01*
X1802Y1636D01*
X1800Y1636D01*
X1800Y1638D01*
X1798Y1638D01*
X1798Y1640D01*
X1796Y1640D01*
X1796Y1642D01*
X1794Y1642D01*
X1794Y1644D01*
X1792Y1644D01*
X1792Y1646D01*
X1790Y1646D01*
X1790Y1648D01*
X1590Y1648D01*
G37*
D02*
G36*
X2022Y1578D02*
X2022Y1576D01*
X2648Y1576D01*
X2648Y1578D01*
X2022Y1578D01*
G37*
D02*
G36*
X2022Y1578D02*
X2022Y1576D01*
X2648Y1576D01*
X2648Y1578D01*
X2022Y1578D01*
G37*
D02*
G36*
X2024Y1576D02*
X2024Y1574D01*
X2026Y1574D01*
X2026Y1572D01*
X2028Y1572D01*
X2028Y1570D01*
X2030Y1570D01*
X2030Y1568D01*
X2032Y1568D01*
X2032Y1566D01*
X2034Y1566D01*
X2034Y1564D01*
X2036Y1564D01*
X2036Y1562D01*
X2038Y1562D01*
X2038Y1560D01*
X2040Y1560D01*
X2040Y1558D01*
X2042Y1558D01*
X2042Y1556D01*
X2044Y1556D01*
X2044Y1554D01*
X2046Y1554D01*
X2046Y1552D01*
X2048Y1552D01*
X2048Y1550D01*
X2050Y1550D01*
X2050Y1548D01*
X2572Y1548D01*
X2572Y1546D01*
X2582Y1546D01*
X2582Y1544D01*
X2588Y1544D01*
X2588Y1542D01*
X2592Y1542D01*
X2592Y1540D01*
X2594Y1540D01*
X2594Y1538D01*
X2598Y1538D01*
X2598Y1536D01*
X2600Y1536D01*
X2600Y1534D01*
X2602Y1534D01*
X2602Y1532D01*
X2604Y1532D01*
X2604Y1530D01*
X2606Y1530D01*
X2606Y1528D01*
X2608Y1528D01*
X2608Y1524D01*
X2610Y1524D01*
X2610Y1522D01*
X2648Y1522D01*
X2648Y1576D01*
X2024Y1576D01*
G37*
D02*
G36*
X2052Y1548D02*
X2052Y1546D01*
X2276Y1546D01*
X2276Y1544D01*
X2284Y1544D01*
X2284Y1542D01*
X2288Y1542D01*
X2288Y1540D01*
X2292Y1540D01*
X2292Y1538D01*
X2296Y1538D01*
X2296Y1536D01*
X2298Y1536D01*
X2298Y1534D01*
X2300Y1534D01*
X2300Y1532D01*
X2302Y1532D01*
X2302Y1530D01*
X2304Y1530D01*
X2304Y1528D01*
X2306Y1528D01*
X2306Y1526D01*
X2308Y1526D01*
X2308Y1522D01*
X2310Y1522D01*
X2310Y1518D01*
X2312Y1518D01*
X2312Y1512D01*
X2314Y1512D01*
X2314Y1504D01*
X2316Y1504D01*
X2316Y1492D01*
X2314Y1492D01*
X2314Y1484D01*
X2312Y1484D01*
X2312Y1478D01*
X2310Y1478D01*
X2310Y1474D01*
X2308Y1474D01*
X2308Y1472D01*
X2306Y1472D01*
X2306Y1468D01*
X2304Y1468D01*
X2304Y1466D01*
X2302Y1466D01*
X2302Y1464D01*
X2300Y1464D01*
X2300Y1462D01*
X2298Y1462D01*
X2298Y1460D01*
X2294Y1460D01*
X2294Y1458D01*
X2290Y1458D01*
X2290Y1456D01*
X2288Y1456D01*
X2288Y1454D01*
X2282Y1454D01*
X2282Y1452D01*
X2272Y1452D01*
X2272Y1450D01*
X2442Y1450D01*
X2442Y1458D01*
X2440Y1458D01*
X2440Y1460D01*
X2436Y1460D01*
X2436Y1462D01*
X2434Y1462D01*
X2434Y1464D01*
X2432Y1464D01*
X2432Y1466D01*
X2430Y1466D01*
X2430Y1468D01*
X2428Y1468D01*
X2428Y1472D01*
X2426Y1472D01*
X2426Y1476D01*
X2424Y1476D01*
X2424Y1478D01*
X2422Y1478D01*
X2422Y1486D01*
X2420Y1486D01*
X2420Y1512D01*
X2422Y1512D01*
X2422Y1518D01*
X2424Y1518D01*
X2424Y1522D01*
X2426Y1522D01*
X2426Y1524D01*
X2428Y1524D01*
X2428Y1528D01*
X2430Y1528D01*
X2430Y1530D01*
X2432Y1530D01*
X2432Y1532D01*
X2434Y1532D01*
X2434Y1534D01*
X2436Y1534D01*
X2436Y1536D01*
X2438Y1536D01*
X2438Y1538D01*
X2442Y1538D01*
X2442Y1540D01*
X2444Y1540D01*
X2444Y1542D01*
X2448Y1542D01*
X2448Y1544D01*
X2454Y1544D01*
X2454Y1546D01*
X2464Y1546D01*
X2464Y1548D01*
X2052Y1548D01*
G37*
D02*
G36*
X2472Y1548D02*
X2472Y1546D01*
X2482Y1546D01*
X2482Y1544D01*
X2488Y1544D01*
X2488Y1542D01*
X2492Y1542D01*
X2492Y1540D01*
X2494Y1540D01*
X2494Y1538D01*
X2498Y1538D01*
X2498Y1536D01*
X2500Y1536D01*
X2500Y1534D01*
X2502Y1534D01*
X2502Y1532D01*
X2504Y1532D01*
X2504Y1530D01*
X2506Y1530D01*
X2506Y1528D01*
X2508Y1528D01*
X2508Y1524D01*
X2528Y1524D01*
X2528Y1528D01*
X2530Y1528D01*
X2530Y1530D01*
X2532Y1530D01*
X2532Y1532D01*
X2534Y1532D01*
X2534Y1534D01*
X2536Y1534D01*
X2536Y1536D01*
X2538Y1536D01*
X2538Y1538D01*
X2542Y1538D01*
X2542Y1540D01*
X2544Y1540D01*
X2544Y1542D01*
X2548Y1542D01*
X2548Y1544D01*
X2554Y1544D01*
X2554Y1546D01*
X2564Y1546D01*
X2564Y1548D01*
X2472Y1548D01*
G37*
D02*
G36*
X2054Y1546D02*
X2054Y1544D01*
X2056Y1544D01*
X2056Y1542D01*
X2058Y1542D01*
X2058Y1540D01*
X2060Y1540D01*
X2060Y1538D01*
X2062Y1538D01*
X2062Y1536D01*
X2064Y1536D01*
X2064Y1534D01*
X2066Y1534D01*
X2066Y1532D01*
X2068Y1532D01*
X2068Y1530D01*
X2070Y1530D01*
X2070Y1528D01*
X2072Y1528D01*
X2072Y1526D01*
X2074Y1526D01*
X2074Y1524D01*
X2076Y1524D01*
X2076Y1522D01*
X2078Y1522D01*
X2078Y1520D01*
X2226Y1520D01*
X2226Y1522D01*
X2228Y1522D01*
X2228Y1526D01*
X2230Y1526D01*
X2230Y1528D01*
X2232Y1528D01*
X2232Y1530D01*
X2234Y1530D01*
X2234Y1532D01*
X2236Y1532D01*
X2236Y1534D01*
X2238Y1534D01*
X2238Y1536D01*
X2240Y1536D01*
X2240Y1538D01*
X2244Y1538D01*
X2244Y1540D01*
X2248Y1540D01*
X2248Y1542D01*
X2252Y1542D01*
X2252Y1544D01*
X2260Y1544D01*
X2260Y1546D01*
X2054Y1546D01*
G37*
D02*
G36*
X2016Y1502D02*
X2016Y1492D01*
X2014Y1492D01*
X2014Y1484D01*
X2012Y1484D01*
X2012Y1478D01*
X2010Y1478D01*
X2010Y1474D01*
X2008Y1474D01*
X2008Y1472D01*
X2006Y1472D01*
X2006Y1468D01*
X2004Y1468D01*
X2004Y1466D01*
X2002Y1466D01*
X2002Y1464D01*
X2000Y1464D01*
X2000Y1462D01*
X1998Y1462D01*
X1998Y1460D01*
X1994Y1460D01*
X1994Y1458D01*
X1990Y1458D01*
X1990Y1456D01*
X1988Y1456D01*
X1988Y1454D01*
X1982Y1454D01*
X1982Y1452D01*
X1972Y1452D01*
X1972Y1450D01*
X2264Y1450D01*
X2264Y1452D01*
X2254Y1452D01*
X2254Y1454D01*
X2248Y1454D01*
X2248Y1456D01*
X2244Y1456D01*
X2244Y1458D01*
X2242Y1458D01*
X2242Y1460D01*
X2238Y1460D01*
X2238Y1462D01*
X2236Y1462D01*
X2236Y1464D01*
X2234Y1464D01*
X2234Y1466D01*
X2232Y1466D01*
X2232Y1468D01*
X2230Y1468D01*
X2230Y1472D01*
X2228Y1472D01*
X2228Y1474D01*
X2226Y1474D01*
X2226Y1476D01*
X2062Y1476D01*
X2062Y1478D01*
X2058Y1478D01*
X2058Y1480D01*
X2056Y1480D01*
X2056Y1482D01*
X2054Y1482D01*
X2054Y1484D01*
X2052Y1484D01*
X2052Y1486D01*
X2050Y1486D01*
X2050Y1488D01*
X2048Y1488D01*
X2048Y1490D01*
X2046Y1490D01*
X2046Y1492D01*
X2044Y1492D01*
X2044Y1494D01*
X2042Y1494D01*
X2042Y1496D01*
X2040Y1496D01*
X2040Y1498D01*
X2038Y1498D01*
X2038Y1500D01*
X2036Y1500D01*
X2036Y1502D01*
X2016Y1502D01*
G37*
D02*
G36*
X40Y1450D02*
X40Y1448D01*
X2442Y1448D01*
X2442Y1450D01*
X40Y1450D01*
G37*
D02*
G36*
X40Y1450D02*
X40Y1448D01*
X2442Y1448D01*
X2442Y1450D01*
X40Y1450D01*
G37*
D02*
G36*
X40Y1450D02*
X40Y1448D01*
X2442Y1448D01*
X2442Y1450D01*
X40Y1450D01*
G37*
D02*
G36*
X40Y1450D02*
X40Y1448D01*
X2442Y1448D01*
X2442Y1450D01*
X40Y1450D01*
G37*
D02*
G36*
X40Y1448D02*
X40Y1446D01*
X2376Y1446D01*
X2376Y1444D01*
X2384Y1444D01*
X2384Y1442D01*
X2388Y1442D01*
X2388Y1440D01*
X2392Y1440D01*
X2392Y1438D01*
X2396Y1438D01*
X2396Y1436D01*
X2398Y1436D01*
X2398Y1434D01*
X2400Y1434D01*
X2400Y1432D01*
X2402Y1432D01*
X2402Y1430D01*
X2404Y1430D01*
X2404Y1428D01*
X2406Y1428D01*
X2406Y1426D01*
X2408Y1426D01*
X2408Y1424D01*
X2428Y1424D01*
X2428Y1428D01*
X2430Y1428D01*
X2430Y1430D01*
X2432Y1430D01*
X2432Y1432D01*
X2434Y1432D01*
X2434Y1434D01*
X2436Y1434D01*
X2436Y1436D01*
X2438Y1436D01*
X2438Y1438D01*
X2442Y1438D01*
X2442Y1448D01*
X40Y1448D01*
G37*
D02*
G36*
X40Y1446D02*
X40Y1350D01*
X1764Y1350D01*
X1764Y1352D01*
X1754Y1352D01*
X1754Y1354D01*
X1748Y1354D01*
X1748Y1356D01*
X1744Y1356D01*
X1744Y1358D01*
X1742Y1358D01*
X1742Y1360D01*
X1738Y1360D01*
X1738Y1362D01*
X1736Y1362D01*
X1736Y1364D01*
X1734Y1364D01*
X1734Y1366D01*
X1732Y1366D01*
X1732Y1368D01*
X1730Y1368D01*
X1730Y1372D01*
X1728Y1372D01*
X1728Y1374D01*
X1726Y1374D01*
X1726Y1378D01*
X1724Y1378D01*
X1724Y1384D01*
X1722Y1384D01*
X1722Y1392D01*
X1720Y1392D01*
X1720Y1404D01*
X1722Y1404D01*
X1722Y1412D01*
X1724Y1412D01*
X1724Y1418D01*
X1726Y1418D01*
X1726Y1422D01*
X1728Y1422D01*
X1728Y1426D01*
X1730Y1426D01*
X1730Y1428D01*
X1732Y1428D01*
X1732Y1430D01*
X1734Y1430D01*
X1734Y1432D01*
X1736Y1432D01*
X1736Y1434D01*
X1738Y1434D01*
X1738Y1436D01*
X1740Y1436D01*
X1740Y1438D01*
X1744Y1438D01*
X1744Y1440D01*
X1748Y1440D01*
X1748Y1442D01*
X1752Y1442D01*
X1752Y1444D01*
X1760Y1444D01*
X1760Y1446D01*
X40Y1446D01*
G37*
D02*
G36*
X1776Y1446D02*
X1776Y1444D01*
X1784Y1444D01*
X1784Y1442D01*
X1788Y1442D01*
X1788Y1440D01*
X1792Y1440D01*
X1792Y1438D01*
X1796Y1438D01*
X1796Y1436D01*
X1798Y1436D01*
X1798Y1434D01*
X1800Y1434D01*
X1800Y1432D01*
X1802Y1432D01*
X1802Y1430D01*
X1804Y1430D01*
X1804Y1428D01*
X1806Y1428D01*
X1806Y1426D01*
X1808Y1426D01*
X1808Y1422D01*
X1810Y1422D01*
X1810Y1420D01*
X2026Y1420D01*
X2026Y1422D01*
X2028Y1422D01*
X2028Y1426D01*
X2030Y1426D01*
X2030Y1428D01*
X2032Y1428D01*
X2032Y1430D01*
X2034Y1430D01*
X2034Y1432D01*
X2036Y1432D01*
X2036Y1434D01*
X2038Y1434D01*
X2038Y1436D01*
X2040Y1436D01*
X2040Y1438D01*
X2044Y1438D01*
X2044Y1440D01*
X2048Y1440D01*
X2048Y1442D01*
X2052Y1442D01*
X2052Y1444D01*
X2060Y1444D01*
X2060Y1446D01*
X1776Y1446D01*
G37*
D02*
G36*
X2076Y1446D02*
X2076Y1444D01*
X2084Y1444D01*
X2084Y1442D01*
X2088Y1442D01*
X2088Y1440D01*
X2092Y1440D01*
X2092Y1438D01*
X2096Y1438D01*
X2096Y1436D01*
X2098Y1436D01*
X2098Y1434D01*
X2100Y1434D01*
X2100Y1432D01*
X2102Y1432D01*
X2102Y1430D01*
X2104Y1430D01*
X2104Y1428D01*
X2106Y1428D01*
X2106Y1426D01*
X2108Y1426D01*
X2108Y1422D01*
X2110Y1422D01*
X2110Y1420D01*
X2326Y1420D01*
X2326Y1422D01*
X2328Y1422D01*
X2328Y1426D01*
X2330Y1426D01*
X2330Y1428D01*
X2332Y1428D01*
X2332Y1430D01*
X2334Y1430D01*
X2334Y1432D01*
X2336Y1432D01*
X2336Y1434D01*
X2338Y1434D01*
X2338Y1436D01*
X2340Y1436D01*
X2340Y1438D01*
X2344Y1438D01*
X2344Y1440D01*
X2348Y1440D01*
X2348Y1442D01*
X2352Y1442D01*
X2352Y1444D01*
X2360Y1444D01*
X2360Y1446D01*
X2076Y1446D01*
G37*
D02*
G36*
X1810Y1376D02*
X1810Y1374D01*
X1808Y1374D01*
X1808Y1372D01*
X1806Y1372D01*
X1806Y1368D01*
X1804Y1368D01*
X1804Y1366D01*
X1802Y1366D01*
X1802Y1364D01*
X1800Y1364D01*
X1800Y1362D01*
X1798Y1362D01*
X1798Y1360D01*
X1794Y1360D01*
X1794Y1358D01*
X1790Y1358D01*
X1790Y1356D01*
X1788Y1356D01*
X1788Y1354D01*
X1782Y1354D01*
X1782Y1352D01*
X1772Y1352D01*
X1772Y1350D01*
X2064Y1350D01*
X2064Y1352D01*
X2054Y1352D01*
X2054Y1354D01*
X2048Y1354D01*
X2048Y1356D01*
X2044Y1356D01*
X2044Y1358D01*
X2042Y1358D01*
X2042Y1360D01*
X2038Y1360D01*
X2038Y1362D01*
X2036Y1362D01*
X2036Y1364D01*
X2034Y1364D01*
X2034Y1366D01*
X2032Y1366D01*
X2032Y1368D01*
X2030Y1368D01*
X2030Y1372D01*
X2028Y1372D01*
X2028Y1374D01*
X2026Y1374D01*
X2026Y1376D01*
X1810Y1376D01*
G37*
D02*
G36*
X2110Y1376D02*
X2110Y1374D01*
X2108Y1374D01*
X2108Y1372D01*
X2106Y1372D01*
X2106Y1368D01*
X2104Y1368D01*
X2104Y1366D01*
X2102Y1366D01*
X2102Y1364D01*
X2100Y1364D01*
X2100Y1362D01*
X2098Y1362D01*
X2098Y1360D01*
X2094Y1360D01*
X2094Y1358D01*
X2090Y1358D01*
X2090Y1356D01*
X2088Y1356D01*
X2088Y1354D01*
X2082Y1354D01*
X2082Y1352D01*
X2072Y1352D01*
X2072Y1350D01*
X2364Y1350D01*
X2364Y1352D01*
X2354Y1352D01*
X2354Y1354D01*
X2348Y1354D01*
X2348Y1356D01*
X2344Y1356D01*
X2344Y1358D01*
X2342Y1358D01*
X2342Y1360D01*
X2338Y1360D01*
X2338Y1362D01*
X2336Y1362D01*
X2336Y1364D01*
X2334Y1364D01*
X2334Y1366D01*
X2332Y1366D01*
X2332Y1368D01*
X2330Y1368D01*
X2330Y1372D01*
X2328Y1372D01*
X2328Y1374D01*
X2326Y1374D01*
X2326Y1376D01*
X2110Y1376D01*
G37*
D02*
G36*
X2406Y1372D02*
X2406Y1368D01*
X2404Y1368D01*
X2404Y1366D01*
X2402Y1366D01*
X2402Y1364D01*
X2400Y1364D01*
X2400Y1362D01*
X2398Y1362D01*
X2398Y1360D01*
X2394Y1360D01*
X2394Y1358D01*
X2390Y1358D01*
X2390Y1356D01*
X2388Y1356D01*
X2388Y1354D01*
X2382Y1354D01*
X2382Y1352D01*
X2372Y1352D01*
X2372Y1350D01*
X2456Y1350D01*
X2456Y1352D01*
X2450Y1352D01*
X2450Y1354D01*
X2446Y1354D01*
X2446Y1356D01*
X2442Y1356D01*
X2442Y1358D01*
X2440Y1358D01*
X2440Y1360D01*
X2436Y1360D01*
X2436Y1362D01*
X2434Y1362D01*
X2434Y1364D01*
X2432Y1364D01*
X2432Y1366D01*
X2430Y1366D01*
X2430Y1368D01*
X2428Y1368D01*
X2428Y1372D01*
X2406Y1372D01*
G37*
D02*
G36*
X2508Y1372D02*
X2508Y1370D01*
X2506Y1370D01*
X2506Y1366D01*
X2504Y1366D01*
X2504Y1364D01*
X2502Y1364D01*
X2502Y1362D01*
X2500Y1362D01*
X2500Y1360D01*
X2496Y1360D01*
X2496Y1358D01*
X2494Y1358D01*
X2494Y1356D01*
X2490Y1356D01*
X2490Y1354D01*
X2486Y1354D01*
X2486Y1352D01*
X2480Y1352D01*
X2480Y1350D01*
X2556Y1350D01*
X2556Y1352D01*
X2550Y1352D01*
X2550Y1354D01*
X2546Y1354D01*
X2546Y1356D01*
X2542Y1356D01*
X2542Y1358D01*
X2540Y1358D01*
X2540Y1360D01*
X2536Y1360D01*
X2536Y1362D01*
X2534Y1362D01*
X2534Y1364D01*
X2532Y1364D01*
X2532Y1366D01*
X2530Y1366D01*
X2530Y1368D01*
X2528Y1368D01*
X2528Y1372D01*
X2508Y1372D01*
G37*
D02*
G36*
X40Y1350D02*
X40Y1348D01*
X2572Y1348D01*
X2572Y1350D01*
X40Y1350D01*
G37*
D02*
G36*
X40Y1350D02*
X40Y1348D01*
X2572Y1348D01*
X2572Y1350D01*
X40Y1350D01*
G37*
D02*
G36*
X40Y1350D02*
X40Y1348D01*
X2572Y1348D01*
X2572Y1350D01*
X40Y1350D01*
G37*
D02*
G36*
X40Y1350D02*
X40Y1348D01*
X2572Y1348D01*
X2572Y1350D01*
X40Y1350D01*
G37*
D02*
G36*
X40Y1350D02*
X40Y1348D01*
X2572Y1348D01*
X2572Y1350D01*
X40Y1350D01*
G37*
D02*
G36*
X40Y1348D02*
X40Y1222D01*
X2212Y1222D01*
X2212Y1220D01*
X2462Y1220D01*
X2462Y1222D01*
X2464Y1222D01*
X2464Y1224D01*
X2466Y1224D01*
X2466Y1226D01*
X2468Y1226D01*
X2468Y1228D01*
X2470Y1228D01*
X2470Y1230D01*
X2472Y1230D01*
X2472Y1232D01*
X2474Y1232D01*
X2474Y1234D01*
X2476Y1234D01*
X2476Y1236D01*
X2478Y1236D01*
X2478Y1238D01*
X2480Y1238D01*
X2480Y1240D01*
X2482Y1240D01*
X2482Y1242D01*
X2484Y1242D01*
X2484Y1244D01*
X2486Y1244D01*
X2486Y1246D01*
X2488Y1246D01*
X2488Y1248D01*
X2490Y1248D01*
X2490Y1250D01*
X2492Y1250D01*
X2492Y1252D01*
X2494Y1252D01*
X2494Y1254D01*
X2496Y1254D01*
X2496Y1256D01*
X2498Y1256D01*
X2498Y1258D01*
X2500Y1258D01*
X2500Y1260D01*
X2502Y1260D01*
X2502Y1262D01*
X2504Y1262D01*
X2504Y1264D01*
X2506Y1264D01*
X2506Y1266D01*
X2508Y1266D01*
X2508Y1268D01*
X2510Y1268D01*
X2510Y1270D01*
X2512Y1270D01*
X2512Y1272D01*
X2514Y1272D01*
X2514Y1274D01*
X2516Y1274D01*
X2516Y1276D01*
X2518Y1276D01*
X2518Y1278D01*
X2520Y1278D01*
X2520Y1280D01*
X2522Y1280D01*
X2522Y1282D01*
X2524Y1282D01*
X2524Y1284D01*
X2526Y1284D01*
X2526Y1286D01*
X2528Y1286D01*
X2528Y1288D01*
X2530Y1288D01*
X2530Y1290D01*
X2532Y1290D01*
X2532Y1292D01*
X2534Y1292D01*
X2534Y1294D01*
X2536Y1294D01*
X2536Y1296D01*
X2538Y1296D01*
X2538Y1298D01*
X2540Y1298D01*
X2540Y1300D01*
X2542Y1300D01*
X2542Y1302D01*
X2544Y1302D01*
X2544Y1304D01*
X2546Y1304D01*
X2546Y1306D01*
X2548Y1306D01*
X2548Y1308D01*
X2550Y1308D01*
X2550Y1310D01*
X2552Y1310D01*
X2552Y1312D01*
X2554Y1312D01*
X2554Y1314D01*
X2556Y1314D01*
X2556Y1316D01*
X2558Y1316D01*
X2558Y1318D01*
X2560Y1318D01*
X2560Y1320D01*
X2562Y1320D01*
X2562Y1322D01*
X2564Y1322D01*
X2564Y1324D01*
X2566Y1324D01*
X2566Y1326D01*
X2568Y1326D01*
X2568Y1328D01*
X2570Y1328D01*
X2570Y1330D01*
X2572Y1330D01*
X2572Y1348D01*
X40Y1348D01*
G37*
D02*
G36*
X40Y1222D02*
X40Y548D01*
X1256Y548D01*
X1256Y550D01*
X1248Y550D01*
X1248Y552D01*
X1244Y552D01*
X1244Y554D01*
X1242Y554D01*
X1242Y556D01*
X1238Y556D01*
X1238Y558D01*
X1236Y558D01*
X1236Y560D01*
X1234Y560D01*
X1234Y562D01*
X1232Y562D01*
X1232Y564D01*
X1230Y564D01*
X1230Y566D01*
X1228Y566D01*
X1228Y568D01*
X1226Y568D01*
X1226Y572D01*
X1224Y572D01*
X1224Y574D01*
X1222Y574D01*
X1222Y578D01*
X1220Y578D01*
X1220Y584D01*
X1218Y584D01*
X1218Y612D01*
X1220Y612D01*
X1220Y618D01*
X1222Y618D01*
X1222Y622D01*
X1224Y622D01*
X1224Y626D01*
X1226Y626D01*
X1226Y628D01*
X1228Y628D01*
X1228Y630D01*
X1230Y630D01*
X1230Y634D01*
X1232Y634D01*
X1232Y636D01*
X1236Y636D01*
X1236Y638D01*
X1238Y638D01*
X1238Y640D01*
X1240Y640D01*
X1240Y642D01*
X1244Y642D01*
X1244Y644D01*
X1248Y644D01*
X1248Y646D01*
X1254Y646D01*
X1254Y648D01*
X1264Y648D01*
X1264Y650D01*
X1290Y650D01*
X1290Y652D01*
X1292Y652D01*
X1292Y654D01*
X1294Y654D01*
X1294Y656D01*
X1296Y656D01*
X1296Y658D01*
X1298Y658D01*
X1298Y660D01*
X1300Y660D01*
X1300Y662D01*
X1302Y662D01*
X1302Y664D01*
X1304Y664D01*
X1304Y666D01*
X1306Y666D01*
X1306Y668D01*
X1308Y668D01*
X1308Y670D01*
X1310Y670D01*
X1310Y672D01*
X1312Y672D01*
X1312Y674D01*
X1314Y674D01*
X1314Y676D01*
X1316Y676D01*
X1316Y678D01*
X1318Y678D01*
X1318Y680D01*
X1320Y680D01*
X1320Y682D01*
X1322Y682D01*
X1322Y684D01*
X1324Y684D01*
X1324Y686D01*
X1326Y686D01*
X1326Y688D01*
X1328Y688D01*
X1328Y690D01*
X1330Y690D01*
X1330Y692D01*
X1332Y692D01*
X1332Y694D01*
X1334Y694D01*
X1334Y696D01*
X1336Y696D01*
X1336Y698D01*
X1338Y698D01*
X1338Y700D01*
X1340Y700D01*
X1340Y702D01*
X1342Y702D01*
X1342Y704D01*
X1344Y704D01*
X1344Y706D01*
X1346Y706D01*
X1346Y708D01*
X1348Y708D01*
X1348Y710D01*
X1350Y710D01*
X1350Y712D01*
X1352Y712D01*
X1352Y714D01*
X1354Y714D01*
X1354Y716D01*
X1358Y716D01*
X1358Y718D01*
X1460Y718D01*
X1460Y720D01*
X1462Y720D01*
X1462Y722D01*
X1464Y722D01*
X1464Y724D01*
X1466Y724D01*
X1466Y726D01*
X1468Y726D01*
X1468Y728D01*
X1470Y728D01*
X1470Y730D01*
X1472Y730D01*
X1472Y732D01*
X1474Y732D01*
X1474Y734D01*
X1476Y734D01*
X1476Y736D01*
X1478Y736D01*
X1478Y738D01*
X1480Y738D01*
X1480Y740D01*
X1482Y740D01*
X1482Y742D01*
X1484Y742D01*
X1484Y746D01*
X1486Y746D01*
X1486Y748D01*
X1488Y748D01*
X1488Y750D01*
X1490Y750D01*
X1490Y752D01*
X1492Y752D01*
X1492Y754D01*
X1494Y754D01*
X1494Y756D01*
X1496Y756D01*
X1496Y758D01*
X1498Y758D01*
X1498Y760D01*
X1500Y760D01*
X1500Y762D01*
X1502Y762D01*
X1502Y764D01*
X1504Y764D01*
X1504Y766D01*
X1506Y766D01*
X1506Y768D01*
X1508Y768D01*
X1508Y770D01*
X1510Y770D01*
X1510Y772D01*
X1512Y772D01*
X1512Y774D01*
X1514Y774D01*
X1514Y776D01*
X1516Y776D01*
X1516Y778D01*
X1518Y778D01*
X1518Y780D01*
X1520Y780D01*
X1520Y782D01*
X1522Y782D01*
X1522Y784D01*
X1524Y784D01*
X1524Y786D01*
X1526Y786D01*
X1526Y788D01*
X1528Y788D01*
X1528Y790D01*
X1530Y790D01*
X1530Y794D01*
X1532Y794D01*
X1532Y796D01*
X1534Y796D01*
X1534Y798D01*
X1536Y798D01*
X1536Y800D01*
X1538Y800D01*
X1538Y802D01*
X1540Y802D01*
X1540Y804D01*
X1542Y804D01*
X1542Y806D01*
X1544Y806D01*
X1544Y808D01*
X1546Y808D01*
X1546Y856D01*
X1544Y856D01*
X1544Y858D01*
X1542Y858D01*
X1542Y860D01*
X1538Y860D01*
X1538Y862D01*
X1536Y862D01*
X1536Y864D01*
X1534Y864D01*
X1534Y866D01*
X1532Y866D01*
X1532Y868D01*
X1530Y868D01*
X1530Y872D01*
X1528Y872D01*
X1528Y874D01*
X1526Y874D01*
X1526Y878D01*
X1524Y878D01*
X1524Y884D01*
X1522Y884D01*
X1522Y892D01*
X1520Y892D01*
X1520Y904D01*
X1522Y904D01*
X1522Y912D01*
X1524Y912D01*
X1524Y918D01*
X1526Y918D01*
X1526Y922D01*
X1528Y922D01*
X1528Y926D01*
X1530Y926D01*
X1530Y928D01*
X1532Y928D01*
X1532Y930D01*
X1534Y930D01*
X1534Y932D01*
X1536Y932D01*
X1536Y934D01*
X1538Y934D01*
X1538Y936D01*
X1540Y936D01*
X1540Y938D01*
X1544Y938D01*
X1544Y940D01*
X1546Y940D01*
X1546Y1208D01*
X1548Y1208D01*
X1548Y1212D01*
X1550Y1212D01*
X1550Y1214D01*
X1552Y1214D01*
X1552Y1216D01*
X1554Y1216D01*
X1554Y1218D01*
X1558Y1218D01*
X1558Y1220D01*
X1564Y1220D01*
X1564Y1222D01*
X40Y1222D01*
G37*
D02*
G36*
X2190Y1178D02*
X2190Y1176D01*
X2210Y1176D01*
X2210Y1178D01*
X2190Y1178D01*
G37*
D02*
G36*
X2190Y1176D02*
X2190Y1174D01*
X3292Y1174D01*
X3292Y1176D01*
X2190Y1176D01*
G37*
D02*
G36*
X2190Y1176D02*
X2190Y1174D01*
X3292Y1174D01*
X3292Y1176D01*
X2190Y1176D01*
G37*
D02*
G36*
X2190Y1174D02*
X2190Y1146D01*
X2276Y1146D01*
X2276Y1144D01*
X2284Y1144D01*
X2284Y1142D01*
X2288Y1142D01*
X2288Y1140D01*
X2292Y1140D01*
X2292Y1138D01*
X2296Y1138D01*
X2296Y1136D01*
X2298Y1136D01*
X2298Y1134D01*
X2300Y1134D01*
X2300Y1132D01*
X2302Y1132D01*
X2302Y1130D01*
X2304Y1130D01*
X2304Y1128D01*
X2306Y1128D01*
X2306Y1126D01*
X2308Y1126D01*
X2308Y1122D01*
X2310Y1122D01*
X2310Y1118D01*
X2312Y1118D01*
X2312Y1112D01*
X2314Y1112D01*
X2314Y1104D01*
X2316Y1104D01*
X2316Y1092D01*
X2314Y1092D01*
X2314Y1084D01*
X2312Y1084D01*
X2312Y1078D01*
X2310Y1078D01*
X2310Y1074D01*
X2308Y1074D01*
X2308Y1072D01*
X2306Y1072D01*
X2306Y1068D01*
X2304Y1068D01*
X2304Y1066D01*
X2302Y1066D01*
X2302Y1064D01*
X2300Y1064D01*
X2300Y1062D01*
X2298Y1062D01*
X2298Y1060D01*
X2294Y1060D01*
X2294Y1058D01*
X2290Y1058D01*
X2290Y1046D01*
X2376Y1046D01*
X2376Y1044D01*
X2384Y1044D01*
X2384Y1042D01*
X2388Y1042D01*
X2388Y1040D01*
X2392Y1040D01*
X2392Y1038D01*
X2396Y1038D01*
X2396Y1036D01*
X2398Y1036D01*
X2398Y1034D01*
X2400Y1034D01*
X2400Y1032D01*
X2402Y1032D01*
X2402Y1030D01*
X2404Y1030D01*
X2404Y1028D01*
X2406Y1028D01*
X2406Y1026D01*
X2408Y1026D01*
X2408Y1022D01*
X2410Y1022D01*
X2410Y1018D01*
X2412Y1018D01*
X2412Y1012D01*
X2414Y1012D01*
X2414Y1004D01*
X2416Y1004D01*
X2416Y992D01*
X2414Y992D01*
X2414Y984D01*
X2412Y984D01*
X2412Y978D01*
X2410Y978D01*
X2410Y974D01*
X2408Y974D01*
X2408Y972D01*
X2406Y972D01*
X2406Y968D01*
X2404Y968D01*
X2404Y966D01*
X2402Y966D01*
X2402Y964D01*
X2400Y964D01*
X2400Y962D01*
X2398Y962D01*
X2398Y960D01*
X2394Y960D01*
X2394Y958D01*
X2392Y958D01*
X2392Y938D01*
X2396Y938D01*
X2396Y936D01*
X2398Y936D01*
X2398Y934D01*
X2400Y934D01*
X2400Y932D01*
X2402Y932D01*
X2402Y930D01*
X2404Y930D01*
X2404Y928D01*
X2406Y928D01*
X2406Y926D01*
X2408Y926D01*
X2408Y922D01*
X2410Y922D01*
X2410Y918D01*
X2412Y918D01*
X2412Y912D01*
X2414Y912D01*
X2414Y904D01*
X2416Y904D01*
X2416Y892D01*
X2414Y892D01*
X2414Y884D01*
X2412Y884D01*
X2412Y878D01*
X2410Y878D01*
X2410Y874D01*
X2408Y874D01*
X2408Y872D01*
X2406Y872D01*
X2406Y868D01*
X2404Y868D01*
X2404Y866D01*
X2402Y866D01*
X2402Y864D01*
X2400Y864D01*
X2400Y862D01*
X2398Y862D01*
X2398Y860D01*
X2394Y860D01*
X2394Y858D01*
X2390Y858D01*
X2390Y806D01*
X2392Y806D01*
X2392Y804D01*
X2394Y804D01*
X2394Y802D01*
X2396Y802D01*
X2396Y800D01*
X2398Y800D01*
X2398Y798D01*
X2400Y798D01*
X2400Y796D01*
X2402Y796D01*
X2402Y794D01*
X2404Y794D01*
X2404Y792D01*
X2406Y792D01*
X2406Y790D01*
X2408Y790D01*
X2408Y788D01*
X2410Y788D01*
X2410Y786D01*
X2412Y786D01*
X2412Y784D01*
X2414Y784D01*
X2414Y782D01*
X2416Y782D01*
X2416Y780D01*
X2418Y780D01*
X2418Y778D01*
X2420Y778D01*
X2420Y776D01*
X2422Y776D01*
X2422Y774D01*
X2424Y774D01*
X2424Y772D01*
X2426Y772D01*
X2426Y770D01*
X2428Y770D01*
X2428Y766D01*
X2430Y766D01*
X2430Y764D01*
X2432Y764D01*
X2432Y762D01*
X2434Y762D01*
X2434Y760D01*
X2436Y760D01*
X2436Y758D01*
X2438Y758D01*
X2438Y756D01*
X2440Y756D01*
X2440Y754D01*
X2442Y754D01*
X2442Y752D01*
X2444Y752D01*
X2444Y750D01*
X2446Y750D01*
X2446Y748D01*
X2448Y748D01*
X2448Y746D01*
X2450Y746D01*
X2450Y744D01*
X2452Y744D01*
X2452Y742D01*
X2454Y742D01*
X2454Y740D01*
X2456Y740D01*
X2456Y738D01*
X2458Y738D01*
X2458Y736D01*
X2460Y736D01*
X2460Y734D01*
X2462Y734D01*
X2462Y732D01*
X2464Y732D01*
X2464Y730D01*
X2466Y730D01*
X2466Y728D01*
X2468Y728D01*
X2468Y726D01*
X2470Y726D01*
X2470Y724D01*
X2472Y724D01*
X2472Y722D01*
X2474Y722D01*
X2474Y718D01*
X2674Y718D01*
X2674Y716D01*
X2678Y716D01*
X2678Y714D01*
X2680Y714D01*
X2680Y712D01*
X2682Y712D01*
X2682Y710D01*
X2684Y710D01*
X2684Y708D01*
X2686Y708D01*
X2686Y704D01*
X2688Y704D01*
X2688Y650D01*
X2718Y650D01*
X2718Y548D01*
X2648Y548D01*
X2648Y546D01*
X2646Y546D01*
X2646Y544D01*
X2644Y544D01*
X2644Y542D01*
X2642Y542D01*
X2642Y540D01*
X2640Y540D01*
X2640Y538D01*
X2638Y538D01*
X2638Y536D01*
X2636Y536D01*
X2636Y534D01*
X2634Y534D01*
X2634Y532D01*
X2632Y532D01*
X2632Y530D01*
X2630Y530D01*
X2630Y528D01*
X2628Y528D01*
X2628Y526D01*
X2626Y526D01*
X2626Y524D01*
X2624Y524D01*
X2624Y522D01*
X2622Y522D01*
X2622Y520D01*
X2620Y520D01*
X2620Y518D01*
X2618Y518D01*
X2618Y516D01*
X2616Y516D01*
X2616Y514D01*
X2614Y514D01*
X2614Y512D01*
X2610Y512D01*
X2610Y510D01*
X2608Y510D01*
X2608Y508D01*
X2606Y508D01*
X2606Y506D01*
X2604Y506D01*
X2604Y504D01*
X2602Y504D01*
X2602Y502D01*
X2600Y502D01*
X2600Y500D01*
X2598Y500D01*
X2598Y498D01*
X2596Y498D01*
X2596Y496D01*
X2594Y496D01*
X2594Y494D01*
X2592Y494D01*
X2592Y492D01*
X2590Y492D01*
X2590Y490D01*
X2588Y490D01*
X2588Y488D01*
X2586Y488D01*
X2586Y486D01*
X2584Y486D01*
X2584Y484D01*
X2582Y484D01*
X2582Y482D01*
X2580Y482D01*
X2580Y480D01*
X2578Y480D01*
X2578Y478D01*
X2576Y478D01*
X2576Y476D01*
X2574Y476D01*
X2574Y474D01*
X2572Y474D01*
X2572Y472D01*
X2570Y472D01*
X2570Y470D01*
X2568Y470D01*
X2568Y468D01*
X2566Y468D01*
X2566Y466D01*
X2564Y466D01*
X2564Y464D01*
X2562Y464D01*
X2562Y462D01*
X2560Y462D01*
X2560Y460D01*
X2558Y460D01*
X2558Y458D01*
X2556Y458D01*
X2556Y456D01*
X2554Y456D01*
X2554Y454D01*
X2552Y454D01*
X2552Y452D01*
X2550Y452D01*
X2550Y450D01*
X2548Y450D01*
X2548Y448D01*
X2546Y448D01*
X2546Y446D01*
X2544Y446D01*
X2544Y444D01*
X2542Y444D01*
X2542Y442D01*
X2540Y442D01*
X2540Y440D01*
X2538Y440D01*
X2538Y438D01*
X2536Y438D01*
X2536Y436D01*
X2534Y436D01*
X2534Y434D01*
X2532Y434D01*
X2532Y432D01*
X2530Y432D01*
X2530Y430D01*
X2528Y430D01*
X2528Y428D01*
X2526Y428D01*
X2526Y426D01*
X2524Y426D01*
X2524Y424D01*
X2522Y424D01*
X2522Y422D01*
X2520Y422D01*
X2520Y420D01*
X2518Y420D01*
X2518Y418D01*
X2516Y418D01*
X2516Y416D01*
X2514Y416D01*
X2514Y414D01*
X2512Y414D01*
X2512Y412D01*
X2510Y412D01*
X2510Y410D01*
X2508Y410D01*
X2508Y408D01*
X2506Y408D01*
X2506Y406D01*
X2504Y406D01*
X2504Y404D01*
X2502Y404D01*
X2502Y402D01*
X2500Y402D01*
X2500Y400D01*
X2498Y400D01*
X2498Y398D01*
X2496Y398D01*
X2496Y396D01*
X2494Y396D01*
X2494Y394D01*
X2492Y394D01*
X2492Y392D01*
X2490Y392D01*
X2490Y390D01*
X2488Y390D01*
X2488Y388D01*
X2486Y388D01*
X2486Y386D01*
X2484Y386D01*
X2484Y384D01*
X2482Y384D01*
X2482Y382D01*
X2480Y382D01*
X2480Y380D01*
X2476Y380D01*
X2476Y378D01*
X2470Y378D01*
X2470Y376D01*
X3292Y376D01*
X3292Y1174D01*
X2190Y1174D01*
G37*
D02*
G36*
X2190Y1146D02*
X2190Y940D01*
X2192Y940D01*
X2192Y938D01*
X2196Y938D01*
X2196Y936D01*
X2198Y936D01*
X2198Y934D01*
X2200Y934D01*
X2200Y932D01*
X2202Y932D01*
X2202Y930D01*
X2204Y930D01*
X2204Y928D01*
X2206Y928D01*
X2206Y926D01*
X2208Y926D01*
X2208Y922D01*
X2228Y922D01*
X2228Y926D01*
X2230Y926D01*
X2230Y928D01*
X2232Y928D01*
X2232Y930D01*
X2234Y930D01*
X2234Y932D01*
X2236Y932D01*
X2236Y934D01*
X2238Y934D01*
X2238Y936D01*
X2240Y936D01*
X2240Y938D01*
X2244Y938D01*
X2244Y940D01*
X2246Y940D01*
X2246Y1056D01*
X2244Y1056D01*
X2244Y1058D01*
X2242Y1058D01*
X2242Y1060D01*
X2238Y1060D01*
X2238Y1062D01*
X2236Y1062D01*
X2236Y1064D01*
X2234Y1064D01*
X2234Y1066D01*
X2232Y1066D01*
X2232Y1068D01*
X2230Y1068D01*
X2230Y1072D01*
X2228Y1072D01*
X2228Y1074D01*
X2226Y1074D01*
X2226Y1078D01*
X2224Y1078D01*
X2224Y1084D01*
X2222Y1084D01*
X2222Y1092D01*
X2220Y1092D01*
X2220Y1104D01*
X2222Y1104D01*
X2222Y1112D01*
X2224Y1112D01*
X2224Y1118D01*
X2226Y1118D01*
X2226Y1122D01*
X2228Y1122D01*
X2228Y1126D01*
X2230Y1126D01*
X2230Y1128D01*
X2232Y1128D01*
X2232Y1130D01*
X2234Y1130D01*
X2234Y1132D01*
X2236Y1132D01*
X2236Y1134D01*
X2238Y1134D01*
X2238Y1136D01*
X2240Y1136D01*
X2240Y1138D01*
X2244Y1138D01*
X2244Y1140D01*
X2248Y1140D01*
X2248Y1142D01*
X2252Y1142D01*
X2252Y1144D01*
X2260Y1144D01*
X2260Y1146D01*
X2190Y1146D01*
G37*
D02*
G36*
X2290Y1046D02*
X2290Y940D01*
X2292Y940D01*
X2292Y938D01*
X2296Y938D01*
X2296Y936D01*
X2298Y936D01*
X2298Y934D01*
X2300Y934D01*
X2300Y932D01*
X2302Y932D01*
X2302Y930D01*
X2304Y930D01*
X2304Y928D01*
X2306Y928D01*
X2306Y926D01*
X2308Y926D01*
X2308Y922D01*
X2328Y922D01*
X2328Y926D01*
X2330Y926D01*
X2330Y928D01*
X2332Y928D01*
X2332Y930D01*
X2334Y930D01*
X2334Y932D01*
X2336Y932D01*
X2336Y934D01*
X2338Y934D01*
X2338Y936D01*
X2340Y936D01*
X2340Y938D01*
X2344Y938D01*
X2344Y958D01*
X2342Y958D01*
X2342Y960D01*
X2338Y960D01*
X2338Y962D01*
X2336Y962D01*
X2336Y964D01*
X2334Y964D01*
X2334Y966D01*
X2332Y966D01*
X2332Y968D01*
X2330Y968D01*
X2330Y972D01*
X2328Y972D01*
X2328Y974D01*
X2326Y974D01*
X2326Y978D01*
X2324Y978D01*
X2324Y984D01*
X2322Y984D01*
X2322Y992D01*
X2320Y992D01*
X2320Y1004D01*
X2322Y1004D01*
X2322Y1012D01*
X2324Y1012D01*
X2324Y1018D01*
X2326Y1018D01*
X2326Y1022D01*
X2328Y1022D01*
X2328Y1026D01*
X2330Y1026D01*
X2330Y1028D01*
X2332Y1028D01*
X2332Y1030D01*
X2334Y1030D01*
X2334Y1032D01*
X2336Y1032D01*
X2336Y1034D01*
X2338Y1034D01*
X2338Y1036D01*
X2340Y1036D01*
X2340Y1038D01*
X2344Y1038D01*
X2344Y1040D01*
X2348Y1040D01*
X2348Y1042D01*
X2352Y1042D01*
X2352Y1044D01*
X2360Y1044D01*
X2360Y1046D01*
X2290Y1046D01*
G37*
D02*
G36*
X1308Y568D02*
X1308Y566D01*
X1306Y566D01*
X1306Y564D01*
X1304Y564D01*
X1304Y562D01*
X1302Y562D01*
X1302Y560D01*
X1300Y560D01*
X1300Y558D01*
X1298Y558D01*
X1298Y556D01*
X1294Y556D01*
X1294Y554D01*
X1290Y554D01*
X1290Y552D01*
X1288Y552D01*
X1288Y550D01*
X1280Y550D01*
X1280Y548D01*
X1356Y548D01*
X1356Y550D01*
X1348Y550D01*
X1348Y552D01*
X1344Y552D01*
X1344Y554D01*
X1342Y554D01*
X1342Y556D01*
X1338Y556D01*
X1338Y558D01*
X1336Y558D01*
X1336Y560D01*
X1334Y560D01*
X1334Y562D01*
X1332Y562D01*
X1332Y564D01*
X1330Y564D01*
X1330Y566D01*
X1328Y566D01*
X1328Y568D01*
X1308Y568D01*
G37*
D02*
G36*
X40Y548D02*
X40Y546D01*
X1388Y546D01*
X1388Y548D01*
X40Y548D01*
G37*
D02*
G36*
X40Y548D02*
X40Y546D01*
X1388Y546D01*
X1388Y548D01*
X40Y548D01*
G37*
D02*
G36*
X40Y546D02*
X40Y350D01*
X1856Y350D01*
X1856Y352D01*
X1850Y352D01*
X1850Y354D01*
X1846Y354D01*
X1846Y356D01*
X1842Y356D01*
X1842Y358D01*
X1840Y358D01*
X1840Y360D01*
X1836Y360D01*
X1836Y362D01*
X1834Y362D01*
X1834Y364D01*
X1832Y364D01*
X1832Y366D01*
X1830Y366D01*
X1830Y368D01*
X1828Y368D01*
X1828Y372D01*
X1826Y372D01*
X1826Y376D01*
X1824Y376D01*
X1824Y378D01*
X1822Y378D01*
X1822Y386D01*
X1820Y386D01*
X1820Y416D01*
X1818Y416D01*
X1818Y418D01*
X1816Y418D01*
X1816Y420D01*
X1814Y420D01*
X1814Y422D01*
X1812Y422D01*
X1812Y424D01*
X1810Y424D01*
X1810Y426D01*
X1806Y426D01*
X1806Y428D01*
X1804Y428D01*
X1804Y430D01*
X1802Y430D01*
X1802Y432D01*
X1800Y432D01*
X1800Y434D01*
X1798Y434D01*
X1798Y436D01*
X1796Y436D01*
X1796Y438D01*
X1794Y438D01*
X1794Y440D01*
X1792Y440D01*
X1792Y442D01*
X1790Y442D01*
X1790Y444D01*
X1788Y444D01*
X1788Y446D01*
X1786Y446D01*
X1786Y448D01*
X1784Y448D01*
X1784Y450D01*
X1782Y450D01*
X1782Y452D01*
X1780Y452D01*
X1780Y454D01*
X1778Y454D01*
X1778Y456D01*
X1776Y456D01*
X1776Y458D01*
X1774Y458D01*
X1774Y460D01*
X1772Y460D01*
X1772Y462D01*
X1770Y462D01*
X1770Y464D01*
X1768Y464D01*
X1768Y466D01*
X1766Y466D01*
X1766Y468D01*
X1764Y468D01*
X1764Y470D01*
X1762Y470D01*
X1762Y472D01*
X1760Y472D01*
X1760Y474D01*
X1464Y474D01*
X1464Y476D01*
X1460Y476D01*
X1460Y478D01*
X1456Y478D01*
X1456Y480D01*
X1454Y480D01*
X1454Y482D01*
X1452Y482D01*
X1452Y484D01*
X1450Y484D01*
X1450Y486D01*
X1448Y486D01*
X1448Y488D01*
X1446Y488D01*
X1446Y490D01*
X1444Y490D01*
X1444Y492D01*
X1442Y492D01*
X1442Y494D01*
X1440Y494D01*
X1440Y496D01*
X1438Y496D01*
X1438Y498D01*
X1436Y498D01*
X1436Y500D01*
X1434Y500D01*
X1434Y502D01*
X1432Y502D01*
X1432Y504D01*
X1430Y504D01*
X1430Y506D01*
X1428Y506D01*
X1428Y508D01*
X1426Y508D01*
X1426Y510D01*
X1424Y510D01*
X1424Y512D01*
X1422Y512D01*
X1422Y514D01*
X1420Y514D01*
X1420Y516D01*
X1418Y516D01*
X1418Y518D01*
X1416Y518D01*
X1416Y520D01*
X1414Y520D01*
X1414Y522D01*
X1412Y522D01*
X1412Y524D01*
X1410Y524D01*
X1410Y526D01*
X1408Y526D01*
X1408Y528D01*
X1406Y528D01*
X1406Y530D01*
X1404Y530D01*
X1404Y532D01*
X1402Y532D01*
X1402Y534D01*
X1400Y534D01*
X1400Y536D01*
X1398Y536D01*
X1398Y538D01*
X1396Y538D01*
X1396Y540D01*
X1394Y540D01*
X1394Y542D01*
X1392Y542D01*
X1392Y544D01*
X1390Y544D01*
X1390Y546D01*
X40Y546D01*
G37*
D02*
G36*
X2210Y384D02*
X2210Y382D01*
X2208Y382D01*
X2208Y380D01*
X2206Y380D01*
X2206Y376D01*
X2448Y376D01*
X2448Y378D01*
X2388Y378D01*
X2388Y380D01*
X2328Y380D01*
X2328Y382D01*
X2266Y382D01*
X2266Y384D01*
X2210Y384D01*
G37*
D02*
G36*
X1910Y376D02*
X1910Y372D01*
X1908Y372D01*
X1908Y370D01*
X1906Y370D01*
X1906Y366D01*
X1904Y366D01*
X1904Y364D01*
X1902Y364D01*
X1902Y362D01*
X1900Y362D01*
X1900Y360D01*
X1956Y360D01*
X1956Y362D01*
X1950Y362D01*
X1950Y364D01*
X1946Y364D01*
X1946Y366D01*
X1942Y366D01*
X1942Y368D01*
X1940Y368D01*
X1940Y370D01*
X1936Y370D01*
X1936Y372D01*
X1934Y372D01*
X1934Y374D01*
X1932Y374D01*
X1932Y376D01*
X1910Y376D01*
G37*
D02*
G36*
X2004Y376D02*
X2004Y374D01*
X2002Y374D01*
X2002Y372D01*
X2000Y372D01*
X2000Y370D01*
X1996Y370D01*
X1996Y368D01*
X1994Y368D01*
X1994Y366D01*
X1990Y366D01*
X1990Y364D01*
X1986Y364D01*
X1986Y362D01*
X1980Y362D01*
X1980Y360D01*
X2036Y360D01*
X2036Y362D01*
X2034Y362D01*
X2034Y364D01*
X2032Y364D01*
X2032Y366D01*
X2030Y366D01*
X2030Y368D01*
X2028Y368D01*
X2028Y372D01*
X2026Y372D01*
X2026Y376D01*
X2004Y376D01*
G37*
D02*
G36*
X2110Y376D02*
X2110Y372D01*
X2108Y372D01*
X2108Y370D01*
X2106Y370D01*
X2106Y366D01*
X2104Y366D01*
X2104Y364D01*
X2102Y364D01*
X2102Y362D01*
X2100Y362D01*
X2100Y360D01*
X2156Y360D01*
X2156Y362D01*
X2150Y362D01*
X2150Y364D01*
X2146Y364D01*
X2146Y366D01*
X2142Y366D01*
X2142Y368D01*
X2140Y368D01*
X2140Y370D01*
X2136Y370D01*
X2136Y372D01*
X2134Y372D01*
X2134Y374D01*
X2132Y374D01*
X2132Y376D01*
X2110Y376D01*
G37*
D02*
G36*
X2204Y376D02*
X2204Y374D01*
X3292Y374D01*
X3292Y376D01*
X2204Y376D01*
G37*
D02*
G36*
X2204Y376D02*
X2204Y374D01*
X3292Y374D01*
X3292Y376D01*
X2204Y376D01*
G37*
D02*
G36*
X2202Y374D02*
X2202Y372D01*
X2200Y372D01*
X2200Y370D01*
X2196Y370D01*
X2196Y368D01*
X2194Y368D01*
X2194Y366D01*
X2190Y366D01*
X2190Y364D01*
X2186Y364D01*
X2186Y362D01*
X2180Y362D01*
X2180Y360D01*
X3292Y360D01*
X3292Y374D01*
X2202Y374D01*
G37*
D02*
G36*
X1896Y360D02*
X1896Y358D01*
X2040Y358D01*
X2040Y360D01*
X1896Y360D01*
G37*
D02*
G36*
X1896Y360D02*
X1896Y358D01*
X2040Y358D01*
X2040Y360D01*
X1896Y360D01*
G37*
D02*
G36*
X2096Y360D02*
X2096Y358D01*
X3292Y358D01*
X3292Y360D01*
X2096Y360D01*
G37*
D02*
G36*
X2096Y360D02*
X2096Y358D01*
X3292Y358D01*
X3292Y360D01*
X2096Y360D01*
G37*
D02*
G36*
X1894Y358D02*
X1894Y356D01*
X1890Y356D01*
X1890Y354D01*
X1886Y354D01*
X1886Y352D01*
X1880Y352D01*
X1880Y350D01*
X2056Y350D01*
X2056Y352D01*
X2050Y352D01*
X2050Y354D01*
X2046Y354D01*
X2046Y356D01*
X2042Y356D01*
X2042Y358D01*
X1894Y358D01*
G37*
D02*
G36*
X2094Y358D02*
X2094Y356D01*
X2090Y356D01*
X2090Y354D01*
X2086Y354D01*
X2086Y352D01*
X2080Y352D01*
X2080Y350D01*
X3292Y350D01*
X3292Y358D01*
X2094Y358D01*
G37*
D02*
G36*
X40Y350D02*
X40Y348D01*
X3292Y348D01*
X3292Y350D01*
X40Y350D01*
G37*
D02*
G36*
X40Y350D02*
X40Y348D01*
X3292Y348D01*
X3292Y350D01*
X40Y350D01*
G37*
D02*
G36*
X40Y350D02*
X40Y348D01*
X3292Y348D01*
X3292Y350D01*
X40Y350D01*
G37*
D02*
G36*
X40Y348D02*
X40Y40D01*
X3292Y40D01*
X3292Y348D01*
X40Y348D01*
G37*
D02*
G04 End of Copper0*
M02*