G04 MADE WITH FRITZING*
G04 WWW.FRITZING.ORG*
G04 DOUBLE SIDED*
G04 HOLES PLATED*
G04 CONTOUR ON CENTER OF CONTOUR VECTOR*
%ASAXBY*%
%FSLAX23Y23*%
%MOIN*%
%OFA0B0*%
%SFA1.0B1.0*%
%ADD10C,0.088000*%
%ADD11C,0.085000*%
%ADD12C,0.092000*%
%ADD13R,0.085000X0.085000*%
%ADD14R,0.092000X0.092000*%
%LNMASK1*%
G90*
G70*
G54D10*
X1868Y398D03*
X1968Y408D03*
X2068Y398D03*
X2168Y408D03*
X1868Y398D03*
X1968Y408D03*
X2068Y398D03*
X2168Y408D03*
G54D11*
X2268Y1998D03*
X2268Y1698D03*
X2168Y1998D03*
X2168Y1698D03*
X2068Y1998D03*
X2068Y1698D03*
X1968Y1998D03*
X1968Y1698D03*
X1868Y1998D03*
X1868Y1698D03*
X1768Y1998D03*
X1768Y1698D03*
X1668Y1998D03*
X1668Y1698D03*
G54D10*
X2368Y1998D03*
X2378Y1898D03*
X2368Y1798D03*
X2378Y1698D03*
X2368Y1998D03*
X2378Y1898D03*
X2368Y1798D03*
X2378Y1698D03*
G54D11*
X1768Y898D03*
X1668Y898D03*
X1568Y898D03*
X1768Y898D03*
X1668Y898D03*
X1568Y898D03*
X2068Y898D03*
X1968Y898D03*
X1868Y898D03*
X2068Y898D03*
X1968Y898D03*
X1868Y898D03*
X2368Y898D03*
X2268Y898D03*
X2168Y898D03*
X2368Y898D03*
X2268Y898D03*
X2168Y898D03*
G54D12*
X2068Y598D03*
X1968Y598D03*
X1868Y598D03*
X2068Y598D03*
X1968Y598D03*
X1868Y598D03*
X1468Y598D03*
X1368Y598D03*
X1268Y598D03*
X1468Y598D03*
X1368Y598D03*
X1268Y598D03*
X2668Y598D03*
X2568Y598D03*
X2468Y598D03*
X2668Y598D03*
X2568Y598D03*
X2468Y598D03*
G54D11*
X1768Y998D03*
X1768Y1398D03*
X1768Y998D03*
X1768Y1398D03*
X2068Y998D03*
X2068Y1398D03*
X2068Y998D03*
X2068Y1398D03*
X2368Y998D03*
X2368Y1398D03*
X2368Y998D03*
X2368Y1398D03*
X1968Y1498D03*
X1968Y1098D03*
X1968Y1498D03*
X1968Y1098D03*
X1668Y1498D03*
X1668Y1098D03*
X1668Y1498D03*
X1668Y1098D03*
X2268Y1498D03*
X2268Y1098D03*
X2268Y1498D03*
X2268Y1098D03*
G54D10*
X2568Y1398D03*
X2468Y1398D03*
X2568Y1398D03*
X2468Y1398D03*
X2568Y1498D03*
X2468Y1498D03*
X2568Y1498D03*
X2468Y1498D03*
G54D13*
X2268Y1998D03*
G54D14*
X2068Y598D03*
X2068Y598D03*
X1468Y598D03*
X1468Y598D03*
X2668Y598D03*
X2668Y598D03*
G04 End of Mask1*
M02*