G04 MADE WITH FRITZING*
G04 WWW.FRITZING.ORG*
G04 DOUBLE SIDED*
G04 HOLES PLATED*
G04 CONTOUR ON CENTER OF CONTOUR VECTOR*
%ASAXBY*%
%FSLAX23Y23*%
%MOIN*%
%OFA0B0*%
%SFA1.0B1.0*%
%ADD10R,3.333330X2.222220X3.317330X2.206220*%
%ADD11C,0.008000*%
%ADD12C,0.010000*%
%ADD13R,0.001000X0.001000*%
%LNSILK1*%
G90*
G70*
G54D11*
X4Y2218D02*
X3329Y2218D01*
X3329Y4D01*
X4Y4D01*
X4Y2218D01*
D02*
G54D12*
X2318Y2048D02*
X1618Y2048D01*
D02*
X1618Y2048D02*
X1618Y1648D01*
D02*
X1618Y1648D02*
X2318Y1648D01*
D02*
X2318Y2048D02*
X2318Y1898D01*
D02*
X2318Y1798D02*
X2318Y1648D01*
G54D13*
X2355Y1630D02*
X2358Y1630D01*
X2402Y1630D02*
X2405Y1630D01*
X2354Y1629D02*
X2359Y1629D01*
X2401Y1629D02*
X2406Y1629D01*
X2354Y1628D02*
X2359Y1628D01*
X2401Y1628D02*
X2406Y1628D01*
X2353Y1627D02*
X2359Y1627D01*
X2401Y1627D02*
X2407Y1627D01*
X2353Y1626D02*
X2359Y1626D01*
X2401Y1626D02*
X2407Y1626D01*
X2353Y1625D02*
X2359Y1625D01*
X2401Y1625D02*
X2407Y1625D01*
X2353Y1624D02*
X2359Y1624D01*
X2401Y1624D02*
X2407Y1624D01*
X2353Y1623D02*
X2359Y1623D01*
X2401Y1623D02*
X2407Y1623D01*
X2353Y1622D02*
X2359Y1622D01*
X2401Y1622D02*
X2407Y1622D01*
X2353Y1621D02*
X2359Y1621D01*
X2401Y1621D02*
X2407Y1621D01*
X2353Y1620D02*
X2359Y1620D01*
X2401Y1620D02*
X2407Y1620D01*
X2353Y1619D02*
X2359Y1619D01*
X2401Y1619D02*
X2407Y1619D01*
X2353Y1618D02*
X2359Y1618D01*
X2401Y1618D02*
X2407Y1618D01*
X2353Y1617D02*
X2407Y1617D01*
X2353Y1616D02*
X2407Y1616D01*
X2353Y1615D02*
X2407Y1615D01*
X2353Y1614D02*
X2407Y1614D01*
X2353Y1613D02*
X2407Y1613D01*
X2353Y1612D02*
X2407Y1612D01*
X2353Y1611D02*
X2407Y1611D01*
X2353Y1610D02*
X2360Y1610D01*
X2400Y1610D02*
X2407Y1610D01*
X2353Y1609D02*
X2359Y1609D01*
X2401Y1609D02*
X2407Y1609D01*
X2353Y1608D02*
X2359Y1608D01*
X2401Y1608D02*
X2407Y1608D01*
X2353Y1607D02*
X2359Y1607D01*
X2401Y1607D02*
X2407Y1607D01*
X2353Y1606D02*
X2359Y1606D01*
X2401Y1606D02*
X2407Y1606D01*
X2353Y1605D02*
X2359Y1605D01*
X2401Y1605D02*
X2407Y1605D01*
X2353Y1604D02*
X2359Y1604D01*
X2401Y1604D02*
X2407Y1604D01*
X2353Y1603D02*
X2359Y1603D01*
X2401Y1603D02*
X2407Y1603D01*
X2353Y1602D02*
X2359Y1602D01*
X2401Y1602D02*
X2407Y1602D01*
X2353Y1601D02*
X2359Y1601D01*
X2401Y1601D02*
X2407Y1601D01*
X2353Y1600D02*
X2359Y1600D01*
X2401Y1600D02*
X2407Y1600D01*
X2354Y1599D02*
X2359Y1599D01*
X2401Y1599D02*
X2406Y1599D01*
X2354Y1598D02*
X2359Y1598D01*
X2401Y1598D02*
X2406Y1598D01*
X2355Y1597D02*
X2358Y1597D01*
X2402Y1597D02*
X2405Y1597D01*
X2376Y1580D02*
X2384Y1580D01*
X2373Y1579D02*
X2387Y1579D01*
X2371Y1578D02*
X2389Y1578D01*
X2369Y1577D02*
X2391Y1577D01*
X2367Y1576D02*
X2393Y1576D01*
X2365Y1575D02*
X2395Y1575D01*
X2363Y1574D02*
X2397Y1574D01*
X2361Y1573D02*
X2376Y1573D01*
X2384Y1573D02*
X2399Y1573D01*
X2359Y1572D02*
X2374Y1572D01*
X2386Y1572D02*
X2401Y1572D01*
X2358Y1571D02*
X2372Y1571D01*
X2388Y1571D02*
X2402Y1571D01*
X2357Y1570D02*
X2370Y1570D01*
X2390Y1570D02*
X2404Y1570D01*
X2356Y1569D02*
X2368Y1569D01*
X2392Y1569D02*
X2404Y1569D01*
X2355Y1568D02*
X2366Y1568D01*
X2394Y1568D02*
X2405Y1568D01*
X2354Y1567D02*
X2364Y1567D01*
X2396Y1567D02*
X2406Y1567D01*
X2354Y1566D02*
X2362Y1566D01*
X2398Y1566D02*
X2406Y1566D01*
X2354Y1565D02*
X2360Y1565D01*
X2400Y1565D02*
X2406Y1565D01*
X2354Y1564D02*
X2360Y1564D01*
X2400Y1564D02*
X2406Y1564D01*
X2353Y1563D02*
X2359Y1563D01*
X2401Y1563D02*
X2407Y1563D01*
X2353Y1562D02*
X2359Y1562D01*
X2401Y1562D02*
X2407Y1562D01*
X2353Y1561D02*
X2359Y1561D01*
X2401Y1561D02*
X2407Y1561D01*
X2353Y1560D02*
X2359Y1560D01*
X2401Y1560D02*
X2407Y1560D01*
X2353Y1559D02*
X2359Y1559D01*
X2401Y1559D02*
X2407Y1559D01*
X2353Y1558D02*
X2359Y1558D01*
X2401Y1558D02*
X2407Y1558D01*
X2353Y1557D02*
X2359Y1557D01*
X2401Y1557D02*
X2407Y1557D01*
X2353Y1556D02*
X2359Y1556D01*
X2401Y1556D02*
X2407Y1556D01*
X2353Y1555D02*
X2359Y1555D01*
X2401Y1555D02*
X2407Y1555D01*
X2353Y1554D02*
X2359Y1554D01*
X2401Y1554D02*
X2407Y1554D01*
X2353Y1553D02*
X2359Y1553D01*
X2401Y1553D02*
X2407Y1553D01*
X2353Y1552D02*
X2359Y1552D01*
X2401Y1552D02*
X2407Y1552D01*
X2353Y1551D02*
X2359Y1551D01*
X2401Y1551D02*
X2407Y1551D01*
X2353Y1550D02*
X2359Y1550D01*
X2401Y1550D02*
X2407Y1550D01*
X2354Y1549D02*
X2359Y1549D01*
X2401Y1549D02*
X2406Y1549D01*
X2354Y1548D02*
X2359Y1548D01*
X2401Y1548D02*
X2406Y1548D01*
X2355Y1547D02*
X2358Y1547D01*
X2402Y1547D02*
X2405Y1547D01*
X2355Y1530D02*
X2358Y1530D01*
X2402Y1530D02*
X2405Y1530D01*
X2354Y1529D02*
X2359Y1529D01*
X2401Y1529D02*
X2406Y1529D01*
X2354Y1528D02*
X2359Y1528D01*
X2401Y1528D02*
X2406Y1528D01*
X2353Y1527D02*
X2359Y1527D01*
X2401Y1527D02*
X2407Y1527D01*
X2353Y1526D02*
X2359Y1526D01*
X2401Y1526D02*
X2407Y1526D01*
X2353Y1525D02*
X2359Y1525D01*
X2401Y1525D02*
X2407Y1525D01*
X2353Y1524D02*
X2359Y1524D01*
X2401Y1524D02*
X2407Y1524D01*
X2353Y1523D02*
X2359Y1523D01*
X2401Y1523D02*
X2407Y1523D01*
X2353Y1522D02*
X2359Y1522D01*
X2401Y1522D02*
X2407Y1522D01*
X2353Y1521D02*
X2359Y1521D01*
X2401Y1521D02*
X2407Y1521D01*
X2353Y1520D02*
X2359Y1520D01*
X2401Y1520D02*
X2407Y1520D01*
X2353Y1519D02*
X2359Y1519D01*
X2401Y1519D02*
X2407Y1519D01*
X2353Y1518D02*
X2359Y1518D01*
X2401Y1518D02*
X2407Y1518D01*
X2353Y1517D02*
X2360Y1517D01*
X2400Y1517D02*
X2407Y1517D01*
X2353Y1516D02*
X2407Y1516D01*
X2353Y1515D02*
X2407Y1515D01*
X2353Y1514D02*
X2407Y1514D01*
X2353Y1513D02*
X2407Y1513D01*
X2353Y1512D02*
X2407Y1512D01*
X2353Y1511D02*
X2407Y1511D01*
X2353Y1510D02*
X2406Y1510D01*
X2353Y1509D02*
X2359Y1509D01*
X2353Y1508D02*
X2359Y1508D01*
X2353Y1507D02*
X2359Y1507D01*
X2353Y1506D02*
X2359Y1506D01*
X2353Y1505D02*
X2359Y1505D01*
X2353Y1504D02*
X2359Y1504D01*
X2353Y1503D02*
X2373Y1503D01*
X2353Y1502D02*
X2376Y1502D01*
X2353Y1501D02*
X2377Y1501D01*
X2353Y1500D02*
X2377Y1500D01*
X2354Y1499D02*
X2377Y1499D01*
X2354Y1498D02*
X2377Y1498D01*
X2355Y1497D02*
X2376Y1497D01*
X2357Y1496D02*
X2374Y1496D01*
D02*
G04 End of Silk1*
M02*